<?xml version="1.0" encoding="utf-8"?>
<!-- Generator: Adobe Illustrator 16.0.0, SVG Export Plug-In . SVG Version: 6.00 Build 0)  -->
<svg version="1.2" baseProfile="tiny" id="Слой_1"
	 xmlns="http://www.w3.org/2000/svg" xmlns:xlink="http://www.w3.org/1999/xlink" x="0px" y="0px" width="386.4px" height="560px"
	 viewBox="286.8 0 386.4 560" xml:space="preserve">
<rect x="310.133" fill="#3F3428" width="338.8" height="560"/>
<rect x="340" fill="#784640" width="278.134" height="532"/>
<rect x="286.8" y="526.4" fill="#9C4A2A" width="386.4" height="33.6"/>
<line fill="none" stroke="#71300E" stroke-width="1.7117" stroke-linejoin="round" stroke-miterlimit="10" x1="478.507" y1="141.213" x2="556.253" y2="182"/>
<line fill="none" stroke="#71300E" stroke-width="1.7117" stroke-linejoin="round" stroke-miterlimit="10" x1="402.813" y1="183.867" x2="478.507" y2="141.213"/>
<circle fill="#71300E" cx="480.094" cy="143.36" r="8.493"/>
<path fill="#FEFBE6" stroke="#E7D0AC" stroke-width="2" stroke-linejoin="round" stroke-miterlimit="10" d="M571.094,182.093
	c3.359,0,5.04,4.107,5.04,9.24v60.48c0,11.293-1.4,8.68-4.854,8.68H389c-3.36,0-6.067-3.546-6.067-8.68v-60.48
	c0-5.133,2.333-9.24,5.693-9.24"/>
<line fill="none" stroke="#E7D0AC" stroke-width="2" stroke-linejoin="round" stroke-miterlimit="10" x1="388.533" y1="182" x2="571.467" y2="182"/>
<path fill="#71300E" d="M598.533,342.72c0,3.547-2.894,6.347-6.347,6.347h-0.28c-3.546,0-6.347-2.893-6.347-6.347v-72.146
	c0-3.546,2.894-6.347,6.347-6.347h0.28c3.547,0,6.347,2.894,6.347,6.347V342.72z"/>
</svg>
