<?xml version="1.0" encoding="utf-8"?>
<!-- Generator: Adobe Illustrator 19.0.1, SVG Export Plug-In . SVG Version: 6.00 Build 0)  -->
<svg version="1.1" id="Слой_1" xmlns="http://www.w3.org/2000/svg" xmlns:xlink="http://www.w3.org/1999/xlink" x="0px" y="0px"
	 viewBox="96 -141.7 787 1122.6" style="enable-background:new 96 -141.7 787 1122.6;" xml:space="preserve">
<style type="text/css">
	.st0{fill:#3D362B;}
	.st1{fill:#B3956E;}
	.st2{fill:#333333;}
</style>
<rect x="96" y="-141.7" class="st0" width="787" height="1122.6"/>
<path class="st1" d="M760.6-107.8L760.6-107.8l0.1-3H204.8l0.1,3.1c-0.1,34-34.2,61.6-76.4,61.7l-3.8-0.1v943.6l3.8-0.1
	c42,0,76.2,27.5,76.4,61.5v3h555.8v-3c0.1-34,34.3-61.5,76.4-61.5l3.8,0.1V-46.1l-3.8,0.1C794.8-46.1,760.7-73.7,760.6-107.8
	 M833.4,891.6c-43.3,1.5-78.1,29.5-80.1,64.4H212.1c-2-34.9-36.8-63-80.1-64.4V-40.1c43.5-1.5,78.3-29.7,80.1-64.7h541.2
	c1.9,35.1,36.7,63.2,80.1,64.7L833.4,891.6L833.4,891.6z"/>
<path class="st1" d="M643.2,739.2l-13.3,126.5l41.4,3.2l13.3-126.5L643.2,739.2z M667.2,835.5l-26.1-2c-1.3-0.1-2.2-1-2.1-2.1
	c0.1-1.1,1.2-1.9,2.5-1.8l26.1,2c1.3,0.1,2.2,1,2.1,2.1C669.5,834.8,668.4,835.6,667.2,835.5 M668.4,823.9l-26.1-2
	c-1.3-0.1-2.2-1-2.1-2.1c0.1-1.1,1.2-1.9,2.5-1.8l26.1,2c1.3,0.1,2.2,1,2.1,2.1C670.8,823.2,669.6,824,668.4,823.9 M669.6,812.3
	l-26.1-2c-1.3-0.1-2.2-1-2.1-2.1c0.1-1.1,1.2-1.9,2.5-1.8l26.1,2c1.3,0.1,2.2,1,2.1,2.1C672,811.6,670.9,812.4,669.6,812.3
	 M670.8,800.6l-26.1-2c-1.3-0.1-2.2-1-2.1-2.1c0.1-1.1,1.2-1.9,2.5-1.8l26.1,2c1.3,0.1,2.2,1,2.1,2.1
	C673.2,799.9,672.1,800.7,670.8,800.6 M672.1,789l-26.1-2c-1.3-0.1-2.2-1-2.1-2.1c0.1-1.1,1.2-1.9,2.5-1.8l26.1,2
	c1.3,0.1,2.2,1,2.1,2.1C674.4,788.3,673.3,789.1,672.1,789 M673.3,777.4l-26.1-2c-1.3-0.1-2.2-1-2.1-2.1c0.1-1.1,1.2-1.9,2.5-1.8
	l26.1,2c1.3,0.1,2.2,1,2.1,2.1C675.6,776.7,674.5,777.5,673.3,777.4 M674.5,765.7l-26.1-2c-1.3-0.1-2.2-1-2.1-2.1
	c0.1-1.1,1.2-1.9,2.5-1.8l26.1,2c1.3,0.1,2.2,1,2.1,2.1C676.9,765,675.8,765.8,674.5,765.7 M675.7,754.1l-26.1-2
	c-1.3-0.1-2.2-1-2.1-2.1c0.1-1.1,1.2-1.9,2.5-1.8l26.1,2c1.3,0.1,2.2,1,2.1,2.1S677,754.2,675.7,754.1"/>
<path class="st1" d="M754.3,725l-15.7,149.1l7.7,0.6l3.5-32.9l10.9,0.8l-3.5,32.9l4.3,0.3l3.5-32.9l10.9,0.8l-3.5,32.9l7.7,0.6
	l15.7-149.1L754.3,725z M761,822.2l-9.1-0.7c-1.3-0.1-2.2-1-2.1-2.1c0.1-1.1,1.2-1.9,2.5-1.8l9.1,0.7c1.3,0.1,2.2,1,2.1,2.1
	C763.3,821.5,762.2,822.3,761,822.2 M762.2,810.6l-9.1-0.7c-1.3-0.1-2.2-1-2.1-2.1c0.1-1.1,1.2-1.9,2.5-1.8l9.1,0.7
	c1.3,0.1,2.2,1,2.1,2.1C764.5,809.9,763.4,810.7,762.2,810.6 M763.4,799l-9.1-0.7c-1.3-0.1-2.2-1-2.1-2.1c0.1-1.1,1.2-1.9,2.5-1.8
	l9.1,0.7c1.3,0.1,2.2,1,2.1,2.1S764.7,799.1,763.4,799 M764.6,787.3l-9.1-0.7c-1.3-0.1-2.2-1-2.1-2.1c0.1-1.1,1.2-1.9,2.5-1.8
	l9.1,0.7c1.3,0.1,2.2,1,2.1,2.1C767,786.6,765.9,787.4,764.6,787.3 M765.9,775.7l-9.1-0.7c-1.3-0.1-2.2-1-2.1-2.1
	c0.1-1.1,1.2-1.9,2.5-1.8l9.1,0.7c1.3,0.1,2.2,1,2.1,2.1C768.2,775,767.1,775.8,765.9,775.7 M767.1,764.1l-9.1-0.7
	c-1.3-0.1-2.2-1-2.1-2.1s1.2-1.9,2.5-1.8l9.1,0.7c1.3,0.1,2.2,1,2.1,2.1C769.4,763.4,768.3,764.2,767.1,764.1 M768.3,752.4l-9.1-0.7
	c-1.3-0.1-2.2-1-2.1-2.1c0.1-1.1,1.2-1.9,2.5-1.8l9.1,0.7c1.3,0.1,2.2,1,2.1,2.1C770.7,751.7,769.6,752.5,768.3,752.4 M769.5,740.8
	l-9.1-0.7c-1.3-0.1-2.2-1-2.1-2.1c0.1-1.1,1.2-1.9,2.5-1.8l9.1,0.7c1.3,0.1,2.2,1,2.1,2.1C771.9,740.1,770.8,740.9,769.5,740.8
	 M778,823.5l-9.1-0.7c-1.3-0.1-2.2-1-2.1-2.1c0.1-1.1,1.2-1.9,2.5-1.8l9.1,0.7c1.2,0.1,2.2,1,2.1,2.1
	C780.3,822.8,779.2,823.6,778,823.5 M779.2,811.9l-9.1-0.7c-1.3-0.1-2.2-1-2.1-2.1c0.1-1.1,1.2-1.9,2.5-1.8l9.1,0.7
	c1.2,0.1,2.2,1,2.1,2.1C781.5,811.2,780.4,812,779.2,811.9 M780.4,800.3l-9.1-0.7c-1.3-0.1-2.2-1-2.1-2.1c0.1-1.1,1.2-1.9,2.5-1.8
	l9.1,0.7c1.2,0.1,2.2,1,2.1,2.1S781.6,800.4,780.4,800.3 M781.6,788.6l-9.1-0.7c-1.3-0.1-2.2-1-2.1-2.1c0.1-1.1,1.2-1.9,2.5-1.8
	l9.1,0.7c1.2,0.1,2.2,1,2.1,2.1C784,787.9,782.9,788.7,781.6,788.6 M782.8,777l-9.1-0.7c-1.3-0.1-2.2-1-2.1-2.1
	c0.1-1.1,1.2-1.9,2.5-1.8l9.1,0.7c1.2,0.1,2.2,1,2.1,2.1C785.2,776.3,784.1,777.1,782.8,777 M784.1,765.4l-9.1-0.7
	c-1.3-0.1-2.2-1-2.1-2.1c0.1-1.1,1.2-1.9,2.5-1.8l9.1,0.7c1.2,0.1,2.2,1,2.1,2.1C786.4,764.7,785.3,765.5,784.1,765.4 M785.3,753.7
	l-9.1-0.7c-1.3-0.1-2.2-1-2.1-2.1c0.1-1.1,1.2-1.9,2.5-1.8l9.1,0.7c1.2,0.1,2.2,1,2.1,2.1C787.6,753,786.5,753.8,785.3,753.7
	 M786.5,742.1l-9.1-0.7c-1.3-0.1-2.2-1-2.1-2.1c0.1-1.1,1.2-1.9,2.5-1.8l9.1,0.7c1.2,0.1,2.2,1,2.1,2.1
	C788.9,741.4,787.8,742.2,786.5,742.1"/>
<path class="st1" d="M725.4,770.5c0.3-3-4.8-5.8-11.3-6.3c-6.6-0.5-12.1,1.5-12.5,4.5l-0.6,5.4c0,0-3.2-0.2-7.1-0.5
	c-3.9-0.3-7.7,5.1-8.4,12.1l-1.3,12.7l52.1,4c0,0,0.6-5.7,1.3-12.7s-1.8-12.9-5.7-13.2l-7.1-0.5C724.8,776,725.1,773.5,725.4,770.5
	 M721.2,793.7l-20.4-1.6c0,0,0.3-2.7,0.6-6s5.2-5.7,10.8-5.2c5.6,0.4,9.9,3.5,9.6,6.8L721.2,793.7z"/>
<path class="st1" d="M683.7,803.6l-6.9,65.8l5.1,0.4l4.6-43.5c0.5-4.3,4.9-7.4,9.9-7.1c5,0.4,8.7,4.2,8.3,8.5l-4.6,43.5l5.7,0.4
	l4.6-43.5c0.4-4.3,4.9-7.4,9.9-7.1c5,0.4,8.7,4.2,8.2,8.4l-4.6,43.5l5.1,0.4l6.9-65.8L683.7,803.6z"/>
<path class="st1" d="M608,801.5c-11.4-0.9-21.6,7.1-22.7,17.8l-4.5,42.7l41.4,3.2l4.5-42.7C627.8,811.8,619.5,802.4,608,801.5
	 M594.6,855.2l-7.1-0.5l1-9.9l7.1,0.5L594.6,855.2z M596.2,840l-7.1-0.5l1-9.9l7.1,0.5L596.2,840z M597.8,824.8l-7.1-0.5l1-9.9
	l7.1,0.5L597.8,824.8z M605.9,856.1l-7.1-0.5l1-9.9l7.1,0.5L605.9,856.1L605.9,856.1z M607.4,840.9l-7.1-0.5l1-9.9l7.1,0.5
	L607.4,840.9L607.4,840.9z M609,825.7l-7.1-0.5l1-9.9l7.1,0.5L609,825.7L609,825.7z M617.1,856.9l-7.1-0.5l1-9.9l7.1,0.5
	L617.1,856.9z M618.7,841.7l-7.1-0.5l1-9.9l7.1,0.5L618.7,841.7z M620.3,826.5l-7.1-0.5l1-9.9l7.1,0.5L620.3,826.5z"/>
<path class="st1" d="M355.9,838.2l-17.8-63.5c-1.4-5.1-7.5-8.9-13.6-8.5l-4.2,0.2c-6.1,0.3-15.5,2.3-21.1,4.5l-1.9,0.7
	c-5.6,2.1-8.9,7.9-7.5,13l17.8,63.5l-4.7,1L276,752.9c-2.1-7.5-11.1-13.2-20.1-12.6l-6.2,0.4c-9,0.5-23,3.5-31.2,6.6l-2.8,1.1
	c-8.2,3.1-13.2,11.8-11.1,19.3l26.9,96.2l-4.8,1l-14.4-51.6c-1.2-4.3-6.3-7.5-11.4-7.2l-3.5,0.2c-5.1,0.3-13,2-17.7,3.7l-1.6,0.6
	c-4.7,1.8-7.5,6.7-6.3,10.9l14.4,51.6l-12.2,2.5l5.2,18.6l194.1-39.7l-5.2-18.6L355.9,838.2z M328.2,773.5c2.3,1.1,4.1,2.9,4.9,5
	l-3.3,0.7L328.2,773.5z M331.4,784.7l3.3-0.7l2.4,8.6l-3.3,0.7L331.4,784.7z M335.3,798.7l3.3-0.7l2.4,8.6l-3.3,0.7L335.3,798.7z
	 M339.2,812.8l3.3-0.7l2.4,8.6l-3.3,0.7L339.2,812.8z M343.1,826.8l3.3-0.7l1.8,6.5l-3.2,0.7L343.1,826.8z M319.1,772.7
	c0.2,0,0.4,0,0.6,0l3.2-0.2c0.9-0.1,1.9,0,2.8,0.2l1.9,6.9l-6.3,1.3L319.1,772.7z M323,786.4l6.3-1.3l2.4,8.6l-6.3,1.3L323,786.4z
	 M326.9,800.4l6.3-1.3l2.4,8.6l-6.3,1.3L326.9,800.4z M330.8,814.5l6.3-1.3l2.4,8.6l-6.3,1.3L330.8,814.5z M334.7,828.5l6.3-1.3
	l1.8,6.5l-6.3,1.3L334.7,828.5z M308,774.7c2.9-0.8,6.1-1.4,8.9-1.8l2.4,8.4l-8.9,1.8L308,774.7z M311.9,788.6l8.9-1.8l2.4,8.6
	l-8.9,1.8L311.9,788.6z M315.8,802.7l8.9-1.8l2.4,8.6l-8.9,1.8L315.8,802.7z M319.8,816.8l8.9-1.8l2.4,8.6l-8.9,1.8L319.8,816.8z
	 M323.7,830.8l8.9-1.8l1.8,6.5l-8.9,1.8L323.7,830.8z M300.2,777.7c0.7-0.5,1.4-0.9,2.2-1.2l1.4-0.5c0.6-0.2,1.4-0.5,2.1-0.7
	l2.3,8.3l-6.1,1.2L300.2,777.7z M303.7,790.3l6.1-1.2l2.4,8.6l-6.1,1.2L303.7,790.3z M307.6,804.4l6.1-1.2l2.4,8.6L310,813
	L307.6,804.4z M311.5,818.4l6.1-1.2l2.4,8.6l-6.1,1.2L311.5,818.4z M315.5,832.5l6.1-1.2l1.8,6.5l-6.1,1.2L315.5,832.5z
	 M298.4,779.4l1.6,5.9l-3.5,0.7C296.1,783.7,296.8,781.3,298.4,779.4 M298,791.5l3.5-0.7l2.4,8.6l-3.5,0.7L298,791.5z M302,805.5
	l3.5-0.7l2.4,8.6l-3.5,0.7L302,805.5z M305.9,819.6l3.5-0.7l2.4,8.6l-3.5,0.7L305.9,819.6z M309.8,833.6l3.5-0.7l1.8,6.5l-3.5,0.7
	L309.8,833.6z M261.4,751.1c3.4,1.6,6.1,4.2,7.2,7.4l-4.9,1L261.4,751.1z M266,767.6l4.9-1l3.5,12.7l-4.9,1L266,767.6z M271.8,788.4
	l4.9-1l3.5,12.7l-4.9,1L271.8,788.4z M277.7,809.2l4.9-1l3.5,12.7l-4.9,1L277.7,809.2z M283.5,830.1l4.9-1l2.7,9.6l-4.9,1
	L283.5,830.1z M247.9,749.9c0.3,0,0.6,0,0.9-0.1l4.7-0.3c1.4-0.1,2.8,0,4.1,0.3l2.9,10.3l-9.3,1.9L247.9,749.9L247.9,749.9z
	 M253.6,770.2l9.3-1.9l3.5,12.7l-9.3,1.9L253.6,770.2z M259.4,791l9.3-1.9l3.5,12.7l-9.3,1.9L259.4,791z M265.2,811.8l9.3-1.9
	l3.5,12.7l-9.3,1.9L265.2,811.8z M271,832.6l9.3-1.9l2.7,9.6l-9.3,1.9L271,832.6z M231.4,752.8c4.3-1.1,9.1-2.1,13.2-2.6l3.5,12.5
	l-13.2,2.7L231.4,752.8z M237.2,773.5l13.2-2.7l3.5,12.7l-13.2,2.7L237.2,773.5z M243,794.3l13.2-2.7l3.5,12.7l-13.2,2.7L243,794.3z
	 M248.8,815.2l13.2-2.7l3.5,12.7l-13.2,2.7L248.8,815.2z M254.6,836l13.2-2.7l2.7,9.6l-13.2,2.7L254.6,836z M219.8,757.4
	c1-0.7,2.1-1.3,3.2-1.7l2.1-0.8c1-0.4,2-0.7,3.2-1.1l3.4,12.3l-9,1.8L219.8,757.4L219.8,757.4z M225,776l9-1.8l3.5,12.7l-9,1.8
	L225,776z M230.8,796.8l9-1.8l3.5,12.7l-9,1.8L230.8,796.8z M236.7,817.6l9-1.8l3.5,12.7l-9,1.8L236.7,817.6z M242.5,838.5l9-1.8
	l2.7,9.6l-9,1.8L242.5,838.5z M217.2,759.9l2.4,8.7l-5.1,1C213.8,766.2,214.9,762.7,217.2,759.9 M216.7,777.7l5.2-1.1l3.5,12.7
	l-5.2,1.1L216.7,777.7z M222.5,798.5l5.2-1.1l3.5,12.7l-5.2,1.1L222.5,798.5z M228.3,819.4l5.2-1.1L237,831l-5.2,1.1L228.3,819.4z
	 M234.2,840.2l5.2-1.1l2.7,9.6l-5.2,1.1L234.2,840.2z M204,812c1.9,0.9,3.4,2.4,4.1,4.2l-2.8,0.6L204,812z M206.6,821.4l2.8-0.6
	l2,7.2l-2.8,0.6L206.6,821.4z M209.9,833.2l2.8-0.6l2,7.2l-2.8,0.6L209.9,833.2z M213.2,845l2.8-0.6l2,7.2l-2.8,0.6L213.2,845z
	 M216.5,856.8l2.8-0.6l1.5,5.4l-2.8,0.6L216.5,856.8z M196.4,811.3c0.2,0,0.4,0,0.5,0l2.7-0.1c0.8,0,1.6,0,2.3,0.2l1.6,5.8l-5.2,1.1
	L196.4,811.3z M199.6,822.8l5.2-1.1l2,7.2l-5.2,1.1L199.6,822.8z M202.9,834.7l5.2-1.1l2,7.2l-5.2,1.1L202.9,834.7z M206.2,846.5
	l5.2-1.1l2,7.2l-5.2,1.1L206.2,846.5z M209.5,858.3l5.2-1.1l1.5,5.4l-5.2,1.1L209.5,858.3z M187,813c2.4-0.6,5.1-1.2,7.5-1.5l2,7.1
	l-7.5,1.5L187,813z M190.3,824.8l7.5-1.5l2,7.2l-7.5,1.5L190.3,824.8z M193.6,836.6l7.5-1.5l2,7.2l-7.5,1.5L193.6,836.6z
	 M196.9,848.4l7.5-1.5l2,7.2l-7.5,1.5L196.9,848.4z M200.2,860.2l7.5-1.5l1.5,5.4l-7.5,1.5L200.2,860.2z M180.4,815.6
	c0.5-0.4,1.2-0.7,1.8-1l1.2-0.5c0.5-0.2,1.1-0.4,1.8-0.6l1.9,7l-5.1,1L180.4,815.6z M183.4,826.2l5.1-1l2,7.2l-5.1,1L183.4,826.2z
	 M186.7,838l5.1-1l2,7.2l-5.1,1L186.7,838z M190,849.8l5.1-1l2,7.2l-5.1,1L190,849.8z M193.3,861.6l5.1-1l1.5,5.4l-5.1,1
	L193.3,861.6z M178.9,817l1.4,4.9l-2.9,0.6C177,820.6,177.6,818.6,178.9,817 M178.7,827.1l2.9-0.6l2,7.2l-2.9,0.6L178.7,827.1z
	 M182,838.9l2.9-0.6l2,7.2l-2.9,0.6L182,838.9z M185.3,850.7l2.9-0.6l2,7.2l-2.9,0.6L185.3,850.7z M188.6,862.6l2.9-0.6l1.5,5.4
	l-2.9,0.6L188.6,862.6z"/>
<path class="st2" d="M132,891.5c0,0,316.3-102.6,701.4,0c0,0-72.5-2.1-80.1,64.4H212.1C212.1,956,211.1,903.3,132,891.5"/>
</svg>
