<?xml version="1.0" encoding="utf-8"?>
<!-- Generator: Adobe Illustrator 19.0.1, SVG Export Plug-In . SVG Version: 6.00 Build 0)  -->
<svg version="1.1" id="Слой_1" xmlns="http://www.w3.org/2000/svg" xmlns:xlink="http://www.w3.org/1999/xlink" x="0px" y="0px"
	 viewBox="0 0 787 1122.6" style="enable-background:new 0 0 787 1122.6;" xml:space="preserve">
<style type="text/css">
	.st0{fill:#3D362B;}
	.st1{fill:#B3956E;}
	.st2{fill:#333333;}
</style>
<rect y="0" class="st0" width="787" height="1122.6"/>
<path class="st1" d="M664.6,33.9L664.6,33.9l0.1-3H108.8l0.1,3.1c-0.1,34-34.2,61.6-76.4,61.7l-3.8-0.1v943.6l3.8-0.1
	c42,0,76.2,27.5,76.4,61.5l0,3h555.8l0-3c0.1-34,34.3-61.5,76.4-61.5l3.8,0.1V95.6l-3.8,0.1C698.8,95.6,664.7,68,664.6,33.9
	 M737.4,1033.3c-43.3,1.5-78.1,29.5-80.1,64.4H116.1c-2-34.9-36.8-63-80.1-64.4V101.6c43.5-1.5,78.3-29.7,80.1-64.7h541.2
	c1.9,35.1,36.7,63.2,80.1,64.7V1033.3z"/>
<path class="st1" d="M547.2,880.9l-13.3,126.5l41.4,3.2l13.3-126.5L547.2,880.9z M571.2,977.2l-26.1-2c-1.3-0.1-2.2-1-2.1-2.1
	c0.1-1.1,1.2-1.9,2.5-1.8l26.1,2c1.3,0.1,2.2,1,2.1,2.1C573.5,976.5,572.4,977.3,571.2,977.2 M572.4,965.6l-26.1-2
	c-1.3-0.1-2.2-1-2.1-2.1c0.1-1.1,1.2-1.9,2.5-1.8l26.1,2c1.3,0.1,2.2,1,2.1,2.1C574.8,964.9,573.6,965.7,572.4,965.6 M573.6,954
	l-26.1-2c-1.3-0.1-2.2-1-2.1-2.1c0.1-1.1,1.2-1.9,2.5-1.8l26.1,2c1.3,0.1,2.2,1,2.1,2.1C576,953.3,574.9,954.1,573.6,954
	 M574.8,942.3l-26.1-2c-1.3-0.1-2.2-1-2.1-2.1c0.1-1.1,1.2-1.9,2.5-1.8l26.1,2c1.3,0.1,2.2,1,2.1,2.1
	C577.2,941.6,576.1,942.4,574.8,942.3 M576.1,930.7l-26.1-2c-1.3-0.1-2.2-1-2.1-2.1c0.1-1.1,1.2-1.9,2.5-1.8l26.1,2
	c1.3,0.1,2.2,1,2.1,2.1C578.4,930,577.3,930.8,576.1,930.7 M577.3,919.1l-26.1-2c-1.3-0.1-2.2-1-2.1-2.1c0.1-1.1,1.2-1.9,2.5-1.8
	l26.1,2c1.3,0.1,2.2,1,2.1,2.1C579.6,918.4,578.5,919.2,577.3,919.1 M578.5,907.4l-26.1-2c-1.3-0.1-2.2-1-2.1-2.1
	c0.1-1.1,1.2-1.9,2.5-1.8l26.1,2c1.3,0.1,2.2,1,2.1,2.1C580.9,906.7,579.8,907.5,578.5,907.4 M579.7,895.8l-26.1-2
	c-1.3-0.1-2.2-1-2.1-2.1c0.1-1.1,1.2-1.9,2.5-1.8l26.1,2c1.3,0.1,2.2,1,2.1,2.1C582.1,895.1,581,895.9,579.7,895.8"/>
<path class="st1" d="M658.3,866.7l-15.7,149.1l7.7,0.6l3.5-32.9l10.9,0.8l-3.5,32.9l4.3,0.3l3.5-32.9l10.9,0.8l-3.5,32.9l7.7,0.6
	l15.7-149.1L658.3,866.7z M665,963.9l-9.1-0.7c-1.3-0.1-2.2-1-2.1-2.1c0.1-1.1,1.2-1.9,2.5-1.8l9.1,0.7c1.3,0.1,2.2,1,2.1,2.1
	C667.3,963.2,666.2,964,665,963.9 M666.2,952.3l-9.1-0.7c-1.3-0.1-2.2-1-2.1-2.1c0.1-1.1,1.2-1.9,2.5-1.8l9.1,0.7
	c1.3,0.1,2.2,1,2.1,2.1C668.5,951.6,667.4,952.4,666.2,952.3 M667.4,940.7l-9.1-0.7c-1.3-0.1-2.2-1-2.1-2.1c0.1-1.1,1.2-1.9,2.5-1.8
	l9.1,0.7c1.3,0.1,2.2,1,2.1,2.1C669.8,940,668.7,940.8,667.4,940.7 M668.6,929l-9.1-0.7c-1.3-0.1-2.2-1-2.1-2.1
	c0.1-1.1,1.2-1.9,2.5-1.8l9.1,0.7c1.3,0.1,2.2,1,2.1,2.1C671,928.3,669.9,929.1,668.6,929 M669.9,917.4l-9.1-0.7
	c-1.3-0.1-2.2-1-2.1-2.1c0.1-1.1,1.2-1.9,2.5-1.8l9.1,0.7c1.3,0.1,2.2,1,2.1,2.1C672.2,916.7,671.1,917.5,669.9,917.4 M671.1,905.8
	l-9.1-0.7c-1.3-0.1-2.2-1-2.1-2.1s1.2-1.9,2.5-1.8l9.1,0.7c1.3,0.1,2.2,1,2.1,2.1C673.4,905.1,672.3,905.9,671.1,905.8 M672.3,894.1
	l-9.1-0.7c-1.3-0.1-2.2-1-2.1-2.1c0.1-1.1,1.2-1.9,2.5-1.8l9.1,0.7c1.3,0.1,2.2,1,2.1,2.1C674.7,893.4,673.6,894.2,672.3,894.1
	 M673.5,882.5l-9.1-0.7c-1.3-0.1-2.2-1-2.1-2.1c0.1-1.1,1.2-1.9,2.5-1.8l9.1,0.7c1.3,0.1,2.2,1,2.1,2.1
	C675.9,881.8,674.8,882.6,673.5,882.5 M682,965.2l-9.1-0.7c-1.3-0.1-2.2-1-2.1-2.1c0.1-1.1,1.2-1.9,2.5-1.8l9.1,0.7
	c1.2,0.1,2.2,1,2.1,2.1C684.3,964.5,683.2,965.3,682,965.2 M683.2,953.6l-9.1-0.7c-1.3-0.1-2.2-1-2.1-2.1c0.1-1.1,1.2-1.9,2.5-1.8
	l9.1,0.7c1.2,0.1,2.2,1,2.1,2.1C685.5,952.9,684.4,953.7,683.2,953.6 M684.4,942l-9.1-0.7c-1.3-0.1-2.2-1-2.1-2.1
	c0.1-1.1,1.2-1.9,2.5-1.8l9.1,0.7c1.2,0.1,2.2,1,2.1,2.1C686.8,941.3,685.6,942.1,684.4,942 M685.6,930.3l-9.1-0.7
	c-1.3-0.1-2.2-1-2.1-2.1c0.1-1.1,1.2-1.9,2.5-1.8l9.1,0.7c1.2,0.1,2.2,1,2.1,2.1C688,929.6,686.9,930.4,685.6,930.3 M686.8,918.7
	l-9.1-0.7c-1.3-0.1-2.2-1-2.1-2.1c0.1-1.1,1.2-1.9,2.5-1.8l9.1,0.7c1.2,0.1,2.2,1,2.1,2.1C689.2,918,688.1,918.8,686.8,918.7
	 M688.1,907.1l-9.1-0.7c-1.3-0.1-2.2-1-2.1-2.1c0.1-1.1,1.2-1.9,2.5-1.8l9.1,0.7c1.2,0.1,2.2,1,2.1,2.1
	C690.4,906.4,689.3,907.2,688.1,907.1 M689.3,895.4l-9.1-0.7c-1.3-0.1-2.2-1-2.1-2.1c0.1-1.1,1.2-1.9,2.5-1.8l9.1,0.7
	c1.2,0.1,2.2,1,2.1,2.1C691.6,894.7,690.5,895.5,689.3,895.4 M690.5,883.8l-9.1-0.7c-1.3-0.1-2.2-1-2.1-2.1c0.1-1.1,1.2-1.9,2.5-1.8
	l9.1,0.7c1.2,0.1,2.2,1,2.1,2.1C692.9,883.1,691.8,883.9,690.5,883.8"/>
<path class="st1" d="M629.4,912.2c0.3-3-4.8-5.8-11.3-6.3c-6.6-0.5-12.1,1.5-12.5,4.5l-0.6,5.4c0,0-3.2-0.2-7.1-0.5
	c-3.9-0.3-7.7,5.1-8.4,12.1l-1.3,12.7l52.1,4c0,0,0.6-5.7,1.3-12.7c0.7-7-1.8-12.9-5.7-13.2l-7.1-0.5
	C628.8,917.7,629.1,915.2,629.4,912.2 M625.2,935.4l-20.4-1.6c0,0,0.3-2.7,0.6-6c0.3-3.3,5.2-5.7,10.8-5.2c5.6,0.4,9.9,3.5,9.6,6.8
	L625.2,935.4z"/>
<path class="st1" d="M587.7,945.3l-6.9,65.8l5.1,0.4l4.6-43.5c0.5-4.3,4.9-7.4,9.9-7.1c5,0.4,8.7,4.2,8.3,8.5l-4.6,43.5l5.7,0.4
	l4.6-43.5c0.4-4.3,4.9-7.4,9.9-7.1c5,0.4,8.7,4.2,8.2,8.4l-4.6,43.5l5.1,0.4l6.9-65.8L587.7,945.3z"/>
<path class="st1" d="M512,943.2c-11.4-0.9-21.6,7.1-22.7,17.8l-4.5,42.7l41.4,3.2l4.5-42.7C531.8,953.5,523.5,944.1,512,943.2
	 M498.6,996.9l-7.1-0.5l1-9.9l7.1,0.5L498.6,996.9z M500.2,981.7l-7.1-0.5l1-9.9l7.1,0.5L500.2,981.7z M501.8,966.5l-7.1-0.5l1-9.9
	l7.1,0.5L501.8,966.5z M509.9,997.8l-7.1-0.5l1-9.9l7.1,0.5L509.9,997.8L509.9,997.8z M511.4,982.6l-7.1-0.5l1-9.9l7.1,0.5
	L511.4,982.6L511.4,982.6z M513,967.4l-7.1-0.5l1-9.9l7.1,0.5L513,967.4L513,967.4z M521.1,998.6l-7.1-0.5l1-9.9l7.1,0.5
	L521.1,998.6z M522.7,983.4l-7.1-0.5l1-9.9l7.1,0.5L522.7,983.4z M524.3,968.2l-7.1-0.5l1-9.9l7.1,0.5L524.3,968.2z"/>
<path class="st1" d="M259.9,979.9l-17.8-63.5c-1.4-5.1-7.5-8.9-13.6-8.5l-4.2,0.2c-6.1,0.3-15.5,2.3-21.1,4.5l-1.9,0.7
	c-5.6,2.1-8.9,7.9-7.5,13l17.8,63.5l-4.7,1l-26.9-96.2c-2.1-7.5-11.1-13.2-20.1-12.6l-6.2,0.4c-9,0.5-23,3.5-31.2,6.6l-2.8,1.1
	c-8.2,3.1-13.2,11.8-11.1,19.3l26.9,96.2l-4.8,1l-14.4-51.6c-1.2-4.3-6.3-7.5-11.4-7.2l-3.5,0.2c-5.1,0.3-13,2-17.7,3.7l-1.6,0.6
	c-4.7,1.8-7.5,6.7-6.3,10.9l14.4,51.6l-12.2,2.5l5.2,18.6l194.1-39.7l-5.2-18.6L259.9,979.9z M232.2,915.2c2.3,1.1,4.1,2.9,4.9,5
	l-3.3,0.7L232.2,915.2z M235.4,926.4l3.3-0.7l2.4,8.6l-3.3,0.7L235.4,926.4z M239.3,940.4l3.3-0.7l2.4,8.6l-3.3,0.7L239.3,940.4z
	 M243.2,954.5l3.3-0.7l2.4,8.6l-3.3,0.7L243.2,954.5z M247.1,968.5l3.3-0.7l1.8,6.5L249,975L247.1,968.5z M223.1,914.4
	c0.2,0,0.4,0,0.6,0l3.2-0.2c0.9-0.1,1.9,0,2.8,0.2l1.9,6.9l-6.3,1.3L223.1,914.4z M227,928.1l6.3-1.3l2.4,8.6l-6.3,1.3L227,928.1z
	 M230.9,942.1l6.3-1.3l2.4,8.6l-6.3,1.3L230.9,942.1z M234.8,956.2l6.3-1.3l2.4,8.6l-6.3,1.3L234.8,956.2z M238.7,970.2l6.3-1.3
	l1.8,6.5l-6.3,1.3L238.7,970.2z M212,916.4c2.9-0.8,6.1-1.4,8.9-1.8l2.4,8.4l-8.9,1.8L212,916.4z M215.9,930.3l8.9-1.8l2.4,8.6
	l-8.9,1.8L215.9,930.3z M219.8,944.4l8.9-1.8l2.4,8.6l-8.9,1.8L219.8,944.4z M223.8,958.5l8.9-1.8l2.4,8.6l-8.9,1.8L223.8,958.5z
	 M227.7,972.5l8.9-1.8l1.8,6.5l-8.9,1.8L227.7,972.5z M204.2,919.4c0.7-0.5,1.4-0.9,2.2-1.2l1.4-0.5c0.6-0.2,1.4-0.5,2.1-0.7
	l2.3,8.3l-6.1,1.2L204.2,919.4z M207.7,932l6.1-1.2l2.4,8.6l-6.1,1.2L207.7,932z M211.6,946.1l6.1-1.2l2.4,8.6l-6.1,1.2L211.6,946.1
	z M215.5,960.1l6.1-1.2l2.4,8.6l-6.1,1.2L215.5,960.1z M219.5,974.2l6.1-1.2l1.8,6.5l-6.1,1.2L219.5,974.2z M202.4,921.1l1.6,5.9
	l-3.5,0.7C200.1,925.4,200.8,923,202.4,921.1 M202,933.2l3.5-0.7l2.4,8.6l-3.5,0.7L202,933.2z M206,947.2l3.5-0.7l2.4,8.6l-3.5,0.7
	L206,947.2z M209.9,961.3l3.5-0.7l2.4,8.6l-3.5,0.7L209.9,961.3z M213.8,975.3l3.5-0.7l1.8,6.5l-3.5,0.7L213.8,975.3z M165.4,892.8
	c3.4,1.6,6.1,4.2,7.2,7.4l-4.9,1L165.4,892.8z M170,909.3l4.9-1l3.5,12.7l-4.9,1L170,909.3z M175.8,930.1l4.9-1l3.5,12.7l-4.9,1
	L175.8,930.1z M181.7,950.9l4.9-1l3.5,12.7l-4.9,1L181.7,950.9z M187.5,971.8l4.9-1l2.7,9.6l-4.9,1L187.5,971.8z M151.9,891.6
	c0.3,0,0.6,0,0.9-0.1l4.7-0.3c1.4-0.1,2.8,0,4.1,0.3l2.9,10.3l-9.3,1.9L151.9,891.6L151.9,891.6z M157.6,911.9l9.3-1.9l3.5,12.7
	l-9.3,1.9L157.6,911.9z M163.4,932.7l9.3-1.9l3.5,12.7l-9.3,1.9L163.4,932.7z M169.2,953.5l9.3-1.9l3.5,12.7l-9.3,1.9L169.2,953.5z
	 M175,974.3l9.3-1.9l2.7,9.6l-9.3,1.9L175,974.3z M135.4,894.5c4.3-1.1,9.1-2.1,13.2-2.6l3.5,12.5l-13.2,2.7L135.4,894.5z
	 M141.2,915.2l13.2-2.7l3.5,12.7l-13.2,2.7L141.2,915.2z M147,936l13.2-2.7l3.5,12.7l-13.2,2.7L147,936z M152.8,956.9l13.2-2.7
	l3.5,12.7l-13.2,2.7L152.8,956.9z M158.6,977.7l13.2-2.7l2.7,9.6l-13.2,2.7L158.6,977.7z M123.8,899.1c1-0.7,2.1-1.3,3.2-1.7
	l2.1-0.8c1-0.4,2-0.7,3.2-1.1l3.4,12.3l-9,1.8L123.8,899.1L123.8,899.1z M129,917.7l9-1.8l3.5,12.7l-9,1.8L129,917.7z M134.8,938.5
	l9-1.8l3.5,12.7l-9,1.8L134.8,938.5z M140.7,959.3l9-1.8l3.5,12.7l-9,1.8L140.7,959.3z M146.5,980.2l9-1.8l2.7,9.6l-9,1.8
	L146.5,980.2z M121.2,901.6l2.4,8.7l-5.1,1C117.8,907.9,118.9,904.4,121.2,901.6 M120.7,919.4l5.2-1.1l3.5,12.7l-5.2,1.1
	L120.7,919.4z M126.5,940.2l5.2-1.1l3.5,12.7l-5.2,1.1L126.5,940.2z M132.3,961.1l5.2-1.1l3.5,12.7l-5.2,1.1L132.3,961.1z
	 M138.2,981.9l5.2-1.1l2.7,9.6l-5.2,1.1L138.2,981.9z M108,953.7c1.9,0.9,3.4,2.4,4.1,4.2l-2.8,0.6L108,953.7z M110.6,963.1l2.8-0.6
	l2,7.2l-2.8,0.6L110.6,963.1z M113.9,974.9l2.8-0.6l2,7.2l-2.8,0.6L113.9,974.9z M117.2,986.7l2.8-0.6l2,7.2l-2.8,0.6L117.2,986.7z
	 M120.5,998.5l2.8-0.6l1.5,5.4l-2.8,0.6L120.5,998.5z M100.4,953c0.2,0,0.4,0,0.5,0l2.7-0.1c0.8,0,1.6,0,2.3,0.2l1.6,5.8l-5.2,1.1
	L100.4,953z M103.6,964.5l5.2-1.1l2,7.2l-5.2,1.1L103.6,964.5z M106.9,976.4l5.2-1.1l2,7.2l-5.2,1.1L106.9,976.4z M110.2,988.2
	l5.2-1.1l2,7.2l-5.2,1.1L110.2,988.2z M113.5,1000l5.2-1.1l1.5,5.4l-5.2,1.1L113.5,1000z M91,954.7c2.4-0.6,5.1-1.2,7.5-1.5l2,7.1
	l-7.5,1.5L91,954.7z M94.3,966.5l7.5-1.5l2,7.2l-7.5,1.5L94.3,966.5z M97.6,978.3l7.5-1.5l2,7.2l-7.5,1.5L97.6,978.3z M100.9,990.1
	l7.5-1.5l2,7.2l-7.5,1.5L100.9,990.1z M104.2,1001.9l7.5-1.5l1.5,5.4l-7.5,1.5L104.2,1001.9z M84.4,957.3c0.5-0.4,1.2-0.7,1.8-1
	l1.2-0.5c0.5-0.2,1.1-0.4,1.8-0.6l1.9,7l-5.1,1L84.4,957.3z M87.4,967.9l5.1-1l2,7.2l-5.1,1L87.4,967.9z M90.7,979.7l5.1-1l2,7.2
	l-5.1,1L90.7,979.7z M94,991.5l5.1-1l2,7.2l-5.1,1L94,991.5z M97.3,1003.3l5.1-1l1.5,5.4l-5.1,1L97.3,1003.3z M82.9,958.7l1.4,4.9
	l-2.9,0.6C81,962.3,81.6,960.3,82.9,958.7 M82.7,968.8l2.9-0.6l2,7.2l-2.9,0.6L82.7,968.8z M86,980.6l2.9-0.6l2,7.2l-2.9,0.6
	L86,980.6z M89.3,992.4l2.9-0.6l2,7.2l-2.9,0.6L89.3,992.4z M92.6,1004.3l2.9-0.6l1.5,5.4l-2.9,0.6L92.6,1004.3z"/>
<path class="st1" d="M327.5,919v0.6c0,3,1.4,4.5,4.1,4.5h10.5v52.6h15.4v-45.9h15.4v45.9h15v-45.9h15.4v45.9h15.4v-52.6h10.5
	c1.2,0,2.4-0.5,3.4-1.4c1-1,1.5-2,1.5-3c0-1.5-0.6-2.7-1.9-3.5v-0.3h0.4l-48.4-21.5v-6.1c2.5,1.1,6.5,1.2,12,0.5
	c5.5-0.7,10.5-0.5,15,0.8v-13.8c-4-1.3-9-1.5-15-0.6c-6,0.9-10,0.6-12-0.6v-0.6c0-1.5-1.2-2.2-3.7-2.2c-2.5,0-3.7,0.7-3.7,2.2v20.5
	l-48.4,21.5h0.4h0.8h1.1C328.3,916.2,327.3,917.3,327.5,919"/>
<polygon class="st1" points="338,980 326.8,989.9 434,989.9 422.8,980 "/>
<path class="st1" d="M422.8,927.7v49.1h3.4l1.5,1.9l10.1,8l3.7,3.2h31.1v-62.3H422.8z M445.7,966.8H434v-9.6h11.6V966.8z
	 M445.7,947.2H434v-9.9h11.6V947.2z M461,966.8h-7.5v-9.6h7.5V966.8z M461,947.2h-7.5v-9.9h7.5V947.2z"/>
<path class="st1" d="M334.7,976.8h3.4v-49.1h-49.9v62.3h31.1l3.7-2.9l10.1-8.3L334.7,976.8z M307.3,966.8h-7.5v-9.6h7.5V966.8z
	 M307.3,947.2h-7.5v-9.9h7.5V947.2z M326.8,966.8h-11.6v-9.6h11.6V966.8z M326.8,947.2h-11.6v-9.9h11.6V947.2z"/>
<path class="st2" d="M36,1033.2c0,0,316.3-102.6,701.4,0c0,0-72.5-2.1-80.1,64.4H116.1C116.1,1097.7,115.1,1045,36,1033.2"/>
</svg>
