<?xml version="1.0" encoding="utf-8"?>
<!-- Generator: Adobe Illustrator 19.0.1, SVG Export Plug-In . SVG Version: 6.00 Build 0)  -->
<svg version="1.1"
	 id="Слой_1" xmlns:inkscape="http://www.inkscape.org/namespaces/inkscape" xmlns:sodipodi="http://sodipodi.sourceforge.net/DTD/sodipodi-0.dtd" xmlns:svg="http://www.w3.org/2000/svg" xmlns:cc="http://creativecommons.org/ns#" xmlns:dc="http://purl.org/dc/elements/1.1/" xmlns:rdf="http://www.w3.org/1999/02/22-rdf-syntax-ns#" inkscape:version="0.91 r" sodipodi:docname="3Scroll_sceen .svg"
	 xmlns="http://www.w3.org/2000/svg" xmlns:xlink="http://www.w3.org/1999/xlink" x="0px" y="0px" viewBox="0 -180.1 595.3 1200"
	 style="enable-background:new 0 -180.1 595.3 1200;" xml:space="preserve">
<style type="text/css">
	.st0{fill:#D6EEFD;}
	.st1{fill:#F8F1E4;}
	.st2{fill:#FCE290;}
	.st3{fill:#F9B569;}
	.st4{fill:#FEFADC;}
	.st5{fill:#858365;}
	.st6{fill:#655241;}
	.st7{fill:#FDFBE8;}
	.st8{fill:#FBC88D;}
	.st9{fill:#FFFAED;}
	.st10{fill:#FFF8E7;}
	.st11{fill:#F8AF68;}
	.st12{fill:#8A5D34;}
	.st13{fill:#A17E5D;}
	.st14{fill:#FBFDFD;}
	.st15{fill:#F5F7F8;}
</style>
<sodipodi:namedview  pagecolor="#ffffff" objecttolerance="10" bordercolor="#666666" inkscape:cy="606.14676" gridtolerance="10" inkscape:zoom="1.3456483" inkscape:cx="326.33556" guidetolerance="10" id="namedview13437" borderopacity="1" showgrid="false" inkscape:window-x="0" inkscape:snap-page="true" inkscape:current-layer="Слой_1" inkscape:window-maximized="1" inkscape:window-y="24" inkscape:window-height="744" inkscape:pageopacity="0" inkscape:window-width="1366" inkscape:pageshadow="2">
	</sodipodi:namedview>
<polygon id="polygon13023-2" class="st0" points="307.2,487.6 307.2,687.2 359.1,687.2 359.1,487.6 "/>
<polygon id="polygon13027-1" class="st0" points="370.2,487.6 370.2,687.2 422.1,687.2 422.1,487.6 "/>
<polygon id="polygon13035-0" class="st0" points="174.8,487.6 174.8,687.2 226.7,687.2 226.7,487.6 "/>
<polygon id="polygon13039-1" class="st0" points="237.8,487.6 237.8,687.2 289.7,687.2 289.7,487.6 "/>
<path id="path13013" inkscape:connector-curvature="0" class="st0" d="M293.7,195.9V66.2c-31.3,1.4-59.6,14.7-81,35.8L293.7,195.9
	L293.7,195.9z"/>
<path id="path13015" inkscape:connector-curvature="0" class="st0" d="M300.1,66.1v132.3l84.1-97.5C362,79.5,332.5,66.4,300.1,66.1
	L300.1,66.1L300.1,66.1z"/>
<path id="path13017" inkscape:connector-curvature="0" class="st0" d="M308.5,198.5h116.6c0-36.3-13.9-69.1-36.4-93.1L308.5,198.5
	L308.5,198.5z"/>
<path id="path13019" inkscape:connector-curvature="0" class="st0" d="M208.3,106.7c-21.8,23.8-35.3,56.2-35.3,91.8h114.5
	L208.3,106.7L208.3,106.7L208.3,106.7z"/>
<polygon id="polygon13021" class="st0" points="308,266.9 359.9,266.9 359.9,213.5 308,213.5 "/>
<polygon id="polygon13023" class="st0" points="359.9,476.1 359.9,276.5 308,276.5 308,476.1 "/>
<polygon id="polygon13025" class="st0" points="371,266.9 422.9,266.9 422.9,213.5 371,213.5 "/>
<polygon id="polygon13027" class="st0" points="422.9,476.1 422.9,276.5 371,276.5 371,476.1 "/>
<polygon id="polygon13029" class="st0" points="308,523.4 308,700 359.9,700 359.9,523.4 "/>
<polygon id="polygon13031" class="st0" points="371,523.4 371,700 422.9,700 422.9,523.4 "/>
<polygon id="polygon13033" class="st0" points="175.6,266.9 227.5,266.9 227.5,213.5 175.6,213.5 "/>
<polygon id="polygon13035" class="st0" points="227.5,476.1 227.5,276.5 175.6,276.5 175.6,476.1 "/>
<polygon id="polygon13037" class="st0" points="238.6,266.9 290.5,266.9 290.5,213.5 238.6,213.5 "/>
<polygon id="polygon13039" class="st0" points="290.5,476.1 290.5,276.5 238.6,276.5 238.6,476.1 "/>
<polygon id="polygon13041" class="st0" points="175.6,523.4 175.6,700 227.5,700 227.5,523.4 "/>
<polygon id="polygon13043" class="st0" points="238.6,523.4 238.6,700 290.5,700 290.5,523.4 "/>
<path id="path13083" inkscape:connector-curvature="0" class="st1" d="M527.3,931.8c-1.2-2-2-3.4-3.1-5.1
	C525.4,928.5,526.4,930.1,527.3,931.8z"/>
<path id="path13089" inkscape:connector-curvature="0" class="st1" d="M550.4,970L550.4,970c-0.7-1.2-1.5-2.5-2.2-3.7
	C548.8,967.4,549.5,968.5,550.4,970z"/>
<path id="path13101" inkscape:connector-curvature="0" class="st2" d="M424.5-57.4c0,0,9.9,0.4,0.4-16.1
	C425-73.5,415.9-57.5,424.5-57.4L424.5-57.4z"/>
<path id="path13103" inkscape:connector-curvature="0" class="st3" d="M421.9-60.8c0,1.6,1.3,3,2.8,3s2.7-1.4,2.7-3s-1.3-3-2.8-3
	C423.1-63.7,421.9-62.4,421.9-60.8L421.9-60.8z"/>
<polygon id="polygon13105" class="st4" points="430,-20.4 430,-54.7 418.5,-54.4 418.4,-20.1 "/>
<path id="path13107" inkscape:connector-curvature="0" class="st4" d="M418.5-54.4c0,1.2,2.6,2.1,5.8,2c3.2-0.1,5.8-1.1,5.8-2.3
	c0-1.2-2.6-2.1-5.8-2C421-56.6,418.5-55.5,418.5-54.4L418.5-54.4z"/>
<path id="path13109" inkscape:connector-curvature="0" class="st2" d="M389.4-77.5c0,0,9.9,0.4,0.4-16.1
	C389.8-93.6,380.8-77.6,389.4-77.5L389.4-77.5z"/>
<path id="path13111" inkscape:connector-curvature="0" class="st3" d="M386.8-80.8c0,1.6,1.3,3,2.8,3s2.7-1.4,2.7-3s-1.3-3-2.8-3
	S386.8-82.5,386.8-80.8L386.8-80.8z"/>
<polygon id="polygon13113" class="st4" points="394.8,-40.5 394.9,-74.7 383.4,-74.4 383.3,-40.2 "/>
<path id="path13115" inkscape:connector-curvature="0" class="st4" d="M383.4-74.4c0,1.2,2.6,2.1,5.8,2c3.2-0.1,5.8-1.1,5.8-2.3
	c0-1.2-2.6-2.1-5.8-2C385.9-76.6,383.4-75.6,383.4-74.4L383.4-74.4z"/>
<path id="path13117" inkscape:connector-curvature="0" class="st2" d="M208.8-77.5c0,0,9.9,0.4,0.4-16.1
	C209.2-93.6,200.2-77.6,208.8-77.5L208.8-77.5z"/>
<path id="path13119" inkscape:connector-curvature="0" class="st3" d="M206.2-80.8c0,1.6,1.3,3,2.8,3s2.7-1.4,2.7-3s-1.3-3-2.8-3
	S206.2-82.5,206.2-80.8L206.2-80.8z"/>
<polygon id="polygon13121" class="st4" points="214.2,-40.5 214.3,-74.7 202.7,-74.4 202.7,-40.2 "/>
<path id="path13123" inkscape:connector-curvature="0" class="st4" d="M202.7-74.4c0,1.2,2.6,2.1,5.8,2s5.8-1.1,5.8-2.3
	c0-1.2-2.6-2.1-5.8-2S202.7-75.6,202.7-74.4L202.7-74.4z"/>
<path id="path13125" inkscape:connector-curvature="0" class="st2" d="M173.7-57.4c0,0,9.9,0.4,0.4-16.1
	C174.1-73.5,165.1-57.5,173.7-57.4L173.7-57.4z"/>
<path id="path13127" inkscape:connector-curvature="0" class="st3" d="M171.1-60.8c0,1.6,1.3,3,2.8,3s2.7-1.4,2.7-3s-1.3-3-2.8-3
	C172.3-63.7,171-62.4,171.1-60.8L171.1-60.8z"/>
<path id="path13129" inkscape:connector-curvature="0" class="st5" d="M173.2-56.1c-0.1-0.6-0.1-1.2-0.1-1.9c0-0.6,0.1-1.2,0.4-1.7
	l0.7-0.1l0.1,0.7c-0.1,0.2-0.2,0.6-0.2,1.2s0.1,1.2,0.1,1.8c0,0.3-0.2,0.5-0.4,0.5h-0.1C173.5-55.7,173.3-55.9,173.2-56.1
	L173.2-56.1z"/>
<polygon id="polygon13131" class="st4" points="179.1,-20.4 179.2,-54.7 167.6,-54.4 167.6,-20.1 "/>
<path id="path13133" inkscape:connector-curvature="0" class="st2" d="M356.8-102.5c0,0,9.9,0.4,0.4-16.1
	C357.2-118.7,348.2-102.7,356.8-102.5L356.8-102.5z"/>
<path id="path13135" inkscape:connector-curvature="0" class="st3" d="M354.2-105.9c0,1.6,1.3,3,2.8,3s2.7-1.4,2.7-3s-1.3-3-2.8-3
	S354.2-107.6,354.2-105.9L354.2-105.9z"/>
<polygon id="polygon13137" class="st4" points="362.2,-65.6 362.3,-99.8 350.7,-99.5 350.7,-65.3 "/>
<path id="path13139" inkscape:connector-curvature="0" class="st4" d="M350.7-99.5c0,1.2,2.6,2.1,5.8,2c3.2-0.1,5.8-1.1,5.8-2.3
	c0-1.2-2.6-2.1-5.8-2C353.3-101.7,350.7-100.7,350.7-99.5L350.7-99.5z"/>
<path id="path13141" inkscape:connector-curvature="0" class="st2" d="M241.4-102.5c0,0,9.9,0.4,0.4-16.1
	C241.8-118.7,232.8-102.7,241.4-102.5L241.4-102.5z"/>
<path id="path13143" inkscape:connector-curvature="0" class="st3" d="M238.8-105.9c0,1.6,1.3,3,2.8,3s2.7-1.4,2.7-3s-1.3-3-2.8-3
	S238.8-107.6,238.8-105.9L238.8-105.9z"/>
<polygon id="polygon13145" class="st4" points="246.8,-65.6 246.9,-99.8 235.3,-99.5 235.3,-65.3 "/>
<path id="path13147" inkscape:connector-curvature="0" class="st4" d="M235.3-99.5c0,1.2,2.6,2.1,5.8,2s5.8-1.1,5.8-2.3
	c0-1.2-2.6-2.1-5.8-2S235.3-100.7,235.3-99.5L235.3-99.5z"/>
<path id="path13149" inkscape:connector-curvature="0" class="st6" d="M215.7,22.6l-0.4-0.4c-2.6,2.1-6.2,3.4-11.4,3.4
	c-7.5,0-13.7-2.5-18.3-7.3c-9-9.4-10.3-25.5-10.4-31.9c5.6-0.6,8.5-3.6,9.7-5.4h3.4c1.2,0,2.1-1,2.1-2.1c0-1.2-1-2.1-2.1-2.1h-30.5
	c-1.2,0-2.1,1-2.1,2.1c0,1.2,1,2.1,2.1,2.1h3.4c1.2,1.8,4.1,4.7,9.6,5.4c0.1,6.9,1.5,24.2,11.6,34.8c5.5,5.8,12.7,8.7,21.4,8.7
	c6.8,0,11.4-1.8,14.6-4.6C217.5,24.4,216.6,23.5,215.7,22.6L215.7,22.6L215.7,22.6z M438.8-23.4h-30.5c-1.2,0-2.1,1-2.1,2.1
	c0,1.2,1,2.1,2.1,2.1h3.4c1.2,1.8,4.1,4.8,9.7,5.4C421.3-7.4,420,8.6,411,18.1c-4.6,4.9-10.8,7.3-18.3,7.3c-5.2,0-8.8-1.3-11.4-3.4
	l-0.4,0.4c-0.9,0.9-1.8,1.8-2.8,2.6c3.2,2.8,7.9,4.6,14.6,4.6c8.7,0,15.9-2.9,21.4-8.7c10.2-10.7,11.5-28,11.6-34.8
	c5.6-0.6,8.4-3.6,9.6-5.4h3.4c1.2,0,2.1-1,2.1-2.1C441-22.4,440-23.4,438.8-23.4L438.8-23.4L438.8-23.4z M192.5-40.2h3.4
	c1.2,1.8,4.1,4.7,9.7,5.4v18.3c0,0.9-1,24.4,11.6,37.7c5.5,5.8,12.7,8.7,21.4,8.7c18.1,0,20.8-12.8,23.1-24.1
	c2.4-11.5,4.5-21.4,20-21.4h11.7c-0.4,0-0.8,0.5-0.8,1.1s0.3,1.1,0.8,1.1l0,0c-3.1,1.7-5.2,4.9-5.2,8.7s2.1,7,5.2,8.7
	c-0.4,0-0.8,0.5-0.8,1.1s0.3,1.1,0.8,1.1l0,0c-1.3,0.7-2.4,1.7-3.3,2.9c-3.6-8.4-4.4-17.9-4.5-22.5h-4h-0.3
	c0.1,5.3,0.9,16.4,5.7,26.1h-4.7c-5-8.9-6.1-20-6.2-25.5c-1.6,0.4-3.1,0.9-4.2,1.7c0.3,5.8,1.5,15.4,5.6,23.8h-9.2
	c0,14.5,10.8,19.8,19.3,21.6c-6.4,1.3-13.5,4.6-13.5,12.2l23.9,0.1l23.9-0.1c0-7.6-7-10.8-13.5-12.2c8.6-1.9,19.3-7.1,19.3-21.6
	h-9.2c4.2-8.5,5.4-18,5.6-23.8c-1.2-0.7-2.6-1.3-4.2-1.7c-0.2,5.5-1.2,16.6-6.2,25.5H309c4.8-9.7,5.6-20.8,5.7-26.1h-0.3h-4
	c-0.1,4.6-0.8,14-4.5,22.5c-0.9-1.2-2-2.2-3.3-2.9l0,0c0.4,0,0.8-0.5,0.8-1.1S303.1,4,302.6,4c3.1-1.7,5.2-4.9,5.2-8.7
	s-2.1-7-5.2-8.7l0,0c0.4,0,0.8-0.5,0.8-1.1s-0.3-1.1-0.8-1.1h11.7c15.6,0,17.6,9.9,20,21.4c2.4,11.3,5,24.1,23.1,24.1
	c8.7,0,15.9-2.9,21.4-8.7c12.6-13.2,11.6-36.8,11.6-37.7v-18.3c5.6-0.6,8.5-3.6,9.7-5.4h3.4c1.2,0,2.1-1,2.1-2.1
	c0-1.2-1-2.1-2.1-2.1H373c-1.2,0-2.1,1-2.1,2.1c0,1.2,1,2.1,2.1,2.1h3.4c1.2,1.8,4.1,4.7,9.7,5.4v18.4c0,0.2,0.9,22.7-10.4,34.6
	c-4.6,4.9-10.8,7.3-18.3,7.3c-14.6,0-16.6-9.6-18.9-20.7c-1.6-7.5-3.3-15.7-9.4-20.5h20c15.6,0,17.6,9.9,20,21.4
	c0.9,4.2,1.8,8.6,3.5,12.5c0.5-0.5,1-0.9,1.5-1.5c0.6-0.6,1.2-1.3,1.7-2c-1.1-3-1.8-6.4-2.5-9.9C370.9-6.8,368.1-20,349.1-20h-35.4
	c1.4-2.8,5.6-7.1,18.2-7.1c7.2,0,13-2.4,17.4-7.1c7-7.6,8.3-19.3,8.4-25.5c5.5-0.6,8.4-3.6,9.6-5.4h3.4c1.2,0,2.1-1,2.1-2.1
	s-1-2.1-2.1-2.1h-30.5c-1.2,0-2.1,1-2.1,2.1s1,2.1,2.1,2.1h3.4c1.2,1.8,4.1,4.8,9.7,5.4c-0.1,5.6-1.3,16.1-7.3,22.6
	c-3.5,3.8-8.3,5.7-14.2,5.7c-14.3,0-19.7,5.1-21.9,9.1c-1.3-3.4-3.9-6.2-7.3-7.6c0.3-0.1,0.5-0.5,0.5-1c0-0.6-0.3-1.1-0.8-1.1l0,0
	c3.1-1.7,5.2-4.9,5.2-8.7c0-0.3,0-0.5,0-0.8c0.4,0.4,0.9,0.6,1.5,0.6c1.2,0,2.2-1,2.2-2.2s-1-2.2-2.2-2.2c-0.9,0-1.7,0.6-2,1.4
	c-0.8-2.4-2.5-4.4-4.7-5.6l0,0c0.4,0,0.8-0.5,0.8-1.1s-0.3-1.1-0.8-1.1l0,0c3.1-1.7,5.2-4.9,5.2-8.7c0-3.8-2.1-7-5.2-8.7l0,0
	c0.4,0,0.8-0.5,0.8-1.1s-0.3-1.1-0.8-1.1l0,0c3.1-1.7,5.2-4.9,5.2-8.7c0-3.8-2.1-7-5.2-8.7l0,0c0.4,0,0.8-0.5,0.8-1.1
	s-0.3-1.1-0.8-1.1l0,0c3.1-1.7,5.2-4.9,5.2-8.7c0-3.8-2.1-7-5.2-8.7l0,0c0.4,0,0.8-0.5,0.8-1.1s0.3-0.9-0.1-0.9l0,0
	c3.1-1.7,5.2-4.9,5.2-8.7c0-3.8-2.1-7-5.2-8.7l0,0c0.4,0,0.8-0.5,0.8-1.1c0-0.6-0.3-1.1-0.8-1.1l0,0c3.1-1.7,5.2-4.9,5.2-8.7
	c0-3.8-2.1-7-5.2-8.7l0,0c0.4,0,0.8-0.5,0.8-1.1c0-0.6-0.3-1.1-0.8-1.1h-3.3c1.9-0.6,3.3-2.4,3.3-4.5c0-0.5-0.1-1.1-0.3-1.5
	c1.8-1.4,2.9-3.5,2.9-5.9c0-2.3-1.1-4.4-2.8-5.8c6.9-0.5,19.3-2.9,19.3-13l-23.8-0.1l-23.9,0.1c0,10.1,12.3,12.5,19.3,13
	c-1.7,1.4-2.8,3.4-2.8,5.8c0,2.4,1.2,4.5,2.9,5.9c-0.2,0.5-0.3,1-0.3,1.5c0,2.1,1.4,3.9,3.3,4.5h-3.3c-0.4,0-0.8,0.5-0.8,1.1
	c0,0.6,0.3,1.1,0.8,1.1l0,0c-3.1,1.7-5.2,4.9-5.2,8.7c0,3.8,2.1,7,5.2,8.7l0,0c-0.4,0-0.8,0.5-0.8,1.1c0,0.6,0.3,1.1,0.8,1.1l0,0
	c-3.1,1.7-5.2,4.9-5.2,8.7c0,3.8,2.1,7,5.2,8.7l0,0c-0.4,0-0.8,0.5-0.8,1.1s0.3,1.1,0.8,1.1l0,0c-3.1,1.7-5.2,4.9-5.2,8.7
	c0,3.8,2.1,7,5.2,8.7l0,0c-0.4,0-0.8,0.5-0.8,1.1s0.3,1.1,0.8,1.1l0,0c-3.1,1.7-5.2,4.9-5.2,8.7c0,3.8,2.1,7,5.2,8.7l0,0
	c-0.4,0-0.8,0.5-0.8,1.1s0.3,1.1,0.8,1.1l0,0c-3.1,1.7-5.2,4.9-5.2,8.7c0,3.8,2.1,7,5.2,8.7l0,0c-0.4,0-0.8,0.5-0.8,1.1
	s0.3,1.1,0.8,1.1l0,0c-2.2,1.2-3.9,3.2-4.7,5.5c-0.3-0.8-1.1-1.4-2-1.4c-1.2,0-2.2,1-2.2,2.2s1,2.2,2.2,2.2c0.6,0,1.1-0.2,1.5-0.6
	c0,0.3,0,0.5,0,0.8c0,3.8,2.1,7,5.2,8.7l0,0c-0.4,0-0.8,0.5-0.8,1.1c0,0.5,0.2,0.9,0.5,1c-3.4,1.4-6,4.1-7.3,7.6
	c-2.1-3.9-7.6-9.1-21.9-9.1c-5.9,0-10.7-1.9-14.2-5.7c-6-6.5-7.1-17-7.3-22.6c5.6-0.6,8.5-3.6,9.7-5.4h3.4c1.2,0,2.1-1,2.1-2.1
	s-1-2.1-2.1-2.1h-30.5c-1.2,0-2.1,1-2.1,2.1s1,2.1,2.1,2.1h3.4c1.2,1.8,4.1,4.7,9.6,5.4c0.1,6.2,1.4,17.9,8.4,25.5
	c4.4,4.7,10.2,7.1,17.4,7.1c12.7,0,16.9,4.4,18.3,7.1H247c-19.1,0-21.8,13.2-24.2,24.8c-0.7,3.6-1.5,7-2.6,9.9
	c0.5,0.7,1.1,1.3,1.7,2c0.5,0.5,1,1,1.5,1.5c1.7-3.9,2.7-8.3,3.5-12.5c2.4-11.5,4.5-21.4,20-21.4h20c-6.2,4.8-7.9,13-9.4,20.5
	c-2.3,11.1-4.3,20.7-18.9,20.7c-7.5,0-13.7-2.5-18.3-7.3c-11.4-11.9-10.4-34.4-10.4-34.6v-18.4c5.6-0.6,8.5-3.6,9.7-5.4h3.4
	c1.2,0,2.1-1,2.1-2.1c0-1.2-1-2.1-2.1-2.1h-30.5c-1.2,0-2.1,1-2.1,2.1C190.4-41.2,191.3-40.2,192.5-40.2L192.5-40.2L192.5-40.2z"/>
<path id="path13151" inkscape:connector-curvature="0" class="st7" d="M247.6,72.9c0,5.3,4.5,4.9,4.5,4.9s4.5,0.4,4.5-4.9
	c0-5.3-4.5-10.6-4.5-10.6S247.6,67.6,247.6,72.9L247.6,72.9L247.6,72.9z"/>
<path id="path13153" inkscape:connector-curvature="0" class="st7" d="M252.1,56.9c-1.2,0-2.2,1-2.2,2.2s1,2.2,2.2,2.2
	s2.2-1,2.2-2.2S253.3,56.9,252.1,56.9L252.1,56.9z"/>
<path id="path13155" inkscape:connector-curvature="0" class="st7" d="M233.4,47.5c0-1.2-1-2.2-2.2-2.2s-2.2,1-2.2,2.2
	s1,2.2,2.2,2.2C232.4,49.6,233.4,48.7,233.4,47.5L233.4,47.5z"/>
<path id="path13157" inkscape:connector-curvature="0" class="st7" d="M231.3,64.9c0,5.3,4.5,4.9,4.5,4.9s4.5,0.4,4.5-4.9
	c0-5.3-4.5-10.6-4.5-10.6S231.3,59.6,231.3,64.9L231.3,64.9z"/>
<path id="path13159" inkscape:connector-curvature="0" class="st7" d="M233.6,51.1c0,1.2,1,2.2,2.2,2.2s2.2-1,2.2-2.2
	s-1-2.2-2.2-2.2S233.6,49.9,233.6,51.1L233.6,51.1z"/>
<path id="path13161" inkscape:connector-curvature="0" class="st7" d="M267.2,57.1c0,1.2,1,2.2,2.2,2.2s2.2-1,2.2-2.2
	s-1-2.2-2.2-2.2S267.2,55.9,267.2,57.1L267.2,57.1z"/>
<path id="path13163" inkscape:connector-curvature="0" class="st7" d="M218.8,32.3c-1.2,0-2.2,1-2.2,2.2s1,2.2,2.2,2.2
	s2.2-1,2.2-2.2S220,32.3,218.8,32.3L218.8,32.3z"/>
<path id="path13165" inkscape:connector-curvature="0" class="st7" d="M248.7,57.3c0-1.2-1-2.2-2.2-2.2s-2.2,1-2.2,2.2
	s1,2.2,2.2,2.2S248.7,58.5,248.7,57.3L248.7,57.3z"/>
<path id="path13167" inkscape:connector-curvature="0" class="st7" d="M240.9,52.3c-1.2,0-2.2,1-2.2,2.2s1,2.2,2.2,2.2
	s2.2-1,2.2-2.2S242.2,52.3,240.9,52.3L240.9,52.3z"/>
<path id="path13169" inkscape:connector-curvature="0" class="st7" d="M227,41.3c-1.2,0-2.2,1-2.2,2.2s1,2.2,2.2,2.2s2.2-1,2.2-2.2
	S228.2,41.3,227,41.3L227,41.3z"/>
<path id="path13171" inkscape:connector-curvature="0" class="st7" d="M222.9,37c-1.2,0-2.2,1-2.2,2.2s1,2.2,2.2,2.2s2.2-1,2.2-2.2
	S224.1,37,222.9,37L222.9,37z"/>
<path id="path13173" inkscape:connector-curvature="0" class="st7" d="M257.9,57.6c-1.2,0-2.2,1-2.2,2.2s1,2.2,2.2,2.2
	c1.2,0,2.2-1,2.2-2.2S259.1,57.6,257.9,57.6L257.9,57.6z"/>
<path id="path13175" inkscape:connector-curvature="0" class="st7" d="M266,59.2c0-1.2-1-2.2-2.2-2.2s-2.2,1-2.2,2.2s1,2.2,2.2,2.2
	S266,60.4,266,59.2L266,59.2z"/>
<path id="path13177" inkscape:connector-curvature="0" class="st7" d="M278.7,47.9c-1.2,0-2.2,1-2.2,2.2s1,2.2,2.2,2.2
	s2.2-1,2.2-2.2C280.9,48.8,279.9,47.9,278.7,47.9L278.7,47.9z"/>
<path id="path13179" inkscape:connector-curvature="0" class="st7" d="M298.3,71.5c-1.2,0-2.2,1-2.2,2.2s1,2.2,2.2,2.2
	s2.2-1,2.2-2.2S299.5,71.5,298.3,71.5L298.3,71.5L298.3,71.5z"/>
<path id="path13181" inkscape:connector-curvature="0" class="st7" d="M298.3,65.6c-1.2,0-2.2,1-2.2,2.2s1,2.2,2.2,2.2
	s2.2-1,2.2-2.2S299.5,65.6,298.3,65.6L298.3,65.6z"/>
<path id="path13183" inkscape:connector-curvature="0" class="st7" d="M298.3,59.7c-1.2,0-2.2,1-2.2,2.2s1,2.2,2.2,2.2
	s2.2-1,2.2-2.2S299.5,59.7,298.3,59.7L298.3,59.7z"/>
<path id="path13185" inkscape:connector-curvature="0" class="st7" d="M298.3,53.8c-1.2,0-2.2,1-2.2,2.2s1,2.2,2.2,2.2
	s2.2-1,2.2-2.2C300.5,54.7,299.5,53.8,298.3,53.8L298.3,53.8z"/>
<path id="path13187" inkscape:connector-curvature="0" class="st7" d="M298.3,47.9c-1.2,0-2.2,1-2.2,2.2s1,2.2,2.2,2.2
	s2.2-1,2.2-2.2C300.5,48.8,299.5,47.9,298.3,47.9L298.3,47.9z"/>
<path id="path13189" inkscape:connector-curvature="0" class="st7" d="M274.4,51.8c-1.2,0-2.2,1-2.2,2.2s1,2.2,2.2,2.2
	s2.2-1,2.2-2.2C276.6,52.7,275.6,51.8,274.4,51.8L274.4,51.8z"/>
<path id="path13191" inkscape:connector-curvature="0" class="st7" d="M339.9,72.9c0,5.3,4.5,4.9,4.5,4.9s4.5,0.4,4.5-4.9
	c0-5.3-4.5-10.6-4.5-10.6S339.9,67.6,339.9,72.9L339.9,72.9L339.9,72.9z"/>
<path id="path13193" inkscape:connector-curvature="0" class="st7" d="M342.2,59.1c0,1.2,1,2.2,2.2,2.2s2.2-1,2.2-2.2
	s-1-2.2-2.2-2.2S342.2,57.9,342.2,59.1L342.2,59.1z"/>
<path id="path13195" inkscape:connector-curvature="0" class="st7" d="M365.3,45.3c-1.2,0-2.2,1-2.2,2.2s1,2.2,2.2,2.2
	s2.2-1,2.2-2.2C367.5,46.2,366.5,45.3,365.3,45.3L365.3,45.3z"/>
<path id="path13197" inkscape:connector-curvature="0" class="st7" d="M356.3,64.9c0,5.3,4.5,4.9,4.5,4.9s4.5,0.4,4.5-4.9
	c0-5.3-4.5-10.6-4.5-10.6S356.3,59.6,356.3,64.9L356.3,64.9z"/>
<path id="path13199" inkscape:connector-curvature="0" class="st7" d="M358.6,51.1c0,1.2,1,2.2,2.2,2.2s2.2-1,2.2-2.2
	s-1-2.2-2.2-2.2C359.5,48.9,358.6,49.9,358.6,51.1L358.6,51.1z"/>
<path id="path13201" inkscape:connector-curvature="0" class="st7" d="M322.7,70.9c0,5.3,4.5,4.9,4.5,4.9s4.5,0.4,4.5-4.9
	s-4.5-10.6-4.5-10.6S322.7,65.6,322.7,70.9L322.7,70.9z"/>
<path id="path13203" inkscape:connector-curvature="0" class="st7" d="M293.8,88.2c0,5.3,4.5,4.9,4.5,4.9s4.5,0.4,4.5-4.9
	s-4.5-10.6-4.5-10.6S293.8,82.9,293.8,88.2L293.8,88.2z"/>
<path id="path13205" inkscape:connector-curvature="0" class="st7" d="M308.5,59.7c-1.2,0-2.2,1-2.2,2.2s1,2.2,2.2,2.2
	s2.2-1,2.2-2.2S309.7,59.7,308.5,59.7L308.5,59.7z"/>
<path id="path13207" inkscape:connector-curvature="0" class="st7" d="M308.5,53.8c-1.2,0-2.2,1-2.2,2.2s1,2.2,2.2,2.2
	s2.2-1,2.2-2.2C310.7,54.7,309.7,53.8,308.5,53.8L308.5,53.8z"/>
<path id="path13209" inkscape:connector-curvature="0" class="st7" d="M308.5,47.9c-1.2,0-2.2,1-2.2,2.2s1,2.2,2.2,2.2
	s2.2-1,2.2-2.2C310.7,48.8,309.7,47.9,308.5,47.9L308.5,47.9z"/>
<path id="path13211" inkscape:connector-curvature="0" class="st7" d="M304,76.4c0,5.3,4.5,4.9,4.5,4.9s4.5,0.4,4.5-4.9
	c0-5.3-4.5-10.6-4.5-10.6S304,71.1,304,76.4L304,76.4z"/>
<path id="path13213" inkscape:connector-curvature="0" class="st7" d="M288,47.9c-1.2,0-2.2,1-2.2,2.2s1,2.2,2.2,2.2s2.2-1,2.2-2.2
	C290.2,48.8,289.2,47.9,288,47.9L288,47.9z"/>
<path id="path13215" inkscape:connector-curvature="0" class="st7" d="M288,53.8c-1.2,0-2.2,1-2.2,2.2s1,2.2,2.2,2.2s2.2-1,2.2-2.2
	C290.2,54.7,289.2,53.8,288,53.8L288,53.8z"/>
<path id="path13217" inkscape:connector-curvature="0" class="st7" d="M283.5,76.4c0,5.3,4.5,4.9,4.5,4.9s4.5,0.4,4.5-4.9
	c0-5.3-4.5-10.6-4.5-10.6S283.5,71.1,283.5,76.4L283.5,76.4z"/>
<path id="path13219" inkscape:connector-curvature="0" class="st7" d="M288,59.7c-1.2,0-2.2,1-2.2,2.2s1,2.2,2.2,2.2s2.2-1,2.2-2.2
	S289.2,59.7,288,59.7L288,59.7z"/>
<path id="path13221" inkscape:connector-curvature="0" class="st7" d="M325,57.1c0,1.2,1,2.2,2.2,2.2s2.2-1,2.2-2.2s-1-2.2-2.2-2.2
	C325.9,54.9,325,55.9,325,57.1L325,57.1z"/>
<path id="path13223" inkscape:connector-curvature="0" class="st7" d="M377.7,32.3c-1.2,0-2.2,1-2.2,2.2s1,2.2,2.2,2.2
	s2.2-1,2.2-2.2S378.9,32.3,377.7,32.3L377.7,32.3z"/>
<path id="path13225" inkscape:connector-curvature="0" class="st7" d="M350,55.1c-1.2,0-2.2,1-2.2,2.2s1,2.2,2.2,2.2s2.2-1,2.2-2.2
	S351.2,55.1,350,55.1L350,55.1z"/>
<path id="path13227" inkscape:connector-curvature="0" class="st7" d="M357.8,54.5c0-1.2-1-2.2-2.2-2.2s-2.2,1-2.2,2.2
	s1,2.2,2.2,2.2S357.8,55.7,357.8,54.5L357.8,54.5z"/>
<path id="path13229" inkscape:connector-curvature="0" class="st7" d="M369.6,41.3c-1.2,0-2.2,1-2.2,2.2s1,2.2,2.2,2.2
	s2.2-1,2.2-2.2S370.8,41.3,369.6,41.3L369.6,41.3z"/>
<path id="path13231" inkscape:connector-curvature="0" class="st7" d="M373.7,37c-1.2,0-2.2,1-2.2,2.2s1,2.2,2.2,2.2s2.2-1,2.2-2.2
	S374.9,37,373.7,37L373.7,37z"/>
<path id="path13233" inkscape:connector-curvature="0" class="st7" d="M340.9,59.8c0-1.2-1-2.2-2.2-2.2s-2.2,1-2.2,2.2
	s1,2.2,2.2,2.2S340.9,61,340.9,59.8L340.9,59.8z"/>
<path id="path13235" inkscape:connector-curvature="0" class="st7" d="M332.8,57c-1.2,0-2.2,1-2.2,2.2s1,2.2,2.2,2.2s2.2-1,2.2-2.2
	C335,57.9,334,57,332.8,57L332.8,57z"/>
<path id="path13237" inkscape:connector-curvature="0" class="st7" d="M317.9,47.9c-1.2,0-2.2,1-2.2,2.2s1,2.2,2.2,2.2
	s2.2-1,2.2-2.2C320.1,48.8,319.1,47.9,317.9,47.9L317.9,47.9z"/>
<path id="path13239" inkscape:connector-curvature="0" class="st7" d="M324.4,54c0-1.2-1-2.2-2.2-2.2s-2.2,1-2.2,2.2s1,2.2,2.2,2.2
	S324.4,55.2,324.4,54L324.4,54z"/>
<path id="path13241" inkscape:connector-curvature="0" class="st7" d="M264.9,70.9c0,5.3,4.5,4.9,4.5,4.9s4.5,0.4,4.5-4.9
	s-4.5-10.6-4.5-10.6S264.9,65.6,264.9,70.9L264.9,70.9z"/>
<path id="path13243" inkscape:connector-curvature="0" class="st7" d="M285.5-162.5c1.2,0,2.2-1,2.2-2.2s-1-2.2-2.2-2.2
	s-2.2,1-2.2,2.2S284.2-162.5,285.5-162.5L285.5-162.5z"/>
<path id="path13245" inkscape:connector-curvature="0" class="st7" d="M285.4-156.8c1.2,0,2.2-1,2.2-2.2s-1-2.2-2.2-2.2
	s-2.2,1-2.2,2.2C283.2-157.7,284.2-156.8,285.4-156.8L285.4-156.8z"/>
<path id="path13247" inkscape:connector-curvature="0" class="st7" d="M285.4-151c1.2,0,2.2-1,2.2-2.2c0-1.2-1-2.2-2.2-2.2
	s-2.2,1-2.2,2.2C283.2-152,284.2-151,285.4-151L285.4-151z"/>
<path id="path13249" inkscape:connector-curvature="0" class="st7" d="M285.2-145.2c1.2,0,2.2-1,2.2-2.2c0-1.2-1-2.2-2.2-2.2
	s-2.2,1-2.2,2.2C283.1-146.2,284-145.2,285.2-145.2L285.2-145.2z"/>
<path id="path13251" inkscape:connector-curvature="0" class="st7" d="M285.1-139.5c1.2,0,2.2-1,2.2-2.2c0-1.2-1-2.2-2.2-2.2
	s-2.2,1-2.2,2.2C282.9-140.4,283.9-139.5,285.1-139.5L285.1-139.5z"/>
<path id="path13253" inkscape:connector-curvature="0" class="st7" d="M284.7-133.7c1.2,0,2.2-1,2.2-2.2c0-1.2-1-2.2-2.2-2.2
	s-2.2,1-2.2,2.2C282.5-134.7,283.5-133.7,284.7-133.7L284.7-133.7z"/>
<path id="path13255" inkscape:connector-curvature="0" class="st7" d="M284.6-127.9c1.2,0,2.2-1,2.2-2.2c0-1.2-1-2.2-2.2-2.2
	s-2.2,1-2.2,2.2C282.4-128.9,283.4-127.9,284.6-127.9L284.6-127.9z"/>
<path id="path13257" inkscape:connector-curvature="0" class="st7" d="M284.3-122.2c1.2,0,2.2-1,2.2-2.2c0-1.2-1-2.2-2.2-2.2
	s-2.2,1-2.2,2.2C282.1-123.2,283.1-122.2,284.3-122.2L284.3-122.2z"/>
<path id="path13259" inkscape:connector-curvature="0" class="st7" d="M284-116.4c1.2,0,2.2-1,2.2-2.2c0-1.2-1-2.2-2.2-2.2
	s-2.2,1-2.2,2.2C281.8-117.4,282.8-116.4,284-116.4L284-116.4z"/>
<path id="path13261" inkscape:connector-curvature="0" class="st7" d="M283.5-110.6c1.2,0,2.2-1,2.2-2.2s-1-2.2-2.2-2.2
	s-2.2,1-2.2,2.2S282.3-110.6,283.5-110.6L283.5-110.6z"/>
<path id="path13263" inkscape:connector-curvature="0" class="st7" d="M283-104.9c1.2,0,2.2-1,2.2-2.2s-1-2.2-2.2-2.2
	s-2.2,1-2.2,2.2S281.8-104.9,283-104.9L283-104.9z"/>
<path id="path13265" inkscape:connector-curvature="0" class="st7" d="M282.5-99.1c1.2,0,2.2-1,2.2-2.2s-1-2.2-2.2-2.2
	s-2.2,1-2.2,2.2S281.3-99.1,282.5-99.1L282.5-99.1z"/>
<path id="path13267" inkscape:connector-curvature="0" class="st7" d="M279.7-95.6c0,1.2,1,2.2,2.2,2.2s2.2-1,2.2-2.2
	s-1-2.2-2.2-2.2C280.6-97.8,279.7-96.8,279.7-95.6L279.7-95.6z"/>
<path id="path13269" inkscape:connector-curvature="0" class="st7" d="M278.9-89.8c0,1.2,1,2.2,2.2,2.2s2.2-1,2.2-2.2
	s-1-2.2-2.2-2.2S278.9-91,278.9-89.8L278.9-89.8z"/>
<path id="path13271" inkscape:connector-curvature="0" class="st7" d="M278-84c0,1.2,1,2.2,2.2,2.2s2.2-1,2.2-2.2s-1-2.2-2.2-2.2
	S278-85.2,278-84L278-84z"/>
<path id="path13273" inkscape:connector-curvature="0" class="st7" d="M277-78.3c0,1.2,1,2.2,2.2,2.2s2.2-1,2.2-2.2s-1-2.2-2.2-2.2
	S277-79.5,277-78.3L277-78.3z"/>
<path id="path13275" inkscape:connector-curvature="0" class="st7" d="M275.8-72.5c0,1.2,1,2.2,2.2,2.2s2.2-1,2.2-2.2
	s-1-2.2-2.2-2.2S275.8-73.7,275.8-72.5L275.8-72.5z"/>
<path id="path13277" inkscape:connector-curvature="0" class="st7" d="M274.3-66.7c0,1.2,1,2.2,2.2,2.2s2.2-1,2.2-2.2
	s-1-2.2-2.2-2.2S274.3-68,274.3-66.7L274.3-66.7z"/>
<path id="path13279" inkscape:connector-curvature="0" class="st7" d="M274.6-58.8c1.2,0,2.2-1,2.2-2.2s-1-2.2-2.2-2.2
	s-2.2,1-2.2,2.2S273.4-58.8,274.6-58.8L274.6-58.8z"/>
<path id="path13281" inkscape:connector-curvature="0" class="st7" d="M272.1-53c1.2,0,2.2-1,2.2-2.2s-1-2.2-2.2-2.2s-2.2,1-2.2,2.2
	S270.9-53,272.1-53L272.1-53z"/>
<path id="path13283" inkscape:connector-curvature="0" class="st7" d="M256.8-60.5c0-1.2-1-2.2-2.2-2.2s-2.2,1-2.2,2.2
	s1,2.2,2.2,2.2S256.8-59.3,256.8-60.5L256.8-60.5z"/>
<path id="path13285" inkscape:connector-curvature="0" class="st7" d="M258.3-42.1c0,1.2,1,2.2,2.2,2.2s2.2-1,2.2-2.2
	s-1-2.2-2.2-2.2C259.2-44.3,258.3-43.3,258.3-42.1L258.3-42.1z"/>
<path id="path13287" inkscape:connector-curvature="0" class="st7" d="M262-37.8c0,1.2,1,2.2,2.2,2.2s2.2-1,2.2-2.2s-1-2.2-2.2-2.2
	S262-39,262-37.8L262-37.8z"/>
<path id="path13289" inkscape:connector-curvature="0" class="st7" d="M267.6-35.2c0,1.2,1,2.2,2.2,2.2s2.2-1,2.2-2.2
	s-1-2.2-2.2-2.2C268.5-37.4,267.6-36.4,267.6-35.2L267.6-35.2z"/>
<path id="path13291" inkscape:connector-curvature="0" class="st7" d="M273.5-35.5c0,1.2,1,2.2,2.2,2.2s2.2-1,2.2-2.2
	s-1-2.2-2.2-2.2S273.5-36.7,273.5-35.5L273.5-35.5z"/>
<path id="path13293" inkscape:connector-curvature="0" class="st7" d="M281.8-40.2c-1.2,0-2.2,1-2.2,2.2s1,2.2,2.2,2.2
	s2.2-1,2.2-2.2S283.1-40.2,281.8-40.2L281.8-40.2z"/>
<path id="path13295" inkscape:connector-curvature="0" class="st7" d="M263.1-45.3c1.2,0,2.2-1,2.2-2.2s-1-2.2-2.2-2.2
	s-2.2,1-2.2,2.2S261.9-45.3,263.1-45.3L263.1-45.3z"/>
<path id="path13297" inkscape:connector-curvature="0" class="st7" d="M247.8-56.1c0,1.2,1,2.2,2.2,2.2s2.2-1,2.2-2.2
	s-1-2.2-2.2-2.2C248.8-58.2,247.8-57.3,247.8-56.1L247.8-56.1z"/>
<path id="path13299" inkscape:connector-curvature="0" class="st7" d="M268.4-48c1.2,0,2.2-1,2.2-2.2s-1-2.2-2.2-2.2s-2.2,1-2.2,2.2
	C266.2-48.9,267.2-48,268.4-48L268.4-48z"/>
<path id="path13301" inkscape:connector-curvature="0" class="st7" d="M255.8-52.1c1.2,0,2.2-1,2.2-2.2s-1-2.2-2.2-2.2
	s-2.2,1-2.2,2.2C253.6-53,254.5-52.1,255.8-52.1L255.8-52.1z"/>
<path id="path13303" inkscape:connector-curvature="0" class="st7" d="M255.6-48.8c0,1.2,1,2.2,2.2,2.2s2.2-1,2.2-2.2
	s-1-2.2-2.2-2.2S255.6-50,255.6-48.8L255.6-48.8L255.6-48.8z"/>
<path id="path13305" inkscape:connector-curvature="0" class="st7" d="M313.3-164.7c0-1.2-1-2.2-2.2-2.2s-2.2,1-2.2,2.2
	s1,2.2,2.2,2.2S313.3-163.5,313.3-164.7L313.3-164.7z"/>
<path id="path13307" inkscape:connector-curvature="0" class="st7" d="M311.1-156.8c1.2,0,2.2-1,2.2-2.2s-1-2.2-2.2-2.2
	s-2.2,1-2.2,2.2C308.9-157.7,309.9-156.8,311.1-156.8L311.1-156.8z"/>
<path id="path13309" inkscape:connector-curvature="0" class="st7" d="M311.1-151c1.2,0,2.2-1,2.2-2.2c0-1.2-1-2.2-2.2-2.2
	s-2.2,1-2.2,2.2C308.9-152,309.9-151,311.1-151L311.1-151z"/>
<path id="path13311" inkscape:connector-curvature="0" class="st7" d="M311.3-145.2c1.2,0,2.2-1,2.2-2.2c0-1.2-1-2.2-2.2-2.2
	s-2.2,1-2.2,2.2C309.1-146.2,310.1-145.2,311.3-145.2L311.3-145.2z"/>
<path id="path13313" inkscape:connector-curvature="0" class="st7" d="M311.5-139.5c1.2,0,2.2-1,2.2-2.2c0-1.2-1-2.2-2.2-2.2
	s-2.2,1-2.2,2.2C309.3-140.4,310.2-139.5,311.5-139.5L311.5-139.5z"/>
<path id="path13315" inkscape:connector-curvature="0" class="st7" d="M311.8-133.7c1.2,0,2.2-1,2.2-2.2c0-1.2-1-2.2-2.2-2.2
	s-2.2,1-2.2,2.2C309.6-134.7,310.6-133.7,311.8-133.7L311.8-133.7z"/>
<path id="path13317" inkscape:connector-curvature="0" class="st7" d="M311.9-127.9c1.2,0,2.2-1,2.2-2.2c0-1.2-1-2.2-2.2-2.2
	s-2.2,1-2.2,2.2C309.7-128.9,310.7-127.9,311.9-127.9L311.9-127.9z"/>
<path id="path13319" inkscape:connector-curvature="0" class="st7" d="M312.2-122.2c1.2,0,2.2-1,2.2-2.2c0-1.2-1-2.2-2.2-2.2
	s-2.2,1-2.2,2.2C310-123.2,311-122.2,312.2-122.2L312.2-122.2z"/>
<path id="path13321" inkscape:connector-curvature="0" class="st7" d="M312.6-116.4c1.2,0,2.2-1,2.2-2.2c0-1.2-1-2.2-2.2-2.2
	s-2.2,1-2.2,2.2C310.4-117.4,311.4-116.4,312.6-116.4L312.6-116.4z"/>
<path id="path13323" inkscape:connector-curvature="0" class="st7" d="M313-110.6c1.2,0,2.2-1,2.2-2.2s-1-2.2-2.2-2.2
	s-2.2,1-2.2,2.2S311.8-110.6,313-110.6L313-110.6z"/>
<path id="path13325" inkscape:connector-curvature="0" class="st7" d="M313.5-104.9c1.2,0,2.2-1,2.2-2.2s-1-2.2-2.2-2.2
	s-2.2,1-2.2,2.2S312.3-104.9,313.5-104.9L313.5-104.9z"/>
<path id="path13327" inkscape:connector-curvature="0" class="st7" d="M314-99.1c1.2,0,2.2-1,2.2-2.2s-1-2.2-2.2-2.2s-2.2,1-2.2,2.2
	S312.8-99.1,314-99.1L314-99.1z"/>
<path id="path13329" inkscape:connector-curvature="0" class="st7" d="M314.7-93.4c1.2,0,2.2-1,2.2-2.2s-1-2.2-2.2-2.2
	s-2.2,1-2.2,2.2C312.5-94.3,313.5-93.4,314.7-93.4L314.7-93.4z"/>
<path id="path13331" inkscape:connector-curvature="0" class="st7" d="M315.4-92c-1.2,0-2.2,1-2.2,2.2s1,2.2,2.2,2.2s2.2-1,2.2-2.2
	S316.7-92,315.4-92L315.4-92z"/>
<path id="path13333" inkscape:connector-curvature="0" class="st7" d="M316.3-86.2c-1.2,0-2.2,1-2.2,2.2s1,2.2,2.2,2.2
	s2.2-1,2.2-2.2S317.5-86.2,316.3-86.2L316.3-86.2z"/>
<path id="path13335" inkscape:connector-curvature="0" class="st7" d="M315.1-78.3c0,1.2,1,2.2,2.2,2.2s2.2-1,2.2-2.2
	s-1-2.2-2.2-2.2S315.1-79.5,315.1-78.3L315.1-78.3z"/>
<path id="path13337" inkscape:connector-curvature="0" class="st7" d="M318.5-70.3c1.2,0,2.2-1,2.2-2.2s-1-2.2-2.2-2.2
	s-2.2,1-2.2,2.2C316.4-71.3,317.3-70.3,318.5-70.3L318.5-70.3z"/>
<path id="path13339" inkscape:connector-curvature="0" class="st7" d="M320-68.9c-1.2,0-2.2,1-2.2,2.2s1,2.2,2.2,2.2s2.2-1,2.2-2.2
	C322.2-68,321.2-68.9,320-68.9L320-68.9z"/>
<path id="path13341" inkscape:connector-curvature="0" class="st7" d="M319.7-61c0,1.2,1,2.2,2.2,2.2s2.2-1,2.2-2.2s-1-2.2-2.2-2.2
	S319.7-62.2,319.7-61L319.7-61z"/>
<path id="path13343" inkscape:connector-curvature="0" class="st7" d="M322.3-55.2c0,1.2,1,2.2,2.2,2.2s2.2-1,2.2-2.2
	s-1-2.2-2.2-2.2S322.3-56.4,322.3-55.2L322.3-55.2z"/>
<path id="path13345" inkscape:connector-curvature="0" class="st7" d="M344.1-60.5c0-1.2-1-2.2-2.2-2.2s-2.2,1-2.2,2.2
	s1,2.2,2.2,2.2C343.2-58.3,344.1-59.3,344.1-60.5L344.1-60.5z"/>
<path id="path13347" inkscape:connector-curvature="0" class="st7" d="M333.9-42.1c0,1.2,1,2.2,2.2,2.2s2.2-1,2.2-2.2
	s-1-2.2-2.2-2.2S333.9-43.3,333.9-42.1L333.9-42.1z"/>
<path id="path13349" inkscape:connector-curvature="0" class="st7" d="M332.3-35.6c1.2,0,2.2-1,2.2-2.2s-1-2.2-2.2-2.2
	s-2.2,1-2.2,2.2S331.1-35.6,332.3-35.6L332.3-35.6z"/>
<path id="path13351" inkscape:connector-curvature="0" class="st7" d="M324.6-35.2c0,1.2,1,2.2,2.2,2.2s2.2-1,2.2-2.2
	s-1-2.2-2.2-2.2S324.6-36.4,324.6-35.2L324.6-35.2z"/>
<path id="path13353" inkscape:connector-curvature="0" class="st7" d="M320.8-37.7c-1.2,0-2.2,1-2.2,2.2s1,2.2,2.2,2.2
	s2.2-1,2.2-2.2S322-37.7,320.8-37.7L320.8-37.7z"/>
<path id="path13355" inkscape:connector-curvature="0" class="st7" d="M314.7-35.8c1.2,0,2.2-1,2.2-2.2s-1-2.2-2.2-2.2
	s-2.2,1-2.2,2.2S313.5-35.8,314.7-35.8L314.7-35.8z"/>
<path id="path13357" inkscape:connector-curvature="0" class="st7" d="M333.4-45.3c1.2,0,2.2-1,2.2-2.2s-1-2.2-2.2-2.2
	s-2.2,1-2.2,2.2S332.2-45.3,333.4-45.3L333.4-45.3z"/>
<path id="path13359" inkscape:connector-curvature="0" class="st7" d="M348.8-56.1c0-1.2-1-2.2-2.2-2.2s-2.2,1-2.2,2.2
	s1,2.2,2.2,2.2S348.8-54.8,348.8-56.1L348.8-56.1z"/>
<path id="path13361" inkscape:connector-curvature="0" class="st7" d="M325.9-50.1c0,1.2,1,2.2,2.2,2.2s2.2-1,2.2-2.2
	s-1-2.2-2.2-2.2S325.9-51.4,325.9-50.1L325.9-50.1z"/>
<path id="path13363" inkscape:connector-curvature="0" class="st7" d="M338.6-54.3c0,1.2,1,2.2,2.2,2.2s2.2-1,2.2-2.2
	s-1-2.2-2.2-2.2S338.6-55.5,338.6-54.3L338.6-54.3z"/>
<path id="path13365" inkscape:connector-curvature="0" class="st7" d="M338.7-46.6c1.2,0,2.2-1,2.2-2.2s-1-2.2-2.2-2.2
	s-2.2,1-2.2,2.2S337.5-46.6,338.7-46.6L338.7-46.6z"/>
<polygon id="polygon13367" class="st6" points="385.4,922.9 385.4,926.2 378.7,926.2 378.7,922.9 "/>
<path id="path13369" inkscape:connector-curvature="0" class="st6" d="M385.9,920.5c0,0-30.9,4.8-37.9-18.9c0,0-6.7-18.1-24.5-17.5
	l-0.4-18c0,0,29.8-0.7,33.7,31.9c0,0,2.8,19.2,23.4,18.3C380.3,916.2,386.7,915.4,385.9,920.5L385.9,920.5L385.9,920.5z"/>
<polygon id="polygon13371" class="st6" points="223.7,922.9 223.7,926.2 230.5,926.2 230.5,922.9 "/>
<path id="path13373" inkscape:connector-curvature="0" class="st6" d="M223.2,920.5c0,0,30.9,4.8,37.9-18.9c0,0,7.8-16.4,26.2-17.5
	l-1.4-18c0,0-29.8-0.7-33.7,31.9c0,0-2.8,19.2-23.4,18.3C228.9,916.2,222.5,915.4,223.2,920.5L223.2,920.5L223.2,920.5z"/>
<polygon id="polygon13375" class="st6" points="311.9,874.6 301.3,874.6 301.3,548.9 311.9,548.9 "/>
<polygon id="polygon13377" class="st6" points="326,862.8 326,884.2 284.9,884.2 284.9,862.8 "/>
<path id="path13379" inkscape:connector-curvature="0" class="st6" d="M320.4,845.6c0,7.6-6.2,13.8-13.8,13.8
	c-7.6,0-13.8-6.2-13.8-13.8c0-7.6,6.2-13.8,13.8-13.8C314.2,831.8,320.4,838,320.4,845.6L320.4,845.6z"/>
<polygon id="polygon13381" class="st8" points="576.9,643.6 462.3,643.6 462.2,630.9 574.6,630.9 "/>
<path id="path13383" inkscape:connector-curvature="0" class="st6" d="M462.2,648.3V641l113.5,0.1c-4.5-16.4-18.9-72.5-19-127.7
	c0-35.3,5.8-70.3,24.6-94.6l0,0l5.8,4.5c-17.2,22-23.1,55.6-23.1,90.1c0,48,11.3,97.4,16.9,119c1.9,7.2,3.1,11.3,3.1,11.3l1.4,4.7
	L462.2,648.3L462.2,648.3z"/>
<path id="path13385" inkscape:connector-curvature="0" class="st6" d="M565.7,888.9c0-14.6,1.8-26.9,4-35.1
	c12.8-47.5,16.7-89.8,16.7-123.6c0-46-7.2-76.3-9-83c-0.2-0.9-0.4-1.4-0.4-1.4l7-2.1c0.1,0.3,9.7,33.1,9.7,86.5
	c0,34.4-4,77.3-17,125.5c-2,7.4-3.7,19.2-3.7,33.2c0,15.9,2.2,34.6,8.6,53.2l-7,2.4C568,924.9,565.7,905.5,565.7,888.9L565.7,888.9
	L565.7,888.9z"/>
<polygon id="polygon13387" class="st6" points="452.9,680.2 452.9,687.8 591.3,687.8 591.3,680.2 "/>
<path id="path13389" inkscape:connector-curvature="0" class="st6" d="M465.1,941.4c7.8-12.4,10.9-26.6,10.9-42.1
	c0-13.9-2.6-28.7-6.5-43.6c-14.5-55.2-19-99.1-19-132.4c0-53.6,11.7-79.6,11.9-80l0,0l6.7,3c0,0-0.1,0.3-0.4,1s-0.7,1.9-1.2,3.4
	c-1,3.1-2.5,7.8-3.9,14.2c-2.8,12.7-5.7,32.1-5.7,58.4c0,32.6,4.4,76,18.8,130.6c4,15.3,6.7,30.7,6.7,45.4c0,16.4-3.4,32.2-12.1,46
	L465.1,941.4L465.1,941.4L465.1,941.4z"/>
<polygon id="polygon13391" class="st6" points="581.8,656.1 465.6,656.1 465.6,643.3 581.8,643.3 "/>
<polygon id="polygon13393" class="st8" points="18.4,643.6 133,643.6 133.1,630.9 20.6,630.9 "/>
<path id="path13395" inkscape:connector-curvature="0" class="st6" d="M133.1,648.3V641l-113.5,0.1c4.5-16.4,18.9-72.5,19-127.7
	c0-35.3-5.8-70.3-24.6-94.6l0,0l-5.8,4.5c17.2,22,23.1,55.6,23.1,90.1c0,48-11.3,97.4-16.9,119c-1.9,7.2-3.1,11.3-3.1,11.3l-1.4,4.7
	L133.1,648.3L133.1,648.3z"/>
<path id="path13397" inkscape:connector-curvature="0" class="st6" d="M29.6,888.9c0,16.5-2.3,36-8.9,55.6l-7-2.4
	c6.4-18.6,8.6-37.3,8.6-53.2c0-14-1.7-25.8-3.7-33.2c-13-48.2-17-91.1-17-125.5c0-53.4,9.6-86.2,9.7-86.5l7,2.1c0,0-0.1,0.5-0.4,1.4
	c-1.8,6.7-9,37-9,83c0,33.8,3.9,76,16.7,123.6C27.8,862.1,29.6,874.3,29.6,888.9L29.6,888.9z"/>
<polygon id="polygon13399" class="st6" points="142.4,680.2 142.4,687.8 4,687.8 4,680.2 "/>
<path id="path13401" inkscape:connector-curvature="0" class="st6" d="M130.2,941.4c-7.8-12.4-10.9-26.6-10.9-42.1
	c0-13.9,2.6-28.7,6.5-43.6c14.5-55.2,19-99.1,19-132.4c0-53.6-11.7-79.6-11.9-80l0,0l-6.7,3c0,0,0.1,0.3,0.4,1s0.7,1.9,1.2,3.4
	c1,3.1,2.5,7.8,3.9,14.2c2.8,12.7,5.7,32.1,5.7,58.4c0,32.6-4.4,76-18.8,130.6c-4,15.3-6.7,30.7-6.7,45.4c0,16.4,3.4,32.2,12.1,46
	L130.2,941.4L130.2,941.4L130.2,941.4z"/>
<polygon id="polygon13403" class="st6" points="13.5,656.1 129.7,656.1 129.7,643.3 13.5,643.3 "/>
<polygon id="polygon13405" class="st9" points="113.2,714.5 130.2,523.2 474.4,523.2 492.5,713.5 "/>
<path id="path13407" inkscape:connector-curvature="0" class="st10" d="M83.9,750.2c0,0,3.7-7.5,14.7-9.4c0,0,24.5,0,29.4-10.3
	l2.2-207.3L83.9,750.2C83.9,750.2,83.9,750.2,83.9,750.2z"/>
<path id="path13409" inkscape:connector-curvature="0" class="st10" d="M518,750.2c0,0-3.7-7.5-14.7-9.4c0,0-24.5,0-29.4-10.3
	l-2.2-207.3L518,750.2L518,750.2z"/>
<polygon id="polygon13411" class="st11" points="130.2,523.2 473.5,523.2 305.4,726.9 "/>
<path id="path13413" inkscape:connector-curvature="0" class="st12" d="M403.1,523.2c-0.4,0-0.8-0.3-0.9-0.6l-5.7-18.4
	c-0.1-0.3,0-0.6,0.1-0.8c0.2-0.2,0.5-0.4,0.7-0.4h47.5c0.3,0,0.6,0.1,0.7,0.4c0.2,0.2,0.2,0.5,0.1,0.8l-5.7,18.4
	c-0.1,0.4-0.5,0.6-0.9,0.6H403.1L403.1,523.2L403.1,523.2z"/>
<path id="path13415" inkscape:connector-curvature="0" class="st13" d="M391.4,523.2c-0.4,0-0.7-0.2-0.8-0.6l-3.4-8.3
	c-0.1-0.3-0.1-0.6,0.1-0.9c0.2-0.3,0.5-0.4,0.8-0.4h68.8c0.3,0,0.6,0.2,0.8,0.4c0.2,0.3,0.2,0.6,0.1,0.9l-3.4,8.3
	c-0.1,0.3-0.5,0.6-0.8,0.6H391.4L391.4,523.2L391.4,523.2z"/>
<path id="path13417" inkscape:connector-curvature="0" class="st12" d="M198,522.3v-0.9V522.3L198,522.3z M161.9,523.2
	c-0.4,0-0.8-0.3-0.9-0.6l-5.7-18.4c-0.1-0.3,0-0.6,0.1-0.8c0.2-0.2,0.4-0.4,0.7-0.4h47.5c0.3,0,0.6,0.1,0.7,0.4
	c0.2,0.2,0.2,0.5,0.1,0.8l-5.7,18.4c-0.1,0.4-0.5,0.6-0.9,0.6H161.9L161.9,523.2L161.9,523.2z"/>
<path id="path13419" inkscape:connector-curvature="0" class="st13" d="M148.4,523.2c-0.4,0-0.7-0.2-0.9-0.6l-3.4-8.3
	c-0.1-0.3-0.1-0.6,0.1-0.9c0.2-0.3,0.5-0.4,0.8-0.4h68.8c0.3,0,0.6,0.2,0.8,0.4c0.2,0.3,0.2,0.6,0.1,0.9l-3.4,8.3
	c-0.1,0.3-0.5,0.6-0.8,0.6H148.4L148.4,523.2L148.4,523.2z"/>
<polygon id="polygon13421" class="st14" points="366.3,488.6 366.4,522.7 363.7,522.7 363.6,488.6 "/>
<path id="path13423" inkscape:connector-curvature="0" class="st15" d="M354.3,463c0,0-3.4,29.3,10.7,30.1c0,0,13.7,0.8,11.6-29.7
	L354.3,463L354.3,463L354.3,463z"/>
<path id="path13425" inkscape:connector-curvature="0" class="st15" d="M354,475.8l22.6,0.4c0,0-0.9,15.7-10.2,17
	C366.5,493.2,354.8,495.2,354,475.8L354,475.8z"/>
<path id="path13427" inkscape:connector-curvature="0" class="st14" d="M374.7,521.4c0,0.9-4.4,1.6-9.8,1.6s-9.8-0.7-9.8-1.5
	c0-0.9,4.4-1.6,9.8-1.6C370.3,519.8,374.7,520.5,374.7,521.4L374.7,521.4z"/>
<polygon id="polygon13429" class="st14" points="236.4,488.6 236.3,522.7 239,521.7 239,487.6 "/>
<path id="path13431" inkscape:connector-curvature="0" class="st15" d="M248.4,463c0,0,3.4,29.3-10.7,30.1c0,0-13.7,0.8-11.6-29.7
	L248.4,463L248.4,463L248.4,463z"/>
<path id="path13433" inkscape:connector-curvature="0" class="st15" d="M248.7,475.8l-22.6,0.4c0,0,0.9,15.7,10.2,17
	C236.2,493.2,247.9,495.2,248.7,475.8L248.7,475.8L248.7,475.8z"/>
<path id="path13435" inkscape:connector-curvature="0" class="st14" d="M228,521.4c0,0.9,4.4,1.6,9.8,1.6c5.4,0,9.8-0.7,9.8-1.5
	c0-0.9-4.4-1.6-9.8-1.6C232.3,519.8,228,520.5,228,521.4L228,521.4z"/>
</svg>
