<?xml version="1.0" encoding="UTF-8" standalone="no"?>
<!-- Generator: Adobe Illustrator 18.1.1, SVG Export Plug-In . SVG Version: 6.00 Build 0)  -->

<svg
   xmlns:dc="http://purl.org/dc/elements/1.1/"
   xmlns:cc="http://creativecommons.org/ns#"
   xmlns:rdf="http://www.w3.org/1999/02/22-rdf-syntax-ns#"
   xmlns:svg="http://www.w3.org/2000/svg"
   xmlns="http://www.w3.org/2000/svg"
   xmlns:sodipodi="http://sodipodi.sourceforge.net/DTD/sodipodi-0.dtd"
   xmlns:inkscape="http://www.inkscape.org/namespaces/inkscape"
   version="1.2"
   id="Слой_1"
   x="0px"
   y="0px"
   viewBox="0 0 252.10001 621.14848"
   xml:space="preserve"
   inkscape:version="0.91 r"
   sodipodi:docname="3Scroll_windows .svg"
   width="252.10001"
   height="621.1485"><metadata
     id="metadata13647"><rdf:RDF><cc:Work
         rdf:about=""><dc:format>image/svg+xml</dc:format><dc:type
           rdf:resource="http://purl.org/dc/dcmitype/StillImage" /><dc:title></dc:title></cc:Work></rdf:RDF></metadata><defs
     id="defs13645" /><sodipodi:namedview
     pagecolor="#ffffff"
     bordercolor="#666666"
     borderopacity="1"
     objecttolerance="10"
     gridtolerance="10"
     guidetolerance="10"
     inkscape:pageopacity="0"
     inkscape:pageshadow="2"
     inkscape:window-width="1366"
     inkscape:window-height="744"
     id="namedview13643"
     showgrid="false"
     inkscape:snap-page="true"
     inkscape:snap-center="true"
     inkscape:object-paths="true"
     fit-margin-top="0"
     fit-margin-left="0"
     fit-margin-right="0"
     fit-margin-bottom="0"
     inkscape:zoom="2.0996195"
     inkscape:cx="67.930725"
     inkscape:cy="546.1778"
     inkscape:window-x="0"
     inkscape:window-y="24"
     inkscape:window-maximized="1"
     inkscape:current-layer="Слой_1" /><polygon
     points="308,304.4 308,481 359.9,481 359.9,304.4 "
     id="polygon13023-2"
     style="fill:#d6eefd"
     transform="matrix(1,0,0,1.1304486,-173.79355,77.402726)" /><polygon
     points="371,304.4 371,481 422.9,481 422.9,304.4 "
     id="polygon13027-1"
     style="fill:#d6eefd"
     transform="matrix(1,0,0,1.1304486,-173.79355,77.402726)" /><polygon
     points="175.6,304.4 175.6,481 227.5,481 227.5,304.4 "
     id="polygon13035-0"
     style="fill:#d6eefd"
     transform="matrix(1,0,0,1.1304486,-173.79355,77.402726)" /><polygon
     points="238.6,304.4 238.6,481 290.5,481 290.5,304.4 "
     id="polygon13039-1"
     style="fill:#d6eefd"
     transform="matrix(1,0,0,1.1304486,-173.79355,77.402726)" /><path
     d="m 120.7,129.8 0,-129.7 C 89.400004,1.5 61.1,14.8 39.7,35.9 l 81,93.9 0,0 z"
     id="path13013"
     inkscape:connector-curvature="0"
     style="fill:#d6eefd" /><path
     d="m 127.1,0 0,132.3 84.1,-97.5 C 189,13.4 159.5,0.3 127.1,0 l 0,0 z"
     id="path13015"
     inkscape:connector-curvature="0"
     style="fill:#d6eefd" /><path
     d="m 135.5,132.4 116.6,0 c 0,-36.300004 -13.9,-69.100004 -36.4,-93.1 l -80.2,93.1 0,0 z"
     id="path13017"
     inkscape:connector-curvature="0"
     style="fill:#d6eefd" /><path
     d="M 35.3,40.6 C 13.5,64.399996 0,96.799996 0,132.4 l 114.5,0 -79.2,-91.8 0,0 z"
     id="path13019"
     inkscape:connector-curvature="0"
     style="fill:#d6eefd" /><polygon
     points="308,294.8 359.9,294.8 359.9,241.4 308,241.4 "
     id="polygon13021"
     style="fill:#d6eefd"
     transform="translate(-173,-94)" /><polygon
     points="359.9,481 359.9,304.4 308,304.4 308,481 "
     id="polygon13023"
     style="fill:#d6eefd"
     transform="matrix(1,0,0,1.1304486,-173,-133.70854)" /><polygon
     points="371,294.8 422.9,294.8 422.9,241.4 371,241.4 "
     id="polygon13025"
     style="fill:#d6eefd"
     transform="translate(-173,-94)" /><polygon
     points="422.9,481 422.9,304.4 371,304.4 371,481 "
     id="polygon13027"
     style="fill:#d6eefd"
     transform="matrix(1,0,0,1.1304486,-173,-133.70854)" /><polygon
     points="175.6,294.8 227.5,294.8 227.5,241.4 175.6,241.4 "
     id="polygon13033"
     style="fill:#d6eefd"
     transform="translate(-173,-94)" /><polygon
     points="227.5,481 227.5,304.4 175.6,304.4 175.6,481 "
     id="polygon13035"
     style="fill:#d6eefd"
     transform="matrix(1,0,0,1.1304486,-173,-133.70854)" /><polygon
     points="238.6,294.8 290.5,294.8 290.5,241.4 238.6,241.4 "
     id="polygon13037"
     style="fill:#d6eefd"
     transform="translate(-173,-94)" /><polygon
     points="290.5,481 290.5,304.4 238.6,304.4 238.6,481 "
     id="polygon13039"
     style="fill:#d6eefd"
     transform="matrix(1,0,0,1.1304486,-173,-133.70854)" /></svg>