<?xml version="1.0" encoding="UTF-8" standalone="no"?>
<!-- Generator: Adobe Illustrator 18.1.1, SVG Export Plug-In . SVG Version: 6.00 Build 0)  -->

<svg
   xmlns:dc="http://purl.org/dc/elements/1.1/"
   xmlns:cc="http://creativecommons.org/ns#"
   xmlns:rdf="http://www.w3.org/1999/02/22-rdf-syntax-ns#"
   xmlns:svg="http://www.w3.org/2000/svg"
   xmlns="http://www.w3.org/2000/svg"
   xmlns:sodipodi="http://sodipodi.sourceforge.net/DTD/sodipodi-0.dtd"
   xmlns:inkscape="http://www.inkscape.org/namespaces/inkscape"
   version="1.2"
   id="Слой_1"
   x="0px"
   y="0px"
   viewBox="0 0 595.3 1200"
   xml:space="preserve"
   inkscape:version="0.91 r"
   sodipodi:docname="3Scroll_sceen .svg"
   width="595.29999"
   height="1200"><metadata
     id="metadata13441"><rdf:RDF><cc:Work
         rdf:about=""><dc:format>image/svg+xml</dc:format><dc:type
           rdf:resource="http://purl.org/dc/dcmitype/StillImage" /><dc:title></dc:title></cc:Work></rdf:RDF></metadata><defs
     id="defs13439" /><sodipodi:namedview
     pagecolor="#ffffff"
     bordercolor="#666666"
     borderopacity="1"
     objecttolerance="10"
     gridtolerance="10"
     guidetolerance="10"
     inkscape:pageopacity="0"
     inkscape:pageshadow="2"
     inkscape:window-width="1366"
     inkscape:window-height="744"
     id="namedview13437"
     showgrid="false"
     inkscape:zoom="1.3456483"
     inkscape:cx="326.33556"
     inkscape:cy="606.14676"
     inkscape:window-x="0"
     inkscape:window-y="24"
     inkscape:window-maximized="1"
     inkscape:current-layer="Слой_1"
     inkscape:snap-page="true" /><polygon
     points="308,304.4 308,481 359.9,481 359.9,304.4 "
     id="polygon13023-2"
     style="fill:#d6eefd"
     transform="matrix(1,0,0,1.1304486,-0.7935457,323.56753)" /><polygon
     points="371,304.4 371,481 422.9,481 422.9,304.4 "
     id="polygon13027-1"
     style="fill:#d6eefd"
     transform="matrix(1,0,0,1.1304486,-0.7935457,323.56753)" /><polygon
     points="175.6,304.4 175.6,481 227.5,481 227.5,304.4 "
     id="polygon13035-0"
     style="fill:#d6eefd"
     transform="matrix(1,0,0,1.1304486,-0.7935457,323.56753)" /><polygon
     points="238.6,304.4 238.6,481 290.5,481 290.5,304.4 "
     id="polygon13039-1"
     style="fill:#d6eefd"
     transform="matrix(1,0,0,1.1304486,-0.7935457,323.56753)" /><path
     d="m 293.7,375.9648 0,-129.7 c -31.3,1.4 -59.6,14.7 -81,35.8 l 81,93.9 0,0 z"
     id="path13013"
     inkscape:connector-curvature="0"
     style="fill:#d6eefd" /><path
     d="m 300.1,246.1648 0,132.3 84.1,-97.5 c -22.2,-21.4 -51.7,-34.5 -84.1,-34.8 l 0,0 z"
     id="path13015"
     inkscape:connector-curvature="0"
     style="fill:#d6eefd" /><path
     d="m 308.5,378.5648 116.6,0 c 0,-36.3 -13.9,-69.1 -36.4,-93.1 l -80.2,93.1 0,0 z"
     id="path13017"
     inkscape:connector-curvature="0"
     style="fill:#d6eefd" /><path
     d="m 208.3,286.7648 c -21.8,23.8 -35.3,56.2 -35.3,91.8 l 114.5,0 -79.2,-91.8 0,0 z"
     id="path13019"
     inkscape:connector-curvature="0"
     style="fill:#d6eefd" /><polygon
     points="308,294.8 359.9,294.8 359.9,241.4 308,241.4 "
     id="polygon13021"
     style="fill:#d6eefd"
     transform="translate(0,152.1648)" /><polygon
     points="359.9,481 359.9,304.4 308,304.4 308,481 "
     id="polygon13023"
     style="fill:#d6eefd"
     transform="matrix(1,0,0,1.1304486,0,112.45624)" /><polygon
     points="371,294.8 422.9,294.8 422.9,241.4 371,241.4 "
     id="polygon13025"
     style="fill:#d6eefd"
     transform="translate(0,152.1648)" /><polygon
     points="422.9,481 422.9,304.4 371,304.4 371,481 "
     id="polygon13027"
     style="fill:#d6eefd"
     transform="matrix(1,0,0,1.1304486,0,112.45624)" /><polygon
     points="308,495.6 308,672.2 359.9,672.2 359.9,495.6 "
     id="polygon13029"
     style="fill:#d6eefd"
     transform="translate(0,207.90002)" /><polygon
     points="371,495.6 371,672.2 422.9,672.2 422.9,495.6 "
     id="polygon13031"
     style="fill:#d6eefd"
     transform="translate(0,207.90002)" /><polygon
     points="175.6,294.8 227.5,294.8 227.5,241.4 175.6,241.4 "
     id="polygon13033"
     style="fill:#d6eefd"
     transform="translate(0,152.1648)" /><polygon
     points="227.5,481 227.5,304.4 175.6,304.4 175.6,481 "
     id="polygon13035"
     style="fill:#d6eefd"
     transform="matrix(1,0,0,1.1304486,0,112.45624)" /><polygon
     points="238.6,294.8 290.5,294.8 290.5,241.4 238.6,241.4 "
     id="polygon13037"
     style="fill:#d6eefd"
     transform="translate(0,152.1648)" /><polygon
     points="290.5,481 290.5,304.4 238.6,304.4 238.6,481 "
     id="polygon13039"
     style="fill:#d6eefd"
     transform="matrix(1,0,0,1.1304486,0,112.45624)" /><polygon
     points="175.6,495.6 175.6,672.2 227.5,672.2 227.5,495.6 "
     id="polygon13041"
     style="fill:#d6eefd"
     transform="translate(0,207.90002)" /><polygon
     points="238.6,495.6 238.6,672.2 290.5,672.2 290.5,495.6 "
     id="polygon13043"
     style="fill:#d6eefd"
     transform="translate(0,207.90002)" /><path
     d="m 527.3,1111.9 c -1.2,-2 -2,-3.4 -3.1,-5.1 1.2,1.8 2.2,3.4 3.1,5.1 z"
     id="path13083"
     inkscape:connector-curvature="0"
     style="fill:#f8f1e4" /><path
     d="m 550.4,1150.1 c 0,0 0,0 0,0 -0.7,-1.2 -1.5,-2.5 -2.2,-3.7 0.6,1.1 1.3,2.2 2.2,3.7 z"
     id="path13089"
     inkscape:connector-curvature="0"
     style="fill:#f8f1e4" /><path
     d="m 424.5,122.72187 c 0,0 9.9,0.4 0.4,-16.1 0.1,0 -9,16 -0.4,16.1 l 0,0 z"
     id="path13101"
     inkscape:connector-curvature="0"
     style="fill:#fce290" /><path
     d="m 421.9,119.32187 c 0,1.6 1.3,3 2.8,3 1.5,0 2.7,-1.4 2.7,-3 0,-1.6 -1.3,-3 -2.8,-3 -1.5,0.1 -2.7,1.4 -2.7,3 l 0,0 z"
     id="path13103"
     inkscape:connector-curvature="0"
     style="fill:#f9b569" /><polygon
     points="430,159.9 430,125.6 418.5,125.9 418.4,160.2 "
     id="polygon13105"
     style="fill:#fefadc"
     transform="translate(0,-0.17813003)" /><path
     d="m 418.5,125.72187 c 0,1.2 2.6,2.1 5.8,2 3.2,-0.1 5.8,-1.1 5.8,-2.3 0,-1.2 -2.6,-2.1 -5.8,-2 -3.3,0.1 -5.8,1.2 -5.8,2.3 l 0,0 z"
     id="path13107"
     inkscape:connector-curvature="0"
     style="fill:#fefadc" /><path
     d="m 389.4,102.62187 c 0,0 9.9,0.4 0.4,-16.1 0,0 -9,16 -0.4,16.1 l 0,0 z"
     id="path13109"
     inkscape:connector-curvature="0"
     style="fill:#fce290" /><path
     d="m 386.8,99.32187 c 0,1.6 1.3,3 2.8,3 1.5,0 2.7,-1.4 2.7,-3 0,-1.6 -1.3,-3 -2.8,-3 -1.5,0 -2.7,1.3 -2.7,3 l 0,0 z"
     id="path13111"
     inkscape:connector-curvature="0"
     style="fill:#f9b569" /><polygon
     points="394.8,139.8 394.9,105.6 383.4,105.9 383.3,140.1 "
     id="polygon13113"
     style="fill:#fefadc"
     transform="translate(0,-0.17813003)" /><path
     d="m 383.4,105.72187 c 0,1.2 2.6,2.1 5.8,2 3.2,-0.1 5.8,-1.1 5.8,-2.3 0,-1.2 -2.6,-2.1 -5.8,-2 -3.3,0.1 -5.8,1.1 -5.8,2.3 l 0,0 z"
     id="path13115"
     inkscape:connector-curvature="0"
     style="fill:#fefadc" /><path
     d="m 208.8,102.62187 c 0,0 9.9,0.4 0.4,-16.1 0,0 -9,16 -0.4,16.1 l 0,0 z"
     id="path13117"
     inkscape:connector-curvature="0"
     style="fill:#fce290" /><path
     d="m 206.2,99.32187 c 0,1.6 1.3,3 2.8,3 1.5,0 2.7,-1.4 2.7,-3 0,-1.6 -1.3,-3 -2.8,-3 -1.5,0 -2.7,1.3 -2.7,3 l 0,0 z"
     id="path13119"
     inkscape:connector-curvature="0"
     style="fill:#f9b569" /><polygon
     points="214.2,139.8 214.3,105.6 202.7,105.9 202.7,140.1 "
     id="polygon13121"
     style="fill:#fefadc"
     transform="translate(0,-0.17813003)" /><path
     d="m 202.7,105.72187 c 0,1.2 2.6,2.1 5.8,2 3.2,-0.1 5.8,-1.1 5.8,-2.3 0,-1.2 -2.6,-2.1 -5.8,-2 -3.2,0.1 -5.8,1.1 -5.8,2.3 l 0,0 z"
     id="path13123"
     inkscape:connector-curvature="0"
     style="fill:#fefadc" /><path
     d="m 173.7,122.72187 c 0,0 9.9,0.4 0.4,-16.1 0,0 -9,16 -0.4,16.1 l 0,0 z"
     id="path13125"
     inkscape:connector-curvature="0"
     style="fill:#fce290" /><path
     d="m 171.1,119.32187 c 0,1.6 1.3,3 2.8,3 1.5,0 2.7,-1.4 2.7,-3 0,-1.6 -1.3,-3 -2.8,-3 -1.5,0.1 -2.8,1.4 -2.7,3 l 0,0 z"
     id="path13127"
     inkscape:connector-curvature="0"
     style="fill:#f9b569" /><path
     d="m 173.2,124.02187 c -0.1,-0.6 -0.1,-1.2 -0.1,-1.9 0,-0.6 0.1,-1.2 0.4,-1.7 l 0.7,-0.1 0.1,0.7 c -0.1,0.2 -0.2,0.6 -0.2,1.2 0,0.6 0.1,1.2 0.1,1.8 0,0.3 -0.2,0.5 -0.4,0.5 l -0.1,0 c -0.2,-0.1 -0.4,-0.3 -0.5,-0.5 l 0,0 z"
     id="path13129"
     inkscape:connector-curvature="0"
     style="fill:#858365" /><polygon
     points="179.1,159.9 179.2,125.6 167.6,125.9 167.6,160.2 "
     id="polygon13131"
     style="fill:#fefadc"
     transform="translate(0,-0.17813003)" /><path
     d="m 356.8,77.62187 c 0,0 9.9,0.4 0.4,-16.1 0,-0.1 -9,15.9 -0.4,16.1 l 0,0 z"
     id="path13133"
     inkscape:connector-curvature="0"
     style="fill:#fce290" /><path
     d="m 354.2,74.22187 c 0,1.6 1.3,3 2.8,3 1.5,0 2.7,-1.4 2.7,-3 0,-1.6 -1.3,-3 -2.8,-3 -1.5,0 -2.7,1.3 -2.7,3 l 0,0 z"
     id="path13135"
     inkscape:connector-curvature="0"
     style="fill:#f9b569" /><polygon
     points="362.2,114.7 362.3,80.5 350.7,80.8 350.7,115 "
     id="polygon13137"
     style="fill:#fefadc"
     transform="translate(0,-0.17813003)" /><path
     d="m 350.7,80.62187 c 0,1.2 2.6,2.1 5.8,2 3.2,-0.1 5.8,-1.1 5.8,-2.3 0,-1.2 -2.6,-2.1 -5.8,-2 -3.2,0.1 -5.8,1.1 -5.8,2.3 l 0,0 z"
     id="path13139"
     inkscape:connector-curvature="0"
     style="fill:#fefadc" /><path
     d="m 241.4,77.62187 c 0,0 9.9,0.4 0.4,-16.1 0,-0.1 -9,15.9 -0.4,16.1 l 0,0 z"
     id="path13141"
     inkscape:connector-curvature="0"
     style="fill:#fce290" /><path
     d="m 238.8,74.22187 c 0,1.6 1.3,3 2.8,3 1.5,0 2.7,-1.4 2.7,-3 0,-1.6 -1.3,-3 -2.8,-3 -1.5,0 -2.7,1.3 -2.7,3 l 0,0 z"
     id="path13143"
     inkscape:connector-curvature="0"
     style="fill:#f9b569" /><polygon
     points="246.8,114.7 246.9,80.5 235.3,80.8 235.3,115 "
     id="polygon13145"
     style="fill:#fefadc"
     transform="translate(0,-0.17813003)" /><path
     d="m 235.3,80.62187 c 0,1.2 2.6,2.1 5.8,2 3.2,-0.1 5.8,-1.1 5.8,-2.3 0,-1.2 -2.6,-2.1 -5.8,-2 -3.2,0.1 -5.8,1.1 -5.8,2.3 l 0,0 z"
     id="path13147"
     inkscape:connector-curvature="0"
     style="fill:#fefadc" /><path
     d="m 215.7,202.72187 -0.4,-0.4 c -2.6,2.1 -6.2,3.4 -11.4,3.4 -7.5,0 -13.7,-2.5 -18.3,-7.3 -9,-9.4 -10.3,-25.5 -10.4,-31.9 5.6,-0.6 8.5,-3.6 9.7,-5.4 l 3.4,0 c 1.2,0 2.1,-1 2.1,-2.1 0,-1.2 -1,-2.1 -2.1,-2.1 l -30.5,0 c -1.2,0 -2.1,1 -2.1,2.1 0,1.2 1,2.1 2.1,2.1 l 3.4,0 c 1.2,1.8 4.1,4.7 9.6,5.4 0.1,6.9 1.5,24.2 11.6,34.8 5.5,5.8 12.7,8.7 21.4,8.7 6.8,0 11.4,-1.8 14.6,-4.6 -0.9,-0.9 -1.8,-1.8 -2.7,-2.7 l 0,0 z m 223.1,-46 -30.5,0 c -1.2,0 -2.1,1 -2.1,2.1 0,1.2 1,2.1 2.1,2.1 l 3.4,0 c 1.2,1.8 4.1,4.8 9.7,5.4 -0.1,6.4 -1.4,22.4 -10.4,31.9 -4.6,4.9 -10.8,7.3 -18.3,7.3 -5.2,0 -8.8,-1.3 -11.4,-3.4 l -0.4,0.4 c -0.9,0.9 -1.8,1.8 -2.8,2.6 3.2,2.8 7.9,4.6 14.6,4.6 8.7,0 15.9,-2.9 21.4,-8.7 10.2,-10.7 11.5,-28 11.6,-34.8 5.6,-0.6 8.4,-3.6 9.6,-5.4 l 3.4,0 c 1.2,0 2.1,-1 2.1,-2.1 0.2,-1 -0.8,-2 -2,-2 l 0,0 z m -246.3,-16.8 3.4,0 c 1.2,1.8 4.1,4.7 9.7,5.4 l 0,18.3 c 0,0.9 -1,24.4 11.6,37.7 5.5,5.8 12.7,8.7 21.4,8.7 18.1,0 20.8,-12.8 23.1,-24.1 2.4,-11.5 4.5,-21.4 20,-21.4 l 11.7,0 c -0.4,0 -0.8,0.5 -0.8,1.1 0,0.6 0.3,1.1 0.8,1.1 l 0,0 c -3.1,1.7 -5.2,4.9 -5.2,8.7 0,3.8 2.1,7 5.2,8.7 -0.4,0 -0.8,0.5 -0.8,1.1 0,0.6 0.3,1.1 0.8,1.1 l 0,0 c -1.3,0.7 -2.4,1.7 -3.3,2.9 -3.6,-8.4 -4.4,-17.9 -4.5,-22.5 l -4,0 -0.3,0 c 0.1,5.3 0.9,16.4 5.7,26.1 l -4.7,0 c -5,-8.9 -6.1,-20 -6.2,-25.5 -1.6,0.4 -3.1,0.9 -4.2,1.7 0.3,5.8 1.5,15.4 5.6,23.8 l -9.2,0 c 0,14.5 10.8,19.8 19.3,21.6 -6.4,1.3 -13.5,4.6 -13.5,12.2 l 23.9,0.1 23.9,-0.1 c 0,-7.6 -7,-10.8 -13.5,-12.2 8.6,-1.9 19.3,-7.1 19.3,-21.6 l -9.2,0 c 4.2,-8.5 5.4,-18 5.6,-23.8 -1.2,-0.7 -2.6,-1.3 -4.2,-1.7 -0.2,5.5 -1.2,16.6 -6.2,25.5 l -4.7,0 c 4.8,-9.7 5.6,-20.8 5.7,-26.1 l -0.3,0 -4,0 c -0.1,4.6 -0.8,14 -4.5,22.5 -0.9,-1.2 -2,-2.2 -3.3,-2.9 l 0,0 c 0.4,0 0.8,-0.5 0.8,-1.1 0,-0.6 -0.3,-1.1 -0.8,-1.1 3.1,-1.7 5.2,-4.9 5.2,-8.7 0,-3.8 -2.1,-7 -5.2,-8.7 l 0,0 c 0.4,0 0.8,-0.5 0.8,-1.1 0,-0.6 -0.3,-1.1 -0.8,-1.1 l 11.7,0 c 15.6,0 17.6,9.9 20,21.4 2.4,11.3 5,24.1 23.1,24.1 8.7,0 15.9,-2.9 21.4,-8.7 12.6,-13.2 11.6,-36.8 11.6,-37.7 l 0,-18.3 c 5.6,-0.6 8.5,-3.6 9.7,-5.4 l 3.4,0 c 1.2,0 2.1,-1 2.1,-2.1 0,-1.2 -1,-2.1 -2.1,-2.1 l -30.5,0 c -1.2,0 -2.1,1 -2.1,2.1 0,1.2 1,2.1 2.1,2.1 l 3.4,0 c 1.2,1.8 4.1,4.7 9.7,5.4 l 0,18.4 c 0,0.2 0.9,22.7 -10.4,34.6 -4.6,4.9 -10.8,7.3 -18.3,7.3 -14.6,0 -16.6,-9.6 -18.9,-20.7 -1.6,-7.5 -3.3,-15.7 -9.4,-20.5 l 20,0 c 15.6,0 17.6,9.9 20,21.4 0.9,4.2 1.8,8.6 3.5,12.5 0.5,-0.5 1,-0.9 1.5,-1.5 0.6,-0.6 1.2,-1.3 1.7,-2 -1.1,-3 -1.8,-6.4 -2.5,-9.9 -2.4,-11.6 -5.2,-24.8 -24.2,-24.8 l -35.4,0 c 1.4,-2.8 5.6,-7.1 18.2,-7.1 7.2,0 13,-2.4 17.4,-7.1 7,-7.6 8.3,-19.3 8.4,-25.5 5.5,-0.6 8.4,-3.6 9.6,-5.4 l 3.4,0 c 1.2,0 2.1,-1 2.1,-2.1 0,-1.1 -1,-2.1 -2.1,-2.1 l -30.5,0 c -1.2,0 -2.1,1 -2.1,2.1 0,1.1 1,2.1 2.1,2.1 l 3.4,0 c 1.2,1.8 4.1,4.8 9.7,5.4 -0.1,5.6 -1.3,16.1 -7.3,22.6 -3.5,3.8 -8.3,5.7 -14.2,5.7 -14.3,0 -19.7,5.1 -21.9,9.1 -1.3,-3.4 -3.9,-6.2 -7.3,-7.6 0.3,-0.1 0.5,-0.5 0.5,-1 0,-0.6 -0.3,-1.1 -0.8,-1.1 l 0,0 c 3.1,-1.7 5.2,-4.9 5.2,-8.7 0,-0.3 0,-0.5 0,-0.8 0.4,0.4 0.9,0.6 1.5,0.6 1.2,0 2.2,-1 2.2,-2.2 0,-1.2 -1,-2.2 -2.2,-2.2 -0.9,0 -1.7,0.6 -2,1.4 -0.8,-2.4 -2.5,-4.4 -4.7,-5.6 l 0,0 c 0.4,0 0.8,-0.5 0.8,-1.1 0,-0.6 -0.3,-1.1 -0.8,-1.1 l 0,0 c 3.1,-1.7 5.2,-4.9 5.2,-8.7 0,-3.8 -2.1,-7 -5.2,-8.7 l 0,0 c 0.4,0 0.8,-0.5 0.8,-1.1 0,-0.6 -0.3,-1.1 -0.8,-1.1 l 0,0 c 3.1,-1.7 5.2,-4.9 5.2,-8.7 0,-3.8 -2.1,-7 -5.2,-8.7 l 0,0 c 0.4,0 0.8,-0.5 0.8,-1.1 0,-0.6 -0.3,-1.1 -0.8,-1.1 l 0,0 c 3.1,-1.7 5.2,-4.9 5.2,-8.7 0,-3.8 -2.1,-7 -5.2,-8.7 l 0,0 c 0.4,0 0.8,-0.5 0.8,-1.1 0,-0.6 0.3,-0.9 -0.1,-0.9 l 0,0 c 3.1,-1.7 5.2,-4.9 5.2,-8.7 0,-3.8 -2.1,-7 -5.2,-8.7 l 0,0 c 0.4,0 0.8,-0.5 0.8,-1.1 0,-0.6 -0.3,-1.1 -0.8,-1.1 l 0,0 c 3.1,-1.7 5.2,-4.9 5.2,-8.7 0,-3.8 -2.1,-7 -5.2,-8.7 l 0,0 c 0.4,0 0.8,-0.5 0.8,-1.1 0,-0.6 -0.3,-1.1 -0.8,-1.1 l -3.3,0 c 1.9,-0.6 3.3,-2.4 3.3,-4.5 0,-0.5 -0.1,-1.1 -0.3,-1.5 1.8,-1.4 2.9,-3.5 2.9,-5.9 0,-2.3 -1.1,-4.4 -2.8,-5.8 6.9,-0.5 19.3,-2.9 19.3,-13.00000003 l -23.8,-0.1 -23.9,0.1 C 274.4,10.02187 286.7,12.42187 293.7,12.92187 c -1.7,1.4 -2.8,3.4 -2.8,5.8 0,2.4 1.2,4.5 2.9,5.9 -0.2,0.5 -0.3,1 -0.3,1.5 0,2.1 1.4,3.9 3.3,4.5 l -3.3,0 c -0.4,0 -0.8,0.5 -0.8,1.1 0,0.6 0.3,1.1 0.8,1.1 l 0,0 c -3.1,1.7 -5.2,4.9 -5.2,8.7 0,3.8 2.1,7 5.2,8.7 l 0,0 c -0.4,0 -0.8,0.5 -0.8,1.1 0,0.6 0.3,1.1 0.8,1.1 l 0,0 c -3.1,1.7 -5.2,4.9 -5.2,8.7 0,3.8 2.1,7 5.2,8.7 l 0,0 c -0.4,0 -0.8,0.5 -0.8,1.1 0,0.6 0.3,1.1 0.8,1.1 l 0,0 c -3.1,1.7 -5.2,4.9 -5.2,8.7 0,3.8 2.1,7 5.2,8.7 l 0,0 c -0.4,0 -0.8,0.5 -0.8,1.1 0,0.6 0.3,1.1 0.8,1.1 l 0,0 c -3.1,1.7 -5.2,4.9 -5.2,8.7 0,3.8 2.1,7 5.2,8.7 l 0,0 c -0.4,0 -0.8,0.5 -0.8,1.1 0,0.6 0.3,1.1 0.8,1.1 l 0,0 c -3.1,1.7 -5.2,4.9 -5.2,8.7 0,3.8 2.1,7 5.2,8.7 l 0,0 c -0.4,0 -0.8,0.5 -0.8,1.1 0,0.6 0.3,1.1 0.8,1.1 l 0,0 c -2.2,1.2 -3.9,3.2 -4.7,5.5 -0.3,-0.8 -1.1,-1.4 -2,-1.4 -1.2,0 -2.2,1 -2.2,2.2 0,1.2 1,2.2 2.2,2.2 0.6,0 1.1,-0.2 1.5,-0.6 0,0.3 0,0.5 0,0.8 0,3.8 2.1,7 5.2,8.7 l 0,0 c -0.4,0 -0.8,0.5 -0.8,1.1 0,0.5 0.2,0.9 0.5,1 -3.4,1.4 -6,4.1 -7.3,7.6 -2.1,-3.9 -7.6,-9.1 -21.9,-9.1 -5.9,0 -10.7,-1.9 -14.2,-5.7 -6,-6.5 -7.1,-17 -7.3,-22.6 5.6,-0.6 8.5,-3.6 9.7,-5.4 l 3.4,0 c 1.2,0 2.1,-1 2.1,-2.1 0,-1.1 -1,-2.1 -2.1,-2.1 l -30.5,0 c -1.2,0 -2.1,1 -2.1,2.1 0,1.1 1,2.1 2.1,2.1 l 3.4,0 c 1.2,1.8 4.1,4.7 9.6,5.4 0.1,6.2 1.4,17.9 8.4,25.5 4.4,4.7 10.2,7.1 17.4,7.1 12.7,0 16.9,4.4 18.3,7.1 l -35.2,0 c -19.1,0 -21.8,13.2 -24.2,24.8 -0.7,3.6 -1.5,7 -2.6,9.9 0.5,0.7 1.1,1.3 1.7,2 0.5,0.5 1,1 1.5,1.5 1.7,-3.9 2.7,-8.3 3.5,-12.5 2.4,-11.5 4.5,-21.4 20,-21.4 l 20,0 c -6.2,4.8 -7.9,13 -9.4,20.5 -2.3,11.1 -4.3,20.7 -18.9,20.7 -7.5,0 -13.7,-2.5 -18.3,-7.3 -11.4,-11.9 -10.4,-34.4 -10.4,-34.6 l 0,-18.4 c 5.6,-0.6 8.5,-3.6 9.7,-5.4 l 3.4,0 c 1.2,0 2.1,-1 2.1,-2.1 0,-1.2 -1,-2.1 -2.1,-2.1 l -30.5,0 c -1.2,0 -2.1,1 -2.1,2.1 0,1 0.9,2 2.1,2 l 0,0 z"
     id="path13149"
     inkscape:connector-curvature="0"
     style="fill:#655241" /><path
     d="m 247.6,253.02187 c 0,5.3 4.5,4.9 4.5,4.9 0,0 4.5,0.4 4.5,-4.9 0,-5.3 -4.5,-10.6 -4.5,-10.6 0,0 -4.5,5.3 -4.5,10.6 l 0,0 z"
     id="path13151"
     inkscape:connector-curvature="0"
     style="fill:#fdfbe8" /><path
     d="m 252.1,237.02187 c -1.2,0 -2.2,1 -2.2,2.2 0,1.2 1,2.2 2.2,2.2 1.2,0 2.2,-1 2.2,-2.2 0,-1.2 -1,-2.2 -2.2,-2.2 l 0,0 z"
     id="path13153"
     inkscape:connector-curvature="0"
     style="fill:#fdfbe8" /><path
     d="m 233.4,227.62187 c 0,-1.2 -1,-2.2 -2.2,-2.2 -1.2,0 -2.2,1 -2.2,2.2 0,1.2 1,2.2 2.2,2.2 1.2,-0.1 2.2,-1 2.2,-2.2 l 0,0 z"
     id="path13155"
     inkscape:connector-curvature="0"
     style="fill:#fdfbe8" /><path
     d="m 231.3,245.02187 c 0,5.3 4.5,4.9 4.5,4.9 0,0 4.5,0.4 4.5,-4.9 0,-5.3 -4.5,-10.6 -4.5,-10.6 0,0 -4.5,5.3 -4.5,10.6 l 0,0 z"
     id="path13157"
     inkscape:connector-curvature="0"
     style="fill:#fdfbe8" /><path
     d="m 233.6,231.22187 c 0,1.2 1,2.2 2.2,2.2 1.2,0 2.2,-1 2.2,-2.2 0,-1.2 -1,-2.2 -2.2,-2.2 -1.2,0 -2.2,1 -2.2,2.2 l 0,0 z"
     id="path13159"
     inkscape:connector-curvature="0"
     style="fill:#fdfbe8" /><path
     d="m 267.2,237.22187 c 0,1.2 1,2.2 2.2,2.2 1.2,0 2.2,-1 2.2,-2.2 0,-1.2 -1,-2.2 -2.2,-2.2 -1.2,0 -2.2,1 -2.2,2.2 l 0,0 z"
     id="path13161"
     inkscape:connector-curvature="0"
     style="fill:#fdfbe8" /><path
     d="m 218.8,212.42187 c -1.2,0 -2.2,1 -2.2,2.2 0,1.2 1,2.2 2.2,2.2 1.2,0 2.2,-1 2.2,-2.2 0,-1.2 -1,-2.2 -2.2,-2.2 l 0,0 z"
     id="path13163"
     inkscape:connector-curvature="0"
     style="fill:#fdfbe8" /><path
     d="m 248.7,237.42187 c 0,-1.2 -1,-2.2 -2.2,-2.2 -1.2,0 -2.2,1 -2.2,2.2 0,1.2 1,2.2 2.2,2.2 1.2,0 2.2,-1 2.2,-2.2 l 0,0 z"
     id="path13165"
     inkscape:connector-curvature="0"
     style="fill:#fdfbe8" /><path
     d="m 240.9,232.42187 c -1.2,0 -2.2,1 -2.2,2.2 0,1.2 1,2.2 2.2,2.2 1.2,0 2.2,-1 2.2,-2.2 0,-1.2 -0.9,-2.2 -2.2,-2.2 l 0,0 z"
     id="path13167"
     inkscape:connector-curvature="0"
     style="fill:#fdfbe8" /><path
     d="m 227,221.42187 c -1.2,0 -2.2,1 -2.2,2.2 0,1.2 1,2.2 2.2,2.2 1.2,0 2.2,-1 2.2,-2.2 0,-1.2 -1,-2.2 -2.2,-2.2 l 0,0 z"
     id="path13169"
     inkscape:connector-curvature="0"
     style="fill:#fdfbe8" /><path
     d="m 222.9,217.12187 c -1.2,0 -2.2,1 -2.2,2.2 0,1.2 1,2.2 2.2,2.2 1.2,0 2.2,-1 2.2,-2.2 0,-1.2 -1,-2.2 -2.2,-2.2 l 0,0 z"
     id="path13171"
     inkscape:connector-curvature="0"
     style="fill:#fdfbe8" /><path
     d="m 257.9,237.72187 c -1.2,0 -2.2,1 -2.2,2.2 0,1.2 1,2.2 2.2,2.2 1.2,0 2.2,-1 2.2,-2.2 0,-1.2 -1,-2.2 -2.2,-2.2 l 0,0 z"
     id="path13173"
     inkscape:connector-curvature="0"
     style="fill:#fdfbe8" /><path
     d="m 266,239.32187 c 0,-1.2 -1,-2.2 -2.2,-2.2 -1.2,0 -2.2,1 -2.2,2.2 0,1.2 1,2.2 2.2,2.2 1.2,0 2.2,-1 2.2,-2.2 l 0,0 z"
     id="path13175"
     inkscape:connector-curvature="0"
     style="fill:#fdfbe8" /><path
     d="m 278.7,228.02187 c -1.2,0 -2.2,1 -2.2,2.2 0,1.2 1,2.2 2.2,2.2 1.2,0 2.2,-1 2.2,-2.2 0,-1.3 -1,-2.2 -2.2,-2.2 l 0,0 z"
     id="path13177"
     inkscape:connector-curvature="0"
     style="fill:#fdfbe8" /><path
     d="m 298.3,251.62187 c -1.2,0 -2.2,1 -2.2,2.2 0,1.2 1,2.2 2.2,2.2 1.2,0 2.2,-1 2.2,-2.2 0,-1.2 -1,-2.2 -2.2,-2.2 l 0,0 z"
     id="path13179"
     inkscape:connector-curvature="0"
     style="fill:#fdfbe8" /><path
     d="m 298.3,245.72187 c -1.2,0 -2.2,1 -2.2,2.2 0,1.2 1,2.2 2.2,2.2 1.2,0 2.2,-1 2.2,-2.2 0,-1.2 -1,-2.2 -2.2,-2.2 l 0,0 z"
     id="path13181"
     inkscape:connector-curvature="0"
     style="fill:#fdfbe8" /><path
     d="m 298.3,239.82187 c -1.2,0 -2.2,1 -2.2,2.2 0,1.2 1,2.2 2.2,2.2 1.2,0 2.2,-1 2.2,-2.2 0,-1.2 -1,-2.2 -2.2,-2.2 l 0,0 z"
     id="path13183"
     inkscape:connector-curvature="0"
     style="fill:#fdfbe8" /><path
     d="m 298.3,233.92187 c -1.2,0 -2.2,1 -2.2,2.2 0,1.2 1,2.2 2.2,2.2 1.2,0 2.2,-1 2.2,-2.2 0,-1.3 -1,-2.2 -2.2,-2.2 l 0,0 z"
     id="path13185"
     inkscape:connector-curvature="0"
     style="fill:#fdfbe8" /><path
     d="m 298.3,228.02187 c -1.2,0 -2.2,1 -2.2,2.2 0,1.2 1,2.2 2.2,2.2 1.2,0 2.2,-1 2.2,-2.2 0,-1.3 -1,-2.2 -2.2,-2.2 l 0,0 z"
     id="path13187"
     inkscape:connector-curvature="0"
     style="fill:#fdfbe8" /><path
     d="m 274.4,231.92187 c -1.2,0 -2.2,1 -2.2,2.2 0,1.2 1,2.2 2.2,2.2 1.2,0 2.2,-1 2.2,-2.2 0,-1.3 -1,-2.2 -2.2,-2.2 l 0,0 z"
     id="path13189"
     inkscape:connector-curvature="0"
     style="fill:#fdfbe8" /><path
     d="m 339.9,253.02187 c 0,5.3 4.5,4.9 4.5,4.9 0,0 4.5,0.4 4.5,-4.9 0,-5.3 -4.5,-10.6 -4.5,-10.6 0,0 -4.5,5.3 -4.5,10.6 l 0,0 z"
     id="path13191"
     inkscape:connector-curvature="0"
     style="fill:#fdfbe8" /><path
     d="m 342.2,239.22187 c 0,1.2 1,2.2 2.2,2.2 1.2,0 2.2,-1 2.2,-2.2 0,-1.2 -1,-2.2 -2.2,-2.2 -1.2,0 -2.2,1 -2.2,2.2 l 0,0 z"
     id="path13193"
     inkscape:connector-curvature="0"
     style="fill:#fdfbe8" /><path
     d="m 365.3,225.42187 c -1.2,0 -2.2,1 -2.2,2.2 0,1.2 1,2.2 2.2,2.2 1.2,0 2.2,-1 2.2,-2.2 0,-1.3 -1,-2.2 -2.2,-2.2 l 0,0 z"
     id="path13195"
     inkscape:connector-curvature="0"
     style="fill:#fdfbe8" /><path
     d="m 356.3,245.02187 c 0,5.3 4.5,4.9 4.5,4.9 0,0 4.5,0.4 4.5,-4.9 0,-5.3 -4.5,-10.6 -4.5,-10.6 0,0 -4.5,5.3 -4.5,10.6 l 0,0 z"
     id="path13197"
     inkscape:connector-curvature="0"
     style="fill:#fdfbe8" /><path
     d="m 358.6,231.22187 c 0,1.2 1,2.2 2.2,2.2 1.2,0 2.2,-1 2.2,-2.2 0,-1.2 -1,-2.2 -2.2,-2.2 -1.3,0 -2.2,1 -2.2,2.2 l 0,0 z"
     id="path13199"
     inkscape:connector-curvature="0"
     style="fill:#fdfbe8" /><path
     d="m 322.7,251.02187 c 0,5.3 4.5,4.9 4.5,4.9 0,0 4.5,0.4 4.5,-4.9 0,-5.3 -4.5,-10.6 -4.5,-10.6 0,0 -4.5,5.3 -4.5,10.6 l 0,0 z"
     id="path13201"
     inkscape:connector-curvature="0"
     style="fill:#fdfbe8" /><path
     d="m 293.8,268.32187 c 0,5.3 4.5,4.9 4.5,4.9 0,0 4.5,0.4 4.5,-4.9 0,-5.3 -4.5,-10.6 -4.5,-10.6 0,0 -4.5,5.3 -4.5,10.6 l 0,0 z"
     id="path13203"
     inkscape:connector-curvature="0"
     style="fill:#fdfbe8" /><path
     d="m 308.5,239.82187 c -1.2,0 -2.2,1 -2.2,2.2 0,1.2 1,2.2 2.2,2.2 1.2,0 2.2,-1 2.2,-2.2 0,-1.2 -1,-2.2 -2.2,-2.2 l 0,0 z"
     id="path13205"
     inkscape:connector-curvature="0"
     style="fill:#fdfbe8" /><path
     d="m 308.5,233.92187 c -1.2,0 -2.2,1 -2.2,2.2 0,1.2 1,2.2 2.2,2.2 1.2,0 2.2,-1 2.2,-2.2 0,-1.3 -1,-2.2 -2.2,-2.2 l 0,0 z"
     id="path13207"
     inkscape:connector-curvature="0"
     style="fill:#fdfbe8" /><path
     d="m 308.5,228.02187 c -1.2,0 -2.2,1 -2.2,2.2 0,1.2 1,2.2 2.2,2.2 1.2,0 2.2,-1 2.2,-2.2 0,-1.3 -1,-2.2 -2.2,-2.2 l 0,0 z"
     id="path13209"
     inkscape:connector-curvature="0"
     style="fill:#fdfbe8" /><path
     d="m 304,256.52187 c 0,5.3 4.5,4.9 4.5,4.9 0,0 4.5,0.4 4.5,-4.9 0,-5.3 -4.5,-10.6 -4.5,-10.6 0,0 -4.5,5.3 -4.5,10.6 l 0,0 z"
     id="path13211"
     inkscape:connector-curvature="0"
     style="fill:#fdfbe8" /><path
     d="m 288,228.02187 c -1.2,0 -2.2,1 -2.2,2.2 0,1.2 1,2.2 2.2,2.2 1.2,0 2.2,-1 2.2,-2.2 0,-1.3 -1,-2.2 -2.2,-2.2 l 0,0 z"
     id="path13213"
     inkscape:connector-curvature="0"
     style="fill:#fdfbe8" /><path
     d="m 288,233.92187 c -1.2,0 -2.2,1 -2.2,2.2 0,1.2 1,2.2 2.2,2.2 1.2,0 2.2,-1 2.2,-2.2 0,-1.3 -1,-2.2 -2.2,-2.2 l 0,0 z"
     id="path13215"
     inkscape:connector-curvature="0"
     style="fill:#fdfbe8" /><path
     d="m 283.5,256.52187 c 0,5.3 4.5,4.9 4.5,4.9 0,0 4.5,0.4 4.5,-4.9 0,-5.3 -4.5,-10.6 -4.5,-10.6 0,0 -4.5,5.3 -4.5,10.6 l 0,0 z"
     id="path13217"
     inkscape:connector-curvature="0"
     style="fill:#fdfbe8" /><path
     d="m 288,239.82187 c -1.2,0 -2.2,1 -2.2,2.2 0,1.2 1,2.2 2.2,2.2 1.2,0 2.2,-1 2.2,-2.2 0,-1.2 -1,-2.2 -2.2,-2.2 l 0,0 z"
     id="path13219"
     inkscape:connector-curvature="0"
     style="fill:#fdfbe8" /><path
     d="m 325,237.22187 c 0,1.2 1,2.2 2.2,2.2 1.2,0 2.2,-1 2.2,-2.2 0,-1.2 -1,-2.2 -2.2,-2.2 -1.3,0 -2.2,1 -2.2,2.2 l 0,0 z"
     id="path13221"
     inkscape:connector-curvature="0"
     style="fill:#fdfbe8" /><path
     d="m 377.7,212.42187 c -1.2,0 -2.2,1 -2.2,2.2 0,1.2 1,2.2 2.2,2.2 1.2,0 2.2,-1 2.2,-2.2 0,-1.2 -1,-2.2 -2.2,-2.2 l 0,0 z"
     id="path13223"
     inkscape:connector-curvature="0"
     style="fill:#fdfbe8" /><path
     d="m 350,235.22187 c -1.2,0 -2.2,1 -2.2,2.2 0,1.2 1,2.2 2.2,2.2 1.2,0 2.2,-1 2.2,-2.2 0,-1.2 -1,-2.2 -2.2,-2.2 l 0,0 z"
     id="path13225"
     inkscape:connector-curvature="0"
     style="fill:#fdfbe8" /><path
     d="m 357.8,234.62187 c 0,-1.2 -1,-2.2 -2.2,-2.2 -1.2,0 -2.2,1 -2.2,2.2 0,1.2 1,2.2 2.2,2.2 1.2,0 2.2,-1 2.2,-2.2 l 0,0 z"
     id="path13227"
     inkscape:connector-curvature="0"
     style="fill:#fdfbe8" /><path
     d="m 369.6,221.42187 c -1.2,0 -2.2,1 -2.2,2.2 0,1.2 1,2.2 2.2,2.2 1.2,0 2.2,-1 2.2,-2.2 0,-1.2 -1,-2.2 -2.2,-2.2 l 0,0 z"
     id="path13229"
     inkscape:connector-curvature="0"
     style="fill:#fdfbe8" /><path
     d="m 373.7,217.12187 c -1.2,0 -2.2,1 -2.2,2.2 0,1.2 1,2.2 2.2,2.2 1.2,0 2.2,-1 2.2,-2.2 0,-1.2 -1,-2.2 -2.2,-2.2 l 0,0 z"
     id="path13231"
     inkscape:connector-curvature="0"
     style="fill:#fdfbe8" /><path
     d="m 340.9,239.92187 c 0,-1.2 -1,-2.2 -2.2,-2.2 -1.2,0 -2.2,1 -2.2,2.2 0,1.2 1,2.2 2.2,2.2 1.2,0 2.2,-1 2.2,-2.2 l 0,0 z"
     id="path13233"
     inkscape:connector-curvature="0"
     style="fill:#fdfbe8" /><path
     d="m 332.8,237.12187 c -1.2,0 -2.2,1 -2.2,2.2 0,1.2 1,2.2 2.2,2.2 1.2,0 2.2,-1 2.2,-2.2 0,-1.3 -1,-2.2 -2.2,-2.2 l 0,0 z"
     id="path13235"
     inkscape:connector-curvature="0"
     style="fill:#fdfbe8" /><path
     d="m 317.9,228.02187 c -1.2,0 -2.2,1 -2.2,2.2 0,1.2 1,2.2 2.2,2.2 1.2,0 2.2,-1 2.2,-2.2 0,-1.3 -1,-2.2 -2.2,-2.2 l 0,0 z"
     id="path13237"
     inkscape:connector-curvature="0"
     style="fill:#fdfbe8" /><path
     d="m 324.4,234.12187 c 0,-1.2 -1,-2.2 -2.2,-2.2 -1.2,0 -2.2,1 -2.2,2.2 0,1.2 1,2.2 2.2,2.2 1.2,0 2.2,-1 2.2,-2.2 l 0,0 z"
     id="path13239"
     inkscape:connector-curvature="0"
     style="fill:#fdfbe8" /><path
     d="m 264.9,251.02187 c 0,5.3 4.5,4.9 4.5,4.9 0,0 4.5,0.4 4.5,-4.9 0,-5.3 -4.5,-10.6 -4.5,-10.6 0,0 -4.5,5.3 -4.5,10.6 l 0,0 z"
     id="path13241"
     inkscape:connector-curvature="0"
     style="fill:#fdfbe8" /><path
     d="m 285.5,17.62187 c 1.2,0 2.2,-1 2.2,-2.2 0,-1.2 -1,-2.2 -2.2,-2.2 -1.2,0 -2.2,1 -2.2,2.2 0,1.2 0.9,2.2 2.2,2.2 l 0,0 z"
     id="path13243"
     inkscape:connector-curvature="0"
     style="fill:#fdfbe8" /><path
     d="m 285.4,23.32187 c 1.2,0 2.2,-1 2.2,-2.2 0,-1.2 -1,-2.2 -2.2,-2.2 -1.2,0 -2.2,1 -2.2,2.2 0,1.3 1,2.2 2.2,2.2 l 0,0 z"
     id="path13245"
     inkscape:connector-curvature="0"
     style="fill:#fdfbe8" /><path
     d="m 285.4,29.12187 c 1.2,0 2.2,-1 2.2,-2.2 0,-1.2 -1,-2.2 -2.2,-2.2 -1.2,0 -2.2,1 -2.2,2.2 0,1.2 1,2.2 2.2,2.2 l 0,0 z"
     id="path13247"
     inkscape:connector-curvature="0"
     style="fill:#fdfbe8" /><path
     d="m 285.2,34.92187 c 1.2,0 2.2,-1 2.2,-2.2 0,-1.2 -1,-2.2 -2.2,-2.2 -1.2,0 -2.2,1 -2.2,2.2 0.1,1.2 1,2.2 2.2,2.2 l 0,0 z"
     id="path13249"
     inkscape:connector-curvature="0"
     style="fill:#fdfbe8" /><path
     d="m 285.1,40.62187 c 1.2,0 2.2,-1 2.2,-2.2 0,-1.2 -1,-2.2 -2.2,-2.2 -1.2,0 -2.2,1 -2.2,2.2 0,1.3 1,2.2 2.2,2.2 l 0,0 z"
     id="path13251"
     inkscape:connector-curvature="0"
     style="fill:#fdfbe8" /><path
     d="m 284.7,46.42187 c 1.2,0 2.2,-1 2.2,-2.2 0,-1.2 -1,-2.2 -2.2,-2.2 -1.2,0 -2.2,1 -2.2,2.2 0,1.2 1,2.2 2.2,2.2 l 0,0 z"
     id="path13253"
     inkscape:connector-curvature="0"
     style="fill:#fdfbe8" /><path
     d="m 284.6,52.22187 c 1.2,0 2.2,-1 2.2,-2.2 0,-1.2 -1,-2.2 -2.2,-2.2 -1.2,0 -2.2,1 -2.2,2.2 0,1.2 1,2.2 2.2,2.2 l 0,0 z"
     id="path13255"
     inkscape:connector-curvature="0"
     style="fill:#fdfbe8" /><path
     d="m 284.3,57.92187 c 1.2,0 2.2,-1 2.2,-2.2 0,-1.2 -1,-2.2 -2.2,-2.2 -1.2,0 -2.2,1 -2.2,2.2 0,1.2 1,2.2 2.2,2.2 l 0,0 z"
     id="path13257"
     inkscape:connector-curvature="0"
     style="fill:#fdfbe8" /><path
     d="m 284,63.72187 c 1.2,0 2.2,-1 2.2,-2.2 0,-1.2 -1,-2.2 -2.2,-2.2 -1.2,0 -2.2,1 -2.2,2.2 0,1.2 1,2.2 2.2,2.2 l 0,0 z"
     id="path13259"
     inkscape:connector-curvature="0"
     style="fill:#fdfbe8" /><path
     d="m 283.5,69.52187 c 1.2,0 2.2,-1 2.2,-2.2 0,-1.2 -1,-2.2 -2.2,-2.2 -1.2,0 -2.2,1 -2.2,2.2 0,1.2 1,2.2 2.2,2.2 l 0,0 z"
     id="path13261"
     inkscape:connector-curvature="0"
     style="fill:#fdfbe8" /><path
     d="m 283,75.22187 c 1.2,0 2.2,-1 2.2,-2.2 0,-1.2 -1,-2.2 -2.2,-2.2 -1.2,0 -2.2,1 -2.2,2.2 0,1.2 1,2.2 2.2,2.2 l 0,0 z"
     id="path13263"
     inkscape:connector-curvature="0"
     style="fill:#fdfbe8" /><path
     d="m 282.5,81.02187 c 1.2,0 2.2,-1 2.2,-2.2 0,-1.2 -1,-2.2 -2.2,-2.2 -1.2,0 -2.2,1 -2.2,2.2 0,1.2 1,2.2 2.2,2.2 l 0,0 z"
     id="path13265"
     inkscape:connector-curvature="0"
     style="fill:#fdfbe8" /><path
     d="m 279.7,84.52187 c 0,1.2 1,2.2 2.2,2.2 1.2,0 2.2,-1 2.2,-2.2 0,-1.2 -1,-2.2 -2.2,-2.2 -1.3,0 -2.2,1 -2.2,2.2 l 0,0 z"
     id="path13267"
     inkscape:connector-curvature="0"
     style="fill:#fdfbe8" /><path
     d="m 278.9,90.32187 c 0,1.2 1,2.2 2.2,2.2 1.2,0 2.2,-1 2.2,-2.2 0,-1.2 -1,-2.2 -2.2,-2.2 -1.2,0 -2.2,1 -2.2,2.2 l 0,0 z"
     id="path13269"
     inkscape:connector-curvature="0"
     style="fill:#fdfbe8" /><path
     d="m 278,96.12187 c 0,1.2 1,2.2 2.2,2.2 1.2,0 2.2,-1 2.2,-2.2 0,-1.2 -1,-2.2 -2.2,-2.2 -1.2,0 -2.2,1 -2.2,2.2 l 0,0 z"
     id="path13271"
     inkscape:connector-curvature="0"
     style="fill:#fdfbe8" /><path
     d="m 277,101.82187 c 0,1.2 1,2.2 2.2,2.2 1.2,0 2.2,-1 2.2,-2.2 0,-1.2 -1,-2.2 -2.2,-2.2 -1.2,0 -2.2,1 -2.2,2.2 l 0,0 z"
     id="path13273"
     inkscape:connector-curvature="0"
     style="fill:#fdfbe8" /><path
     d="m 275.8,107.62187 c 0,1.2 1,2.2 2.2,2.2 1.2,0 2.2,-1 2.2,-2.2 0,-1.2 -1,-2.2 -2.2,-2.2 -1.2,0 -2.2,1 -2.2,2.2 l 0,0 z"
     id="path13275"
     inkscape:connector-curvature="0"
     style="fill:#fdfbe8" /><path
     d="m 274.3,113.42187 c 0,1.2 1,2.2 2.2,2.2 1.2,0 2.2,-1 2.2,-2.2 0,-1.2 -1,-2.2 -2.2,-2.2 -1.2,0 -2.2,0.9 -2.2,2.2 l 0,0 z"
     id="path13277"
     inkscape:connector-curvature="0"
     style="fill:#fdfbe8" /><path
     d="m 274.6,121.32187 c 1.2,0 2.2,-1 2.2,-2.2 0,-1.2 -1,-2.2 -2.2,-2.2 -1.2,0 -2.2,1 -2.2,2.2 0,1.2 1,2.2 2.2,2.2 l 0,0 z"
     id="path13279"
     inkscape:connector-curvature="0"
     style="fill:#fdfbe8" /><path
     d="m 272.1,127.12187 c 1.2,0 2.2,-1 2.2,-2.2 0,-1.2 -1,-2.2 -2.2,-2.2 -1.2,0 -2.2,1 -2.2,2.2 0,1.2 1,2.2 2.2,2.2 l 0,0 z"
     id="path13281"
     inkscape:connector-curvature="0"
     style="fill:#fdfbe8" /><path
     d="m 256.8,119.62187 c 0,-1.2 -1,-2.2 -2.2,-2.2 -1.2,0 -2.2,1 -2.2,2.2 0,1.2 1,2.2 2.2,2.2 1.2,0 2.2,-1 2.2,-2.2 l 0,0 z"
     id="path13283"
     inkscape:connector-curvature="0"
     style="fill:#fdfbe8" /><path
     d="m 258.3,138.02187 c 0,1.2 1,2.2 2.2,2.2 1.2,0 2.2,-1 2.2,-2.2 0,-1.2 -1,-2.2 -2.2,-2.2 -1.3,0 -2.2,1 -2.2,2.2 l 0,0 z"
     id="path13285"
     inkscape:connector-curvature="0"
     style="fill:#fdfbe8" /><path
     d="m 262,142.32187 c 0,1.2 1,2.2 2.2,2.2 1.2,0 2.2,-1 2.2,-2.2 0,-1.2 -1,-2.2 -2.2,-2.2 -1.2,0 -2.2,1 -2.2,2.2 l 0,0 z"
     id="path13287"
     inkscape:connector-curvature="0"
     style="fill:#fdfbe8" /><path
     d="m 267.6,144.92187 c 0,1.2 1,2.2 2.2,2.2 1.2,0 2.2,-1 2.2,-2.2 0,-1.2 -1,-2.2 -2.2,-2.2 -1.3,0 -2.2,1 -2.2,2.2 l 0,0 z"
     id="path13289"
     inkscape:connector-curvature="0"
     style="fill:#fdfbe8" /><path
     d="m 273.5,144.62187 c 0,1.2 1,2.2 2.2,2.2 1.2,0 2.2,-1 2.2,-2.2 0,-1.2 -1,-2.2 -2.2,-2.2 -1.2,0 -2.2,1 -2.2,2.2 l 0,0 z"
     id="path13291"
     inkscape:connector-curvature="0"
     style="fill:#fdfbe8" /><path
     d="m 281.8,139.92187 c -1.2,0 -2.2,1 -2.2,2.2 0,1.2 1,2.2 2.2,2.2 1.2,0 2.2,-1 2.2,-2.2 0,-1.2 -0.9,-2.2 -2.2,-2.2 l 0,0 z"
     id="path13293"
     inkscape:connector-curvature="0"
     style="fill:#fdfbe8" /><path
     d="m 263.1,134.82187 c 1.2,0 2.2,-1 2.2,-2.2 0,-1.2 -1,-2.2 -2.2,-2.2 -1.2,0 -2.2,1 -2.2,2.2 0,1.2 1,2.2 2.2,2.2 l 0,0 z"
     id="path13295"
     inkscape:connector-curvature="0"
     style="fill:#fdfbe8" /><path
     d="m 247.8,124.02187 c 0,1.2 1,2.2 2.2,2.2 1.2,0 2.2,-1 2.2,-2.2 0,-1.2 -1,-2.2 -2.2,-2.2 -1.2,0.1 -2.2,1 -2.2,2.2 l 0,0 z"
     id="path13297"
     inkscape:connector-curvature="0"
     style="fill:#fdfbe8" /><path
     d="m 268.4,132.12187 c 1.2,0 2.2,-1 2.2,-2.2 0,-1.2 -1,-2.2 -2.2,-2.2 -1.2,0 -2.2,1 -2.2,2.2 0,1.3 1,2.2 2.2,2.2 l 0,0 z"
     id="path13299"
     inkscape:connector-curvature="0"
     style="fill:#fdfbe8" /><path
     d="m 255.8,128.02187 c 1.2,0 2.2,-1 2.2,-2.2 0,-1.2 -1,-2.2 -2.2,-2.2 -1.2,0 -2.2,1 -2.2,2.2 0,1.3 0.9,2.2 2.2,2.2 l 0,0 z"
     id="path13301"
     inkscape:connector-curvature="0"
     style="fill:#fdfbe8" /><path
     d="m 255.6,131.32187 c 0,1.2 1,2.2 2.2,2.2 1.2,0 2.2,-1 2.2,-2.2 0,-1.2 -1,-2.2 -2.2,-2.2 -1.2,0 -2.2,1 -2.2,2.2 l 0,0 z"
     id="path13303"
     inkscape:connector-curvature="0"
     style="fill:#fdfbe8" /><path
     d="m 313.3,15.42187 c 0,-1.2 -1,-2.2 -2.2,-2.2 -1.2,0 -2.2,1 -2.2,2.2 0,1.2 1,2.2 2.2,2.2 1.2,0 2.2,-1 2.2,-2.2 l 0,0 z"
     id="path13305"
     inkscape:connector-curvature="0"
     style="fill:#fdfbe8" /><path
     d="m 311.1,23.32187 c 1.2,0 2.2,-1 2.2,-2.2 0,-1.2 -1,-2.2 -2.2,-2.2 -1.2,0 -2.2,1 -2.2,2.2 0,1.3 1,2.2 2.2,2.2 l 0,0 z"
     id="path13307"
     inkscape:connector-curvature="0"
     style="fill:#fdfbe8" /><path
     d="m 311.1,29.12187 c 1.2,0 2.2,-1 2.2,-2.2 0,-1.2 -1,-2.2 -2.2,-2.2 -1.2,0 -2.2,1 -2.2,2.2 0,1.2 1,2.2 2.2,2.2 l 0,0 z"
     id="path13309"
     inkscape:connector-curvature="0"
     style="fill:#fdfbe8" /><path
     d="m 311.3,34.92187 c 1.2,0 2.2,-1 2.2,-2.2 0,-1.2 -1,-2.2 -2.2,-2.2 -1.2,0 -2.2,1 -2.2,2.2 0,1.2 1,2.2 2.2,2.2 l 0,0 z"
     id="path13311"
     inkscape:connector-curvature="0"
     style="fill:#fdfbe8" /><path
     d="m 311.5,40.62187 c 1.2,0 2.2,-1 2.2,-2.2 0,-1.2 -1,-2.2 -2.2,-2.2 -1.2,0 -2.2,1 -2.2,2.2 0,1.3 0.9,2.2 2.2,2.2 l 0,0 z"
     id="path13313"
     inkscape:connector-curvature="0"
     style="fill:#fdfbe8" /><path
     d="m 311.8,46.42187 c 1.2,0 2.2,-1 2.2,-2.2 0,-1.2 -1,-2.2 -2.2,-2.2 -1.2,0 -2.2,1 -2.2,2.2 0,1.2 1,2.2 2.2,2.2 l 0,0 z"
     id="path13315"
     inkscape:connector-curvature="0"
     style="fill:#fdfbe8" /><path
     d="m 311.9,52.22187 c 1.2,0 2.2,-1 2.2,-2.2 0,-1.2 -1,-2.2 -2.2,-2.2 -1.2,0 -2.2,1 -2.2,2.2 0,1.2 1,2.2 2.2,2.2 l 0,0 z"
     id="path13317"
     inkscape:connector-curvature="0"
     style="fill:#fdfbe8" /><path
     d="m 312.2,57.92187 c 1.2,0 2.2,-1 2.2,-2.2 0,-1.2 -1,-2.2 -2.2,-2.2 -1.2,0 -2.2,1 -2.2,2.2 0,1.2 1,2.2 2.2,2.2 l 0,0 z"
     id="path13319"
     inkscape:connector-curvature="0"
     style="fill:#fdfbe8" /><path
     d="m 312.6,63.72187 c 1.2,0 2.2,-1 2.2,-2.2 0,-1.2 -1,-2.2 -2.2,-2.2 -1.2,0 -2.2,1 -2.2,2.2 0,1.2 1,2.2 2.2,2.2 l 0,0 z"
     id="path13321"
     inkscape:connector-curvature="0"
     style="fill:#fdfbe8" /><path
     d="m 313,69.52187 c 1.2,0 2.2,-1 2.2,-2.2 0,-1.2 -1,-2.2 -2.2,-2.2 -1.2,0 -2.2,1 -2.2,2.2 0,1.2 1,2.2 2.2,2.2 l 0,0 z"
     id="path13323"
     inkscape:connector-curvature="0"
     style="fill:#fdfbe8" /><path
     d="m 313.5,75.22187 c 1.2,0 2.2,-1 2.2,-2.2 0,-1.2 -1,-2.2 -2.2,-2.2 -1.2,0 -2.2,1 -2.2,2.2 0,1.2 1,2.2 2.2,2.2 l 0,0 z"
     id="path13325"
     inkscape:connector-curvature="0"
     style="fill:#fdfbe8" /><path
     d="m 314,81.02187 c 1.2,0 2.2,-1 2.2,-2.2 0,-1.2 -1,-2.2 -2.2,-2.2 -1.2,0 -2.2,1 -2.2,2.2 0,1.2 1,2.2 2.2,2.2 l 0,0 z"
     id="path13327"
     inkscape:connector-curvature="0"
     style="fill:#fdfbe8" /><path
     d="m 314.7,86.72187 c 1.2,0 2.2,-1 2.2,-2.2 0,-1.2 -1,-2.2 -2.2,-2.2 -1.2,0 -2.2,1 -2.2,2.2 0,1.3 1,2.2 2.2,2.2 l 0,0 z"
     id="path13329"
     inkscape:connector-curvature="0"
     style="fill:#fdfbe8" /><path
     d="m 315.4,88.12187 c -1.2,0 -2.2,1 -2.2,2.2 0,1.2 1,2.2 2.2,2.2 1.2,0 2.2,-1 2.2,-2.2 0,-1.2 -0.9,-2.2 -2.2,-2.2 l 0,0 z"
     id="path13331"
     inkscape:connector-curvature="0"
     style="fill:#fdfbe8" /><path
     d="m 316.3,93.92187 c -1.2,0 -2.2,1 -2.2,2.2 0,1.2 1,2.2 2.2,2.2 1.2,0 2.2,-1 2.2,-2.2 0,-1.2 -1,-2.2 -2.2,-2.2 l 0,0 z"
     id="path13333"
     inkscape:connector-curvature="0"
     style="fill:#fdfbe8" /><path
     d="m 315.1,101.82187 c 0,1.2 1,2.2 2.2,2.2 1.2,0 2.2,-1 2.2,-2.2 0,-1.2 -1,-2.2 -2.2,-2.2 -1.2,0 -2.2,1 -2.2,2.2 l 0,0 z"
     id="path13335"
     inkscape:connector-curvature="0"
     style="fill:#fdfbe8" /><path
     d="m 318.5,109.82187 c 1.2,0 2.2,-1 2.2,-2.2 0,-1.2 -1,-2.2 -2.2,-2.2 -1.2,0 -2.2,1 -2.2,2.2 0.1,1.2 1,2.2 2.2,2.2 l 0,0 z"
     id="path13337"
     inkscape:connector-curvature="0"
     style="fill:#fdfbe8" /><path
     d="m 320,111.22187 c -1.2,0 -2.2,1 -2.2,2.2 0,1.2 1,2.2 2.2,2.2 1.2,0 2.2,-1 2.2,-2.2 0,-1.3 -1,-2.2 -2.2,-2.2 l 0,0 z"
     id="path13339"
     inkscape:connector-curvature="0"
     style="fill:#fdfbe8" /><path
     d="m 319.7,119.12187 c 0,1.2 1,2.2 2.2,2.2 1.2,0 2.2,-1 2.2,-2.2 0,-1.2 -1,-2.2 -2.2,-2.2 -1.2,0 -2.2,1 -2.2,2.2 l 0,0 z"
     id="path13341"
     inkscape:connector-curvature="0"
     style="fill:#fdfbe8" /><path
     d="m 322.3,124.92187 c 0,1.2 1,2.2 2.2,2.2 1.2,0 2.2,-1 2.2,-2.2 0,-1.2 -1,-2.2 -2.2,-2.2 -1.2,0 -2.2,1 -2.2,2.2 l 0,0 z"
     id="path13343"
     inkscape:connector-curvature="0"
     style="fill:#fdfbe8" /><path
     d="m 344.1,119.62187 c 0,-1.2 -1,-2.2 -2.2,-2.2 -1.2,0 -2.2,1 -2.2,2.2 0,1.2 1,2.2 2.2,2.2 1.3,0 2.2,-1 2.2,-2.2 l 0,0 z"
     id="path13345"
     inkscape:connector-curvature="0"
     style="fill:#fdfbe8" /><path
     d="m 333.9,138.02187 c 0,1.2 1,2.2 2.2,2.2 1.2,0 2.2,-1 2.2,-2.2 0,-1.2 -1,-2.2 -2.2,-2.2 -1.2,0 -2.2,1 -2.2,2.2 l 0,0 z"
     id="path13347"
     inkscape:connector-curvature="0"
     style="fill:#fdfbe8" /><path
     d="m 332.3,144.52187 c 1.2,0 2.2,-1 2.2,-2.2 0,-1.2 -1,-2.2 -2.2,-2.2 -1.2,0 -2.2,1 -2.2,2.2 0,1.2 1,2.2 2.2,2.2 l 0,0 z"
     id="path13349"
     inkscape:connector-curvature="0"
     style="fill:#fdfbe8" /><path
     d="m 324.6,144.92187 c 0,1.2 1,2.2 2.2,2.2 1.2,0 2.2,-1 2.2,-2.2 0,-1.2 -1,-2.2 -2.2,-2.2 -1.2,0 -2.2,1 -2.2,2.2 l 0,0 z"
     id="path13351"
     inkscape:connector-curvature="0"
     style="fill:#fdfbe8" /><path
     d="m 320.8,142.42187 c -1.2,0 -2.2,1 -2.2,2.2 0,1.2 1,2.2 2.2,2.2 1.2,0 2.2,-1 2.2,-2.2 0,-1.2 -1,-2.2 -2.2,-2.2 l 0,0 z"
     id="path13353"
     inkscape:connector-curvature="0"
     style="fill:#fdfbe8" /><path
     d="m 314.7,144.32187 c 1.2,0 2.2,-1 2.2,-2.2 0,-1.2 -1,-2.2 -2.2,-2.2 -1.2,0 -2.2,1 -2.2,2.2 0,1.2 1,2.2 2.2,2.2 l 0,0 z"
     id="path13355"
     inkscape:connector-curvature="0"
     style="fill:#fdfbe8" /><path
     d="m 333.4,134.82187 c 1.2,0 2.2,-1 2.2,-2.2 0,-1.2 -1,-2.2 -2.2,-2.2 -1.2,0 -2.2,1 -2.2,2.2 0,1.2 1,2.2 2.2,2.2 l 0,0 z"
     id="path13357"
     inkscape:connector-curvature="0"
     style="fill:#fdfbe8" /><path
     d="m 348.8,124.02187 c 0,-1.2 -1,-2.2 -2.2,-2.2 -1.2,0 -2.2,1 -2.2,2.2 0,1.2 1,2.2 2.2,2.2 1.2,0 2.2,-0.9 2.2,-2.2 l 0,0 z"
     id="path13359"
     inkscape:connector-curvature="0"
     style="fill:#fdfbe8" /><path
     d="m 325.9,130.02187 c 0,1.2 1,2.2 2.2,2.2 1.2,0 2.2,-1 2.2,-2.2 0,-1.2 -1,-2.2 -2.2,-2.2 -1.2,0 -2.2,0.9 -2.2,2.2 l 0,0 z"
     id="path13361"
     inkscape:connector-curvature="0"
     style="fill:#fdfbe8" /><path
     d="m 338.6,125.82187 c 0,1.2 1,2.2 2.2,2.2 1.2,0 2.2,-1 2.2,-2.2 0,-1.2 -1,-2.2 -2.2,-2.2 -1.2,0 -2.2,1 -2.2,2.2 l 0,0 z"
     id="path13363"
     inkscape:connector-curvature="0"
     style="fill:#fdfbe8" /><path
     d="m 338.7,133.52187 c 1.2,0 2.2,-1 2.2,-2.2 0,-1.2 -1,-2.2 -2.2,-2.2 -1.2,0 -2.2,1 -2.2,2.2 0,1.2 1,2.2 2.2,2.2 l 0,0 z"
     id="path13365"
     inkscape:connector-curvature="0"
     style="fill:#fdfbe8" /><polygon
     points="385.4,895.1 385.4,898.4 378.7,898.4 378.7,895.1 "
     id="polygon13367"
     style="fill:#655241"
     transform="translate(0,207.90002)" /><path
     d="m 385.9,1100.6 c 0,0 -30.9,4.8 -37.9,-18.9 0,0 -6.7,-18.1 -24.5,-17.5 l -0.4,-18 c 0,0 29.8,-0.7 33.7,31.9 0,0 2.8,19.2 23.4,18.3 0.1,-0.1 6.5,-0.9 5.7,4.2 l 0,0 z"
     id="path13369"
     inkscape:connector-curvature="0"
     style="fill:#655241" /><polygon
     points="223.7,895.1 223.7,898.4 230.5,898.4 230.5,895.1 "
     id="polygon13371"
     style="fill:#655241"
     transform="translate(0,207.90002)" /><path
     d="m 223.2,1100.6 c 0,0 30.9,4.8 37.9,-18.9 0,0 7.8,-16.4 26.2,-17.5 l -1.4,-18 c 0,0 -29.8,-0.7 -33.7,31.9 0,0 -2.8,19.2 -23.4,18.3 0.1,-0.1 -6.3,-0.9 -5.6,4.2 l 0,0 z"
     id="path13373"
     inkscape:connector-curvature="0"
     style="fill:#655241" /><polygon
     points="311.9,846.8 301.3,846.8 301.3,521.1 311.9,521.1 "
     id="polygon13375"
     style="fill:#655241"
     transform="translate(0,207.90002)" /><polygon
     points="326,835 326,856.4 284.9,856.4 284.9,835 "
     id="polygon13377"
     style="fill:#655241"
     transform="translate(0,207.90002)" /><path
     d="m 320.4,1025.7 c 0,7.6 -6.2,13.8 -13.8,13.8 -7.6,0 -13.8,-6.2 -13.8,-13.8 0,-7.6 6.2,-13.8 13.8,-13.8 7.6,0 13.8,6.2 13.8,13.8 l 0,0 z"
     id="path13379"
     inkscape:connector-curvature="0"
     style="fill:#655241" /><polygon
     points="576.9,615.8 462.3,615.8 462.2,603.1 574.6,603.1 "
     id="polygon13381"
     style="fill:#fbc88d"
     transform="translate(0,207.90002)" /><path
     d="m 462.2,828.40002 0,-7.3 113.5,0.1 c -4.5,-16.4 -18.9,-72.5 -19,-127.7 0,-35.3 5.8,-70.3 24.6,-94.6 l 0,0 5.8,4.5 c -17.2,22 -23.1,55.6 -23.1,90.1 0,48 11.3,97.4 16.9,119 1.9,7.2 3.1,11.3 3.1,11.3 l 1.4,4.7 -123.2,-0.1 0,0 z"
     id="path13383"
     inkscape:connector-curvature="0"
     style="fill:#655241" /><path
     d="m 565.7,1069 c 0,-14.6 1.8,-26.9 4,-35.1 12.8,-47.49998 16.7,-89.79998 16.7,-123.59998 0,-46 -7.2,-76.3 -9,-83 -0.2,-0.9 -0.4,-1.4 -0.4,-1.4 l 7,-2.1 c 0.1,0.3 9.7,33.1 9.7,86.5 0,34.4 -4,77.3 -17,125.49998 -2,7.4 -3.7,19.2 -3.7,33.2 0,15.9 2.2,34.6 8.6,53.2 l -7,2.4 c -6.6,-19.6 -8.9,-39 -8.9,-55.6 l 0,0 z"
     id="path13385"
     inkscape:connector-curvature="0"
     style="fill:#655241" /><polygon
     points="452.9,652.4 452.9,660 591.3,660 591.3,652.4 "
     id="polygon13387"
     style="fill:#655241"
     transform="translate(0,207.90002)" /><path
     d="m 465.1,1121.5 c 7.8,-12.4 10.9,-26.6 10.9,-42.1 0,-13.9 -2.6,-28.7 -6.5,-43.6 -14.5,-55.19998 -19,-99.09998 -19,-132.39998 0,-53.6 11.7,-79.6 11.9,-80 l 0,0 6.7,3 c 0,0 -0.1,0.3 -0.4,1 -0.3,0.7 -0.7,1.9 -1.2,3.4 -1,3.1 -2.5,7.8 -3.9,14.2 -2.8,12.7 -5.7,32.1 -5.7,58.4 0,32.6 4.4,76 18.8,130.59998 4,15.3 6.7,30.7 6.7,45.4 0,16.4 -3.4,32.2 -12.1,46 l -6.2,-3.9 0,0 z"
     id="path13389"
     inkscape:connector-curvature="0"
     style="fill:#655241" /><polygon
     points="581.8,628.3 465.6,628.3 465.6,615.5 581.8,615.5 "
     id="polygon13391"
     style="fill:#655241"
     transform="translate(0,207.90002)" /><polygon
     points="18.4,615.8 133,615.8 133.1,603.1 20.6,603.1 "
     id="polygon13393"
     style="fill:#fbc88d"
     transform="translate(0,207.90002)" /><path
     d="m 133.1,828.40002 0,-7.3 -113.5,0.1 c 4.5,-16.4 18.9,-72.5 19,-127.7 0,-35.3 -5.8,-70.3 -24.6,-94.6 l 0,0 -5.8,4.5 c 17.2,22 23.1,55.6 23.1,90.1 0,48 -11.3,97.4 -16.9,119 -1.9,7.2 -3.1,11.3 -3.1,11.3 l -1.4,4.7 123.2,-0.1 0,0 z"
     id="path13395"
     inkscape:connector-curvature="0"
     style="fill:#655241" /><path
     d="m 29.6,1069 c 0,16.5 -2.3,36 -8.9,55.6 l -7,-2.4 c 6.4,-18.6 8.6,-37.3 8.6,-53.2 0,-14 -1.7,-25.8 -3.7,-33.2 -13,-48.19998 -17,-91.09998 -17,-125.49998 0,-53.4 9.6,-86.2 9.7,-86.5 l 7,2.1 c 0,0 -0.1,0.5 -0.4,1.4 -1.8,6.7 -9,37 -9,83 0,33.8 3.9,76 16.7,123.59998 2.2,8.3 4,20.5 4,35.1 l 0,0 z"
     id="path13397"
     inkscape:connector-curvature="0"
     style="fill:#655241" /><polygon
     points="142.4,652.4 142.4,660 4,660 4,652.4 "
     id="polygon13399"
     style="fill:#655241"
     transform="translate(0,207.90002)" /><path
     d="m 130.2,1121.5 c -7.8,-12.4 -10.9,-26.6 -10.9,-42.1 0,-13.9 2.6,-28.7 6.5,-43.6 14.5,-55.19998 19,-99.09998 19,-132.39998 0,-53.6 -11.7,-79.6 -11.9,-80 l 0,0 -6.7,3 c 0,0 0.1,0.3 0.4,1 0.3,0.7 0.7,1.9 1.2,3.4 1,3.1 2.5,7.8 3.9,14.2 2.8,12.7 5.7,32.1 5.7,58.4 0,32.6 -4.4,76 -18.8,130.59998 -4,15.3 -6.7,30.7 -6.7,45.4 0,16.4 3.4,32.2 12.1,46 l 6.2,-3.9 0,0 z"
     id="path13401"
     inkscape:connector-curvature="0"
     style="fill:#655241" /><polygon
     points="13.5,628.3 129.7,628.3 129.7,615.5 13.5,615.5 "
     id="polygon13403"
     style="fill:#655241"
     transform="translate(0,207.90002)" /><polygon
     points="113.2,686.7 130.2,495.4 474.4,495.4 492.5,685.7 "
     id="polygon13405"
     style="fill:#fffaed"
     transform="translate(0,207.90002)" /><path
     d="m 83.9,930.30002 c 0,0 3.7,-7.5 14.7,-9.4 0,0 24.5,0 29.4,-10.3 l 2.2,-207.3 -46.3,227 0,0 z"
     id="path13407"
     inkscape:connector-curvature="0"
     style="fill:#fff8e7" /><path
     d="m 518,930.30002 c 0,0 -3.7,-7.5 -14.7,-9.4 0,0 -24.5,0 -29.4,-10.3 l -2.2,-207.3 46.3,227 0,0 z"
     id="path13409"
     inkscape:connector-curvature="0"
     style="fill:#fff8e7" /><polygon
     points="130.2,495.4 473.5,495.4 305.4,699.1 "
     id="polygon13411"
     style="fill:#f8af68"
     transform="translate(0,207.90002)" /><path
     d="m 403.1,703.30002 c -0.4,0 -0.8,-0.3 -0.9,-0.6 l -5.7,-18.4 c -0.1,-0.3 0,-0.6 0.1,-0.8 0.2,-0.2 0.5,-0.4 0.7,-0.4 l 47.5,0 c 0.3,0 0.6,0.1 0.7,0.4 0.2,0.2 0.2,0.5 0.1,0.8 l -5.7,18.4 c -0.1,0.4 -0.5,0.6 -0.9,0.6 l -35.9,0 0,0 z"
     id="path13413"
     inkscape:connector-curvature="0"
     style="fill:#8a5d34" /><path
     d="m 391.4,703.30002 c -0.4,0 -0.7,-0.2 -0.8,-0.6 l -3.4,-8.3 c -0.1,-0.3 -0.1,-0.6 0.1,-0.9 0.2,-0.3 0.5,-0.4 0.8,-0.4 l 68.8,0 c 0.3,0 0.6,0.2 0.8,0.4 0.2,0.3 0.2,0.6 0.1,0.9 l -3.4,8.3 c -0.1,0.3 -0.5,0.6 -0.8,0.6 l -62.2,0 0,0 z"
     id="path13415"
     inkscape:connector-curvature="0"
     style="fill:#a17e5d" /><path
     d="m 198,702.40002 0,-0.9 0,0.9 0,0 z m -36.1,0.9 c -0.4,0 -0.8,-0.3 -0.9,-0.6 l -5.7,-18.4 c -0.1,-0.3 0,-0.6 0.1,-0.8 0.2,-0.2 0.4,-0.4 0.7,-0.4 l 47.5,0 c 0.3,0 0.6,0.1 0.7,0.4 0.2,0.2 0.2,0.5 0.1,0.8 l -5.7,18.4 c -0.1,0.4 -0.5,0.6 -0.9,0.6 l -35.9,0 0,0 z"
     id="path13417"
     inkscape:connector-curvature="0"
     style="fill:#8a5d34" /><path
     d="m 148.4,703.30002 c -0.4,0 -0.7,-0.2 -0.9,-0.6 l -3.4,-8.3 c -0.1,-0.3 -0.1,-0.6 0.1,-0.9 0.2,-0.3 0.5,-0.4 0.8,-0.4 l 68.8,0 c 0.3,0 0.6,0.2 0.8,0.4 0.2,0.3 0.2,0.6 0.1,0.9 l -3.4,8.3 c -0.1,0.3 -0.5,0.6 -0.8,0.6 l -62.1,0 0,0 z"
     id="path13419"
     inkscape:connector-curvature="0"
     style="fill:#a17e5d" /><polygon
     points="366.3,459.8 366.4,493.9 363.7,493.9 363.6,459.8 "
     id="polygon13421"
     style="fill:#fbfdfd"
     transform="translate(0,207.90002)" /><path
     d="m 354.3,642.10002 c 0,0 -3.4,29.3 10.7,30.1 0,0 13.7,0.8 11.6,-29.7 l -22.3,-0.4 0,0 z"
     id="path13423"
     inkscape:connector-curvature="0"
     style="fill:#f5f7f8" /><path
     d="m 354,654.90002 22.6,0.4 c 0,0 -0.9,15.7 -10.2,17 0.1,0 -11.6,2 -12.4,-17.4 l 0,0 z"
     id="path13425"
     inkscape:connector-curvature="0"
     style="fill:#f5f7f8" /><path
     d="m 374.7,700.50002 c 0,0.9 -4.4,1.6 -9.8,1.6 -5.4,0 -9.8,-0.7 -9.8,-1.5 0,-0.9 4.4,-1.6 9.8,-1.6 5.4,-0.1 9.8,0.6 9.8,1.5 l 0,0 z"
     id="path13427"
     inkscape:connector-curvature="0"
     style="fill:#fbfdfd" /><polygon
     points="236.4,459.8 236.3,493.9 239,493.9 239,459.8 "
     id="polygon13429"
     style="fill:#fbfdfd"
     transform="translate(0,207.90002)" /><path
     d="m 248.4,642.10002 c 0,0 3.4,29.3 -10.7,30.1 0,0 -13.7,0.8 -11.6,-29.7 l 22.3,-0.4 0,0 z"
     id="path13431"
     inkscape:connector-curvature="0"
     style="fill:#f5f7f8" /><path
     d="m 248.7,654.90002 -22.6,0.4 c 0,0 0.9,15.7 10.2,17 -0.1,0 11.6,2 12.4,-17.4 l 0,0 z"
     id="path13433"
     inkscape:connector-curvature="0"
     style="fill:#f5f7f8" /><path
     d="m 228,700.50002 c 0,0.9 4.4,1.6 9.8,1.6 5.4,0 9.8,-0.7 9.8,-1.5 0,-0.9 -4.4,-1.6 -9.8,-1.6 -5.5,-0.1 -9.8,0.6 -9.8,1.5 l 0,0 z"
     id="path13435"
     inkscape:connector-curvature="0"
     style="fill:#fbfdfd" /></svg>