<?xml version="1.0" encoding="UTF-8" standalone="no"?>
<!-- Created with Inkscape (http://www.inkscape.org/) -->

<svg
   xmlns:dc="http://purl.org/dc/elements/1.1/"
   xmlns:cc="http://creativecommons.org/ns#"
   xmlns:rdf="http://www.w3.org/1999/02/22-rdf-syntax-ns#"
   xmlns:svg="http://www.w3.org/2000/svg"
   xmlns="http://www.w3.org/2000/svg"
   xmlns:sodipodi="http://sodipodi.sourceforge.net/DTD/sodipodi-0.dtd"
   xmlns:inkscape="http://www.inkscape.org/namespaces/inkscape"
   width="77.895805mm"
   height="134.59145mm"
   viewBox="0 0 276.00876 476.89882"
   id="svg10355"
   version="1.1"
   inkscape:version="0.91 r"
   sodipodi:docname="chair.svg">
  <defs
     id="defs10357" />
  <sodipodi:namedview
     id="base"
     pagecolor="#ffffff"
     bordercolor="#666666"
     borderopacity="1.0"
     inkscape:pageopacity="0.0"
     inkscape:pageshadow="2"
     inkscape:zoom="1.979899"
     inkscape:cx="108.30448"
     inkscape:cy="119.93942"
     inkscape:document-units="px"
     inkscape:current-layer="layer1"
     showgrid="false"
     fit-margin-top="0"
     fit-margin-left="0"
     fit-margin-right="0"
     fit-margin-bottom="0"
     inkscape:window-width="1366"
     inkscape:window-height="744"
     inkscape:window-x="0"
     inkscape:window-y="24"
     inkscape:window-maximized="1" />
  <metadata
     id="metadata10360">
    <rdf:RDF>
      <cc:Work
         rdf:about="">
        <dc:format>image/svg+xml</dc:format>
        <dc:type
           rdf:resource="http://purl.org/dc/dcmitype/StillImage" />
        <dc:title></dc:title>
      </cc:Work>
    </rdf:RDF>
  </metadata>
  <g
     inkscape:label="Layer 1"
     inkscape:groupmode="layer"
     id="layer1"
     transform="translate(-249.95876,-249.28246)">
    <path
       d="m 525.96751,688.55001 c 0,20.78375 -61.78625,37.63125 -138.005,37.63125 -76.2175,0 -138.00375,-16.8475 -138.00375,-37.63125 0,-20.78375 61.78625,-37.63125 138.00375,-37.63125 76.21875,0 138.005,16.8475 138.005,37.63125"
       style="fill:#34393e;fill-opacity:0.81865287;fill-rule:nonzero;stroke:none"
       id="path4647"
       inkscape:connector-curvature="0" />
    <path
       d="m 381.75301,408.49961 c 61.94125,0.34875 91.03875,17.06875 91.03875,17.06875 0,-1.55875 -0.0137,-3.0875 -0.0275,-4.6175 l -2.6375,-39.88625 c -0.0538,-0.80875 0.05,-1.585 0.22125,-2.3375 -10.56625,-93.13625 -53.465,-113.13625 -88.595,-113.13625 -40.3825,0 -91.0375,26.40625 -91.0375,159.9775 0,0 29.0975,-16.72 91.0375,-17.06875"
       style="fill:#8fab9d;fill-opacity:1;fill-rule:nonzero;stroke:none"
       id="path4667"
       inkscape:connector-curvature="0" />
    <path
       d="m 479.78514,533.82981 c 1.19,-5.12375 -9.50125,-20.2225 -18.83375,-24.805 -8.76625,-4.305 -36.88375,-4.2025 -46.12375,-4.2025 -7.05,0 -14.16875,0.14875 -21.0525,0.2425 -4.1325,0.0575 -8.14625,0.13625 -11.9525,0.16875 -3.69125,-0.03 -7.4275,-0.065 -11.27125,-0.115 -6.675,-0.0862 -13.68125,-0.16875 -20.6275,-0.16875 -9.50625,0 -38.4375,0.002 -47.3675,4.38875 -9.325,4.5775 -20.01875,19.41875 -18.835,24.5125 0.33875,1.4625 4.425,3.23 14.29,3.23 l 167.48375,0 c 9.86,0 13.94875,-1.78 14.29,-3.25125"
       style="fill:#8fab9d;fill-opacity:1;fill-rule:nonzero;stroke:none"
       id="path4671"
       inkscape:connector-curvature="0" />
    <path
       d="m 303.64738,605.08871 c 0,13.97875 -2.0025,29.3675 -4.23375,32.83375 -0.14875,0.10875 0.48375,0.2425 -0.76625,0.35875 l 0,-83.7 5.395,0 -0.395,50.26875 0,0.23875 z m -13.01,-163.1075 c 2.80875,0 5.89,-0.74 8.41875,-2.23625 0.385,-0.20375 2.09125,-1.37 7.09125,-2.965 l 0,53.84625 c -5,0.88125 -8.0875,1.99125 -10.855,3.35 -2.90125,1.42375 -6.3875,3.7375 -9.7425,6.65625 l 3.37625,-58.7675 c 0.5925,0.0662 1.11625,0.11625 1.71125,0.11625 m 164.26,-6.145 c 6.25,2.06625 9.145,3.66625 9.60125,3.90875 2.5275,1.49625 5.4475,2.23625 8.25625,2.23625 0.42625,0 0.91,-0.05 1.3375,-0.0837 l 3.90125,58.56375 c -3.33,-2.8925 -6.865,-5.18375 -9.745,-6.59875 -3.29375,-1.6175 -7.10125,-2.87375 -13.35125,-3.8125 l 0,-54.21375 z m -39.8675,51.97125 c -7.1675,0 -14.44625,0.0975 -21.3875,0.1925 -4.1,0.0563 -8.13375,0.11 -11.76875,0.14125 -3.5275,-0.0287 -7.26,-0.075 -11.07625,-0.125 -6.7475,-0.0875 -13.995,-0.1775 -21.01375,-0.1775 -10.79875,0 -19.88625,0.23375 -27.38625,0.72625 l 0,-57.05625 c 13.75,-3.38125 33.42875,-6.54875 59.2025,-6.7 24.38375,0.14375 43.51375,2.9875 57.05625,6.15625 -0.17,0.67375 -0.009,1.365 -0.009,2.09 l 0,55.27625 c -7.5,-0.355 -14.565,-0.52375 -23.6175,-0.52375 m -33.276,-222.21625 c 35.13,0 78.02875,20 88.595,113.13625 -0.17125,0.75125 -0.275,1.52875 -0.22125,2.3375 l 2.6375,39.88625 c 0.0138,1.52875 0.0275,3.05875 0.0275,4.6175 0,0 -29.09875,-16.72 -91.03875,-17.06875 -61.94125,0.34875 -91.03875,17.06875 -91.03875,17.06875 0,-133.57125 50.65625,-159.9775 91.03875,-159.9775 m -83.7425,271.49 c -9.865,0 -13.95125,-1.76625 -14.29,-3.22875 -1.18375,-5.09375 9.51,-20.13625 18.835,-24.715 8.93,-4.385 37.86125,-4.28375 47.36875,-4.28375 6.945,0 13.95125,0.14125 20.62625,0.22625 3.84375,0.05 7.58,0.12375 11.2725,0.1525 3.805,-0.0312 7.81875,-0.0725 11.9525,-0.12875 6.88375,-0.0937 14.00125,-0.18625 21.0525,-0.18625 9.23875,0 37.3575,0.002 46.1225,4.3075 9.3325,4.5825 20.02375,19.48 18.83375,24.6025 -0.34125,1.47125 -4.42875,3.25375 -14.29,3.25375 l -167.48375,0 z m 198.6825,1.03 c 0.81375,-3.5 0.48875,-7.18125 -0.44,-10.875 l -7.15875,-107.39125 c -0.6725,-60.535 -11.9875,-105.7075 -33.6675,-134.22375 -18.07125,-23.7725 -43.5525,-36.33875 -73.66,-36.33875 -30.105,0 -55.57875,12.56625 -73.6525,36.33875 -16.5475,21.7675 -27.045,53.23625 -31.39375,93.8275 -0.38125,0.86375 -0.64625,1.8 -0.705,2.80125 l -8.4625,144.31625 c -1.055,3.805 -1.34,7.60625 -0.57125,11.21875 0.075,1.5625 0.75375,3.01125 1.6,4.23125 2.0175,4.26625 6.315,8.4375 13.815,10.86125 l 0,100.76375 c -1.25,15.62875 -3.94625,31.9925 -6.45625,35.64375 -3.535,2.59375 -4.65,7.50125 -2.33875,11.325 1.60875,2.66 4.39125,4.13125 7.28875,4.13125 1.50875,0 3.01375,-0.39875 4.4,-1.2375 7.67875,-4.64375 12.07875,-21.1825 13.615,-49.15375 0.009,-0.1575 -0.25875,-0.31375 -0.25875,-0.47 l 0,-3.08625 c 2.5,1.20375 3.55875,1.86125 5.42875,1.86125 1.4375,0 3.02375,-0.41375 4.34375,-1.2125 5.33625,-3.2275 11.65125,-14.1675 11.1425,-46.77875 l 0.72,-50.0825 119.065,0 0.65625,50.15 c -0.5075,32.61 5.74375,43.41 11.08,46.6375 1.31875,0.79875 2.775,1.2325 4.2125,1.2325 2.75875,0 5.21375,-1.375 6.745,-3.9075 2.20625,-3.64625 0.75,-8.3175 -2.62625,-10.785 -2.26375,-3.49375 -4.5175,-18.58 -4.5175,-32.8225 l 0,-0.23625 0.245,-50.26875 10.3525,0 c 0.1975,0 0.6525,0.41875 0.6525,0.41625 l 0,96.5525 c 0,0.15625 -0.04,0.31125 -0.0312,0.4675 1.53625,28.03625 6.18625,44.60625 13.865,49.25125 1.385,0.8375 2.90125,1.2375 4.41,1.2375 2.8975,0 5.7175,-1.47125 7.32625,-4.13125 2.31125,-3.82125 1.515,-8.73 -2.01625,-11.3225 -2.505,-3.655 -6.05375,-20.06125 -6.05375,-35.74125 l 0,-99.04 c 8.75,-3.305 11.86,-9.04875 13.04625,-14.16"
       style="fill:#e7d0ac;fill-opacity:1;fill-rule:nonzero;stroke:none"
       id="path4675"
       inkscape:connector-curvature="0" />
  </g>
</svg>
