<?xml version="1.0" encoding="utf-8"?>
<!-- Generator: Adobe Illustrator 19.0.1, SVG Export Plug-In . SVG Version: 6.00 Build 0)  -->
<svg version="1.1" id="Слой_1" xmlns="http://www.w3.org/2000/svg" xmlns:xlink="http://www.w3.org/1999/xlink" x="0px" y="0px"
	 viewBox="0 0 84 136.9" style="enable-background:new 0 0 84 136.9;" xml:space="preserve">
<style type="text/css">
	.st0{fill:#8DA89A;}
	.st1{opacity:0.3;fill:#F9DD6E;}
</style>
<path class="st0" d="M726,37.8V0H-643v37.8c-21,6-36.6,25.5-36.6,48.6c0,27.9,22.7,50.5,50.6,50.5c17.5,0,32.9-8.9,42-22.4
	c9.1,13.5,24.5,22.4,42,22.4c17.5,0,32.9-8.9,42-22.4c9.1,13.5,24.5,22.4,41.9,22.4c17.5,0,32.9-8.9,41.9-22.4
	c9.1,13.5,24.5,22.4,41.9,22.4c17.5,0,32.9-8.9,41.9-22.4c9.1,13.5,24.5,22.4,41.9,22.4c17.5,0,32.9-8.9,41.9-22.4
	c9.1,13.5,24.5,22.4,41.9,22.4s32.9-8.9,41.9-22.4c9.1,13.5,24.5,22.4,41.9,22.4s32.9-8.9,41.9-22.4c9.1,13.5,24.5,22.4,41.9,22.4
	s32.9-8.9,41.9-22.4c9.1,13.5,24.5,22.4,41.9,22.4c17.5,0,32.9-8.9,41.9-22.4c9.1,13.5,24.5,22.4,41.9,22.4s32.9-8.9,41.9-22.4
	c9.1,13.5,24.5,22.4,41.9,22.4s32.9-8.9,41.9-22.4c9.1,13.5,24.5,22.4,41.9,22.4s32.9-8.9,41.9-22.4c9.1,13.5,24.5,22.4,41.9,22.4
	c17.5,0,32.9-8.9,41.9-22.4c9.1,13.5,24.5,22.4,41.9,22.4c17.5,0,32.9-8.9,41.9-22.4c9.1,13.5,24.5,22.4,41.9,22.4
	s32.9-8.9,41.9-22.4c9.1,13.5,24.5,22.4,41.9,22.4c17.5,0,32.9-8.9,41.9-22.4c9.1,13.5,24.5,22.4,41.9,22.4
	c27.9,0,50.1-22.6,50.1-50.5C763.2,63.2,748,43.8,726,37.8z"/>
<rect x="-643" class="st1" width="1369" height="17"/>
</svg>
