<?xml version="1.0" encoding="utf-8"?>
<!-- Generator: Adobe Illustrator 19.0.1, SVG Export Plug-In . SVG Version: 6.00 Build 0)  -->
<svg version="1.1" id="Слой_1" xmlns="http://www.w3.org/2000/svg" xmlns:xlink="http://www.w3.org/1999/xlink" x="0px" y="0px"
	 viewBox="0 0 83.4 136.9" style="enable-background:new 0 0 83.4 136.9;" xml:space="preserve">
<style type="text/css">
	.st0{fill:#8DA89A;}
</style>
<path class="st0" d="M809.4,37.8V0h-1369v37.8c-21,6-36.6,25.5-36.6,48.6c0,27.9,22.7,50.5,50.6,50.5c17.5,0,32.9-8.9,42-22.4
	c9.1,13.5,24.5,22.4,42,22.4c17.5,0,32.9-8.9,42-22.4c9.1,13.5,24.5,22.4,41.9,22.4c17.5,0,32.9-8.9,41.9-22.4
	c9.1,13.5,24.5,22.4,41.9,22.4c17.5,0,32.9-8.9,41.9-22.4c9.1,13.5,24.5,22.4,41.9,22.4s32.9-8.9,41.9-22.4
	c9.1,13.5,24.5,22.4,41.9,22.4s32.9-8.9,41.9-22.4c9.1,13.5,24.5,22.4,41.9,22.4s32.9-8.9,41.9-22.4c9.1,13.5,24.5,22.4,41.9,22.4
	s32.9-8.9,41.9-22.4c9.1,13.5,24.5,22.4,41.9,22.4c17.5,0,32.9-8.9,41.9-22.4c9.1,13.5,24.5,22.4,41.9,22.4s32.9-8.9,41.9-22.4
	c9.1,13.5,24.5,22.4,41.9,22.4c17.5,0,32.9-8.9,41.9-22.4c9.1,13.5,24.5,22.4,41.9,22.4c17.5,0,32.9-8.9,41.9-22.4
	c9.1,13.5,24.5,22.4,41.9,22.4c17.5,0,32.9-8.9,41.9-22.4c9.1,13.5,24.5,22.4,41.9,22.4c17.5,0,32.9-8.9,41.9-22.4
	c9.1,13.5,24.5,22.4,41.9,22.4s32.9-8.9,41.9-22.4c9.1,13.5,24.5,22.4,41.9,22.4c17.5,0,32.9-8.9,41.9-22.4
	c9.1,13.5,24.5,22.4,41.9,22.4c27.9,0,50.1-22.6,50.1-50.5C846.6,63.2,831.4,43.8,809.4,37.8z"/>
</svg>
