<?xml version="1.0" encoding="utf-8"?>
<!-- Generator: Adobe Illustrator 16.0.3, SVG Export Plug-In . SVG Version: 6.00 Build 0)  -->
<!DOCTYPE svg PUBLIC "-//W3C//DTD SVG 1.1//EN" "http://www.w3.org/Graphics/SVG/1.1/DTD/svg11.dtd">
<svg version="1.1"
	 id="svg13880" sodipodi:docname="footer.svg" inkscape:version="0.91 r" xmlns:dc="http://purl.org/dc/elements/1.1/" xmlns:cc="http://creativecommons.org/ns#" xmlns:rdf="http://www.w3.org/1999/02/22-rdf-syntax-ns#" xmlns:svg="http://www.w3.org/2000/svg" xmlns:sodipodi="http://sodipodi.sourceforge.net/DTD/sodipodi-0.dtd" xmlns:inkscape="http://www.inkscape.org/namespaces/inkscape"
	 xmlns="http://www.w3.org/2000/svg" xmlns:xlink="http://www.w3.org/1999/xlink" x="0px" y="0px" width="1709.41px"
	 height="989.302px" viewBox="0 0 1709.41 989.302" enable-background="new 0 0 1709.41 989.302" xml:space="preserve">
<sodipodi:namedview  units="px" id="base" fit-margin-bottom="0" fit-margin-right="0" inkscape:window-y="24" inkscape:window-x="0" inkscape:window-height="744" inkscape:window-width="1366" inkscape:current-layer="layer1" inkscape:document-units="px" inkscape:pageshadow="2" inkscape:pageopacity="0.0" inkscape:cy="404.18629" fit-margin-left="0" fit-margin-top="0" inkscape:cx="1115.0394" inkscape:zoom="0.49497475" borderopacity="1.0" bordercolor="#666666" showgrid="false" pagecolor="#ffffff" inkscape:window-maximized="1">
	</sodipodi:namedview>
<g id="layer1" transform="translate(-632.1435,327.04373)" inkscape:groupmode="layer" inkscape:label="Layer 1">
	<path id="path5771" inkscape:connector-curvature="0" opacity="0.3" fill="#9CD0CA" enable-background="new    " d="
		M2321.878,168.086h-2.512V44.444l-65.229,33.999v191.652h-34.996V-48.292h-38.597v-46.85h-43.483v46.85h-17.752v318.386h-25.738
		v-43.273l-57.108,40.346V161.626h-14.812v-20.12h-8.983v20.12h-9.117v-20.12h-8.983v20.12h-10.15v60.341h-70.018V12.327h-18.866
		v-61.991h-19.671v-26.188h-15.257l-2.046-31.38l-37.118,30.996l-0.021,0.384h-15.517v26.188h-19.663v61.991h-18.871V57
		l-12.427,11.569V195.82h-31.526v-29.365h-26.279v29.365h-8.125v-81.175l-108.036-45.103v-176.709h-25.257v-11.873h-76.331v11.873
		h-17.567v343.759h-50.971V-14.631h-16.358v-12.237h-77.104V-68.47h-28.04v53.84h-23.37v251.223h-16.367V140.66l-20.717-17.394
		v-22.306c0,0-2.929-2.643-8.471-5.386V16.485c0,0-2.196-4.694-7.319-9.305v-9.136c0,0-1.21-2.757-4.242-5.73v-8.623
		c0,0-1.775-4.088-6.581-7.242v-5.5c0,0-1.508-3.444-5.656-5.761v-3.959c0,0-1.307-4.447-5.082-6.635v-8.815
		c0,0-1.104-5.771-4.438-6.81l0.35-44.519c0,0-0.877-3.619-1.226-0.661c-0.331,2.845-1.311,42.067-1.388,45.178
		c-3.251,0.995-4.683,5.621-4.683,6.813v10.041c-2.411,1.959-3.541,4.526-3.541,5.409v5.167c-2.572,1.79-3.768,3.796-3.768,4.554
		v6.81c-3.207,2.38-4.704,4.938-4.704,5.932v8.756c-2.573,2.361-3.806,4.616-3.806,5.596V7.09c-4.22,3.877-6.076,7.895-6.076,9.395
		v81.682c-1.851,0.859-3.715,1.774-5.63,2.795v21.158l-20.249,18.541v340.217h1209.17v-370.75h-19.677V168.086L2321.878,168.086z"/>
	<path id="path5813" inkscape:connector-curvature="0" fill="#837B73" d="M632.144,513.278h1709.41v-55.797H632.144V513.278
		L632.144,513.278z"/>
	<path id="path5815" inkscape:connector-curvature="0" fill="#B8B4AF" d="M632.144,662.259h1709.41V497.94H632.144V662.259
		L632.144,662.259z"/>
	<path id="path5817" inkscape:connector-curvature="0" fill="#71685F" d="M632.144,528.874h1709.41V497.68H632.144V528.874
		L632.144,528.874z"/>
</g>
</svg>
