<?xml version="1.0" encoding="UTF-8" standalone="no"?>
<!-- Created with Inkscape (http://www.inkscape.org/) -->

<svg
   xmlns:dc="http://purl.org/dc/elements/1.1/"
   xmlns:cc="http://creativecommons.org/ns#"
   xmlns:rdf="http://www.w3.org/1999/02/22-rdf-syntax-ns#"
   xmlns:svg="http://www.w3.org/2000/svg"
   xmlns="http://www.w3.org/2000/svg"
   xmlns:sodipodi="http://sodipodi.sourceforge.net/DTD/sodipodi-0.dtd"
   xmlns:inkscape="http://www.inkscape.org/namespaces/inkscape"
   width="117.79638mm"
   height="102.95565mm"
   viewBox="0 0 417.38874 364.80348"
   id="svg14863"
   version="1.1"
   inkscape:version="0.91 r"
   sodipodi:docname="footer-1.svg">
  <defs
     id="defs14865" />
  <sodipodi:namedview
     id="base"
     pagecolor="#ffffff"
     bordercolor="#666666"
     borderopacity="1.0"
     inkscape:pageopacity="0.0"
     inkscape:pageshadow="2"
     inkscape:zoom="0.98994949"
     inkscape:cx="355.05322"
     inkscape:cy="105.31665"
     inkscape:document-units="px"
     inkscape:current-layer="layer1"
     showgrid="false"
     fit-margin-top="0"
     fit-margin-left="0"
     fit-margin-right="0"
     fit-margin-bottom="0"
     inkscape:window-width="1366"
     inkscape:window-height="744"
     inkscape:window-x="0"
     inkscape:window-y="24"
     inkscape:window-maximized="1" />
  <metadata
     id="metadata14868">
    <rdf:RDF>
      <cc:Work
         rdf:about="">
        <dc:format>image/svg+xml</dc:format>
        <dc:type
           rdf:resource="http://purl.org/dc/dcmitype/StillImage" />
        <dc:title></dc:title>
      </cc:Work>
    </rdf:RDF>
  </metadata>
  <g
     inkscape:label="Layer 1"
     inkscape:groupmode="layer"
     id="layer1"
     transform="translate(333.3517,-825.10381)">
    <path
       d="m -9.5054464,1171.7526 -323.8462536,0 0,-284.80379 323.8462536,0 0,284.80379 z"
       style="fill:#4e4237;fill-opacity:1;fill-rule:nonzero;stroke:none"
       id="path6009"
       inkscape:connector-curvature="0" />
    <path
       d="m -332.93345,887.52731 323.0125036,0 -36.1837496,-27.99375 -255.061254,0 -31.7675,27.99375 z"
       style="fill:#60554b;fill-opacity:1;fill-rule:nonzero;stroke:none"
       id="path6013"
       inkscape:connector-curvature="0" />
    <path
       d="m -38.812946,1171.7526 -261.221254,0 0,-105.0163 261.221254,0 0,105.0163 z"
       style="fill:#486e69;fill-opacity:1;fill-rule:nonzero;stroke:none"
       id="path6015"
       inkscape:connector-curvature="0" />
    <path
       d="m -156.25045,1171.7526 -38.4925,0 0,-105.0163 38.4925,0 0,105.0163 z"
       style="fill:#36534f;fill-opacity:1;fill-rule:nonzero;stroke:none"
       id="path6017"
       inkscape:connector-curvature="0" />
    <path
       d="m -191.6542,1171.7526 -4.6975,0 0,-88.4963 4.6975,0 0,88.4963 z"
       style="fill:#60928c;fill-opacity:1;fill-rule:nonzero;stroke:none"
       id="path6019"
       inkscape:connector-curvature="0" />
    <path
       d="m -159.10795,1171.7526 4.00875,0 0,-88.4963 -4.00875,0 0,88.4963 z"
       style="fill:#60928c;fill-opacity:1;fill-rule:nonzero;stroke:none"
       id="path6021"
       inkscape:connector-curvature="0" />
    <path
       d="m -41.249196,1171.7526 4.0025,0 0,-88.4963 -4.0025,0 0,88.4963 z"
       style="fill:#71685f;fill-opacity:1;fill-rule:nonzero;stroke:none"
       id="path6023"
       inkscape:connector-curvature="0" />
    <path
       d="m -300.01545,1171.7526 4.0025,0 0,-88.4963 -4.0025,0 0,88.4963 z"
       style="fill:#71685f;fill-opacity:1;fill-rule:nonzero;stroke:none"
       id="path6025"
       inkscape:connector-curvature="0" />
    <path
       d="m -21.892946,1114.5313 -298.953754,0 0,-26.8487 298.953754,0 0,26.8487 z"
       style="opacity:0.5;fill:#cccccc;fill-opacity:1;fill-rule:nonzero;stroke:none"
       id="path6047"
       inkscape:connector-curvature="0" />
    <path
       d="m -294.76995,1057.0209 250.328754,0 22.94875,30.66 -299.352504,0 26.075,-30.66 z"
       style="fill:#f8e9cb;fill-opacity:1;fill-rule:nonzero;stroke:none"
       id="path6051"
       inkscape:connector-curvature="0" />
    <path
       d="m -301.78858,1087.477 -10.06,0 24.2,-30.255 8.40375,0 -22.54375,30.255 z"
       style="fill:#d8713f;fill-opacity:1;fill-rule:nonzero;stroke:none"
       id="path6055"
       inkscape:connector-curvature="0" />
    <path
       d="m -279.28882,1087.477 -10.06625,0 20.485,-30.255 8.3875,0 -18.80625,30.255 z"
       style="fill:#d8713f;fill-opacity:1;fill-rule:nonzero;stroke:none"
       id="path6059"
       inkscape:connector-curvature="0" />
    <path
       d="m -256.79545,1087.477 -10.06625,0 16.7575,-30.255 8.39375,0 -15.085,30.255 z"
       style="fill:#d8713f;fill-opacity:1;fill-rule:nonzero;stroke:none"
       id="path6063"
       inkscape:connector-curvature="0" />
    <path
       d="m -234.30185,1087.477 -10.06625,0 13.0325,-30.255 8.39125,0 -11.3575,30.255 z"
       style="fill:#d8713f;fill-opacity:1;fill-rule:nonzero;stroke:none"
       id="path6067"
       inkscape:connector-curvature="0" />
    <path
       d="m -211.79615,1087.477 -10.06625,0 9.2925,-30.255 8.4,0 -7.62625,30.255 z"
       style="fill:#d8713f;fill-opacity:1;fill-rule:nonzero;stroke:none"
       id="path6071"
       inkscape:connector-curvature="0" />
    <path
       d="m -189.29655,1087.477 -10.06625,0 5.57125,-30.255 8.3875,0 -3.8925,30.255 z"
       style="fill:#d8713f;fill-opacity:1;fill-rule:nonzero;stroke:none"
       id="path6075"
       inkscape:connector-curvature="0" />
    <path
       d="m -166.80325,1087.477 -10.06625,0 1.84625,-30.255 8.3975,0 -0.1775,30.255 z"
       style="fill:#d8713f;fill-opacity:1;fill-rule:nonzero;stroke:none"
       id="path6079"
       inkscape:connector-curvature="0" />
    <path
       d="m -144.30355,1087.477 -10.05375,0 -1.89375,-30.255 8.395,0 3.5525,30.255 z"
       style="fill:#d8713f;fill-opacity:1;fill-rule:nonzero;stroke:none"
       id="path6083"
       inkscape:connector-curvature="0" />
    <path
       d="m -121.80395,1087.477 -10.06625,0 -5.60875,-30.255 8.395,0 7.28,30.255 z"
       style="fill:#d8713f;fill-opacity:1;fill-rule:nonzero;stroke:none"
       id="path6087"
       inkscape:connector-curvature="0" />
    <path
       d="m -99.310546,1087.477 -10.053754,0 -9.33875,-30.255 8.38375,0 11.008754,30.255 z"
       style="fill:#d8713f;fill-opacity:1;fill-rule:nonzero;stroke:none"
       id="path6091"
       inkscape:connector-curvature="0" />
    <path
       d="m -76.810846,1087.477 -10.06,0 -13.0675,-30.255 8.395,0 14.7325,30.255 z"
       style="fill:#d8713f;fill-opacity:1;fill-rule:nonzero;stroke:none"
       id="path6095"
       inkscape:connector-curvature="0" />
    <path
       d="m -54.298946,1087.477 -10.075,0 -16.805,-30.255 8.40125,0 18.47875,30.255 z"
       style="fill:#d8713f;fill-opacity:1;fill-rule:nonzero;stroke:none"
       id="path6099"
       inkscape:connector-curvature="0" />
    <path
       d="m -31.805346,1087.477 -10.06625,0 -20.53125,-30.255 8.3975,0 22.2,30.255 z"
       style="fill:#d8713f;fill-opacity:1;fill-rule:nonzero;stroke:none"
       id="path6103"
       inkscape:connector-curvature="0" />
    <path
       d="m -21.490446,1094.1363 -299.867504,0 0,-6.8537 299.867504,0 0,6.8537 z"
       style="fill:#a2552f;fill-opacity:1;fill-rule:nonzero;stroke:none"
       id="path6105"
       inkscape:connector-curvature="0" />
    <path
       d="m -239.84545,870.38756 -29.99875,0 0,-45.28375 29.99875,0 0,45.28375 z"
       style="fill:#4e4237;fill-opacity:1;fill-rule:nonzero;stroke:none"
       id="path6107"
       inkscape:connector-curvature="0" />
    <path
       d="m -241.32035,957.46021 c -0.3,-5.805 -2.33375,-11.1425 -5.605,-15.3875 l -14.555,15.3875 20.16,0 z"
       style="fill:#60928c;fill-opacity:1;fill-rule:nonzero;stroke:none"
       id="path6111"
       inkscape:connector-curvature="0" />
    <path
       d="m -254.96755,935.17991 0.115,0.0312 c -0.56125,-0.30625 -1.145,-0.5925 -1.725,-0.8575 -0.115,-0.0537 -0.23625,-0.10375 -0.34625,-0.15375 -0.695,-0.29875 -1.39375,-0.58 -2.12125,-0.81375 -0.0213,0 -0.0275,-0.0125 -0.04,-0.0125 -0.70875,-0.23375 -1.42625,-0.42125 -2.15875,-0.59 -0.13375,-0.0275 -0.2625,-0.0613 -0.38375,-0.08 -0.72375,-0.15625 -1.45,-0.27875 -2.19875,-0.3625 -0.14125,-0.006 -0.275,-0.0312 -0.42125,-0.0438 -0.225,-0.0187 -0.455,-0.0463 -0.67375,-0.0588 l 0,0.0275 0,0.87375 0,23.07125 15.7525,-16.68 c -1.73375,-1.71875 -3.6775,-3.19375 -5.79875,-4.35125"
       style="fill:#60928c;fill-opacity:1;fill-rule:nonzero;stroke:none"
       id="path6115"
       inkscape:connector-curvature="0" />
    <path
       d="m -271.25285,957.46021 -13.46375,-14.2275 -1.32875,-1.41875 c -3.4,4.285 -5.5025,9.71375 -5.81125,15.64625 l 1.7225,0 18.88125,0 z"
       style="fill:#60928c;fill-opacity:1;fill-rule:nonzero;stroke:none"
       id="path6119"
       inkscape:connector-curvature="0" />
    <path
       d="m -264.92295,1006.4976 23.67,0 0,-22.11004 -23.67,0 0,22.11004 z"
       style="fill:#60928c;fill-opacity:1;fill-rule:nonzero;stroke:none"
       id="path6121"
       inkscape:connector-curvature="0" />
    <path
       d="m -264.92295,981.01631 23.67,0 0,-20.19125 -23.67,0 0,20.19125 z"
       style="fill:#60928c;fill-opacity:1;fill-rule:nonzero;stroke:none"
       id="path6123"
       inkscape:connector-curvature="0" />
    <path
       d="m -282.4937,940.65721 14.215,15.0475 0,-22.3125 0,-1.1225 c -5.97625,0.41125 -11.36375,3.0125 -15.5,7.04 l 1.285,1.3475 z"
       style="fill:#60928c;fill-opacity:1;fill-rule:nonzero;stroke:none"
       id="path6127"
       inkscape:connector-curvature="0" />
    <path
       d="m -291.9247,984.38911 0,22.10999 1.51,0 0.165,0 21.97,0 0,-22.10999 -21.97,0 -1.675,0 z"
       style="fill:#60928c;fill-opacity:1;fill-rule:nonzero;stroke:none"
       id="path6131"
       inkscape:connector-curvature="0" />
    <path
       d="m -291.9247,960.82631 0,20.19125 1.675,0 21.97,0 0,-20.19125 -21.97,0 -1.675,0 z"
       style="fill:#60928c;fill-opacity:1;fill-rule:nonzero;stroke:none"
       id="path6135"
       inkscape:connector-curvature="0" />
    <path
       d="m -241.25295,981.01631 -23.67,0 0,-20.19125 23.67,0 0,20.19125 z m 0,25.48129 -23.67,0 0,-22.11004 23.67,0 0,22.11004 z m -27.02625,-73.10504 0,22.3125 -14.215,-15.0475 -1.235,-1.31 c 4.09875,-3.93 9.48,-6.4575 15.45,-6.87125 l 0,0.91625 z m 0,47.62375 -21.96875,0 -1.41,0 0,-19.37125 0,-0.8175 1.41,0 21.96875,0 0,20.18875 z m 0,25.48129 -21.96875,0 -0.16625,0 -1.50875,0 0,-0.2238 0.265,-0.225 0,-21.66124 1.41,0 21.96875,0 0,22.11004 z m -21.41125,-58.48129 c 0.0312,-0.0775 0.075,-0.1625 0.10625,-0.24375 0.265,-0.63 0.55875,-1.235 0.88875,-1.84875 0.0662,-0.1125 0.11,-0.235 0.175,-0.35625 0.73375,-1.31625 1.56625,-2.56375 2.48625,-3.7275 l 1.31625,1.39375 13.46625,14.225 -18.88125,0 -1.5125,0 c 0.0625,-3.34125 0.75125,-6.52625 1.955,-9.4425 m 40.48,-8.4375 -15.7125,16.6325 0,-23.07125 0,-0.66375 c 6.08625,0.41375 11.58875,3.01875 15.7125,7.1025 m 7.88875,17.88 -20.16,0 14.555,-15.385 c 3.2725,4.2425 5.30875,9.58 5.605,15.385 m -4.9525,-20.62875 c -0.007,-0.0125 -0.0125,-0.0212 -0.0225,-0.0212 -1.9625,-1.9025 -4.18625,-3.535 -6.62875,-4.82625 -0.025,-0.025 -0.0312,-0.025 -0.05,-0.0312 -0.7925,-0.4275 -1.615,-0.8075 -2.4425,-1.15625 -0.10625,-0.0438 -0.215,-0.075 -0.32375,-0.12875 -0.755,-0.29875 -1.51625,-0.58625 -2.3025,-0.82375 -0.23125,-0.0712 -0.4925,-0.12125 -0.73,-0.18375 -0.66375,-0.18375 -1.335,-0.3775 -2.0125,-0.50875 -0.445,-0.0937 -0.9075,-0.1425 -1.365,-0.2025 -0.5,-0.0837 -0.98,-0.18125 -1.485,-0.225 -0.97,-0.105 -1.95,-0.14625 -2.9425,-0.14625 -16.1325,0 -29.19625,13.055 -29.19625,29.175 0,0.0625 0.025,0.135 0.025,0.19375 l -0.025,0 0,51.62624 58.36625,0 0,-51.81999 c 0,-8.21625 -3.4125,-15.615 -8.865,-20.92125"
       style="fill:#71685f;fill-opacity:1;fill-rule:nonzero;stroke:none"
       id="path6137"
       inkscape:connector-curvature="0" />
    <path
       d="m -146.15545,957.46021 c -0.3,-5.805 -2.33375,-11.1425 -5.59875,-15.3875 l -14.555,15.3875 20.15375,0 z"
       style="fill:#60928c;fill-opacity:1;fill-rule:nonzero;stroke:none"
       id="path6141"
       inkscape:connector-curvature="0" />
    <path
       d="m -159.80265,935.17991 0.115,0.0312 c -0.56125,-0.30625 -1.145,-0.5925 -1.725,-0.8575 -0.10875,-0.0537 -0.23625,-0.10375 -0.3525,-0.15375 -0.68875,-0.29875 -1.3875,-0.58 -2.115,-0.81375 -0.025,0 -0.0275,-0.0125 -0.04,-0.0125 -0.70875,-0.23375 -1.42,-0.42125 -2.15875,-0.59 -0.13375,-0.0275 -0.2625,-0.0613 -0.38375,-0.08 -0.72375,-0.15625 -1.45,-0.27875 -2.19875,-0.3625 -0.14125,-0.006 -0.275,-0.0312 -0.42125,-0.0438 -0.225,-0.0187 -0.455,-0.0463 -0.67375,-0.0588 l 0,0.0275 0,0.87375 0,23.07125 15.7525,-16.68 c -1.7275,-1.71875 -3.67125,-3.19375 -5.79875,-4.35125"
       style="fill:#60928c;fill-opacity:1;fill-rule:nonzero;stroke:none"
       id="path6145"
       inkscape:connector-curvature="0" />
    <path
       d="m -176.08795,957.46021 -13.46,-14.2275 -1.3325,-1.41875 c -3.39375,4.285 -5.5025,9.71375 -5.81125,15.64625 l 1.7225,0 18.88125,0 z"
       style="fill:#60928c;fill-opacity:1;fill-rule:nonzero;stroke:none"
       id="path6149"
       inkscape:connector-curvature="0" />
    <path
       d="m -169.7567,1006.4976 23.67625,0 0,-22.11004 -23.67625,0 0,22.11004 z"
       style="fill:#60928c;fill-opacity:1;fill-rule:nonzero;stroke:none"
       id="path6151"
       inkscape:connector-curvature="0" />
    <path
       d="m -169.7567,981.01631 23.67625,0 0,-20.19125 -23.67625,0 0,20.19125 z"
       style="fill:#60928c;fill-opacity:1;fill-rule:nonzero;stroke:none"
       id="path6153"
       inkscape:connector-curvature="0" />
    <path
       d="m -187.32845,940.65721 14.215,15.0475 0,-22.3125 0,-1.1225 c -5.97625,0.41125 -11.36375,3.0125 -15.5,7.04 l 1.285,1.3475 z"
       style="fill:#60928c;fill-opacity:1;fill-rule:nonzero;stroke:none"
       id="path6157"
       inkscape:connector-curvature="0" />
    <path
       d="m -196.75985,984.38911 0,22.10999 1.51625,0 0.15875,0 21.97,0 0,-22.10999 -21.97,0 -1.675,0 z"
       style="fill:#60928c;fill-opacity:1;fill-rule:nonzero;stroke:none"
       id="path6161"
       inkscape:connector-curvature="0" />
    <path
       d="m -196.75985,960.82631 0,20.19125 1.675,0 21.97,0 0,-20.19125 -21.97,0 -1.675,0 z"
       style="fill:#60928c;fill-opacity:1;fill-rule:nonzero;stroke:none"
       id="path6165"
       inkscape:connector-curvature="0" />
    <path
       d="m -146.0842,981.01631 -23.67625,0 0,-20.19125 23.67625,0 0,20.19125 z m 0,25.48129 -23.67625,0 0,-22.11004 23.67625,0 0,22.11004 z m -27.0325,-73.10504 0,22.3125 -14.21125,-15.0475 -1.23875,-1.31 c 4.1025,-3.93 9.48625,-6.4575 15.45,-6.87125 l 0,0.91625 z m 0,47.62375 -21.96875,0 -1.4075,0 0,-19.37125 0,-0.8175 1.4075,0 21.96875,0 0,20.18875 z m 0,25.48129 -21.96875,0 -0.15625,0 -1.52,0 0,-0.2238 0.26875,-0.225 0,-21.66124 1.4075,0 21.96875,0 0,22.11004 z m -21.4075,-58.48129 c 0.0312,-0.0775 0.0813,-0.1625 0.1025,-0.24375 0.26875,-0.63 0.5675,-1.235 0.8925,-1.84875 0.0588,-0.1125 0.10875,-0.235 0.17375,-0.35625 0.73375,-1.31625 1.56625,-2.56375 2.48625,-3.7275 l 1.3225,1.39375 13.4575,14.225 -18.87875,0 -1.5125,0 c 0.0625,-3.34125 0.74875,-6.52625 1.95625,-9.4425 m 40.48,-8.4375 -15.7125,16.6325 0,-23.07125 0,-0.66375 c 6.0925,0.41375 11.585,3.01875 15.7125,7.1025 m 7.88875,17.88 -20.155,0 14.555,-15.385 c 3.26625,4.2425 5.3,9.58 5.6,15.385 m -4.9475,-20.62875 c -0.0125,-0.0125 -0.0188,-0.0212 -0.0312,-0.0212 -1.95625,-1.9025 -4.18375,-3.535 -6.62875,-4.82625 -0.0213,-0.025 -0.0213,-0.025 -0.0463,-0.0312 -0.7925,-0.4275 -1.61625,-0.8075 -2.44625,-1.15625 -0.1025,-0.0438 -0.21875,-0.075 -0.32125,-0.12875 -0.755,-0.29875 -1.51625,-0.58625 -2.3025,-0.82375 -0.23375,-0.0712 -0.495,-0.12125 -0.7325,-0.18375 -0.65875,-0.18375 -1.32625,-0.3775 -2.00875,-0.50875 -0.44625,-0.0937 -0.9075,-0.1425 -1.36625,-0.2025 -0.4925,-0.0837 -0.98,-0.18125 -1.485,-0.225 -0.97,-0.105 -1.95,-0.14625 -2.93875,-0.14625 -16.1325,0 -29.2,13.055 -29.2,29.175 0,0.0625 0.0187,0.135 0.0187,0.19375 l -0.0187,0 0,51.62624 58.36625,0 0,-51.81999 c 0,-8.21625 -3.4125,-15.615 -8.85875,-20.92125"
       style="fill:#71685f;fill-opacity:1;fill-rule:nonzero;stroke:none"
       id="path6167"
       inkscape:connector-curvature="0" />
    <path
       d="m -50.990546,957.46021 c -0.3,-5.805 -2.33375,-11.1425 -5.605,-15.3875 l -14.555,15.3875 20.16,0 z"
       style="fill:#60928c;fill-opacity:1;fill-rule:nonzero;stroke:none"
       id="path6171"
       inkscape:connector-curvature="0" />
    <path
       d="m -64.631946,935.17991 0.10875,0.0312 c -0.56125,-0.30625 -1.14375,-0.5925 -1.73125,-0.8575 -0.1025,-0.0537 -0.22375,-0.10375 -0.34,-0.15375 -0.695,-0.29875 -1.39375,-0.58 -2.1275,-0.81375 -0.009,0 -0.015,-0.0125 -0.0275,-0.0125 -0.715,-0.23375 -1.4325,-0.42125 -2.15875,-0.59 -0.14,-0.0275 -0.2625,-0.0613 -0.39,-0.08 -0.7175,-0.15625 -1.44375,-0.27875 -2.1925,-0.3625 -0.14,-0.006 -0.28125,-0.0312 -0.4275,-0.0438 -0.225,-0.0187 -0.44875,-0.0463 -0.67375,-0.0588 l 0,0.0275 0,0.87375 0,23.07125 15.75875,-16.68 c -1.73375,-1.71875 -3.6775,-3.19375 -5.79875,-4.35125"
       style="fill:#60928c;fill-opacity:1;fill-rule:nonzero;stroke:none"
       id="path6175"
       inkscape:connector-curvature="0" />
    <path
       d="m -80.917246,957.46021 -13.46375,-14.2275 -1.335,-1.41875 c -3.39375,4.285 -5.502504,9.71375 -5.805004,15.64625 l 1.716254,0 18.8875,0 z"
       style="fill:#60928c;fill-opacity:1;fill-rule:nonzero;stroke:none"
       id="path6179"
       inkscape:connector-curvature="0" />
    <path
       d="m -74.594196,1006.4976 23.67625,0 0,-22.11004 -23.67625,0 0,22.11004 z"
       style="fill:#60928c;fill-opacity:1;fill-rule:nonzero;stroke:none"
       id="path6181"
       inkscape:connector-curvature="0" />
    <path
       d="m -74.594196,981.01631 23.67625,0 0,-20.19125 -23.67625,0 0,20.19125 z"
       style="fill:#60928c;fill-opacity:1;fill-rule:nonzero;stroke:none"
       id="path6183"
       inkscape:connector-curvature="0" />
    <path
       d="m -92.163846,940.65721 14.215,15.0475 0,-22.3125 0,-1.1225 c -5.97625,0.41125 -11.36375,3.0125 -15.49375,7.04 l 1.27875,1.3475 z"
       style="fill:#60928c;fill-opacity:1;fill-rule:nonzero;stroke:none"
       id="path6187"
       inkscape:connector-curvature="0" />
    <path
       d="m -101.59515,984.38911 0,22.10999 1.51625,0 0.165004,0 21.96375,0 0,-22.10999 -21.96375,0 -1.681254,0 z"
       style="fill:#60928c;fill-opacity:1;fill-rule:nonzero;stroke:none"
       id="path6191"
       inkscape:connector-curvature="0" />
    <path
       d="m -101.59515,960.82631 0,20.19125 1.681254,0 21.96375,0 0,-20.19125 -21.96375,0 -1.681254,0 z"
       style="fill:#60928c;fill-opacity:1;fill-rule:nonzero;stroke:none"
       id="path6195"
       inkscape:connector-curvature="0" />
    <path
       d="m -50.919196,981.01631 -23.67625,0 0,-20.19125 23.67625,0 0,20.19125 z m 0,25.48129 -23.67625,0 0,-22.11004 23.67625,0 0,22.11004 z m -27.03125,-73.10504 0,22.3125 -14.2125,-15.0475 -1.23875,-1.31 c 4.1025,-3.93 9.48625,-6.4575 15.45125,-6.87125 l 0,0.91625 z m 0,47.62375 -21.96375,0 -1.413754,0 0,-19.37125 0,-0.8175 1.413754,0 21.96375,0 0,20.18875 z m 0,25.48129 -21.96375,0 -0.162504,0 -1.51875,0 0,-0.2238 0.2675,-0.225 0,-21.66124 1.413754,0 21.96375,0 0,22.11004 z m -21.4025,-58.48129 c 0.025,-0.0775 0.0712,-0.1625 0.1025,-0.24375 0.26875,-0.63 0.5625,-1.235 0.88375,-1.84875 0.0675,-0.1125 0.115,-0.235 0.18375,-0.35625 0.72375,-1.31625 1.56,-2.56375 2.48,-3.7275 l 1.3225,1.39375 13.4625,14.225 -18.8875,0 -1.503754,0 c 0.0563,-3.34125 0.74875,-6.52625 1.956254,-9.4425 m 40.47625,-8.4375 -15.7175,16.6325 0,-23.07125 0,-0.66375 c 6.095,0.41375 11.58875,3.01875 15.7175,7.1025 m 7.88625,17.88 -20.16,0 14.555,-15.385 c 3.27125,4.2425 5.30625,9.58 5.605,15.385 m -4.9475,-20.62875 c -0.006,-0.0125 -0.0188,-0.0212 -0.0312,-0.0212 -1.955,-1.9025 -4.18625,-3.535 -6.6225,-4.82625 -0.025,-0.025 -0.0312,-0.025 -0.0525,-0.0312 -0.7925,-0.4275 -1.61,-0.8075 -2.44625,-1.15625 -0.1025,-0.0438 -0.21125,-0.075 -0.32125,-0.12875 -0.7475,-0.29875 -1.51875,-0.58625 -2.30125,-0.82375 -0.2275,-0.0712 -0.49,-0.12125 -0.73375,-0.18375 -0.6575,-0.18375 -1.32875,-0.3775 -2.00875,-0.50875 -0.44625,-0.0937 -0.90125,-0.1425 -1.36625,-0.2025 -0.4925,-0.0837 -0.97875,-0.18125 -1.485,-0.225 -0.97,-0.105 -1.94875,-0.14625 -2.9375,-0.14625 -16.13375,0 -29.201254,13.055 -29.201254,29.175 0,0.0625 0.0188,0.135 0.0188,0.19375 l -0.0188,0 0,51.62624 58.366254,0 0,-51.81999 c 0,-8.21625 -3.4125,-15.615 -8.85875,-20.92125"
       style="fill:#71685f;fill-opacity:1;fill-rule:nonzero;stroke:none"
       id="path6197"
       inkscape:connector-curvature="0" />
    <path
       d="m -332.05045,1031.5526 321.243754,0 0,-5.325 -321.243754,0 0,5.325 z"
       style="fill:#71685f;fill-opacity:1;fill-rule:nonzero;stroke:none"
       id="path6199"
       inkscape:connector-curvature="0" />
    <path
       d="m -332.05045,1036.8776 321.243754,0 0,-5.325 -321.243754,0 0,5.325 z"
       style="fill:#60554b;fill-opacity:1;fill-rule:nonzero;stroke:none"
       id="path6201"
       inkscape:connector-curvature="0" />
    <path
       d="m -260.01535,1168.7848 -17.1625,0 c 0,0 -0.3775,-8.1575 -2.0275,-14.2675 -2.13375,-7.905 -5.2975,-14.1 -7.03125,-14.4775 l -0.0312,-0.1087 -0.25625,0.1125 c -0.0188,0 -0.025,0 -0.0312,0 l 0,0.01 -1.11375,0.4862 8.82875,29.9688 0,19.3987 1.06625,0 0,-15.0887 c 0.175,-0.1338 0.39625,-0.2925 0.64625,-0.465 l 0,12.1937 0.7425,0 0,-12.67 c 2.7225,-1.6312 8.05375,-3.6875 14.04875,0.025 l 0,12.645 0.7425,0 0,-12.1562 c 0.16625,0.11 0.325,0.2287 0.4875,0.3525 l 0,15.1637 1.09125,0 0,-21.1212 z"
       style="fill:#f8e9cb;fill-opacity:1;fill-rule:nonzero;stroke:none"
       id="path6205"
       inkscape:connector-curvature="0" />
    <path
       d="m -229.10185,1168.7848 17.15625,0 c 0,0 0.38375,-8.1575 2.03375,-14.2675 2.13375,-7.905 5.2975,-14.1 7.025,-14.4775 l 0.0375,-0.1087 0.25625,0.1125 c 0.0125,0 0.025,0 0.0312,0 l 0,0.01 1.1125,0.4862 -8.8275,29.9688 0,19.3987 -1.06625,0 0,-15.0887 c -0.175,-0.1338 -0.39625,-0.2925 -0.6525,-0.465 l 0,12.1937 -0.7425,0 0,-12.67 c -2.71625,-1.6312 -8.0475,-3.6875 -14.0425,0.025 l 0,12.645 -0.7425,0 0,-12.1562 c -0.1725,0.11 -0.33125,0.2287 -0.49375,0.3525 l 0,15.1637 -1.085,0 0,-21.1212 z"
       style="fill:#f8e9cb;fill-opacity:1;fill-rule:nonzero;stroke:none"
       id="path6209"
       inkscape:connector-curvature="0" />
    <path
       d="m -233.01345,1188.3722 c 0,0.845 -0.32125,1.5313 -0.7175,1.5313 l -23.07375,0 c -0.4025,0 -0.72375,-0.6863 -0.72375,-1.5313 0,-0.8512 0.32125,-1.5312 0.72375,-1.5312 l 23.07375,0 c 0.39625,0 0.7175,0.68 0.7175,1.5312"
       style="fill:#4e4237;fill-opacity:1;fill-rule:nonzero;stroke:none"
       id="path6213"
       inkscape:connector-curvature="0" />
    <path
       d="m -242.96795,1189.9038 -4.60125,0 0,-35.2425 4.60125,0 0,35.2425 z"
       style="fill:#4e4237;fill-opacity:1;fill-rule:nonzero;stroke:none"
       id="path6215"
       inkscape:connector-curvature="0" />
    <path
       d="m -219.22005,1153.1268 c 0,0.8513 -0.69,1.535 -1.535,1.535 l -49.02625,0 c -0.8525,0 -1.535,-0.6837 -1.535,-1.535 0,-0.845 0.6825,-1.5287 1.535,-1.5287 l 49.02625,0 c 0.845,0 1.535,0.6837 1.535,1.5287"
       style="fill:#f8e9cb;fill-opacity:1;fill-rule:nonzero;stroke:none"
       id="path6219"
       inkscape:connector-curvature="0" />
    <path
       d="m -110.93165,1168.7848 -17.15625,0 c 0,0 -0.38375,-8.1575 -2.03375,-14.2675 -2.13375,-7.905 -5.2975,-14.1 -7.025,-14.4775 l -0.0375,-0.1087 -0.25625,0.1125 c -0.0125,0 -0.025,0 -0.0312,0 l 0,0.01 -1.11375,0.4862 8.82875,29.9688 0,19.3987 1.06625,0 0,-15.0887 c 0.175,-0.1338 0.39625,-0.2925 0.6525,-0.465 l 0,12.1937 0.7425,0 0,-12.67 c 2.71625,-1.6312 8.0475,-3.6875 14.0425,0.025 l 0,12.645 0.7425,0 0,-12.1562 c 0.1725,0.11 0.33125,0.2287 0.49375,0.3525 l 0,15.1637 1.085,0 0,-21.1212 z"
       style="fill:#f8e9cb;fill-opacity:1;fill-rule:nonzero;stroke:none"
       id="path6223"
       inkscape:connector-curvature="0" />
    <path
       d="m -80.018546,1168.7848 17.15625,0 c 0,0 0.38375,-8.1575 2.03375,-14.2675 2.13375,-7.905 5.2975,-14.1 7.03125,-14.4775 l 0.0312,-0.1087 0.25625,0.1125 c 0.0188,0 0.025,0 0.0312,0 l 0,0.01 1.1125,0.4862 -8.8275,29.9688 0,19.3987 -1.06625,0 0,-15.0887 c -0.175,-0.1338 -0.39625,-0.2925 -0.64625,-0.465 l 0,12.1937 -0.7425,0 0,-12.67 c -2.7225,-1.6312 -8.05375,-3.6875 -14.04875,0.025 l 0,12.645 -0.7425,0 0,-12.1562 c -0.16625,0.11 -0.33125,0.2287 -0.4875,0.3525 l 0,15.1637 -1.09125,0 0,-21.1212 z"
       style="fill:#f8e9cb;fill-opacity:1;fill-rule:nonzero;stroke:none"
       id="path6227"
       inkscape:connector-curvature="0" />
    <path
       d="m -83.929846,1188.3722 c 0,0.845 -0.31875,1.5313 -0.7175,1.5313 l -23.073754,0 c -0.39625,0 -0.7175,-0.6863 -0.7175,-1.5313 0,-0.8512 0.32125,-1.5312 0.7175,-1.5312 l 23.073754,0 c 0.39875,0 0.7175,0.68 0.7175,1.5312"
       style="fill:#4e4237;fill-opacity:1;fill-rule:nonzero;stroke:none"
       id="path6231"
       inkscape:connector-curvature="0" />
    <path
       d="m -93.884196,1189.9038 -4.595,0 0,-35.2425 4.595,0 0,35.2425 z"
       style="fill:#4e4237;fill-opacity:1;fill-rule:nonzero;stroke:none"
       id="path6233"
       inkscape:connector-curvature="0" />
    <path
       d="m -70.130346,1153.1268 c 0,0.8513 -0.69625,1.535 -1.535,1.535 l -49.032504,0 c -0.8525,0 -1.535,-0.6837 -1.535,-1.535 0,-0.845 0.6825,-1.5287 1.535,-1.5287 l 49.032504,0 c 0.83875,0 1.535,0.6837 1.535,1.5287"
       style="fill:#f8e9cb;fill-opacity:1;fill-rule:nonzero;stroke:none"
       id="path6237"
       inkscape:connector-curvature="0" />
    <path
       d="m 50.87646,1007.9198 -10.39375,0.01 -5.89875,-24.07872 20.80625,0.48375 -4.51375,23.58877 z"
       style="fill:#f8e9cb;fill-opacity:1;fill-rule:nonzero;stroke:none"
       id="path5829"
       inkscape:connector-curvature="0" />
    <path
       d="m 46.06946,987.48553 8.2325,0 -3.7,20.08497 -4.5325,0 0,-20.08497 z m -0.87625,20.08497 -3.99625,0 -4.37,-20.08497 8.36625,0 0,20.08497 z m 10.02875,118.855 1.59375,-2.0125 0.14,0 0,-0.1775 0.0562,-0.088 -0.0562,0 0,-2.545 -0.3025,0 c 0,0 -5.43625,-0.575 -7.66125,-6.7037 l 2.645,-2.2675 -0.255,0 -3.0575,-2.3838 -0.71375,0 1.9675,-2.1612 -0.12125,-0.01 -2.04625,-2.075 0.0125,0 0,-85.2675 c 0.41125,-0.066 1.04875,-0.275 1.80875,-0.9738 1.07625,-0.9975 1.5725,-2.735 1.4975,-5.1562 -0.0438,-1.4413 0.63375,-2.885 1.75625,-3.34 0.35875,-0.1438 1.7725,-0.6338 2.69875,0.605 0.58875,0.7887 0.49875,2.0612 0.3275,2.6137 -0.0412,0.1275 -0.0975,0.2313 -0.14625,0.3425 -0.25625,-0.63 -0.83375,-1.035 -1.4475,-0.9325 -0.7275,0.1125 -1.21375,0.8675 -1.08625,1.6875 0.14,0.805 0.83625,1.3638 1.56625,1.2488 0.19375,-0.031 0.38375,-0.1288 0.53,-0.2375 0.68375,-0.2375 1.2225,-0.9825 1.51625,-1.45 0.25,-0.3875 0.56125,-2.6338 -0.42125,-3.8775 -0.88875,-1.13 -2.3925,-1.4788 -3.88,-0.8675 -1.54125,0.62 -2.4925,2.0837 -2.4175,4.3425 0.0587,1.89 -0.28125,3.4312 -0.98875,4.1075 -0.38375,0.3587 -0.90875,0.5525 -1.31375,0.665 l 0,-3.7438 0.1875,0 0.68875,-0.7237 c 0,0 -0.19,-4.8375 1.95,-6.6 l 0.9725,-0.019 3.9,-20.94377 4.9,0 c 0,0 -9.5475,-10.815 -12.1875,-14.31125 l -1.16875,0.0188 0,-0.865 0.9575,0 0,-2.34875 -1.785,0 0.085,-1.28125 c 1.8025,-3.75 -0.865,-6.0925 -0.865,-6.0925 -2.44875,3.525 -0.42125,6.0925 -0.42125,6.0925 l 0,1.28125 -2.13875,0 0,2.34875 1.06625,0 0,0.88375 -1.195,0.006 c -0.015,0.0463 -0.065,0.12375 -0.0962,0.1675 l -0.0588,0.006 -0.05,0.17875 c -1.84125,3.02875 -12.48375,13.915 -12.48375,13.915 l 6.11625,0 4.3675,20.94372 0.96375,0.1438 c 0,0 2.14625,3.8987 1.76,6.5412 l 0.6575,0.6575 0.39,0 0,3.8525 c -0.21875,-0.015 -1.21625,-0.165 -1.85625,-0.7737 -0.7075,-0.6763 -1.05375,-2.2175 -0.995,-4.1075 0.0688,-2.2588 -0.88875,-3.7225 -2.41125,-4.3425 -1.49375,-0.6113 -3.00375,-0.2625 -3.88625,0.8675 -0.98875,1.2437 -0.6775,3.49 -0.4275,3.8775 0.33,0.5237 1.00375,1.4025 1.8025,1.475 0.2625,0.165 0.5625,0.2675 0.8775,0.2125 0.72625,-0.1225 1.21875,-0.8713 1.07875,-1.6875 -0.13375,-0.8088 -0.8325,-1.37 -1.56,-1.2488 -0.52375,0.079 -0.9075,0.5 -1.0475,1.0238 -0.085,-0.1275 -0.16625,-0.265 -0.2125,-0.4338 -0.1775,-0.5525 -0.26875,-1.825 0.3275,-2.6137 0.9325,-1.2388 2.34,-0.7488 2.695,-0.605 1.12,0.455 1.81,1.8987 1.76,3.34 -0.0788,2.4212 0.4275,4.1587 1.4875,5.1562 1.235,1.1388 2.21125,1.0113 2.2775,0.995 l 0.09,-0.5987 0,85.845 -0.15625,0 -1.49375,1.85 -0.18125,0 0.085,0.1275 -0.11,0.1312 0.20625,0 1.5125,2.1338 -0.81125,0 -2.60125,2.4675 0.21875,0 2.065,2.165 -0.14,0 c 0,0 -5.0325,7.1212 -8.32875,6.7225 l -0.6025,0 0,2.81 0.34625,0 2.05875,1.9462 0,27.6225 -2.08375,1.7338 -0.3025,0 0.13375,0.1525 -0.13375,0.11 0.225,0 2.16125,2.3925 0,16.9687 -0.0525,0 -2.39,2.7863 0.14625,0 0,8.7687 23.05,0 0,-8.7687 0.14625,0 -1.79375,-2.7863 0.0562,0 0,-16.95 1.63125,-2.4112 0.1775,0 -0.1025,-0.11 0.1025,-0.1525 -0.23625,0 -1.5725,-1.7438 0,-27.5462 0.0562,0 z"
       style="fill:#4e4237;fill-opacity:1;fill-rule:nonzero;stroke:none"
       id="path5833"
       inkscape:connector-curvature="0" />
    <path
       d="m 84.037058,1022.3563 -37.226248,0 0,-0.8325 37.226248,0 0,0.8325 z"
       style="fill:#71685f;fill-opacity:1;fill-rule:nonzero;stroke:none"
       id="path5835"
       inkscape:connector-curvature="0" />
    <path
       d="m 44.72331,1022.3563 -37.22,0 0,-0.8325 37.22,0 0,0.8325 z"
       style="fill:#71685f;fill-opacity:1;fill-rule:nonzero;stroke:none"
       id="path5837"
       inkscape:connector-curvature="0" />
    <path
       d="m 79.853308,1074.8338 -28.438748,0 0,-54.1488 28.438748,0 0,54.1488 z"
       style="fill:#f8e9cb;fill-opacity:1;fill-rule:nonzero;stroke:none"
       id="path5839"
       inkscape:connector-curvature="0" />
    <path
       d="m 39.28956,1074.8338 -28.43875,0 0,-54.1488 28.43875,0 0,54.1488 z"
       style="fill:#f8e9cb;fill-opacity:1;fill-rule:nonzero;stroke:none"
       id="path5841"
       inkscape:connector-curvature="0" />
  </g>
</svg>
