<?xml version="1.0" encoding="UTF-8" standalone="no"?>
<!-- Created with Inkscape (http://www.inkscape.org/) -->

<svg
   xmlns:dc="http://purl.org/dc/elements/1.1/"
   xmlns:cc="http://creativecommons.org/ns#"
   xmlns:rdf="http://www.w3.org/1999/02/22-rdf-syntax-ns#"
   xmlns:svg="http://www.w3.org/2000/svg"
   xmlns="http://www.w3.org/2000/svg"
   xmlns:sodipodi="http://sodipodi.sourceforge.net/DTD/sodipodi-0.dtd"
   xmlns:inkscape="http://www.inkscape.org/namespaces/inkscape"
   width="151.24829mm"
   height="83.761795mm"
   viewBox="0 0 535.91914 296.79376"
   id="svg15101"
   version="1.1"
   inkscape:version="0.91 r"
   sodipodi:docname="footer-2.svg">
  <defs
     id="defs15103" />
  <sodipodi:namedview
     id="base"
     pagecolor="#ffffff"
     bordercolor="#666666"
     borderopacity="1.0"
     inkscape:pageopacity="0.0"
     inkscape:pageshadow="2"
     inkscape:zoom="1.4"
     inkscape:cx="317.24569"
     inkscape:cy="82.968508"
     inkscape:document-units="px"
     inkscape:current-layer="layer1"
     showgrid="false"
     fit-margin-top="0"
     fit-margin-left="0"
     fit-margin-right="0"
     fit-margin-bottom="0"
     inkscape:window-width="1366"
     inkscape:window-height="744"
     inkscape:window-x="0"
     inkscape:window-y="24"
     inkscape:window-maximized="1" />
  <metadata
     id="metadata15106">
    <rdf:RDF>
      <cc:Work
         rdf:about="">
        <dc:format>image/svg+xml</dc:format>
        <dc:type
           rdf:resource="http://purl.org/dc/dcmitype/StillImage" />
        <dc:title></dc:title>
      </cc:Work>
    </rdf:RDF>
  </metadata>
  <g
     inkscape:label="Layer 1"
     inkscape:groupmode="layer"
     id="layer1"
     transform="translate(-37.754726,-475.3939)">
    <path
       d="m 553.2976,760.57515 -515.542499,0 0,-19.35875 515.542499,0 0,19.35875 z"
       style="fill:#60554b;fill-opacity:1;fill-rule:nonzero;stroke:none"
       id="path6377"
       inkscape:connector-curvature="0" />
    <path
       d="m 170.27136,634.5989 -1.32,0 0,-25.74125 1.32,0 0,25.74125 z"
       style="fill:#71685f;fill-opacity:1;fill-rule:nonzero;stroke:none"
       id="path6379"
       inkscape:connector-curvature="0" />
    <path
       d="m 179.77297,644.2326 c 0,-1.5475 -0.3525,-3.02625 -0.97375,-4.345 -1.6275,-3.43125 -5.13125,-5.805 -9.18875,-5.805 -4.04875,0 -7.5525,2.37375 -9.18125,5.805 -0.62375,1.31875 -0.97625,2.7975 -0.97625,4.345 0,5.61125 4.54875,10.16 10.1575,10.16 5.615,0 10.1625,-4.54875 10.1625,-10.16"
       style="fill:#f8e9cb;fill-opacity:1;fill-rule:nonzero;stroke:none"
       id="path6383"
       inkscape:connector-curvature="0" />
    <path
       d="m 178.79822,639.8886 c -1.625,-3.435 -5.13124,-5.805 -9.18625,-5.805 -4.04874,0 -7.55249,2.37 -9.18374,5.805 l 18.36999,0 z"
       style="fill:#71685f;fill-opacity:1;fill-rule:nonzero;stroke:none"
       id="path6387"
       inkscape:connector-curvature="0" />
    <path
       d="m 535.6826,603.08765 -447.366249,0 0,-22.42875 447.366249,0 0,22.42875 z"
       style="fill:#60554b;fill-opacity:1;fill-rule:nonzero;stroke:none"
       id="path6389"
       inkscape:connector-curvature="0" />
    <path
       d="m 103.79035,599.0749 -6.457499,0 0,46.3325 6.457499,-7.6925 0,-38.64 z"
       style="fill:#4e4237;fill-opacity:1;fill-rule:nonzero;stroke:none"
       id="path6393"
       inkscape:connector-curvature="0" />
    <path
       d="m 97.332351,655.458 0,82.9775 6.457499,0 0,-90.67875 -6.457499,7.70125 z"
       style="fill:#4e4237;fill-opacity:1;fill-rule:nonzero;stroke:none"
       id="path6397"
       inkscape:connector-curvature="0" />
    <path
       d="m 150.46811,600.5617 -4.95001,-4.1575 -41.7275,41.30875 0,10.045 46.67751,-47.19625 z"
       style="fill:#71685f;fill-opacity:1;fill-rule:nonzero;stroke:none"
       id="path6401"
       inkscape:connector-curvature="0" />
    <path
       d="m 103.79035,637.7135 -6.457499,7.6925 0,10.05 6.457499,-7.69875 0,-10.04375 z"
       style="fill:#4e4237;fill-opacity:1;fill-rule:nonzero;stroke:none"
       id="path6405"
       inkscape:connector-curvature="0" />
    <path
       d="m 553.17011,741.9989 -315.50125,0 0,-130.9975 315.50125,0 0,130.9975 z"
       style="fill:#4e4237;fill-opacity:1;fill-rule:nonzero;stroke:none"
       id="path6407"
       inkscape:connector-curvature="0" />
    <path
       d="m 531.50886,725.13515 -279.96001,0 0,-77.3575 279.96001,0 0,77.3575 z"
       style="fill:#568c86;fill-opacity:1;fill-rule:nonzero;stroke:none"
       id="path6409"
       inkscape:connector-curvature="0" />
    <path
       d="m 307.19885,725.71515 -5.06,0 0,-81.59 5.06,0 0,81.59 z"
       style="fill:#4e4237;fill-opacity:1;fill-rule:nonzero;stroke:none"
       id="path6411"
       inkscape:connector-curvature="0" />
    <path
       d="m 422.69635,713.7064 -6.42875,0 0,-65.185 6.42875,0 0,65.185 z"
       style="fill:#4e4237;fill-opacity:1;fill-rule:nonzero;stroke:none"
       id="path6413"
       inkscape:connector-curvature="0" />
    <path
       d="m 534.8901,725.71515 -231.06625,0 0,-19.275 231.06625,0 0,19.275 z"
       style="fill:#4e4237;fill-opacity:1;fill-rule:nonzero;stroke:none"
       id="path6415"
       inkscape:connector-curvature="0" />
    <path
       d="m 551.36635,670.1314 -316.61499,0 0,-23.395 316.61499,0 0,23.395 z"
       style="opacity:0.5;fill:#cccccc;fill-opacity:1;fill-rule:nonzero;stroke:none"
       id="path6437"
       inkscape:connector-curvature="0" />
    <path
       d="m 265.08623,625.6624 269.84375,0 24.73874,22.01375 -322.6975,0 28.11501,-22.01375 z"
       style="fill:#d8713f;fill-opacity:1;fill-rule:nonzero;stroke:none"
       id="path6441"
       inkscape:connector-curvature="0" />
    <path
       d="m 257.51022,647.5348 -10.84625,0 26.09625,-21.73 9.05,0 -24.3,21.73 z"
       style="fill:#f8e9cb;fill-opacity:1;fill-rule:nonzero;stroke:none"
       id="path6445"
       inkscape:connector-curvature="0" />
    <path
       d="m 281.76148,647.5348 -10.83001,0 22.06876,-21.73 9.05,0 -20.28875,21.73 z"
       style="fill:#f8e9cb;fill-opacity:1;fill-rule:nonzero;stroke:none"
       id="path6449"
       inkscape:connector-curvature="0" />
    <path
       d="m 306.02197,647.5348 -10.84249,0 18.04875,-21.73 9.04249,0 -16.24875,21.73 z"
       style="fill:#f8e9cb;fill-opacity:1;fill-rule:nonzero;stroke:none"
       id="path6453"
       inkscape:connector-curvature="0" />
    <path
       d="m 330.2731,647.5348 -10.84625,0 14.03125,-21.73 9.0525,0 -12.2375,21.73 z"
       style="fill:#f8e9cb;fill-opacity:1;fill-rule:nonzero;stroke:none"
       id="path6457"
       inkscape:connector-curvature="0" />
    <path
       d="m 354.52735,647.5348 -10.8525,0 10.01375,-21.73 9.06126,0 -8.22251,21.73 z"
       style="fill:#f8e9cb;fill-opacity:1;fill-rule:nonzero;stroke:none"
       id="path6461"
       inkscape:connector-curvature="0" />
    <path
       d="m 378.77535,647.5348 -10.84625,0 5.99625,-21.73 9.0575,0 -4.2075,21.73 z"
       style="fill:#f8e9cb;fill-opacity:1;fill-rule:nonzero;stroke:none"
       id="path6465"
       inkscape:connector-curvature="0" />
    <path
       d="m 403.02661,647.5348 -10.83375,0 1.975,-21.73 9.04875,0 -0.19,21.73 z"
       style="fill:#f8e9cb;fill-opacity:1;fill-rule:nonzero;stroke:none"
       id="path6469"
       inkscape:connector-curvature="0" />
    <path
       d="m 427.28086,647.5348 -10.8425,0 -2.04,-21.73 9.04625,0 3.83625,21.73 z"
       style="fill:#f8e9cb;fill-opacity:1;fill-rule:nonzero;stroke:none"
       id="path6473"
       inkscape:connector-curvature="0" />
    <path
       d="m 451.52611,647.5348 -10.83625,0 -6.05875,-21.73 9.04625,0 7.84875,21.73 z"
       style="fill:#f8e9cb;fill-opacity:1;fill-rule:nonzero;stroke:none"
       id="path6477"
       inkscape:connector-curvature="0" />
    <path
       d="m 475.78949,647.5348 -10.84875,0 -10.06376,-21.73 9.04001,0 11.8725,21.73 z"
       style="fill:#f8e9cb;fill-opacity:1;fill-rule:nonzero;stroke:none"
       id="path6481"
       inkscape:connector-curvature="0" />
    <path
       d="m 500.02535,647.5348 -10.83375,0 -14.09625,-21.73 9.04625,0 15.88375,21.73 z"
       style="fill:#f8e9cb;fill-opacity:1;fill-rule:nonzero;stroke:none"
       id="path6485"
       inkscape:connector-curvature="0" />
    <path
       d="m 524.30074,647.5348 -10.85875,0 -18.105,-21.73 9.04625,0 19.9175,21.73 z"
       style="fill:#f8e9cb;fill-opacity:1;fill-rule:nonzero;stroke:none"
       id="path6489"
       inkscape:connector-curvature="0" />
    <path
       d="m 548.54011,647.5348 -10.83625,0 -22.12875,-21.73 9.04,0 23.925,21.73 z"
       style="fill:#f8e9cb;fill-opacity:1;fill-rule:nonzero;stroke:none"
       id="path6493"
       inkscape:connector-curvature="0" />
    <path
       d="m 559.67011,652.32015 -323.26876,0 0,-4.925 323.26876,0 0,4.925 z"
       style="fill:#a2552f;fill-opacity:1;fill-rule:nonzero;stroke:none"
       id="path6495"
       inkscape:connector-curvature="0" />
    <path
       d="m 564.12511,611.39765 -526.370009,0 0,-16.18375 526.370009,0 0,16.18375 z"
       style="fill:#574b41;fill-opacity:1;fill-rule:nonzero;stroke:none"
       id="path6497"
       inkscape:connector-curvature="0" />
    <path
       d="m 377.77135,580.9214 -5.9675,0 0,-105.5275 5.9675,0 0,105.5275 z"
       style="fill:#4e4237;fill-opacity:1;fill-rule:nonzero;stroke:none"
       id="path6499"
       inkscape:connector-curvature="0" />
    <path
       d="m 491.26886,580.9214 -5.97375,0 0,-105.5275 5.97375,0 0,105.5275 z"
       style="fill:#4e4237;fill-opacity:1;fill-rule:nonzero;stroke:none"
       id="path6501"
       inkscape:connector-curvature="0" />
    <path
       d="m 501.22636,566.99015 -137.3925,0 0,-83.63 137.3925,0 0,83.63 z"
       style="fill:#4e4237;fill-opacity:1;fill-rule:nonzero;stroke:none"
       id="path6503"
       inkscape:connector-curvature="0" />
    <path
       d="m 495.24385,562.0114 -126.42749,0 0,-73.66625 126.42749,0 0,73.66625 z"
       style="fill:#f8e9cb;fill-opacity:1;fill-rule:nonzero;stroke:none"
       id="path6505"
       inkscape:connector-curvature="0" />
    <path
       d="m 499.72261,478.8839 -135.88875,0 0,-1.49375 135.88875,0 0,1.49375 z"
       style="fill:#4e4237;fill-opacity:1;fill-rule:nonzero;stroke:none"
       id="path6507"
       inkscape:connector-curvature="0" />
    <path
       d="m 499.72261,571.96515 -135.88875,0 0,-1.49375 135.88875,0 0,1.49375 z"
       style="fill:#4e4237;fill-opacity:1;fill-rule:nonzero;stroke:none"
       id="path6509"
       inkscape:connector-curvature="0" />
    <path
       d="m 416.71385,722.6989 -109.85125,0 0,-11.09875 109.85125,0 0,11.09875 z"
       style="fill:#f8e9cb;fill-opacity:1;fill-rule:nonzero;stroke:none"
       id="path6511"
       inkscape:connector-curvature="0" />
    <path
       d="m 531.80511,721.9789 -108.915,0 0,-11.105 108.915,0 0,11.105 z"
       style="fill:#f8e9cb;fill-opacity:1;fill-rule:nonzero;stroke:none"
       id="path6513"
       inkscape:connector-curvature="0" />
    <path
       d="m 102.58723,725.4 0,-12.6525 -40.486254,0 0,11.4425 -24.34625,0 0,17.80875 199.982504,0 0,-16.59875 -135.15,0 z"
       style="fill:#4e4237;fill-opacity:1;fill-rule:nonzero;stroke:none"
       id="path6517"
       inkscape:connector-curvature="0" />
    <path
       d="m 173.13761,724.93015 -7.04376,0 0,-35.19 7.04376,0 0,35.19 z"
       style="fill:#4e4237;fill-opacity:1;fill-rule:nonzero;stroke:none"
       id="path6519"
       inkscape:connector-curvature="0" />
    <path
       d="m 201.28386,696.33765 -63.34501,0 0,-7.92375 63.34501,0 0,7.92375 z"
       style="fill:#d8713f;fill-opacity:1;fill-rule:nonzero;stroke:none"
       id="path6521"
       inkscape:connector-curvature="0" />
    <path
       d="m 125.8176,724.93015 4.505,0 0,-14.29 -4.505,0 0,14.29 z"
       style="fill:#4e4237;fill-opacity:1;fill-rule:nonzero;stroke:none"
       id="path6523"
       inkscape:connector-curvature="0" />
    <path
       d="m 137.6426,724.93015 4.50375,0 0,-14.29 -4.50375,0 0,14.29 z"
       style="fill:#4e4237;fill-opacity:1;fill-rule:nonzero;stroke:none"
       id="path6525"
       inkscape:connector-curvature="0" />
    <path
       d="m 116.52673,706.2601 0,4.50375 9.29,0 4.5075,0 7.3175,0 4.50751,0 9.29,0 0,-4.50375 -34.91251,0 z"
       style="fill:#d8713f;fill-opacity:1;fill-rule:nonzero;stroke:none"
       id="path6529"
       inkscape:connector-curvature="0" />
    <path
       d="m 197.07885,724.93015 4.50375,0 0,-14.29 -4.50375,0 0,14.29 z"
       style="fill:#4e4237;fill-opacity:1;fill-rule:nonzero;stroke:none"
       id="path6531"
       inkscape:connector-curvature="0" />
    <path
       d="m 208.9051,724.93015 4.50376,0 0,-14.29 -4.50376,0 0,14.29 z"
       style="fill:#4e4237;fill-opacity:1;fill-rule:nonzero;stroke:none"
       id="path6533"
       inkscape:connector-curvature="0" />
    <path
       d="m 187.79073,706.2601 0,4.50375 9.28999,0 4.50375,0 7.32126,0 4.50375,0 9.28999,0 0,-4.50375 -34.90874,0 z"
       style="fill:#d8713f;fill-opacity:1;fill-rule:nonzero;stroke:none"
       id="path6537"
       inkscape:connector-curvature="0" />
    <path
       d="m 81.971351,652.62015 -29.4275,0 0,-32.35125 29.4275,0 0,32.35125 z"
       style="fill:#d8713f;fill-opacity:1;fill-rule:nonzero;stroke:none"
       id="path6539"
       inkscape:connector-curvature="0" />
    <path
       d="m 81.971351,625.2164 -29.4275,0 0,-4.9475 29.4275,0 0,4.9475 z"
       style="fill:#a2552f;fill-opacity:1;fill-rule:nonzero;stroke:none"
       id="path6541"
       inkscape:connector-curvature="0" />
    <path
       d="m 56.477601,611.3189 -2.47375,0 0,9.10875 2.47375,0 0,-9.10875 z"
       style="fill:#71685f;fill-opacity:1;fill-rule:nonzero;stroke:none"
       id="path6543"
       inkscape:connector-curvature="0" />
    <path
       d="m 80.511351,611.3189 -2.4675,0 0,9.10875 2.4675,0 0,-9.10875 z"
       style="fill:#71685f;fill-opacity:1;fill-rule:nonzero;stroke:none"
       id="path6545"
       inkscape:connector-curvature="0" />
    <path
       d="m 75.554476,641.8076 c 0.58375,0 1.0475,0.465 1.0475,1.045 0,0.58 -0.46375,1.0475 -1.0475,1.0475 -0.58,0 -1.045,-0.4675 -1.045,-1.0475 0,-0.58 0.465,-1.045 1.045,-1.045 m -1.6475,1.93375 c 0.01,0.15875 0.40875,0.97 1.45125,1.0425 0.655,0.0437 2.12125,-0.53 2.10875,-2.0875 -0.01625,-1.775 -2.1025,-2.405 -2.1025,-2.405 l -15.05125,0 c 0.34375,5.5625 5.075,6.75375 5.075,6.75375 l -4.7625,0.0275 0,0.9275 15.5625,0 0,-0.9675 -6.4425,0 c 2.93875,-0.93875 4.16125,-3.29125 4.16125,-3.29125"
       style="fill:#4e4237;fill-opacity:1;fill-rule:nonzero;stroke:none"
       id="path6549"
       inkscape:connector-curvature="0" />
    <path
       d="m 65.739726,636.2939 c 0.695,0.125 2.255,0.18125 2.85125,2.025 -0.02875,0.53 0.02125,0.86375 -0.15875,1.26 0.2525,-0.48125 0.86,-1.7625 1.00125,-2.98875 0.08125,-0.7075 -0.3125,-2.02375 -0.9925,-2.02375 -0.67625,0 -2.65125,0.72625 -2.1425,-0.59375 0.6925,-1.22875 2.10875,-2.73875 2.31375,-4.30125 0.10375,-1.05375 -0.8725,-2.35875 -2.31375,-2.22125 0,0 2.695,0.0375 1.16,3.2475 -0.49,0.7675 -1.21,1.7975 -3.47125,3.5375 -0.53375,0.57125 -1.20125,1.1575 -0.99875,1.6975 0.36125,0.305 0.695,0.36125 2.75125,0.36125"
       style="fill:#4e4237;fill-opacity:1;fill-rule:nonzero;stroke:none"
       id="path6553"
       inkscape:connector-curvature="0" />
    <path
       d="m 250.2426,743.8364 52.6675,0 0,-8.61 -52.6675,0 0,8.61 z"
       style="fill:#71685f;fill-opacity:1;fill-rule:nonzero;stroke:none"
       id="path6555"
       inkscape:connector-curvature="0" />
    <path
       d="m 249.19136,752.16765 54.76624,0 0,-8.61625 -54.76624,0 0,8.61625 z"
       style="fill:#695e55;fill-opacity:1;fill-rule:nonzero;stroke:none"
       id="path6557"
       inkscape:connector-curvature="0" />
    <path
       d="m 249.19136,760.57515 54.76624,0 0,-8.6125 -54.76624,0 0,8.6125 z"
       style="fill:#574b41;fill-opacity:1;fill-rule:nonzero;stroke:none"
       id="path6559"
       inkscape:connector-curvature="0" />
    <path
       d="m 451.96474,534.132 c -0.1775,0 -0.2775,-0.0212 -0.30625,-0.0212 l -0.006,0 c -0.065,-0.0913 -0.4425,-0.70875 -0.4425,-2.665 0,-0.92625 0.0838,-1.89875 0.2375,-2.885 1.03249,0.87625 2.455,1.41375 4.04875,1.41375 0.46499,0 1.20749,-0.06 2.0525,-0.33125 -1.685,2.4325 -3.93,4.48875 -5.58375,4.48875 m -62.05026,-1.49375 c -0.64249,0 -1.23874,-0.035 -1.81,-0.0975 1.3225,-2.735 2.37126,-6.05375 3.27875,-9.51375 1.23876,1.65 3.1475,2.31125 4.87876,2.31125 0.5525,0 1.0675,-0.0838 1.56624,-0.2025 -0.16874,0.84875 -0.33375,1.69125 -0.47749,2.52 -1.36,1.67875 -4.82875,4.9825 -7.43626,4.9825 m 93.24001,-8.0575 c -0.52625,0 -1.01626,0.115 -1.4625,0.3025 0.77624,-2.76375 1.36999,-5.54 1.36999,-8.01 0,-4.73625 -2.96124,-7.915 -7.36249,-7.915 -0.26501,0 -0.52751,0.0162 -0.78875,0.0475 0.11499,-0.39 0.22375,-0.74875 0.32124,-1.08625 0.67001,-2.27625 1.03875,-3.52375 1.03875,-4.79375 0,-3.085 -2.70749,-5.59375 -6.03625,-5.59375 -2.57624,0 -4.65999,1.5075 -5.28999,3.78125 -1.08625,3.65 -2.20625,7.985 -3.2475,12.38375 -0.90501,-1.8525 -2.3025,-3.15375 -4.13625,-3.715 -1.2725,-0.82375 -2.85375,-1.2975 -4.3825,-1.2975 -4.09251,0 -7.42125,2.8575 -9.8075,6.80625 -0.5175,-4.1275 -3.34125,-6.91625 -7.25,-6.91625 -2.02751,0 -3.93,0.89875 -5.73251,2.72375 -1.00124,-0.745 -2.26499,-1.17875 -3.65375,-1.17875 -1.89249,0 -3.54874,0.91375 -4.50374,2.345 -0.70501,-2.27 -2.80126,-3.89 -5.3775,-3.89 -2.305,0 -4.2925,1.18875 -5.41876,3.1075 -0.8825,-1.8025 -2.79749,-2.9975 -5.12124,-2.9975 -1.54751,0 -2.945,0.52125 -4.03125,1.40625 0.004,-0.14875 0.0163,-0.3025 0.0163,-0.4525 0,-2.2575 0,-8.2725 -5.37751,-10.755 l -0.6525,-0.3 -0.0275,0 c -0.64,-0.30875 -1.66625,-0.72 -2.9575,-0.72 -8.71251,0 -10.82375,11.5975 -12.69001,21.82625 -0.87374,4.785 -1.94624,10.6675 -3.47499,12.88625 -2.53251,1.3625 -4.9975,3.965 -4.9975,6.98375 0,2.1775 1.6825,3.88125 3.82749,3.88125 1.16751,0 1.95626,-0.4275 2.3775,-0.665 0.2,-0.10625 0.49876,-0.27125 1.82126,-0.27125 0.41249,0 0.82999,0.1125 1.58875,0.32125 1.27499,0.3525 3.01874,0.83875 5.8075,0.83875 3.7,0 7.15875,-1.83125 10.01,-4.17375 1.58749,3.61 4.84499,4.1175 6.495,4.1175 1.74374,0 3.34375,-0.56125 4.78125,-1.67125 1.33499,1.17875 3.01124,1.67125 4.54875,1.67125 1.63749,0 3.185,-0.5675 4.66624,-1.65625 1.10125,1.16375 2.63876,1.8225 4.16501,1.8225 2.54125,0 4.66249,-1.59125 5.3675,-4.04625 1.35375,2.6675 4.02124,4.04625 6.66625,4.04625 3.01,0 5.53125,-1.885 7.5025,-4.24 1.89625,2.72375 4.77875,4.2925 8.45375,4.2925 2.94124,0 5.5575,-1.02 7.82624,-2.6325 0.935,1.56875 2.57625,2.58 4.53501,2.58 3.38499,0 4.62874,-2.2 5.33375,-4.885 1.18624,3.21875 4.12374,4.885 7.03125,4.885 6.62874,0 9.78249,-8.78125 11.13,-12.5275 l 0.27125,-0.7425 c 0.28375,-0.76125 0.43124,-1.485 0.43124,-2.1525 0,-2.15 -1.55124,-3.77125 -3.60374,-3.77125"
       style="fill:#4e4237;fill-opacity:1;fill-rule:nonzero;stroke:none"
       id="path6563"
       inkscape:connector-curvature="0" />
    <path
       d="m 399.02386,509.64 c 0,2.3175 -0.275,4.80375 -0.275,7.06875 0,1.0475 0.16625,2.04 0.16625,2.92625 0,1.6525 -1.27001,2.42625 -2.6525,2.42625 -1.82125,0 -2.9225,-1.16375 -2.9225,-3.5875 0,-3.81125 2.1525,-8.9425 2.1525,-12.695 0,-1.1075 -0.16875,-2.1 -0.66375,-2.93 -0.2225,0 -0.3875,0 -0.8275,0.1125 -3.3125,0.995 -4.9125,25.50375 -11.31375,31.90875 1.9275,0.3275 4.13625,1.0475 7.2275,1.0475 4.96875,0 9.93875,-5.96375 10.65625,-7.12125 0.27375,-0.44375 0.66125,-0.7175 0.8825,-0.7175 0.22125,0 0.38375,0.165 0.38375,0.49625 0,0.22125 -0.0537,0.44 -0.1625,0.77375 -0.66375,1.93 -7.0125,11.03875 -14.13375,11.03875 -4.03,0 -5.30001,-1.16 -7.39626,-1.16 -3.3125,0 -3.25624,0.93875 -4.19874,0.93875 -0.3275,0 -0.54876,-0.21875 -0.54876,-0.605 0,-1.7125 2.04376,-3.59125 3.80876,-4.36375 5.79625,-6.23875 4.02749,-34.0575 14.075,-34.0575 1.16,0 1.98624,0.7175 2.26749,0.7175 2.87001,1.325 3.47501,4.3575 3.47501,7.7825"
       style="fill:#d8713f;fill-opacity:1;fill-rule:nonzero;stroke:none"
       id="path6567"
       inkscape:connector-curvature="0" />
    <path
       d="m 404.82085,534.2599 c 0,1.49125 0.38626,2.32125 1.21625,2.32125 3.20126,0 5.30001,-10.65625 7.7825,-22.085 0.38375,-1.81875 1.71375,-2.64875 3.0325,-2.64875 1.21625,0 2.37376,0.83 2.37376,2.265 0,2.2075 -4.63501,17.665 -4.63501,21.47375 0,0.995 0.22125,1.4875 0.7175,1.4875 1.98625,0 5.35625,-7.0625 5.96126,-8.27875 0.33374,-0.66125 0.66374,-0.93875 0.93874,-0.93875 0.22125,0 0.38625,0.16875 0.38625,0.55125 0,0.2225 -0.0525,0.5525 -0.2175,0.9425 -0.77375,1.93125 -4.36125,10.98375 -9,10.98375 -1.65625,0 -3.64374,-0.88625 -3.755,-4.63875 -1.48875,2.8725 -3.3075,4.63875 -5.575,4.63875 -3.08749,0 -4.13875,-2.3775 -4.13875,-5.905 0,-5.35625 2.3175,-13.36375 3.42126,-19.98625 0.27499,-1.70875 1.71249,-2.4825 2.98499,-2.4825 1.21125,0 2.37125,0.7175 2.37125,2.0425 0,0.16625 0,0.3875 -0.0563,0.5525 -1.76874,8.775 -3.80875,16.1175 -3.80875,19.705"
       style="fill:#d8713f;fill-opacity:1;fill-rule:nonzero;stroke:none"
       id="path6571"
       inkscape:connector-curvature="0" />
    <path
       d="m 422.20873,540.4987 c -1.1575,0 -2.4275,-0.83 -2.4275,-2.48625 0,-0.165 0.0538,-0.3275 0.0538,-0.4925 0.99749,-8.2825 2.26499,-13.86 4.85999,-22.69 0.27375,-0.995 1.16,-1.43875 2.04,-1.43875 1.32626,0 2.705,0.93875 2.705,2.5425 0,1.435 -0.93625,3.7 -1.27,5.13125 2.2675,-5.1875 5.08126,-9.2175 7.95126,-9.2175 3.25624,0 4.08624,2.9825 4.08624,5.025 0,6.23875 -5.35625,15.7875 -5.35625,19.15375 0,0.72 0.2775,1.16 0.88,1.16 2.43,0 6.23876,-7.2875 6.9025,-8.39125 0.33126,-0.5525 0.77376,-0.93875 1.04875,-0.93875 0.165,0 0.2775,0.10875 0.2775,0.38625 0,0.225 -0.0562,0.5525 -0.225,0.995 -0.66125,1.9875 -4.6875,11.26125 -9.49124,11.26125 -2.20876,0 -4.305,-1.5475 -4.305,-4.86 0,-4.96625 5.29999,-14.9575 5.29999,-18.65625 0,-0.7175 -0.2775,-1.32375 -0.88375,-1.32375 -2.04624,0 -6.9,8.55375 -9.055,18.545 l -0.1625,0.3875 c -0.2775,1.54375 -0.49875,2.86875 -0.66375,4.08625 -0.22499,1.2125 -1.2175,1.82125 -2.265,1.82125"
       style="fill:#d8713f;fill-opacity:1;fill-rule:nonzero;stroke:none"
       id="path6575"
       inkscape:connector-curvature="0" />
    <path
       d="m 455.16636,514.1669 c -3.09125,0 -7.23125,10.43375 -7.23125,17.27875 0,3.69875 1.10125,5.96 4.03125,5.96 4.3575,0 8.33125,-5.465 9.87874,-8.6125 0.27375,-0.605 0.6075,-0.82625 0.8825,-0.82625 0.22125,0 0.39001,0.165 0.39001,0.555 0,0.21875 -0.0588,0.49375 -0.16875,0.8275 -1.93,4.7475 -6.40375,11.20375 -12.75125,11.20375 -5.51876,0 -7.67375,-4.52625 -7.67375,-10.15625 0,-8.22625 4.7475,-18.43875 10.65249,-18.43875 1.21625,0 2.3175,0.49625 2.98251,1.04875 2.4825,0.4425 3.425,3.3125 3.425,6.29125 0,3.9775 -1.1075,7.4025 -4.09001,7.4025 -1.26625,0 -2.48249,-0.72125 -2.48249,-1.7125 0,-2.20875 3.47749,-4.09 3.47749,-8.66875 0,-1.16 -0.76999,-2.1525 -1.32249,-2.1525"
       style="fill:#d8713f;fill-opacity:1;fill-rule:nonzero;stroke:none"
       id="path6579"
       inkscape:connector-curvature="0" />
    <path
       d="m 475.20447,536.1362 c 0,0.8825 0.275,1.3825 0.99251,1.3825 1.82125,0 3.64249,-4.2525 5.95999,-8.725 0.27875,-0.55 0.71751,-0.93625 0.99876,-0.93625 0.21875,0 0.32749,0.16875 0.32749,0.49625 0,0.22125 -0.0525,0.555 -0.22125,0.995 -0.77125,1.98625 -3.53125,11.15125 -8.33499,11.15125 -2.20501,0 -4.305,-1.55 -4.305,-4.86 0,-4.8 4.36124,-15.01625 4.36124,-18.66 0,-0.82625 -0.22125,-1.31875 -0.77125,-1.31875 -1.6025,0 -5.96375,6.5125 -8.33749,16.775 -1.27001,5.9675 -1.10375,8.06375 -3.3125,8.06375 -1.04876,0 -2.09625,-0.77625 -2.09625,-2.43 0,-3.5875 3.865,-23.18625 7.6175,-35.825 0.27749,-0.9925 1.15999,-1.435 2.15249,-1.435 1.325,0 2.76,0.8825 2.76,2.3175 0,1.765 -1.5475,4.86 -4.24874,16.67 1.98374,-4.36125 4.41749,-7.565 6.95374,-7.565 3.25625,0 4.08625,2.59875 4.08625,4.63875 0,6.12625 -4.5825,15.68125 -4.5825,19.265"
       style="fill:#d8713f;fill-opacity:1;fill-rule:nonzero;stroke:none"
       id="path6583"
       inkscape:connector-curvature="0" />
    <path
       d="m 537.62261,772.18765 -8.09125,0 0,-11.76875 8.09125,0 0,11.76875 z"
       style="fill:#60554b;fill-opacity:1;fill-rule:nonzero;stroke:none"
       id="path6585"
       inkscape:connector-curvature="0" />
    <path
       d="m 563.37636,772.18765 -8.095,0 0,-11.76875 8.095,0 0,11.76875 z"
       style="fill:#60554b;fill-opacity:1;fill-rule:nonzero;stroke:none"
       id="path6587"
       inkscape:connector-curvature="0" />
    <path
       d="m 573.67385,762.6214 -54.44249,0 0,-68.42 54.44249,0 0,68.42 z"
       style="fill:#71685f;fill-opacity:1;fill-rule:nonzero;stroke:none"
       id="path6589"
       inkscape:connector-curvature="0" />
    <path
       d="m 527.50011,702.47015 37.90375,0 0,51.88375 -37.90375,0 0,-51.88375 z"
       style="fill:#f8e9cb;fill-opacity:1;fill-rule:nonzero;stroke:none"
       id="path6591"
       inkscape:connector-curvature="0" />
    <path
       d="m 560.3976,713.33765 -27.93375,0 0,-2.8075 27.93375,0 0,2.8075 z"
       style="fill:#baaf98;fill-opacity:1;fill-rule:nonzero;stroke:none"
       id="path6593"
       inkscape:connector-curvature="0" />
    <path
       d="m 560.3976,721.92515 -27.93375,0 0,-2.80375 27.93375,0 0,2.80375 z"
       style="fill:#baaf98;fill-opacity:1;fill-rule:nonzero;stroke:none"
       id="path6595"
       inkscape:connector-curvature="0" />
    <path
       d="m 560.3976,730.51265 -27.93375,0 0,-2.8075 27.93375,0 0,2.8075 z"
       style="fill:#baaf98;fill-opacity:1;fill-rule:nonzero;stroke:none"
       id="path6597"
       inkscape:connector-curvature="0" />
    <path
       d="m 560.3976,739.1039 -27.93375,0 0,-2.8075 27.93375,0 0,2.8075 z"
       style="fill:#baaf98;fill-opacity:1;fill-rule:nonzero;stroke:none"
       id="path6599"
       inkscape:connector-curvature="0" />
  </g>
</svg>
