<?xml version="1.0" encoding="utf-8"?>
<!-- Generator: Adobe Illustrator 19.0.1, SVG Export Plug-In . SVG Version: 6.00 Build 0)  -->
<svg version="1.1"
	 id="svg13880" xmlns:dc="http://purl.org/dc/elements/1.1/" xmlns:inkscape="http://www.inkscape.org/namespaces/inkscape" xmlns:sodipodi="http://sodipodi.sourceforge.net/DTD/sodipodi-0.dtd" xmlns:svg="http://www.w3.org/2000/svg" xmlns:rdf="http://www.w3.org/1999/02/22-rdf-syntax-ns#" xmlns:cc="http://creativecommons.org/ns#" inkscape:version="0.91 r" sodipodi:docname="footer.svg"
	 xmlns="http://www.w3.org/2000/svg" xmlns:xlink="http://www.w3.org/1999/xlink" x="0px" y="0px" viewBox="557 -74.4 1709.4 989.3"
	 style="enable-background:new 557 -74.4 1709.4 989.3;" xml:space="preserve">
<style type="text/css">
	.st0{opacity:0.4;fill:#AACEC8;}
	.st1{opacity:0.3;fill:#9CD0CA;enable-background:new    ;}
	.st2{fill:#B8B4AF;}
	.st3{fill:#71685F;}
	.st4{fill:#837B73;}
	.st5{opacity:0.48;fill:#48443E;}
</style>
<polygon class="st0" points="934.1,368.3 934.1,405.3 906.4,405.3 906.4,132.6 887.3,132.6 887.3,92.5 840.5,92.5 840.5,132.6 
	799,132.6 799,405.3 761.4,405.3 761.4,241.2 691.2,212.1 691.2,318 688.5,318 688.5,268.3 661.5,268.3 661.5,318 626.4,318 
	626.4,585.8 1025.9,585.8 1025.9,419.9 "/>
<sodipodi:namedview  inkscape:cx="1115.0394" pagecolor="#ffffff" inkscape:zoom="0.49497475" fit-margin-left="0" showgrid="false" borderopacity="1.0" bordercolor="#666666" id="base" fit-margin-top="0" units="px" inkscape:cy="404.18629" inkscape:window-width="1366" inkscape:pageshadow="2" inkscape:current-layer="layer1" inkscape:window-height="744" inkscape:window-maximized="1" inkscape:document-units="px" inkscape:pageopacity="0.0" fit-margin-right="0" inkscape:window-y="24" inkscape:window-x="0" fit-margin-bottom="0">
	</sodipodi:namedview>
<g id="layer1" transform="translate(-632.1435,327.04373)" inkscape:label="Layer 1" inkscape:groupmode="layer">
	<path id="path5771" inkscape:connector-curvature="0" class="st1" d="M2867.8-48.1h-2.5v-123.7l-65.2,34V53.9h-35v-318.4h-38.6
		v-46.8H2683v46.8h-17.8V53.9h-25.7V10.6l-57.1,40.3V-54.6h-14.8v-20.1h-9v20.1h-9.1v-20.1h-9v20.1h-10.2V5.7h-70v-209.6h-18.9v-62
		h-19.7v-26.2h-15.3l-2-31.4l-37.1,31v0.4h-15.5v26.2h-19.7v62h-18.9v44.7l-12.4,11.6v127.3h-31.5v-29.5H2243v29.4h-8.1v-81.2
		l-108-45.1v-176.7h-25.3v-11.9h-76.3v11.9h-17.6V20.4h-51v-251.2h-16.4V-243h-77.1v-41.6h-28v53.8h-23.3V20.4h-16.4v-96L1774.8-93
		v-22.3c0,0-2.9-2.6-8.5-5.4v-79.1c0,0-2.2-4.7-7.3-9.3v-9.1c0,0-1.2-2.8-4.2-5.7v-8.6c0,0-1.8-4.1-6.6-7.2v-5.5
		c0,0-1.5-3.4-5.7-5.8v-4c0,0-1.3-4.4-5.1-6.6v-8.8c0,0-1.1-5.8-4.4-6.8l0.3-44.5c0,0-0.9-3.6-1.2-0.7c-0.3,2.8-1.3,42.1-1.4,45.2
		c-3.3,1-4.7,5.6-4.7,6.8v10c-2.4,2-3.5,4.5-3.5,5.4v5.2c-2.6,1.8-3.8,3.8-3.8,4.6v6.8c-3.2,2.4-4.7,4.9-4.7,5.9v8.8
		c-2.6,2.4-3.8,4.6-3.8,5.6v9c-4.2,3.9-6.1,7.9-6.1,9.4v81.7c-1.9,0.9-3.7,1.8-5.6,2.8V-94l-20.2,18.5v340.2h1209.2v-370.8h-19.7
		L2867.8-48.1L2867.8-48.1z"/>
	<path id="path5815" inkscape:connector-curvature="0" class="st2" d="M1182.2,439h2398V274.7h-2398L1182.2,439L1182.2,439z"/>
	<path id="path5817" inkscape:connector-curvature="0" class="st3" d="M1086.1,339.7h2398l97.9-36H1184v36H1086.1z"/>
	<path id="path5813" inkscape:connector-curvature="0" class="st4" d="M1182.2,303.7h2398v-69.4h-2398L1182.2,303.7L1182.2,303.7z"
		/>
</g>
<path class="st5" d="M1010.2,63.8c-0.4,0-0.9,0-1.3,0.1c0-0.3,0-0.6,0-0.9c0-6.3-5.1-11.5-11.5-11.5c-1.1,0-2.1,0.2-3.1,0.4
	c-1.8-4.7-6.4-8.1-11.8-8.1c-5.2,0-9.7,3.2-11.6,7.7c-6.2,0.4-11.2,5.2-11.8,11.3c-1.2-0.9-2.8-1.4-4.4-1.4c-4.3,0-7.7,3.5-7.7,7.7
	c0,4.3,3.5,7.7,7.7,7.7h18v0h37.4c3.6,0,6.5-2.9,6.5-6.5C1016.8,66.8,1013.8,63.8,1010.2,63.8"/>
</svg>
