<?xml version="1.0" encoding="UTF-8" standalone="no"?>
<!-- Created with Inkscape (http://www.inkscape.org/) -->

<svg
   xmlns:dc="http://purl.org/dc/elements/1.1/"
   xmlns:cc="http://creativecommons.org/ns#"
   xmlns:rdf="http://www.w3.org/1999/02/22-rdf-syntax-ns#"
   xmlns:svg="http://www.w3.org/2000/svg"
   xmlns="http://www.w3.org/2000/svg"
   xmlns:sodipodi="http://sodipodi.sourceforge.net/DTD/sodipodi-0.dtd"
   xmlns:inkscape="http://www.inkscape.org/namespaces/inkscape"
   width="96.642944mm"
   height="97.652985mm"
   viewBox="0 0 342.43563 346.01451"
   id="svg15329"
   version="1.1"
   inkscape:version="0.91 r"
   sodipodi:docname="footer-3.svg">
  <defs
     id="defs15331" />
  <sodipodi:namedview
     id="base"
     pagecolor="#ffffff"
     bordercolor="#666666"
     borderopacity="1.0"
     inkscape:pageopacity="0.0"
     inkscape:pageshadow="2"
     inkscape:zoom="0.98994949"
     inkscape:cx="303.58285"
     inkscape:cy="175.70252"
     inkscape:document-units="px"
     inkscape:current-layer="layer1"
     showgrid="false"
     fit-margin-top="0"
     fit-margin-left="0"
     fit-margin-right="0"
     fit-margin-bottom="0"
     inkscape:showpageshadow="false"
     inkscape:window-width="1366"
     inkscape:window-height="744"
     inkscape:window-x="0"
     inkscape:window-y="24"
     inkscape:window-maximized="1" />
  <metadata
     id="metadata15334">
    <rdf:RDF>
      <cc:Work
         rdf:about="">
        <dc:format>image/svg+xml</dc:format>
        <dc:type
           rdf:resource="http://purl.org/dc/dcmitype/StillImage" />
        <dc:title></dc:title>
      </cc:Work>
    </rdf:RDF>
  </metadata>
  <g
     inkscape:label="Layer 1"
     inkscape:groupmode="layer"
     id="layer1"
     transform="translate(279.78924,-362.2121)">
    <path
       d="m 38.110131,530.73945 14.09375,0 5.305,-31.19625 -24.705,0 5.30625,31.19625 z"
       style="fill:#f8e9cb;fill-opacity:1;fill-rule:nonzero;stroke:none"
       id="path5821"
       inkscape:connector-curvature="0" />
    <path
       d="m 52.330131,527.69035 -6.2825,0 0,-26.6825 10.98,0 -4.6975,26.6825 z m -14.15875,0 -4.71,-26.6825 10.98,0 0,26.6825 -6.27,0 z m 18.96,-29.74 -9.6275,-8.69375 0,-5.63625 -4.51875,0 0,5.63625 -9.615,8.69375 -5.50875,0 0,3.0575 3.99375,0 5.4275,30.8225 0,0.10875 4.78125,0 0,128.49875 -4.78125,0 0,47.78875 15.93,0 0,-47.78875 -4.775,0 0,-128.49875 4.775,0 0,-0.10875 5.44,-30.8225 3.99375,0 0,-3.0575 -5.515,0 z"
       style="fill:#4e4237;fill-opacity:1;fill-rule:nonzero;stroke:none"
       id="path5825"
       inkscape:connector-curvature="0" />
    <path
       d="m 12.083261,694.19585 -291.872501,0 0,-273.78 291.872501,0 0,273.78 z"
       style="fill:#4e4237;fill-opacity:1;fill-rule:nonzero;stroke:none"
       id="path6239"
       inkscape:connector-curvature="0" />
    <path
       d="m -43.840489,393.11585 -27.0825,0 0,-30.90375 27.0825,0 0,30.90375 z"
       style="fill:#4e4237;fill-opacity:1;fill-rule:nonzero;stroke:none"
       id="path6241"
       inkscape:connector-curvature="0" />
    <path
       d="m -279.63799,420.13475 291.566251,0 -32.65875,-31.93625 -230.225001,0 -28.6825,31.93625 z"
       style="fill:#60554b;fill-opacity:1;fill-rule:nonzero;stroke:none"
       id="path6245"
       inkscape:connector-curvature="0" />
    <path
       d="m -56.585619,395.23325 -8.7525,9.83875 16.71875,0 -7.96625,-9.83875 z"
       style="fill:#d8713f;fill-opacity:1;fill-rule:nonzero;stroke:none"
       id="path6249"
       inkscape:connector-curvature="0" />
    <path
       d="m -132.26499,395.23325 -8.765,9.83875 16.74125,0 -7.97625,-9.83875 z"
       style="fill:#d8713f;fill-opacity:1;fill-rule:nonzero;stroke:none"
       id="path6253"
       inkscape:connector-curvature="0" />
    <path
       d="m -206.34387,395.23325 -8.76875,9.83875 16.7325,0 -7.96375,-9.83875 z"
       style="fill:#d8713f;fill-opacity:1;fill-rule:nonzero;stroke:none"
       id="path6257"
       inkscape:connector-curvature="0" />
    <path
       d="m -205.96299,547.65835 -33.9075,0 0,-88.83625 33.9075,0 0,88.83625 z"
       style="fill:#60928c;fill-opacity:1;fill-rule:nonzero;stroke:none"
       id="path6259"
       inkscape:connector-curvature="0" />
    <path
       d="m -221.08549,558.3446 -2.555,0 0,-118.44875 2.555,0 0,118.44875 z"
       style="fill:#4e4237;fill-opacity:1;fill-rule:nonzero;stroke:none"
       id="path6261"
       inkscape:connector-curvature="0" />
    <path
       d="m -200.73424,499.60085 -41.99625,0 0,-1.45 41.99625,0 0,1.45 z"
       style="fill:#4e4237;fill-opacity:1;fill-rule:nonzero;stroke:none"
       id="path6263"
       inkscape:connector-curvature="0" />
    <path
       d="m -200.73424,525.81335 -41.99625,0 0,-1.45375 41.99625,0 0,1.45375 z"
       style="fill:#4e4237;fill-opacity:1;fill-rule:nonzero;stroke:none"
       id="path6265"
       inkscape:connector-curvature="0" />
    <path
       d="m -249.40687,474.84095 53.46625,0 c 0,0 3.15375,-28.7975 -25.16125,-32.3975 0,0 -25.16125,1.20125 -28.305,32.3975"
       style="fill:#f8e9cb;fill-opacity:1;fill-rule:nonzero;stroke:none"
       id="path6269"
       inkscape:connector-curvature="0" />
    <path
       d="m -221.10112,442.44255 c 0,0 -18.12625,0.3525 -19.4025,32.3975 l 8.9125,0 c 0,0 -0.64625,-26.52375 10.49,-32.3975"
       style="fill:#d8713f;fill-opacity:1;fill-rule:nonzero;stroke:none"
       id="path6273"
       inkscape:connector-curvature="0" />
    <path
       d="m -222.36549,442.44255 c 0,0 14.68875,0.3525 15.58375,32.3975 l -8.185,0 c 0,0 0.45875,-26.52375 -7.39875,-32.3975"
       style="fill:#d8713f;fill-opacity:1;fill-rule:nonzero;stroke:none"
       id="path6277"
       inkscape:connector-curvature="0" />
    <path
       d="m -116.22549,547.65835 -33.90125,0 0,-88.83625 33.90125,0 0,88.83625 z"
       style="fill:#60928c;fill-opacity:1;fill-rule:nonzero;stroke:none"
       id="path6279"
       inkscape:connector-curvature="0" />
    <path
       d="m -131.37299,558.3446 -2.53875,0 0,-118.44875 2.53875,0 0,118.44875 z"
       style="fill:#4e4237;fill-opacity:1;fill-rule:nonzero;stroke:none"
       id="path6281"
       inkscape:connector-curvature="0" />
    <path
       d="m -111.00924,499.60085 -41.99,0 0,-1.45 41.99,0 0,1.45 z"
       style="fill:#4e4237;fill-opacity:1;fill-rule:nonzero;stroke:none"
       id="path6283"
       inkscape:connector-curvature="0" />
    <path
       d="m -111.00924,525.81335 -41.99,0 0,-1.45375 41.99,0 0,1.45375 z"
       style="fill:#4e4237;fill-opacity:1;fill-rule:nonzero;stroke:none"
       id="path6285"
       inkscape:connector-curvature="0" />
    <path
       d="m -160.64399,474.84095 53.475,0 c 0,0 3.1475,-28.7975 -25.1575,-32.3975 0,0 -25.17,1.20125 -28.3175,32.3975"
       style="fill:#f8e9cb;fill-opacity:1;fill-rule:nonzero;stroke:none"
       id="path6289"
       inkscape:connector-curvature="0" />
    <path
       d="m -131.68637,442.44255 c 0,0 -18.1325,0.3525 -19.40875,32.3975 l 8.9025,0 c 0,0 -0.65125,-26.52375 10.50625,-32.3975"
       style="fill:#d8713f;fill-opacity:1;fill-rule:nonzero;stroke:none"
       id="path6293"
       inkscape:connector-curvature="0" />
    <path
       d="m -132.95649,442.44255 c 0,0 14.68625,0.3525 15.59375,32.3975 l -8.19125,0 c 0,0 0.4525,-26.52375 -7.4025,-32.3975"
       style="fill:#d8713f;fill-opacity:1;fill-rule:nonzero;stroke:none"
       id="path6297"
       inkscape:connector-curvature="0" />
    <path
       d="m -27.965489,547.65835 -33.90375,0 0,-88.83625 33.90375,0 0,88.83625 z"
       style="fill:#60928c;fill-opacity:1;fill-rule:nonzero;stroke:none"
       id="path6299"
       inkscape:connector-curvature="0" />
    <path
       d="m -43.556739,558.3446 -2.53625,0 0,-118.44875 2.53625,0 0,118.44875 z"
       style="fill:#4e4237;fill-opacity:1;fill-rule:nonzero;stroke:none"
       id="path6301"
       inkscape:connector-curvature="0" />
    <path
       d="m -23.196739,499.60085 -41.99875,0 0,-1.45 41.99875,0 0,1.45 z"
       style="fill:#4e4237;fill-opacity:1;fill-rule:nonzero;stroke:none"
       id="path6303"
       inkscape:connector-curvature="0" />
    <path
       d="m -23.196739,525.81335 -41.99875,0 0,-1.45375 41.99875,0 0,1.45375 z"
       style="fill:#4e4237;fill-opacity:1;fill-rule:nonzero;stroke:none"
       id="path6305"
       inkscape:connector-curvature="0" />
    <path
       d="m -71.873239,474.84095 53.46625,0 c 0,0 3.14375,-28.7975 -25.14875,-32.3975 0,0 -25.17375,1.20125 -28.3175,32.3975"
       style="fill:#f8e9cb;fill-opacity:1;fill-rule:nonzero;stroke:none"
       id="path6309"
       inkscape:connector-curvature="0" />
    <path
       d="m -42.932119,442.44255 c 0,0 -18.12625,0.3525 -19.39,32.3975 l 8.9025,0 c 0,0 -0.65125,-26.52375 10.4875,-32.3975"
       style="fill:#d8713f;fill-opacity:1;fill-rule:nonzero;stroke:none"
       id="path6313"
       inkscape:connector-curvature="0" />
    <path
       d="m -44.187359,442.44255 c 0,0 14.68625,0.3525 15.58375,32.3975 l -8.19375,0 c 0,0 0.45875,-26.52375 -7.39,-32.3975"
       style="fill:#d8713f;fill-opacity:1;fill-rule:nonzero;stroke:none"
       id="path6317"
       inkscape:connector-curvature="0" />
    <path
       d="m -133.85362,613.95415 -4.13,0 -92.795,0 0,80.2425 4.1275,0 2.05875,0 86.60875,0 4.13,0 88.683751,0 4.12,0 4.1175,0 0,-80.2425 -96.921251,0 z"
       style="fill:#f8e9cb;fill-opacity:1;fill-rule:nonzero;stroke:none"
       id="path6321"
       inkscape:connector-curvature="0" />
    <path
       d="m -224.59174,618.67335 86.60875,0 0,50.53625 -86.60875,0 0,-50.53625 z"
       style="fill:#568c86;fill-opacity:1;fill-rule:nonzero;stroke:none"
       id="path6323"
       inkscape:connector-curvature="0" />
    <path
       d="m -133.85299,618.67335 88.683751,0 0,50.53625 -88.683751,0 0,-50.53625 z"
       style="fill:#568c86;fill-opacity:1;fill-rule:nonzero;stroke:none"
       id="path6325"
       inkscape:connector-curvature="0" />
    <path
       d="m -36.421739,646.4571 -194.438751,0 0,-17.15625 194.438751,0 0,17.15625 z"
       style="opacity:0.5;fill:#cccccc;fill-opacity:1;fill-rule:nonzero;stroke:none"
       id="path6347"
       inkscape:connector-curvature="0" />
    <path
       d="m -234.78299,631.0571 29.02625,0 0,-46.5475 -29.02625,0 0,46.5475 z"
       style="fill:#a2552f;fill-opacity:1;fill-rule:nonzero;stroke:none"
       id="path6349"
       inkscape:connector-curvature="0" />
    <path
       d="m -234.78299,620.4921 29.02625,0 0,-40.81375 -29.02625,0 0,40.81375 z"
       style="fill:#d8713f;fill-opacity:1;fill-rule:nonzero;stroke:none"
       id="path6351"
       inkscape:connector-curvature="0" />
    <path
       d="m -205.99049,631.0571 29.03875,0 0,-46.5475 -29.03875,0 0,46.5475 z"
       style="fill:#e0d8b6;fill-opacity:1;fill-rule:nonzero;stroke:none"
       id="path6353"
       inkscape:connector-curvature="0" />
    <path
       d="m -205.99049,620.4921 29.03875,0 0,-40.81375 -29.03875,0 0,40.81375 z"
       style="fill:#f8e9cb;fill-opacity:1;fill-rule:nonzero;stroke:none"
       id="path6355"
       inkscape:connector-curvature="0" />
    <path
       d="m -177.18299,631.0571 29.0325,0 0,-46.5475 -29.0325,0 0,46.5475 z"
       style="fill:#a2552f;fill-opacity:1;fill-rule:nonzero;stroke:none"
       id="path6357"
       inkscape:connector-curvature="0" />
    <path
       d="m -177.18299,620.4921 29.0325,0 0,-40.81375 -29.0325,0 0,40.81375 z"
       style="fill:#d8713f;fill-opacity:1;fill-rule:nonzero;stroke:none"
       id="path6359"
       inkscape:connector-curvature="0" />
    <path
       d="m -148.36674,631.0571 29.01625,0 0,-46.5475 -29.01625,0 0,46.5475 z"
       style="fill:#e0d8b6;fill-opacity:1;fill-rule:nonzero;stroke:none"
       id="path6361"
       inkscape:connector-curvature="0" />
    <path
       d="m -148.36674,620.4921 29.01625,0 0,-40.81375 -29.01625,0 0,40.81375 z"
       style="fill:#f8e9cb;fill-opacity:1;fill-rule:nonzero;stroke:none"
       id="path6363"
       inkscape:connector-curvature="0" />
    <path
       d="m -119.57549,631.0571 29.041251,0 0,-46.5475 -29.041251,0 0,46.5475 z"
       style="fill:#a2552f;fill-opacity:1;fill-rule:nonzero;stroke:none"
       id="path6365"
       inkscape:connector-curvature="0" />
    <path
       d="m -119.57549,620.4921 29.041251,0 0,-40.81375 -29.041251,0 0,40.81375 z"
       style="fill:#d8713f;fill-opacity:1;fill-rule:nonzero;stroke:none"
       id="path6367"
       inkscape:connector-curvature="0" />
    <path
       d="m -90.770489,631.0571 29.04125,0 0,-46.5475 -29.04125,0 0,46.5475 z"
       style="fill:#e0d8b6;fill-opacity:1;fill-rule:nonzero;stroke:none"
       id="path6369"
       inkscape:connector-curvature="0" />
    <path
       d="m -90.770489,620.4921 29.04125,0 0,-40.81375 -29.04125,0 0,40.81375 z"
       style="fill:#f8e9cb;fill-opacity:1;fill-rule:nonzero;stroke:none"
       id="path6371"
       inkscape:connector-curvature="0" />
    <path
       d="m -61.975489,631.0571 29.0475,0 0,-46.5475 -29.0475,0 0,46.5475 z"
       style="fill:#a2552f;fill-opacity:1;fill-rule:nonzero;stroke:none"
       id="path6373"
       inkscape:connector-curvature="0" />
    <path
       d="m -61.975489,620.4921 29.0475,0 0,-40.81375 -29.0475,0 0,40.81375 z"
       style="fill:#d8713f;fill-opacity:1;fill-rule:nonzero;stroke:none"
       id="path6375"
       inkscape:connector-curvature="0" />
  </g>
</svg>
