<?xml version="1.0" encoding="UTF-8" standalone="no"?>
<!-- Created with Inkscape (http://www.inkscape.org/) -->

<svg
   xmlns:dc="http://purl.org/dc/elements/1.1/"
   xmlns:cc="http://creativecommons.org/ns#"
   xmlns:rdf="http://www.w3.org/1999/02/22-rdf-syntax-ns#"
   xmlns:svg="http://www.w3.org/2000/svg"
   xmlns="http://www.w3.org/2000/svg"
   xmlns:sodipodi="http://sodipodi.sourceforge.net/DTD/sodipodi-0.dtd"
   xmlns:inkscape="http://www.inkscape.org/namespaces/inkscape"
   width="86.43338mm"
   height="104.02923mm"
   viewBox="0 0 306.26 368.6075"
   id="svg15590"
   version="1.1"
   inkscape:version="0.91 r"
   sodipodi:docname="footer-4.svg">
  <defs
     id="defs15592" />
  <sodipodi:namedview
     id="base"
     pagecolor="#ffffff"
     bordercolor="#666666"
     borderopacity="1.0"
     inkscape:pageopacity="0.0"
     inkscape:pageshadow="2"
     inkscape:zoom="1.4"
     inkscape:cx="209.60838"
     inkscape:cy="176.66326"
     inkscape:document-units="px"
     inkscape:current-layer="layer1"
     showgrid="false"
     inkscape:showpageshadow="false"
     fit-margin-top="0"
     fit-margin-left="0"
     fit-margin-right="0"
     fit-margin-bottom="0"
     inkscape:window-width="1366"
     inkscape:window-height="744"
     inkscape:window-x="0"
     inkscape:window-y="24"
     inkscape:window-maximized="1" />
  <metadata
     id="metadata15595">
    <rdf:RDF>
      <cc:Work
         rdf:about="">
        <dc:format>image/svg+xml</dc:format>
        <dc:type
           rdf:resource="http://purl.org/dc/dcmitype/StillImage" />
        <dc:title></dc:title>
      </cc:Work>
    </rdf:RDF>
  </metadata>
  <g
     inkscape:label="Layer 1"
     inkscape:groupmode="layer"
     id="layer1"
     transform="translate(32.423929,-49.547273)">
    <path
       d="m 273.83607,295.74851 -51.395,0 0,-56.485 51.395,0 0,56.485 z"
       style="fill:#f8e9cb;fill-opacity:1;fill-rule:nonzero;stroke:none"
       id="path5843"
       inkscape:connector-curvature="0" />
    <path
       d="m 273.83607,247.89976 -51.395,0 0,-8.64125 51.395,0 0,8.64125 z"
       style="fill:#4e4237;fill-opacity:1;fill-rule:nonzero;stroke:none"
       id="path5845"
       inkscape:connector-curvature="0" />
    <path
       d="m 206.52607,247.89976 15.915,0 0,-4.32 -15.915,0 0,4.32 z"
       style="fill:#71685f;fill-opacity:1;fill-rule:nonzero;stroke:none"
       id="path5847"
       inkscape:connector-curvature="0" />
    <path
       d="m 206.52607,289.87726 15.915,0 0,-4.32 -15.915,0 0,4.32 z"
       style="fill:#71685f;fill-opacity:1;fill-rule:nonzero;stroke:none"
       id="path5849"
       inkscape:connector-curvature="0" />
    <path
       d="m 262.05192,276.86891 c 1.01625,0 1.83375,0.8175 1.83375,1.8275 0,1.01125 -0.8175,1.83125 -1.83375,1.83125 -1.01125,0 -1.82125,-0.82 -1.82125,-1.83125 0,-1.01 0.81,-1.8275 1.82125,-1.8275 m -2.87625,3.3875 c 0.025,0.265 0.715,1.6875 2.53625,1.8125 1.1575,0.0775 3.7025,-0.93625 3.68375,-3.64375 -0.025,-3.1125 -3.66875,-4.21375 -3.66875,-4.21375 l -26.28,0 c 0.58375,9.72875 8.85625,11.81 8.85625,11.81 l -8.31375,0.05 0,1.60875 27.17,0 0,-1.6775 -11.25125,0 c 5.13125,-1.64375 7.2675,-5.74625 7.2675,-5.74625"
       style="fill:#d8713f;fill-opacity:1;fill-rule:nonzero;stroke:none"
       id="path5853"
       inkscape:connector-curvature="0" />
    <path
       d="m 244.91362,267.23661 c 1.21375,0.225 3.94875,0.31875 4.97875,3.54375 -0.0438,0.93 0.0462,1.5 -0.26875,2.19875 0.43625,-0.8425 1.4975,-3.085 1.74125,-5.2125 0.14,-1.2475 -0.54,-3.53375 -1.7225,-3.53375 -1.1825,0 -4.63875,1.25125 -3.74625,-1.055 1.20375,-2.12375 3.6775,-4.76875 4.03625,-7.5075 0.1775,-1.8375 -1.5225,-4.10875 -4.03625,-3.86875 0,0 4.7075,0.0563 2.02125,5.6625 -0.85125,1.3475 -2.10875,3.1375 -6.0575,6.185 -0.93625,0.98625 -2.10625,2.02125 -1.7475,2.96 0.63375,0.54375 1.21375,0.6275 4.80125,0.6275"
       style="fill:#d8713f;fill-opacity:1;fill-rule:nonzero;stroke:none"
       id="path5857"
       inkscape:connector-curvature="0" />
    <path
       d="m 242.19062,397.21101 0,-13.4575 -53.84,0 0,20.935 22.43375,0 0,13.46625 53.84375,0 0,-20.94375 -22.4375,0 z"
       style="fill:#4e4237;fill-opacity:1;fill-rule:nonzero;stroke:none"
       id="path5861"
       inkscape:connector-curvature="0" />
    <path
       d="m 214.36482,418.15476 -246.782499,0 0,-306.71125 246.782499,0 0,306.71125 z"
       style="fill:#4e4237;fill-opacity:1;fill-rule:nonzero;stroke:none"
       id="path5863"
       inkscape:connector-curvature="0" />
    <path
       d="m -31.106429,270.97101 246.379999,0 0,-5.905 -246.379999,0 0,5.905 z"
       style="fill:#71685f;fill-opacity:1;fill-rule:nonzero;stroke:none"
       id="path5865"
       inkscape:connector-curvature="0" />
    <path
       d="m -31.106429,276.86976 246.379999,0 0,-5.89875 -246.379999,0 0,5.89875 z"
       style="fill:#60554b;fill-opacity:1;fill-rule:nonzero;stroke:none"
       id="path5867"
       inkscape:connector-curvature="0" />
    <path
       d="m -0.04142857,143.10476 22.05374957,0 0,26.415 -22.05374957,0 0,-26.415 z"
       style="fill:#f8e9cb;fill-opacity:1;fill-rule:evenodd;stroke:none"
       id="path5869"
       inkscape:connector-curvature="0" />
    <path
       d="m 29.593571,143.10476 22.0225,0 0,26.415 -22.0225,0 0,-26.415 z"
       style="fill:#f8e9cb;fill-opacity:1;fill-rule:evenodd;stroke:none"
       id="path5871"
       inkscape:connector-curvature="0" />
    <path
       d="m 51.616921,169.51891 -22.0225,0 0,-26.0875 0,-0.3275 22.0225,0 0,0.3275 0,26.0875 z m -29.6025,0 -22.05374957,0 0,-26.0875 0,-0.3275 22.05374957,0 0,0.3275 0,26.0875 z m -27.2887496,-30.61 0,3.1625 0,28.47125 0,1.29375 3.54125,0 58.6024996,0 0,-1.29375 0,-27.85375 0,-0.6175 0,-3.1625 -62.1437496,0 z"
       style="fill:#71685f;fill-opacity:1;fill-rule:evenodd;stroke:none"
       id="path5875"
       inkscape:connector-curvature="0" />
    <path
       d="m -0.04142857,174.17101 22.05374957,0 0,26.415 -22.05374957,0 0,-26.415 z"
       style="fill:#f8e9cb;fill-opacity:1;fill-rule:evenodd;stroke:none"
       id="path5877"
       inkscape:connector-curvature="0" />
    <path
       d="m 29.593571,174.17101 22.0225,0 0,26.415 -22.0225,0 0,-26.415 z"
       style="fill:#f8e9cb;fill-opacity:1;fill-rule:evenodd;stroke:none"
       id="path5879"
       inkscape:connector-curvature="0" />
    <path
       d="m 51.616921,200.58461 -22.0225,0 0,-26.0875 0,-0.3275 22.0225,0 0,0.3275 0,26.0875 z m -29.6025,0 -22.05374957,0 0,-26.0875 0,-0.3275 22.05374957,0 0,0.3275 0,26.0875 z m -27.2887496,-28.7475 0,1.3 0,28.48375 0,1.29125 3.54125,0 58.6024996,0 0,-1.29125 0,-27.8625 0,-0.62125 0,-1.3 -62.1437496,0 z"
       style="fill:#71685f;fill-opacity:1;fill-rule:evenodd;stroke:none"
       id="path5883"
       inkscape:connector-curvature="0" />
    <path
       d="m -0.04142857,205.23351 22.05374957,0 0,26.41125 -22.05374957,0 0,-26.41125 z"
       style="fill:#60928c;fill-opacity:1;fill-rule:evenodd;stroke:none"
       id="path5885"
       inkscape:connector-curvature="0" />
    <path
       d="m 29.593571,205.23351 22.0225,0 0,26.41125 -22.0225,0 0,-26.41125 z"
       style="fill:#60928c;fill-opacity:1;fill-rule:evenodd;stroke:none"
       id="path5887"
       inkscape:connector-curvature="0" />
    <path
       d="m 51.616921,231.64411 -22.0225,0 0,-26.08125 0,-0.33 22.0225,0 0,0.33 0,26.08125 z m -29.6025,0 -22.05374957,0 0,-26.08125 0,-0.33 22.05374957,0 0,0.33 0,26.08125 z m -27.2887496,-28.7325 0,1.2975 0,28.47 0,3.1575 3.54125,0 58.6024996,0 0,-3.1575 0,-27.855 0,-0.615 0,-1.2975 -62.1437496,0 z"
       style="fill:#71685f;fill-opacity:1;fill-rule:evenodd;stroke:none"
       id="path5891"
       inkscape:connector-curvature="0" />
    <path
       d="m 125.06732,143.10476 22.0475,0 0,26.415 -22.0475,0 0,-26.415 z"
       style="fill:#f8e9cb;fill-opacity:1;fill-rule:evenodd;stroke:none"
       id="path5895"
       inkscape:connector-curvature="0" />
    <path
       d="m 154.68232,143.10476 22.0325,0 0,26.415 -22.0325,0 0,-26.415 z"
       style="fill:#f8e9cb;fill-opacity:1;fill-rule:evenodd;stroke:none"
       id="path5897"
       inkscape:connector-curvature="0" />
    <path
       d="m 176.71462,169.51891 -22.0325,0 0,-26.0875 0,-0.3275 22.0325,0 0,0.3275 0,26.0875 z m -29.59625,0 -22.05125,0 0,-26.0875 0,-0.3275 22.05125,0 0,0.3275 0,26.0875 z m -27.2825,-30.61 0,3.1625 0,28.47125 0,1.29375 3.525,0 58.61,0 0,-1.29375 0,-27.85375 0,-0.6175 0,-3.1625 -62.135,0 z"
       style="fill:#71685f;fill-opacity:1;fill-rule:evenodd;stroke:none"
       id="path5901"
       inkscape:connector-curvature="0" />
    <path
       d="m 125.06732,174.17101 22.0475,0 0,26.415 -22.0475,0 0,-26.415 z"
       style="fill:#f8e9cb;fill-opacity:1;fill-rule:evenodd;stroke:none"
       id="path5903"
       inkscape:connector-curvature="0" />
    <path
       d="m 154.68232,174.17101 22.0325,0 0,26.415 -22.0325,0 0,-26.415 z"
       style="fill:#f8e9cb;fill-opacity:1;fill-rule:evenodd;stroke:none"
       id="path5905"
       inkscape:connector-curvature="0" />
    <path
       d="m 176.71462,200.58461 -22.0325,0 0,-26.0875 0,-0.3275 22.0325,0 0,0.3275 0,26.0875 z m -29.59625,0 -22.05125,0 0,-26.0875 0,-0.3275 22.05125,0 0,0.3275 0,26.0875 z m -27.2825,-28.7475 0,1.3 0,28.48375 0,1.29125 3.525,0 58.61,0 0,-1.29125 0,-27.8625 0,-0.62125 0,-1.3 -62.135,0 z"
       style="fill:#71685f;fill-opacity:1;fill-rule:evenodd;stroke:none"
       id="path5909"
       inkscape:connector-curvature="0" />
    <path
       d="m 125.06732,205.23351 22.0475,0 0,26.41125 -22.0475,0 0,-26.41125 z"
       style="fill:#60928c;fill-opacity:1;fill-rule:evenodd;stroke:none"
       id="path5911"
       inkscape:connector-curvature="0" />
    <path
       d="m 154.68232,205.23351 22.0325,0 0,26.41125 -22.0325,0 0,-26.41125 z"
       style="fill:#60928c;fill-opacity:1;fill-rule:evenodd;stroke:none"
       id="path5913"
       inkscape:connector-curvature="0" />
    <path
       d="m 176.71462,231.64411 -22.0325,0 0,-26.08125 0,-0.33 22.0325,0 0,0.33 0,26.08125 z m -29.59625,0 -22.05125,0 0,-26.08125 0,-0.33 22.05125,0 0,0.33 0,26.08125 z m -27.2825,-28.7325 0,1.2975 0,28.47 0,3.1575 3.525,0 58.61,0 0,-3.1575 0,-27.855 0,-0.615 0,-1.2975 -62.135,0 z"
       style="fill:#71685f;fill-opacity:1;fill-rule:evenodd;stroke:none"
       id="path5917"
       inkscape:connector-curvature="0" />
    <path
       d="m 108.83732,236.03726 80.4575,0 0,6.335 -80.4575,0 0,-6.335 z"
       style="fill:#71685f;fill-opacity:1;fill-rule:evenodd;stroke:none"
       id="path5919"
       inkscape:connector-curvature="0" />
    <path
       d="m 94.947121,322.86111 -7.95125,0 -74.14375,0 0,3.24375 0,71.40875 0,3.24125 4.66,0 69.48375,0 4.66,0 3.29125,0 74.137499,0 0,-3.24125 0,-69.84875 0,-1.56 0,-3.24375 -74.137499,0 z"
       style="fill:#71685f;fill-opacity:1;fill-rule:evenodd;stroke:none"
       id="path5923"
       inkscape:connector-curvature="0" />
    <path
       d="m 80.532121,328.10381 -13.36625,0 -47.39625,0 0,66.90125 47.39625,0 13.36625,0 20.883749,0 60.75,0 0,-66.90125 -81.633749,0 z"
       style="fill:#60928c;fill-opacity:1;fill-rule:evenodd;stroke:none"
       id="path5927"
       inkscape:connector-curvature="0" />
    <path
       d="m 12.850421,322.86111 0,3.02625 0,75.16375 7.39,-6.57625 0,-65.89625 141.462499,0 7.38375,-5.7175 -156.236249,0 z"
       style="fill:#71685f;fill-opacity:1;fill-rule:evenodd;stroke:none"
       id="path5931"
       inkscape:connector-curvature="0" />
    <path
       d="m 4.0346214,348.69031 0,9.1025 24.8024996,0 0.2025,0 24.61125,0 0.19,0 24.63125,0 0.19,0 24.604999,0 0.1975,0 24.62,0 0.20625,0 24.59625,0 0.2125,0 24.80875,0 0,-9.1025 -173.8737486,0 z"
       style="opacity:0.5;fill:#cccccc;fill-opacity:1;fill-rule:nonzero;stroke:none"
       id="path5963"
       inkscape:connector-curvature="0" />
    <path
       d="m 4.0360714,348.43351 25.0049996,0 0,-40.09875 -25.0049996,0 0,40.09875 z"
       style="fill:#a2552f;fill-opacity:1;fill-rule:nonzero;stroke:none"
       id="path5965"
       inkscape:connector-curvature="0" />
    <path
       d="m 4.0360714,339.33101 25.0049996,0 0,-35.15875 -25.0049996,0 0,35.15875 z"
       style="fill:#d8713f;fill-opacity:1;fill-rule:nonzero;stroke:none"
       id="path5967"
       inkscape:connector-curvature="0" />
    <path
       d="m 28.838571,348.43351 25.005,0 0,-40.09875 -25.005,0 0,40.09875 z"
       style="fill:#e0d8b6;fill-opacity:1;fill-rule:nonzero;stroke:none"
       id="path5969"
       inkscape:connector-curvature="0" />
    <path
       d="m 28.838571,339.33101 25.005,0 0,-35.15875 -25.005,0 0,35.15875 z"
       style="fill:#f8e9cb;fill-opacity:1;fill-rule:nonzero;stroke:none"
       id="path5971"
       inkscape:connector-curvature="0" />
    <path
       d="m 53.652321,348.43351 25.01125,0 0,-40.09875 -25.01125,0 0,40.09875 z"
       style="fill:#a2552f;fill-opacity:1;fill-rule:nonzero;stroke:none"
       id="path5973"
       inkscape:connector-curvature="0" />
    <path
       d="m 53.652321,339.33101 25.01125,0 0,-35.15875 -25.01125,0 0,35.15875 z"
       style="fill:#d8713f;fill-opacity:1;fill-rule:nonzero;stroke:none"
       id="path5975"
       inkscape:connector-curvature="0" />
    <path
       d="m 78.473571,348.43351 24.992499,0 0,-40.09875 -24.992499,0 0,40.09875 z"
       style="fill:#e0d8b6;fill-opacity:1;fill-rule:nonzero;stroke:none"
       id="path5977"
       inkscape:connector-curvature="0" />
    <path
       d="m 78.473571,339.33101 24.992499,0 0,-35.15875 -24.992499,0 0,35.15875 z"
       style="fill:#f8e9cb;fill-opacity:1;fill-rule:nonzero;stroke:none"
       id="path5979"
       inkscape:connector-curvature="0" />
    <path
       d="m 103.26857,348.43351 25.02,0 0,-40.09875 -25.02,0 0,40.09875 z"
       style="fill:#a2552f;fill-opacity:1;fill-rule:nonzero;stroke:none"
       id="path5981"
       inkscape:connector-curvature="0" />
    <path
       d="m 103.26857,339.33101 25.02,0 0,-35.15875 -25.02,0 0,35.15875 z"
       style="fill:#d8713f;fill-opacity:1;fill-rule:nonzero;stroke:none"
       id="path5983"
       inkscape:connector-curvature="0" />
    <path
       d="m 128.08357,348.43351 25.0175,0 0,-40.09875 -25.0175,0 0,40.09875 z"
       style="fill:#e0d8b6;fill-opacity:1;fill-rule:nonzero;stroke:none"
       id="path5985"
       inkscape:connector-curvature="0" />
    <path
       d="m 128.08357,339.33101 25.0175,0 0,-35.15875 -25.0175,0 0,35.15875 z"
       style="fill:#f8e9cb;fill-opacity:1;fill-rule:nonzero;stroke:none"
       id="path5987"
       inkscape:connector-curvature="0" />
    <path
       d="m 152.88607,348.43351 25.02375,0 0,-40.09875 -25.02375,0 0,40.09875 z"
       style="fill:#a2552f;fill-opacity:1;fill-rule:nonzero;stroke:none"
       id="path5989"
       inkscape:connector-curvature="0" />
    <path
       d="m 152.88607,339.33101 25.02375,0 0,-35.15875 -25.02375,0 0,35.15875 z"
       style="fill:#d8713f;fill-opacity:1;fill-rule:nonzero;stroke:none"
       id="path5991"
       inkscape:connector-curvature="0" />
    <path
       d="m 65.648221,387.59091 21.06125,0 0,7.655 6.85375,0 0,-7.655 21.062499,0 0,-6.145 -48.977499,0 0,6.145 z"
       style="fill:#486e69;fill-opacity:1;fill-rule:nonzero;stroke:none"
       id="path5995"
       inkscape:connector-curvature="0" />
    <path
       d="m 130.45482,395.24601 4.3675,0 0,-32.5625 -4.3675,0 0,32.5625 z"
       style="fill:#486e69;fill-opacity:1;fill-rule:nonzero;stroke:none"
       id="path5997"
       inkscape:connector-curvature="0" />
    <path
       d="m 45.081071,395.24601 4.36125,0 0,-32.5625 -4.36125,0 0,32.5625 z"
       style="fill:#486e69;fill-opacity:1;fill-rule:nonzero;stroke:none"
       id="path5999"
       inkscape:connector-curvature="0" />
    <path
       d="m 214.36482,101.27101 -246.788749,0 0,10.59375 246.788749,0 0,-10.59375 z"
       style="fill:#a2552f;fill-opacity:1;fill-rule:nonzero;stroke:none"
       id="path6001"
       inkscape:connector-curvature="0" />
    <path
       d="m 214.36612,101.27221 -246.788749,0 19.21,-32.593752 208.376249,0 19.2025,32.593752 z"
       style="fill:#d8713f;fill-opacity:1;fill-rule:nonzero;stroke:none"
       id="path6005"
       inkscape:connector-curvature="0" />
    <path
       d="m 167.06357,88.311008 -27.09125,0 0,-38.76375 27.09125,0 0,38.76375 z"
       style="fill:#a2552f;fill-opacity:1;fill-rule:nonzero;stroke:none"
       id="path6007"
       inkscape:connector-curvature="0" />
  </g>
</svg>
