<?xml version="1.0" encoding="UTF-8" standalone="no"?>
<!-- Created with Inkscape (http://www.inkscape.org/) -->

<svg
   xmlns:dc="http://purl.org/dc/elements/1.1/"
   xmlns:cc="http://creativecommons.org/ns#"
   xmlns:rdf="http://www.w3.org/1999/02/22-rdf-syntax-ns#"
   xmlns:svg="http://www.w3.org/2000/svg"
   xmlns="http://www.w3.org/2000/svg"
   xmlns:sodipodi="http://sodipodi.sourceforge.net/DTD/sodipodi-0.dtd"
   xmlns:inkscape="http://www.inkscape.org/namespaces/inkscape"
   width="284.42984mm"
   height="200.59857mm"
   viewBox="0 0 1007.8223 710.78235"
   id="svg12844"
   version="1.1"
   inkscape:version="0.91 r"
   sodipodi:docname="hands-middle.svg">
  <defs
     id="defs12846" />
  <sodipodi:namedview
     id="base"
     pagecolor="#ffffff"
     bordercolor="#666666"
     borderopacity="1.0"
     inkscape:pageopacity="0.0"
     inkscape:pageshadow="2"
     inkscape:zoom="0.49497475"
     inkscape:cx="733.31015"
     inkscape:cy="382.32345"
     inkscape:document-units="px"
     inkscape:current-layer="layer1"
     showgrid="false"
     fit-margin-top="0"
     fit-margin-left="0"
     fit-margin-right="0"
     fit-margin-bottom="0"
     inkscape:window-width="1366"
     inkscape:window-height="744"
     inkscape:window-x="0"
     inkscape:window-y="24"
     inkscape:window-maximized="1" />
  <metadata
     id="metadata12849">
    <rdf:RDF>
      <cc:Work
         rdf:about="">
        <dc:format>image/svg+xml</dc:format>
        <dc:type
           rdf:resource="http://purl.org/dc/dcmitype/StillImage" />
        <dc:title></dc:title>
      </cc:Work>
    </rdf:RDF>
  </metadata>
  <g
     inkscape:label="Layer 1"
     inkscape:groupmode="layer"
     id="layer1"
     transform="translate(-673.23171,524.30887)">
    <path
       d="m 1146.9705,153.75556 c 104.6062,0 189.9212,-85.3175 189.9212,-189.92 0,-104.60625 -85.315,-189.92125 -189.9212,-189.92125 -104.605,0 -189.92003,85.315 -189.92003,189.92125 0,104.6025 85.31503,189.92 189.92003,189.92"
       style="fill:#a5d4cf;fill-opacity:1;fill-rule:evenodd;stroke:none"
       id="path7731"
       inkscape:connector-curvature="0" />
    <path
       d="m 1146.9705,105.33496 c 77.9337,0 141.5,-63.56375 141.5,-141.5 0,-77.935 -63.5663,-141.50125 -141.5,-141.50125 -77.9363,0 -141.5,63.56625 -141.5,141.50125 0,77.93625 63.5637,141.5 141.5,141.5"
       style="fill:#a6cee3;fill-opacity:1;fill-rule:evenodd;stroke:none"
       id="path7735"
       inkscape:connector-curvature="0" />
    <path
       d="m 1146.9705,83.01186 c 65.6412,0 119.1762,-53.53625 119.1762,-119.17625 0,-65.64125 -53.535,-119.17875 -119.1762,-119.17875 -65.6413,0 -119.1763,53.5375 -119.1763,119.17875 0,65.64 53.535,119.17625 119.1763,119.17625"
       style="fill:#c7e5f5;fill-opacity:1;fill-rule:evenodd;stroke:none"
       id="path7739"
       inkscape:connector-curvature="0" />
    <path
       d="m 1383.4729,-258.50104 0,0 c -1.8888,-7.0075 2.2575,-14.51625 9.3037,-16.175 l 67.27,-15.845 c 7.0488,-1.66 14.2875,2.29625 16.1775,9.305 1.8875,7.0075 -2.3012,14.2675 -9.305,16.1725 l -67.2725,15.84375 c -7.0662,1.66625 -14.2825,-2.295 -16.1737,-9.30125"
       style="fill:#d4b194;fill-opacity:1;fill-rule:evenodd;stroke:none"
       id="path7743"
       inkscape:connector-curvature="0" />
    <path
       d="m 1400.6616,-234.74834 0,0 c -2.9788,-6.61875 -0.081,-14.68875 6.6125,-17.44875 l 63.8925,-26.34625 c 6.6925,-2.76 14.4662,-0.008 17.4487,6.6125 2.9788,6.6175 0,14.45125 -6.6137,17.445 l -63.8925,26.3475 c -6.7125,2.77 -14.4663,0.007 -17.4475,-6.61"
       style="fill:#d4b194;fill-opacity:1;fill-rule:evenodd;stroke:none"
       id="path7747"
       inkscape:connector-curvature="0" />
    <path
       d="m 1511.3675,-189.16844 1.3712,-85.4475 -62.9262,-27.255 -56.105,18.1325 72.1825,92.4225 45.4775,2.1475 z"
       style="fill:#e2c0a8;fill-opacity:1;fill-rule:evenodd;stroke:none"
       id="path7751"
       inkscape:connector-curvature="0" />
    <path
       d="m 1420.5171,-210.87084 0,0 c -4.6675,-5.56 -4.0688,-14.115 1.625,-18.58875 l 54.3387,-42.705 c 5.6913,-4.47375 13.9213,-3.93375 18.5875,1.62625 4.6663,5.5625 3.925,13.90875 -1.6262,18.5875 l -54.3375,42.705 c -5.71,4.48625 -13.9238,3.9375 -18.5875,-1.625"
       style="fill:#e2c0a8;fill-opacity:1;fill-rule:evenodd;stroke:none"
       id="path7755"
       inkscape:connector-curvature="0" />
    <path
       d="m 1507.1621,-209.72944 c 22.8425,15.29375 11.6437,56.73125 -5.3213,66.85125 -16.97,10.12125 -40.6287,-0.90375 -56.1037,-23.8575 -15.4738,-22.9525 -7.3913,-49.47625 1.6712,-54.5625 9.06,-5.085 36.9088,-3.725 59.7538,11.56875"
       style="fill:#ffd7b7;fill-opacity:1;fill-rule:evenodd;stroke:none"
       id="path7759"
       inkscape:connector-curvature="0" />
    <path
       d="m 1513.2356,-175.09504 0,0 c -7.1663,1.14625 -15.4613,-3.72 -15.1125,-10.945 l 4.2262,-88.19375 c 0.3475,-7.225 3.7788,-13.9675 10.9463,-15.1125 7.1662,-1.14625 13.95,3.77875 15.11,10.94375 l -4.2263,88.1975 c -0.3475,7.25125 -3.7775,13.96375 -10.9437,15.11"
       style="fill:#ffd7b7;fill-opacity:1;fill-rule:evenodd;stroke:none"
       id="path7763"
       inkscape:connector-curvature="0" />
    <path
       d="m 1452.667,-310.11954 0,0 c 3.6312,-6.28375 11.6825,-8.2975 18.025,-4.82125 l 50.2325,26.66625 c 6.3912,3.3925 8.4537,11.7425 4.82,18.02625 -3.6313,6.28375 -11.73,8.4375 -18.0225,4.82 l -50.2338,-26.66625 c -6.4087,-3.4025 -8.455,-11.74125 -4.8212,-18.025"
       style="fill:#ffd7b7;fill-opacity:1;fill-rule:evenodd;stroke:none"
       id="path7767"
       inkscape:connector-curvature="0" />
    <path
       d="m 1379.9891,-293.48784 0,0 c -1.1238,-7.17 3.8037,-14.18875 10.9887,-15.0825 l 68.5813,-8.525 c 7.185,-0.8925 13.9562,3.8175 15.0837,10.9875 1.1238,7.17125 -3.8212,13.93875 -10.99,15.08 l -68.5825,8.5275 c -7.205,0.89625 -13.955,-3.81875 -15.0812,-10.9875"
       style="fill:#ffd7b7;fill-opacity:1;fill-rule:evenodd;stroke:none"
       id="path7771"
       inkscape:connector-curvature="0" />
    <path
       d="m 1485.7706,-286.29554 c 1.2312,12.3725 5.5812,72.62875 -23.6513,61.045 -29.2325,-11.58125 21.3413,52.14875 21.3413,52.14875 l 35.2212,-37.62375 c 0,0 7.8063,-58.165 -32.9112,-75.57"
       style="fill:#ffd7b7;fill-opacity:1;fill-rule:evenodd;stroke:none"
       id="path7775"
       inkscape:connector-curvature="0" />
    <path
       d="m 1519.1964,-208.53724 -59.7688,30.3575 13.0425,39.29875 62.9263,-23.75625 -16.2,-45.9 z"
       style="fill:#ffd7b7;fill-opacity:1;fill-rule:evenodd;stroke:none"
       id="path7779"
       inkscape:connector-curvature="0" />
    <path
       d="m 1539.302,-171.36654 -80.3813,29.54625 9.1288,24.83375 80.38,-29.545 -9.1275,-24.835 z"
       style="fill:#ffffff;fill-opacity:1;fill-rule:evenodd;stroke:none"
       id="path7783"
       inkscape:connector-curvature="0" />
    <path
       d="m 1464.951,-195.79354 0,0 c -5.9938,6.0575 -16.3025,6.51 -21.9088,0.11875 l -50.6787,-57.73875 c -5.6088,-6.39 -6.1138,-15.85125 -0.12,-21.91 5.995,-6.0575 14.952,-5.04269 21.9087,-0.11625 18.5061,23.03503 33.7186,38.69934 50.6813,57.73875 5.6237,6.40625 6.1125,15.85 0.1175,21.9075"
       style="fill:#ffd7b7;fill-opacity:1;fill-rule:evenodd;stroke:none"
       id="path7787"
       inkscape:connector-curvature="0"
       sodipodi:nodetypes="cccscccc" />
    <path
       d="m 967.89922,-175.15754 0,0 c 2.3375,-6.87125 -1.315,-14.63125 -8.24,-16.74375 l -66.10625,-20.1525 c -6.925,-2.11375 -14.40375,1.3675 -16.7425,8.23875 -2.3375,6.87125 1.37375,14.38625 8.24125,16.74125 l 66.10625,20.15375 c 6.945,2.12 14.4025,-1.36625 16.74125,-8.2375"
       style="fill:#d4b194;fill-opacity:1;fill-rule:evenodd;stroke:none"
       id="path7791"
       inkscape:connector-curvature="0" />
    <path
       d="m 949.21296,-152.56484 0,0 c 3.40125,-6.4125 1.03,-14.6525 -5.47125,-17.84 l -62.05625,-30.415 c -6.5025,-3.18625 -14.43875,-0.9425 -17.84125,5.47 -3.4,6.4125 -0.9325,14.42 5.4725,17.8375 l 62.05875,30.4175 c 6.5175,3.1975 14.435,0.9425 17.8375,-5.47"
       style="fill:#d4b194;fill-opacity:1;fill-rule:evenodd;stroke:none"
       id="path7795"
       inkscape:connector-curvature="0" />
    <path
       d="m 835.79609,-114.22804 4.1475,-85.3575 64.55625,-23.13375 40.37625,18.595 -63.5575,90.68875 -45.5225,-0.7925 z"
       style="fill:#e2c0a8;fill-opacity:1;fill-rule:evenodd;stroke:none"
       id="path7799"
       inkscape:connector-curvature="0" />
    <path
       d="m 927.85746,-130.01834 0,0 c 5.015,-5.2475 4.97,-13.82375 -0.42125,-18.65625 l -51.46625,-46.1225 c -5.3925,-4.8325 -13.64125,-4.825 -18.655,0.4225 -5.015,5.2475 -4.815,13.625 0.4225,18.6525 l 51.46625,46.125 c 5.40625,4.84625 13.63875,4.82625 18.65375,-0.42125"
       style="fill:#e2c0a8;fill-opacity:1;fill-rule:evenodd;stroke:none"
       id="path7803"
       inkscape:connector-curvature="0" />
    <path
       d="m 841.31996,-134.47474 c -23.78375,13.78625 -15.28625,55.86 0.99375,67.05625 16.27875,11.195 40.60125,1.72125 57.52625,-20.185 16.92375,-21.9075 10.57125,-48.8975 1.8575,-54.55875 -8.71375,-5.65875 -36.5925,-6.09875 -60.3775,7.6875"
       style="fill:#ffd7b7;fill-opacity:1;fill-rule:evenodd;stroke:none"
       id="path7807"
       inkscape:connector-curvature="0" />
    <path
       d="m 833.02272,-100.30454 0,0 c 7.07875,1.6075 15.66625,-2.715 15.7875,-9.94625 l 1.47625,-88.2825 c 0.12,-7.23125 -2.8675,-14.18125 -9.94625,-15.78875 -7.07875,-1.60625 -14.16375,2.87 -15.78625,9.94625 l -1.47625,88.28375 c -0.1225,7.25875 2.86625,14.18125 9.945,15.7875"
       style="fill:#ffd7b7;fill-opacity:1;fill-rule:evenodd;stroke:none"
       id="path7811"
       inkscape:connector-curvature="0" />
    <path
       d="m 902.18372,-231.13744 0,0 c -3.22,-6.505 -11.12125,-9.035 -17.6775,-5.975 l -51.8475,23.3675 c -6.59625,2.97375 -9.195,11.1725 -5.97625,17.6775 3.22,6.50625 11.1625,9.17875 17.67625,5.97375 l 51.85,-23.3675 c 6.61625,-2.9825 9.195,-11.17 5.975,-17.67625"
       style="fill:#ffd7b7;fill-opacity:1;fill-rule:evenodd;stroke:none"
       id="path7815"
       inkscape:connector-curvature="0" />
    <path
       d="m 973.63547,-209.84694 0,0 c 1.585,-7.0825 -2.88,-14.405 -9.99125,-15.75875 l -67.88875,-12.93625 c -7.1125,-1.35625 -14.17375,2.90875 -15.76,9.99 -1.58625,7.0825 2.9125,14.15625 9.99125,15.7575 l 67.89,12.9375 c 7.1325,1.36 14.1725,-2.90625 15.75875,-9.99"
       style="fill:#ffd7b7;fill-opacity:1;fill-rule:evenodd;stroke:none"
       id="path7819"
       inkscape:connector-curvature="0" />
    <path
       d="m 867.61046,-209.49984 c -2.02625,12.2675 -10.26,72.115 19.66,62.445 29.91875,-9.67125 -24.665,50.6625 -24.665,50.6625 l -32.7175,-39.8225 c 0,0 -4.03375,-58.545 37.7225,-73.285"
       style="fill:#ffd7b7;fill-opacity:1;fill-rule:evenodd;stroke:none"
       id="path7823"
       inkscape:connector-curvature="0" />
    <path
       d="m 829.23434,-134.06274 57.6825,34.15375 -15.55375,38.375 -61.25875,-27.77 19.13,-44.75875 z"
       style="fill:#ffd7b7;fill-opacity:1;fill-rule:evenodd;stroke:none"
       id="path7827"
       inkscape:connector-curvature="0" />
    <path
       d="m 806.76971,-98.26794 78.305,34.675 -10.71375,24.19375 -78.305,-34.67375 10.71375,-24.195 z"
       style="fill:#ffffff;fill-opacity:1;fill-rule:evenodd;stroke:none"
       id="path7831"
       inkscape:connector-curvature="0" />
    <path
       d="m 1036.461,-167.25494 c 0.079,0.0337 0.1562,0.0663 0.2325,0.105 l 61.0325,30.34 c 5.6512,2.80875 2.4525,9.435 -3.2475,6.7475 l -56.0613,-26.4375 -5.5625,-2.765 c -0.5637,-0.28 -1.625,2.0075 -1.0525,2.28125 l 5.615,2.68125 55.6975,27.10875 c 5.6825,2.765 2.74,8.94625 -2.9937,6.285 l -56.2025,-26.08125 -5.6088,-2.67875 c -0.125,-0.06 -0.2487,-0.10625 -0.3775,-0.0375 -0.3462,0.1825 -0.7675,0.99625 -0.2075,1.26375 l 5.6275,2.6875 55.5425,27.42625 c 5.6713,2.79875 2.735,8.90375 -2.985,6.2175 l -56.0725,-26.34125 -5.6062,-2.675 c -0.615,-0.295 -1.5813,1.80125 -0.9788,2.095 l 61.1863,29.95875 c 5.7287,2.6425 2.7012,9.13875 -3.06,6.4975 l -54.4575,-24.9575 -0.05,0.105 -6.6063,-3.155 -0.8475,-0.38875 c -0.12,-0.055 -0.2262,-0.11625 -0.3412,-0.17875 l -4.09,-1.95375 -13.005,-5.9775 c -5.41629,-2.48875 -9.43754,-5.48875 -10.82629,-11.665 l -0.7875,-3.50375 0.005,-0.2525 c 0.095,-4.5675 -10.1475,-10.8575 -13.4675,-12.82875 -4.81,-2.855 -9.8575,-5.405 -14.90375,-7.8125 -5.71875,-2.72875 -11.5175,-5.2925 -17.3375,-7.79125 -4.76375,-2.045 -9.5475,-4.04625 -14.33375,-6.04125 l -0.11375,-0.0462 -0.0737,-0.0325 -0.0412,-0.015 -0.1125,-0.0487 -0.115,-0.0475 -0.07,-0.03 -0.0437,-0.0175 -0.11375,-0.0475 -0.11375,-0.0487 -0.0688,-0.0263 -0.045,-0.0188 -0.115,-0.0475 -0.1125,-0.0488 -0.065,-0.0275 -0.0488,-0.02 -0.11625,-0.0487 -0.11375,-0.0475 -0.0588,-0.0237 -0.055,-0.0238 -0.11375,-0.0463 -0.11375,-0.0475 -0.0563,-0.025 -0.0575,-0.0225 -0.11375,-0.0475 -0.11375,-0.0475 -0.0537,-0.0225 -0.0613,-0.025 -0.1125,-0.0488 -0.115,-0.0462 -0.0487,-0.0213 -0.065,-0.0263 -0.11375,-0.0475 -0.11375,-0.0475 -0.0462,-0.02 -0.0675,-0.0275 -0.11375,-0.0475 -0.11375,-0.0487 -0.0425,-0.0175 -0.0725,-0.0288 -0.11375,-0.0475 -0.11375,-0.0487 -0.0387,-0.015 -0.075,-0.0325 -0.11375,-0.0475 -0.11375,-0.0475 -0.035,-0.015 -0.0787,-0.0312 -0.11375,-0.0475 -0.115,-0.0475 -0.0312,-0.0138 -0.0838,-0.0337 -0.1125,-0.0475 -0.11375,-0.0487 -0.0275,-0.0113 -0.0875,-0.0362 -0.11375,-0.0475 -0.11375,-0.0475 -0.0238,-0.01 -0.20375,-0.085 -0.11375,-0.0475 -0.0213,-0.009 -0.0925,-0.0387 -0.11375,-0.0463 -0.115,-0.0487 -0.0163,-0.006 -0.5525,-0.2325 -0.11375,-0.0462 -0.01,-0.006 -0.445,-0.18625 -0.11375,-0.0475 -0.45625,-0.19 c -0.69,-0.28875 -1.37875,-0.575 -2.07,-0.8625 -1.38,-0.5725 -2.7625,-1.14 -4.1475,-1.70125 l -1.0375,-0.42 -1.04,-0.42 -1.04125,-0.41625 c -1.04,-0.4175 -2.08125,-0.83 -3.1225,-1.24125 l -10e-4,0 -1.0425,-0.41 -1.04375,-0.4075 -1.045,-0.4075 -1.04375,-0.405 -1.04625,-0.40125 -1.04625,-0.4 -1.04625,-0.4 c -1.0475,-0.3975 -2.09625,-0.795 -3.145,-1.18875 l -1.04875,-0.39125 -1.05,-0.39125 -1.05125,-0.39 -1.05125,-0.385 -1.0525,-0.38625 -1.05125,-0.38375 -1.05375,-0.38375 -1.05375,-0.38125 -1.055,-0.37875 -1.05375,-0.37625 -1.05625,-0.37625 -1.05625,-0.375 -1.05625,-0.3725 -1.05625,-0.37125 -1.0575,-0.37 -1.05875,-0.3675 0,-0.001 -1.05875,-0.36625 -1.05875,-0.365 -1.06,-0.36375 -1.06,-0.3625 -1.06125,-0.36 -1.06125,-0.35875 -1.06125,-0.35875 -1.06375,-0.355 -1.0625,-0.355 -1.06375,-0.35375 -1.0625,-0.35125 c -1.06375,-0.35125 -2.12875,-0.70125 -3.195,-1.04875 l -1.065,-0.34625 -1.0675,-0.345 -1.06625,-0.3425 -1.0675,-0.3425 -1.0675,-0.34125 -1.0675,-0.34 -1.06875,-0.33875 -1.06875,-0.33625 -2.1375,-0.67125 -10e-4,0 -1.07,-0.3325 -0.001,0 -1.07,-0.33125 -0.35125,-0.11 -0.3525,-0.1075 -0.35375,-0.11 -10e-4,0 -0.3525,-0.1075 -0.35125,-0.10875 -0.35375,-0.1075 -0.3525,-0.10875 -0.35375,-0.1075 0,-0.001 -0.3525,-0.1075 -0.35375,-0.1075 -0.3525,-0.1075 -0.35375,-0.1075 -0.3525,-0.1075 -0.3525,-0.1075 -0.3525,-0.1075 -0.002,0 -0.3525,-0.10625 0,0 -0.3525,-0.10625 -0.35375,-0.10625 -0.35375,-0.1075 -0.3525,-0.10625 -0.3525,-0.10625 -0.001,0 -0.35375,-0.10625 -0.35375,-0.10625 -0.3525,-0.10625 -0.35375,-0.10625 -0.35375,-0.10625 -0.3525,-0.105 -0.35375,-0.105 -0.21875,-0.0663 31.69625,-13.7925 0.9325,0.6075 0.94125,0.6075 0,0.001 0.94,0.60875 0.9425,0.60625 0,0.001 0.9425,0.60625 0.94375,0.605 0,10e-4 0.9425,0.60125 0,10e-4 0.945,0.60125 0.94625,0.60125 0.94625,0.60125 1.895,1.19375 0.94875,0.59625 10e-4,0 0.95,0.595 0.95,0.5925 0.95125,0.5925 0.9525,0.5875 0.95375,0.59 0.95375,0.58625 0.95375,0.58625 10e-4,10e-4 0.955,0.5825 0,0.001 0.9575,0.58375 0.9575,0.58125 0.95875,0.58125 0.95875,0.5775 0.96,0.57625 0.96125,0.57625 0.9625,0.57375 0.001,0 0.9625,0.57375 0.96375,0.57 0.96375,0.57 0.96625,0.56875 10e-4,0 0.96625,0.56625 0.9675,0.56375 0.96875,0.56375 0.96875,0.56125 0.97,0.56 0,10e-4 0.9725,0.55625 0,0.001 0.97125,0.55625 0,0.001 0.9725,0.55375 0.002,0 0.97375,0.55375 0,0.001 0.975,0.55125 0.97625,0.55 0.97625,0.5475 0.97875,0.5475 0.001,0 0.9775,0.545 0,0.001 0.98125,0.5425 0.98,0.54125 0.9825,0.54 0.98375,0.53875 0.98375,0.535 10e-4,0 0.985,0.53625 0.985,0.53125 0.002,0 0.1075,0.06 0.11,0.0588 0.1025,0.0562 0.008,0.002 0.11,0.0587 0.11,0.06 0.095,0.0513 0.0137,0.009 0.11,0.0588 0.11,0.0587 0.09,0.0488 0.02,0.01 0.11,0.06 0.10875,0.0587 0.0838,0.045 0.0263,0.0138 0.11,0.0587 0.11,0.0587 0.075,0.0425 0.035,0.0175 0.11,0.0588 0.10875,0.0587 0.33,0.1775 0.0625,0.0337 0.0475,0.0263 0.11,0.0575 0.11,0.06 0.055,0.03 0.055,0.0288 0.11,0.0588 0.10875,0.06 0.0487,0.025 0.0613,0.0337 0.10875,0.0588 0.11,0.0587 0.0425,0.0225 0.0675,0.0375 0.11,0.0575 0.11,0.0587 0.035,0.02 0.075,0.0387 0.10875,0.0587 0.11,0.06 0.03,0.0163 0.08,0.0425 0.11,0.0587 0.11,0.0588 0.0225,0.0125 0.0875,0.0462 0.11,0.06 0.11,0.0587 0.015,0.008 0.0937,0.0512 0.11,0.0587 0.11125,0.0588 0.007,0.005 0.10125,0.0537 0.11,0.06 0.11,0.0588 0.002,0.001 0.1075,0.0575 0.11125,0.0587 0.105,0.055 0.004,0.002 0.11,0.0588 0.11,0.0587 0.0975,0.0525 0.0125,0.006 0.11,0.0587 0.11,0.06 0.21875,0.1175 0.11,0.0587 0.085,0.045 0.025,0.015 0.11,0.0575 0.11,0.0588 0.0787,0.0412 0.0312,0.0175 0.11,0.0588 0.11,0.0587 c 4.55,2.425 9.11,4.825 13.70375,7.17125 5.63375,2.8775 11.315,5.67875 17.07375,8.2975 5.0925,2.315 10.29625,4.52875 15.585,6.3575 3.71625,1.2875 15.12875,5.02625 18.65129,2.0575 l 0.1925,-0.1625 3.2225,-1.59 c 5.675,-2.80375 10.535,-1.56125 15.8762,1.085 l 17.0013,8.42875 z"
       style="opacity:0.19999701;fill:#000000;fill-opacity:1;fill-rule:evenodd;stroke:none"
       id="path7847"
       inkscape:connector-curvature="0" />
    <path
       d="m 1021.1178,-184.51594 c 0.079,0.0337 0.1563,0.0662 0.2325,0.105 l 61.0325,30.34 c 5.6513,2.80875 2.4525,9.435 -3.2475,6.7475 l -56.0612,-26.4375 -5.5625,-2.765 c -0.5638,-0.28 -1.625,2.0075 -1.0525,2.28125 l 5.615,2.68125 55.6975,27.10875 c 5.6825,2.765 2.74,8.94625 -2.9938,6.285 l -56.2025,-26.08125 -5.6087,-2.67875 c -0.125,-0.06 -0.2488,-0.10625 -0.3775,-0.0375 -0.3463,0.1825 -0.7675,0.99625 -0.2075,1.26375 l 5.6275,2.6875 55.5425,27.42625 c 5.6712,2.79875 2.735,8.90375 -2.985,6.2175 l -56.0725,-26.34125 -5.6063,-2.67625 c -0.615,-0.29375 -1.5812,1.8025 -0.9787,2.09625 l 61.1862,29.95875 c 5.7288,2.6425 2.7025,9.13875 -3.06,6.4975 l -54.4575,-24.9575 -0.05,0.105 -6.6062,-3.155 -0.8475,-0.38875 c -0.12,-0.055 -0.2263,-0.11625 -0.3413,-0.17875 l -4.08871,-1.95375 -13.00625,-5.9775 c -5.41625,-2.48875 -9.4375,-5.48875 -10.82625,-11.665 l -0.7875,-3.50375 0.005,-0.2525 c 0.095,-4.5675 -10.1475,-10.8575 -13.4675,-12.82875 -4.81,-2.855 -9.8575,-5.405 -14.90375,-7.8125 -5.7175,-2.72875 -11.5175,-5.2925 -17.3375,-7.79125 -7.18375,-3.085 -14.41125,-6.065 -21.625,-9.085 -22.0575,-9.24 -44.62625,-17.1625 -67.46875,-24.22875 -7.5225,-2.3275 -15.075,-4.545 -22.6275,-6.775 -2.41875,-0.715 -4.84375,-1.4275 -7.24875,-2.1925 -1.36375,-0.43375 -2.935,-0.91 -4.22375,-1.525 -5.2225,-2.49625 -10.1,-6.29 -13.36,-11.11375 -2.74625,-4.06375 -4.435,-9.08375 -3.29375,-13.99125 0.21875,-0.9375 0.5375,-1.8475 0.95125,-2.71625 0.415,-0.87 0.92375,-1.68875 1.515,-2.44875 3.1,-3.9725 8.06375,-5.815 12.9525,-6.23375 5.8,-0.495 11.81625,0.9125 17.04,3.405 1.29,0.615 2.6475,1.53875 3.8425,2.32625 2.105,1.39 4.18625,2.8275 6.26125,4.26 6.4825,4.4725 12.9525,8.95 19.4925,13.34 19.855,13.3225 40.2025,25.89375 61.25375,37.24125 6.88,3.70875 13.77375,7.39125 20.73375,10.945 5.63375,2.8775 11.315,5.67875 17.07375,8.2975 5.0925,2.315 10.29625,4.52875 15.585,6.3575 3.71625,1.2875 15.12875,5.02625 18.6525,2.0575 l 0.19125,-0.1625 3.2225,-1.59 c 5.675,-2.80375 10.535,-1.56125 15.87626,1.085 l 17.0012,8.42875 z"
       style="fill:#ffffff;fill-opacity:1;fill-rule:evenodd;stroke:none"
       id="path7851"
       inkscape:connector-curvature="0" />
    <path
       d="m 914.98659,-206.23844 c -2.43125,-1.01375 -4.8625,-2.02625 -7.29125,-3.045 -22.05875,-9.23875 -44.62625,-17.1625 -67.46875,-24.2275 -7.5225,-2.3275 -15.07375,-4.545 -22.6275,-6.775 -2.41875,-0.715 -4.84375,-1.42875 -7.24875,-2.19375 -1.36375,-0.4325 -2.935,-0.91 -4.225,-1.525 -5.22125,-2.49375 -10.09875,-6.29 -13.35875,-11.11375 -2.74625,-4.0625 -4.435,-9.0825 -3.29375,-13.99 0.2175,-0.9375 0.53625,-1.8475 0.95125,-2.7175 0.415,-0.86875 0.92375,-1.68875 1.515,-2.4475 3.1,-3.97125 8.065,-5.81375 12.9525,-6.23375 5.8,-0.49625 11.81625,0.91125 17.04,3.405 1.28875,0.61625 2.6475,1.5375 3.8425,2.32625 2.105,1.38875 4.18625,2.82625 6.2625,4.26125 6.48125,4.4725 12.95125,8.95 19.4925,13.33875 19.8525,13.3225 40.2025,25.895 61.25375,37.24125 2.34,1.26125 4.6825,2.52125 7.02875,3.7725 -0.62125,1.5025 -1.2825,2.9975 -1.99125,4.48125 -0.88875,1.86 -1.8375,3.67125 -2.83375,5.4425"
       style="fill:#403940;fill-opacity:1;fill-rule:evenodd;stroke:none"
       id="path7855"
       inkscape:connector-curvature="0" />
    <path
       d="m 913.95909,-213.70764 c -35.96,-16.9625 -68.45875,-35.7875 -99.54375,-52.835 -6.96375,-3.82 -3.665,-10.80875 3.5025,-6.9125 31.66875,21.08 61.865,41.44625 96.04125,57.27375 0.20375,0.105 0.40875,0.20875 0.61375,0.315 l -0.61375,2.15875 z"
       style="fill:#635963;fill-opacity:1;fill-rule:evenodd;stroke:none"
       id="path7859"
       inkscape:connector-curvature="0" />
    <path
       d="m 1141.1661,-37.10384 c 22.86,-1.27 33.8875,20.525 48.835,27.4049997 24.805,11.4175 67.765,13.79875 53.795,58.7462503 -7.7338,24.88125 -40.6625,29.33375 -58.3175,40.18625 -24.7388,15.20625 -46.1163,53.08875 -86.4625,16.59 -26.2188,-23.7175 -13.4575,-53.08625 -3.5125,-74.38625 11.9812,-25.6612503 8.9887,-66.50625 45.6625,-68.54125"
       style="opacity:0.19999701;fill:#000000;fill-opacity:1;fill-rule:evenodd;stroke:none"
       id="path7883"
       inkscape:connector-curvature="0" />
    <path
       d="m 1130.9211,-43.96494 c 22.8612,-1.27 33.8887,20.52625 48.8362,27.405 24.805,11.4174997 67.765,13.7987497 53.7925,58.7475 -7.7337,24.88 -40.6625,29.3325 -58.315,40.18625 -24.7412,15.205 -46.1175,53.08625 -86.4637,16.59 -26.2188,-23.71875 -13.4575,-53.08875 -3.5125,-74.38625 11.9812,-25.6625003 8.9887,-66.5075 45.6625,-68.5425"
       style="fill:#ffffff;fill-opacity:1;fill-rule:evenodd;stroke:none"
       id="path7887"
       inkscape:connector-curvature="0" />
    <path
       d="m 1162.3835,11.97966 c 13.75,12.59 14.6912,33.9425 2.1012,47.69375 -12.59,13.75 -33.9425,14.69125 -47.6925,2.10125 -13.7512,-12.5875 -14.6925,-33.94125 -2.1012,-47.69125 12.5887,-13.75000028 33.94,-14.69250028 47.6925,-2.10375"
       style="fill:#ffae00;fill-opacity:1;fill-rule:evenodd;stroke:none"
       id="path7891"
       inkscape:connector-curvature="0" />
    <path
       d="m 1157.2467,12.96506 c 10.4538,9.57 11.1675,25.8025 1.5988,36.25375 -9.57,10.4525 -25.8,11.16875 -36.2525,1.5975 -10.4525,-9.56875 -11.1688,-25.8 -1.6,-36.2525 9.5712,-10.4525003 25.8025,-11.1675003 36.2537,-1.59875"
       style="fill:#ffc64c;fill-opacity:1;fill-rule:evenodd;stroke:none"
       id="path7895"
       inkscape:connector-curvature="0" />
    <path
       d="m 1060.0113,-123.97244 c 0.065,1.83125 6.1738,4.6625 5.4463,9.51 -1.1038,7.35875 4.3837,20.55625 14.22,25.205 17.925,8.475 66.3512,-13.46625 59.6437,-43.98875 -5.5387,-25.22 -80.2112,-16.14875 -79.31,9.27375"
       style="opacity:0.19999701;fill:#000000;fill-opacity:1;fill-rule:evenodd;stroke:none"
       id="path8189"
       inkscape:connector-curvature="0" />
    <path
       d="m 1010.7966,-7.0219403 c -4.8913,-12.9324997 21.5737,-17.9562497 38.5437,-31.2987497 16.9688,-13.345 11.725,-18.01875 25.67,-28.51 13.9413,-10.49125 22.305,-7.01625 37.715,-18.61 15.4113,-11.59625 16.49,-23.90125 32.64,-36.05125 11.7388,-8.835 21.5663,-8.75875 34.41,-18.4225 13.2075,-9.93875 18.3513,-29.91125 26.3175,-23.82625 2.83,2.16125 21.6988,27.5375 28.7688,39.57 2.9712,5.06125 -3.0013,5.1 -7.07,8.6675 -5.925,5.195 -3.6763,9.10125 -16.8838,19.04125 -12.8437,9.6625 -20.675,10.165 -32.4137,19 -16.1475,12.14875 -17.23,24.45375 -32.6375,36.05125 -15.4113,11.595 -23.7738,8.1175 -37.7163,18.60875 -13.9437,10.49 -8.7012,15.1674997 -25.67,28.5099997 -12.7075,9.9912503 -24.1487,10.2650003 -29.5062,16.9637503 -4.8163,6.0225 -7.7338,11.33 -12.8838,6.865 -10.7887,-9.35125 -24.8525,-24.8375003 -29.2837,-36.5587503"
       style="opacity:0.19999701;fill:#000000;fill-opacity:1;fill-rule:evenodd;stroke:none"
       id="path8213"
       inkscape:connector-curvature="0" />
    <path
       d="m 1000.5515,-13.88184 c -4.89129,-12.9325 21.5737,-17.9575 38.5437,-31.3 16.9688,-13.34375 11.725,-18.01875 25.67,-28.51 13.9413,-10.49125 22.305,-7.01625 37.715,-18.61 15.4113,-11.59625 16.49,-23.90125 32.6388,-36.05125 11.7387,-8.83375 21.5687,-8.75875 34.41,-18.4225 13.21,-9.93875 18.3537,-29.91125 26.3212,-23.82625 2.8288,2.16 21.695,27.53625 28.765,39.57 2.9738,5.06125 -3.0012,5.1 -7.07,8.6675 -5.9225,5.19625 -3.6737,9.10125 -16.8837,19.04125 -12.8413,9.6625 -20.6725,10.165 -32.4138,19 -16.1475,12.15 -17.2275,24.45375 -32.6362,36.0525 -15.4113,11.59375 -23.7738,8.1175 -37.7163,18.60875 -13.9437,10.49 -8.7012,15.1675 -25.67,28.5087497 -12.7075,9.9925 -24.1487,10.26625 -29.5062,16.9637503 -4.8163,6.0225 -7.7325,11.33 -12.8838,6.865 -10.7887,-9.35125 -24.8525,-24.8375003 -29.2837,-36.5575"
       style="fill:#e6535f;fill-opacity:1;fill-rule:evenodd;stroke:none"
       id="path8217"
       inkscape:connector-curvature="0" />
    <path
       d="m 1006.4276,-7.3753403 c -4.9425,-12.8937497 22.2475,-18.4637497 38.9262,-31.5887497 16.6788,-13.12375 11.455,-17.81375 25.1638,-28.12875 13.7062,-10.3125 22.0075,-6.79125 37.1587,-18.19 15.1513,-11.4 16.1175,-23.62125 31.9938,-35.56625 11.5437,-8.68625 21.265,-8.53125 33.8912,-18.03125 12.9863,-9.77125 17.9125,-29.58 25.8413,-23.46875 1.2387,0.955 6.22,5.96 10.6562,13.2075 2.4225,3.95875 2.0063,3.55625 -2.2512,4.35625 -6.0675,1.14 -10.1188,15.3325 -20.995,23.5175 -12.6263,9.5 -22.3488,9.34375 -33.8913,18.02875 -15.875,11.945 -16.8437,24.1675 -31.9937,35.5675 -15.15,11.4 -23.4525,7.87625 -37.1588,18.19125 -13.7075,10.31375 -8.485,15.00375 -25.1625,28.1275 -16.6787,13.1249997 -41.0025,15.9762497 -36.8712,29.1424997 1.0437,3.3225003 -2.3063,2.4262503 -4.5563,-0.315 -3.5237,-4.29375 -9.84,-12.47 -10.7512,-14.85"
       style="fill:#ffadb4;fill-opacity:1;fill-rule:evenodd;stroke:none"
       id="path8221"
       inkscape:connector-curvature="0" />
    <path
       d="M 1011.5963,-0.50514028 C 1006.6538,-13.39889 1033.8451,-18.96889 1050.5226,-32.09389 c 16.68,-13.12375 11.455,-17.81375 25.1637,-28.12875 13.7075,-10.3125 22.0088,-6.79 37.16,-18.19 15.15,-11.4 16.1175,-23.62125 31.9913,-35.56625 11.5425,-8.68625 21.2675,-8.53125 33.8937,-18.03125 12.985,-9.77 19.0863,-30.31875 25.8413,-23.46875 0.8612,0.87375 -0.1963,2.17625 -2.3313,2.7675 -5.9425,1.65125 -10.1212,15.33375 -20.995,23.5175 -12.6262,9.5 -22.3487,9.345 -33.8912,18.03 -15.8763,11.94625 -16.8438,24.16625 -31.9938,35.5675 -15.1512,11.4 -23.4525,7.87625 -37.16,18.19 -13.7075,10.31375 -8.4837,15.0025 -25.1612,28.12875 -16.68,13.12375 -41.0038,15.97625 -36.8713,29.14374972 1.0413,3.31999998 -2.3075,2.42499998 -4.5562,-0.3175 -3.5238,-4.29250002 0.8962,2.32749998 -0.016,-0.0537"
       style="fill:#f58992;fill-opacity:1;fill-rule:evenodd;stroke:none"
       id="path8225"
       inkscape:connector-curvature="0" />
    <path
       d="m 1027.3527,17.22906 c -4.9887,-12.8587503 21.89,-18.19500028 38.3038,-31.12125 16.4162,-12.925 11.21,-17.6275 24.7037,-27.78125 13.495,-10.155 21.74,-6.59 36.655,-17.8125 14.9163,-11.22125 15.7838,-23.3675 31.41,-35.12875 11.365,-8.54875 20.9925,-8.32125 33.42,-17.675 12.7838,-9.62 18.5525,-30.445 25.4125,-23.14375 1.2888,1.37125 -0.2675,2.22625 -2.2875,2.73375 -5.9025,1.48375 -9.9037,15.17125 -20.6125,23.22875 -12.4275,9.3525 -22.0575,9.12625 -33.42,17.675 -15.6275,11.76125 -16.495,23.90625 -31.4112,35.12875 -14.915,11.2225 -23.16,7.6575 -36.655,17.81125 -13.4938,10.15375 -8.2875,14.85625 -24.7025,27.7825 -16.415,12.9262497 -40.4763,15.5812497 -36.2875,28.70375 1.0575,3.31 -2.2638,2.39625 -4.5125,-0.3475 -3.5213,-4.295 0.905,2.31875 -0.016,-0.0538"
       style="fill:#ffc4c9;fill-opacity:1;fill-rule:evenodd;stroke:none"
       id="path8229"
       inkscape:connector-curvature="0" />
    <path
       d="m 787.02072,-307.72424 c 41.24125,0 74.87875,-33.6375 74.87875,-74.87875 0,-41.24125 -33.6375,-74.87875 -74.87875,-74.87875 -41.24125,0 -74.87875,33.6375 -74.87875,74.87875 0,41.24125 33.6375,74.87875 74.87875,74.87875"
       style="fill:#c7e5f5;fill-opacity:1;fill-rule:evenodd;stroke:none"
       id="path8241"
       inkscape:connector-curvature="0" />
    <path
       d="m 787.02072,-313.04084 c 38.31375,0 69.56125,-31.2475 69.56125,-69.56125 0,-38.3125 -31.2475,-69.5625 -69.56125,-69.5625 -38.31375,0 -69.56125,31.25 -69.56125,69.5625 0,38.31375 31.2475,69.56125 69.56125,69.56125"
       style="fill:#ffd885;fill-opacity:1;fill-rule:evenodd;stroke:none"
       id="path8245"
       inkscape:connector-curvature="0" />
    <path
       d="m 787.02072,-316.00754 c 36.67875,0 66.595,-29.915 66.595,-66.595 0,-36.67875 -29.91625,-66.59375 -66.595,-66.59375 -36.67875,0 -66.595,29.915 -66.595,66.59375 0,36.68 29.91625,66.595 66.595,66.595"
       style="fill:#ffc64a;fill-opacity:1;fill-rule:evenodd;stroke:none"
       id="path8249"
       inkscape:connector-curvature="0" />
    <path
       d="m 787.02072,-318.08524 c 35.535,0 64.51625,-28.98375 64.51625,-64.51625 0,-35.535 -28.98125,-64.5175 -64.51625,-64.5175 -35.535,0 -64.51625,28.9825 -64.51625,64.5175 0,35.5325 28.98125,64.51625 64.51625,64.51625"
       style="fill:#ffb10a;fill-opacity:1;fill-rule:evenodd;stroke:none"
       id="path8253"
       inkscape:connector-curvature="0" />
    <path
       d="m 769.00234,-391.64324 c -0.0275,-0.13 2.115,-0.6975 4.78625,-1.27 2.67,-0.57 4.85875,-0.9275 4.88625,-0.7975 0.0275,0.13 -2.115,0.7 -4.78625,1.27 -2.67,0.57 -4.85875,0.92875 -4.88625,0.7975 m 13.70625,10.715 0,0.5575 c -0.50375,0.47875 -1.08625,1.02 -1.71375,1.5875 -2.02875,1.83 -3.7425,3.235 -3.8325,3.135 -0.0887,-0.0975 1.4825,-1.66375 3.50875,-3.49375 0.7425,-0.67 1.44375,-1.28375 2.0375,-1.78625 m 0,-19.5575 0,0.4825 -0.0337,-0.003 c -2.725,-0.185 -4.92875,-0.44375 -4.9175,-0.57625 0.009,-0.1325 2.22375,-0.0913 4.94875,0.0962 l 0.002,0 z m 0,-7.49875 0,0.87 c -2.9675,-1.24125 -4.9975,-2.21 -4.93125,-2.38 0.0637,-0.165 2.07125,0.46125 4.93125,1.51 m 0,-4.36875 0,0.48625 c -0.68,-0.41375 -1.49125,-0.92625 -2.35875,-1.49375 -2.28625,-1.49375 -4.07875,-2.7975 -4.00625,-2.91 0.0738,-0.11125 1.985,1.01125 4.27125,2.50625 0.7725,0.505 1.48625,0.98875 2.09375,1.41125 m 0,-12.10125 0,1.065 c -1.2625,-1.70875 -2.015,-2.85125 -1.90375,-2.94 0.0962,-0.0762 0.81625,0.645 1.90375,1.875 m 0,12.5875 0,-0.48625 c 1.19,0.82875 1.96,1.425 1.91125,1.49875 -0.0438,0.07 -0.79875,-0.3375 -1.91125,-1.0125 m 0,11.86375 0,-0.4825 c 2.725,0.185 4.92375,0.445 4.915,0.57625 -0.009,0.13375 -2.20625,0.09 -4.915,-0.0937 m 0,19.6325 0,-0.5575 c 1.0275,-0.87125 1.7375,-1.4125 1.79375,-1.35 0.0613,0.0687 -0.66875,0.8375 -1.79375,1.9075 m 8.5825,5.20625 0,2.03875 c -1.6975,3.44625 -3.05875,5.91125 -3.2425,5.825 -0.21375,-0.10125 1.22,-3.56875 3.2425,-7.86375 m 0,-17.8175 0,0.53625 -0.6575,0.34625 c -2.42125,1.26125 -4.43375,2.19 -4.495,2.07375 -0.0625,-0.11875 1.85125,-1.23875 4.2725,-2.5025 0.3,-0.1575 0.595,-0.30875 0.88,-0.45375 m 0,-11.585 0,0.77875 c -1.44625,-0.50875 -3.2325,-1.1775 -5.15375,-1.935 -1.225,-0.4825 -2.385,-0.95375 -3.42875,-1.39125 l 0,-0.87 c 1.14,0.4175 2.41375,0.9025 3.75625,1.43 1.805,0.71125 3.46625,1.3975 4.82625,1.9875 m 0,-9.09875 c -0.9625,-1.37375 -2.5575,-3.47375 -4.4125,-5.79125 -1.59125,-1.98625 -3.06875,-3.7525 -4.17,-4.9975 l 0,1.065 c 0.92875,1.255 2.1325,2.8175 3.4725,4.49125 2.105,2.6275 4.01125,4.8675 5.11,6.02875 l 0,-0.79625 z m 0,-5.8975 0,0.7825 c -0.65125,-1.2375 -1.0425,-2.08375 -0.9675,-2.1275 0.0637,-0.0337 0.43125,0.4875 0.9675,1.345 m 0,-5.6725 0,1.1175 c -0.25375,-0.53125 -0.52625,-1.1175 -0.805,-1.73625 -1.1225,-2.49 -1.93375,-4.5525 -1.81375,-4.6075 0.12125,-0.055 1.13125,1.92 2.25375,4.40875 0.1275,0.27875 0.2475,0.5525 0.365,0.8175 m 0,1.1175 0,-1.1175 c 0.92875,2.10875 1.55875,3.74 1.45,3.78875 -0.0912,0.0425 -0.685,-1.0625 -1.45,-2.67125 m 0,11.24875 c 0.5525,0.585 0.9,0.895 0.965,0.84375 0.08,-0.0637 -0.28625,-0.67125 -0.965,-1.64 l 0,0.79625 z m 3.3725,42.07 0,1.7375 c -0.6125,2.0625 -1.1375,3.57 -1.24625,3.53875 -0.1275,-0.0362 0.37125,-2.195 1.1175,-4.82375 l 0.12875,-0.4525 z m 0,-11.11625 0,1.52125 c -0.60625,1.4075 -1.395,3.145 -2.28125,5.01125 -0.3725,0.785 -0.73875,1.54375 -1.09125,2.2575 l 0,-2.03875 0.285,-0.6025 c 1.175,-2.47625 2.28375,-4.67125 3.0875,-6.14875 m 0,-12.6425 0,0.17875 c -0.515,0.36 -1.79375,1.095 -3.3725,1.93375 l 0,-0.53625 c 1.5675,-0.7975 2.85625,-1.4 3.3725,-1.57625 m 0,-8.38875 0,0.1875 c -0.425,-0.0463 -1.6625,-0.42625 -3.3725,-1.02875 l 0,-0.77875 c 1.715,0.7425 2.94875,1.3325 3.3725,1.62 m 0,-10.6175 0,0.61125 c -0.4925,-0.7425 -1.2725,-2.03625 -2.11625,-3.52875 -0.47375,-0.8375 -0.90375,-1.62625 -1.25625,-2.29875 l 0,-0.7825 c 0.46375,0.745 1.0525,1.74 1.67625,2.8425 0.69375,1.2275 1.29375,2.34875 1.69625,3.15625 m 16.2225,-9.40875 c 0.12625,0.0425 -0.49125,2.17125 -1.37875,4.755 -0.88875,2.58375 -1.71,4.64375 -1.83625,4.59875 -0.125,-0.0438 0.49125,-2.1725 1.38,-4.755 0.88625,-2.58375 1.70875,-4.64125 1.835,-4.59875 m -4.84,58.83125 c -0.24625,0.0188 -0.7875,-4.05 -1.20875,-9.09375 -0.42125,-5.04125 -0.565,-9.14375 -0.31875,-9.165 0.24625,-0.0213 0.78875,4.05 1.20875,9.0925 0.4225,5.04125 0.565,9.145 0.31875,9.16625 m -3.4425,-15.815 c -0.13375,-0.002 -0.195,-2.22 -0.14,-4.94875 0.0563,-2.73 0.20875,-4.94375 0.3425,-4.94 0.1325,0.002 0.19625,2.21875 0.14,4.94875 -0.0563,2.73125 -0.20875,4.9425 -0.3425,4.94 m -2.70625,-37.6375 c 0.13125,-0.0213 0.57125,2.15125 0.98375,4.85125 0.4125,2.7 0.64,4.905 0.5075,4.9275 -0.13125,0.0175 -0.5725,-2.15375 -0.98375,-4.85375 -0.4125,-2.70125 -0.64,-4.905 -0.5075,-4.925 m -5.23375,4.64125 0,-0.61125 c 0.37875,0.75625 0.5825,1.23625 0.52625,1.27 -0.0425,0.0225 -0.235,-0.22125 -0.52625,-0.65875 m 0,10.19375 0,-0.1875 c 0.11625,0.0787 0.17375,0.135 0.16125,0.165 -0.01,0.025 -0.0637,0.0312 -0.16125,0.0225 m 0,8.38 0,-0.17875 c 0.1475,-0.05 0.23125,-0.0662 0.2425,-0.0425 0.015,0.0263 -0.0725,0.10375 -0.2425,0.22125 m 0,13.985 0,-1.52125 c 0.68125,-1.2475 1.145,-1.9825 1.24625,-1.935 0.1325,0.0637 -0.36625,1.41625 -1.24625,3.45625 m 0,11.3325 0,-1.7375 c 0.6975,-2.41125 1.33125,-4.2725 1.4525,-4.23875 0.1275,0.0375 -0.3725,2.195 -1.1175,4.8225 -0.1125,0.4 -0.225,0.78625 -0.335,1.15375 m 24.245,0.7975 0,0.1425 c -0.16375,-0.0362 -1.26,-1.9125 -2.4925,-4.27375 -1.26375,-2.42125 -2.19375,-4.43375 -2.075,-4.495 0.1175,-0.0613 1.23875,1.85 2.5025,4.2725 1.085,2.0775 1.9225,3.8525 2.065,4.35375 m 0,-12.2025 0,0.89875 c -1.18,-1.195 -2.94,-3.1125 -4.8575,-5.3125 -3.32375,-3.8125 -5.86875,-7.03625 -5.68375,-7.19875 0.18625,-0.1625 3.03375,2.79875 6.3575,6.6125 1.67625,1.9225 3.155,3.695 4.18375,5 m 0,-13.37875 0,0.37625 c -0.9475,-0.38125 -1.5325,-0.655 -1.50875,-0.72375 0.0225,-0.065 0.60125,0.0738 1.50875,0.3475 m 0,-5.07125 0,0.4375 c -0.62375,0.002 -1.31875,-0.004 -2.05,-0.0175 -2.73125,-0.0537 -4.9425,-0.205 -4.93875,-0.33875 0.002,-0.1325 2.21875,-0.19625 4.94875,-0.14375 0.72625,0.0138 1.41875,0.035 2.04,0.0625 m 0,-8.9825 0,0.49375 c -1.46,0.715 -2.49125,1.15875 -2.5325,1.075 -0.0463,-0.0888 0.99875,-0.72875 2.5325,-1.56875 m 0,-5.97625 0,1.035 c -2.0175,1.65625 -3.42125,2.69375 -3.52625,2.57375 -0.11375,-0.1325 1.3275,-1.5925 3.52625,-3.60875 m 0,-7.82875 0,0.75125 c -0.90375,1.2 -1.55625,1.98 -1.62875,1.9275 -0.0837,-0.0588 0.59625,-1.165 1.62875,-2.67875 m -16.2275,-12.45875 c 0.24625,0 0.44625,4.1025 0.44625,9.1625 0,5.06 -0.2,9.16 -0.44625,9.16 -0.24875,0 -0.4475,-4.1 -0.4475,-9.16 0,-5.06 0.19875,-9.1625 0.4475,-9.1625 m 16.2275,54.595 0,-0.89875 c 1.0125,1.28375 1.5925,2.11625 1.50125,2.1975 -0.08,0.07 -0.635,-0.42 -1.50125,-1.29875 m 0,11.44625 0,-0.1425 c 0.0225,0.085 0.0275,0.13375 0.0112,0.1425 l -0.0112,0 m 1.85375,-25.12875 0,0.49125 c -0.7,-0.2575 -1.3325,-0.5 -1.85375,-0.71 l 0,-0.37625 c 0.5225,0.1575 1.15625,0.36125 1.85375,0.595 m 0,-5.55875 0,0.29625 c -0.48875,0.0212 -1.1225,0.0325 -1.85375,0.0337 l 0,-0.4375 c 0.73125,0.0288 1.365,0.0662 1.85375,0.1075 m 0,-4.07625 0,0.49125 c -0.88875,0.095 -1.41125,0.11 -1.42625,0.0225 -0.0175,-0.0888 0.50875,-0.2725 1.42625,-0.51375 m 0,-5.99875 0,0.5425 c -0.66125,0.3425 -1.28875,0.66 -1.85375,0.93625 l 0,-0.49375 c 0.53,-0.28875 1.12,-0.605 1.7425,-0.9275 l 0.11125,-0.0575 z m 0,-6.6625 0,1.15625 c -0.6575,0.55875 -1.28,1.07875 -1.85375,1.55 l 0,-1.035 c 0.57125,-0.52375 1.19375,-1.085 1.85375,-1.67125 m 0,-8.77625 0,0.81125 c -0.13625,0.19625 -0.27625,0.395 -0.42,0.595 -0.5125,0.72 -1.00125,1.39 -1.43375,1.96375 l 0,-0.75125 c 0.31875,-0.46375 0.66875,-0.96875 1.04125,-1.4925 0.28,-0.3925 0.55125,-0.77 0.8125,-1.12625 m 11.21,44.3375 c -0.0738,0.11125 -1.99,-1.00125 -4.2825,-2.4875 -2.2925,-1.48375 -4.09125,-2.78 -4.01875,-2.8925 0.0712,-0.11125 1.99,1.00125 4.28125,2.4875 2.2925,1.485 4.09125,2.78125 4.02,2.8925 m 5.3975,-15.2425 c -0.0137,0.1325 -2.2275,0.01 -4.94375,-0.27375 -2.7175,-0.2825 -4.9075,-0.62125 -4.89375,-0.7525 0.015,-0.13375 2.2275,-0.0113 4.94375,0.27125 2.71625,0.285 4.9075,0.6225 4.89375,0.755 m -16.6075,-28.28375 0,-0.81125 c 1.215,-1.65625 2.16,-2.82625 2.24875,-2.76375 0.1,0.0713 -0.88,1.6225 -2.24875,3.575 m 0,9.12125 0,-1.15625 c 0.39625,-0.3525 0.8075,-0.71375 1.2275,-1.08125 3.8125,-3.3275 7.035,-5.8725 7.19625,-5.6875 0.1625,0.185 -2.79625,3.035 -6.6075,6.36 -0.625,0.54625 -1.23375,1.07 -1.81625,1.565 m 0,6.04875 0,-0.5425 c 2.37375,-1.23 4.3275,-2.1275 4.3875,-2.01 0.0613,0.1175 -1.85375,1.235 -4.27625,2.495 l -0.11125,0.0575 z m 0,5.9475 0,-0.49125 c 1.5875,-0.42125 4.345,-1.01625 7.49625,-1.60375 4.97375,-0.92625 9.0425,-1.48125 9.08875,-1.24 0.045,0.2425 -3.95,1.19125 -8.925,2.11875 -3.20875,0.59875 -6.04125,1.0425 -7.66,1.21625 m 0,3.88125 0,-0.29625 c 0.65625,0.0537 1.0475,0.11125 1.04625,0.1675 -10e-4,0.0562 -0.39125,0.1 -1.04625,0.12875 m 0,5.75375 0,-0.49125 c 0.4375,0.1475 0.90125,0.3075 1.38125,0.47625 2.575,0.90875 4.6275,1.74625 4.5825,1.8725 -0.0438,0.1275 -2.1675,-0.50875 -4.74375,-1.4175 -0.42375,-0.15 -0.8325,-0.29625 -1.22,-0.44"
       style="fill:#ffc64a;fill-opacity:1;fill-rule:evenodd;stroke:none"
       id="path8265"
       inkscape:connector-curvature="0" />
    <path
       d="m 783.37034,-364.40694 c -12.16,-6.78375 -20.38375,-19.77375 -20.38375,-34.685 0,-14.91125 8.22375,-27.90125 20.38375,-34.685 l 0,2.38 c -0.88875,0.455 -1.765,1.00625 -2.56125,1.62875 -3.99625,3.12125 -6.015,6.42375 -4.32,7.8525 l 6.88125,5.805 0,1.32125 -7.4725,-6.35 c -1.93,-1.64 -5.7875,2.13625 -7.51,6.4 -1.9,4.70125 -1.99625,8.57125 0.18375,8.96125 l 14.79875,2.6475 0,1.0475 -14.92125,-2.73 c -2.49375,-0.455 -3.945,4.745 -3.30375,9.29875 0.70375,5.0225 2.55625,8.42125 4.64,7.66875 l 13.585,-4.905 0,1.09 -13.20875,4.71375 c -2.3875,0.85125 -1.04375,6.08125 1.7875,9.70375 3.12125,3.9975 6.42375,6.015 7.85125,4.32125 l 3.57,-4.2325 0,1.53375 -2.79375,3.2875 c -1.1425,1.34625 0.34375,3.62625 2.79375,5.46875 l 0,2.4575 z m 10.92,-25.69375 0,1.635 -10.92,12.845 0,-1.53375 10.92,-12.94625 z m 0,-6.59375 0,1.1375 -10.92,3.89625 0,-1.09 10.92,-3.94375 z m 0,-4.4825 0,1.09125 -10.92,-1.9975 0,-1.0475 10.92,1.95375 z m 0,-5.7225 0,1.39125 -10.92,-9.28125 0,-1.32125 10.92,9.21125 z m -10.92,-26.8775 c 3.3675,-1.88 7.03875,-3.28125 10.92,-4.1175 l 0,2.53375 c -2.18375,0.90125 -3.3525,2.1175 -2.8775,3.42875 l 2.8775,7.97125 0,2.99 -3.77625,-10.585 c -0.665,-1.8625 -3.9925,-1.4525 -7.14375,0.15875 l 0,-2.38 z m 10.92,73.48875 c -3.88125,-0.83625 -7.5525,-2.23875 -10.92,-4.11875 l 0,-2.4575 c 1.065,0.80125 2.31375,1.52125 3.6075,2.04375 3.01,1.215 5.67875,1.6925 7.3125,1.305 l 0,3.2275 z m 3.05375,-33.4325 0,1.66 -3.05375,3.595 0,-1.635 3.05375,-3.62 z m 0,-10.60375 0,8.42875 c -0.34,-0.3125 -0.83375,-0.45375 -1.38125,-0.25875 l -1.6725,0.5975 0,-1.1375 1.22125,-0.4425 c 1.40875,-0.5075 1.3375,-2.4825 -0.11375,-2.7475 l -1.1075,-0.20125 0,-1.09125 1.20625,0.21625 c 1.475,0.265 2.40125,-1.48 1.27625,-2.4375 l -2.4825,-2.11 0,-1.39125 3.05375,2.575 z m 0,-11.18 0,3.09125 -3.05375,-8.5575 0,-2.99 3.05375,8.45625 z m -3.05375,-22.39 c 1.00375,-0.21625 2.0225,-0.39375 3.05375,-0.5325 l 0,2.1575 c -1.15375,0.24125 -2.18375,0.55125 -3.05375,0.90875 l 0,-2.53375 z m 3.05375,78.13875 c -1.03125,-0.13875 -2.05,-0.31625 -3.05375,-0.5325 l 0,-3.2275 c 0.9175,-0.2175 1.50625,-0.70625 1.64875,-1.49125 l 1.405,-7.85375 0,5.5725 -0.44,2.405 c -0.1,0.54125 0.0687,1.035 0.44,1.46625 l 0,3.66125 z m 2.5125,-27.15125 0,5.87625 -2.5125,13.7425 0,-5.5725 2.5125,-14.04625 z m 0,-21.63875 0,14.93875 c -0.5,-0.2 -1.10125,-0.115 -1.53875,0.40125 l -0.97375,1.145 0,-1.66 0.0925,-0.11125 c 0.585,-0.69375 0.43,-1.58375 -0.0925,-2.06375 l 0,-8.42875 0.0525,0.045 c 1.145,0.965 2.81875,-0.0838 2.32375,-1.47375 l -2.37625,-6.66 0,-3.09125 2.5125,6.95875 z m -2.5125,-29.88125 c 0.83,-0.11125 1.6675,-0.19875 2.5125,-0.2575 l 0,2.02375 c -0.26125,0.0238 -0.51875,0.0525 -0.77625,0.0888 -0.605,0.0838 -1.18375,0.18625 -1.73625,0.3025 l 0,-2.1575 z m 2.5125,78.9275 c -0.845,-0.0588 -1.6825,-0.145 -2.5125,-0.25625 l 0,-3.66125 c 0.51,0.595 1.40375,1.07875 2.5125,1.41875 l 0,2.49875 z m 6.59625,-63.23875 0,5.75375 -1.92625,10.765 c -0.22125,1.2375 0.97125,2.08875 1.92625,1.66625 l 0,10.37625 c -0.69375,0.21875 -1.19125,0.93625 -0.89125,1.77875 l 0.89125,2.4975 0,3.13875 -1.87125,-5.185 c -0.51,-1.4075 -2.485,-1.3375 -2.75,0.115 l -1.975,10.80125 0,-5.87625 0.89875,-5.025 c 0.14375,-0.79875 -0.305,-1.4375 -0.89875,-1.675 l 0,-14.93875 0.845,2.34125 c 0.50875,1.40875 2.48375,1.3375 2.74875,-0.11375 l 3.0025,-16.42 z m 0,63.16 c -1.2425,0.11875 -2.5,0.18125 -3.77125,0.18125 -0.95,0 -1.89125,-0.0363 -2.825,-0.1025 l 0,-2.49875 c 1.79125,0.54875 4.14375,0.72875 6.34625,0.42 l 0.25,-0.0362 0,2.03625 z m -3.77125,-79.2075 c 1.27125,0 2.52875,0.0625 3.77125,0.18 l 0,2.8375 c -1.66625,-0.7575 -4.17125,-1.1075 -6.59625,-0.8925 l 0,-2.02375 c 0.93375,-0.0663 1.875,-0.10125 2.825,-0.10125 m 5.2575,53.0475 0,3.09125 -1.48625,-4.115 0,-3.13875 1.48625,4.1625 z m 0,-20.35375 0,1.6625 -0.0937,0.11 c -0.58625,0.69375 -0.43,1.5825 0.0937,2.065 l 0,8.42875 -0.0538,-0.045 c -0.45,-0.38 -0.9825,-0.44875 -1.4325,-0.30625 l 0,-10.37625 c 0.1825,-0.0825 0.35625,-0.21 0.51125,-0.39 l 0.975,-1.14875 z m 0,-24.77375 0,5.57875 -1.48625,8.3025 0,-5.75375 1.48625,-8.1275 z m 0,71.12 c -0.4925,0.0663 -0.98875,0.12125 -1.48625,0.1675 l 0,-2.03625 c 0.51375,-0.0775 1.01,-0.16625 1.48625,-0.26625 l 0,2.135 z m -1.48625,-78.86 c 0.4975,0.0475 0.99375,0.1025 1.48625,0.1675 l 0,3.70375 c -0.34125,-0.39625 -0.85375,-0.745 -1.48625,-1.03375 l 0,-2.8375 z m 4.54,61.42625 0,2.99 -3.05375,-8.4575 0,-3.09125 3.05375,8.55875 z m 0,-25.41375 0,1.13625 -1.2225,0.4425 c -1.40875,0.50875 -1.33875,2.4825 0.11375,2.74875 l 1.10875,0.2025 0,1.08875 -1.2075,-0.21625 c -1.475,-0.26375 -2.4,1.4825 -1.275,2.43875 l 2.4825,2.11 0,1.3925 -3.05375,-2.57625 0,-8.42875 c 0.33875,0.3125 0.83375,0.45375 1.37875,0.25875 l 1.675,-0.5975 z m 0,-7.09 0,1.6325 -3.05375,3.62125 0,-1.6625 3.05375,-3.59125 z m 0,49.41 c -1.00625,0.215 -2.02375,0.39125 -3.05375,0.5275 l 0,-2.135 c 1.15125,-0.2425 2.18375,-0.55125 3.05375,-0.90875 l 0,2.51625 z m -3.05375,-78.165 c 1.03,0.1375 2.0475,0.31375 3.05375,0.5275 l 0,3.275 c -0.9175,0.2175 -1.50875,0.7075 -1.64875,1.49125 l -1.405,7.8575 0,-5.57875 0.43875,-2.40125 c 0.0987,-0.5425 -0.07,-1.035 -0.43875,-1.4675 l 0,-3.70375 z m 6.85875,49.03 0,1.3675 -3.805,-3.20875 0,-1.3925 3.805,3.23375 z m 0,-7.95875 0,1.07375 -3.805,-0.68125 0,-1.08875 3.805,0.69625 z m 0,-6.585 0,1.12125 -3.805,1.37375 0,-1.13625 3.805,-1.35875 z m 0,-10.20875 0,1.5975 -3.805,4.5125 0,-1.6325 3.805,-4.4775 z m 0,52.875 c -1.2425,0.39875 -2.5125,0.7375 -3.805,1.0125 l 0,-2.51625 c 2.18125,-0.89875 3.35125,-2.11875 2.8775,-3.42875 l -2.8775,-7.97125 0,-2.99 3.77625,10.58375 0.0287,0.075 0,5.235 z m -3.805,-76.625 c 1.2925,0.2775 2.5625,0.61375 3.805,1.0125 l 0,2.45 c -1.53125,-0.34375 -2.8475,-0.415 -3.805,-0.1875 l 0,-3.275 z m 3.805,1.0125 c 15.99625,5.12375 27.57625,20.11125 27.57625,37.80625 0,17.695 -11.58,32.685 -27.57625,37.80625 l 0,-5.235 c 0.935,2.28375 6.08875,0.93875 9.675,-1.86125 3.9975,-3.1225 6.015,-6.425 4.32125,-7.85375 l -13.99625,-11.805 0,-1.3675 14.585,12.3975 c 1.9325,1.64125 5.78875,-2.13625 7.5125,-6.4 1.9,-4.7025 1.995,-8.57 -0.18625,-8.96125 l -21.91125,-3.92125 0,-1.07375 22.03625,4.02875 c 2.4925,0.455 3.94375,-4.745 3.30375,-9.2975 -0.705,-5.0225 -2.55625,-8.42125 -4.64,-7.6675 l -20.7,7.4725 0,-1.12125 20.32375,-7.25125 c 2.38625,-0.8525 1.04375,-6.07875 -1.7875,-9.70375 -3.1225,-3.99625 -6.425,-6.01625 -7.8525,-4.32 l -10.68375,12.66375 0,-1.5975 9.90875,-11.6575 c 1.64,-1.93125 -2.1375,-5.7875 -6.40125,-7.51 -1.2425,-0.50375 -2.42875,-0.88 -3.5075,-1.12 l 0,-2.45 z"
       style="fill:#ffcd62;fill-opacity:1;fill-rule:evenodd;stroke:none"
       id="path8269"
       inkscape:connector-curvature="0" />
    <path
       d="m 1016.4567,-5.9691403 c -1.2525,-13.7699997 25.5913,-11.5324997 45.5113,-19.8487497 19.92,-8.31875 16.12,-14.22625 32.36,-20.60625 16.2412,-6.37875 23.3712,-0.79125 41.3212,-7.8425 17.9488,-7.05 22.2813,-18.61875 41.0913,-26.00625 13.675,-5.3725 23.125,-2.67 38.0825,-8.54625 15.3862,-6.04375 25.6875,-23.9125 31.735,-15.91875 2.1487,2.83875 13.5412,32.33625 17.135,45.82375 1.51,5.67125 -4.255,4.11 -9.1313,6.46 -7.1,3.42 -5.975,7.78625 -21.3612,13.83 -14.9575,5.87625 -22.64,4.26625 -36.315,9.6375 -18.8088,7.3875 -23.1425,18.955 -41.0925,26.0087497 -17.9488,7.05 -25.0788,1.4625 -41.3188,7.8425 -16.2412,6.3787503 -12.4412,12.2875003 -32.36,20.6050003 -14.9162,6.22625 -26.015,3.43 -32.9687,8.4525 -6.2513,4.51375 -10.4825,8.8475 -14.2513,3.16875 -7.8925,-11.8975 -17.3025,-30.5812503 -18.4375,-43.0600003"
       style="opacity:0.19999701;fill:#000000;fill-opacity:1;fill-rule:evenodd;stroke:none"
       id="path8293"
       inkscape:connector-curvature="0" />
    <path
       d="m 1006.2117,-12.83044 c -1.2525,-13.77 25.5913,-11.5325 45.5113,-19.84875 19.92,-8.31875 16.12,-14.22625 32.36,-20.60625 16.2412,-6.37875 23.3712,-0.79125 41.3212,-7.84125 17.9513,-7.05125 22.28,-18.62 41.09,-26.00875 13.6775,-5.37125 23.1275,-2.66875 38.085,-8.545 15.3863,-6.04375 25.685,-23.9125 31.7325,-15.91875 2.1513,2.84 13.5438,32.33625 17.135,45.82375 1.5125,5.67125 -4.255,4.11125 -9.1312,6.46 -7.0975,3.42 -5.975,7.7875 -21.3613,13.83125 -14.9575,5.87625 -22.6375,4.265 -36.315,9.63625 -18.8087,7.3875 -23.14,18.95625 -41.09,26.0074997 -17.9512,7.0525 -25.08,1.46375 -41.32,7.84375 -16.2412,6.37875 -12.4412,12.2875003 -32.36,20.6050003 -14.9162,6.2275 -26.015,3.43 -32.9687,8.4525 -6.2513,4.5125 -10.4825,8.8475 -14.2513,3.16875 -7.8925,-11.89625 -17.3025,-30.58125028 -18.4375,-43.06"
       style="fill:#e6535f;fill-opacity:1;fill-rule:evenodd;stroke:none"
       id="path8297"
       inkscape:connector-curvature="0" />
    <path
       d="m 1010.133,-4.9890403 c -1.3125,-13.7449997 26.3775,-11.8399997 45.9575,-20.0237497 19.5825,-8.18625 15.8037,-14.10125 31.7712,-20.37375 15.9675,-6.27125 23.0225,-0.65625 40.6713,-7.5875 17.645,-6.9325 21.8475,-18.45 40.34,-25.71375 13.4462,-5.28 22.7737,-2.53 37.48,-8.30625 15.1262,-5.9425 25.1712,-23.7125 31.1787,-15.70125 0.9388,1.25125 4.4,7.405 6.7338,15.57625 1.2737,4.46125 0.9825,3.9625 -3.3325,3.595 -6.1538,-0.52625 -13.8525,12.06875 -26.5238,17.04375 -14.7062,5.7775 -24.0337,3.02625 -37.4787,8.30625 -18.4925,7.265 -22.6925,18.78125 -40.34,25.71375 -17.6488,6.93125 -24.7038,1.3175 -40.6713,7.5875 -15.9687,6.27125 -12.1887,12.1875 -31.7687,20.3737497 -19.5825,8.18375 -43.7838,4.42625002 -43.3238,18.2187503 0.1163,3.47875 -2.8712,1.72125 -4.3062,-1.525 -2.2463,-5.0775003 -6.145,-14.6462503 -6.3875,-17.1837503"
       style="fill:#ffadb4;fill-opacity:1;fill-rule:evenodd;stroke:none"
       id="path8301"
       inkscape:connector-curvature="0" />
    <path
       d="m 1013.2765,3.0145597 c -1.3138,-13.7462497 26.3775,-11.84125 45.9575,-20.0249997 19.5825,-8.185 15.8025,-14.10125 31.7712,-20.37375 15.9663,-6.27125 23.0225,-0.65625 40.6713,-7.58875 17.6462,-6.93125 21.85,-18.44875 40.3412,-25.7125 13.4438,-5.28 22.77,-2.53 37.4763,-8.3075 15.1287,-5.94125 26.5012,-24.10875 31.1812,-15.7 0.595,1.07 -0.7712,2.0425 -2.9875,2.04375 -6.1675,0 -13.8512,12.06625 -26.5225,17.0425 -14.7062,5.7775 -24.0337,3.02625 -37.4787,8.30875 -18.4925,7.2625 -22.6938,18.77875 -40.3413,25.71125 -17.6475,6.9325 -24.7037,1.3175 -40.67,7.59 -15.9675,6.27125 -12.1887,12.18625 -31.77,20.37125 -19.5812,8.1849997 -43.7825,4.4262497 -43.3225,18.2174997 0.1163,3.48 -2.87,1.72125 -4.3062,-1.5225 -2.245,-5.08 0.2412,2.48125 0,-0.055"
       style="fill:#f58992;fill-opacity:1;fill-rule:evenodd;stroke:none"
       id="path8305"
       inkscape:connector-curvature="0" />
    <path
       d="m 1023.7148,24.31636 c -1.3675,-13.72375 25.9588,-11.67625 45.2325,-19.7400003 19.275,-8.065 15.5163,-13.98875 31.235,-20.1624997 15.72,-6.17375 22.71,-0.53375 40.0825,-7.35875 17.3738,-6.82375 21.4588,-18.29375 39.6638,-25.445 13.2362,-5.2 22.4537,-2.405 36.93,-8.0925 14.8912,-5.84875 26.02,-24.375 30.6762,-15.5025 0.8738,1.665 -0.8512,2.075 -2.935,2.0225 -6.085,-0.15125 -13.6012,11.96875 -26.075,16.86875 -14.4762,5.68625 -23.6937,2.89375 -36.93,8.09125 -18.205,7.15125 -22.2912,18.6225 -39.6637,25.44625 -17.3725,6.82375 -24.3638,1.1825 -40.0825,7.3575 -15.7188,6.1749997 -11.96,12.09749972 -31.2338,20.1612497 -19.275,8.0662503 -43.17,4.1862503 -42.6437,17.9525003 0.1337,3.4725 -2.8225,1.70125 -4.255,-1.5425 -2.2425,-5.08125 0.2525,2.47625 -10e-4,-0.0562"
       style="fill:#ffc4c9;fill-opacity:1;fill-rule:evenodd;stroke:none"
       id="path8309"
       inkscape:connector-curvature="0" />
    <path
       d="m 1049.7663,-130.83354 c 0.065,1.83125 6.1738,4.6625 5.4463,9.51 -1.1038,7.36 4.3837,20.55625 14.22,25.20625 17.925,8.47375 66.35,-13.4675 59.645,-43.99 -5.54,-25.21875 -80.2125,-16.14875 -79.3113,9.27375"
       style="fill:#e6535f;fill-opacity:1;fill-rule:evenodd;stroke:none"
       id="path8313"
       inkscape:connector-curvature="0" />
    <path
       d="m 1120.0112,-136.30634 c -7.7175,2.17625 -61.1762,14.8125 -54.2712,28.09 5.955,11.45375 39.25,8.48125 54.6175,-13.10625 7.9662,-11.18875 5.7737,-16.71 -0.3463,-14.98375"
       style="fill:#d4424e;fill-opacity:1;fill-rule:evenodd;stroke:none"
       id="path8317"
       inkscape:connector-curvature="0" />
    <path
       d="m 1060.0258,-143.36604 c -7.24,4.43125 -5.8237,11.4575 2.5688,10.75625 9.4012,-0.7825 45.9337,-10.79875 53.0237,-12.655 7.0863,-1.85625 1.15,-5.93875 -8.7437,-6.79625 -8.975,-0.775 -28.8763,-2.30625 -46.8488,8.695"
       style="fill:#d4424e;fill-opacity:1;fill-rule:evenodd;stroke:none"
       id="path8321"
       inkscape:connector-curvature="0" />
    <path
       d="m 1102.4647,-123.58524 c 1.3613,-2.805 -5.9225,-4.25125 -6.4637,-3.13875 -0.54,1.11375 5.1012,5.945 6.4637,3.13875"
       style="fill:#e6535f;fill-opacity:1;fill-rule:evenodd;stroke:none"
       id="path8345"
       inkscape:connector-curvature="0" />
    <path
       d="m 1109.1781,-116.32204 c 1.7412,-2.58625 -5.27,-5.03625 -5.9613,-4.01125 -0.6912,1.0275 4.22,6.59875 5.9613,4.01125"
       style="fill:#e6535f;fill-opacity:1;fill-rule:evenodd;stroke:none"
       id="path8357"
       inkscape:connector-curvature="0" />
    <path
       d="m 1099.3726,-108.43694 c 2.92,-1.095 -1.3638,-7.1625 -2.5225,-6.7275 -1.1588,0.43375 -0.3975,7.82125 2.5225,6.7275"
       style="fill:#e6535f;fill-opacity:1;fill-rule:evenodd;stroke:none"
       id="path8361"
       inkscape:connector-curvature="0" />
    <path
       d="m 1113.4872,-123.94494 c 1.3625,-2.805 -5.9212,-4.25125 -6.4625,-3.13875 -0.54,1.1125 5.1013,5.94375 6.4625,3.13875"
       style="fill:#e6535f;fill-opacity:1;fill-rule:evenodd;stroke:none"
       id="path8365"
       inkscape:connector-curvature="0" />
    <path
       d="m 1105.572,-146.12184 c -1.87,-1.085 -5.67,2.48375 -4.9275,2.915 0.7412,0.43125 6.7975,-1.83125 4.9275,-2.915"
       style="fill:#e6535f;fill-opacity:1;fill-rule:evenodd;stroke:none"
       id="path8373"
       inkscape:connector-curvature="0" />
    <path
       d="m 1094.7413,-148.38194 c -2.7937,-0.0688 -2.3162,3.80875 -1.2087,3.8375 1.1075,0.0263 4.0025,-3.7675 1.2087,-3.8375"
       style="fill:#e6535f;fill-opacity:1;fill-rule:evenodd;stroke:none"
       id="path8389"
       inkscape:connector-curvature="0" />
    <path
       d="m 1101.9878,-149.58554 c -2.42,-0.66125 -4.3912,3.26375 -3.43,3.525 0.9588,0.2625 5.85,-2.8625 3.43,-3.525"
       style="fill:#e6535f;fill-opacity:1;fill-rule:evenodd;stroke:none"
       id="path8393"
       inkscape:connector-curvature="0" />
    <path
       d="m 1077.3973,-146.05324 c -2.0975,1.29 3.585,2.945 4.4175,2.4325 0.8313,-0.5125 -2.3212,-3.7225 -4.4175,-2.4325"
       style="fill:#e6535f;fill-opacity:1;fill-rule:evenodd;stroke:none"
       id="path8397"
       inkscape:connector-curvature="0" />
    <path
       d="m 1087.7717,-149.75654 c -2.8225,0.43625 -0.33,3.8775 0.79,3.70375 1.1188,-0.17125 2.0313,-4.14125 -0.79,-3.70375"
       style="fill:#e6535f;fill-opacity:1;fill-rule:evenodd;stroke:none"
       id="path8401"
       inkscape:connector-curvature="0" />
    <path
       d="m 1262.2241,-36.63064 c -1.5925,-0.905 -7.2075,2.8125 -10.955,-0.3475 -5.6875,-4.79875 -19.8013,-7.0425 -28.9188,-1.10375 -16.6125,10.8225 -23.3125,63.56375 6.195,73.85375 24.3825,8.5 55.8,-59.845 33.6788,-72.4025"
       style="opacity:0.19999701;fill:#000000;fill-opacity:1;fill-rule:evenodd;stroke:none"
       id="path8433"
       inkscape:connector-curvature="0" />
    <path
       d="m 1251.9804,-43.49184 c -1.5925,-0.90375 -7.21,2.8125 -10.955,-0.34625 -5.69,-4.8 -19.8038,-7.0425 -28.9188,-1.105 -16.615,10.8225 -23.315,63.5625 6.195,73.8525 24.3825,8.5025 55.8,-59.8425 33.6788,-72.40125"
       style="fill:#e6535f;fill-opacity:1;fill-rule:evenodd;stroke:none"
       id="path8437"
       inkscape:connector-curvature="0" />
    <path
       d="m 1219.8181,19.19696 c 2.19,-7.7125 19.4537,-59.86125 4.5275,-60.94125 -12.875,-0.9325 -27.7988,28.97875 -17.4713,53.3825 5.3538,12.6475 11.2063,13.67375 12.9438,7.55875"
       style="fill:#d4424e;fill-opacity:1;fill-rule:evenodd;stroke:none"
       id="path8441"
       inkscape:connector-curvature="0" />
    <path
       d="m 1257.2745,-28.18484 c 0.02,-8.48875 -6.705,-10.96625 -10.5088,-3.4525 -4.26,8.41875 -14.88,44.7775 -17.0162,51.78875 -2.135,7.00875 4.4525,4.09375 10.3687,-3.88375 5.3688,-7.2350003 17.1038,-23.3825003 17.1563,-44.4525"
       style="fill:#d4424e;fill-opacity:1;fill-rule:evenodd;stroke:none"
       id="path8445"
       inkscape:connector-curvature="0" />
    <path
       d="m 1242.5206,-40.46024 c -4.4488,-1.55125 -12.0213,-0.685 -10.7425,4.42 1.2812,5.10625 2.125,12.245 1.6175,16.555 -0.5063,4.31125 -1.4438,12.6687497 -0.385,8.94375 1.0575,-3.72125 3.4237,-9.51625 8.0112,-14.53625 4.5875,-5.01875 5.735,-14.61 1.4988,-15.3825"
       style="fill:#add95b;fill-opacity:1;fill-rule:evenodd;stroke:none"
       id="path8449"
       inkscape:connector-curvature="0" />
    <path
       d="m 1222.1705,-28.57454 c -2.8688,1.2275 1.6875,7.0925 2.8275,6.605 1.1362,-0.48625 0.039,-7.8325 -2.8275,-6.605"
       style="fill:#e6535f;fill-opacity:1;fill-rule:evenodd;stroke:none"
       id="path8457"
       inkscape:connector-curvature="0" />
    <path
       d="m 1218.1824,-2.4144403 c 1.6737,2.63250002 6.725,-2.81375 6.06,-3.85875 -0.6625,-1.04375 -7.7363,1.22625 -6.06,3.85875"
       style="fill:#e6535f;fill-opacity:1;fill-rule:evenodd;stroke:none"
       id="path8469"
       inkscape:connector-curvature="0" />
    <path
       d="m 1212.7958,-19.11864 c -1.4962,2.73875 5.7138,4.5275 6.3063,3.4425 0.5912,-1.08625 -4.8125,-6.18125 -6.3063,-3.4425"
       style="fill:#e6535f;fill-opacity:1;fill-rule:evenodd;stroke:none"
       id="path8473"
       inkscape:connector-curvature="0" />
    <path
       d="m 1214.1842,-27.02984 c -2.3738,2.02125 3.7125,6.2725 4.6575,5.47 0.9412,-0.8025 -2.2838,-7.4925 -4.6575,-5.47"
       style="fill:#e6535f;fill-opacity:1;fill-rule:evenodd;stroke:none"
       id="path8477"
       inkscape:connector-curvature="0" />
    <path
       d="m 1208.478,-0.50394028 c 1.2912,2.83999998 7.0525,-1.84750002 6.54,-2.97375002 -0.5113,-1.12625 -7.8313,0.13375 -6.54,2.97375002"
       style="fill:#e6535f;fill-opacity:1;fill-rule:evenodd;stroke:none"
       id="path8481"
       inkscape:connector-curvature="0" />
    <path
       d="m 1206.9022,-12.98784 c -0.5975,3.0624997 6.815,2.59125 7.0525,1.37875 0.2363,-1.215 -6.4525,-4.44125 -7.0525,-1.37875"
       style="fill:#e6535f;fill-opacity:1;fill-rule:evenodd;stroke:none"
       id="path8485"
       inkscape:connector-curvature="0" />
    <path
       d="m 1244.581,-10.45054 c -0.265,-2.2875 -4.45,2.3462497 -4.345,3.2537497 0.105,0.90625 4.61,-0.96625 4.345,-3.2537497"
       style="fill:#e6535f;fill-opacity:1;fill-rule:evenodd;stroke:none"
       id="path8509"
       inkscape:connector-curvature="0" />
    <path
       d="m 1240.5727,10.80856 c 1.8337,-1.7150003 -0.4775,-5.4487503 -1.2038,-4.7687503 -0.7275,0.68125 -0.6275,6.4850003 1.2038,4.7687503"
       style="fill:#e6535f;fill-opacity:1;fill-rule:evenodd;stroke:none"
       id="path8517"
       inkscape:connector-curvature="0" />
    <path
       d="m 1250.457,-11.98394 c 0,-2.4625 -4.3888,1.51125 -4.3888,2.4874997 0,0.97625 4.3863,-0.025 4.3888,-2.4874997"
       style="fill:#e6535f;fill-opacity:1;fill-rule:evenodd;stroke:none"
       id="path8521"
       inkscape:connector-curvature="0" />
    <path
       d="m 1250.0424,-18.63904 c -0.265,-2.2875 -4.4488,2.34625 -4.3425,3.25375 0.105,0.90625 4.6075,-0.96625 4.3425,-3.25375"
       style="fill:#e6535f;fill-opacity:1;fill-rule:evenodd;stroke:none"
       id="path8529"
       inkscape:connector-curvature="0" />
    <path
       d="m 1250.9365,-26.42934 c -0.4225,-2.425 -4.0638,2.24 -3.8963,3.2025 0.1675,0.96125 4.3163,-0.7775 3.8963,-3.2025"
       style="fill:#e6535f;fill-opacity:1;fill-rule:evenodd;stroke:none"
       id="path8533"
       inkscape:connector-curvature="0" />
    <path
       d="m 784.36171,186.47346 97.81,-222.41625 -93.9225,-41.59 -115.0175,264.00625 111.13,0 z"
       style="fill:#ffc64c;fill-opacity:1;fill-rule:evenodd;stroke:none"
       id="path8537"
       inkscape:connector-curvature="0" />
    <path
       d="m 1571.639,186.47346 -111.6075,-300.51375 96.4137,-35.43875 124.6088,335.9525 -109.415,0 z"
       style="fill:#ffc64c;fill-opacity:1;fill-rule:evenodd;stroke:none"
       id="path8541"
       inkscape:connector-curvature="0" />
    <path
       d="m 1096.2787,-284.11814 c 61.9,0 112.3838,-50.48625 112.3838,-112.38625 0,-61.90125 -50.4838,-112.3875 -112.3838,-112.3875 -61.9025,0 -112.38624,50.48625 -112.38624,112.3875 0,61.9 50.48374,112.38625 112.38624,112.38625"
       style="fill:#a5d4cf;fill-opacity:1;fill-rule:evenodd;stroke:none"
       id="path8569"
       inkscape:connector-curvature="0" />
    <path
       d="m 1096.2787,-312.77174 c 46.1163,0 83.7325,-37.615 83.7325,-83.7325 0,-46.11875 -37.6162,-83.735 -83.7325,-83.735 -46.1187,0 -83.735,37.61625 -83.735,83.735 0,46.1175 37.6163,83.7325 83.735,83.7325"
       style="fill:#a6cee3;fill-opacity:1;fill-rule:evenodd;stroke:none"
       id="path8573"
       inkscape:connector-curvature="0" />
    <path
       d="m 1189.057,-487.28654 c 3.0412,1.87625 5.2825,5.01625 5.8712,8.805 l 12.6088,81.1225 c 1.0687,6.86375 -3.6738,13.3525 -10.5388,14.42 l -97.1462,15.10125 c -6.865,1.0675 -13.355,-3.675 -14.4213,-10.53875 l -12.6112,-81.125 c -0.5888,-3.78625 0.5925,-7.46 2.9212,-10.17125 -3.2687,-2.36125 -5.3087,-5.17875 -5.805,-8.38625 -2.0887,-13.42625 23.5538,-28.56 57.2738,-33.8025 33.7187,-5.24125 62.7462,1.39375 64.8312,14.82125 0.5,3.20625 -0.5862,6.51 -2.9837,9.75375"
       style="opacity:0.19999701;fill:#000000;fill-opacity:1;fill-rule:evenodd;stroke:none"
       id="path8601"
       inkscape:connector-curvature="0" />
    <path
       d="m 1179.2167,-497.94177 c 3.0438,1.8775 5.2813,5.0175 5.8713,8.805 l 12.6112,81.12249 c 1.0663,6.865 -3.6762,13.35375 -10.5412,14.42125 l -97.1463,15.10125 c -6.865,1.06875 -13.3525,-3.675 -14.4187,-10.54 l -12.6113,-81.12499 c -0.5887,-3.785 0.5925,-7.45875 2.9188,-10.17 -3.2688,-2.36125 -5.3062,-5.18 -5.8062,-8.38625 -2.0875,-13.42625 23.5574,-28.56 57.2749,-33.8025 33.7213,-5.24 62.7463,1.3925 64.8338,14.82125 0.4975,3.20625 -0.5888,6.51 -2.9863,9.7525"
       style="fill:#e8b588;fill-opacity:1;fill-rule:evenodd;stroke:none"
       id="path8605"
       inkscape:connector-curvature="0" />
    <path
       d="m 1177.2823,-499.60934 c 1.64,-2.21875 2.9338,-4.93625 2.495,-7.7625 -1.125,-7.23375 -12.5787,-10.86625 -18.515,-12.225 -13.61,-3.10875 -29.5675,-2.50375 -43.2775,-0.3725 -13.7075,2.13 -29.0987,6.3975 -41.12,13.49375 -5.2475,3.09625 -15.0575,10.03375 -13.9325,17.2675 0.44,2.82625 2.4988,5.0225 4.7363,6.63875 l 2.3462,1.695 -1.8875,2.1975 c -1.905,2.21625 -2.76,5.1325 -2.31,8.02625 l 12.6113,81.125 c 0.8412,5.41125 5.9687,9.16 11.38,8.31875 l 97.145,-15.10375 c 5.415,-0.84125 9.1612,-5.9675 8.3187,-11.37875 l -12.6087,-81.125 c -0.4525,-2.89375 -2.15,-5.41125 -4.6375,-6.94625 l -2.465,-1.52 1.7212,-2.32875 z"
       style="fill:#f8f2d0;fill-opacity:1;fill-rule:evenodd;stroke:none"
       id="path8609"
       inkscape:connector-curvature="0" />
    <path
       d="m 1112.7995,-424.15778 c 1.1538,3.38375 0.8863,7.23 -1.0662,10.52625 l -41.8475,70.63375 c -3.54,5.97625 -11.3275,7.97 -17.3063,4.42875 l -84.58124,-50.1125 c -5.9763,-3.53875 -7.9688,-11.3275 -4.4275,-17.30375 l 41.84754,-70.63249 c 1.9525,-3.2975 5.1987,-5.38125 8.72,-5.99375 -1.0225,-3.9025 -0.8025,-7.3725 0.8512,-10.165 6.925,-11.69 36.34,-7.065 65.6975,10.3275 29.3588,17.39375 47.5425,40.97 40.6175,52.66125 -1.6525,2.79125 -4.5912,4.65125 -8.505,5.62999"
       style="fill:#e8b588;fill-opacity:1;fill-rule:evenodd;stroke:none"
       id="path8637"
       inkscape:connector-curvature="0" />
    <path
       d="m 1122.6372,-413.50374 c 1.1563,3.38375 0.8888,7.23 -1.0662,10.5275 l -41.8475,70.6325 c -3.54,5.97625 -11.3275,7.97 -17.3025,4.4275 l -84.58253,-50.11125 c -5.97875,-3.54 -7.97125,-11.3275 -4.43,-17.30375 l 41.84753,-70.6325 c 1.9525,-3.2975 5.1987,-5.38125 8.72,-5.99375 -1.02,-3.9025 -0.8025,-7.3725 0.8537,-10.165 6.925,-11.69 36.34,-7.065 65.6975,10.3275 29.3588,17.39375 47.5425,40.97125 40.6175,52.66125 -1.655,2.79125 -4.5937,4.65 -8.5075,5.63"
       style="opacity:0.19999701;fill:#000000;fill-opacity:1;fill-rule:evenodd;stroke:none"
       id="path8633"
       inkscape:connector-curvature="0" />
    <path
       d="m 1112.3586,-426.82654 c 2.6775,-0.66875 5.405,-1.945 6.8625,-4.405 3.73,-6.29875 -2.7988,-16.385 -6.52,-21.20625 -8.525,-11.055 -21.23,-20.73375 -33.1638,-27.805 -11.9375,-7.0725 -26.5287,-13.5625 -40.3187,-15.73 -6.015,-0.94625 -18,-1.83125 -21.7338,4.46875 -1.4562,2.46 -1.2625,5.465 -0.5675,8.1325 l 0.735,2.8025 -2.855,0.495 c -2.8787,0.50125 -5.3912,2.20875 -6.885,4.72875 l -41.84621,70.6325 c -2.7925,4.71125 -1.215,10.86375 3.49625,13.65625 l 84.58246,50.11125 c 4.7125,2.7925 10.8638,1.21625 13.655,-3.495 l 41.8463,-70.6325 c 1.4937,-2.51875 1.7825,-5.54375 0.8387,-8.31 l -0.935,-2.74 2.8088,-0.70375 z"
       style="fill:#f8f2d0;fill-opacity:1;fill-rule:evenodd;stroke:none"
       id="path8641"
       inkscape:connector-curvature="0" />
    <path
       d="m 1122.927,-285.62534 -31.815,0 -0.2275,-0.002 -0.012,-10e-4 -0.01,0 -0.023,0 -0.21,-0.007 -0.015,-0.001 0,0 c -0.1625,-0.007 -0.32,-0.0188 -0.48,-0.0337 l -0.025,-0.004 -0.1875,-0.02 -0.038,-0.004 -0.01,-0.001 c -0.15,-0.0188 -0.3,-0.04 -0.4463,-0.0637 l -0.05,-0.01 -0.2075,-0.0375 -0.012,-10e-4 -0.205,-0.0425 -0.043,-0.009 -0.2,-0.0463 -0.023,-0.006 -0.195,-0.05 -0.03,-0.005 -0.031,-0.01 -0.1512,-0.0425 -0.071,-0.0213 -0.1125,-0.0325 -0.04,-0.0125 -0.078,-0.0263 -0.1575,-0.0525 -0.04,-0.0125 -0.012,-0.004 -0.01,-0.004 -0.1875,-0.0662 -0.012,-0.005 -0.01,-0.002 -0.1775,-0.07 -0.035,-0.0125 -0.043,-0.0175 -0.135,-0.055 -0.035,-0.0137 -0.01,-0.004 -0.036,-0.0162 -0.1575,-0.0687 -0.01,-0.002 -0.014,-0.006 -0.026,-0.0125 -0.1675,-0.0775 -0.02,-0.009 -0.027,-0.015 -0.1575,-0.0763 -0.08,-0.0425 -0.02,-0.01 -0.1,-0.0525 -0.033,-0.0162 -0.067,-0.0363 -0.1,-0.055 -0.012,-0.008 -0.059,-0.0337 -0.029,-0.015 -0.096,-0.0563 -0.016,-0.0112 -0.06,-0.035 -0.021,-0.0125 -0.096,-0.0588 -0.021,-0.015 -0.053,-0.0312 -0.024,-0.0138 -0.094,-0.0625 -0.019,-0.0125 -0.069,-0.0463 -0.1275,-0.085 -0.065,-0.045 -0.092,-0.065 -0.01,-0.005 -0.085,-0.0613 -0.09,-0.0687 -0.069,-0.05 -0.024,-0.0162 -0.086,-0.07 -0.076,-0.0575 -0.014,-0.0125 -0.089,-0.07 -0.029,-0.025 -0.058,-0.0475 -0.086,-0.0725 -0.081,-0.0687 0,-0.004 c -3.4113,-1.4375 -5.9013,-4.66 -6.2813,-8.48 l 0.205,0.004 c 3.8413,0 6.9563,-3.11375 6.9563,-6.955 0,-1.89125 -0.7575,-3.60875 -1.9838,-4.86125 l -0.034,-0.0113 -0.031,-0.0112 -0.033,-0.01 -0.033,-0.01 -0.033,-0.009 -0.033,-0.0112 -0.033,-0.01 -0.033,-0.009 -0.062,-0.0175 0,-10e-4 -0.035,-0.009 -0.033,-0.009 -0.033,-0.01 -0.033,-0.008 -0.035,-0.009 -0.031,-0.009 -0.034,-0.006 -0.035,-0.009 -0.065,-0.0162 -0.034,-0.007 -0.034,-0.008 -0.035,-0.006 -0.025,-0.005 -0.01,-0.001 -0.036,-0.007 -0.031,-0.008 -0.035,-0.006 -0.034,-0.006 -0.026,-0.005 -0.01,-10e-4 -0.01,-0.001 -0.095,-0.015 -0.036,-0.005 -0.026,-0.005 -0.01,0 -0.033,-0.005 -0.035,-0.007 -0.035,-0.004 -0.035,-0.005 -0.03,-0.004 -0.01,-10e-4 -0.035,-0.004 -0.033,-0.004 -0.035,-0.005 -0.035,-0.004 -0.033,-0.001 0,-10e-4 -0.035,-0.002 -0.035,-0.004 -0.07,-0.006 -0.031,-0.002 0,0 -0.1062,-0.009 -0.036,-10e-4 -0.033,-0.002 0,0 -0.01,0 -0.1363,-0.005 -0.034,-10e-4 0,0 -0.034,-0.001 -0.1425,-10e-4 -0.2575,0.005 0,-1.27 c -0.785,-0.3075 -1.6362,-0.475 -2.53,-0.475 l -0.2537,0.005 0,-34.21375 c 6.1475,-1.095 10.8175,-6.47 10.8175,-12.935 0,-4.11 -1.8888,-7.77875 -4.845,-10.18875 l -0.046,-0.0213 -0.048,-0.0212 0,-0.002 -0.091,-0.0388 -0.047,-0.0225 -0.01,-0.001 -0.089,-0.0388 -0.05,-0.0212 -0.095,-0.04 -0.047,-0.02 -0.049,-0.0188 -0.05,-0.0212 -0.048,-0.0188 -0.046,-0.0175 -0.05,-0.02 -0.047,-0.0188 -0.05,-0.0175 -0.048,-0.02 -0.098,-0.035 -0.049,-0.0188 -0.049,-0.0175 -0.05,-0.0163 -0.05,-0.0187 -0.05,-0.0163 -0.047,-0.0162 -0.1,-0.0338 -0.05,-0.015 -0.013,-0.005 -0.076,-0.025 -0.01,-0.004 -0.05,-0.0138 -0.1,-0.0312 -0.05,-0.0162 -0.05,-0.0138 -0.053,-0.015 -0.1875,-0.0525 -0.013,-0.004 0,-0.001 -0.015,-0.002 -0.2375,-0.0637 -0.026,-0.006 -0.026,-0.006 -0.2563,-0.06 -0.26,-0.0563 -0.026,-0.005 -0.026,-0.005 -0.26,-0.05 0,-0.91625 c -0.8837,-0.3725 -1.815,-0.6525 -2.7837,-0.82375 l 0,-6.3875 c 0,-5.66875 4.6337,-10.305 10.3025,-10.305 l 34.6,0 0,51.41625 c -3.9275,2.27125 -6.5688,6.51625 -6.5688,11.38 0,0.10625 0,0.21375 0,0.32 l 0,0.0275 c 0.01,0.0987 0.01,0.19625 0.014,0.295 l 0,0.0712 c 0.01,0.0963 0.013,0.19125 0.02,0.2875 l 0,0.0288 c 0.01,0.1 0.014,0.20125 0.025,0.30125 l 0,0.0113 0,0.0237 0.029,0.26 0.01,0.0675 0.041,0.29125 0,0.0263 c 0.015,0.095 0.031,0.18625 0.049,0.27875 l 0.011,0.0787 c 0.015,0.0863 0.034,0.17 0.05,0.25625 l 6.3063,-7.72 0,2.72875 -6.3063,4.99125 0,0.0212 0.01,0.045 0.048,0.21375 0.021,0.0925 0.058,0.23 0.021,0.0888 0.062,0.2325 0.031,0.10375 0.064,0.22125 0.01,0.0325 0.01,0.0288 0.081,0.2475 0.01,0.03 0,0.01 0.01,0.0137 0.089,0.24625 0.016,0.0513 0.09,0.235 0.04,0.0987 0.092,0.2275 0.025,0.0575 0.082,0.1875 0.062,0.1375 0.067,0.1475 0.053,0.10875 0.079,0.16 0.016,0.0288 0.05,0.0987 0.094,0.1825 0.076,0.13375 0.053,0.095 0.1238,0.2175 0.04,0.0675 0.082,0.13875 0.11,0.17625 0.06,0.09 0.01,0.0187 0.1,0.15 0,0.006 0.084,0.1225 0.014,0.02 0.1025,0.14625 0.078,0.10875 0.047,0.0637 c 0.17,0.22875 0.3437,0.45375 0.5262,0.6725 l 0.018,0.02 c 0.145,0.17 0.2925,0.33875 0.445,0.5025 l 0.023,0.0225 0.115,0.12375 0.1238,0.1275 0.125,0.125 0.01,0.007 c 0.076,0.075 0.1537,0.14875 0.2312,0.2225 l 0.065,0.06 0.2038,0.185 0.024,0.02 c 0.1287,0.11625 0.265,0.23 0.4012,0.34 0.555,0.2575 1.1288,0.47625 1.7238,0.655 l 0,28.05625 z m 0,-101.695 7.5687,0 0,49.69625 -0.2962,-0.02 -0.027,-0.002 -0.035,-10e-4 -0.2725,-0.009 -0.03,-10e-4 -0.01,0 c -0.1075,-0.002 -0.22,-0.004 -0.3325,-0.004 l 1,0.0738 0,4.7025 -7.5688,5.995 0,-2.72875 6.5688,-8.0425 c -2.3925,0 -4.635,0.63875 -6.5688,1.7575 l 0,-51.41625 z m 7.5687,101.695 -7.5687,0 0,-28.05625 c 1.1987,0.36125 2.47,0.55375 3.7837,0.55375 1.315,0 2.5863,-0.195 3.785,-0.55375 l 0,28.05625 z m 0,-101.695 2.9,0 0,50.24875 -0.043,-0.015 -0.14,-0.0425 -0.085,-0.025 -0.083,-0.0225 -0.21,-0.0563 -0.125,-0.0325 -0.2025,-0.05 -0.1037,-0.0237 -0.2025,-0.0425 -0.1175,-0.0263 -0.225,-0.0412 -0.071,-0.0125 1.6075,0.505 0,1.775 -2.9,2.29625 0,-4.7025 1.0012,0.0775 -0.013,-0.002 c -0.1,-0.0163 -0.1987,-0.0288 -0.2987,-0.0412 l -0.019,-0.002 -0.036,-0.005 c -0.09,-0.01 -0.18,-0.0225 -0.27,-0.0312 l -0.021,-0.002 -0.021,-10e-4 c -0.1025,-0.01 -0.2013,-0.0187 -0.3038,-0.0263 l -0.01,-0.001 0,0 0,0 0,0 0,-49.69625 z m 2.9,101.695 -2.9,0 0,-28.05625 c 1.025,-0.31 1.9975,-0.73875 2.9,-1.2725 l 0,29.32875 z m 22.015,0 -22.015,0 0,-29.32875 c 3.8625,-2.28875 6.4525,-6.4975 6.4525,-11.31125 0,-4.11125 -1.8875,-7.77875 -4.845,-10.18875 l -1.6075,1.2725 0,-1.775 1.6075,0.5025 -0.1575,-0.0725 -0.076,-0.0338 -0.081,-0.035 -0.1587,-0.0675 -0.08,-0.0337 -0.027,-0.01 -0.2025,-0.08 -0.015,-0.007 -0.08,-0.0288 -0.082,-0.03 -0.074,-0.0288 -0.1913,-0.0662 -0.1287,-0.045 -0.2,-0.065 -0.053,-0.0138 0,-50.24875 22.015,0 0,19.4 c -3.1738,0.64375 -5.5625,3.45 -5.5625,6.81375 l 0,0.0888 0,0.0888 0,0.002 0,0.0137 0,0.15875 0,0.005 0.01,0.17 0,0.007 0.015,0.16625 0,0.009 0.01,0.0775 0.01,0.085 0,0.0125 0,0.0263 0.019,0.1325 0,0.015 0.01,0.0225 c 0.016,0.10125 0.032,0.20125 0.053,0.30125 l 0,0.02 0,0.0112 0.03,0.135 0.01,0.0225 0,0.0275 0.028,0.10625 0,0.01 0.01,0.0225 0.01,0.025 0.03,0.11625 0.01,0.0263 0.015,0.0538 0.025,0.0812 0.01,0.0275 0.016,0.0525 0.026,0.0812 0.02,0.0575 0.01,0.0213 0.03,0.08 0.027,0.0775 0.03,0.0788 0,0.005 0.025,0.06 0.01,0.0125 0.03,0.0775 0.014,0.0363 0.019,0.04 0.034,0.0775 0.01,0.0113 0.029,0.0625 0.038,0.0775 0,0.002 0.034,0.0725 0.039,0.0725 0.037,0.0762 0.039,0.0713 0.039,0.0737 0.04,0.0725 0.041,0.0713 0.043,0.0712 0.043,0.0712 0.044,0.07 c 0.045,0.07 0.089,0.14 0.1362,0.20625 l 0.047,0.0687 0.048,0.0675 0.047,0.0675 0.05,0.065 0.051,0.065 0.049,0.0662 0.053,0.065 0,0.001 0.05,0.0625 0.055,0.0613 0.01,0.0112 0.045,0.0513 0.055,0.0625 0.105,0.11625 0.01,0.0112 0.054,0.0538 0.056,0.0588 c 0.6875,0.2275 1.4225,0.35125 2.185,0.35125 0.4775,0 0.9425,-0.0475 1.3938,-0.13875 l 0,70.40625 z m 19.0225,-99.1525 0,0.001 0.09,0.0387 0.1263,0.055 0.084,0.0375 0.1,0.0487 0.1125,0.0538 0.1687,0.0838 0.105,0.055 0.085,0.0438 0.1175,0.0662 0.061,0.0325 0.1213,0.0687 0,0.001 0.1612,0.0962 0.09,0.0563 0.096,0.0588 0.1075,0.0687 0.064,0.0425 0.1125,0.0762 0,0.002 0.1525,0.105 0.082,0.06 0.1,0.0725 0.081,0.0625 0.084,0.0637 0.097,0.075 0,10e-4 0.1438,0.11875 0.086,0.07 0.081,0.07 0.092,0.0813 0.058,0.05 0.105,0.0937 0.1375,0.1275 0.065,0.065 0.1025,0.1 0.053,0.0513 0.09,0.0925 0.081,0.0837 0,0.002 0.1262,0.1375 0.013,0.0125 0.1125,0.125 0.011,0.0138 0.086,0.0987 0.065,0.0775 0.069,0.0813 0.01,0.0137 0.115,0.145 0.05,0.0637 0.098,0.1275 0.027,0.0362 0.1175,0.15875 0.025,0.0362 0.1025,0.14625 0.065,0.0987 0.084,0.125 0.044,0.0662 0.085,0.1375 0.031,0.0512 0.11,0.1875 0.01,0.01 0.029,0.0512 0.071,0.13 0.043,0.0775 0.075,0.1425 0.029,0.0537 0.096,0.19625 0,10e-4 0.01,0.009 0.021,0.0488 0.07,0.14875 0.03,0.07 0.062,0.1425 0.031,0.0725 c 0.029,0.065 0.055,0.13125 0.081,0.19875 l 0,0.009 0,0.01 0.074,0.1925 0.031,0.0837 0.05,0.1375 0.022,0.0675 c 0.048,0.14375 0.093,0.28625 0.135,0.4325 l 0.025,0.0875 0.04,0.15 0.014,0.0538 0.051,0.20375 0,0.0225 0,0.006 0.01,0.045 0.04,0.18375 0.01,0.055 0.039,0.18375 0.01,0.0575 0.034,0.195 0,0.0325 0,0.004 0.01,0.0562 0.023,0.1625 0.013,0.0962 0.016,0.145 0.01,0.085 0.015,0.1775 0.01,0.0512 0,0.001 0,0.0525 0.014,0.1825 0,0.0725 0.01,0.1675 0,0.0775 0,0.2375 0,58.0125 c -5.8937,1.295 -10.3037,6.5475 -10.3037,12.83125 l 0,0.24375 0,0.07 0.01,0.225 0,0.0175 0,0.0175 0.011,0.25 0,0.0238 0.018,0.23875 0,0.0312 0.026,0.24 0.01,0.0763 0.018,0.1575 0.012,0.0925 0,0.0212 0.025,0.185 0.01,0.0325 0,0.0188 0.036,0.22125 0.01,0.0475 0.044,0.2325 0,0.015 0.01,0.045 0.037,0.18375 0.013,0.065 0.045,0.1975 0.01,0.035 0,0.002 0.01,0.0362 0.045,0.18625 0.018,0.0675 0.05,0.1925 0.01,0.0337 0,0.02 0.06,0.20625 0.019,0.0687 0.06,0.19625 0.011,0.0263 0.075,0.23 0.014,0.0437 0.071,0.1925 0.015,0.045 0.076,0.20625 0.041,0.0975 0.045,0.1125 0.039,0.0975 0.082,0.19375 0.01,0.01 0.096,0.21375 0.019,0.0425 0.105,0.22125 0,0.004 0.1025,0.20375 0.03,0.0612 0.092,0.175 0.013,0.0238 0.01,0.0187 0.088,0.1575 0.012,0.0238 0.043,0.075 0.1025,0.17875 0,0.002 0.11,0.1875 0.021,0.035 0.026,0.04 0.096,0.15125 0.026,0.0437 0.1337,0.20125 0,0.01 0.1225,0.17625 0.04,0.0563 0.11,0.15375 0.017,0.025 0.01,0.007 0.024,0.0337 0.1175,0.1575 0.021,0.0312 0.1513,0.19 0.01,0.008 0.13,0.16125 0.075,0.0888 0.019,0.0263 0.1,0.1175 0.018,0.0188 0.1187,0.135 0.01,0.0125 0.065,0.0712 0.1213,0.13375 0.02,0.0225 0.15,0.15625 0.072,0.0787 0.092,0.09 0.07,0.0713 0.011,0.01 0.1287,0.125 0.078,0.0737 0.076,0.0738 0.087,0.0812 0.018,0.0175 0.1363,0.1175 0.071,0.0637 0.091,0.0787 0.076,0.065 0.031,0.0263 0.1287,0.1075 0.01,0.006 c 0.585,0.27 1.1888,0.4975 1.8163,0.68125 -0.066,0.14875 -0.1363,0.295 -0.205,0.44125 l 0.043,0.025 0.086,0.0513 0.045,0.0263 0.044,0.0238 0.045,0.0262 0.086,0.0488 0.045,0.0238 0.045,0.0238 0.046,0.0262 0.1337,0.0688 0.045,0.025 0.045,0.0225 0.045,0.0225 0.045,0.0238 0.047,0.0225 0.045,0.0238 0.045,0.0213 0.047,0.0225 0.033,0.0163 0.011,0.005 0.046,0.0225 0.048,0.0225 0.045,0.0212 0.047,0.0213 0,0.002 0.079,0.0362 0.01,0.002 0.048,0.0213 0.045,0.02 0.049,0.0212 0.048,0.02 0,10e-4 0.044,0.0188 0.045,0.02 0.095,0.04 0.047,0.0188 0.01,0.004 0.038,0.0163 0.047,0.0187 0.095,0.0375 0.047,0.0188 0.019,0.007 0.031,0.01 0.1913,0.0725 0.026,0.01 0.021,0.008 c 0.1462,0.0512 0.2925,0.10125 0.44,0.14875 l 0.04,0.0125 0.01,0.002 0.013,0.004 0.235,0.07 c -1.5925,3.6375 -5.2338,6.19625 -9.4425,6.19625 l -15.0463,0 0,-70.40625 c 3.1725,-0.645 5.5625,-3.45375 5.5625,-6.81625 0,-1.8925 -0.7575,-3.6075 -1.9862,-4.8625 l -0.029,-0.0113 -0.034,-0.01 -0.031,-0.01 -0.033,-0.009 -0.034,-0.0112 -0.031,-0.01 -0.034,-0.01 -0.034,-0.01 -0.061,-0.015 -0.01,-10e-4 -0.031,-0.0113 -0.034,-0.007 -0.034,-0.01 -0.032,-0.008 -0.034,-0.009 -0.031,-0.007 -0.035,-0.009 -0.033,-0.009 -0.069,-0.015 -0.031,-0.007 -0.035,-0.008 -0.033,-0.005 -0.025,-0.006 -0.01,-10e-4 -0.033,-0.009 -0.035,-0.006 -0.066,-0.0125 -0.029,-0.005 -0.01,-0.001 -0.033,-0.006 -0.07,-0.01 -0.031,-0.005 -0.031,-0.006 -0.01,0 -0.035,-0.005 -0.034,-0.006 -0.034,-0.004 -0.034,-0.005 -0.03,-0.004 -0.01,-10e-4 -0.036,-0.004 -0.034,-0.004 -0.035,-0.004 -0.036,-0.004 -0.029,-0.002 -0.01,-10e-4 -0.035,-0.002 -0.036,-0.005 -0.069,-0.006 -0.03,-0.002 -0.01,0 -0.105,-0.007 -0.035,-10e-4 -0.032,-0.002 0,0 0,0 -0.1375,-0.006 -0.035,0 -0.035,-0.001 -0.145,-10e-4 c -0.4763,0 -0.9413,0.0488 -1.3913,0.14125 l 0,-19.4 12.26,0 c 2.5825,0 4.9488,0.9625 6.7625,2.5425"
       style="opacity:0.19999701;fill:#000000;fill-opacity:1;fill-rule:evenodd;stroke:none"
       id="path8665"
       inkscape:connector-curvature="0" />
    <path
       d="m 1078.693,-398.06064 38.385,0 0,47.9175 c -7.2563,0 -13.1375,5.8825 -13.1375,13.1375 0,7.25625 5.8812,13.1375 13.1375,13.13875 l 0,25.76125 -38.385,0 c -5.3213,0 -9.7338,-4.08875 -10.2538,-9.28125 l 0.2075,0.005 c 3.84,0 6.955,-3.115 6.955,-6.955 0,-3.84 -3.115,-6.95375 -6.955,-6.95375 l -0.2575,0.005 0,-34.21375 c 6.1513,-1.095 10.8175,-6.47 10.8175,-12.935 0,-6.465 -4.6662,-11.83875 -10.8175,-12.9325 l 0,-6.38875 c 0,-5.6675 4.635,-10.305 10.3038,-10.305 m 38.385,0 27.305,0 0,17.51875 c -3.84,0 -6.9538,3.11375 -6.9538,6.955 0,3.84125 3.1138,6.95375 6.9538,6.95375 l 0,68.5275 -27.305,0 0,-25.76125 c 7.255,0 13.1362,-5.8825 13.1362,-13.13875 0,-7.255 -5.8812,-13.1375 -13.1362,-13.1375 l 0,-47.9175 z m 27.305,0 13.6562,0 c 5.6675,0 10.3025,4.6375 10.3025,10.305 l 0,58.0125 c -5.8925,1.29625 -10.3025,6.54875 -10.3025,12.8325 0,5.9725 3.985,11.0125 9.4438,12.61 -1.5963,3.63625 -5.2338,6.195 -9.4438,6.195 l -13.6562,0 0,-68.5275 c 3.8412,0 6.955,-3.1125 6.955,-6.95375 0,-3.84125 -3.1138,-6.955 -6.955,-6.955 l 0,-17.51875 z"
       style="fill:#ffc64a;fill-opacity:1;fill-rule:evenodd;stroke:none"
       id="path8673"
       inkscape:connector-curvature="0" />
    <path
       d="m 1397.6572,-282.13634 0.3325,-3.315 c 0.2125,-2.12625 -1.3538,-4.04125 -3.4788,-4.25625 l -35.9287,-3.59875 c -2.125,-0.21375 -4.04,1.35125 -4.255,3.47875 l -0.3313,3.31625 c -0.2125,2.12625 1.3525,4.04 3.48,4.25375 l 35.9263,3.60125 c 2.1275,0.2125 4.0425,-1.35375 4.255,-3.48"
       style="fill:#c7e5f5;fill-opacity:1;fill-rule:evenodd;stroke:none"
       id="path8683"
       inkscape:connector-curvature="0" />
    <path
       d="m 1369.3284,-288.84534 c 3.3937,-33.86625 -21.3063,-64.07 -55.1713,-67.465 -33.8687,-3.39375 -64.0737,21.3075 -67.4662,55.175 -3.3938,33.865 21.3087,64.07 55.1737,67.4625 33.8663,3.395 64.07,-21.3075 67.4638,-55.1725"
       style="fill:#c7e5f5;fill-opacity:1;fill-rule:evenodd;stroke:none"
       id="path8687"
       inkscape:connector-curvature="0" />
    <path
       d="m 1363.2401,-289.45584 c 3.0575,-30.5025 -19.1913,-57.71 -49.695,-60.765 -30.5025,-3.0575 -57.71,19.19125 -60.7675,49.695 -3.055,30.5025 19.195,57.71 49.6975,60.765 30.5025,3.0575 57.7075,-19.1925 60.765,-49.695"
       style="fill:#a6cee3;fill-opacity:1;fill-rule:evenodd;stroke:none"
       id="path8691"
       inkscape:connector-curvature="0" />
    <path
       d="m 1354.9766,-290.28384 c 2.6,-25.94 -16.32,-49.075 -42.2588,-51.675 -25.9412,-2.59875 -49.0762,16.32125 -51.6762,42.26125 -2.5988,25.94 16.3225,49.075 42.2612,51.67375 25.94,2.6 49.0738,-16.32125 51.6738,-42.26"
       style="fill:#542930;fill-opacity:1;fill-rule:evenodd;stroke:none"
       id="path8695"
       inkscape:connector-curvature="0" />
    <path
       d="m 1341.9309,-291.59124 c 1.8787,-18.73375 -11.7875,-35.44375 -30.5213,-37.32125 -18.7337,-1.87625 -35.4437,11.7875 -37.3225,30.5225 -1.8737,18.73375 11.79,35.4425 30.5225,37.32 18.7338,1.8775 35.4425,-11.78875 37.3213,-30.52125"
       style="fill:#3c1319;fill-opacity:1;fill-rule:evenodd;stroke:none"
       id="path8699"
       inkscape:connector-curvature="0" />
    <path
       d="m 1337.1561,-325.17544 c -6.5475,-6.33 -15.1963,-10.58625 -24.9625,-11.565 -23.0575,-2.31125 -43.6225,14.50875 -45.9325,37.565 -0.9788,9.7675 1.4762,19.08625 6.3812,26.76125 -3.6337,-7.06375 -5.3425,-15.22375 -4.4912,-23.71625 2.3475,-23.4175 23.2325,-40.49875 46.6525,-38.1525 8.4925,0.85125 16.1512,4.1425 22.3525,9.1075"
       style="fill:#7a4d55;fill-opacity:1;fill-rule:evenodd;stroke:none"
       id="path8703"
       inkscape:connector-curvature="0" />
    <path
       d="m 1386.7292,-60.76894 c -0.1925,12.3075 -0.525,24.64 0.4037,36.9275 1.7875,23.64499972 3.9113,47.25625 6.1688,70.86125 0.7925,8.26625 1.6025,16.53 2.3787,24.795 0.4513,4.8225 0.9588,9.7275 1.2075,14.5625 0.2663,5.1025 -0.5337,10.41875 -2.7437,15.055 -1.9363,4.05875 -4.9938,7.6175 -9.1738,9.4475 -1.8412,0.805 -3.7987,1.22875 -5.8075,1.2625 -2.21,0.04 -4.3487,-0.40875 -6.335,-1.38625 -8.385,-4.12625 -11.005,-15.66625 -11.155,-24.16375 -0.092,-5.1775 0.2913,-10.5625 0.6363,-15.73125 0.5362,-8.06125 1.1862,-16.12 1.8025,-24.17625 1.76,-23.00125 3.3087,-45.97625028 4.2312,-69.0325 0.5063,-12.63625 0.099,-25.7775 -1.415,-38.33 -0.2925,-2.42875 -0.4512,-4.61125 -0.495,-7.06125 -0.064,-3.6775 -11.125,-5.335 -11.2425,-12.035 l -0.8375,-47.30875 c -0.095,-5.30125 0.1175,-10.68875 0.4138,-15.98 0.3937,-7.0375 1.0025,-14.08375 1.8675,-21.08 0.6362,-5.15125 1.4137,-10.30375 2.4325,-15.39375 0.9037,-4.50625 2.0012,-9.07625 3.5225,-13.415 2.0575,-5.8725 5.2112,-13.46375 9.5325,-18.07125 2.265,-2.41625 5.8987,-4.86375 9.2325,-2.92625 2.0587,1.1975 2.925,3.5825 2.965,5.86 l 2.6075,147.3175 -0.1975,0.002 z"
       style="fill:#cecccc;fill-opacity:1;fill-rule:evenodd;stroke:none"
       id="path8943"
       inkscape:connector-curvature="0" />
    <path
       d="m 1387.1055,-24.20924 0.028,0.3675 c 1.7862,23.64499972 3.9112,47.2575 6.1712,70.86125 0.7888,8.26625 1.6013,16.53 2.3763,24.79625 0.45,4.82125 0.9587,9.725 1.2087,14.56 0.2638,5.10375 -0.535,10.42125 -2.7462,15.0575 -1.935,4.05875 -4.9925,7.61625 -9.1725,9.44625 -1.84,0.805 -3.8,1.22875 -5.8075,1.2625 -2.21,0.04 -4.35,-0.40875 -6.3338,-1.38625 -8.3862,-4.125 -11.005,-15.66625 -11.1562,-24.16375 -0.091,-5.1775 0.2925,-10.5625 0.6362,-15.73125 0.5363,-8.06125 1.185,-16.12 1.8025,-24.17625 1.7588,-23 3.3075,-45.97750028 4.2313,-69.0325 0.02,-0.5125 0.039,-1.025 0.057,-1.53875 3.055,-0.3775 6.16,-0.6025 9.3075,-0.6575 3.1725,-0.0575 6.3075,0.0612 9.3975,0.335"
       style="fill:#403940;fill-opacity:1;fill-rule:evenodd;stroke:none"
       id="path8947"
       inkscape:connector-curvature="0" />
    <path
       d="m 1375.5755,-19.74974 -0.3075,110.33 c -0.021,7.73875 -7.7925,7.8675 -7.5163,-0.045 l 3.8175,-109.7075 c 0,-0.22375 0.01,-0.44625 0.01,-0.67 l 3.9988,0.0925 z"
       style="fill:#635963;fill-opacity:1;fill-rule:evenodd;stroke:none"
       id="path8951"
       inkscape:connector-curvature="0" />
    <path
       d="m 884.69484,-122.67134 0,0 c 6.19875,5.84875 16.51625,5.94125 21.9,-0.63625 l 48.66,-59.45 c 5.385,-6.58125 5.5625,-16.05375 -0.6375,-21.90125 -6.2,-5.84875 -16.035,-5.54875 -21.89875,0.6375 l -48.66125,59.45125 c -5.39875,6.595 -5.56375,16.05 0.6375,21.89875"
       style="fill:#ffd7b7;fill-opacity:1;fill-rule:evenodd;stroke:none"
       id="path8955"
       inkscape:connector-curvature="0" />
  </g>
</svg>
