<?xml version="1.0" encoding="UTF-8" standalone="no"?>
<!-- Created with Inkscape (http://www.inkscape.org/) -->

<svg
   xmlns:dc="http://purl.org/dc/elements/1.1/"
   xmlns:cc="http://creativecommons.org/ns#"
   xmlns:rdf="http://www.w3.org/1999/02/22-rdf-syntax-ns#"
   xmlns:svg="http://www.w3.org/2000/svg"
   xmlns="http://www.w3.org/2000/svg"
   xmlns:sodipodi="http://sodipodi.sourceforge.net/DTD/sodipodi-0.dtd"
   xmlns:inkscape="http://www.inkscape.org/namespaces/inkscape"
   width="99.768608mm"
   height="119.16515mm"
   viewBox="0 0 353.51082 422.2387"
   id="svg13731"
   version="1.1"
   inkscape:version="0.91 r"
   sodipodi:docname="hands-right.svg">
  <defs
     id="defs13733" />
  <sodipodi:namedview
     id="base"
     pagecolor="#ffffff"
     bordercolor="#666666"
     borderopacity="1.0"
     inkscape:pageopacity="0.0"
     inkscape:pageshadow="2"
     inkscape:zoom="0.98994949"
     inkscape:cx="97.461569"
     inkscape:cy="187.04215"
     inkscape:document-units="px"
     inkscape:current-layer="layer1"
     showgrid="false"
     fit-margin-top="0"
     fit-margin-left="0"
     fit-margin-right="0"
     fit-margin-bottom="0"
     inkscape:window-width="1366"
     inkscape:window-height="744"
     inkscape:window-x="0"
     inkscape:window-y="24"
     inkscape:window-maximized="1" />
  <metadata
     id="metadata13736">
    <rdf:RDF>
      <cc:Work
         rdf:about="">
        <dc:format>image/svg+xml</dc:format>
        <dc:type
           rdf:resource="http://purl.org/dc/dcmitype/StillImage" />
        <dc:title></dc:title>
      </cc:Work>
    </rdf:RDF>
  </metadata>
  <g
     inkscape:label="Layer 1"
     inkscape:groupmode="layer"
     id="layer1"
     transform="translate(-389.94017,-263.4356)">
    <path
       d="m 673.81724,583.09727 c 38.3525,0 69.63375,-31.28125 69.63375,-69.63375 0,-38.3525 -31.28125,-69.63375 -69.63375,-69.63375 -38.35,0 -69.63125,31.28125 -69.63125,69.63375 0,38.3525 31.28125,69.63375 69.63125,69.63375"
       style="opacity:0.19999701;fill:#000000;fill-opacity:1;fill-rule:evenodd;stroke:none"
       id="path8119"
       inkscape:connector-curvature="0" />
    <path
       d="m 656.51134,564.68257 c 38.3525,0 69.63375,-31.28125 69.63375,-69.63375 0,-38.35125 -31.28125,-69.6325 -69.63375,-69.6325 -38.3525,0 -69.63375,31.28125 -69.63375,69.6325 0,38.3525 31.28125,69.63375 69.63375,69.63375"
       style="fill:#a5d4cf;fill-opacity:1;fill-rule:evenodd;stroke:none"
       id="path8123"
       inkscape:connector-curvature="0" />
    <path
       d="m 656.51254,554.97317 c 33.005,0 59.92125,-26.92 59.92125,-59.9225 0,-33.00625 -26.91625,-59.9225 -59.92125,-59.9225 -33.005,0 -59.92375,26.91625 -59.92375,59.9225 0,33.0025 26.91875,59.9225 59.92375,59.9225"
       style="fill:#a6cee3;fill-opacity:1;fill-rule:evenodd;stroke:none"
       id="path8127"
       inkscape:connector-curvature="0" />
    <path
       d="m 656.51134,545.97547 c 28.05,0 50.92625,-22.8775 50.92625,-50.92625 0,-28.05 -22.87625,-50.925 -50.92625,-50.925 -28.05,0 -50.92625,22.875 -50.92625,50.925 0,28.04875 22.87625,50.92625 50.92625,50.92625"
       style="fill:#ffc64c;fill-opacity:1;fill-rule:evenodd;stroke:none"
       id="path8131"
       inkscape:connector-curvature="0" />
    <path
       d="m 666.90484,529.34627 c 18.88875,0 34.295,-15.4075 34.295,-34.2975 0,-18.89 -15.40625,-34.295 -34.295,-34.295 -18.89125,0 -34.2975,15.405 -34.2975,34.295 0,18.89 15.40625,34.2975 34.2975,34.2975"
       style="fill:#ffdb8c;fill-opacity:1;fill-rule:evenodd;stroke:none"
       id="path8135"
       inkscape:connector-curvature="0" />
    <path
       d="m 708.42434,590.95877 c 5.56125,15.73125 11.37375,31.3725 17.28375,46.98375 2.07,5.465 4.15625,10.925 6.2125,16.39375 1.20125,3.19125 2.4575,6.42875 3.50625,9.6675 1.10875,3.42 1.45375,7.19875 0.61,10.7975 -0.73875,3.15125 -2.4175,6.18625 -5.25,8.27 -1.245,0.91875 -2.65125,1.59875 -4.1625,2.02625 -1.6625,0.47 -3.35875,0.595 -5.03125,0.32875 -7.0725,-1.12375 -11.10625,-8.4525 -12.73375,-14.205 -0.9925,-3.505 -1.66125,-7.2475 -2.32375,-10.8325 -1.0275,-5.59375 -1.97375,-11.2075 -2.9425,-16.815 -2.7675,-16.005 -5.69,-31.95125 -9.1,-47.825 -2.41875,-11.26625 -6.57125,-20.05125 -9.52875,-30.505 -0.40625,-1.43625 -28.61625,-10.435 -31.2425,-59.745 -0.30875,-5.82875 4.8475,-45.38625 16.4725,-42.74875 1.7675,0.4 2.84875,1.85 3.28375,3.3925 l 34.94625,124.81625 z"
       style="fill:#ffffff;fill-opacity:1;fill-rule:evenodd;stroke:none"
       id="path8139"
       inkscape:connector-curvature="0" />
    <path
       d="m 705.43014,580.43897 0.095,0.2725 c 6.0675,17.5175 12.38375,34.94375 18.79875,52.33625 2.245,6.09 4.50875,12.175 6.74375,18.27 1.3,3.55375 2.66375,7.16 3.8175,10.765 3.02375,9.445 3.56125,19.865 -8.26125,23.015 -12.15375,3.24 -16.06875,-7.8775 -18.31625,-15.825 -1.10125,-3.89625 -1.88625,-8.04375 -2.6575,-12.02 -1.2025,-6.2 -2.32125,-12.4225 -3.45875,-18.635 -3.25875,-17.73875 -6.67,-35.4175 -10.57125,-53.02875 -0.0875,-0.39125 -0.17625,-0.78375 -0.265,-1.175 2.235,-0.895 4.535,-1.68375 6.90625,-2.35375 2.38625,-0.67625 4.77875,-1.2125 7.16875,-1.62125"
       style="fill:#3f3428;fill-opacity:1;fill-rule:evenodd;stroke:none"
       id="path8143"
       inkscape:connector-curvature="0" />
    <path
       d="m 697.60344,586.11027 21.77625,83.46375 c 1.52875,5.85375 -4.32375,7.5025 -5.69125,1.4675 l -18.99625,-83.69625 c -0.0437,-0.16875 -0.0863,-0.33875 -0.13,-0.5075 l 3.04125,-0.7275 z"
       style="fill:#635963;fill-opacity:1;fill-rule:evenodd;stroke:none"
       id="path8147"
       inkscape:connector-curvature="0" />
    <path
       d="m 508.42514,340.65217 19.37375,10.70875 c 3.87625,2.14 5.29375,7.06125 3.15125,10.93625 -2.14,3.875 -7.06125,5.29125 -10.93625,3.15125 l -19.375,-10.70875 c -3.87625,-2.14125 -5.2925,-7.0625 -3.1525,-10.9375 2.14125,-3.87375 7.06375,-5.29125 10.93875,-3.15"
       style="fill:#c7e5f5;fill-opacity:1;fill-rule:evenodd;stroke:none"
       id="path8157"
       inkscape:connector-curvature="0" />
    <path
       d="m 483.43734,270.66887 c 27.655,15.28375 37.68375,50.09375 22.40125,77.74875 -15.2875,27.655 -53.9025,35.58 -77.75,22.39875 -23.84625,-13.18 -30.94625,-32.41875 -29.42125,-53.84125 0.83625,-11.77125 -2.355,-21.21375 -8.11375,-28.1175 -1.8125,-2.17125 0.7,-6.59875 3.51875,-6.36625 8.56875,0.7075 20.2,-2.17125 28.1225,-8.08875 17.20875,-12.85375 41.20125,-14.81 61.2425,-3.73375"
       style="fill:#c7e5f5;fill-opacity:1;fill-rule:evenodd;stroke:none"
       id="path8161"
       inkscape:connector-curvature="0" />
    <path
       d="m 475.90824,284.16777 c 20.185,11.15625 27.505,36.56 16.34875,56.74375 -11.15375,20.18375 -36.5625,27.5025 -56.745,16.3475 -20.1825,-11.15625 -27.5025,-36.56 -16.34625,-56.74375 11.155,-20.185 36.56,-27.50375 56.7425,-16.3475"
       style="fill:#ffffff;fill-opacity:1;fill-rule:evenodd;stroke:none"
       id="path8165"
       inkscape:connector-curvature="0" />
  </g>
</svg>
