<?xml version="1.0" encoding="UTF-8" standalone="no"?>
<!-- Created with Inkscape (http://www.inkscape.org/) -->

<svg
   xmlns:dc="http://purl.org/dc/elements/1.1/"
   xmlns:cc="http://creativecommons.org/ns#"
   xmlns:rdf="http://www.w3.org/1999/02/22-rdf-syntax-ns#"
   xmlns:svg="http://www.w3.org/2000/svg"
   xmlns="http://www.w3.org/2000/svg"
   xmlns:sodipodi="http://sodipodi.sourceforge.net/DTD/sodipodi-0.dtd"
   xmlns:inkscape="http://www.inkscape.org/namespaces/inkscape"
   width="210mm"
   height="297mm"
   viewBox="0 0 744.09448819 1052.3622047"
   id="svg10342"
   version="1.1"
   inkscape:version="0.91 r"
   sodipodi:docname="hands-1.svg">
  <defs
     id="defs10344" />
  <sodipodi:namedview
     id="base"
     pagecolor="#ffffff"
     bordercolor="#666666"
     borderopacity="1.0"
     inkscape:pageopacity="0.0"
     inkscape:pageshadow="2"
     inkscape:zoom="0.7"
     inkscape:cx="375"
     inkscape:cy="348.57143"
     inkscape:document-units="px"
     inkscape:current-layer="layer1"
     showgrid="false"
     inkscape:window-width="1366"
     inkscape:window-height="744"
     inkscape:window-x="0"
     inkscape:window-y="24"
     inkscape:window-maximized="1" />
  <metadata
     id="metadata10347">
    <rdf:RDF>
      <cc:Work
         rdf:about="">
        <dc:format>image/svg+xml</dc:format>
        <dc:type
           rdf:resource="http://purl.org/dc/dcmitype/StillImage" />
        <dc:title></dc:title>
      </cc:Work>
    </rdf:RDF>
  </metadata>
  <g
     inkscape:label="Layer 1"
     inkscape:groupmode="layer"
     id="layer1">
    <path
       d="m 453.00053,883.85385 0,0 c 2.3375,-6.87125 -1.315,-14.63125 -8.24,-16.74375 l -66.10625,-20.1525 c -6.925,-2.11375 -14.40375,1.3675 -16.7425,8.23875 -2.3375,6.87125 1.37375,14.38625 8.24125,16.74125 l 66.10625,20.15375 c 6.945,2.12 14.4025,-1.36625 16.74125,-8.2375"
       style="fill:#d4b194;fill-opacity:1;fill-rule:evenodd;stroke:none"
       id="path7828"
       inkscape:connector-curvature="0" />
    <path
       d="m 434.31427,906.44655 0,0 c 3.40125,-6.4125 1.03,-14.6525 -5.47125,-17.84 l -62.05625,-30.415 c -6.5025,-3.18625 -14.43875,-0.9425 -17.84125,5.47 -3.4,6.4125 -0.9325,14.42 5.4725,17.8375 l 62.05875,30.4175 c 6.5175,3.1975 14.435,0.9425 17.8375,-5.47"
       style="fill:#d4b194;fill-opacity:1;fill-rule:evenodd;stroke:none"
       id="path7832"
       inkscape:connector-curvature="0" />
    <path
       d="m 320.8974,944.78335 4.1475,-85.3575 64.55625,-23.13375 40.37625,18.595 -63.5575,90.68875 -45.5225,-0.7925 z"
       style="fill:#e2c0a8;fill-opacity:1;fill-rule:evenodd;stroke:none"
       id="path7836"
       inkscape:connector-curvature="0" />
    <path
       d="m 412.95877,928.99305 0,0 c 5.015,-5.2475 4.97,-13.82375 -0.42125,-18.65625 l -51.46625,-46.1225 c -5.3925,-4.8325 -13.64125,-4.825 -18.655,0.4225 -5.015,5.2475 -4.815,13.625 0.4225,18.6525 l 51.46625,46.125 c 5.40625,4.84625 13.63875,4.82625 18.65375,-0.42125"
       style="fill:#e2c0a8;fill-opacity:1;fill-rule:evenodd;stroke:none"
       id="path7840"
       inkscape:connector-curvature="0" />
    <path
       d="m 326.42127,924.53665 c -23.78375,13.78625 -15.28625,55.86 0.99375,67.05625 16.27875,11.195 40.60125,1.72125 57.52625,-20.185 16.92375,-21.9075 10.57125,-48.8975 1.8575,-54.55875 -8.71375,-5.65875 -36.5925,-6.09875 -60.3775,7.6875"
       style="fill:#ffd7b7;fill-opacity:1;fill-rule:evenodd;stroke:none"
       id="path7844"
       inkscape:connector-curvature="0" />
    <path
       d="m 318.12403,958.70685 0,0 c 7.07875,1.6075 15.66625,-2.715 15.7875,-9.94625 l 1.47625,-88.2825 c 0.12,-7.23125 -2.8675,-14.18125 -9.94625,-15.78875 -7.07875,-1.60625 -14.16375,2.87 -15.78625,9.94625 l -1.47625,88.28375 c -0.1225,7.25875 2.86625,14.18125 9.945,15.7875"
       style="fill:#ffd7b7;fill-opacity:1;fill-rule:evenodd;stroke:none"
       id="path7848"
       inkscape:connector-curvature="0" />
    <path
       d="m 387.28503,827.87395 0,0 c -3.22,-6.505 -11.12125,-9.035 -17.6775,-5.975 l -51.8475,23.3675 c -6.59625,2.97375 -9.195,11.1725 -5.97625,17.6775 3.22,6.50625 11.1625,9.17875 17.67625,5.97375 l 51.85,-23.3675 c 6.61625,-2.9825 9.195,-11.17 5.975,-17.67625"
       style="fill:#ffd7b7;fill-opacity:1;fill-rule:evenodd;stroke:none"
       id="path7852"
       inkscape:connector-curvature="0" />
    <path
       d="m 458.73678,849.16445 0,0 c 1.585,-7.0825 -2.88,-14.405 -9.99125,-15.75875 l -67.88875,-12.93625 c -7.1125,-1.35625 -14.17375,2.90875 -15.76,9.99 -1.58625,7.0825 2.9125,14.15625 9.99125,15.7575 l 67.89,12.9375 c 7.1325,1.36 14.1725,-2.90625 15.75875,-9.99"
       style="fill:#ffd7b7;fill-opacity:1;fill-rule:evenodd;stroke:none"
       id="path7856"
       inkscape:connector-curvature="0" />
    <path
       d="m 352.71177,849.51155 c -2.02625,12.2675 -10.26,72.115 19.66,62.445 29.91875,-9.67125 -24.665,50.6625 -24.665,50.6625 l -32.7175,-39.8225 c 0,0 -4.03375,-58.545 37.7225,-73.285"
       style="fill:#ffd7b7;fill-opacity:1;fill-rule:evenodd;stroke:none"
       id="path7860"
       inkscape:connector-curvature="0" />
    <path
       d="m 521.56227,891.75645 c 0.0787,0.0338 0.15625,0.0663 0.2325,0.105 l 61.0325,30.34 c 5.65125,2.80875 2.4525,9.435 -3.2475,6.7475 l -56.06125,-26.4375 -5.5625,-2.765 c -0.56375,-0.28 -1.625,2.0075 -1.0525,2.28125 l 5.615,2.68125 55.6975,27.10875 c 5.6825,2.765 2.74,8.94625 -2.99375,6.285 l -56.2025,-26.08125 -5.60875,-2.67875 c -0.125,-0.06 -0.24875,-0.10625 -0.3775,-0.0375 -0.34625,0.1825 -0.7675,0.99625 -0.2075,1.26375 l 5.6275,2.6875 55.5425,27.42625 c 5.67125,2.79875 2.735,8.90375 -2.985,6.2175 l -56.0725,-26.34125 -5.60625,-2.675 c -0.615,-0.295 -1.58125,1.80125 -0.97875,2.095 l 61.18625,29.95875 c 5.72875,2.6425 2.70125,9.13875 -3.06,6.4975 l -54.4575,-24.9575 -0.05,0.105 -6.60625,-3.155 -0.8475,-0.38875 c -0.12,-0.055 -0.22625,-0.11625 -0.34125,-0.17875 l -4.09,-1.95375 -13.005,-5.9775 c -5.41625,-2.48875 -9.4375,-5.48875 -10.82625,-11.665 l -0.7875,-3.50375 0.005,-0.2525 c 0.095,-4.5675 -10.1475,-10.8575 -13.4675,-12.82875 -4.81,-2.855 -9.8575,-5.405 -14.90375,-7.8125 -5.71875,-2.72875 -11.5175,-5.2925 -17.3375,-7.79125 -4.76375,-2.045 -9.5475,-4.04625 -14.33375,-6.04125 l -0.11375,-0.0462 -0.0737,-0.0325 -0.0413,-0.015 -0.1125,-0.0488 -0.115,-0.0475 -0.07,-0.03 -0.0438,-0.0175 -0.11375,-0.0475 -0.11375,-0.0488 -0.0687,-0.0263 -0.045,-0.0187 -0.115,-0.0475 -0.1125,-0.0488 -0.065,-0.0275 -0.0487,-0.02 -0.11625,-0.0487 -0.11375,-0.0475 -0.0588,-0.0238 -0.055,-0.0237 -0.11375,-0.0462 -0.11375,-0.0475 -0.0562,-0.025 -0.0575,-0.0225 -0.11375,-0.0475 -0.11375,-0.0475 -0.0537,-0.0225 -0.0613,-0.025 -0.1125,-0.0487 -0.115,-0.0462 -0.0487,-0.0213 -0.065,-0.0263 -0.11375,-0.0475 -0.11375,-0.0475 -0.0463,-0.02 -0.0675,-0.0275 -0.11375,-0.0475 -0.11375,-0.0487 -0.0425,-0.0175 -0.0725,-0.0288 -0.11375,-0.0475 -0.11375,-0.0488 -0.0388,-0.015 -0.075,-0.0325 -0.11375,-0.0475 -0.11375,-0.0475 -0.035,-0.015 -0.0788,-0.0312 -0.11375,-0.0475 -0.115,-0.0475 -0.0312,-0.0137 -0.0838,-0.0337 -0.1125,-0.0475 -0.11375,-0.0488 -0.0275,-0.0113 -0.0875,-0.0362 -0.11375,-0.0475 -0.11375,-0.0475 -0.0238,-0.01 -0.20375,-0.085 -0.11375,-0.0475 -0.0213,-0.009 -0.0925,-0.0388 -0.11375,-0.0462 -0.115,-0.0488 -0.0162,-0.006 -0.5525,-0.2325 -0.11375,-0.0462 -0.01,-0.006 -0.445,-0.18625 -0.11375,-0.0475 -0.45625,-0.19 c -0.69,-0.28875 -1.37875,-0.575 -2.07,-0.8625 -1.38,-0.5725 -2.7625,-1.14 -4.1475,-1.70125 l -1.0375,-0.42 -1.04,-0.42 -1.04125,-0.41625 c -1.04,-0.4175 -2.08125,-0.83 -3.1225,-1.24125 l -0.001,0 -1.0425,-0.41 -1.04375,-0.4075 -1.045,-0.4075 -1.04375,-0.405 -1.04625,-0.40125 -1.04625,-0.4 -1.04625,-0.4 c -1.0475,-0.3975 -2.09625,-0.795 -3.145,-1.18875 l -1.04875,-0.39125 -1.05,-0.39125 -1.05125,-0.39 -1.05125,-0.385 -1.0525,-0.38625 -1.05125,-0.38375 -1.05375,-0.38375 -1.05375,-0.38125 -1.055,-0.37875 -1.05375,-0.37625 -1.05625,-0.37625 -1.05625,-0.375 -1.05625,-0.3725 -1.05625,-0.37125 -1.0575,-0.37 -1.05875,-0.3675 0,-0.001 -1.05875,-0.36625 -1.05875,-0.365 -1.06,-0.36375 -1.06,-0.3625 -1.06125,-0.36 -1.06125,-0.35875 -1.06125,-0.35875 -1.06375,-0.355 -1.0625,-0.355 -1.06375,-0.35375 -1.0625,-0.35125 c -1.06375,-0.35125 -2.12875,-0.70125 -3.195,-1.04875 l -1.065,-0.34625 -1.0675,-0.345 -1.06625,-0.3425 -1.0675,-0.3425 -1.0675,-0.34125 -1.0675,-0.34 -1.06875,-0.33875 -1.06875,-0.33625 -2.1375,-0.67125 -0.001,0 -1.07,-0.3325 -0.001,0 -1.07,-0.33125 -0.35125,-0.11 -0.3525,-0.1075 -0.35375,-0.11 -0.001,0 -0.3525,-0.1075 -0.35125,-0.10875 -0.35375,-0.1075 -0.3525,-0.10875 -0.35375,-0.1075 0,-0.001 -0.3525,-0.1075 -0.35375,-0.1075 -0.3525,-0.1075 -0.35375,-0.1075 -0.3525,-0.1075 -0.3525,-0.1075 -0.3525,-0.1075 -0.002,0 -0.3525,-0.10625 0,0 -0.3525,-0.10625 -0.35375,-0.10625 -0.35375,-0.1075 -0.3525,-0.10625 -0.3525,-0.10625 -0.001,0 -0.35375,-0.10625 -0.35375,-0.10625 -0.3525,-0.10625 -0.35375,-0.10625 -0.35375,-0.10625 -0.3525,-0.105 -0.35375,-0.105 -0.21875,-0.0662 31.69625,-13.7925 0.9325,0.6075 0.94125,0.6075 0,0.001 0.94,0.60875 0.9425,0.60625 0,0.001 0.9425,0.60625 0.94375,0.605 0,0.001 0.9425,0.60125 0,0.001 0.945,0.60125 0.94625,0.60125 0.94625,0.60125 1.895,1.19375 0.94875,0.59625 10e-4,0 0.95,0.595 0.95,0.5925 0.95125,0.5925 0.9525,0.5875 0.95375,0.59 0.95375,0.58625 0.95375,0.58625 10e-4,0.001 0.955,0.5825 0,0.001 0.9575,0.58375 0.9575,0.58125 0.95875,0.58125 0.95875,0.5775 0.96,0.57625 0.96125,0.57625 0.9625,0.57375 0.001,0 0.9625,0.57375 0.96375,0.57 0.96375,0.57 0.96625,0.56875 0.001,0 0.96625,0.56625 0.9675,0.56375 0.96875,0.56375 0.96875,0.56125 0.97,0.56 0,0.001 0.9725,0.55625 0,0.001 0.97125,0.55625 0,0.001 0.9725,0.55375 0.002,0 0.97375,0.55375 0,0.001 0.975,0.55125 0.97625,0.55 0.97625,0.5475 0.97875,0.5475 10e-4,0 0.9775,0.545 0,0.001 0.98125,0.5425 0.98,0.54125 0.9825,0.54 0.98375,0.53875 0.98375,0.535 10e-4,0 0.985,0.53625 0.985,0.53125 0.002,0 0.1075,0.06 0.11,0.0587 0.1025,0.0563 0.008,0.002 0.11,0.0588 0.11,0.06 0.095,0.0512 0.0137,0.009 0.11,0.0587 0.11,0.0588 0.09,0.0488 0.02,0.01 0.11,0.06 0.10875,0.0588 0.0837,0.045 0.0263,0.0138 0.11,0.0587 0.11,0.0588 0.075,0.0425 0.035,0.0175 0.11,0.0587 0.10875,0.0588 0.33,0.1775 0.0625,0.0338 0.0475,0.0263 0.11,0.0575 0.11,0.06 0.055,0.03 0.055,0.0288 0.11,0.0587 0.10875,0.06 0.0487,0.025 0.0613,0.0338 0.10875,0.0587 0.11,0.0588 0.0425,0.0225 0.0675,0.0375 0.11,0.0575 0.11,0.0588 0.035,0.02 0.075,0.0388 0.10875,0.0588 0.11,0.06 0.03,0.0163 0.08,0.0425 0.11,0.0588 0.11,0.0587 0.0225,0.0125 0.0875,0.0462 0.11,0.06 0.11,0.0588 0.015,0.008 0.0937,0.0512 0.11,0.0588 0.11125,0.0587 0.007,0.005 0.10125,0.0538 0.11,0.06 0.11,0.0587 0.002,0.001 0.1075,0.0575 0.11125,0.0588 0.105,0.055 0.004,0.003 0.11,0.0587 0.11,0.0588 0.0975,0.0525 0.0125,0.006 0.11,0.0588 0.11,0.06 0.21875,0.1175 0.11,0.0588 0.085,0.045 0.025,0.015 0.11,0.0575 0.11,0.0587 0.0787,0.0412 0.0312,0.0175 0.11,0.0588 0.11,0.0588 c 4.55,2.425 9.11,4.825 13.70375,7.17125 5.63375,2.8775 11.315,5.67875 17.07375,8.2975 5.0925,2.315 10.29625,4.52875 15.585,6.3575 3.71625,1.2875 15.12875,5.02625 18.65125,2.0575 l 0.1925,-0.1625 3.2225,-1.59 c 5.675,-2.80375 10.535,-1.56125 15.87625,1.085 l 17.00125,8.42875 z"
       style="opacity:0.19999701;fill:#000000;fill-opacity:1;fill-rule:evenodd;stroke:none"
       id="path7884"
       inkscape:connector-curvature="0" />
    <path
       d="m 506.21915,874.49545 c 0.0787,0.0337 0.15625,0.0662 0.2325,0.105 l 61.0325,30.34 c 5.65125,2.80875 2.4525,9.435 -3.2475,6.7475 l -56.06125,-26.4375 -5.5625,-2.765 c -0.56375,-0.28 -1.625,2.0075 -1.0525,2.28125 l 5.615,2.68125 55.6975,27.10875 c 5.6825,2.765 2.74,8.94625 -2.99375,6.285 l -56.2025,-26.08125 -5.60875,-2.67875 c -0.125,-0.06 -0.24875,-0.10625 -0.3775,-0.0375 -0.34625,0.1825 -0.7675,0.99625 -0.2075,1.26375 l 5.6275,2.6875 55.5425,27.42625 c 5.67125,2.79875 2.735,8.90375 -2.985,6.2175 l -56.0725,-26.34125 -5.60625,-2.67625 c -0.615,-0.29375 -1.58125,1.8025 -0.97875,2.09625 l 61.18625,29.95875 c 5.72875,2.6425 2.7025,9.13875 -3.06,6.4975 l -54.4575,-24.9575 -0.05,0.105 -6.60625,-3.155 -0.8475,-0.38875 c -0.12,-0.055 -0.22625,-0.11625 -0.34125,-0.17875 l -4.08875,-1.95375 -13.00625,-5.9775 c -5.41625,-2.48875 -9.4375,-5.48875 -10.82625,-11.665 l -0.7875,-3.50375 0.005,-0.2525 c 0.095,-4.5675 -10.1475,-10.8575 -13.4675,-12.82875 -4.81,-2.855 -9.8575,-5.405 -14.90375,-7.8125 -5.7175,-2.72875 -11.5175,-5.2925 -17.3375,-7.79125 -7.18375,-3.085 -14.41125,-6.065 -21.625,-9.085 -22.0575,-9.24 -44.62625,-17.1625 -67.46875,-24.22875 -7.5225,-2.3275 -15.075,-4.545 -22.6275,-6.775 -2.41875,-0.715 -4.84375,-1.4275 -7.24875,-2.1925 -1.36375,-0.43375 -2.935,-0.91 -4.22375,-1.525 -5.2225,-2.49625 -10.1,-6.29 -13.36,-11.11375 -2.74625,-4.06375 -4.435,-9.08375 -3.29375,-13.99125 0.21875,-0.9375 0.5375,-1.8475 0.95125,-2.71625 0.415,-0.87 0.92375,-1.68875 1.515,-2.44875 3.1,-3.9725 8.06375,-5.815 12.9525,-6.23375 5.8,-0.495 11.81625,0.9125 17.04,3.405 1.29,0.615 2.6475,1.53875 3.8425,2.32625 2.105,1.39 4.18625,2.8275 6.26125,4.26 6.4825,4.4725 12.9525,8.95 19.4925,13.34 19.855,13.3225 40.2025,25.89375 61.25375,37.24125 6.88,3.70875 13.77375,7.39125 20.73375,10.945 5.63375,2.8775 11.315,5.67875 17.07375,8.2975 5.0925,2.315 10.29625,4.52875 15.585,6.3575 3.71625,1.2875 15.12875,5.02625 18.6525,2.0575 l 0.19125,-0.1625 3.2225,-1.59 c 5.675,-2.80375 10.535,-1.56125 15.87625,1.085 l 17.00125,8.42875 z"
       style="fill:#ffffff;fill-opacity:1;fill-rule:evenodd;stroke:none"
       id="path7888"
       inkscape:connector-curvature="0" />
    <path
       d="m 400.0879,852.77295 c -2.43125,-1.01375 -4.8625,-2.02625 -7.29125,-3.045 -22.05875,-9.23875 -44.62625,-17.1625 -67.46875,-24.2275 -7.5225,-2.3275 -15.07375,-4.545 -22.6275,-6.775 -2.41875,-0.715 -4.84375,-1.42875 -7.24875,-2.19375 -1.36375,-0.4325 -2.935,-0.91 -4.225,-1.525 -5.22125,-2.49375 -10.09875,-6.29 -13.35875,-11.11375 -2.74625,-4.0625 -4.435,-9.0825 -3.29375,-13.99 0.2175,-0.9375 0.53625,-1.8475 0.95125,-2.7175 0.415,-0.86875 0.92375,-1.68875 1.515,-2.4475 3.1,-3.97125 8.065,-5.81375 12.9525,-6.23375 5.8,-0.49625 11.81625,0.91125 17.04,3.405 1.28875,0.61625 2.6475,1.5375 3.8425,2.32625 2.105,1.38875 4.18625,2.82625 6.2625,4.26125 6.48125,4.4725 12.95125,8.95 19.4925,13.33875 19.8525,13.3225 40.2025,25.895 61.25375,37.24125 2.34,1.26125 4.6825,2.52125 7.02875,3.7725 -0.62125,1.5025 -1.2825,2.9975 -1.99125,4.48125 -0.88875,1.86 -1.8375,3.67125 -2.83375,5.4425"
       style="fill:#403940;fill-opacity:1;fill-rule:evenodd;stroke:none"
       id="path7892"
       inkscape:connector-curvature="0" />
    <path
       d="m 399.0604,845.30375 c -35.96,-16.9625 -68.45875,-35.7875 -99.54375,-52.835 -6.96375,-3.82 -3.665,-10.80875 3.5025,-6.9125 31.66875,21.08 61.865,41.44625 96.04125,57.27375 0.20375,0.105 0.40875,0.20875 0.61375,0.315 l -0.61375,2.15875 z"
       style="fill:#635963;fill-opacity:1;fill-rule:evenodd;stroke:none"
       id="path7896"
       inkscape:connector-curvature="0" />
    <path
       d="m 369.79615,936.34005 0,0 c 6.19875,5.84875 16.51625,5.94125 21.9,-0.63625 l 48.66,-59.45 c 5.385,-6.58125 5.5625,-16.05375 -0.6375,-21.90125 -6.2,-5.84875 -16.035,-5.54875 -21.89875,0.6375 l -48.66125,59.45125 c -5.39875,6.595 -5.56375,16.05 0.6375,21.89875"
       style="fill:#ffd7b7;fill-opacity:1;fill-rule:evenodd;stroke:none"
       id="path8992"
       inkscape:connector-curvature="0" />
    <path
       d="m 584.65474,359.98527 0,0 c 2.3375,-6.87125 -1.315,-14.63125 -8.24,-16.74375 l -66.10625,-20.1525 c -6.925,-2.11375 -14.40375,1.3675 -16.7425,8.23875 -2.3375,6.87125 1.37375,14.38625 8.24125,16.74125 l 66.10625,20.15375 c 6.945,2.12 14.4025,-1.36625 16.74125,-8.2375"
       style="fill:#d4b194;fill-opacity:1;fill-rule:evenodd;stroke:none"
       id="path7828-2"
       inkscape:connector-curvature="0" />
    <path
       d="m 565.96848,382.57797 0,0 c 3.40125,-6.4125 1.03,-14.6525 -5.47125,-17.84 l -62.05625,-30.415 c -6.5025,-3.18625 -14.43875,-0.9425 -17.84125,5.47 -3.4,6.4125 -0.9325,14.42 5.4725,17.8375 l 62.05875,30.4175 c 6.5175,3.1975 14.435,0.9425 17.8375,-5.47"
       style="fill:#d4b194;fill-opacity:1;fill-rule:evenodd;stroke:none"
       id="path7832-0"
       inkscape:connector-curvature="0" />
    <path
       d="m 452.55161,420.91477 4.1475,-85.3575 64.55625,-23.13375 40.37625,18.595 -63.5575,90.68875 -45.5225,-0.7925 z"
       style="fill:#e2c0a8;fill-opacity:1;fill-rule:evenodd;stroke:none"
       id="path7836-0"
       inkscape:connector-curvature="0" />
    <path
       d="m 544.61298,405.12447 0,0 c 5.015,-5.2475 4.97,-13.82375 -0.42125,-18.65625 l -51.46625,-46.1225 c -5.3925,-4.8325 -13.64125,-4.825 -18.655,0.4225 -5.015,5.2475 -4.815,13.625 0.4225,18.6525 l 51.46625,46.125 c 5.40625,4.84625 13.63875,4.82625 18.65375,-0.42125"
       style="fill:#e2c0a8;fill-opacity:1;fill-rule:evenodd;stroke:none"
       id="path7840-1"
       inkscape:connector-curvature="0" />
    <path
       d="m 458.07548,400.66807 c -23.78375,13.78625 -15.28625,55.86 0.99375,67.05625 16.27875,11.195 40.60125,1.72125 57.52625,-20.185 16.92375,-21.9075 10.57125,-48.8975 1.8575,-54.55875 -8.71375,-5.65875 -36.5925,-6.09875 -60.3775,7.6875"
       style="fill:#ffd7b7;fill-opacity:1;fill-rule:evenodd;stroke:none"
       id="path7844-5"
       inkscape:connector-curvature="0" />
    <path
       d="m 449.77824,434.83827 0,0 c 7.07875,1.6075 15.66625,-2.715 15.7875,-9.94625 l 1.47625,-88.2825 c 0.12,-7.23125 -2.8675,-14.18125 -9.94625,-15.78875 -7.07875,-1.60625 -14.16375,2.87 -15.78625,9.94625 l -1.47625,88.28375 c -0.1225,7.25875 2.86625,14.18125 9.945,15.7875"
       style="fill:#ffd7b7;fill-opacity:1;fill-rule:evenodd;stroke:none"
       id="path7848-3"
       inkscape:connector-curvature="0" />
    <path
       d="m 518.93924,304.00537 0,0 c -3.22,-6.505 -11.12125,-9.035 -17.6775,-5.975 l -51.8475,23.3675 c -6.59625,2.97375 -9.195,11.1725 -5.97625,17.6775 3.22,6.50625 11.1625,9.17875 17.67625,5.97375 l 51.85,-23.3675 c 6.61625,-2.9825 9.195,-11.17 5.975,-17.67625"
       style="fill:#ffd7b7;fill-opacity:1;fill-rule:evenodd;stroke:none"
       id="path7852-5"
       inkscape:connector-curvature="0" />
    <path
       d="m 590.39099,325.29587 0,0 c 1.585,-7.0825 -2.88,-14.405 -9.99125,-15.75875 l -67.88875,-12.93625 c -7.1125,-1.35625 -14.17375,2.90875 -15.76,9.99 -1.58625,7.0825 2.9125,14.15625 9.99125,15.7575 l 67.89,12.9375 c 7.1325,1.36 14.1725,-2.90625 15.75875,-9.99"
       style="fill:#ffd7b7;fill-opacity:1;fill-rule:evenodd;stroke:none"
       id="path7856-3"
       inkscape:connector-curvature="0" />
    <path
       d="m 484.36598,325.64297 c -2.02625,12.2675 -10.26,72.115 19.66,62.445 29.91875,-9.67125 -24.665,50.6625 -24.665,50.6625 l -32.7175,-39.8225 c 0,0 -4.03375,-58.545 37.7225,-73.285"
       style="fill:#ffd7b7;fill-opacity:1;fill-rule:evenodd;stroke:none"
       id="path7860-3"
       inkscape:connector-curvature="0" />
    <path
       d="m 423.52523,436.87487 78.305,34.675 -10.71375,24.19375 -78.305,-34.67375 10.71375,-24.195 z"
       style="fill:#ffffff;fill-opacity:1;fill-rule:evenodd;stroke:none"
       id="path7868"
       inkscape:connector-curvature="0" />
    <path
       d="m 653.21648,367.88787 c 0.0788,0.0338 0.15625,0.0663 0.2325,0.105 l 61.0325,30.34 c 5.65125,2.80875 2.4525,9.435 -3.2475,6.7475 l -56.06125,-26.4375 -5.5625,-2.765 c -0.56375,-0.28 -1.625,2.0075 -1.0525,2.28125 l 5.615,2.68125 55.6975,27.10875 c 5.6825,2.765 2.74,8.94625 -2.99375,6.285 l -56.2025,-26.08125 -5.60875,-2.67875 c -0.125,-0.06 -0.24875,-0.10625 -0.3775,-0.0375 -0.34625,0.1825 -0.7675,0.99625 -0.2075,1.26375 l 5.6275,2.6875 55.5425,27.42625 c 5.67125,2.79875 2.735,8.90375 -2.985,6.2175 l -56.0725,-26.34125 -5.60625,-2.675 c -0.615,-0.295 -1.58125,1.80125 -0.97875,2.095 l 61.18625,29.95875 c 5.72875,2.6425 2.70125,9.13875 -3.06,6.4975 l -54.4575,-24.9575 -0.05,0.105 -6.60625,-3.155 -0.8475,-0.38875 c -0.12,-0.055 -0.22625,-0.11625 -0.34125,-0.17875 l -4.09,-1.95375 -13.005,-5.9775 c -5.41625,-2.48875 -9.4375,-5.48875 -10.82625,-11.665 l -0.7875,-3.50375 0.005,-0.2525 c 0.095,-4.5675 -10.1475,-10.8575 -13.4675,-12.82875 -4.81,-2.855 -9.8575,-5.405 -14.90375,-7.8125 -5.71875,-2.72875 -11.5175,-5.2925 -17.3375,-7.79125 -4.76375,-2.045 -9.5475,-4.04625 -14.33375,-6.04125 l -0.11375,-0.0462 -0.0737,-0.0325 -0.0412,-0.015 -0.1125,-0.0487 -0.115,-0.0475 -0.07,-0.03 -0.0437,-0.0175 -0.11375,-0.0475 -0.11375,-0.0488 -0.0688,-0.0263 -0.045,-0.0187 -0.115,-0.0475 -0.1125,-0.0488 -0.065,-0.0275 -0.0488,-0.02 -0.11625,-0.0488 -0.11375,-0.0475 -0.0588,-0.0238 -0.055,-0.0238 -0.11375,-0.0462 -0.11375,-0.0475 -0.0563,-0.025 -0.0575,-0.0225 -0.11375,-0.0475 -0.11375,-0.0475 -0.0537,-0.0225 -0.0613,-0.025 -0.1125,-0.0487 -0.115,-0.0463 -0.0487,-0.0212 -0.065,-0.0263 -0.11375,-0.0475 -0.11375,-0.0475 -0.0462,-0.02 -0.0675,-0.0275 -0.11375,-0.0475 -0.11375,-0.0488 -0.0425,-0.0175 -0.0725,-0.0288 -0.11375,-0.0475 -0.11375,-0.0487 -0.0387,-0.015 -0.075,-0.0325 -0.11375,-0.0475 -0.11375,-0.0475 -0.035,-0.015 -0.0787,-0.0312 -0.11375,-0.0475 -0.115,-0.0475 -0.0312,-0.0138 -0.0838,-0.0337 -0.1125,-0.0475 -0.11375,-0.0487 -0.0275,-0.0113 -0.0875,-0.0362 -0.11375,-0.0475 -0.11375,-0.0475 -0.0238,-0.01 -0.20375,-0.085 -0.11375,-0.0475 -0.0213,-0.009 -0.0925,-0.0387 -0.11375,-0.0462 -0.115,-0.0487 -0.0163,-0.006 -0.5525,-0.2325 -0.11375,-0.0462 -0.01,-0.006 -0.445,-0.18625 -0.11375,-0.0475 -0.45625,-0.19 c -0.69,-0.28875 -1.37875,-0.575 -2.07,-0.8625 -1.38,-0.5725 -2.7625,-1.14 -4.1475,-1.70125 l -1.0375,-0.42 -1.04,-0.42 -1.04125,-0.41625 c -1.04,-0.4175 -2.08125,-0.83 -3.1225,-1.24125 l -10e-4,0 -1.0425,-0.41 -1.04375,-0.4075 -1.045,-0.4075 -1.04375,-0.405 -1.04625,-0.40125 -1.04625,-0.4 -1.04625,-0.4 c -1.0475,-0.3975 -2.09625,-0.795 -3.145,-1.18875 l -1.04875,-0.39125 -1.05,-0.39125 -1.05125,-0.39 -1.05125,-0.385 -1.0525,-0.38625 -1.05125,-0.38375 -1.05375,-0.38375 -1.05375,-0.38125 -1.055,-0.37875 -1.05375,-0.37625 -1.05625,-0.37625 -1.05625,-0.375 -1.05625,-0.3725 -1.05625,-0.37125 -1.0575,-0.37 -1.05875,-0.3675 0,-0.001 -1.05875,-0.36625 -1.05875,-0.365 -1.06,-0.36375 -1.06,-0.3625 -1.06125,-0.36 -1.06125,-0.35875 -1.06125,-0.35875 -1.06375,-0.355 -1.0625,-0.355 -1.06375,-0.35375 -1.0625,-0.35125 c -1.06375,-0.35125 -2.12875,-0.70125 -3.195,-1.04875 l -1.065,-0.34625 -1.0675,-0.345 -1.06625,-0.3425 -1.0675,-0.3425 -1.0675,-0.34125 -1.0675,-0.34 -1.06875,-0.33875 -1.06875,-0.33625 -2.1375,-0.67125 -0.001,0 -1.07,-0.3325 -10e-4,0 -1.07,-0.33125 -0.35125,-0.11 -0.3525,-0.1075 -0.35375,-0.11 -0.001,0 -0.3525,-0.1075 -0.35125,-0.10875 -0.35375,-0.1075 -0.3525,-0.10875 -0.35375,-0.1075 0,-0.001 -0.3525,-0.1075 -0.35375,-0.1075 -0.3525,-0.1075 -0.35375,-0.1075 -0.3525,-0.1075 -0.3525,-0.1075 -0.3525,-0.1075 -0.002,0 -0.3525,-0.10625 0,0 -0.3525,-0.10625 -0.35375,-0.10625 -0.35375,-0.1075 -0.3525,-0.10625 -0.3525,-0.10625 -10e-4,0 -0.35375,-0.10625 -0.35375,-0.10625 -0.3525,-0.10625 -0.35375,-0.10625 -0.35375,-0.10625 -0.3525,-0.105 -0.35375,-0.105 -0.21875,-0.0663 31.69625,-13.7925 0.9325,0.6075 0.94125,0.6075 0,0.001 0.94,0.60875 0.9425,0.60625 0,10e-4 0.9425,0.60625 0.94375,0.605 0,0.001 0.9425,0.60125 0,10e-4 0.945,0.60125 0.94625,0.60125 0.94625,0.60125 1.895,1.19375 0.94875,0.59625 0.001,0 0.95,0.595 0.95,0.5925 0.95125,0.5925 0.9525,0.5875 0.95375,0.59 0.95375,0.58625 0.95375,0.58625 10e-4,0.001 0.955,0.5825 0,10e-4 0.9575,0.58375 0.9575,0.58125 0.95875,0.58125 0.95875,0.5775 0.96,0.57625 0.96125,0.57625 0.9625,0.57375 10e-4,0 0.9625,0.57375 0.96375,0.57 0.96375,0.57 0.96625,0.56875 10e-4,0 0.96625,0.56625 0.9675,0.56375 0.96875,0.56375 0.96875,0.56125 0.97,0.56 0,10e-4 0.9725,0.55625 0,10e-4 0.97125,0.55625 0,0.001 0.9725,0.55375 0.002,0 0.97375,0.55375 0,10e-4 0.975,0.55125 0.97625,0.55 0.97625,0.5475 0.97875,0.5475 10e-4,0 0.9775,0.545 0,0.001 0.98125,0.5425 0.98,0.54125 0.9825,0.54 0.98375,0.53875 0.98375,0.535 10e-4,0 0.985,0.53625 0.985,0.53125 0.002,0 0.1075,0.06 0.11,0.0587 0.1025,0.0562 0.008,0.002 0.11,0.0588 0.11,0.06 0.095,0.0512 0.0137,0.009 0.11,0.0587 0.11,0.0587 0.09,0.0488 0.02,0.01 0.11,0.06 0.10875,0.0587 0.0838,0.045 0.0263,0.0138 0.11,0.0587 0.11,0.0588 0.075,0.0425 0.035,0.0175 0.11,0.0587 0.10875,0.0587 0.33,0.1775 0.0625,0.0337 0.0475,0.0263 0.11,0.0575 0.11,0.06 0.055,0.03 0.055,0.0288 0.11,0.0587 0.10875,0.06 0.0487,0.025 0.0613,0.0337 0.10875,0.0588 0.11,0.0587 0.0425,0.0225 0.0675,0.0375 0.11,0.0575 0.11,0.0588 0.035,0.02 0.075,0.0387 0.10875,0.0587 0.11,0.06 0.03,0.0163 0.08,0.0425 0.11,0.0587 0.11,0.0588 0.0225,0.0125 0.0875,0.0462 0.11,0.06 0.11,0.0588 0.015,0.007 0.0937,0.0512 0.11,0.0587 0.11125,0.0588 0.007,0.005 0.10125,0.0537 0.11,0.06 0.11,0.0588 0.002,10e-4 0.1075,0.0575 0.11125,0.0587 0.105,0.055 0.004,0.002 0.11,0.0588 0.11,0.0587 0.0975,0.0525 0.0125,0.006 0.11,0.0587 0.11,0.06 0.21875,0.1175 0.11,0.0588 0.085,0.045 0.025,0.015 0.11,0.0575 0.11,0.0588 0.0787,0.0412 0.0312,0.0175 0.11,0.0588 0.11,0.0587 c 4.55,2.425 9.11,4.825 13.70375,7.17125 5.63375,2.8775 11.315,5.67875 17.07375,8.2975 5.0925,2.315 10.29625,4.52875 15.585,6.3575 3.71625,1.2875 15.12875,5.02625 18.65125,2.0575 l 0.1925,-0.1625 3.2225,-1.59 c 5.675,-2.80375 10.535,-1.56125 15.87625,1.085 l 17.00125,8.42875 z"
       style="opacity:0.19999701;fill:#000000;fill-opacity:1;fill-rule:evenodd;stroke:none"
       id="path7884-0"
       inkscape:connector-curvature="0" />
    <path
       d="m 637.87336,350.62687 c 0.0788,0.0337 0.15625,0.0663 0.2325,0.105 l 61.0325,30.34 c 5.65125,2.80875 2.4525,9.435 -3.2475,6.7475 l -56.06125,-26.4375 -5.5625,-2.765 c -0.56375,-0.28 -1.625,2.0075 -1.0525,2.28125 l 5.615,2.68125 55.6975,27.10875 c 5.6825,2.765 2.74,8.94625 -2.99375,6.285 l -56.2025,-26.08125 -5.60875,-2.67875 c -0.125,-0.06 -0.24875,-0.10625 -0.3775,-0.0375 -0.34625,0.1825 -0.7675,0.99625 -0.2075,1.26375 l 5.6275,2.6875 55.5425,27.42625 c 5.67125,2.79875 2.735,8.90375 -2.985,6.2175 l -56.0725,-26.34125 -5.60625,-2.67625 c -0.615,-0.29375 -1.58125,1.8025 -0.97875,2.09625 l 61.18625,29.95875 c 5.72875,2.6425 2.7025,9.13875 -3.06,6.4975 l -54.4575,-24.9575 -0.05,0.105 -6.60625,-3.155 -0.8475,-0.38875 c -0.12,-0.055 -0.22625,-0.11625 -0.34125,-0.17875 l -4.08875,-1.95375 -13.00625,-5.9775 c -5.41625,-2.48875 -9.4375,-5.48875 -10.82625,-11.665 l -0.7875,-3.50375 0.005,-0.2525 c 0.095,-4.5675 -10.1475,-10.8575 -13.4675,-12.82875 -4.81,-2.855 -9.8575,-5.405 -14.90375,-7.8125 -5.7175,-2.72875 -11.5175,-5.2925 -17.3375,-7.79125 -7.18375,-3.085 -14.41125,-6.065 -21.625,-9.085 -22.0575,-9.24 -44.62625,-17.1625 -67.46875,-24.22875 -7.5225,-2.3275 -15.075,-4.545 -22.6275,-6.775 -2.41875,-0.715 -4.84375,-1.4275 -7.24875,-2.1925 -1.36375,-0.43375 -2.935,-0.91 -4.22375,-1.525 -5.2225,-2.49625 -10.1,-6.29 -13.36,-11.11375 -2.74625,-4.06375 -4.435,-9.08375 -3.29375,-13.99125 0.21875,-0.9375 0.5375,-1.8475 0.95125,-2.71625 0.415,-0.87 0.92375,-1.68875 1.515,-2.44875 3.1,-3.9725 8.06375,-5.815 12.9525,-6.23375 5.8,-0.495 11.81625,0.9125 17.04,3.405 1.29,0.615 2.6475,1.53875 3.8425,2.32625 2.105,1.39 4.18625,2.8275 6.26125,4.26 6.4825,4.4725 12.9525,8.95 19.4925,13.34 19.855,13.3225 40.2025,25.89375 61.25375,37.24125 6.88,3.70875 13.77375,7.39125 20.73375,10.945 5.63375,2.8775 11.315,5.67875 17.07375,8.2975 5.0925,2.315 10.29625,4.52875 15.585,6.3575 3.71625,1.2875 15.12875,5.02625 18.6525,2.0575 l 0.19125,-0.1625 3.2225,-1.59 c 5.675,-2.80375 10.535,-1.56125 15.87625,1.085 l 17.00125,8.42875 z"
       style="fill:#ffffff;fill-opacity:1;fill-rule:evenodd;stroke:none"
       id="path7888-6"
       inkscape:connector-curvature="0" />
    <path
       d="m 531.74211,328.90437 c -2.43125,-1.01375 -4.8625,-2.02625 -7.29125,-3.045 -22.05875,-9.23875 -44.62625,-17.1625 -67.46875,-24.2275 -7.5225,-2.3275 -15.07375,-4.545 -22.6275,-6.775 -2.41875,-0.715 -4.84375,-1.42875 -7.24875,-2.19375 -1.36375,-0.4325 -2.935,-0.91 -4.225,-1.525 -5.22125,-2.49375 -10.09875,-6.29 -13.35875,-11.11375 -2.74625,-4.0625 -4.435,-9.0825 -3.29375,-13.99 0.2175,-0.9375 0.53625,-1.8475 0.95125,-2.7175 0.415,-0.86875 0.92375,-1.68875 1.515,-2.4475 3.1,-3.97125 8.065,-5.81375 12.9525,-6.23375 5.8,-0.49625 11.81625,0.91125 17.04,3.405 1.28875,0.61625 2.6475,1.5375 3.8425,2.32625 2.105,1.38875 4.18625,2.82625 6.2625,4.26125 6.48125,4.4725 12.95125,8.95 19.4925,13.33875 19.8525,13.3225 40.2025,25.895 61.25375,37.24125 2.34,1.26125 4.6825,2.52125 7.02875,3.7725 -0.62125,1.5025 -1.2825,2.9975 -1.99125,4.48125 -0.88875,1.86 -1.8375,3.67125 -2.83375,5.4425"
       style="fill:#403940;fill-opacity:1;fill-rule:evenodd;stroke:none"
       id="path7892-3"
       inkscape:connector-curvature="0" />
    <path
       d="m 530.71461,321.43517 c -35.96,-16.9625 -68.45875,-35.7875 -99.54375,-52.835 -6.96375,-3.82 -3.665,-10.80875 3.5025,-6.9125 31.66875,21.08 61.865,41.44625 96.04125,57.27375 0.20375,0.105 0.40875,0.20875 0.61375,0.315 l -0.61375,2.15875 z"
       style="fill:#635963;fill-opacity:1;fill-rule:evenodd;stroke:none"
       id="path7896-6"
       inkscape:connector-curvature="0" />
    <path
       d="m 401.11723,721.61627 97.81,-222.41625 -93.9225,-41.59 -115.0175,264.00625 111.13,0 z"
       style="fill:#ffc64c;fill-opacity:1;fill-rule:evenodd;stroke:none"
       id="path8574"
       inkscape:connector-curvature="0" />
    <path
       d="m 501.45036,412.47147 0,0 c 6.19875,5.84875 16.51625,5.94125 21.9,-0.63625 l 48.66,-59.45 c 5.385,-6.58125 5.5625,-16.05375 -0.6375,-21.90125 -6.2,-5.84875 -16.035,-5.54875 -21.89875,0.6375 l -48.66125,59.45125 c -5.39875,6.595 -5.56375,16.05 0.6375,21.89875"
       style="fill:#ffd7b7;fill-opacity:1;fill-rule:evenodd;stroke:none"
       id="path8992-8"
       inkscape:connector-curvature="0" />
  </g>
</svg>
