<?xml version="1.0" encoding="UTF-8" standalone="no"?>
<!-- Created with Inkscape (http://www.inkscape.org/) -->

<svg
   xmlns:dc="http://purl.org/dc/elements/1.1/"
   xmlns:cc="http://creativecommons.org/ns#"
   xmlns:rdf="http://www.w3.org/1999/02/22-rdf-syntax-ns#"
   xmlns:svg="http://www.w3.org/2000/svg"
   xmlns="http://www.w3.org/2000/svg"
   xmlns:sodipodi="http://sodipodi.sourceforge.net/DTD/sodipodi-0.dtd"
   xmlns:inkscape="http://www.inkscape.org/namespaces/inkscape"
   width="123.46745mm"
   height="279.56mm"
   viewBox="0 0 437.48301 990.56692"
   id="svg10914"
   version="1.1"
   inkscape:version="0.91 r"
   sodipodi:docname="heart.svg">
  <defs
     id="defs10916" />
  <sodipodi:namedview
     id="base"
     pagecolor="#ffffff"
     bordercolor="#666666"
     borderopacity="1.0"
     inkscape:pageopacity="0.0"
     inkscape:pageshadow="2"
     inkscape:zoom="0.35"
     inkscape:cx="438.76877"
     inkscape:cy="375.798"
     inkscape:document-units="px"
     inkscape:current-layer="layer1"
     showgrid="false"
     fit-margin-top="0"
     fit-margin-left="0"
     fit-margin-right="0"
     fit-margin-bottom="0"
     inkscape:window-width="1366"
     inkscape:window-height="744"
     inkscape:window-x="0"
     inkscape:window-y="24"
     inkscape:window-maximized="1" />
  <metadata
     id="metadata10919">
    <rdf:RDF>
      <cc:Work
         rdf:about="">
        <dc:format>image/svg+xml</dc:format>
        <dc:type
           rdf:resource="http://purl.org/dc/dcmitype/StillImage" />
        <dc:title></dc:title>
      </cc:Work>
    </rdf:RDF>
  </metadata>
  <g
     inkscape:label="Layer 1"
     inkscape:groupmode="layer"
     id="layer1"
     transform="translate(63.76877,-90.500817)">
    <path
       d="m 110.45132,1081.0677 c 94.88375,0 172.27,-77.3875 172.27,-172.26991 0,-94.88375 -77.38625,-172.2725 -172.27,-172.2725 -94.883751,0 -172.270001,77.38875 -172.270001,172.2725 0,94.88241 77.38625,172.26991 172.270001,172.26991"
       style="fill:#a5d4cf;fill-opacity:1;fill-rule:evenodd;stroke:none"
       id="path8755"
       inkscape:connector-curvature="0" />
    <path
       d="m 110.4507,1016.8981 c 59.54,0 108.10125,-48.55991 108.10125,-108.10116 0,-59.54125 -48.56125,-108.10375 -108.10125,-108.10375 -59.540001,0 -108.1012515,48.5625 -108.1012515,108.10375 0,59.54125 48.5612505,108.10116 108.1012515,108.10116"
       style="fill:#c7e5f5;fill-opacity:1;fill-rule:evenodd;stroke:none"
       id="path8763"
       inkscape:connector-curvature="0" />
    <path
       d="m 206.91682,985.24299 c -15.3725,-10.62875 -26.95625,-13.31625 -35.56,-10.94125 -0.51375,-0.15625 -1.035,-0.31 -1.5625,-0.46125 -27.4475,-7.8575 -51.3525,5.49875 -57.09625,35.93241 -5.74375,30.43 10.595,49.8725 35.93125,57.0963 25.65,7.31 49.66875,-12.6925 54.45625,-38.5975 3.0425,-16.4638 1.84375,-29.42495 -6.29875,-39.12371 2.99625,-3.2425 6.00125,-5.3 10.13,-3.905"
       style="opacity:0.19999701;fill:#000000;fill-opacity:1;fill-rule:evenodd;stroke:none"
       id="path8787"
       inkscape:connector-curvature="0" />
    <path
       d="m 104.59894,1002.1005 c 5.745,-30.43116 29.6475,-43.78616 57.0975,-35.93116 31.56125,9.035 38.3975,26.805 33.29,54.43116 -4.78625,25.9063 -28.80625,45.9075 -54.45625,38.5963 -25.33625,-7.22 -41.675001,-26.6625 -35.93125,-57.0963"
       style="fill:#e6535f;fill-opacity:1;fill-rule:evenodd;stroke:none"
       id="path8791"
       inkscape:connector-curvature="0" />
    <path
       d="m 139.42007,1016.9442 c -2.6475,-6.435 1.68125,-21.12991 10.6225,-20.01491 8.94,1.11496 13.9675,10.53121 7.9275,16.88121 -6.04125,6.3487 -15.58875,10.3325 -18.55,3.1337"
       style="fill:#d4424e;fill-opacity:1;fill-rule:evenodd;stroke:none"
       id="path8795"
       inkscape:connector-curvature="0" />
    <path
       d="m 150.75707,1006.7069 c 0.4975,1.0875 0.0175,2.3713 -1.07,2.8688 -1.08875,0.4987 -2.375,0.02 -2.8725,-1.07 -0.3725,-0.8175 -0.59875,-1.3025 -0.825,-1.79 -3.9175,-8.41625 -3.9525,-21.16621 -5.59375,-34.18246 0.2925,-1.1575 3.55625,-1.385 4.71375,-1.0925 1.16,0.29125 1.86125,1.46875 1.56875,2.62875 -3.92125,15.44125 -0.35375,23.10626 3.24,30.82621 0.33,0.71 0.6625,1.4237 0.83875,1.8112"
       style="fill:#961e28;fill-opacity:1;fill-rule:nonzero;stroke:none"
       id="path8799"
       inkscape:connector-curvature="0" />
    <path
       d="m 198.8182,977.57239 c -32.955,-22.78875 -48.505,-9.0825 -54.5825,12.7825 39.405,22.97241 39.5125,-17.8725 54.5825,-12.7825"
       style="fill:#a8c76d;fill-opacity:1;fill-rule:evenodd;stroke:none"
       id="path8803"
       inkscape:connector-curvature="0" />
    <path
       d="m 146.90194,987.56909 c 11.16625,-7.6125 36.71,-13.07375 43.02375,-10.84625 -6.1025,-4.21375 -31.52,0.11 -43.02375,10.84625"
       style="fill:#6a8733;fill-opacity:1;fill-rule:evenodd;stroke:none"
       id="path8807"
       inkscape:connector-curvature="0" />
    <path
       d="m 175.97444,1016.9104 c 0.895,-3.935 4.81125,-6.3987 8.745,-5.5037 3.935,0.8962 6.39875,4.8112 5.50375,8.745 -0.895,3.935 -4.81125,6.4 -8.74625,5.505 -3.93375,-0.895 -6.3975,-4.8125 -5.5025,-8.7463"
       style="fill:#f2b1b6;fill-opacity:1;fill-rule:evenodd;stroke:none"
       id="path8811"
       inkscape:connector-curvature="0" />
    <path
       d="m 135.08232,774.99209 c 19.56,0.21375 40.01375,5.585 53.745,12.39 5.26125,2.60625 5.21375,4.95 2.66125,7.615 9.19125,2.55875 17.78875,6.55125 23.9325,10.72375 2.4,1.6325 2.85375,2.89625 2.12,4.06375 24.6025,12.6575 19.70625,34.6325 -16.64125,32.395 -0.5925,1.545 -2.34,2.7725 -6.2475,3.66125 -6.325,1.43625 -13.475,1.69625 -20.72875,0.99375 -1.0675,1.92125 -3.50875,3.70875 -8.14,5.45125 -8.26,3.11125 -17.70625,4.93625 -27.53125,5.61 1.4425,6.665 0.49875,12.6025 -6.195,17.5 -12.64125,9.2475 -30.4675,17.9 -46.643751,23.18375 -8.25625,2.7 -12.26125,-0.3925 -16.44375,-6.46875 -6.4275,7.10125 -13.48625,13.22875 -20.8175,17.72375 -4.22,2.585 -7.1275,3.4175 -9.3,3.08125 -3.89875,6.15625 -8.49,11.6425 -13.50875,15.75375 -3.09875,2.54 -5.14125,3.165 -6.72375,2.685 -20.5425005,30.07 -40.89625,20.4475 -35.79,-6.745 -1.3725,-0.1375 -2.0925,-1.27125 -1.90625,-4.16625 0.47625,-7.4125 2.6025,-16.65 6.22125,-25.4775 -3.67,0.38 -5.5475,-1.02125 -4.37625,-6.77625 2.855,-14.035 10.3062495,-31.94 20.9324995,-46.93625 -6.27625,-4.845 -8.40375,-12.575 -2.3275,-28.97875 8.6937505,-23.47 55.2762505,-66.94375 106.0525015,-56.16875 18.60125,3.9475 25.835,10.7125 27.65625,18.88625"
       style="opacity:0.19999701;fill:#000000;fill-opacity:1;fill-rule:evenodd;stroke:none"
       id="path8835"
       inkscape:connector-curvature="0" />
    <path
       d="m 186.04407,833.85749 c 45.07125,5.86375 50.19375,-21.4225 18.15875,-34.1175 -30.71875,-12.1725 -52.6275,29.63375 -18.15875,34.1175"
       style="fill:#f29853;fill-opacity:1;fill-rule:evenodd;stroke:none"
       id="path8839"
       inkscape:connector-curvature="0" />
    <path
       d="m 187.9557,830.53749 c 35.98,4.68125 40.0675,-17.1 14.49375,-27.23375 -24.51875,-9.71625 -42.00875,23.655 -14.49375,27.23375"
       style="fill:#de7c31;fill-opacity:1;fill-rule:evenodd;stroke:none"
       id="path8843"
       inkscape:connector-curvature="0" />
    <path
       d="m 167.1222,789.39129 c 11.39,0.91375 23.4675,5.68625 30.9875,10.7925 7.52,5.11 -8.6075,5.75625 -12.6675,14.68375 -4.06125,8.925 7.3125,15.09625 -4.08875,17.68875 -11.4025,2.59125 -26.11875,0.44 -37.67,-4.50625 -11.5525,-4.945 0.47875,-39.26 23.43875,-38.65875"
       style="fill:#de7c31;fill-opacity:1;fill-rule:evenodd;stroke:none"
       id="path8851"
       inkscape:connector-curvature="0" />
    <path
       d="m 119.94595,767.47529 c 21.55625,-1.2175 45.3925,4.60875 60.78375,12.23625 15.38875,7.6275 -14.6325,12.9875 -19.93875,30.74 -5.30625,17.7525 17.57,26.38125 -3.10625,34.16375 -20.67625,7.785 -48.775,7.54 -71.671251,1.25375 -22.89625,-6.2875 -9.19875,-73.615 33.932501,-78.39375"
       style="fill:#f29853;fill-opacity:1;fill-rule:evenodd;stroke:none"
       id="path8855"
       inkscape:connector-curvature="0" />
    <path
       d="m 118.21457,774.97459 c 17.3925,-0.9825 36.625,3.71875 49.04375,9.87375 12.4175,6.15375 -11.80625,10.4775 -16.0875,24.8025 -4.28125,14.32375 14.17625,21.2875 -2.50625,27.56625 -16.68375,6.28 -39.35625,6.08375 -57.830001,1.01125 -18.47375,-5.07375 -7.4225,-59.3975 27.380001,-63.25375"
       style="fill:#de7c31;fill-opacity:1;fill-rule:evenodd;stroke:none"
       id="path8859"
       inkscape:connector-curvature="0" />
    <path
       d="m 10.359689,917.42219 c -18.3875005,31.2775 -38.0925,21.13625 -30.3975,-5.2725 7.37875,-25.3225 44.46,-18.6475 30.3975,5.2725"
       style="fill:#de7c31;fill-opacity:1;fill-rule:evenodd;stroke:none"
       id="path8867"
       inkscape:connector-curvature="0" />
    <path
       d="m -14.163931,874.24089 c -7.77,11.84 -12.28875,27.2875 -13.01125,38.53 -0.7225,11.245 12.18,-4.0425 24.0012495,-1.22625 11.8225,2.81625 9.21,18.63875 20.4187505,9.455 11.21,-9.185 20.2975,-25.22125 24.24625,-40.285 3.9475,-15.06625 -38.7787505,-29.39625 -55.655,-6.47375"
       style="fill:#f29853;fill-opacity:1;fill-rule:evenodd;stroke:none"
       id="path8871"
       inkscape:connector-curvature="0" />
    <path
       d="m -9.3379315,875.71919 c -6.2687495,9.55375 -9.9137495,22.01875 -10.4974995,31.08875 -0.58375,9.07375 9.8275,-3.26125 19.36624954,-0.98875 9.53749996,2.27125 7.43124996,15.04 16.47500046,7.62875 9.04375,-7.41 16.3775,-20.35 19.565,-32.50625 3.185,-12.155 -31.2912505,-23.7175 -44.9087505,-5.2225"
       style="fill:#de7c31;fill-opacity:1;fill-rule:evenodd;stroke:none"
       id="path8875"
       inkscape:connector-curvature="0" />
    <path
       d="m 2.3149385,825.02359 c -14.1924995,16.27 -24.2212495,38.665 -27.6462495,55.49625 -3.42375,16.83125 19.2337495,-3.58 36.50625,3.1275 17.2725,6.70625 10.04375,30.0625 28.87875,18.51625 18.835,-11.54625 35.88875,-33.88125 44.97875,-55.815 9.08875,-21.935 -52.4725,-52.445 -82.7175005,-21.325"
       style="fill:#f29853;fill-opacity:1;fill-rule:evenodd;stroke:none"
       id="path8879"
       inkscape:connector-curvature="0" />
    <path
       d="m 9.2978185,828.25859 c -11.45125,13.12875 -19.5437495,31.1975 -22.3062495,44.7775 -2.76375,13.5825 15.5199995,-2.88625 29.455,2.525 13.93625,5.41125 8.105,24.2575 23.30125,14.94125 15.19875,-9.3175 28.95875,-27.33875 36.2925,-45.0375 7.33375,-17.69875 -42.3375,-42.315 -66.7425005,-17.20625"
       style="fill:#de7c31;fill-opacity:1;fill-rule:evenodd;stroke:none"
       id="path8883"
       inkscape:connector-curvature="0" />
    <path
       d="m -6.7253115,804.60459 c 8.69375,-23.47 55.2750005,-66.945 106.0537505,-56.17 46.026251,9.77 22.472501,36.78125 19.455001,59.715 -3.08,23.40875 24.16125,45.685 5.17375,59.575 -12.64,9.24875 -30.467501,17.9 -46.641251,23.185 -19.04125,6.22125 -15.46875,-18.32625 -43.60875,-39.3375 -23.7575005,-17.73625 -54.69875,-8.45125 -40.4325005,-46.9675"
       style="fill:#f29853;fill-opacity:1;fill-rule:evenodd;stroke:none"
       id="path8887"
       inkscape:connector-curvature="0" />
    <path
       d="m 2.9079485,805.23159 c 7.2725005,-20.8325 47.3250005,-59.02125 91.7475005,-48.73625 40.267501,9.32375 20.081251,33.12125 17.750001,53.55125 -2.3775,20.85125 21.67125,41.09 5.29625,53.2375 -10.9025,8.0875 -26.333751,15.575 -40.370001,20.07875 -16.5225,5.30375 -13.73,-16.55875 -38.54625,-35.67875 -20.95125,-16.14375 -47.8125005,-8.26375 -35.8775005,-42.4525"
       style="fill:#de7c31;fill-opacity:1;fill-rule:evenodd;stroke:none"
       id="path8891"
       inkscape:connector-curvature="0" />
    <path
       d="m 256.64969,959.02909 c -8.39,-9.4525 -77.52625,-47.41875 -124.49375,-22.8825 -46.965001,24.54 -68.202501,61.39626 -83.335001,66.91491 -15.13375,5.5163 -19.54875,-11.25366 -16.37875,-22.68116 3.17125,-11.42625 23.63,-66.93375 73.641251,-90.32875 50.01125,-23.39625 101.60375,-8.95125 117.27,9.21875 15.66875,18.17 12.59125,20.15125 25.93875,39.58125 13.35,19.43125 9.39,5.845 17.64375,8.78125 8.25375,2.93875 2.3125,22.0175 -10.28625,11.39625"
       style="fill:#ffe9ba;fill-opacity:1;fill-rule:evenodd;stroke:none"
       id="path8919"
       inkscape:connector-curvature="0" />
    <path
       d="m 31.490939,988.55669 c -0.0875,-2.7875 0.24125,-5.615 0.9525,-8.17625 3.17,-11.4275 23.62875,-66.93375 73.640001,-90.33 50.01125,-23.395 101.605,-8.95125 117.27125,9.21875 15.66625,18.17125 12.5875,20.15375 25.9375,39.5825 13.35,19.43 9.39,5.84375 17.64375,8.78125 5.9475,2.1175 4.52375,12.61625 -1.4525,14.3425 -11.86375,-11.6425 -23.70125,-22.47625 -26.99875,-25.255 -8.38875,-9.45375 -67.69,-40.14375 -114.6575,-15.6075 -46.965001,24.5375 -68.202501,61.39625 -83.336251,66.91375 -3.58875,1.3075 -6.575,1.36 -9,0.53"
       style="fill:#ffae00;fill-opacity:1;fill-rule:evenodd;stroke:none"
       id="path8923"
       inkscape:connector-curvature="0" />
    <path
       d="m 154.97132,496.20209 c 0,0 55.3825,-42.575 116,-105.435 38.07875,-39.48 87.01375,-85.64625 98.165,-138.3825 24.1,-113.94125 -51.3325,-161.845 -123.78125,-161.88375 -69.5775,-0.0388 -90.38375,48.47625 -90.38375,48.47625 0,0 -20.80375,-48.515 -90.381251,-48.47625 -72.4412505,0.0387 -147.88125,47.9425 -123.78125,161.88375 11.15125,52.73625 60.08374954,98.9025 98.1625,138.3825 60.6275,62.86 116.000001,105.435 116.000001,105.435"
       style="fill:#e20642;fill-opacity:1;fill-rule:nonzero;stroke:none"
       id="path9015-3"
       inkscape:connector-curvature="0" />
    <path
       d="m 68.880939,102.92259 c -2.38,-0.0762 -4.85375,-0.0862 -7.29875,-0.0375 l -0.0475,-2.47 c 2.48625,-0.0487 5.005,-0.04 7.42375,0.0375 l -0.0775,2.47 z m -24.28875,1.245 -0.3275,-2.44875 c 2.42625,-0.32375 4.91,-0.5925 7.38375,-0.79875 l 0.205,2.46375 c -2.4325,0.2025 -4.87625,0.465 -7.26125,0.78375 m 41.17875,0.48625 c -2.34875,-0.42 -4.77125,-0.77125 -7.2025,-1.0425 l 0.275,-2.455 c 2.48375,0.27625 4.9625,0.63625 7.3625,1.065 l -0.435,2.4325 z m -57.8875,2.78375 -0.62375,-2.38875 c 2.3625,-0.6175 4.79625,-1.185 7.23625,-1.68375 l 0.4975,2.42 c -2.39875,0.49 -4.79,1.0475 -7.11,1.6525 m 74.251251,1.5925 c -2.236251,-0.8175 -4.562501,-1.56625 -6.912501,-2.22375 l 0.665,-2.37875 c 2.4125,0.67375 4.801251,1.4425 7.097501,2.2825 l -0.85,2.32 z m -90.382501,3.7925 -0.94125,-2.28375 c 2.27,-0.935 4.61125,-1.82 6.95875,-2.62625 l 0.80375,2.33625 c -2.30125,0.79125 -4.59625,1.6575 -6.82125,2.57375 m 105.616251,3.54125 c -2.04,-1.25125 -4.17375,-2.43375 -6.34375,-3.515 l 1.10125,-2.21125 c 2.235,1.1125 4.43375,2.33 6.535,3.62 l -1.2925,2.10625 z m -120.8050015,4.065 -1.27125,-2.1175 c 2.1025,-1.26125 4.29250004,-2.4775 6.51,-3.61625 l 1.12875,2.1975 c -2.16874996,1.11375 -4.31125,2.30375 -6.3675,3.53625 m 134.1650015,6.26375 c -1.72125,-1.66375 -3.55375,-3.2725 -5.4475,-4.7825 l 1.54125,-1.93125 c 1.95375,1.5575 3.845,3.21875 5.6225,4.93625 l -1.71625,1.7775 z m -147.950001,3.61375 -1.6025,-1.88 c 1.87125,-1.59375 3.8375,-3.14875 5.845,-4.62125 l 1.46,1.9925 c -1.95875,1.43625 -3.87625,2.95375 -5.7025,4.50875 m 158.592501,9.455 c -1.22,-1.97375 -2.62,-3.96375 -4.16,-5.915 l 1.94,-1.53 c 1.5975,2.025 3.05125,4.0925 4.32125,6.1475 l -2.10125,1.2975 z m -170.457501,2.62625 -1.91375,-1.565 c 1.5625,-1.91 3.22625,-3.78875 4.945,-5.5825 l 1.785,1.71 c -1.675,1.7475 -3.295,3.57625 -4.81625,5.4375 m 177.576251,12.8175 -2.90375,-6.77 2.27125,-0.9725 2.9025,6.76875 -2.27,0.97375 z m -187.020001,1.23625 -2.16875,-1.1825 c 1.19,-2.185 2.4775,-4.34 3.82625,-6.40875 l 2.0675,1.35125 c -1.31125,2.0125 -2.565,4.1125 -3.725,6.24 m -6.7625,15.5475 -2.34,-0.7875 c 0.7975,-2.37 1.6825,-4.7175 2.63125,-6.9775 l 2.2775,0.955 c -0.925,2.20625 -1.79,4.4975 -2.56875,6.81 m -4.1425,16.46875 -2.435,-0.4225 c 0.4275,-2.46 0.9325,-4.91375 1.50125,-7.28875 l 2.4025,0.5725 c -0.55625,2.3275 -1.05125,4.72875 -1.46875,7.13875 m -1.79,16.92 -2.46875,-0.105 c 0.10625,-2.5 0.27625,-4.99375 0.5075,-7.4125 l 2.46125,0.23375 c -0.2275,2.3775 -0.39625,4.8275 -0.5,7.28375 m -2.22875,17.20875 c -0.1675,-2.485 -0.27875,-4.97875 -0.3325,-7.415 l 2.46875,-0.0562 c 0.055,2.40125 0.16375,4.8575 0.3275,7.305 l -2.46375,0.16625 z m 1.965,17.18375 c -0.3925,-2.45875 -0.74125,-4.9275 -1.03375,-7.34 l 2.4525,-0.29875 c 0.28875,2.3825 0.63375,4.82125 1.02125,7.25 l -2.44,0.38875 z m 3.52375,16.9575 c -0.5875,-2.13 -1.11125,-4.27875 -1.55875,-6.3875 l -0.1775,-0.8525 2.41875,-0.505 0.1775,0.84625 c 0.435,2.05875 0.9475,4.15875 1.52125,6.24 l -2.38125,0.65875 z m 5.8075,16.34375 c -0.995,-2.29875 -1.92375,-4.62 -2.76375,-6.9 l 2.31875,-0.85375 c 0.82375,2.2375 1.7375,4.51625 2.7125,6.7725 l -2.2675,0.98125 z m 7.755,15.47625 c -1.23375,-2.17125 -2.42,-4.3675 -3.525,-6.52625 l 2.19875,-1.12625 c 1.09125,2.1275 2.26,4.2925 3.475,6.435 l -2.14875,1.2175 z m 9.17125,14.65625 c -1.40625,-2.0625 -2.7775,-4.14375 -4.075,-6.18625 l 2.08375,-1.32375 c 1.285,2.01875 2.64,4.07625 4.0325,6.1175 l -2.04125,1.3925 z m 10.1875,13.9375 c -1.53625,-1.97875 -3.04125,-3.96 -4.46875,-5.89375 l 1.98625,-1.47 c 1.4175,1.91875 2.90875,3.88625 4.43375,5.8475 l -1.95125,1.51625 z m 10.9162495,13.36125 c -1.60375,-1.87875 -3.19,-3.7675 -4.75375,-5.66625 l 1.9075,-1.57 c 1.55375,1.88625 3.13,3.765 4.725,5.6325 l -1.87875,1.60375 z m 11.42,12.9075 c -1.65875,-1.81875 -3.30875,-3.64625 -4.94375,-5.485 l 1.845,-1.6425 c 1.62875,1.83 3.27125,3.65125 4.925,5.4625 l -1.82625,1.665 z m 11.7537505,12.5775 c -1.6925,-1.775 -3.3825,-3.56125 -5.06625,-5.3575 l 1.80125,-1.68875 c 1.68,1.79125 3.36625,3.5725 5.05375,5.3425 l -1.78875,1.70375 z m 11.94375,12.3875 c -1.705,-1.7525 -3.4175,-3.5175 -5.13375,-5.2925 l 1.77625,-1.7175 c 1.715,1.7725 3.425,3.53625 5.12875,5.28625 l -1.77125,1.72375 z m 11.985,12.3175 c -1.6925,-1.7475 -3.405,-3.50625 -5.13125,-5.28 l 1.77,-1.7225 c 1.72875,1.77375 3.44,3.535 5.13625,5.28375 l -1.775,1.71875 z m 11.99875,12.32625 c -1.715,-1.7375 -3.4375,-3.49375 -5.165,-5.2675 l 1.7725,-1.7225 c 1.72125,1.7675 3.43875,3.52 5.15125,5.25375 l -1.75875,1.73625 z m 12.17875,12.16 c -1.7375,-1.71125 -3.48625,-3.44125 -5.2425,-5.19125 l 1.745,-1.75 c 1.7525,1.74625 3.495,3.47375 5.23,5.17875 l -1.7325,1.7625 z m 12.3525,11.97875 c -1.7575,-1.68125 -3.53,-3.385 -5.315,-5.1125 l 1.7175,-1.775 c 1.7825,1.72375 3.55125,3.42375 5.305,5.1025 l -1.7075,1.785 z m 12.52125,11.80625 c -1.77625,-1.65125 -3.57125,-3.3325 -5.38625,-5.03875 l 1.69375,-1.8 c 1.81,1.70375 3.6025,3.38 5.375,5.03 l -1.6825,1.80875 z m 12.681251,11.63125 c -1.79125,-1.62125 -3.61,-3.275 -5.453751,-4.96375 l 1.668751,-1.8225 c 1.83875,1.685 3.655,3.33625 5.4425,4.95375 l -1.6575,1.8325 z m 12.84125,11.4575 c -1.8025,-1.58625 -3.64375,-3.21625 -5.5225,-4.88875 l 1.6425,-1.845 c 1.875,1.66875 3.71375,3.2975 5.5125,4.87875 l -1.6325,1.855 z m 12.99875,11.27625 c -1.8025,-1.54125 -3.66875,-3.14625 -5.59125,-4.81125 l 1.6175,-1.86625 c 1.91875,1.66125 3.78,3.26125 5.57875,4.8 l -1.605,1.8775 z m 13.16625,11.0875 c -1.7775,-1.4725 -3.66875,-3.05 -5.665,-4.7275 l 1.59,-1.89125 c 1.9925,1.67375 3.87875,3.2475 5.65125,4.715 l -1.57625,1.90375 z"
       style="fill:#fcf8f6;fill-opacity:1;fill-rule:nonzero;stroke:none"
       id="path9023-1"
       inkscape:connector-curvature="0" />
    <path
       d="m 240.94895,102.92319 -0.0788,-2.47 c 2.4225,-0.0775 4.94375,-0.085 7.4275,-0.04 l -0.045,2.47 c -2.445,-0.0462 -4.92375,-0.0362 -7.30375,0.04 m 24.29625,1.2375 c -2.38375,-0.3175 -4.82625,-0.58 -7.26375,-0.78125 l 0.205,-2.46375 c 2.47625,0.20625 4.96125,0.47375 7.385,0.79625 l -0.32625,2.44875 z m -41.1925,0.48 -0.43125,-2.43375 c 2.4,-0.425 4.87875,-0.78125 7.36375,-1.05625 l 0.2725,2.45625 c -2.4325,0.26875 -4.85625,0.6175 -7.205,1.03375 m 57.905,2.78125 c -2.335,-0.61 -4.7275,-1.16375 -7.11125,-1.64875 l 0.49375,-2.42125 c 2.4275,0.49375 4.8625,1.05875 7.24,1.6775 l -0.6225,2.3925 z m -74.27875,1.5675 -0.84375,-2.3225 c 2.29875,-0.835 4.68875,-1.6 7.1025,-2.27 l 0.66,2.38125 c -2.35,0.65125 -4.67875,1.39625 -6.91875,2.21125 m 90.41875,3.8025 c -2.21875,-0.9125 -4.515,-1.77625 -6.825,-2.56875 l 0.80125,-2.33625 c 2.35625,0.8075 4.7,1.68875 6.9625,2.61875 l -0.93875,2.28625 z m -105.6625,3.50875 -1.29,-2.10625 c 2.1,-1.285 4.3,-2.5025 6.53875,-3.61375 l 1.09875,2.2125 c -2.17375,1.07875 -4.30875,2.25875 -6.3475,3.5075 m 120.86,4.0825 c -2.05875,-1.23375 -4.20375,-2.42 -6.37125,-3.53125 l 1.12625,-2.19875 c 2.215,1.135 4.4075,2.35 6.51375,3.61 l -1.26875,2.12 z m -134.205,6.2575 -1.7225,-1.77125 c 1.775,-1.725 3.66375,-3.39125 5.61625,-4.95125 l 1.54125,1.93125 c -1.88875,1.51 -3.7175,3.12125 -5.435,4.79125 m 148.01625,3.61375 c -1.82875,-1.555 -3.7525,-3.0725 -5.715,-4.5075 l 1.46,-1.995 c 2.01,1.4725 3.98,3.02625 5.855,4.61875 l -1.6,1.88375 z m -158.58625,9.50625 -2.11375,-1.27875 c 1.25125,-2.06375 2.69125,-4.1425 4.28375,-6.18125 l 1.94625,1.52 c -1.53125,1.9625 -2.91625,3.96125 -4.11625,5.94 m 170.47,2.57125 c -1.52375,-1.86125 -3.1475,-3.69 -4.8225,-5.435 l 1.7825,-1.71125 c 1.72,1.79125 3.38625,3.66875 4.95125,5.58125 l -1.91125,1.565 z m -177.55,12.90875 -2.27,-0.97375 2.9025,-6.77125 2.27125,0.97375 -2.90375,6.77125 z m 187.0025,1.13625 c -1.16125,-2.12625 -2.41375,-4.22375 -3.72875,-6.23375 l 2.0675,-1.35125 c 1.35125,2.06375 2.6375,4.2175 3.83,6.40125 l -2.16875,1.18375 z m 6.77,15.5375 c -0.7775,-2.30125 -1.6425,-4.59 -2.5725,-6.805 l 2.2775,-0.95625 c 0.9525,2.26875 1.84,4.615 2.63625,6.9725 l -2.34125,0.78875 z m 4.155,16.46625 c -0.41875,-2.405 -0.915,-4.80625 -1.47375,-7.1375 l 2.40375,-0.575 c 0.56875,2.38 1.075,4.8325 1.505,7.28875 l -2.435,0.42375 z m 1.8,16.9225 c -0.10625,-2.46125 -0.27625,-4.91 -0.50375,-7.28375 l 2.46,-0.23625 c 0.2325,2.415 0.40375,4.91 0.5125,7.41375 l -2.46875,0.10625 z m 2.2375,17.205 -2.46625,-0.16375 c 0.16375,-2.44375 0.27375,-4.90125 0.325,-7.30375 l 2.47125,0.055 c -0.0538,2.4375 -0.16375,4.9325 -0.33,7.4125 m -1.96,17.18625 -2.43875,-0.39 c 0.385,-2.4175 0.7275,-4.8575 1.0175,-7.25 l 2.45375,0.29875 c -0.29375,2.4225 -0.64125,4.8925 -1.0325,7.34125 m -3.51125,16.945 -2.38125,-0.655 c 0.565,-2.0525 1.06875,-4.1225 1.4975,-6.155 l 0.1925,-0.92125 2.42125,0.50125 -0.195,0.93 c -0.44,2.08 -0.95625,4.2 -1.535,6.3 m -5.79375,16.34875 -2.26875,-0.98 c 0.975,-2.2575 1.885,-4.5375 2.7075,-6.77625 l 2.31875,0.8525 c -0.83625,2.28 -1.765,4.6025 -2.7575,6.90375 m -7.74875,15.4825 -2.15,-1.2175 c 1.21125,-2.1325 2.37875,-4.29875 3.47375,-6.43625 l 2.2,1.12375 c -1.11125,2.17125 -2.2975,4.36875 -3.52375,6.53 m -9.16625,14.66 -2.04125,-1.38875 c 1.41,-2.07125 2.76375,-4.13 4.02875,-6.12375 l 2.085,1.32625 c -1.2775,2.01375 -2.6475,4.095 -4.0725,6.18625 m -10.18625,13.94375 -1.95125,-1.515 c 1.52625,-1.965 3.0175,-3.9325 4.4325,-5.84875 l 1.98875,1.46625 c -1.42875,1.935 -2.93125,3.9175 -4.47,5.8975 m -10.9075,13.3575 -1.87875,-1.605 c 1.5925,-1.86375 3.165,-3.74 4.7175,-5.62375 l 1.90875,1.57 c -1.5625,1.89625 -3.145,3.7825 -4.7475,5.65875 m -11.42,12.91 -1.8225,-1.66625 c 1.65125,-1.80875 3.295,-3.63125 4.9225,-5.4625 l 1.84625,1.64375 c -1.63625,1.8375 -3.285,3.6675 -4.94625,5.485 m -11.7575,12.58875 -1.78875,-1.70375 c 1.68875,-1.77375 3.3775,-3.55875 5.06,-5.35375 l 1.8025,1.6925 c -1.6875,1.7975 -3.38,3.58625 -5.07375,5.365 m -11.945,12.38875 -1.77125,-1.7225 c 1.70125,-1.75125 3.4125,-3.51375 5.1275,-5.28875 l 1.77625,1.71875 c -1.71625,1.77375 -3.4275,3.53875 -5.1325,5.2925 m -11.99,12.31875 -1.77375,-1.72125 c 1.695,-1.7475 3.41,-3.51125 5.1375,-5.285 l 1.77,1.725 c -1.7275,1.7725 -3.43875,3.5325 -5.13375,5.28125 m -11.99625,12.3275 -1.76,-1.73375 c 1.7125,-1.73625 3.43,-3.4875 5.1525,-5.2575 l 1.77,1.72375 c -1.72625,1.7725 -3.4475,3.53 -5.1625,5.2675 m -12.18125,12.16375 -1.7325,-1.76125 c 1.73375,-1.70625 3.47875,-3.43375 5.23,-5.17875 l 1.74375,1.74875 c -1.755,1.75125 -3.5025,3.48 -5.24125,5.19125 m -12.35375,11.98375 -1.70875,-1.785 c 1.75625,-1.67875 3.525,-3.37875 5.30625,-5.105 l 1.71875,1.77625 c -1.78375,1.7275 -3.55875,3.43375 -5.31625,5.11375 m -12.5225,11.80875 -1.6825,-1.81 c 1.775,-1.64875 3.5675,-3.32375 5.3775,-5.02875 l 1.6925,1.8 c -1.81375,1.7075 -3.60875,3.3875 -5.3875,5.03875 m -12.6825,11.6325 -1.65875,-1.8325 c 1.78875,-1.61625 3.60375,-3.27 5.44625,-4.955 l 1.6675,1.82375 c -1.845,1.6875 -3.66375,3.3425 -5.455,4.96375 m -12.84375,11.46 -1.63125,-1.855 c 1.79875,-1.5825 3.6375,-3.20875 5.5125,-4.88 l 1.64375,1.84625 c -1.87875,1.67375 -3.72125,3.30375 -5.525,4.88875 m -13,11.28 -1.605,-1.8775 c 1.79875,-1.53875 3.66125,-3.14 5.58,-4.80125 l 1.61625,1.8675 c -1.92125,1.66625 -3.7875,3.27 -5.59125,4.81125 m -13.1675,11.09125 -1.57625,-1.90375 c 1.77375,-1.46875 3.66,-3.0425 5.65125,-4.7175 l 1.59,1.89125 c -1.99625,1.67875 -3.8875,3.25625 -5.665,4.73"
       style="fill:#fcf8f6;fill-opacity:1;fill-rule:nonzero;stroke:none"
       id="path9031-2"
       inkscape:connector-curvature="0" />
    <text
       y="231.3717"
       x="-19.454556"
       style="font-variant:normal;font-weight:bold;font-stretch:normal;font-size:30px;font-family:'Script MT Bold';-inkscape-font-specification:ScriptMTBold;writing-mode:lr-tb;fill:#fbfafa;fill-opacity:1;fill-rule:nonzero;stroke:none"
       id="text9035-6">
      <tspan
         x="-19.454556 3.345432 16.485447 32.115452 37.821445 47.511448 57.20145"
         y="231.3717"
         sodipodi:role="line"
         id="tspan9037-6">You’ll</tspan>
      <tspan
         x="15.91544 29.055424 44.685429"
         y="312.61169"
         sodipodi:role="line"
         id="tspan9039-6">our</tspan>
    </text>
    <text
       y="262.59741"
       x="67.161682"
       style="font-variant:normal;font-weight:normal;font-stretch:normal;font-size:105px;font-family:'Advent Pro';-inkscape-font-specification:AdventPro-Regular;writing-mode:lr-tb;fill:#ffffff;fill-opacity:1;fill-rule:nonzero;stroke:none"
       id="text9041-8">
      <tspan
         x="67.161682 113.36169 168.69669 230.54169"
         y="262.59741"
         sodipodi:role="line"
         id="tspan9043-9">LOVE</tspan>
      <tspan
         x="63.381687 110.10669 167.75168 225.39667"
         y="345.12741"
         sodipodi:role="line"
         id="tspan9045-6">FOOD</tspan>
    </text>
  </g>
</svg>
