<?xml version="1.0" encoding="UTF-8" standalone="no"?>
<!-- Created with Inkscape (http://www.inkscape.org/) -->

<svg
   xmlns:dc="http://purl.org/dc/elements/1.1/"
   xmlns:cc="http://creativecommons.org/ns#"
   xmlns:rdf="http://www.w3.org/1999/02/22-rdf-syntax-ns#"
   xmlns:svg="http://www.w3.org/2000/svg"
   xmlns="http://www.w3.org/2000/svg"
   xmlns:sodipodi="http://sodipodi.sourceforge.net/DTD/sodipodi-0.dtd"
   xmlns:inkscape="http://www.inkscape.org/namespaces/inkscape"
   width="185mm"
   height="152mm"
   viewBox="0 0 655.51174 538.58239"
   id="svg10584"
   version="1.1"
   inkscape:version="0.91 r"
   sodipodi:docname="obj-zone-static.svg">
  <defs
     id="defs10586" />
  <sodipodi:namedview
     id="base"
     pagecolor="#ffffff"
     bordercolor="#666666"
     borderopacity="1.0"
     inkscape:pageopacity="0.0"
     inkscape:pageshadow="2"
     inkscape:zoom="0.7"
     inkscape:cx="556.32864"
     inkscape:cy="427.49087"
     inkscape:document-units="px"
     inkscape:current-layer="layer1"
     showgrid="false"
     inkscape:showpageshadow="false"
     inkscape:window-width="1366"
     inkscape:window-height="744"
     inkscape:window-x="0"
     inkscape:window-y="24"
     inkscape:window-maximized="1" />
  <metadata
     id="metadata10589">
    <rdf:RDF>
      <cc:Work
         rdf:about="">
        <dc:format>image/svg+xml</dc:format>
        <dc:type
           rdf:resource="http://purl.org/dc/dcmitype/StillImage" />
        <dc:title></dc:title>
      </cc:Work>
    </rdf:RDF>
  </metadata>
  <g
     inkscape:label="Layer 1"
     inkscape:groupmode="layer"
     id="layer1"
     transform="translate(0,-513.77987)">
    <path
       d="m 277.9317,966.33458 c 0,20.78375 -61.785,37.63122 -138.005,37.63122 -76.218755,0 -138.0037584,-16.84747 -138.0037584,-37.63122 0,-20.78375 61.7850034,-37.63125 138.0037584,-37.63125 76.22,0 138.005,16.8475 138.005,37.63125"
       style="fill:#34393e;fill-opacity:1;fill-rule:nonzero;stroke:none"
       id="path5096"
       inkscape:connector-curvature="0" />
    <path
       d="m 652.3628,966.33458 c 0,20.78375 -61.785,37.63122 -138.005,37.63122 -76.21875,0 -138.00375,-16.84747 -138.00375,-37.63122 0,-20.78375 61.785,-37.63125 138.00375,-37.63125 76.22,0 138.005,16.8475 138.005,37.63125"
       style="fill:#34393e;fill-opacity:1;fill-rule:nonzero;stroke:none"
       id="path5100"
       inkscape:connector-curvature="0" />
    <path
       d="m 476.9151,1030.3369 c 0,11.4312 -61.785,20.7 -138.005,20.7 -76.21875,0 -138.00375,-9.2688 -138.00375,-20.7 0,-11.4338 61.785,-20.7 138.00375,-20.7 76.22,0 138.005,9.2662 138.005,20.7"
       style="fill:#34393e;fill-opacity:1;fill-rule:nonzero;stroke:none"
       id="path5104"
       inkscape:connector-curvature="0" />
    <path
       d="m 58.688995,658.84768 -2.8725,43.4525 c 0,0.3525 -0.008,0.6975 -0.008,1.0525 0,0 29.09875,-16.71875 91.040005,-17.06875 61.94,0.35 91.03875,17.06875 91.03875,17.06875 0,-0.82125 -0.0112,-1.61875 -0.015,-2.43125 l -2.4725,-42.1325 c -0.035,-0.6075 0.009,-1.20125 0.10125,-1.7775 -10.46875,-93.56624 -53.45875,-113.63499 -88.6525,-113.63499 -35.055,0 -77.842505,19.91375 -88.526255,112.53124 0.28625,0.9275 0.4325,1.91375 0.36625,2.94"
       style="fill:#8fab9d;fill-opacity:1;fill-rule:nonzero;stroke:none"
       id="path5108"
       inkscape:connector-curvature="0" />
    <path
       d="m 244.4335,812.33948 -0.305,-4.98875 c -2.57,-6.69875 -10.73375,-16.83375 -18.0825,-20.44 -8.765,-4.30375 -36.8825,-4.25375 -46.1225,-4.25375 -7.0525,0 -14.16875,0.125 -21.05125,0.21875 -4.1325,0.0562 -8.14625,0.1225 -11.95375,0.155 -3.6925,-0.03 -7.42875,-0.0713 -11.2725,-0.12125 -6.67375,-0.0863 -13.6825,-0.1725 -20.6275,-0.1725 -9.505,0 -38.436255,10e-4 -47.367505,4.3875 -9.32625,4.5775 -20.017503,19.42 -18.835,24.51375 0.33875,1.46125 4.42625,3.2275 14.29,3.2275 l 167.485005,0 c 8.335,0 12.53375,-1.155 13.8425,-2.52625"
       style="fill:#8fab9d;fill-opacity:1;fill-rule:nonzero;stroke:none"
       id="path5112"
       inkscape:connector-curvature="0" />
    <path
       d="m 67.748895,882.87118 c 0,14.2425 -1.1975,29.3425 -3.4625,32.83625 -0.2025,0.1475 -0.2875,0.3275 -0.2875,0.49125 l 0,-83.8325 4.98,0 -1.23,50.26875 0,0.23625 z m -12.01875,-163.105 c 2.81,0 5.54125,-0.74 8.07,-2.23625 0.37625,-0.19875 2.69875,-1.31625 6.44875,-2.85 l 0,53.795 c -3.75,0.87375 -7.5075,1.9575 -10.21125,3.285 -2.8175,1.38375 -6.01875,3.60625 -9.27375,6.40375 l 3.8825,-58.4675 c 0.35625,0.0238 0.72875,0.07 1.08375,0.07 M 220.2489,713.48493 c 6.25,2.24625 9.47,3.9575 9.555,4.0075 2.51625,1.44625 5.30125,2.16875 8.105,2.16875 0.36125,0 0.71,-0.045 1.07,-0.0712 l 3.3975,58.0125 c -3.0775,-2.59125 -6.075,-4.6475 -8.74125,-5.955 -3.34875,-1.645 -7.13625,-2.91375 -13.38625,-3.8575 l 0,-54.305 z m -40.47375,52.10625 c -7.16875,0 -14.2725,0.0987 -21.21125,0.19375 -4.10125,0.055 -8.045,0.11 -11.6825,0.14125 -3.5275,-0.03 -7.2175,-0.075 -11.0325,-0.125 -6.7475,-0.0888 -13.6975,-0.1775 -20.71875,-0.1775 -10.93625,0 -19.881255,0.2375 -27.381255,0.745 l 0,-57 c 13.750005,-3.41 33.257505,-6.62125 59.221255,-6.77625 24.27625,0.145 42.8175,2.935 56.30375,6.06375 -0.18625,0.70125 -0.525,1.425 -0.525,2.18375 l 0,55.26375 c -6.25,-0.34625 -14.05125,-0.5125 -22.97375,-0.5125 m -32.925,-222.21499 c 35.1925,0 78.1825,20.06875 88.65125,113.63499 -0.0925,0.57625 -0.13625,1.17 -0.1,1.7775 l 2.47125,42.1325 c 0.004,0.8125 0.015,1.61125 0.015,2.4325 0,0 -29.09875,-16.72 -91.0375,-17.07 -61.942505,0.35 -91.041255,17.07 -91.041255,17.07 0,-0.355 0.007,-0.7 0.007,-1.05375 l 2.8725,-43.4525 c 0.0662,-1.02625 -0.08,-2.0125 -0.365,-2.94 10.6825,-92.61749 53.471255,-112.53124 88.526255,-112.53124 M 63.106395,814.86618 c -9.865,0 -13.95125,-1.76625 -14.29,-3.22625 -1.182503,-5.095 9.50875,-20.14 18.83375,-24.7175 8.9325,-4.38625 37.863755,-4.285 47.368755,-4.285 6.945,0 13.95375,0.14125 20.62625,0.2275 3.845,0.05 7.58125,0.12375 11.27375,0.1525 3.80625,-0.0312 7.82,-0.0725 11.95375,-0.12875 6.8825,-0.095 13.99875,-0.18625 21.05125,-0.18625 9.23875,0 37.3575,0.002 46.1225,4.3075 7.34875,3.60625 15.5125,13.84375 18.0825,20.5425 l 0.305,4.78625 c -1.30875,1.37 -5.50875,2.5275 -13.84375,2.5275 l -167.483755,0 z m 198.333755,1.0275 c 1.07875,-4.64 0.43375,-9.60125 -1.39125,-14.48375 l -5.92,-101.37875 c -0.395,-61.75 -11.68375,-107.73249 -33.64875,-136.62624 -18.07125,-23.77125 -43.53125,-36.3375 -73.6375,-36.3375 -30.1075,0 -55.570005,12.56625 -73.642505,36.3375 -22.1475,29.13125 -33.465003,75.61999 -33.680003,138.14249 l -6.775,102.48625 c -1.12875,3.9075 -1.4575,7.81875 -0.67,11.53125 0.0725,1.56125 0.58125,3.00875 1.425,4.23 1.99375,4.21625 5.74,8.345 13.185,10.78375 0,0.0263 -0.18625,0.0525 -0.18625,0.0788 l 0,100.76875 c 0,15.635 -3.60375,31.9975 -6.1075,35.64375 -3.53375,2.59375 -4.475,7.50375 -2.16375,11.325 1.60875,2.66 4.47875,4.13125 7.37625,4.13125 1.50875,0 3.058753,-0.39875 4.443753,-1.2375 7.67875,-4.645 12.37625,-21.1825 13.91375,-49.155 0.009,-0.15625 0.0375,-0.3125 0.0375,-0.47 l 0,-3.3325 c 1.25,1.365 3.4525,2.10875 5.45,2.10875 1.4375,0 2.885,-0.41375 4.205,-1.2125 5.33625,-3.2275 11.5825,-14.17 11.0725,-46.77875 l 0.65125,-50.0825 119.065005,0 0.65625,50.14875 c -0.5075,32.60875 5.7425,43.41 11.07875,46.63875 1.32,0.7975 2.775,1.2325 4.2125,1.2325 2.76,0 5.6775,-1.375 7.20875,-3.9075 2.20625,-3.64625 1.6675,-8.3175 -1.71,-10.785 -2.26375,-3.49375 -5.64,-18.58 -3.14,-32.8225 l 0,-0.23625 -1.5125,-50.26875 9.35375,0 c 0.095,0 -0.34125,0.425 -0.34125,0.425 l 0,96.54375 c 0,0.15625 0.31,0.3125 0.31875,0.4675 1.5375,28.03375 6.3625,44.60625 14.03875,49.25125 1.385,0.8375 2.98875,1.23625 4.4975,1.23625 2.89625,0 5.76125,-1.47 7.37,-4.13125 2.31125,-3.81875 1.18875,-8.7275 -2.3425,-11.32 -2.505,-3.65625 -5.1325,-20.06375 -6.3825,-35.7425 l 0,-98.925 c 8.75,-3.285 12.4925,-9.10875 13.69125,-14.2775"
       style="fill:#e7d0ac;fill-opacity:1;fill-rule:nonzero;stroke:none"
       id="path5116"
       inkscape:connector-curvature="0" />
    <path
       d="m 422.1274,658.84768 -2.87125,43.4275 c 0,0.36125 -0.006,0.71375 -0.006,1.0775 0,0 29.0975,-16.71875 91.0375,-17.06875 61.94,0.35 91.03875,17.06875 91.03875,17.06875 0,-3.5425 -0.0437,-6.995 -0.11375,-10.38875 l -1.69,-30.35375 c -9.355,-98.37249 -53.3475,-119.23374 -89.235,-119.23374 -35.0525,0 -77.8425,19.91625 -88.52375,112.53749 0.28375,0.92625 0.43,1.91 0.36375,2.93375"
       style="fill:#8fab9d;fill-opacity:1;fill-rule:nonzero;stroke:none"
       id="path5120"
       inkscape:connector-curvature="0" />
    <path
       d="m 607.8844,812.32668 -0.28375,-4.895 c -2.53625,-6.69625 -10.73875,-16.9 -18.11625,-20.52125 -8.7625,-4.30375 -36.8825,-4.2525 -46.1225,-4.2525 -7.05,0 -14.16875,0.12375 -21.05125,0.2175 -4.1325,0.0563 -8.14625,0.12375 -11.95375,0.155 -3.6925,-0.0288 -7.42625,-0.0713 -11.27,-0.12125 -6.67625,-0.0863 -13.6825,-0.1725 -20.6275,-0.1725 -9.5075,0 -38.4375,0.003 -47.36625,4.3875 -9.3275,4.5775 -20.02125,19.41875 -18.83875,24.5125 0.34125,1.46 4.42625,3.22875 14.2925,3.22875 l 167.4825,0 c 8.36,0 12.5575,-1.16375 13.855,-2.53875"
       style="fill:#8fab9d;fill-opacity:1;fill-rule:nonzero;stroke:none"
       id="path5124"
       inkscape:connector-curvature="0" />
    <path
       d="m 431.4989,882.87118 c 0,14.2425 -1.34375,29.3425 -3.60875,32.83625 -0.14875,0.10875 -0.14125,0.2425 -0.14125,0.35875 l 0,-83.7 4.8275,0 -1.0775,50.26875 0,0.23625 z m -12.32875,-163.105 c 2.81125,0 5.55125,-0.74 8.07875,-2.23625 0.385,-0.205 3,-1.37125 6.75,-2.965 l 0,53.84625 c -3.75,0.88125 -7.74375,1.99 -10.5125,3.34875 -2.81625,1.38375 -6.0225,3.60625 -9.2775,6.40375 l 3.88125,-58.4675 c 0.355,0.0238 0.725,0.07 1.08,0.07 m 164.82875,-6.175 c 6.25,2.1925 9.1675,3.85375 9.2525,3.90125 2.51625,1.44625 5.29625,2.16875 8.1,2.16875 0.4575,0 0.9,-0.05 1.35625,-0.09 l 3.23125,58.135 c -3.11875,-2.63875 -6.155,-4.7325 -8.85375,-6.05875 -3.29375,-1.6175 -8.08625,-2.87375 -13.08625,-3.81375 l 0,-54.2425 z m -40.77625,52 c -7.1675,0 -14.27625,0.0987 -21.21625,0.19375 -4.10125,0.055 -8.04875,0.11 -11.685,0.14125 -3.52625,-0.03 -7.21625,-0.075 -11.03375,-0.125 -6.74375,-0.0888 -13.68875,-0.1775 -20.7075,-0.1775 -10.79875,0 -19.58125,0.23375 -27.08125,0.72625 l 0,-57.05625 c 13.75,-3.38125 33.145,-6.54875 58.91875,-6.70125 24.43625,0.145 43.07625,2.97375 56.5825,6.12625 -0.17625,0.68125 -0.50125,1.38625 -0.50125,2.12125 l 0,55.27625 c -6.25,-0.355 -14.22375,-0.525 -23.27625,-0.525 m -32.935,-222.21499 c 35.88625,0 79.88,20.86125 89.235,119.23499 l 1.69,30.35375 c 0.0687,3.3925 0.1125,6.845 0.1125,10.38875 0,0 -29.0975,-16.72 -91.0375,-17.07 -61.94,0.35 -91.0375,17.07 -91.0375,17.07 0,-0.36375 0.006,-0.7175 0.006,-1.07875 l 2.87125,-43.4275 c 0.0663,-1.02375 -0.08,-2.0075 -0.36375,-2.93375 10.6815,-92.62124 53.4715,-112.53749 88.524,-112.53749 M 426.5464,814.86618 c -9.86625,0 -13.95125,-1.7675 -14.29125,-3.22875 -1.1825,-5.095 9.51125,-20.1375 18.83875,-24.715 8.9275,-4.38625 37.85875,-4.285 47.365,-4.285 6.94625,0 13.95125,0.14125 20.6275,0.2275 3.845,0.05 7.57875,0.12375 11.27,0.1525 3.8075,-0.0312 7.82125,-0.0725 11.95375,-0.12875 6.88375,-0.095 14.00125,-0.18625 21.05125,-0.18625 9.24,0 37.36,0.002 46.12375,4.3075 7.3775,3.62125 15.57875,13.9275 18.115,20.625 l 0.28375,4.69125 c -1.2975,1.375 -5.495,2.54 -13.855,2.54 l -167.4825,0 z m 198.34125,1.0275 c 1.0675,-4.59875 0.43875,-9.51125 -1.35,-14.3525 l -6.055,-109.20625 c -0.2225,-10.275 -0.7725,-20.05625 -1.625,-29.40875 l -0.27625,-5.06875 c -0.0412,-0.75 -0.21125,-1.45625 -0.43875,-2.135 -4.4475,-39.8525 -14.87125,-70.82249 -31.21125,-92.31749 -18.07125,-23.77125 -43.5375,-36.3375 -73.64375,-36.3375 -30.105,0 -55.57125,12.56625 -73.645,36.3375 -22.1425,29.1275 -33.46,75.60749 -33.68,138.11499 l -6.77625,102.5075 c -1.1275,3.91 -1.45875,7.82125 -0.67,11.53625 0.0725,1.56 0.40875,3.00875 1.255,4.23125 2.01625,4.26875 5.9775,8.4425 13.4775,10.86625 l 0,100.765 c 0,15.635 -3.61125,31.9975 -6.11625,35.64625 -3.53125,2.5925 -4.47625,7.50125 -2.165,11.3225 1.60875,2.66 4.4775,4.13125 7.37375,4.13125 1.50875,0 3.0575,-0.39875 4.4425,-1.2375 7.67625,-4.645 12.38125,-21.1825 13.92,-49.155 0.007,-0.15625 0.045,-0.3125 0.045,-0.47 l 0,-3.08625 c 1.25,1.20375 3.2775,1.8625 5.1475,1.8625 1.4375,0 2.88,-0.41375 4.20125,-1.2125 5.33625,-3.2275 11.58,-14.17 11.07,-46.77875 l 0.64875,-50.0825 119.0675,0 0.65625,50.14875 c -0.5075,32.60875 5.74125,43.41 11.07625,46.63875 1.32,0.7975 2.775,1.2325 4.2125,1.2325 2.76,0 5.2125,-1.375 6.74625,-3.9075 2.205,-3.64625 1.03375,-8.315 -2.3425,-10.785 -2.2625,-3.49375 -4.23375,-18.58 -4.23375,-32.8225 l 0,-0.23625 -0.32125,-50.26875 10.35125,0 c 0.19625,0 -0.03,0.41875 -0.03,0.41625 l 0,96.5525 c 0,0.15625 0.30125,0.3125 0.31,0.4675 1.5375,28.03375 6.35875,44.60625 14.035,49.25125 1.385,0.8375 2.9875,1.23625 4.49625,1.23625 2.895,0 5.76,-1.47 7.36875,-4.13125 2.31,-3.81875 1.195,-8.7275 -2.33625,-11.32 -2.505,-3.65625 -5.12375,-20.06375 -6.37375,-35.7425 l 0,-99.04 c 8.75,-3.305 12.20125,-9.0525 13.38875,-14.1625"
       style="fill:#e7d0ac;fill-opacity:1;fill-rule:nonzero;stroke:none"
       id="path5128"
       inkscape:connector-curvature="0" />
    <path
       d="m 510.363,721.50028 c -0.71875,22.0475 -76.08375,39.86875 -168.97875,39.86875 -92.47375,0 -167.55375,-17.6575 -168.94875,-39.56875 -0.91125,4.89375 0.15375,10.60875 0.15375,13.565 0,21.57 71.41,39.1675 161.41,40.13875 l 0,185.67 0,3.2825 c -11.25,1.88625 -32.625,8.97 -43.7425,35.3575 -10.0125,23.76497 -20.35875,23.76497 -33.31875,23.76497 -5.17875,0 -15.86875,-6.055 -19.39125,-14.0987 -2.20625,-5.04 -1.17625,-9.64502 3.29875,-14.49252 5.6775,-6.15 11.54375,-7.75 15.73125,-4.265 1.83375,1.5275 3.7975,4.82 1.69625,7.62 -2.4825,3.31002 -1.815,8.00252 1.4925,10.48502 3.30875,2.4825 8.0025,1.8075 10.4825,-1.4963 6.5025,-8.66872 4.73875,-20.75622 -4.1,-28.11747 -8.76375,-7.3 -23.39875,-8.3975 -36.33625,5.615 -8.5125,9.2225 -10.65625,20.10997 -6.03875,30.65747 6.0425,13.8013 21.97125,23.07 33.055,23.07 13.985,0 33.3575,0 47.23125,-32.9275 7.6225,-18.09872 21.19,-24.02497 29.94,-25.95247 l 0,26.42877 c 0,4.135 3.365,7.4887 7.5,7.4887 4.135,0 7.5,-3.3537 7.5,-7.4887 l 0,-26.82252 c 7.5,1.99125 22.165,7.9925 29.79875,26.11252 13.87,32.93 32.9975,33.1612 47.04875,33.1612 11.11,0 27.01375,-9.285 33.065,-23.105 4.6125,-10.5375 2.4425,-21.41247 -6.06,-30.62247 -12.97875,-14.065 -27.72625,-12.9225 -36.5625,-5.55875 -8.8425,7.365 -10.63375,19.4275 -4.15875,28.06122 2.48,3.3063 7.17125,3.9825 10.48125,1.4963 3.3075,-2.4825 3.97625,-7.175 1.49375,-10.48502 -2.06625,-2.75375 -0.0838,-6.0325 1.755,-7.56375 4.275,-3.56375 10.24375,-1.985 15.95875,4.20875 4.465,4.835 5.5175,9.42872 3.315,14.45622 -3.53125,8.0663 -14.20375,14.135 -19.4025,14.135 -13.04625,0 -23.12125,0 -33.13,-23.76247 -11.13875,-26.44125 -32.3525,-33.50125 -43.6025,-35.37125 l 0,-3.27125 0,-185.665 c 90,-0.8925 161.6275,-18.52 161.6275,-40.14375 0,-3.53 0.47875,-8.70875 -0.26375,-13.865"
       style="fill:#8fab9d;fill-opacity:1;fill-rule:nonzero;stroke:none"
       id="path5136"
       inkscape:connector-curvature="0" />
    <path
       d="m 341.3845,761.36908 c 92.895,0 168.26,-17.82125 168.97875,-39.86875 0.004,-0.105 0.0337,-0.21 0.0337,-0.315 0,-2.1075 -0.69,-4.175 -2.0025,-6.1925 -2.01375,-3.09625 -5.5475,-6.07375 -10.35875,-8.89375 -25.095,-14.71625 -85.75625,-25.09875 -156.65125,-25.09875 -93.345,0 -169.01375,17.9925 -169.01375,40.185 0,0.20625 0.0513,0.40875 0.0637,0.615 1.39625,21.91125 76.47625,39.56875 168.95,39.56875"
       style="fill:#ffffe4;fill-opacity:1;fill-rule:nonzero;stroke:none"
       id="path5140"
       inkscape:connector-curvature="0" />
    <path
       d="m 267.7473,707.98768 c 0,0 -3.74875,1.8975 -14.99875,2.11625 l 0,0.0225 c -1.25,0 -0.8525,-0.007 -1.19125,-0.0112 -0.37625,0.004 -1.30875,0.0112 -1.30875,0.0112 l 0,-0.0263 c -10,-0.2425 -15.0425,-2.1125 -15.0425,-2.1125 -3.195,-2.33 -5.93,-4.89625 -8.1925,-7.61375 -9.035,1.6775 -14.80625,4.20125 -14.80625,7.02625 0,5.05 18.38125,9.14625 41.06375,9.14625 22.68375,0 41.06875,-4.09625 41.06875,-9.14625 0,-3.1625 -7.08875,-5.95 -18.04625,-7.5925 -2.38,2.92875 -5.1325,5.6875 -8.54625,8.18"
       style="fill:#78463f;fill-opacity:1;fill-rule:nonzero;stroke:none"
       id="path5144"
       inkscape:connector-curvature="0" />
    <path
       d="m 282.2109,670.41268 c 0,-5 -13.4125,-9.05125 -29.955,-9.05125 -16.54375,0 -29.95375,4.05125 -29.95375,9.05125 0,4.99625 13.41,9.0475 29.95375,9.0475 16.5425,0 29.955,-4.05125 29.955,-9.0475"
       style="fill:#78463f;fill-opacity:1;fill-rule:nonzero;stroke:none"
       id="path5148"
       inkscape:connector-curvature="0" />
    <path
       d="m 222.3019,670.41268 c 0,-5 13.41,-9.05125 29.955,-9.05125 16.54125,0 29.95375,4.05125 29.95375,9.05125 0,4.99625 -13.4125,9.0475 -29.95375,9.0475 -16.545,0 -29.955,-4.05125 -29.955,-9.0475 m 71.8125,3.40125 c 1.15125,0.46625 1.925,1.88125 2.29875,4.2025 1.00125,6.205 -4.42375,12.0875 -10.03625,14.47125 -1.84,0.78375 -4.13625,1.2975 -5.9275,0.92625 2.81625,-5.23875 4.28375,-10.79625 4.53,-16.275 3.77375,-2.80375 7.28,-4.0825 9.135,-3.325 m -12.35875,24.02125 c 1.9325,0 4.0725,-0.46375 6.295,-1.40875 7.28625,-3.095 13.95,-10.64625 12.5875,-19.09125 -0.62875,-3.90125 -2.2825,-6.41875 -4.915,-7.48625 -3.5125,-1.4225 -7.46625,0.305 -10.6275,2.2275 -1.2975,-11.4525 -23.59625,-13.43 -32.34625,-13.63625 l 0,-0.0212 c -1.25,0 -0.82375,0.002 -1.13625,0.006 -0.31625,-0.004 -0.7375,-0.006 -1.01625,-0.006 l -0.0675,0.0212 c -9.53875,0.20875 -31.475,2.2125 -32.47625,13.88625 -0.81,9.46 1.855,19.53 8.9425,28.0475 2.2625,2.71875 5.0225,5.28375 8.2175,7.61375 0,0 5.03625,1.87 15.03625,2.1125 l 0,0.0263 c 0,0 0.9325,-0.007 1.3075,-0.0112 0.33875,0.004 -0.0575,0.0112 1.1925,0.0112 l 0,-0.0225 c 11.25,-0.21875 14.9975,-2.11625 14.9975,-2.11625 3.415,-2.4925 6.165,-5.25125 8.545,-8.18 0.70375,-0.8675 1.29125,-1.75375 1.90875,-2.6475 1.08875,0.4275 2.2325,0.675 3.555,0.675"
       style="fill:#d0715a;fill-opacity:1;fill-rule:nonzero;stroke:none"
       id="path5152"
       inkscape:connector-curvature="0" />
    <path
       d="m 448.7012,713.21108 c -2.2625,2.71875 -5.1225,5.285 -8.3175,7.61375 0,0 -5.135,1.87 -15.135,2.1125 l 0,0.0275 c 0,0 -0.3075,-0.009 -0.68375,-0.0125 -0.3375,0.004 -0.56625,0.0125 -0.56625,0.0125 l 0,-0.0225 c -11.25,-0.22 -15.53125,-2.1175 -15.53125,-2.1175 -3.415,-2.4925 -6.43125,-5.25 -8.81125,-8.18 -10.95625,1.6425 -18.23875,4.43 -18.23875,7.59375 0,5.05 18.3525,9.145 41.03625,9.145 22.68375,0 41.055,-4.095 41.055,-9.145 0,-2.825 -5.7725,-5.35 -14.8075,-7.0275"
       style="fill:#78463f;fill-opacity:1;fill-rule:nonzero;stroke:none"
       id="path5156"
       inkscape:connector-curvature="0" />
    <path
       d="m 389.3039,705.32588 c -5.6125,-2.385 -11.03625,-8.26625 -10.035,-14.4725 0.37375,-2.32125 1.14625,-3.735 2.2975,-4.20125 1.85625,-0.75625 5.36125,0.51875 9.135,3.32375 0.2475,5.47875 1.71375,11.03625 4.53,16.2725 -1.79,0.375 -4.0825,-0.14 -5.9275,-0.9225 m 34.12125,-31.1275 c 16.54375,0 29.95375,4.05125 29.95375,9.0525 0,4.995 -13.41,9.0475 -29.95375,9.0475 -16.5425,0 -29.955,-4.0525 -29.955,-9.0475 0,-5.00125 13.4125,-9.0525 29.955,-9.0525 m -14.9575,46.62625 c 0,0 4.28125,1.8975 15.53125,2.1175 l 0,0.0225 c 0,0 0.2275,-0.009 0.56625,-0.0125 0.37625,0.004 0.68375,0.0125 0.68375,0.0125 l 0,-0.0275 c 10,-0.24125 15.135,-2.1125 15.135,-2.1125 3.195,-2.32875 5.975,-4.895 8.23875,-7.61375 7.0875,-8.51625 9.8075,-18.5875 8.99625,-28.04625 -1.00125,-11.67375 -22.88625,-13.6775 -32.425,-13.88625 l 0.004,-0.0212 c -0.27875,0 -0.285,0.002 -0.60125,0.006 -0.3125,-0.004 -0.5975,-0.006 -0.5975,-0.006 l 0,0.0212 c -10,0.20625 -31.575,2.1825 -32.87875,13.62875 -3.13,-1.905 -7.49,-3.65625 -11.01875,-2.22125 -2.6325,1.0675 -4.3575,3.58625 -4.98625,7.48625 -1.3625,8.44625 5.265,15.9975 12.55125,19.09125 2.22375,0.945 4.345,1.40875 6.2775,1.40875 1.3225,0 2.51875,-0.24625 3.6075,-0.675 0.61625,0.895 1.405,1.78125 2.11,2.6475 2.38,2.93 5.39125,5.6875 8.80625,8.18"
       style="fill:#d0715a;fill-opacity:1;fill-rule:nonzero;stroke:none"
       id="path5160"
       inkscape:connector-curvature="0" />
    <path
       d="m 423.425,692.29808 c 16.54375,0 29.955,-4.05125 29.955,-9.0475 0,-5 -13.41125,-9.05125 -29.955,-9.05125 -16.5425,0 -29.955,4.05125 -29.955,9.05125 0,4.99625 13.4125,9.0475 29.955,9.0475"
       style="fill:#78463f;fill-opacity:1;fill-rule:nonzero;stroke:none"
       id="path5164"
       inkscape:connector-curvature="0" />
    <path
       d="m 362.0888,629.00218 c 0,1.03875 -2.21875,1.97875 -5.79875,2.65625 -0.0888,0.0862 -0.1725,0.2025 -0.2625,0.28375 -5.62875,1.125 -9.92125,1.27 -15.3575,1.015 -2.37,-0.1125 -4.71,-0.20625 -7.05375,-0.205 -0.64375,-0.1825 -1.27125,-0.39 -1.885,-0.62 -5.33875,-0.66875 -8.8675,-1.82 -8.8675,-3.13 0,-0.6 0.75625,-1.16375 2.06875,-1.6675 -0.3075,-0.42375 -0.5625,-0.85875 -0.73,-1.3075 -0.27375,-0.21375 -0.49125,-0.47875 -0.74375,-0.71125 -3.2075,1.0575 -5.3825,2.62 -4.875,4.93375 1.605,7.30875 7.22125,9.9825 13.64,14.2625 6.41875,4.27875 6.0175,17.685 2.27375,36.925 -2.8,14.3875 -12.7,35.65875 -5.88375,45.4775 -3.5525,0.67625 -5.75,1.615 -5.75,2.64875 0,2.06625 8.78,3.74375 19.61125,3.74375 10.83125,0 19.61375,-1.6775 19.61375,-3.74375 0,-1.095 -2.47375,-2.07625 -6.39375,-2.7625 6.6675,-9.86375 -3.16375,-31.0275 -5.9525,-45.36375 -3.745,-19.24 -4.14625,-32.64625 2.2725,-36.925 6.41875,-4.28 12.03625,-6.95375 13.64,-14.2625 0.5375,-2.44875 -1.93375,-4.05625 -5.4525,-5.11375 -0.21375,0.6775 -0.46875,1.34 -0.77375,1.99 1.6825,0.55125 2.66,1.19125 2.66,1.87625"
       style="fill:#5f6e66;fill-opacity:1;fill-rule:nonzero;stroke:none"
       id="path5168"
       inkscape:connector-curvature="0" />
    <path
       d="m 319.5787,609.70159 c -0.63875,-1.9475 -1.28875,-3.87375 -2.00125,-5.735 -0.0125,-0.0337 -0.025,-0.0662 -0.0375,-0.0987 3.1675,5.06 6.3175,10.13749 9.63625,15.12374 -2.645,-3.03 -5.16125,-6.13124 -7.5975,-9.28999 m 17.1125,5.89624 c -0.0375,0.78125 -0.0625,1.565 -0.0788,2.34375 -0.3575,-1.955 -0.78,-3.88875 -1.25,-5.80749 0.22375,0.13375 0.46,0.21875 0.70875,0.24625 0.23375,1.06125 0.44625,2.13124 0.62,3.21749 m -8.65,-21.41749 c -0.16125,-2.09125 1.5375,-4.375 3.76125,-4.375 1.69,0 3.23,0.82625 3.9525,2.24875 1.15375,0.58875 1.83875,1.74 2.0225,2.935 0.3725,0.19875 0.69875,0.49125 0.92,0.93 0.0838,0.17125 0.58125,0.83375 0.0538,0.29875 0.7825,0.795 1.145,1.62875 1.20375,2.74 0.0375,0.6725 -0.12125,1.31375 -0.41125,1.8775 0.265,0.32875 0.4975,0.69375 0.6975,1.1475 0.0375,0.0838 0.04,0.1675 0.0675,0.2525 0.61125,1.6075 -0.07,3.6775 -2.25875,3.6775 -0.81125,0 -1.44875,-0.29375 -1.925,-0.735 -0.88625,-0.6125 -1.385,-1.73875 -1.2225,-2.785 -1.1525,-0.53875 -2.1,-1.61125 -2.03,-2.9025 0.0163,-0.305 0.0288,-0.59375 0.05,-0.88 -0.39125,-0.18125 -0.73875,-0.42 -1.02875,-0.71 -2.00125,-0.205 -3.69,-1.5675 -3.8525,-3.72 m -0.15875,10.23125 c 0.34,0.16 0.74375,0.15625 1.11625,0.0362 0.63875,1.81875 1.2525,3.64625 1.8375,5.48625 -0.9875,-1.86 -1.9925,-3.69875 -2.95375,-5.5225 m 10.45375,-35.3875 c -0.0525,0.4675 -0.1,0.9375 -0.14875,1.4075 -0.0738,-0.4675 -0.0163,-0.94625 0.14875,-1.4075 m 0.445,-3.5775 c -0.115,0.81375 -0.2225,1.625 -0.32,2.4425 -0.16125,-0.83375 -0.0475,-1.6775 0.32,-2.4425 m 45.635,7.9025 c -3.825,2.73875 -7.38,6.0175 -10.58,9.67875 -0.23625,1.50875 -1.1375,2.81875 -2.74375,3.3275 -5.57,7.22625 -9.81625,15.59875 -12.1875,24.03375 -1.13125,1.18875 -1.98375,2.61375 -2.765,4.21624 0.6225,-1.96124 1.285,-3.91124 2.01625,-5.84624 -0.44875,0.54375 -1.02125,0.98375 -1.72,1.2325 -0.2875,1.9125 -2.145,3.52125 -4.28875,3.17875 -0.22375,-0.035 -0.42875,-0.0963 -0.635,-0.15125 -0.0775,0.0388 -0.17,0.0588 -0.25375,0.09 -0.0588,0.18625 -0.0875,0.36625 -0.16625,0.55375 -0.12625,0.30499 -0.34125,0.55999 -0.58375,0.78749 -0.25625,0.68625 -0.6975,1.30625 -1.35625,1.74125 -0.20375,0.135 -0.415,0.27125 -0.63,0.4025 -0.26125,0.20125 -0.5775,0.34875 -0.9325,0.45 -0.30125,0.105 -0.60625,0.18 -0.93625,0.16875 -1.78875,-0.0625 -3.54,-1.13 -3.6225,-3.115 -0.0337,-0.78374 0.13375,-1.41249 0.455,-2.03124 0.0113,-0.0225 0.025,-0.0412 0.0375,-0.065 0.0875,-0.16125 0.17625,-0.32125 0.285,-0.48375 0.47625,-0.72375 1.295,-1.29375 2.03375,-1.66625 0.0962,-0.75625 0.65625,-1.52125 0.65625,-2.2975 l 0,-0.0487 c 0,-0.23125 -0.30875,-0.46375 -0.305,-0.6975 0.0125,-0.74875 0.33875,-1.22625 0.91625,-1.315 0.47125,-0.3525 0.94,-0.60125 1.5125,-0.6475 0.10875,-0.7875 0.20625,-1.55875 0.43625,-2.275 0.22125,-0.69875 0.62875,-1.30375 1.1425,-1.76625 0.89625,-7.4675 2.52875,-14.8225 4.59875,-22.09 -0.13125,0.025 -0.2475,0.0762 -0.40125,0.0762 -2.42,0 -2.8425,-3.42875 -0.82625,-3.96 -0.315,-0.885 -0.3325,-1.86625 0.0688,-2.6575 -0.61875,-0.56625 -1.04875,-1.25625 -1.31625,-2.01875 -2.72875,8.49 -4.85375,17.16125 -5.83875,25.91125 -0.0575,-0.48375 -0.1125,-0.9675 -0.17125,-1.45125 -0.27125,-2.29875 -0.165,-4.595 -0.65125,-6.88625 0.6725,-11.50375 1.7075,-23.08125 6.11375,-33.675 1.90125,-4.57125 3.985,-10.5375 6.8075,-15.9025 -1.28875,0.24625 -2.7075,-0.23 -3.54625,-1.275 -2.26125,4.085 -4.1125,8.3625 -5.7525,12.01875 -2.16,4.82 -3.79625,9.81625 -5.06,14.91 0.485,0.2825 0.91125,0.66625 1.21625,1.17 0.0163,0.0275 0.0337,0.055 0.05,0.0825 0.7775,0.7625 1.0775,2.10125 0.89,3.09375 -0.23875,1.27 -1.1575,2.32375 -2.37375,2.75 -0.17125,0.06 -0.3425,0.0562 -0.51625,0.0937 0.545,0.24125 0.9775,0.73625 0.97625,1.36 -0.006,1.01125 -0.0675,1.95 -0.2475,2.94625 -0.11625,0.63375 -0.44625,1.22125 -0.875,1.68875 -0.002,0.002 -0.0163,0.0125 -0.0213,0.0163 0.8325,1.42125 0.35375,3.58 -1.7375,3.58 -0.5225,0 -0.96,-0.59875 -1.32125,-0.82625 0.60375,-5.7025 1.07,-9.89375 1.895,-17.39375 l 0.1175,0 c -0.0188,0 -0.0375,0.14875 -0.055,-0.004 0.7775,-5.14125 1.88125,-10 3.7075,-15.01125 0.74625,-2.05125 1.6125,-3.9775 2.63,-6.005 0.485,-0.965 -0.92125,-1.53 -1.4725,-0.6625 -1.1175,1.75625 -2.09,3.59625 -2.955,5.44375 -1.2425,2.6625 -2.235,5.42875 -3.04375,8.23625 -0.73,-4.6525 -1.62,-9.2675 -2.69,-13.84125 -0.11375,0.0125 -0.20625,0.0575 -0.33,0.0575 -1.985,0 -3.08625,-1.5575 -3.18125,-3.09875 -0.345,-0.005 -0.6875,-0.04 -1.02625,-0.1025 1.46,6.39 2.4575,12.81625 3.21375,19.2675 -5.22625,-12.06875 -12.36625,-22.90625 -22.51375,-31.85125 -1.0075,-0.89 -2.13625,-0.55375 -2.7675,0.225 0.0312,0.185 0.0587,0.36875 0.0925,0.54375 0.009,0.0525 0,0.1025 0.004,0.1525 0.6925,0.17625 1.35625,0.48125 1.9525,1.005 1.295,1.1425 1.91125,2.93 1.59375,4.62875 -0.0163,0.0875 -0.0625,0.1525 -0.0838,0.23625 3.9975,4.58 7.595,9.4725 10.76875,14.62375 -0.81875,0.2575 -1.46625,1.0425 -1.05625,2.01625 0.61375,1.45375 1.22,2.90875 1.82,4.3625 0.48,-0.93125 1.39875,-1.60625 2.835,-1.60625 3.36,0 4.605,3.7025 3.3425,5.84625 0.64875,0.9025 0.73625,1.945 0.32375,3.05 -0.0637,0.17125 -0.1275,0.345 -0.19125,0.51875 2.78875,0.48625 3.27625,4.52375 0.94125,5.47 0.74875,2.01625 1.12875,4.12875 0.93625,6.31375 -0.0563,0.6375 -0.31125,1.07 -0.65625,1.36375 1.13125,3.9375 2.07125,7.94375 2.75875,12.045 -0.0562,1.0825 -0.115,2.16 -0.17375,3.235 -1.35125,-4.485 -2.81875,-8.8875 -4.30875,-13.10625 -0.24875,-0.70375 -0.515,-1.40125 -0.76875,-2.10375 -0.64125,-0.34625 -1.18,-0.9175 -1.335,-1.68 -0.0937,-0.79125 -0.13125,-1.59 -0.1525,-2.38875 -3.9425,-10.48375 -8.445,-20.7075 -13.66,-30.585 -0.8925,1.1725 -2.39375,1.86625 -3.96,1.57375 -0.5,-0.0937 -0.955,-0.2875 -1.365,-0.54625 6.16625,12.1575 11.93375,24.54 16.57125,37.34 0.96625,2.6675 1.84,5.34 2.675,8.0175 -2.035,-3.22875 -4.0725,-6.08875 -5.89875,-8.44375 0.12625,2.425 -1.27875,4.8075 -4.41625,4.8075 -0.955,0 -1.77875,-0.2275 -2.47375,-0.60625 3.80375,6.70125 6.775,13.6925 8.9775,21.3775 -0.51375,-1.02 -1.00625,-2.035 -1.45875,-3.04625 -0.23375,-0.5275 -1.025,-0.2725 -0.8525,0.2925 2.09375,6.8425 4.5825,13.37 6.75,20.05874 -0.0462,-0.0337 -0.0888,-0.075 -0.13375,-0.10875 -2.6625,-5.17375 -5.49375,-10.27999 -8.47125,-15.30124 -0.29875,0.18875 -0.65125,0.32375 -1.11375,0.32375 -1.4525,0 -2.265,-1.12 -2.35875,-2.24625 -2.15625,0.11875 -4.3275,-1.38875 -4.565,-3.7225 -0.005,-0.008 -0.009,-0.015 -0.0137,-0.0238 -0.175,0.025 -0.34375,0.0662 -0.52375,0.0662 -2.495,0 -4.705,-1.49875 -5.17125,-3.98125 -2.115,-3.195 -4.19125,-6.44875 -6.2475,-9.78125 -0.12125,-0.19625 -0.27,-0.31375 -0.41375,-0.44875 -0.6875,0.025 -1.36625,-0.115 -2.015,-0.3475 -1.0775,0.47875 -1.87,1.8175 -1.16125,3.19125 2.915,5.6475 6.095,11.5525 9.7075,17.2025 0.0337,-0.002 0.0612,-0.0113 0.0937,-0.0113 1.5175,0 2.70875,0.57125 3.57375,1.425 0.1625,-0.0937 0.305,-0.20625 0.485,-0.28375 3.00375,-1.265 5.9925,1.81375 5.94375,4.7325 3.83875,0.61 4.1225,6.80874 -0.0975,6.80874 -0.21375,0 -0.41375,-0.02 -0.60875,-0.0512 1.31,3.00375 2.85,5.92625 5.22375,8.08875 0.2525,0.23125 0.47,0.49625 0.74375,0.71 0.1675,0.44875 0.4225,0.88375 0.73,1.3075 0.10625,0.145 0.19375,0.295 0.3175,0.435 1.9275,2.1775 4.09875,3.475 6.48125,4.3625 0.61375,0.23 1.24125,0.43875 1.885,0.62 2.34375,-10e-4 4.68375,0.0925 7.05375,0.205 5.43625,0.25625 9.72875,0.11125 15.3575,-1.015 0.09,-0.0812 0.17375,-0.19625 0.2625,-0.28375 1.2,-1.17125 2.3075,-2.76625 3.13875,-4.5325 0.305,-0.65 0.56,-1.3125 0.77375,-1.98875 0.0725,-0.23 0.1775,-0.45625 0.2375,-0.6875 0.2975,-1.13 0.6275,-2.25875 0.9525,-3.39125 2.44875,-3.38875 4.38,-7.65624 6.22875,-11.17249 0.435,-0.8275 0.86375,-1.6575 1.29,-2.48625 -4.52375,-2.495 -4.23125,-10.66875 2.02,-10.66875 1.01,0 1.8825,0.23 2.64375,0.60125 0.0625,-0.0213 0.14,-0.0263 0.20375,-0.0462 2.14375,-4.86375 4.015,-9.83625 5.39625,-15.02875 0.006,-0.0275 -0.002,-0.0488 0.004,-0.0738 2.20375,-2.59625 4.6325,-4.9375 7.30625,-7.0125 -0.84,-0.4575 -1.53125,-1.08125 -2.06875,-1.82125"
       style="fill:#10332f;fill-opacity:1;fill-rule:nonzero;stroke:none"
       id="path5216"
       inkscape:connector-curvature="0" />
    <path
       d="m 375.1062,561.17809 c 0.595,0.83125 0.915,1.73625 1.02125,2.63875 2.55625,-2.79 4.84625,-5.33375 7.8,-7.72 -1.1925,0.495 -3.67875,0.045 -3.67875,-1.3775 l 0,-0.007 c -1.25,1.7525 -4.24125,3.61 -6.4025,5.63 0.28875,0.24875 1.03625,0.5225 1.26,0.83625"
       style="fill:#10332f;fill-opacity:1;fill-rule:nonzero;stroke:none"
       id="path5224"
       inkscape:connector-curvature="0" />
    <path
       d="m 303.7824,584.30859 c 0.19,-0.0625 0.36375,-0.15625 0.54375,-0.24 1.155,-0.5375 2.085,-1.465 2.66375,-2.5875 0.5475,-1.05875 0.79375,-2.27375 0.59125,-3.475 -0.24375,-1.4575 -0.9275,-2.88375 -2.00375,-3.7925 -0.46125,-0.845 -1.09875,-1.50125 -1.85375,-1.955 -0.2425,-2.40375 -1.91,-4.79625 -4.0725,-6.2225 -3.30125,-2.17875 -8.6475,-1.43125 -10.115,2.6725 -0.915,2.56625 -1.03125,5.04875 0.335,7.48375 1.08625,1.93375 2.965,3.1975 5.03875,3.84375 0.6275,0.195 1.2625,0.2775 1.8975,0.3 0.36,1.02375 0.87,1.96875 1.70125,2.80875 0.50125,0.505 1.12875,0.83125 1.79125,1.07 0.6475,0.23125 1.32625,0.37125 2.01375,0.34625 0.50125,-0.0188 0.99625,-0.0963 1.46875,-0.2525"
       style="fill:#eba134;fill-opacity:1;fill-rule:nonzero;stroke:none"
       id="path5232"
       inkscape:connector-curvature="0" />
    <path
       d="m 316.7769,538.96069 c 0.5725,-0.7525 0.9,-1.69375 0.8225,-2.71375 -0.11875,-1.55875 -1.195,-2.9825 -2.65875,-3.505 0.18375,-0.34875 0.30875,-0.7425 0.41375,-1.15625 0.02,-0.0838 0.0663,-0.14875 0.0825,-0.23625 0.3175,-1.69875 -0.29875,-3.48625 -1.59375,-4.62875 -0.595,-0.52375 -1.26,-0.83 -1.95125,-1.005 -0.005,-0.05 0.004,-0.1 -0.005,-0.1525 -0.0325,-0.175 -0.06,-0.35875 -0.0913,-0.54375 -0.0538,-0.34 -0.11875,-0.67875 -0.27,-0.98375 -0.17875,-0.3675 -0.37125,-0.6975 -0.57875,-1.00875 0.22375,-0.67125 0.3575,-1.365 0.3075,-2.055 -0.23875,-3.125 -2.875,-5.02625 -5.84625,-5.02625 -2.97125,0 -5.24,3.0525 -5.0275,5.84625 0.16375,2.14 1.46125,3.685 3.21,4.46 0.3325,0.76125 0.8975,1.405 1.64,1.88375 -0.006,-0.006 -0.01,-0.0125 -0.015,-0.0213 0.0125,0.0163 0.03,0.0275 0.0425,0.0412 0.0325,0.0213 0.0625,0.045 0.0913,0.07 0.0288,0.0263 0.0613,0.0513 0.0962,0.0725 -0.0425,-0.0275 -0.1,-0.0412 -0.1275,-0.06 -0.01,-0.006 -0.0687,-0.0125 -0.0687,-0.0212 l 0,0.002 c 0,0.006 0.06,0.0137 0.0712,0.02 0.115,0.0775 0.2425,0.14875 0.41125,0.26125 -0.13375,-0.085 -0.25375,-0.17375 -0.38375,-0.26125 -0.01,-0.004 -0.0138,-0.01 -0.0225,-0.0163 0.0113,0.01 0.025,0.0213 0.0362,0.0312 0.1675,0.17125 0.3375,0.33875 0.5125,0.47625 -0.0388,0.10375 -0.06,0.2125 -0.0913,0.32 -0.57625,1.90125 0.0425,4.07625 2.00625,5.4075 0.345,0.215 0.70625,0.37 1.07625,0.49125 0.295,0.0975 0.59375,0.1775 0.8975,0.2275 -0.0737,0.2025 -0.1425,0.40875 -0.185,0.63125 -0.0288,0.15 -0.0263,0.3 -0.0375,0.45125 -0.10375,1.51 0.65875,2.94625 1.9125,3.72875 0.40875,0.2575 0.865,0.4525 1.36375,0.54625 1.5675,0.2925 3.0675,-0.40125 3.96,-1.57375"
       style="fill:#eba134;fill-opacity:1;fill-rule:nonzero;stroke:none"
       id="path5256"
       inkscape:connector-curvature="0" />
    <path
       d="m 338.0704,540.58229 c 0.12375,0 0.215,-0.0425 0.33,-0.0537 2.86,-0.29125 3.0775,-4.0225 1.0575,-5.48 0.405,-0.62375 0.74,-1.31375 0.97,-2.08625 0.02,-0.0688 0.0387,-0.13875 0.06,-0.2075 0.13125,-0.4425 0.13625,-0.9275 0.0962,-1.41875 2.3375,-1.55875 3.8425,-4.4675 3.63375,-7.23 -0.155,-2.02 -1.105,-3.94 -2.62875,-5.28125 -1.6675,-1.47125 -3.5975,-1.93375 -5.7625,-1.93375 -4.2625,0 -7.52,4.3825 -7.2125,8.39 0.0888,1.20375 0.4925,2.3525 1.1025,3.3825 -0.45125,0.8925 -0.60375,1.8625 -0.5225,2.86 -0.0213,0.68875 0.0362,1.37125 0.26375,2.0425 0.355,1.03125 0.96125,1.845 1.77625,2.56125 0.7525,0.6625 1.665,1.07375 2.62875,1.25125 0.3375,0.0625 0.68,0.0987 1.025,0.10375 0.0962,1.54125 1.1975,3.1 3.1825,3.1"
       style="fill:#eba134;fill-opacity:1;fill-rule:nonzero;stroke:none"
       id="path5260"
       inkscape:connector-curvature="0" />
    <path
       d="m 358.5847,538.15009 c 0.7225,-0.14 1.40375,-0.49125 1.8975,-1.11625 0.6725,-0.8525 1.32,-1.775 1.4375,-2.86875 0.0462,-0.0813 0.075,-0.17375 0.115,-0.26 0.71625,0.415 1.56,0.6825 2.56375,0.6825 2.79125,0 4.2,-1.90125 4.37125,-4.02875 0.435,-0.0375 0.8525,-0.13125 1.2175,-0.3 0.89875,-0.415 1.9625,-0.78875 2.5625,-1.6475 0.1125,-0.16 0.21625,-0.32625 0.3275,-0.48875 2.51625,0.79 5.405,-0.0437 7.2925,-2.0075 2.355,-2.4475 2.315,-5.795 0.7475,-8.60875 -1.45875,-2.61625 -5.1025,-3.55375 -7.78875,-2.62875 -0.305,0.10375 -0.615,0.25125 -0.92375,0.415 -1.9725,0.7475 -3.25125,2.6175 -3.7675,4.6225 -0.6325,0.0238 -1.27625,0.1125 -1.92,0.26125 -1.6675,0.385 -3.0325,2.11875 -3.43125,3.74875 -0.34625,0.3075 -0.62,0.6775 -0.85,1.07375 -2.04,0.59625 -2.99,2.445 -2.94875,4.3775 -1.195,-0.20875 -2.4575,-0.0213 -3.4575,0.74 -2.2025,1.67125 -2.73125,4.1975 -1.18125,6.5375 0.055,0.0838 0.13,0.14625 0.19,0.22125 0.83875,1.045 2.2575,1.52125 3.54625,1.275"
       style="fill:#eba134;fill-opacity:1;fill-rule:nonzero;stroke:none"
       id="path5264"
       inkscape:connector-curvature="0" />
    <path
       d="m 362.3457,555.19779 c 0.14875,0 0.2575,-0.0525 0.395,-0.0663 1.53375,-0.1675 2.395,-1.1975 2.5925,-2.4425 0.21375,-0.105 0.43875,-0.18 0.64,-0.31375 1.17,-0.78875 1.8025,-1.76625 2.5075,-2.94 0.535,-0.89625 0.5975,-1.8875 0.48,-2.87125 0.0425,-0.13625 0.08,-0.275 0.12125,-0.41125 0.004,-0.0125 0,-0.025 0.004,-0.0375 0.43375,0.0687 0.86125,0.0962 1.25875,0.0662 1.94125,-0.14875 3.61875,-1.32625 4.4925,-3.05 0.05,-0.095 0.0975,-0.19 0.14625,-0.28625 1.935,-3.81125 -1.27125,-8.3825 -5.47,-8.06375 -1.9725,0.15125 -3.7575,1.36 -4.62625,3.14125 -0.55625,1.14 -0.64,2.22875 -0.4375,3.3025 -0.29375,0.0338 -0.59125,0.075 -0.87875,0.17 -0.28875,0.0937 -0.58125,0.18375 -0.865,0.29625 1.6875,-0.67 -0.90375,0.0975 -1.02875,0.12 -1.98125,0.70375 -3.88,2.9575 -3.99875,5.085 -0.0925,1.63625 0.21125,3.17375 1.12375,4.3625 -0.0213,0.35375 0.0213,0.7125 0.0962,1.06625 0.3175,1.50625 1.4875,2.8725 3.4475,2.8725"
       style="fill:#eba134;fill-opacity:1;fill-rule:nonzero;stroke:none"
       id="path5268"
       inkscape:connector-curvature="0" />
    <path
       d="m 383.9281,556.09619 c 0.18,-0.075 0.59375,-0.16875 0.75375,-0.28625 1.36875,0.9525 3.73375,0.63125 3.95125,-1.4225 0.05,-0.46625 0.20625,-0.9325 0.25625,-1.4 0.0125,-0.11375 0.11,-0.2225 0.11,-0.33 l 0,-0.0275 c 0,0.006 -0.0337,0.008 -0.03,0.0125 0.63625,0.6475 1.3775,0.99875 2.29625,1.30375 1.40875,0.46625 3.47875,-0.075 4.72125,-0.9025 0.37625,-0.25125 0.67,-0.55 0.965,-0.8525 1.40625,-0.7125 2.1625,-2.06375 2.3025,-3.4875 0.38,0.20125 0.7825,0.37 1.2125,0.495 0.22625,0.065 0.45125,0.13125 0.67625,0.19625 3.03375,0.885 5.90375,-2.225 5.68625,-5.09375 -0.2425,-3.20375 -3.4075,-5.05625 -6.3675,-4.19125 -0.2175,0.065 -0.4325,0.1275 -0.64875,0.19 -1.69375,0.495 -2.86625,2.1375 -3.07125,3.8525 -0.3175,-0.135 -0.65125,-0.25 -1.025,-0.31125 -1.32125,-0.2125 -2.5175,0.002 -3.78,0.4125 -1.29125,0.415 -2.26875,1.24125 -3.00875,2.26375 -0.905,0.1825 -1.735,0.46625 -2.6375,0.92625 -0.13375,0.0675 -0.20875,0.16875 -0.3175,0.2525 -0.725,-1.4875 -2.16375,-2.64125 -4.2625,-2.64125 -5.47625,0 -5.77,7.7825 -1.08125,9.02125 0.004,0.21125 -0.38,0.42125 -0.38,0.635 l 0,0.007 c 0,1.42375 2.48625,1.8725 3.67875,1.3775"
       style="fill:#eba134;fill-opacity:1;fill-rule:nonzero;stroke:none"
       id="path5276"
       inkscape:connector-curvature="0" />
    <path
       d="m 405.7982,561.55409 c -1.91,-0.14 -3.63125,0.19875 -4.96,1.7075 -0.11375,0.1275 -0.19625,0.2725 -0.295,0.40875 -0.40375,-0.23125 -0.8375,-0.3925 -1.2875,-0.42375 -0.495,-0.035 -2.12625,-0.56 -0.57,0.0163 -1.7275,-0.63875 -3.04625,-0.84 -4.90125,-0.39875 -0.74875,0.1775 -1.465,0.5725 -2.09625,1.0975 -0.855,-0.425 -1.83625,-0.6875 -2.975,-0.6875 -5.8175,0 -6.99625,6.3575 -4.29625,10.075 0.53625,0.74 1.22875,1.36375 2.06875,1.8225 0.9,0.49125 1.94875,0.80625 3.18375,0.80625 2.26375,0 3.80125,-0.98 4.7075,-2.37625 0.96375,0.195 1.995,0.18 3.05875,-0.1225 1.51125,-0.43125 2.895,-1.5125 3.91125,-2.73125 1.0375,0.86875 2.41375,1.3525 3.875,1.3275 0.1225,0 0.19125,-0.002 0.24625,-0.005 0.23375,0.0125 0.46375,0.0525 0.70125,0.0462 0.0512,-0.009 0.0837,-0.0125 0.13375,-0.0187 1.28375,0.025 2.55625,-0.45 3.5025,-1.52625 3.08625,-3.50375 0.4325,-8.69375 -4.0075,-9.0175"
       style="fill:#eba134;fill-opacity:1;fill-rule:nonzero;stroke:none"
       id="path5280"
       inkscape:connector-curvature="0" />
    <path
       d="m 370.9315,596.73039 c -6.25125,0 -6.54375,8.17375 -2.02,10.66875 0.8125,0.44875 1.76125,0.735 2.87875,0.735 1.88,0 3.20125,-0.75 4.03,-1.85125 0.2825,0.0488 0.57125,0.0875 0.885,0.0875 3.24625,0 4.5125,-2.71 4.06125,-5.205 0.24625,-0.0612 0.48875,-0.13125 0.7025,-0.22875 0.3125,0.0125 0.63,0.006 0.95875,-0.0213 2.66375,-0.22625 4.73625,-2.5825 4.5325,-5.2725 -0.155,-2.045 -1.83125,-4.2575 -3.9975,-4.4625 -0.75,-0.0688 -1.49875,-0.10875 -2.25,-0.10875 -1.04125,-10e-4 -2.01,0.45375 -2.78625,1.1475 -2.495,0.4675 -3.46,2.8 -3.09,4.99375 -0.11625,0.0275 -0.22125,0.0725 -0.33,0.10875 -0.1375,-0.04 -0.255,-0.105 -0.4175,-0.105 -0.12125,0 -0.21125,0.04 -0.31,0.0688 -0.0637,0.0187 -0.14125,0.025 -0.20375,0.0462 -0.76125,-0.37125 -1.635,-0.60125 -2.64375,-0.60125"
       style="fill:#eba134;fill-opacity:1;fill-rule:nonzero;stroke:none"
       id="path5284"
       inkscape:connector-curvature="0" />
    <path
       d="m 364.5565,581.93919 c -0.27375,0.41625 -0.41625,0.91625 -0.45625,1.4325 -0.075,0.99875 0.295,2.05 1.05625,2.76875 0.5325,0.50375 1.24125,0.85125 2.15875,0.85125 0.64875,0 1.15875,-0.17875 1.575,-0.45 0.004,-10e-4 0.01,-0.004 0.015,-0.006 0.2225,0.0275 0.44,0.0675 0.6825,0.0675 0.56625,0 1.05375,-0.1025 1.505,-0.2475 1.60625,-0.51 2.5075,-1.81875 2.7425,-3.3275 0.09,-0.5625 0.10125,-1.1475 0.009,-1.72875 0.8675,-0.72875 1.315,-1.78 1.92625,-2.73875 2.1675,-3.40375 -2.89375,-7.7675 -5.9775,-5.22625 -1.31625,1.08625 -2.2675,2.30125 -2.5975,3.86125 -0.1275,0.0462 -0.2375,0.1125 -0.3575,0.17 -1.74375,0.825 -2.48875,2.70125 -2.28125,4.57375"
       style="fill:#eba134;fill-opacity:1;fill-rule:nonzero;stroke:none"
       id="path5288"
       inkscape:connector-curvature="0" />
    <path
       d="m 324.8005,576.90129 c -0.13,-2.525 -1.91375,-5.09625 -5.1625,-5.09625 -0.0337,0 -0.0638,0.009 -0.0962,0.01 -0.11125,-0.20875 -0.2175,-0.4175 -0.34375,-0.625 -0.7475,-0.8725 -0.935,-1.08375 -0.56,-0.6325 -0.0875,-0.105 -0.175,-0.20875 -0.2625,-0.31375 -0.01,-0.0137 -0.0187,-0.0312 -0.03,-0.045 1.75,-4.12125 -0.69375,-10.3775 -6.7025,-10.3775 -2.2875,0 -3.90125,0.91125 -4.91875,2.25125 -0.52625,0.69125 -0.88125,1.495 -1.08375,2.35875 -0.87125,3.73125 1.20375,8.475 5.8625,9.17625 0.0375,0.1425 0.0812,0.2825 0.1175,0.425 0.395,1.535 1.1175,2.75375 2.53,3.56 0.41375,0.23625 0.86875,0.37 1.3325,0.455 0.39375,1.25875 1.21,2.39375 2.42625,3.055 0.69625,0.37875 1.51875,0.60625 2.47375,0.60625 3.13875,0 4.5425,-2.3825 4.4175,-4.8075"
       style="fill:#eba134;fill-opacity:1;fill-rule:nonzero;stroke:none"
       id="path5292"
       inkscape:connector-curvature="0" />
    <path
       d="m 326.2275,553.92339 c -0.9075,1.0275 -0.62625,2.81875 0.6775,3.39125 0.29,0.1275 0.58,0.255 0.8725,0.385 0.005,10e-4 0.0112,10e-4 0.0175,0.004 0.025,0.0375 0.05,0.0775 0.0763,0.115 -0.15,0.58125 -0.1775,1.20375 0.0175,1.72375 l 0.3525,0.94625 c 0.28,0.75 0.94125,1.26625 1.685,1.525 0.0562,0.2075 0.13125,0.4075 0.1775,0.61875 -0.05,0.5 0.0188,1.00625 0.2,1.49 0.0312,0.34 0.0987,0.66 0.1025,1.02125 0.025,1.465 -0.009,2.93625 0.0312,4.4025 0.0213,0.79875 0.0588,1.59625 0.1525,2.38875 0.155,0.7625 0.69375,1.3325 1.335,1.68 0.83375,0.44875 1.8375,0.4825 2.4925,-0.0712 0.345,-0.2925 0.6,-0.725 0.65625,-1.3625 0.1925,-2.185 -0.1875,-4.29875 -0.93625,-6.31375 2.335,-0.9475 1.8475,-4.98375 -0.94125,-5.47125 0.0637,-0.1725 0.1275,-0.34625 0.19125,-0.5175 0.4125,-1.10625 0.325,-2.14875 -0.32375,-3.05 1.2625,-2.145 0.0175,-5.8475 -3.3425,-5.8475 -1.43625,0 -2.355,0.67625 -2.835,1.6075 -0.17,0.33 -0.29125,0.6875 -0.35125,1.065 -0.1075,0.0838 -0.21375,0.16125 -0.3075,0.27"
       style="fill:#eba134;fill-opacity:1;fill-rule:nonzero;stroke:none"
       id="path5296"
       inkscape:connector-curvature="0" />
    <path
       d="m 353.5721,574.83039 c -2.01625,0.53125 -1.59375,3.95875 0.825,3.95875 0.155,0 0.27,-0.05 0.40125,-0.075 0.905,-0.17875 1.3625,-0.895 1.3925,-1.6975 0.14125,0.0187 0.275,0.0562 0.43,0.0562 3.215,0 3.59125,-3.89125 1.63875,-5.57125 0.355,-0.66 0.425,-1.445 0.31625,-2.20125 -0.0662,-0.4525 -0.1975,-0.9475 -0.40125,-1.39 -0.0625,-0.1425 -0.10375,-0.29875 -0.19125,-0.42 -0.0312,-0.0425 -0.0675,-0.1125 -0.10125,-0.18625 0.0637,-0.14625 0.12875,-0.29 0.195,-0.43625 0.1875,-0.0588 0.355,-0.15125 0.53125,-0.2275 1.11125,-0.49125 1.985,-1.33 2.1225,-2.54125 0.01,-0.003 0.0187,-0.004 0.0275,-0.006 0.2875,-0.11375 0.5475,-0.27 0.81,-0.42875 0.0375,-0.006 0.1,-0.0213 0.215,-0.0538 1.82875,-0.43125 2.7,-2.735 2.13375,-4.3775 -0.3425,-1.00125 -1.07625,-1.63875 -1.96,-1.9875 -0.485,-0.1925 -1.00125,-0.32375 -1.555,-0.32625 -2.1975,-0.005 -3.9925,1.33375 -4.5875,3.43125 -0.1075,0.38 -0.11125,0.765 -0.0425,1.1375 -0.355,0.35625 -0.65625,0.795 -0.81875,1.3875 -0.0375,0.1075 -0.0687,0.20625 -0.12125,0.35875 -0.05,0.3025 -0.0588,0.60375 -0.03,0.905 -0.05,-0.815 -0.02,-0.26625 -0.10375,0.045 -0.1,0.36875 -0.0775,0.705 -0.004,1.02 -0.2475,0.0225 -0.50125,0.0925 -0.7525,0.18375 -0.97625,0.36375 -1.8825,1.21375 -1.94375,2.25625 -0.05,0.88125 0.0525,1.7325 0.32625,2.51 0.2675,0.7625 0.6975,1.4525 1.31625,2.01875 -0.40125,0.79125 -0.38375,1.7725 -0.0687,2.6575"
       style="fill:#eba134;fill-opacity:1;fill-rule:nonzero;stroke:none"
       id="path5304"
       inkscape:connector-curvature="0" />
    <path
       d="m 332.9221,598.61089 c -0.0213,0.28625 -0.0337,0.57375 -0.05,0.88 -0.0687,1.29 0.8775,2.3625 2.03125,2.90125 -0.16375,1.0475 0.33625,2.17375 1.22125,2.785 0.4775,0.44125 1.11375,0.73625 1.925,0.73625 2.19,0 2.87125,-2.07 2.25875,-3.6775 -0.0275,-0.085 -0.03,-0.16875 -0.0675,-0.2525 -0.2,-0.45375 -0.4325,-0.82 -0.6975,-1.1475 0.29,-0.56375 0.45,-1.20625 0.41125,-1.87875 -0.0575,-1.11125 -0.42125,-1.945 -1.2025,-2.73875 0.52625,0.535 0.0287,-0.1275 -0.055,-0.29875 -0.22125,-0.43875 -0.5475,-0.73125 -0.91875,-0.93 -0.18375,-1.195 -0.87,-2.34625 -2.0225,-2.93625 -0.72375,-1.4225 -2.26375,-2.2475 -3.95375,-2.2475 -2.2225,0 -3.9225,2.28375 -3.76125,4.375 0.16375,2.1525 1.85125,3.515 3.85375,3.71875 0.29,0.29125 0.6375,0.52875 1.0275,0.71125"
       style="fill:#eba134;fill-opacity:1;fill-rule:nonzero;stroke:none"
       id="path5308"
       inkscape:connector-curvature="0" />
    <path
       d="m 342.1616,562.36579 c -0.825,7.5 -1.29125,11.69125 -1.895,17.39375 0.36125,0.2275 0.7975,0.60125 1.32,0.60125 2.0925,0 2.57,-2.0475 1.73875,-3.46875 0.004,-0.004 0.0188,0.0425 0.0213,0.04 0.4275,-0.4675 0.75875,-1.02625 0.875,-1.66 0.18,-0.99625 0.24,-1.91875 0.2475,-2.93125 10e-4,-0.625 -0.43125,-1.1125 -0.97625,-1.35375 0.17375,-0.0362 0.345,-0.0287 0.51625,-0.09 1.21625,-0.42625 2.135,-1.4775 2.37375,-2.74875 0.1875,-0.99125 -0.11375,-2.33 -0.89,-3.09375 -0.0175,-0.0263 -0.0337,-0.0537 -0.0513,-0.08 -0.305,-0.50375 -0.73125,-1.3375 -1.215,-1.62 -0.5875,-0.3425 -1.2625,-0.98875 -1.9475,-0.98875 l -0.1175,0 z"
       style="fill:#eba134;fill-opacity:1;fill-rule:nonzero;stroke:none"
       id="path5316"
       inkscape:connector-curvature="0" />
    <path
       d="m 300.412,549.67959 c 1.76625,0.71875 3.44125,-0.4625 3.45625,-2.34375 0.001,-0.1675 -0.0275,-0.32375 -0.04,-0.4875 0.405,1.15375 0.2825,2.37625 0.002,3.7425 -0.615,2.9875 3.2275,4.03 4.76625,2.01 0.33375,0.4375 0.66,0.8775 1.01125,1.30125 1.36625,1.64875 3.7775,2.11875 5.3275,0.36 1.22,-1.385 1.0675,-3.53125 -0.29875,-4.75375 -2.0625,-1.84875 -4.06125,-3.74875 -6.06375,-5.6525 -0.5475,-0.8775 -1.31875,-1.635 -2.4425,-2.16 -0.78125,-0.36625 -1.48125,-0.31375 -2.0575,-0.0462 -0.12625,-0.355 -0.3075,-0.70375 -0.57125,-1.04 -1.32875,-1.695 -3.3275,-2.8675 -5.4175,-2.74625 -2.57,-0.63125 -5.54375,2.2275 -3.70625,5.10875 1.60875,2.52 3.115,5.5225 6.03375,6.7075"
       style="fill:#eba134;fill-opacity:1;fill-rule:nonzero;stroke:none"
       id="path5324"
       inkscape:connector-curvature="0" />
    <path
       d="m 316.5866,557.92239 c 2.4575,0 2.16125,-3.80125 -0.28375,-3.80125 -2.4575,0 -2.16125,3.80125 0.28375,3.80125"
       style="fill:#eba134;fill-opacity:1;fill-rule:nonzero;stroke:none"
       id="path5328"
       inkscape:connector-curvature="0" />
    <path
       d="m 308.8765,594.24379 c 0.01,0.14625 0.0525,0.27375 0.0738,0.41375 0.007,0.0462 0.0162,0.09 0.025,0.13375 0.465,2.4825 2.67625,3.9825 5.17125,3.9825 0.17875,0 0.34875,-0.0425 0.52375,-0.0675 0.005,0.009 0.009,0.0163 0.0125,0.0238 0.23875,2.33375 2.41,3.8425 4.56625,3.7225 0.0937,1.12625 0.90625,2.24625 2.35875,2.24625 0.46125,0 0.815,-0.135 1.11375,-0.32375 1.2875,-0.8025 1.14125,-2.9875 -0.23625,-3.8425 1.31875,-2.0475 0.6725,-4.9975 -1.67625,-6.1975 -0.11625,-0.0575 -0.19125,-0.095 -0.24,-0.115 -0.43,-0.29 -0.8775,-0.62 -1.35,-0.8475 -0.20875,-0.1 -0.415,-0.2075 -0.6225,-0.31375 -0.4225,-2.5425 -2.66,-4.085 -5.19,-4.085 -0.23625,0 -0.46,0.0462 -0.685,0.0875 -2.32625,0.4225 -4.02,2.88875 -3.845,5.1825"
       style="fill:#eba134;fill-opacity:1;fill-rule:nonzero;stroke:none"
       id="path5332"
       inkscape:connector-curvature="0" />
    <path
       d="m 349.0526,602.57019 c -0.23,0.71625 -0.33375,1.4875 -0.4425,2.275 -0.5725,0.0462 -1.05375,0.295 -1.52625,0.6475 -0.57625,0.0888 -0.8775,0.5675 -0.89,1.315 -0.004,0.23375 0.305,0.46625 0.305,0.6975 l 0,0.0488 c 0,0.77625 -0.56,1.54125 -0.65625,2.2975 -0.73875,0.3725 -1.53375,0.9425 -2.01,1.66625 -0.1075,0.1625 -0.20875,0.32375 -0.29625,0.48375 -0.0125,0.0237 -0.0337,0.0425 -0.0437,0.065 -0.32125,0.61875 -0.4925,1.2475 -0.45875,2.03124 0.0838,1.985 1.8325,3.0525 3.62125,3.115 0.33,0.0113 0.635,-0.0637 0.93625,-0.16875 0.355,-0.1 0.67,-0.24875 0.93125,-0.45 0.215,-0.13125 0.42625,-0.2675 0.63,-0.4025 0.65875,-0.435 1.1,-1.055 1.35625,-1.74125 0.2425,-0.2275 0.4575,-0.4825 0.58375,-0.78749 0.0788,-0.1875 0.1075,-0.3675 0.16625,-0.55375 0.0838,-0.0312 0.17625,-0.0512 0.2525,-0.09 0.2075,0.055 0.4125,0.11625 0.63625,0.15125 2.14375,0.3425 4.00125,-1.26625 4.28875,-3.17875 0.69875,-0.24875 1.27125,-0.68875 1.72,-1.2325 0.59125,-0.71625 0.94625,-1.6175 1.015,-2.53875 0.0763,-1.02 -0.1875,-2.05625 -0.87875,-2.875 1.345,-2.32125 0,-6.30625 -3.62375,-6.30625 -0.61375,0 -1.13875,0.12375 -1.5875,0.32375 -1.16375,0.52 -1.795,1.61125 -1.92625,2.8175 -0.35625,0.14 -0.66875,0.365 -0.9575,0.62375 -0.51375,0.4625 -0.92375,1.0675 -1.145,1.76625"
       style="fill:#eba134;fill-opacity:1;fill-rule:nonzero;stroke:none"
       id="path5336"
       inkscape:connector-curvature="0" />
    <path
       d="m 318.9415,610.47009 c 0.0475,-2.91875 -2.94,-5.99625 -5.945,-4.7325 -0.17875,0.0775 -0.32125,0.19 -0.48375,0.28375 -0.865,-0.85375 -2.05625,-1.425 -3.57375,-1.425 -0.0337,0 -0.06,0.009 -0.0937,0.0112 -6.31625,0.1025 -5.5225,9.92624 0.8425,9.92624 1.1775,0 2.11,-0.34 2.81625,-0.88749 0.78125,0.64874 1.8575,0.94374 2.86625,0.86499 0.32375,1.30625 1.3,2.47125 2.865,2.71625 0.19375,0.0312 0.395,0.0525 0.6075,0.0525 4.22125,0 3.9375,-6.19999 0.0987,-6.80999"
       style="fill:#eba134;fill-opacity:1;fill-rule:nonzero;stroke:none"
       id="path5340"
       inkscape:connector-curvature="0" />
    <path
       d="m 347.4816,526.36969 c 0.0838,0.3175 0.2125,0.6 0.37,0.85875 0.0138,0.0337 0.0188,0.0663 0.0312,0.1 0.6375,1.555 2.05125,2.62625 3.7875,2.4925 1.24,-0.0937 2.57,-0.885 3.0575,-2.0725 0.5625,-1.375 0.80625,-2.605 0.725,-4.005 0.12375,-0.025 0.245,-0.0425 0.37375,-0.0875 1.37875,-0.475 2.13625,-2.02125 1.65875,-3.4 -0.10125,-0.30125 -0.275,-0.5575 -0.4675,-0.79125 0.175,-0.2975 0.3925,-0.66375 0.455,-0.77 -0.375,0.64625 -0.29625,0.4075 -0.15875,0.2325 1.06125,-1.34125 1.0575,-3.26 -0.2775,-4.43625 -0.955,-0.8425 -2.7775,-1.16625 -3.82125,-0.25875 -1.53375,1.335 -2.51875,2.915 -1.81625,5.0225 0.002,0.006 0.006,0.01 0.01,0.0188 -0.1075,0 -0.20875,-0.0163 -0.3175,-0.009 -1.7375,0.135 -3.38875,1.4925 -3.64375,3.265 -0.13125,0.9125 -0.18,1.74625 -0.10375,2.57125 -0.009,0.43125 0.0288,0.86375 0.1375,1.26875"
       style="fill:#eba134;fill-opacity:1;fill-rule:nonzero;stroke:none"
       id="path5344"
       inkscape:connector-curvature="0" />
    <path
       d="m 347.4834,534.63929 c -0.16875,0.64 -0.3275,1.27875 -0.49125,1.89125 -0.3775,1.44625 1.845,2.61625 2.725,1.32875 0.63875,-0.93625 0.895,-1.79 1.035,-2.91 0.0725,-0.59 0.1475,-1.195 0.27125,-1.7875 0.1475,0.05 0.29875,0.0975 0.47625,0.0975 1.85375,0 1.63125,-2.8675 -0.215,-2.8675 -0.33125,0 -0.56875,0.11 -0.76875,0.25875 -0.5,-0.24375 -1.12875,-0.20625 -1.57125,0.3125 -0.10875,10e-4 -0.21625,0.005 -0.3225,0.005 -1.02375,0.0125 -2.1,1.15125 -1.8925,2.2025 0.0138,0.0712 0.0288,0.1425 0.0413,0.21625 0.105,0.52125 0.33875,0.95375 0.7125,1.2525"
       style="fill:#eba134;fill-opacity:1;fill-rule:nonzero;stroke:none"
       id="path5348"
       inkscape:connector-curvature="0" />
    <path
       d="m 348.5616,541.45759 c -1.0175,2.0275 -1.885,4.06625 -2.63,6.11875 1.06875,0.11 2.26625,-0.4775 2.785,-1.42625 0.0225,-0.0412 0.0275,-0.0937 0.0475,-0.135 1.98125,-0.48125 2.31125,-2.9275 1.2325,-4.43875 -0.205,-1.4325 -1.25875,-2.8 -3.1125,-2.8 -2.2,0 -3.0175,1.9075 -2.62,3.58625 -0.025,0.0412 -0.0625,0.0813 -0.0825,0.125 -0.61125,1.2975 -0.61375,2.42125 -0.0475,3.6675 0.865,-1.8475 1.83625,-3.65875 2.955,-5.41625 0.55125,-0.8675 1.9575,-0.24625 1.4725,0.71875"
       style="fill:#eba134;fill-opacity:1;fill-rule:nonzero;stroke:none"
       id="path5352"
       inkscape:connector-curvature="0" />
    <path
       d="m 301.3546,557.21869 c -0.7225,-1.6325 -1.39375,-3.31 -2.19,-4.9125 -0.0625,-0.13 -0.1225,-0.26125 -0.19,-0.39125 -0.3575,-0.69375 -0.7375,-1.37625 -1.17375,-2.02375 -0.0825,-0.12375 -0.18,-0.2575 -0.27,-0.3875 -1.18875,-1.7 -3.07375,-3.905 -5.205,-4.02875 -0.06,-0.11 -0.13125,-0.2125 -0.20625,-0.315 0.085,-1.21 -0.49,-2.68625 -1.39875,-3.3425 -1.5725,-1.13625 -3.88,-2.2825 -5.84625,-1.3425 -1.7525,0.84 -3.3075,2.81875 -2.38375,4.89 0.70875,1.5875 1.9225,2.80625 3.565,3.4475 0.835,0.32625 1.77125,0.445 2.655,0.31125 0.30375,0.195 0.655,0.3325 1.05375,0.395 -0.0275,0.74375 0.0437,1.51125 0.24875,2.19875 0.5975,2.01375 2.24375,4.18875 4.4875,4.42875 0.7175,0.0775 1.4125,-0.065 1.9975,-0.38 0.45375,0.9925 0.89875,1.99125 1.365,2.98 0.006,1.1925 0.80875,2.44875 2.34875,2.44875 0.8025,0 1.33875,-0.3475 1.66125,-0.83625 0.60125,-0.9175 0.40125,-2.35875 -0.51875,-3.14"
       style="fill:#eba134;fill-opacity:1;fill-rule:nonzero;stroke:none"
       id="path5356"
       inkscape:connector-curvature="0" />
    <path
       d="m 371.6982,569.23039 c 0.71,0.11125 1.4675,-0.0163 2.15625,-0.50125 1.72125,-1.205 2.4925,-3.0575 2.27375,-4.9125 -0.1075,-0.9025 -0.42625,-1.8075 -1.0225,-2.63875 -0.22375,-0.31375 -0.4925,-0.5875 -0.78125,-0.83625 -1.18,-1.02375 -2.825,-1.475 -4.35625,-0.89875 -0.1175,0.0425 -0.23,0.0888 -0.3425,0.13875 -1.58,0.675 -2.93625,2.215 -2.67625,4.06875 0.0188,0.10625 0.0312,0.215 0.0375,0.3225 0.11,1.2425 0.65375,2.1925 1.46375,2.8925 0.2425,0.21125 0.50625,0.40375 0.795,0.56875 0.495,0.96125 1.42625,1.63625 2.4525,1.79625"
       style="fill:#eba134;fill-opacity:1;fill-rule:nonzero;stroke:none"
       id="path5360"
       inkscape:connector-curvature="0" />
  </g>
</svg>
