<?xml version="1.0" encoding="utf-8"?>
<!-- Generator: Adobe Illustrator 19.0.1, SVG Export Plug-In . SVG Version: 6.00 Build 0)  -->
<svg version="1.1"
	 id="svg12478" xmlns:dc="http://purl.org/dc/elements/1.1/" xmlns:cc="http://creativecommons.org/ns#" xmlns:rdf="http://www.w3.org/1999/02/22-rdf-syntax-ns#" xmlns:svg="http://www.w3.org/2000/svg" xmlns:sodipodi="http://sodipodi.sourceforge.net/DTD/sodipodi-0.dtd" xmlns:inkscape="http://www.inkscape.org/namespaces/inkscape" inkscape:version="0.91 r" sodipodi:docname="res_back.svg"
	 xmlns="http://www.w3.org/2000/svg" xmlns:xlink="http://www.w3.org/1999/xlink" x="0px" y="0px" viewBox="174 -69.5 932 978.3"
	 style="enable-background:new 174 -69.5 932 978.3;" xml:space="preserve">
<style type="text/css">
	.st0{clip-path:url(#SVGID_2_);}
	.st1{fill:#90B4B7;}
	.st2{fill:#F2E6D0;}
	.st3{fill:#F6EEDD;}
	.st4{fill:#F8F1E4;}
</style>
<sodipodi:namedview  id="base" inkscape:cy="508.60909" inkscape:cx="1138.5024" inkscape:zoom="0.35" showgrid="false" borderopacity="1.0" pagecolor="#ffffff" bordercolor="#666666" inkscape:current-layer="layer1" inkscape:window-maximized="1" inkscape:window-y="24" inkscape:window-x="0" inkscape:window-width="1366" inkscape:pageshadow="2" inkscape:pageopacity="0.0" inkscape:window-height="744" fit-margin-bottom="0" inkscape:document-units="px" fit-margin-right="0" fit-margin-top="0" units="mm" fit-margin-left="0">
	</sodipodi:namedview>
<g id="layer1" transform="translate(763.50241,-46.610696)" inkscape:groupmode="layer" inkscape:label="Layer 1">
	<g id="g9268" transform="matrix(0.85248324,0,0,-1.2499995,-763.81186,3535.4118)">
		<g>
			<defs>
				<polygon id="SVGID_1_" points="199.8,2063.9 1796.3,2063.9 1796.3,2846.6 199.8,2846.6 199.8,2063.9 				"/>
			</defs>
			<clipPath id="SVGID_2_">
				<use xlink:href="#SVGID_1_"  style="overflow:visible;"/>
			</clipPath>
			<g id="g9270" class="st0">
				<path id="path9276" inkscape:connector-curvature="0" class="st1" d="M2018.1,2192.9H-20.1v680.2h2038.2V2192.9z"/>
				<path id="path9278" inkscape:connector-curvature="0" class="st2" d="M2017.4,2258H-18.5v-264.7h2035.9V2258z"/>
				<g id="g9280" transform="translate(823.8875,2051.322)">
					<path id="path9282" inkscape:connector-curvature="0" class="st3" d="M333.9,203.5c2.3-2.6,39.1-44.9,42.3-48.6h817.3v48.6
						H333.9 M-581.5,43.8c4.9-19.4,7.3-29.2,12.2-48.6c254.2,0,1211.7,0,1762.8,0v48.6C647.7,43.8-410.4,43.8-581.5,43.8 M326,203.5
						H-842.4v-48.6c403.5,0,807,0,1210.5,0C364.8,158.6,327.2,202.1,326,203.5 M-596,101.7h1789.5v48.6l-1801.7,0
						C-606.7,144.3-599.5,115.5-596,101.7 M426.5,97c0.6-0.7,41.7-47.9,42.3-48.6h724.7v48.6L426.5,97L426.5,97 M-842.4-9.4V-58
						H552.3c-1,1.2-36.4,42.1-42.1,48.6H-842.4 M561.5-58h632v48.6H519.2C520.4-10.7,553.4-48.7,561.5-58 M460.1,48.5
						c-1.5,1.8-31.3,36.1-42,48.5c-320.4,0-1160.8,0-1260.5,0V48.4L460.1,48.5L460.1,48.5 M-587.4,43.8h-255V-4.8h267
						C-578.1,6.4-585.5,36.1-587.4,43.8 M-601.7,101.7c-0.8,3.1-11,44.6-12,48.6c-76.2,0-152.4,0-228.6,0v-48.6
						C-790.9,101.7-607.3,101.7-601.7,101.7"/>
				</g>
				<g id="g9284" transform="translate(638.4734,1948.2996)">
					<path id="path9286" inkscape:connector-curvature="0" class="st4" d="M303.6,224.1c39-9.2,79.3-9,119.6-13.9
						c3.1-0.4,3.1,1.7,0,2.1c-33.3,4.6-68,5.5-100.4,12.1c7.3-0.3,14.5-0.6,21.8-1c3.6-0.2,2.9,2.1-0.7,2.3
						c-11.6,0.6-23.1,1.2-34.6,1.8c-0.3,0.1-0.6,0.2-0.9,0.2c-2.7,0.7-4.9,0.6-6.5,0.2c-120.4,6.3-242.9,13.9-362.5,0
						c-4.5-0.5-2.2-4.1,2.9-4.2c72.1-1.8,147.2-5.3,218.1,4.2c3.4,0.5,2.6,2,0.3,3.1c46.1-1.2,93-3.5,140-5.6
						C301.1,225,302.1,224.5,303.6,224.1 M-21.3,227.4c56.3,4.6,113.3,5.4,170,4C92.5,226,35.4,225.8-21.3,227.4 M838.2,251.9
						c14.5,0.2,28.5,0.7,42.3,1.5h-122C785.4,252.4,812.4,251.5,838.2,251.9 M603,248.4c-3.5,0.3-3.5-1.8,0.1-2.1
						c36.6-3.2,74.2-3,111.5-2.8c15,0.1,30,0.2,44.9,0c60.4-0.6,121.4-0.7,181.5,1.6c6.4,0.2-0.4,4.8-6.8,4.5
						c-56.9-2.9-113.4-3.9-170.6-2.9c-19.2,0.3-38.5,0.1-57.8-0.2C671.2,246,636.7,245.6,603,248.4 M586.7,229.1l-0.1,0.1
						L586.7,229.1 M591.8,225.5c0.8-0.1,1.6-0.2,2.4-0.2h0c64.8-6.2,142.5-16.6,200.7,1.2c3.5,1.1-0.5,4.2-6.4,4.6
						c-58.1,3.3-117.7,3-177.2-0.8c-4-0.2-1.5-2.6,2.3-3.1c-7.5,0.6-15,1.1-22.4,1.6c-0.8,0.1-1.7,0.1-2.5,0.2c-0.7,0-1.3,0.1-2,0.1
						l0.2-0.3c-9.3-0.5-25.3-1.1-32-1.7c2.8,0.5,1.3,2.9-3.1,3.1c-59.4,2.9-119.3,5.4-178.6,0.8c-5.2-0.4-4-3.6,1.5-4.6
						c69.6-12.2,140-8.9,215.2-1.1l-0.3,0.4h0C590.3,225.7,591.1,225.6,591.8,225.5 M615.5,227c52.2,2,106.2,4,159.2,0.6
						c-53.3-9.7-106.2-4.3-160.1-0.6C614.9,227.1,615.2,227,615.5,227 M393,227.7c53.3,3.5,107.7,1.3,160.2-0.6c0.3,0,0.6,0,0.9,0.1
						C500.7,221.3,446,219.3,393,227.7 M664.6,139.6c0.7,0.1,1.4,0.1,2,0.2c0.7,0.1,1.4,0.1,2.1,0.2c28.9,2.7,58.1,5.3,88.2,6.9H551
						c33-1.6,78.6-4.2,113.3-6.9L664.6,139.6 M721.2,74.6c-0.5,0.6-1,1.1-1.4,1.6c1.1-1.3,2.3-2.6,3.4-3.9
						c78.3,4.6,156.9,3.4,235.1,1.6c83.8-1.9,168.3-4.1,252.1-5.1c56-0.7,112.3-1.1,168.6-1.7v5.2c-65.7,0.4-131.7,0.4-196.8,0.9
						C1029.2,74.5,874.9,81.9,721.2,74.6 M430.2,153.1c-44.1,0.3-88.9,1.6-132.2,0.7c-32.3-0.7-64.4-1.8-97.3-1.8
						c-38.6,0.1-76.6,2.4-113.9,0.1c-3.6-0.2-7.2-0.5-10.8-0.7h569.7l-0.1,0.1C573.7,152.3,501.9,152.6,430.2,153.1 M1312,257.9
						h66.9v3.6c-10-0.3-19.9-0.7-29.8-1.2C1337,259.7,1324.6,258.7,1312,257.9 M1171.9,213c-30.5-0.5-59.9-1.9-90.8-2.1
						c-11.2-0.1-22.8,0.2-34.2,0.5c-17.6,0.4-35.2,0.8-51.6,0c-29.8-1.5-55.4-5.4-89-4c-4.1,0.2-2.3-2.3,1.7-2.7h36.8
						c13.7,0.6,26.8,1.6,40.2,2.6c31.1,2.3,65.8,0,99.6-0.1c28.8-0.1,56.2,1.1,84,1.8c37.2,0.9,77.3-0.4,116-0.7
						c31.4-0.2,63-0.4,94.5-0.6v4.2c-36,0.2-72,0.3-107.8,0.5C1238.1,212.6,1204.1,213.5,1171.9,213 M1301.9,152.2
						c1.6,0.1,3.2-0.3,4.4-0.7h67.7c-34.3,2.4-69.1,5.7-102.7,7.8c-51.4,3.2-103.6,3.2-155.1,2.3c-44.2-0.8-88.6-1.9-134-1.4
						c-51.5,0.5-103.9,2.8-155.3,2.8c-13.9,0-27.9,0-41.8,0c-46.9,0-94.2-0.1-141.3,0.7c-1,1.2-1.8,2.1-2.6,3
						c2.9-3.3,5.9-6.8,9.3-10.7c0.4,0,0.7,0,1.1,0c73.2,1.2,147.2,0.8,220.6,1.2c37.3,0.2,73.9,1.1,112,0.6
						c36.1-0.5,73.1-1.9,109-2.1c13.1-0.1,25.6,0.2,38.1,0.5c19.1,0.4,38.2,0.8,59,0C1227.9,154.7,1267,150.7,1301.9,152.2
						 M1054.5,144.2c37.5-2.3,68.3,0,103.2,0.1c29.7,0.1,61-1.1,91.6-1.8c40.9-0.9,79.5,0.4,118.9,0.7c3.6,0,7.2,0.1,10.9,0.1v3.6
						h-372C1022.4,146.3,1038.4,145.2,1054.5,144.2 M676.6,125.8c0.5-0.6,0.9-1,1.3-1.5C677.5,124.8,677,125.3,676.6,125.8
						 M1159.3,241.8c-3.7,0.1-1.3-2.2,2.5-2.4c64-3.2,142.9-13.2,217.1-14.3v6.6C1304.6,231.1,1226.8,239.7,1159.3,241.8
						 M1202.4,246.7c-3.8,0-2.4-2.1,2.1-2.8c16.3-2.7,32.7-3,47.5-3.6c26.1-1.1,51.5-1.5,76.6-1.7c17-0.2,33.8-0.2,50.3,0.1v3.5
						c-17.4-0.5-35.3-0.7-53.3-0.8c-23.2-0.1-47.2,0.3-71.6,1.2c-7.8,0.3-16.1,0.6-24.5,1.1c49.9,0,99.8,1.5,149.5,4v5.6h-12.7
						C1311.7,250.1,1257,247.2,1202.4,246.7 M1149,243.7c-52.3,5.1-105.6,7.2-158.4,5.4c-27.4-1-48.8-5.8-72.8-9.1
						c-28-3.8-59.6-5.4-94.8-3.5c-3.7,0.2-1.8-2.1,1.8-2.3c27.5-1.7,52.2-1.3,76,0.5c26.9,2,50.1,6.8,78,7.7
						c57.4,2,115.3-0.2,172.8-2.3C1156.5,239.9,1154.5,243.2,1149,243.7 M1287.5,253.3h-286.9c95.1-2.3,189.7-1.3,284.8-0.3
						C1286.4,253,1287,253.1,1287.5,253.3 M-644.3,62.3c115.7-5.3,234.8-4.7,350.7-7c53.7-1.1,108.4-5.3,162.1-8.1
						c19.1-1,37.3,0.4,55.5,1.8c19.1,1.5,38.3,2.9,58.4,1.6c3.6-0.2,4,1.8,0.4,2.1c-21.6,1.7-42.7,0.4-63.8-1
						c-14.5-0.9-29-1.8-43.6-1.8c-24.6,0.1-51.5,3.2-75.8,5.1c-27.4,2.1-54.8,3.8-82.1,4.7c-119.8,3.7-241.1,4.1-361.4,5.4
						C-649,65.1-649.4,62.5-644.3,62.3 M-559.2,153.8c-13.9-0.6-28.3-1.6-42.7-2.4h328.1c-27.1,1.7-54.1,3.7-80.8,5.8
						c-1.1-0.2-2.3-0.3-3.8-0.3C-425.3,157.1-493,156.6-559.2,153.8 M738.3,186.1c26.8-0.1,53.3,0.3,78.9,1.2
						c8.1,0.3,17,0.6,25.3,1.1c-63.4,0.5-126.7,2-189.8,4.3c-12,0.5-23.9,0.9-35.4,1.1c-1.6,1.8-2.5,2.9-3.8,4.4
						c2.9-3.3,5.5-6.3,8-9.2c10.7-0.8,21.6-1.1,31.5-1.5C681.8,186.6,710.2,186.3,738.3,186.1 M1270.3,196.6
						c-25.2,0.2-51.7,1.3-78.1,2.7c-7.1,0.4-14,0.6-20.8,0.8h-37.6c-11.3-0.2-22.6-0.8-33.5-1.2c-113.7-4.4-230.1-1.9-344.9-1.1
						c-3.8,0-7.1,1.1-8.5,2.3h-135l0,0c5.4-0.1,10.8-0.3,16.3-0.5c79-3.2,159-7.1,237.6-8c4.4,0,7.9-2.1,4.6-2.8
						c-12-2.7-30.1-3-45.5-3.6c-27.2-1.1-55.3-1.5-83.5-1.7c-26.9-0.2-54.2-0.1-81.9,0.5c-10.9,0.3-22.8,0.5-34.7,1.2
						c-0.8,0.9-1.4,1.5-1.9,2.2c3.3-3.8,6.4-7.3,9.4-10.8c-0.8,1-1.7,1.9-2.8,3.2c100-2.4,198.6,4.1,297.8,6.8
						c4,0.1,7.1-2.2,3.2-2.4c-98.6-4.6-196-12-295.6-10.5c1.1-1.3,2.3-2.6,3.5-4c63.9-1.2,127.8-1.3,191.6-1.2
						c47.4,0.1,96.7-2.3,144.8-2.9c48.9-0.6,95.7,0.8,143,1.5c41.7,0.6,84.7,0.8,128.9-1.3c43.8-2.1,89-6.7,132.2-9.2v3.4
						c-25.3,1.8-50.7,4-77,8.9c-1.9,0.4-3.3,0.8-4.1,1.3c-54.2,2.2-108.5,4.3-162.8,5.6c3.2-1,4.8-2.6,1.2-3.1
						c-80.4-9.9-165.2-5.8-247.6-4.1c-5.8,0.1-10.1,3.7-5.3,4.2c135.6,12.8,275.5,6.2,414.9,0c1.5,0.5,4.1,0.6,7.5-0.2
						c0.4-0.1,0.7-0.2,1.1-0.2c13.5-0.6,27-1.2,40.5-1.8c4.3-0.2,6.1-2.5,1.9-2.3c-8.4,0.3-16.9,0.6-25.4,1
						c18.4-3,36.7-4.8,55.1-6.4v9.1c-4.3,1.3-5.1,3.5-0.5,3.8l0.5,0v4.3c-4,0-8.1-0.1-12.1-0.1c-4.8-0.1-8.9,2.6-4.4,2.8
						c5.5,0.3,11,0.6,16.5,0.8v4.6c-69.5-0.5-139.9-0.5-209.4,1.6c-8,0.2-11.3,4.8-3.3,4.5c67.7-2.5,135.1-3.6,202.6-3
						c3.4,0,6.7,0,10.1,0.1v7.3C1342.7,197.8,1306.2,196.4,1270.3,196.6 M1208.4,184.8c41.5-3.8,81.6-5.4,117.2-3.5
						c3.7,0.2,7.1-2.1,3.5-2.3c-27.4-1.7-56.5-1.3-88.2,0.5c-35.7,2-74,7-108.2,7.7c-63.5,1.4-128-0.1-192.2-2.3
						c-5.2-0.2-11,3.1-6,3.6c56,5.8,112.3,6.5,168.1,5.4C1136.1,193.2,1172.8,188.1,1208.4,184.8 M1006.7,228
						c73.6-7.1,149.4-6.2,225.3-4.2c4.8,0.1,0.9,3.7-4.4,4.2c-120,10.5-240.2,7.6-362.5,0c-2.3,0.5-4.8,0.6-6.2-0.2l-0.5-0.2
						c-10.5-0.6-21-1.2-31.5-1.8c-3.3-0.2,0-2.5,3.3-2.3c6.7,0.3,13.4,0.6,20.1,1c-20.9-6.6-54.1-7.5-79.4-12.1
						c-2.4-0.4,1.2-2.5,3.7-2.1c31.9,4.9,72.4,4.7,95.5,13.9c0.9,0.4,1.1,0.8,0.7,1.3c43.3,2.2,86.2,4.4,130.2,5.6
						C1000.5,230,1002.5,228.4,1006.7,228 M1189.4,227.4c-59.7-1.6-117.5,0.3-176.9,4C1072,232.9,1130.2,230.7,1189.4,227.4
						 M215.5,120.2c-62.6,3.8-122.9,4.7-185.8,4C92.1,120.8,152.9,119.6,215.5,120.2 M1317.5,124.2c-60,0.7-119.3,1.6-178.9-4
						C1198.7,119.6,1257.8,119.4,1317.5,124.2 M876.9,123.9c-59.5,5.4-111.7,6.6-171.4,0.6c0.3,0,0.6,0.1,0.9,0
						C763.2,122.5,819.9,120.4,876.9,123.9 M640.2,124.5c0.3,0,0.7,0,1,0c-57.5,3.7-113.5,8.9-170.4-0.6
						C527.2,120.5,584,122.1,640.2,124.5 M1141.3,129.2c-38.5-0.6-78-0.6-119,1.3c-44.2,2.1-90.2,7.3-134.3,10
						c-71.3,4.4-142.9-0.3-213.5-7.2l0,0c-0.7-0.1-1.4-0.1-2.2-0.2c-0.6-0.1-1.3-0.1-1.9-0.2l-0.3,0.4c-79.5,5.9-160,12.3-239.2,7.2
						c-39-2.5-76.4-7.9-116.9-10c-37.6-1.9-77.2-2-116.7-1.3c-44.9,0.7-90.2,2.1-134.3,1.5c-43.4-0.6-85.8-3-129.6-2.9
						c-89,0.2-178.5,0.9-264.7-7.4c-6.5-0.6-11.6,4.1-5.2,4.8c83.7,9.8,171.9,8.4,259.4,8.1c46.8-0.1,92,2.4,138.6,2.8
						c41.3,0.3,83.2-0.7,125.1-1.4c46.9-0.7,94.8-1.3,138.3,2.3c35,2.9,68.2,7.4,103.5,9.8c-29.7,0-59.4,0-89,0
						c3.9-0.4,4.9-2.8,0.6-2.7c-34.2,1.4-62.6-2.6-94.5-4c-17.6-0.8-35.7-0.4-53.9,0c-11.9,0.3-23.7,0.5-35.5,0.5
						c-32.4-0.2-64-1.6-96.3-2.1c-34-0.5-68.8,0.4-103.2,0.6c-67.5,0.4-136,0.1-202.8,1.2c-48.5,0.8-98.4,0.4-146.7-5.3
						c-0.5,2-0.7,3-1.2,5c41.5,5,85.7,5.6,130.7,4.9c69.7-1,139.9-1.3,209.8-1.8c40-0.3,80.7-1.6,120-0.7
						c29.4,0.7,58.6,1.9,88.5,1.8c35-0.1,69.9-2.4,103.4-0.1c14.3,1,28.4,2.1,42.9,2.7c-232.3,0-464.7,0-697,0
						c4.9-19.4,7.3-29.2,12.2-48.6c363,0,726,0,1089,0h207.1c27.7,0.9,55.3,1.8,84.4,1.5c16.2-0.2,32.8-0.7,49.6-1.5h131.8
						c67,1.7,134.1,1.6,201,1.1v5.8c-2.7,0.6-4.4,1.9-2.2,2.5c0.7,0.2,1.5,0.3,2.2,0.5v3.6c-18.7-0.7-37.6-1.4-56.6-2
						c-3.8-0.1-7.2,2.2-3.6,2.4c20.2,1,40.3,2.1,60.2,3.1v12.8c-35,0.6-71,2.1-105.8,2.6C1227.8,131.3,1184.9,129.9,1141.3,129.2
						 M676.3,126.2l0.3-0.4c0.7,0.1,1.3,0.1,2,0.2c0.7,0.1,1.4,0.1,2.1,0.2c75.7,7.6,144.1,10.3,215.3-1.1c6.2-1,7.9-4.2,2.5-4.5
						c-62.6-3.7-126.8-2.2-190.7,0.8c-4.7,0.2-6.3,2.6-3.2,3.1c-7-0.6-13.9-1.1-20.9-1.6h0c-0.8-0.1-1.5-0.1-2.3-0.2
						c-0.6-0.1-1.3-0.1-1.9-0.1l-0.2,0.3c-10.9,0.5-28.9,1.1-37.1,1.7c3.9-0.5,6.4-2.9,2.1-3.1c-63.4-3.2-126.8-4.1-189.4-0.8
						c-6.1,0.3-9.5,3.5-5.4,4.5C518.1,143,601.8,132,676.3,126.2 M-12.5,127.7c79.4,1.9,159.2,3.3,236.1-4.1c4.2-0.4,5.4-2,4.1-3.1
						c47.7,1.2,94.7,3.5,141.5,5.6c-0.1,0.5,0.2,1,1.3,1.3c28.2,9.2,70.5,9,105,13.9c2.7,0.4,5.9-1.7,3.3-2.1
						c-27.7-4.6-62.7-5.5-87.4-12.1c7.2,0.3,14.5,0.6,21.7,0.9c3.6,0.2,6.2-2.1,2.7-2.3c-11.4-0.6-22.8-1.2-34.2-1.8l-0.6-0.2
						c-1.8-0.7-4.4-0.6-6.6-0.2c-130.1-6.8-258.7-11.3-385.8,0C-16.6,124-17.7,127.6-12.5,127.7 M-391.4,128.4
						c-0.5,1.9-0.7,2.9-1.2,4.8c31.9-0.8,63.6,0,94,2.7c7,0.6,10.3-3.9,3.4-4.5C-326.3,128.5-358.7,127.6-391.4,128.4 M-313.3,98.2
						c-11.3,1-22.6,2.4-33.9,4.3c-7.1,1.2-8.1,4.6-2.3,6c125.1,29.8,269.3,9.5,398.8,3.6c4-0.2,4.6-2.5,0.6-2.4
						c-121.8,3.8-255,19.6-375.3-3.6c41.2-5.1,81.7-4.5,123.1-2.6c58,2.6,116.3,4.3,174.6,4.4c-8.7,0.6-17.4,0.8-25.5,1.1
						c-25.6,0.9-51.1,1.4-76.3,1.2c-26.4-0.1-52.8-0.4-78.7-1.5c-14.1-0.6-30.7-0.9-42.9-3.6c-5.4-1.2-10.9,2.5-5.5,3.6
						c14.4,3,33.7,3.2,50.2,3.7c25.3,0.7,50.8,0.8,76.5,0.5c26.9-0.3,53.8-0.6,81-1.7c15.4-0.6,32.8-0.9,48.1-3.6
						c4.2-0.7,3.9-2.8-0.3-2.8c-61.5-0.8-123.7-3.6-185.7-6.6L-313.3,98.2 M-100.4,98.2c0.7,0.2,1.5,0.3,2.6,0.3
						c103.7,0.6,208,2.3,312.2-0.3C109.4,98.2,4.5,98.2-100.4,98.2 M59.6,107.8c-5.5,0.5-5,3.8,0.2,3.6
						c61.9-2.1,124.2-3.7,185.2-2.3c30.5,0.7,58.4,5.7,88.2,7.7c26.4,1.8,52.8,2.2,81.7,0.5c3.8-0.2,5-2.5,1.1-2.3
						c-37,1.9-71.6,0.3-103.7-3.6c-27.7-3.3-53.7-8.1-84.3-9.1C171.9,100.7,115.3,102.5,59.6,107.8 M346.1,98.2
						c15.5,0.7,31.1,1.3,47,1.5c28.5,0.3,57.7-0.6,86.9-1.5H346.1 M651.3,103.2c-35.7,2.2-73,2-110.4,1.7c-21.4-0.1-42.9-0.3-64.1,0
						c-62.9,0.9-124.6-0.4-187.3-2.9c-7.1-0.3-11.9,4.2-4.8,4.5c65.5,2.3,131.9,2.1,197.7,1.6c16.1-0.1,32.3,0,48.6,0
						c40.4,0.2,81,0.5,120.6-2.8C655.3,105,655,103,651.3,103.2 M453.7,113.5c-4.7,0.2-6,2.9-1.4,2.8c78.2-1,156.6-1.5,234.8-2.7
						c1.7-1.9,3.4-3.9,5.1-5.9C612.6,108.6,532.4,109.5,453.7,113.5 M696.9,107.7c-0.7,0-1.4,0-2,0c-0.8,0-1.6,0-2.5,0l0,0.1
						c-2,2.3-3.1,3.5-5.1,5.8c0.7,0,1.4,0,2.1,0c0.8,0,1.6,0,2.4,0c72.3,1.4,144.6,1.8,216.8,2.7c4.5,0.1,7.7-2.6,3.5-2.8
						C840.7,109.1,768.6,108.4,696.9,107.7 M1096.2,102c-64.4,2.5-127.9,3.9-192.4,2.9c-20.3-0.3-40.8,0-61.2,0.3
						c-37.3,0.5-74.4,1-110.3-2c-3.2-0.3-7.1,1.8-3.9,2.1c37.8,3.5,77.2,3.2,116.4,2.9c16.1-0.1,32.2-0.3,48.1-0.1
						c66.6,0.6,133.9,0.6,200.4-1.6C1100.9,106.3,1103.8,101.7,1096.2,102 M1316,107.8c-52.3-5.8-106.1-7.1-159.1-5.4
						c-32.3,1-66.7,5.8-100.1,9.1c-38.9,3.8-76.1,5.5-109.9,3.6c-3.5-0.2-6.3,2.1-2.9,2.3c26,1.7,53.1,1.3,82.6-0.5
						c33.3-2,69.2-7,101.6-7.7c59.9-1.4,120.8,0,181.3,2.3C1314.3,111.6,1320.6,108.4,1316,107.8 M1359.8,123.5
						c-126.2-14.9-258.1-6.1-385.9,0c-1.5-0.5-3.9-0.6-6.9,0.2c-0.3,0.1-0.7,0.2-1,0.2c-12.5,0.6-24.9,1.2-37.3,1.8
						c-3.9,0.2-5.2,2.5-1.3,2.3c7.8-0.3,15.5-0.6,23.3-0.9c-36.2,6.6-72.7,7.5-108.4,12.1c-3.3,0.4-3.7,2.5-0.4,2.1
						c43-4.9,84.9-4.7,129.1-13.9c1.7-0.4,2.9-0.8,3.6-1.3c50.4-2.2,100.8-4.3,151.2-5.6c-3,1-4.6,2.6-1.2,3.1
						c74.2,9.9,152.8,5.7,228.9,4.1C1359,127.6,1364.1,124,1359.8,123.5 M364.6,253.3h-122c15-0.7,30-1.3,44.8-1.5
						C313.8,251.5,339.2,252.4,364.6,253.3 M-304.3,69.1c3.9,0.1,2.9,2.5-1,2.5c-38.5-0.2-78.1,2.8-117.8,5.7
						c-73.5,5.5-147.7,11-217.4-3.5c-5.7-1.2-4.1-4.1,2.7-4.5c71.8-4.4,144.5-2.8,216.4,0.8c5.1,0.3,3.9,2.6-0.1,3.1
						C-381.9,70.6-342.1,68.2-304.3,69.1 M-423.4,73.3l-0.2,0c-65.1-1.9-128.4-2.7-193.6-0.6C-552.6,78.3-434.1,73.7-423.4,73.3
						c0.4,0,0.9,0,0.9,0S-422.9,73.2-423.4,73.3 M1163.1,220.8c-41.4-0.6-85.3,0.8-128.2,1.5c-37.8,0.6-75,0.6-109.8-1.3
						c-37.4-2.1-71.1-7.4-107.7-10c-71.6-5-145.3,0.8-217,7.2c-0.8,0.1-1.6,0.1-2.4,0.2c-0.7,0.1-1.5,0.1-2.2,0.2l0.3-0.4
						c-71.7-7.2-145-11.7-217.1-7.2c-41.5,2.6-84,7.9-125.1,10c-38.1,1.9-75.4,2-112.1,1.3c-41.6-0.7-83.1-2.1-125.6-1.5
						c-41.8,0.6-83.9,3-125.3,2.9c-85.5-0.2-171.3-0.6-254,7.4c-6.5,0.6-8.7-4.1-2.2-4.8c81.2-9.4,166.3-8.4,251.1-8.1
						c44.4,0.2,89.8-2.4,134.6-2.8c39.8-0.3,78.6,0.7,117.7,1.4c43.8,0.8,88.5,1.3,134.6-2.3c37.2-2.9,75.4-7.4,112.9-9.8h118.7
						c29.3,1.6,69,4.2,97.7,6.9l-0.3,0.4h0c0.8-0.1,1.5-0.1,2.3-0.2c0.8-0.1,1.5-0.1,2.3-0.2h0c32.3-2.7,65-5.3,97-6.9h118.7
						c33.4,2.4,63.7,6.9,95.9,9.8c40,3.5,85.6,3,130.7,2.3c40.3-0.7,80.9-1.7,120.1-1.4c44.1,0.4,85.2,3,129.7,2.8
						c26.5-0.1,53.6-0.6,80.7-0.8v5.9c-31.9-0.1-63.9,0.4-95.5,0.4C1242,223.8,1203.8,221.4,1163.1,220.8 M1263.8,88.4
						c-35.6-0.4-71.7-0.2-107.7,0.1c-25.3,0.2-50.6,0.3-75.6,0.2c-6,0-4.7-2.3-0.4-3.7c-85,1.3-170.2,2-254.6,0.1
						c-36.3-0.8-74.4-1.2-111.8-1.8c1-1.1,2-2.3,2.9-3.3c41.8,0.3,84.4,0.3,124.9,0.9c100,1.5,201.5-0.5,301.6-1.9
						c78.3-1.1,157.1-0.7,235.9-0.5V83c-87.6,0.2-206.2,0.6-223.3,0.6c12.7,0,80.1-0.2,114.3,0.6c36,0.8,72.6,4.2,109.1,6v3.4h-7.7
						C1335.3,92.1,1301,88.8,1263.8,88.4 M655.9,266.4c-34.5,1-68.8,1.2-103.3,1.8c2.8-3.2,5.7-6.6,9-10.3h604.2
						c-36.3,1.6-74.1,4.7-109.2,5.2c-31.9,0.5-64,0.2-96.1,0c-22.9-0.2-45.7-0.4-68.4-0.3c-5.5,0-8.9,2.3-7.9,3.7
						C808.1,264.8,731.9,264.3,655.9,266.4 M-323.1,215.7c7-0.6,7.4,3.9,0.5,4.5c-31.2,2.8-62.1,3.7-92.7,3
						c1.3-5.2,2.7-10.7,4.3-17.3c-0.5,2-0.8,3.3-1.4,5.6c42.2-4.9,85.5-5.6,128.4-4.9c66.6,1,133.9,1.2,200.6,1.8
						c38.1,0.3,76,1.6,114.8,0.7c29-0.7,58.3-1.8,87-1.8c33.6,0.1,64.3,2.4,99.4,0.1c15.1-1,30-2.1,44.8-2.6h36.9
						c3.2,0.4,0.9,2.8-2.9,2.7c-31.1-1.4-63.6,2.5-95.9,4c-17.8,0.8-34.7,0.4-51.6,0c-11-0.3-22.1-0.5-33.4-0.5
						c-31.3,0.2-63.1,1.5-94.4,2.1c-33.1,0.5-65.5-0.4-98.2-0.6c-64.3-0.4-129.3-0.3-193.3-1.2c-48.1-0.7-96.1-0.6-143.2,5.3
						c-0.2,0.8-0.3,1.2-0.5,2C-384.1,219.3-353.7,218.4-323.1,215.7 M196.5,245c61.1-2.2,122.9-2.1,184.2-1.6
						c14.6,0.1,29.4,0,44.3-0.1c36.1-0.3,72.6-0.6,107.3,2.9c2.9,0.3-0.7,2.4-3.6,2.1c-31.2-2.9-63.9-2.4-96.5-1.9
						c-20.5,0.3-41,0.6-61,0.1c-58-1.5-117.2,0.5-175.7,3C188.6,249.8,189.6,245.3,196.5,245 M723.1,72.3c0.5-0.6,0.9-1,1.3-1.4
						C724,71.4,723.6,71.8,723.1,72.3 M-548.5,112.2c29.2-0.1,58.6-0.4,88-1.5c16-0.6,34.5-0.9,49.6-3.6c6.7-1.2,10.6,2.5,3.9,3.6
						c-17.7,3-39.2,3.2-57.7,3.7c-28.4,0.7-56.6,0.8-84.9,0.5c-29.5-0.2-59.1-0.6-88.5-1.7c-6.1-0.2-12.4-0.4-18.8-0.7V110
						c8.4,0.5,16.9,0.7,24.9,1C-604.4,111.9-576.4,112.3-548.5,112.2 M-419.6,217.8c-0.8,3.2-1.5,6.1-2.2,9.1
						c-47-3.1-95.5-2.8-144.4-4.2c-30.2-0.9-60.5-2.6-90.8-4.2v-4.4c1,0.6,2.7,1,5.1,1C-574.5,214.1-496.9,215.5-419.6,217.8
						 M-459.4,211.8c-64.6-1.7-129.3-2.8-193.2-1.5c-2,0-3.5,0.4-4.4,0.9v-3.7C-591,204.7-524.3,202.8-459.4,211.8 M-139.2,172.4
						c-61.5,2.1-121.4,1.5-182.6-0.6c-0.4,0-0.7,0-1,0C-260.8,168-200.8,163.2-139.2,172.4 M-394.4,116.2c1-4.1,1.6-6.4,2.5-10.1
						c-1.8,7.3-3.3,13.3-4.9,19.6c0.2-1,0.5-1.9,0.8-3.1c-86.9,6.2-174.2,1.2-261-3.8V115C-569.6,118.9-481.7,123.1-394.4,116.2
						 M-392.4,162.8c-0.6,1.8,2.1,3.6,8.2,3.2c93-7.3,188.4-15.8,282-10.2c44,2.6,86.1,7.9,130.5,10c41.2,1.9,83.8,2,126.6,1.3
						c48.6-0.7,97.8-2.1,145.6-1.5c47,0.6,92.4,3,139.8,2.9c63.2-0.1,126.3-0.1,189.5,1.2c-8.2,9.5-15.5,18-26.3,30.4
						c-320.4,0-640.8,0-961.2,0c133.9,0,267.8,0,401.7,0c-6.5-0.2-13-0.4-19.5-0.8c-24-1.4-48.7-2.5-73.5-2.7
						c-52.6-0.3-106.5,2.5-158.8,2.9c-58.4,0.4-117.7,0-177.1-0.5c-55.1-0.4-110.2-0.8-164.9-0.5c-17.6,0.1-35.4,0-53.1-0.2
						c-18.1-0.1-36.2-0.3-54.3-0.2v-3.2c21.6,1.5,43.2,4.1,65.1,2.9c49.1-2.7,99.1-7,148.2-8.1c107.9-2.3,218.9-1.8,326.7-7
						c4.9-0.2,5.4-2.9,0.5-2.8c-112.6,1.2-225.9,1.7-337.8,5.4c-25.3,0.9-50.6,2.6-75.6,4.7c-22.3,1.9-46.4,4.9-69,5.1
						c-19.1,0.1-38.7-1.8-58.1-2.9v-3.5c26.3,0.3,52.7,0.3,78.2,2.4c6.2,0.5,8-3,2.2-3.6c-25.4-3-53.1-3.6-80.5-4v-3.6
						c71.8,1.7,144.6,3,215.6,0.1c4.7-0.2,4.7-2.8-0.1-2.8c-71.2,0.7-143.7-1.3-215.5-2.9v-8.1c69,0.6,137.8,2.3,205.6,6.8
						c3.8,0.3,5.5-2.1,1.6-2.3c-68.6-4.1-138-6.8-207.2-8v-10.3c40.3,0.9,80.5,4.1,120,6.1C-490.3,161-440.7,162.1-392.4,162.8
						 M626.4,173.7c-105.3-1.6-209.7,5.9-313.9,10.5c-4.2,0.2-5.2,2.5-1,2.4c102.6-2.9,205.9-9.4,309.6-6.8
						C623.2,177.4,624.3,176.1,626.4,173.7 M603.6,200.1c2.1-2.4,3.2-3.6,5.3-6.1c-11.2-0.2-22.4-0.7-33.5-1.1
						c-60.6-2.5-121.3-3.8-182.2-4.3c9.3-0.6,18.6-0.8,27.2-1.1c27.3-0.9,54.5-1.4,81.1-1.2c27.9,0.1,55.8,0.4,82.6,1.5
						c9.3,0.4,19.7,0.7,29,1.5c1.4-1.6,2.1-2.4,3.4-4c-10.5-0.8-22.1-1-32.6-1.2c-26.5-0.7-53.6-0.8-81-0.5
						c-28.6,0.3-57.4,0.6-86.5,1.7c-16.5,0.6-35.1,0.9-51.7,3.6c-4.6,0.7-4.7,2.8-0.3,2.8c74.6,0.5,149.5,4.7,223.8,8
						C593.3,199.7,598.4,199.9,603.6,200.1 M468.6,200.1c0.6-1.1-0.8-2.2-4.5-2.3c-115.4-0.8-232.3-3-346.8,1.1
						c-11.9,0.4-23.8,0.9-35.6,1.2L468.6,200.1 M301.3,184.9c-65.5,2.1-131.5,3.7-196.2,2.3c-32.4-0.7-62.6-5.7-94.8-7.7
						c-28.5-1.8-57-2.2-87.3-0.5c-4,0.2-4.5,2.5-0.4,2.3c38.9-1.9,76.3-0.3,111.1,3.5c29.9,3.3,57.8,8.1,90,9.1
						c59.8,1.8,119.1-0.7,177.5-5.4C306.9,188.1,306.9,184.7,301.3,184.9 M-145.2,188.3c-15.6,0.1-31.4,0.1-47.1,0
						c-43.8-0.1-88-0.2-129.9,2.7c-3.8,0.3-2.2,2.4,1.4,2.1c39-2.5,80.2-2.2,121.4-1.9c20.5,0.1,41,0.3,61.2,0.1
						c65.9-0.6,131.4,0.4,197.5,3c7.5,0.3,12-4.2,4.5-4.5C-5.6,187.6-75.8,187.8-145.2,188.3 M-54.8,169.2c-7.9-0.3-15.8-0.6-23.7-1
						c-3.9-0.2-6,2.1-2.1,2.3c12.5,0.6,24.9,1.2,37.4,1.8l0.7,0.2c2.1,0.7,4.9,0.6,7.2,0.2c139.7,6.8,277.7,11.1,414.8,0
						c5.7-0.5,7.7-4.1,2-4.2c-86-1.7-171.6-3.4-254.8,4.1c-4.4,0.4-5.6,2-4.2,3.1c-51.1-1.3-102.1-3.4-153.1-5.6
						c0-0.5-0.5-1-1.8-1.3c-33.1-9.2-79.3-9-119.3-13.9c-3.1-0.4-5.7,1.7-2.7,2.1C-122.1,161.8-83.5,162.7-54.8,169.2 M-434.3,176
						c35.6,0.9,72.9-1.5,110.5-4c-3.9,0.5-5.1,2.9-0.4,3.1c68.1,3.1,136.2,4.2,203.4,0.8c6.5-0.3,8.8-3.6,4.1-4.6
						c-96.8-18.5-212.2,1.4-316.7,2.3C-437.1,173.6-438,175.9-434.3,176 M-397.1,127.1c-1.5,5.9-3,12-4.9,19.7h-27.7
						c-74-1-148.1-1.1-222.1-1.7c-1.7,0-3.5,0-5.2-0.1v-4c73.2,0.4,146.6,0.1,219.8,1.2c12.1,0.2,24.2,0.3,36.2,0.4
						c1-3.8,1.4-5.8,2.4-9.6c-57,2.9-114.5,2.7-171.5,2.4c-16.7-0.1-33.3-0.2-49.9-0.1c-12.3,0-24.6,0.1-37,0.3V130
						c9.6-0.1,19.2-0.3,28.8-0.2C-551.4,130-474,130.8-397.1,127.1 M335.3,172.2c-67,3.4-132.4,4.6-199.6,4
						C202.9,172.4,267.9,171.4,335.3,172.2 M-417,230c0.5-2.1,1-4.1,1.6-6.2C-416,226-416.5,228.1-417,230 M-417,230
						c-0.7,2.7-1.4,5.5-2.1,8.3C-418.4,235.7-417.7,233-417,230 M-425.6,242.3c-0.8,3.4-1.7,7-2.7,11c-33.6,0-67.3,0-100.9,0
						c-42.6,0-85.1,0-127.7,0v-7.2c31.5-0.1,63.1-0.5,94.5-1.4C-517.3,243.5-471.4,243.5-425.6,242.3 M-423,231.6
						c-0.7,3-1.5,6.1-2.3,9.4c0.1-0.6,0.3-1.1,0.4-1.8c-49.3,0.7-98.7,0.7-147.9,1.3c-28,0.4-56.1,0.4-84.3,0.4v-4.2
						C-579.1,237.6-501.1,237-423,231.6 M-489.3,227.5c-43.5,6.6-96.2,1.9-138.1-0.9c-9.8-0.7-19.7-1.2-29.7-1.6v-1.8
						c29.6,1.4,59.2,2.7,88.3,3.5C-542.2,227.5-515.4,227.2-489.3,227.5 M-477.3,227.7c18.2,0.3,36.2,0.8,54,1.8
						c-78.5,5.2-155.5,6.1-233.8,4.4v-4.1c17.4,0.4,34.7,0.9,51.8,1.6C-565.3,233.1-516.7,235.8-477.3,227.7 M-426.8,52
						c4-0.2,5.8,1.9,1.8,2.1c-42.7,2.7-87.6,2.7-132,2.6c-19.7,0-39.4-0.1-58.8,0.1c-13.7,0.2-27.4,0.3-41.2,0.4v-3.1
						c10.9-0.1,21.8-0.2,32.7-0.4c25.1-0.5,50.8-0.3,76.7-0.1C-506.8,53.9-465.7,54.2-426.8,52 M727.9,45h9.8c-1,1.2-2,2.3-3,3.4
						C733.6,47.1,731.2,45.9,727.9,45 M370.1,45.9c-19.9,1.5-38.1,1-55.4-0.9h137.1c-26,1-51.7,1.7-76.6,1.6
						C372.9,46.6,371.3,46.3,370.1,45.9 M-425.1,98.3h35.2c-0.5,2.1-1,4.1-1.5,6c-23.6-0.4-47.9,0.3-72.6,1.2
						c-64.1,2.4-128.5,3.8-193,4.3v-3.5c71.1-1.4,142.8-4.7,214-7.5C-437,98.6-431,98.4-425.1,98.3 M1211.9,152.2
						c-41.3,2.3-75.3,0-113.7-0.1c-32.8-0.1-67,1.1-100.4,1.8c-44.8,0.9-87.5-0.4-131-0.7c-70.8-0.5-141.8-0.9-212.6-1.6
						c-0.6,0.7-1.1,1.3-1.6,1.8c0.5-0.6,1.1-1.2,1.6-1.9h569.7C1219.9,151.7,1215.9,151.9,1211.9,152.2 M740.5,52.4L740.5,52.4
						L740.5,52.4 M748.9,52.2c71.5-1.7,143-2.8,213.7-1.5c8.4,0.2,2.6,4.8-5.9,4.7c-73.5-0.9-147,0.2-220.4,1.9
						c-2.9,3.3-4.3,4.9-7.2,8.2c3.5-4.1,7.2-8.3,11.4-13l0.4,0l-0.2-0.2l-0.1,0.1c2-2.3,4.1-4.7,6.4-7.3h9.8
						c-4.9,0.9-9.2,2.1-12.8,3.5c-0.9,1-1.3,1.5-2.2,2.5c0.4-0.1,0.9-0.2,1.6-0.3c20.8-2.6,41.2-4.4,61.1-5.7h173
						c24.1,0.8,48.4,1.8,72.8,2.1c52.1,0.7,104.7,0.5,157.3,0.3c57.3-0.2,114.7-0.4,171.4,0.5v5.7c-103.7-1.3-209.9,0.5-312.2-2.1
						C960.7,48.8,856.3,43.3,748.9,52.2 M732.6,51c-0.4,0.4-0.7,0.8-1,1.2l-0.5,0.2l0.3,0c-1.7,2-3.4,3.9-5,5.8
						c0.3-0.3,0.5-0.6,0.9-1c-72.5-1.4-145.1-2.4-217.2-1.9c-8.6,0.1-6.6-4.5,2.2-4.7c69.9-1.3,140.6-0.3,211.2,1.5
						C617.1,41.9,512,49,406.7,51.5C298.6,54,186.5,52.2,77.2,53.7c-3.9,0.1-6.1-0.7-6.8-1.7c-0.5,0.7-2.1,1.3-4.8,1.3
						c-12.7,0-25.4,0-38.1,0c-3.2,0-4.6-0.9-4.4-1.7c0.2-0.9,1.9-1.7,5.1-1.7c12.7,0,25.4,0,38.1,0c2.1,0,3.4,0.4,3.9,0.9
						c0.6-1.3,3.3-2.5,8.1-2.6c64.1-1.3,129-1.1,193.9-0.9c53,0.2,106,0.4,158.5-0.3c25.2-0.3,50.9-1.3,76.4-2.1h173.1
						c17.8,1.2,35,3.1,51.3,5.6C732.1,50.7,732.4,50.9,732.6,51 M-357.5,79.1c6.4-0.5,9.3,1.3,8.6,3.2c50.3,0.8,101.4,1.8,150.8,4.1
						c57.5,2.7,114.8,6.3,173.4,5.8c0.8-0.4,2-0.7,3.5-0.7c55.4,0.1,112.5-6,167.8-7.2c25.4-0.6,67.9-0.7,94.2-0.6
						c14.5,0,23.2,0,23.2,0s-9.4,0-23.2,0c-51.6-0.1-176.9-0.3-246.6-0.7c-93.9-0.5-188.9-3.4-282.5-8.7c-4.1-0.2-2.2-2.6,1.8-2.3
						c123.4,7.7,249.3,7.3,374.9,6.8c64.9-0.3,129.8-0.5,194.1,0.4c98.9,1.3,199.3,3.3,298.3,1.9c41.9-0.6,84.1-0.6,126.5-0.9
						c-2.6,3-5.3,6.2-8.3,9.6c1.7-2,3.2-3.7,5.5-6.3c-38.4,0.6-76.9,1-115,1.8c-84.4,1.8-169.5,1.3-254.4-0.1
						c1.8,1.4-0.7,3.7-6.8,3.7c-24.9,0-50-0.1-75.1-0.2c-36-0.2-72.1-0.4-107.7-0.1c-38.3,0.4-77.9,3.7-116.5,5.2h-161.3
						c-14.6-0.8-29.4-1.8-43.6-2.4c-68.7-2.8-138.8-3.2-208.4-3.1c-1.5,0-2.8-0.1-4-0.3c-27.7,2.1-55.5,4.1-83.3,5.8H-657v-4.7
						c2.2,0.1,4.3,0.3,6.5,0.4C-552.8,94.8-454.5,86.1-357.5,79.1 M699.1,89.6c-1,1.2-2.1,2.5-3.5,4C696.9,92.2,698,90.9,699.1,89.6
						 M-177.5,46.5c-57.9,0.2-116.5-0.2-175-0.6c-66.6-0.4-133.2-0.9-198.8-0.4c-34.9,0.2-70.4,1.4-105.8,2.2V45H10.5
						C6.8,45.2,3,45.5-0.6,45.6c-39.6,1.4-80.4,1.2-121.1,1C-140.4,46.5-159,46.5-177.5,46.5 M-576.4,100.5
						c-26.8,0.2-53.7,0.4-80.6,0.6v-2.9h87.6C-569.9,99.4-572.4,100.5-576.4,100.5 M-598.8,90.1c-18.8-2.1-38.6-3.3-58.2-4.7v-3.2
						c20.4,1.9,41.2,3.3,60.4,5.8C-593.3,88.4-595.4,90.5-598.8,90.1 M-430.2,204.7c-2.8,0.3-5.5,0.5-8.3,0.8
						c-0.3-0.3-0.7-0.6-1-0.8H-430.2 M1113,45.9c-1.9,0.4-4,0.7-6.3,0.7c-25.2,0.1-49.7-0.6-73.9-1.6h137.1
						C1149.4,46.9,1130.2,47.4,1113,45.9 M708,89.8c-1.1,1.3-2.2,2.5-3.4,3.9C705.9,92.1,707,90.9,708,89.8 M364.5,55.5
						c77.4-0.7,156.8,5.3,234.9,7.4c40.6,1.1,81.5,1.1,120.6,2.5c-0.9,1-1.7,2-2.6,3c-7.8-0.2-15.6-0.4-23.6-0.5
						c-48.3,8.1-100.2,5.4-142.9,3.8c-69.9-2.6-143.3-2.4-212.6-6.4c-5.9-0.3-2.1-3.5,3.9-3.3c62.5,1.1,126.9,1.1,187.4,5
						c48.8,3.1,100.9,6.4,151.1,0.9c-28.6-0.3-57.9-0.1-86.7-0.8c-83.6-2.1-170.2-8.2-253.3-7.9c-83.3,0.3-170,3-254.5,3.6
						C45.4,63,4.4,62.6-36.2,61.9c-38.1-0.6-78.6-0.4-114.3-4.4c-6.1-0.7-3.4-4.1,3.2-3.6c33.9,2.6,69.7,2,104.9,2.7
						c46.7,1,93.8,1.4,140.7,1.5C186.9,58.3,277.2,56.3,364.5,55.5 M710.5,76.5c-1,1.1-1.9,2.2-2.9,3.4
						C708.7,78.5,709.5,77.6,710.5,76.5 M1121.3,176.2c-65,0.6-128-0.4-192.7-4C993.7,171.5,1056.4,172.1,1121.3,176.2 M326,63.5
						c5.4,0.3,1.9,3.3-3.4,3c-25.4-1.2-51.4-1.2-78.2,0.1c-5.8,0.3-4.8-2.9,1-3.1C273.1,62.2,299.9,62.2,326,63.5 M253.4,73.3
						c-90.6-0.7-183-0.3-273.6-1.8c-91.6-1.5-185-4.7-276.4-3.8c-5,0.1-5-2.6,0.1-2.8c82.7-3.2,167.4-1.2,251.1,0.5
						C47,67.4,140.5,67.7,233,68.8c80.8,1,162.4,2.9,243.2,5.1c79.5,2.2,158.4,1.7,237.9-1.6c-0.7,0.8-1.3,1.5-2,2.3
						C558.9,81.3,405.7,74.6,253.4,73.3 M453.2,163c-49.8,0-100.5-2.3-150.4-2.8c-44.8-0.5-91.1,0.6-136.4,1.4
						c-50.2,0.9-101.3,1.2-151.2-2.3c-29.7-2.1-59.2-5.4-89.2-7.8h67.7c0.4,0.4,1.4,0.8,3.2,0.7c37.3-1.4,69.5,2.6,104.7,4
						c19.3,0.8,39.1,0.4,59,0c13-0.3,26-0.5,38.9-0.5c35.6,0.2,70.2,1.5,105.4,2.1c37.2,0.5,75.4-0.4,113.1-0.6
						c74.2-0.4,148.8,0,222.7-1.2c0.4,0,0.7,0,1.1,0c-2.4,2.7-4.6,5.3-6.7,7.7c-46.9-0.9-94-0.8-140.8-0.7
						C480.5,163,466.8,163,453.2,163 M-14.6,239.4c3.5,0.2,1.8,2.6-1.8,2.4c-118.5-3.7-230.7-13.5-348.8,3.6
						c35.1,5.1,72.3,4.5,111.5,2.6c54.5-2.6,109.2-4.3,163.9-4.4c-7.5-0.6-15.3-0.8-22.6-1.1c-22.8-0.9-46.1-1.4-69.5-1.2
						c-24.5,0.1-49.2,0.4-73.8,1.5c-13.4,0.6-29,0.9-41.9,3.6c-5.7,1.2-8.5-2.5-2.8-3.6c15.2-3,33.2-3.3,48.9-3.7
						c23.9-0.7,47.7-0.8,71.3-0.5c24.7,0.2,49.5,0.6,73.7,1.7c13.7,0.6,29.6,0.9,41.2,3.6c3.2,0.7,1,2.8-2.8,2.8
						c-58.3,0.5-116.8,3.4-175.1,6.6c-38.5,0-77,0-115.5,0c-9.7-1-19.2-2.4-28.6-4.3c-5.9-1.2-4.9-4.8,1-6
						C-267.3,219.2-141.6,232.3-14.6,239.4 M364.8,235.2c71.3,0.9,142.8,1.2,214.2,2.7L579,238h0c0.8,0,1.5,0,2.3,0
						c0.7,0,1.3,0,1.9,0c68.8-1.1,137.8-1.8,206.5-2.7c4.3-0.1,2.2,2.6-2.2,2.8c-69,3.6-139.4,4.8-209.4,5.8c-0.8,0-1.6,0-2.4,0
						c-0.6,0-1.2,0-1.8,0c-3.3,3.8-4.9,5.7-8.2,9.4c3-3.4,5.7-6.6,8.3-9.5c-70.7-0.7-141.8-1.3-211.8-5.8
						C358.1,237.8,360.6,235.2,364.8,235.2 M-416.5,205.4c-0.7,2.8-1.3,5.4-1.9,7.8c-11.3-0.4-22.5-0.8-33.8-1.2
						c1.3-0.5,1.6-1.4-0.4-1.7c-16.3-2.6-33-4.4-49.9-5.6h43.4c4.6,1.2,8.1,2.8,9.6,4.9c1.2,1.6,5.9,2.1,9.7,1.2
						c7.4-1.7,15-2.9,22.9-3.8C-416.7,206.4-416.6,205.9-416.5,205.4 M968,268c23.6,0,61.7-0.1,84.6-0.7
						c51.6-1.3,105.1-7.4,156.7-7.2c1.4,0,2.8-0.3,3.8-0.7c50.7-2.3,101.4,3.1,150.7,5.8c4.9,0.3,10,0.5,15,0.8v8.1
						c-63.6-3.5-127.5-5-190.8-5.4C1126,268.3,1014.3,268.1,968,268 M-161.8,253c94.9-1,189.3-2,284.1,0.3c-95.6,0-191.1,0-286.7,0
						C-163.6,253.1-162.8,253-161.8,253 M-9.3,243.7c-4.6-0.5-0.9-3.8,3.7-3.6c56,2.4,112.8,4.1,168.9,2.3c29.7-1,60.9-5.7,91.3-7.7
						c26.9-1.8,52.2-2.2,76.8-0.5c3.2,0.2,1.2,2.5-2.1,2.3c-31.9-1.9-66.3-0.3-100.9,3.5c-29.8,3.3-59.4,8.1-88.6,9.1
						C90,250.8,39.7,249.3-9.3,243.7 M1262.6,138.6c-33.1,0.5-67.1,1.9-99.9,2.1c-11.9,0.1-23.3-0.2-34.7-0.5
						c-17.5-0.4-34.9-0.8-53.8,0c-34.5,1.5-69.7,5.4-101.5,4c-3.9-0.2-7.2,2.3-4,2.7h-89.1c39.4-2.4,80.5-6.9,120.5-9.8
						c49.6-3.6,96.6-3,142.2-2.3c40.7,0.7,80.8,1.7,122.7,1.4c37.3-0.3,76.1-2,113.8-2.6v5.6c-4.7,0-9.4,0-14.1-0.1
						C1330.8,139,1297.6,138.1,1262.6,138.6 M-468.8,278.3c-0.3,0-0.6-0.1-0.9,0c-56.3,2-114.3,4.1-171.3,0.6
						C-584.5,270.2-525.8,272.9-468.8,278.3 M-408.3,272.5c5.5,0.5,8.9-1.3,9.3-3.2c45.6-0.8,92.9-1.8,137.6-4.1
						c52.7-2.7,106.9-8,160.9-5.8c0.3,0.4,1.1,0.8,2.5,0.7c50.7-0.7,94.7,6.5,144.1,7.2c34.7,0.5,104.5,0.6,104.5,0.6
						s-162.1,0.3-242.3,0.7c-85.6,0.5-172.3,3.5-257.7,8.7c-3.8,0.2-3.4,2.6,0.3,2.3c110.9-7.6,224.3-7.2,337.3-6.7
						c58.1,0.2,116,0.4,173.6-0.4c89-1.3,179.6-3.3,268.5-1.9c36.1,0.6,74.2,0.6,111.4,0.9c-1.6,1.8-3.1,3.6-4.6,5.3
						c-136.2-6.8-272.7,0-407.9,1.3c-80.5,0.8-163,0.3-243.5,1.8c-81.5,1.5-164.9,4.7-246.1,3.8c-4.4,0-5.8,2.5-1.5,2.8
						c73,3.9,147.4,1.3,220.3-0.5c81.9-2,165.3-2.4,247.7-3.4c73.6-0.9,147.8-3.2,221-5.1c69.6-1.8,138.1-1.5,208,1.6
						c-1.1,1.3-2.2,2.6-3.3,3.8c-7.2,0.2-14.3,0.4-21.5,0.5c-29.4-8.1-79.5-5.4-120.1-3.8c-64.3,2.6-131.9,2.5-195.6,6.4
						c-5.7,0.3-6.1,3.5-0.7,3.4c56.6-1,114.3-1.2,170.6-5c43-2.8,99-7.5,134.1-0.9c-25.6,0.3-51.2,0.2-77.4,0.8
						c-77,1.9-155.1,8.8-232,7.9c-72-0.9-145.6-2.9-218-3.5c-35.5-0.3-71.6,0.1-107.6,0.8c-33.8,0.7-69.1,0.4-102.8,4.4
						c-5.7,0.7-5.9,4.1,0.2,3.6c31.2-2.6,61.8-2,92.8-2.7c41.3-1,82.4-1.3,123.5-1.5c76-0.3,152.6,0.8,228,2.6
						c71.1,1.6,143.4-5.3,214.4-7.4c36.8-1.1,72.9-1.1,109.5-2.5c-2.3,2.7-4.7,5.4-7.1,8.3c-63.8,1.4-127.7,2.5-191,1.9
						c-7.3-0.1-11.9,4.5-4.6,4.7c60.9,1.4,122.5,0.2,184.1-1.5c-93.4,8-182.1,3.3-273.9,0.7c-91.9-2.6-188.5-0.8-281.8-2.3
						c-3.3-0.1-5.9,0.7-7.4,1.7c0.2-0.7-0.6-1.3-2.9-1.3c-10.9,0-21.9,0-32.9,0c-2.7,0-4.7,0.9-5.3,1.7c-0.6,0.9,0.1,1.7,2.9,1.7
						c10.9,0,21.9,0,32.8,0c1.8,0,3.3-0.4,4.2-0.9c-0.7,1.3,0.6,2.5,4.5,2.6c55,1.4,111,1.2,166.9,0.9c44.9-0.2,89.7-0.4,134,0.3
						c21,0.3,42,1.3,62.6,2.1H267c-20.9-1-42-1.7-63.6-1.6c-1.9,0-3.7,0.3-5.2,0.7c-15.2-1.5-31.5-1-48.4,0.9h-260.2
						c-3-0.2-6-0.4-9-0.6c-33.2-1.7-67.2-1.4-101.1-1.1c-16.6,0.1-33.1,0.3-49.5,0.2c-51.3-0.3-103.2,0.1-155,0.5
						c-55.5,0.4-110.9,0.9-165.5,0.5c-21.9-0.2-44.2-0.8-66.5-1.5v-6.7c1.9,0,3.7,0,5.6,0.1c20.1,0.3,40.4,0,60.7-0.2
						c36.9-0.5,73.6-1,109.3,2c3.3,0.3,5.8-1.8,2.4-2.1c-38-3.4-77.5-3.1-116.7-2.8c-16,0.1-31.9,0.2-47.6,0.1
						c-4.5,0-9.1-0.1-13.7-0.1v-4.9c96.5,4.7,195.1,4.8,292.2,6.6c46.3,0.9,89.5,5.5,134.6,8.1c15.7,0.9,32.3-0.5,48.9-1.8
						c17.7-1.4,35.3-2.9,51.7-1.6c2.9,0.2,5-1.8,2.1-2.1c-17.3-1.7-36.5-0.3-55.7,1c-13.2,0.9-26.4,1.8-39,1.8
						c-21.1-0.1-42.1-3.2-62-5c-22.4-2.1-45.2-3.8-68.4-4.7c-100.8-3.7-202.9-4.2-304.4-5.3v-4.2c61.8,3.4,124.9,2.1,187.9-0.9
						c4.5-0.2,4.6-2.6,1.2-3.1c33.9,2.6,67.6,5,101.4,4.1c3.5-0.1,3.9-2.4,0.5-2.5c-96.6-0.8-199.5-18.7-291-3v-9.2
						c12.8-1.2,25.6-2.4,37.8-4.1c3.1-0.4,1.6-2.5-1.5-2.1c-11.9,1.5-24.1,2.5-36.4,3.4v-3C-575,258.9-492.1,265.4-408.3,272.5
						 M110.9,288.1c22.8,1.2,46.2,1.2,70.6-0.1c5-0.3,5.6-3.3,0.6-3c-23.7,1.2-46.4,1.2-68.6-0.1
						C108.7,284.7,106.1,287.8,110.9,288.1 M1207.3,63.4c5.3,0.3,1,3.4-4.4,3.1c-24.7-1.2-50.7-1.3-78.2-0.1c-5.8,0.3-4.1-2.7,1.8-3
						C1154.8,62.2,1181.7,62.2,1207.3,63.4 M521.3,295.2c0.2-0.3,0.5-0.6,0.7-0.8C521.7,294.6,521.5,294.9,521.3,295.2 M544.5,268.2
						c-33.5-0.6-67.4-0.8-100.2-1.8c-76-2.2-152.3-1.6-228.4,0.1c3.4-1.4,3.9-3.7-1.5-3.7c-22.8-0.1-45.7,0.1-68.7,0.3
						c-32.2,0.3-64.4,0.5-96.4,0c-34-0.5-66.6-3.7-100.1-5.2H-197c-13.9,0.8-27.8,1.8-41.2,2.4c-62.6,2.7-126.5,3.2-189.8,3.1
						c-1.4,0-2.6,0.1-3.7,0.3c-23.9-2.1-48.2-4.1-72.8-5.8H-657c403.5,0,807,0,1210.5,0C550.2,261.7,547.3,265.1,544.5,268.2
						 M517.5,299.2l0.3,0c1.4-1.6,2.2-2.6,3.5-4c-1.2,1.4-2.4,2.8-3.7,4.2L517.5,299.2 M662.7,270.7c87.8-1.4,177.4,0.6,265.2,1.9
						c55.5,0.8,111.6,0.5,167.9,0.2c94.9-0.5,190.1-1.1,283.1,3.9v7.2c-62.5-0.5-125.7-2.6-187.8-3.8c-79.5-1.5-161-1-240.4-1.8
						c-134.6-1.3-270-7.6-405.6-1.3c-0.7,0.9-1.2,1.3-1.9,2.1c2.1-2.4,4.3-4.9,6.5-7.5C587.5,271.3,625.2,271.3,662.7,270.7
						 M543.2,279.1l-0.1,0.2L543.2,279.1 M1119.3,59.2c-87.6-0.3-178.8,5.7-267,7.9c-29.7,0.7-59.1,0.5-88.1,0.8
						c50.4,5.9,103.3,2,152.7-0.9c63.6-3.7,130.7-3.9,196-5c6.2-0.1,4.8,2.9-2,3.3c-74.1,4.5-149.6,3.4-223.7,6.4
						C840.6,73.7,785,76.1,750.9,68c-8.1,0.1-16.2,0.3-24.4,0.5c0.9-1,1.7-2,2.6-3c41.6-1.4,83-1.3,125-2.5
						c81.9-2.4,166.4-8.2,247.8-7.4c85.7,0.8,174.6,2.8,261.7,2.6c5.1,0,10.2,0,15.3-0.1v4.7c-3.7,0-7.5,0-11.3,0
						C1285.1,62.1,1200.6,59.5,1119.3,59.2 M516.6,300.6c-0.7,0.8-1.4,1.7-2.2,2.5c-3.2,1.4-7.1,2.5-11.4,3.4h-40.7
						c17.1-1.2,34.7-3.1,52.9-5.7C515.8,300.8,516.2,300.7,516.6,300.6 M526,299.2l-0.5,0.2c-0.4,0.5-0.6,0.7-1,1.2
						c0.1,0.1,0.4,0.2,0.8,0.3c13.7,2.6,28.1,4.4,43.1,5.7h-40.7c-2.6-0.9-4.6-2.1-5.4-3.4c-1.2,1.4-1.8,2.1-3,3.4
						c2.3-2.6,4.4-5.1,6.4-7.4L526,299.2 M1170.1,301c18.5-1.3,33.6,0.2,48.6,1.6c14.3,1.4,28.7,2.8,45.9,1.8
						c37.8-2.1,76.2-5.1,114.3-6.8v7.5c-25.2-0.1-50.4-0.1-75.5,0c-16.6,0.1-33.3,0-50-0.2c-34.2-0.3-68.6-0.5-102.3,1.1
						c-3.3,0.2-6.7,0.4-10,0.6H880.9c-13.7-1.9-29.1-2.4-46.9-0.9c-0.8-0.4-2-0.7-4-0.7c-21.3-0.1-43.7,0.6-66.3,1.6h-47.4
						c22.1-0.8,44.5-1.7,66.2-2.1c44.7-0.7,90-0.5,135.2-0.3c56.2,0.2,112.5,0.5,167.8-0.9c4.2-0.1,7.6-1.4,9.1-2.6
						c0.1,0.5,0.8,0.9,2.6,0.9c10.9,0,21.9,0,32.8,0c2.7,0,5-0.9,5.8-1.7c0.9-0.9,0.4-1.7-2.3-1.7c-11,0-22,0-32.9,0
						c-2.3,0-4.1,0.6-5.2,1.3c0.2-1-1.1-1.7-4.5-1.7c-94.6,1.4-192.4-0.3-285.7,2.3c-91.1,2.5-180.5,8.6-272.7-0.7
						c60.8,1.8,121.5,2.8,181.6,1.5c7.6-0.2,11.1-4.8,3.5-4.7c-62.3,0.6-125.1-0.4-187.8-1.9c-0.3,0.3-0.5,0.6-0.8,0.9
						c3.7-4.2,7-8.1,10.3-11.9c-0.9,1-1.4,1.6-2.3,2.7c34.2,1.4,70.3,1.2,105.1,2.5c66.4,2.5,135.6,7.9,201.5,7.4
						c75.5-0.5,154.9-2.9,232.4-2.6c40.8,0.2,81.2,0.6,120.9,1.5c29.8,0.7,61.5,0.1,88.1,2.7c5.2,0.5,11-3,6.5-3.6
						c-26.8-4-62.6-3.7-95.2-4.4c-34.8-0.7-70.2-1.1-106.2-0.8c-74.6,0.5-149.9,2.6-224.1,3.5c-72.6,0.9-145.9-6.1-218.3-7.9
						c-25.3-0.6-50.9-0.5-76-0.8c46.5-6.6,94.8-1.9,132.5,0.9c53.3,3.9,108.3,3.9,162,5c5.1,0.1,10-3,5.1-3.4
						c-59.6-4.2-124-3.8-184.4-6.4c-37-1.6-83.1-4.4-126.6,3.8c-6.9-0.1-13.8-0.3-20.7-0.5c1.1-1.3,2.2-2.6,3.4-3.9
						c70.9-2.9,140.2-3.4,210.7-1.6c70.4,1.8,141.8,4.1,212.2,5.1c80.2,1.1,161.9,1.3,241.9,3.4c56.6,1.5,114,3.2,171.1,2.1v5.1
						c-15.4,0.9-31,2-46.7,3.3c-23.1,1.9-49.5,4.9-70.7,5c-12.6,0.1-24.3-0.9-35.9-1.8c-16.9-1.3-33.8-2.7-54-1
						C1168.3,299.1,1166.8,301.2,1170.1,301 M954.6,285c-24.3,1.2-47.1,1.3-68.7,0.1c-4.6-0.3-9.2,2.7-4.6,3
						c22.2,1.3,45.5,1.3,70.5,0.1C957,287.8,959.8,284.7,954.6,285"/>
				</g>
			</g>
		</g>
	</g>
</g>
</svg>
