<?xml version="1.0" encoding="UTF-8" standalone="no"?>
<!-- Created with Inkscape (http://www.inkscape.org/) -->

<svg
   xmlns:dc="http://purl.org/dc/elements/1.1/"
   xmlns:cc="http://creativecommons.org/ns#"
   xmlns:rdf="http://www.w3.org/1999/02/22-rdf-syntax-ns#"
   xmlns:svg="http://www.w3.org/2000/svg"
   xmlns="http://www.w3.org/2000/svg"
   xmlns:sodipodi="http://sodipodi.sourceforge.net/DTD/sodipodi-0.dtd"
   xmlns:inkscape="http://www.inkscape.org/namespaces/inkscape"
   width="330.20001mm"
   height="345.13858mm"
   viewBox="0 0 1170.0001 1222.932"
   id="svg12478"
   version="1.1"
   inkscape:version="0.91 r"
   sodipodi:docname="res_back.svg">
  <defs
     id="defs12480">
    <clipPath
       clipPathUnits="userSpaceOnUse"
       id="clipPath9272">
      <path
         d="m 0.363,1812.696 1372.461,0 0,978.346 -1372.461,0 0,-978.346 z"
         id="path9274"
         inkscape:connector-curvature="0" />
    </clipPath>
  </defs>
  <sodipodi:namedview
     id="base"
     pagecolor="#ffffff"
     bordercolor="#666666"
     borderopacity="1.0"
     inkscape:pageopacity="0.0"
     inkscape:pageshadow="2"
     inkscape:zoom="0.35"
     inkscape:cx="1138.5024"
     inkscape:cy="508.60909"
     inkscape:document-units="px"
     inkscape:current-layer="layer1"
     showgrid="false"
     fit-margin-top="0"
     fit-margin-left="0"
     fit-margin-right="0"
     fit-margin-bottom="0"
     units="mm"
     inkscape:window-width="1366"
     inkscape:window-height="744"
     inkscape:window-x="0"
     inkscape:window-y="24"
     inkscape:window-maximized="1" />
  <metadata
     id="metadata12483">
    <rdf:RDF>
      <cc:Work
         rdf:about="">
        <dc:format>image/svg+xml</dc:format>
        <dc:type
           rdf:resource="http://purl.org/dc/dcmitype/StillImage" />
        <dc:title></dc:title>
      </cc:Work>
    </rdf:RDF>
  </metadata>
  <g
     inkscape:label="Layer 1"
     inkscape:groupmode="layer"
     id="layer1"
     transform="translate(763.50241,-46.610696)">
    <g
       transform="matrix(0.85248324,0,0,-1.2499995,-763.81186,3535.4118)"
       id="g9268">
      <g
         id="g9270"
         clip-path="url(#clipPath9272)">
        <path
           d="m 1563.492,1973.87 -1752.154,0 0,850.286 1752.154,0 0,-850.286 z"
           style="fill:#90b4b7;fill-opacity:1;fill-rule:nonzero;stroke:none"
           id="path9276"
           inkscape:connector-curvature="0" />
        <path
           d="m 1562.895,2055.341 -1750.197,0 0,-330.864 1750.197,0 0,330.864 z"
           style="fill:#f2e6d0;fill-opacity:1;fill-rule:nonzero;stroke:none"
           id="path9278"
           inkscape:connector-curvature="0" />
        <g
           id="g9280"
           transform="translate(823.8875,2051.322)">
          <path
             d="m 0,0 c 1.969,-3.291 33.57,-56.067 36.387,-60.775 l 702.62,0 0,60.775 L 0,0 m -786.912,-199.6 c 4.197,-24.311 6.296,-36.465 10.492,-60.778 218.542,0 1041.687,0.018 1515.427,0.018 l 0,60.772 c -469.222,0.003 -1378.829,0.008 -1525.919,-0.012 M -6.753,0 -1011.19,0 l 0,-60.775 c 346.866,0.01 693.734,0.025 1040.593,-0.003 C 26.611,-56.074 -5.727,-1.721 -6.753,0 m -792.638,-127.288 1538.398,0 0,60.763 -1548.878,-0.01 c 1.288,-7.486 7.506,-43.519 10.48,-60.753 M 79.68,-133.1 c 0.482,-0.816 35.878,-59.92 36.354,-60.73 l 622.973,0 0,60.765 -659.355,0 0.028,-0.035 m -1090.87,-133.03 0,-60.798 1198.985,0 c -0.888,1.52 -31.277,52.602 -36.159,60.798 l -1162.826,0 m 1206.879,-60.761 543.318,0 0,60.761 -579.68,0 c 1.001,-1.681 29.368,-49.073 36.362,-60.761 m -87.153,133.173 c -1.307,2.2 -26.872,45.175 -36.098,60.665 -275.442,-0.037 -997.858,-0.012 -1083.628,0 l 0,-60.777 1119.794,0 -0.068,0.112 m -900.514,-5.87 -219.212,0 0,-60.76 229.557,0 c -2.376,13.918 -8.711,51.148 -10.345,60.76 m -12.315,72.3 c -0.656,3.871 -9.481,55.703 -10.341,60.753 -65.517,0.01 -131.034,0 -196.556,0 l 0,-60.753 c 44.246,0.005 202.125,0 206.897,0"
             style="fill:#f6eedd;fill-opacity:1;fill-rule:nonzero;stroke:none"
             id="path9282"
             inkscape:connector-curvature="0" />
        </g>
        <g
           id="g9284"
           transform="translate(638.4734,1948.2996)">
          <path
             d="m 0,0 c 33.565,-11.479 68.143,-11.263 102.857,-17.372 2.702,-0.479 2.666,2.117 -0.01,2.657 C 74.221,-8.92 44.352,-7.819 16.531,0.404 22.783,0 29.027,-0.399 35.273,-0.785 38.349,-0.976 37.789,1.876 34.658,2.107 24.714,2.84 14.798,3.595 4.879,4.36 4.621,4.465 4.36,4.551 4.102,4.648 1.819,5.549 -0.148,5.441 -1.45,4.852 c -103.542,7.829 -208.824,17.329 -311.603,0.035 -3.863,-0.653 -1.877,-5.088 2.453,-5.251 61.987,-2.292 126.583,-6.59 187.454,5.201 2.93,0.569 2.268,2.546 0.216,3.85 C -83.333,7.175 -43.022,4.37 -2.611,1.666 -2.145,1.051 -1.317,0.457 0,0 m -279.315,4.099 c 48.428,5.77 97.408,6.771 146.167,4.947 -48.33,-6.733 -97.423,-6.901 -146.167,-4.947 m 738.942,30.575 c 12.437,0.225 24.531,0.9 36.357,1.826 l -104.919,0 c 23.129,-1.099 46.313,-2.218 68.562,-1.826 M 257.385,30.301 c -3.01,0.361 -3,-2.273 0.065,-2.661 31.443,-4.037 63.746,-3.763 95.863,-3.49 12.904,0.108 25.778,0.218 38.557,0.048 51.92,-0.695 104.322,-0.913 156.004,1.954 5.493,0.306 -0.361,6.008 -5.81,5.609 -48.897,-3.579 -97.456,-4.846 -146.654,-3.675 -16.504,0.399 -33.086,0.098 -49.648,-0.203 -29.716,-0.542 -59.368,-1.081 -88.377,2.418 m -13.993,-24.1 -0.1,0.168 0.1,-0.168 m 4.36,-4.43 c 0.688,-0.09 1.395,-0.191 2.085,-0.278 l 0.007,0 c 55.739,-7.689 122.524,-20.799 172.546,1.445 3.05,1.359 -0.457,5.285 -5.522,5.709 -49.961,4.154 -101.178,3.69 -152.296,-0.993 -3.409,-0.306 -1.272,-3.189 1.939,-3.866 -6.452,0.707 -12.866,1.372 -19.26,2.009 -0.71,0.071 -1.44,0.156 -2.148,0.229 -0.562,0.05 -1.144,0.118 -1.711,0.175 l 0.191,-0.321 c -8.035,-0.655 -21.752,-1.37 -27.539,-2.097 2.411,0.677 1.089,3.6 -2.677,3.871 -51.024,3.65 -102.571,6.745 -153.497,0.993 -4.486,-0.502 -3.475,-4.5 1.284,-5.709 59.82,-15.19 120.327,-11.169 185.015,-1.398 l -0.291,0.492 0.003,0 c 0.614,-0.088 1.257,-0.178 1.871,-0.261 m 20.377,1.879 c 44.846,2.511 91.3,4.992 136.843,0.773 -45.849,-12.074 -91.254,-5.324 -137.65,-0.71 0.268,-0.015 0.542,-0.073 0.807,-0.063 M 76.825,4.423 c 45.802,4.407 92.597,1.613 137.754,-0.778 0.288,-0.01 0.494,0.048 0.742,0.068 -45.874,-7.175 -92.9,-9.761 -138.496,0.71 m 233.544,-110.107 c 0.577,0.085 1.169,0.161 1.753,0.246 0.59,0.078 1.187,0.153 1.779,0.231 24.82,3.384 49.921,6.595 75.799,8.642 l -177.035,0 c 28.354,-2.047 67.601,-5.258 97.423,-8.647 l 0.281,-0.472 m 48.594,-81.182 c -0.442,0.742 -0.826,1.374 -1.187,1.971 0.988,-1.638 1.944,-3.231 2.9,-4.839 67.345,5.747 134.891,4.192 202.149,1.969 72.016,-2.38 144.687,-5.142 216.696,-6.354 48.115,-0.815 96.537,-1.324 144.9,-2.082 l 0,6.537 c -56.443,0.557 -113.212,0.52 -169.196,1.167 -131.442,1.538 -264.073,10.714 -396.262,1.631 m -250.151,98.133 c -37.874,0.363 -76.441,1.961 -113.613,0.858 -27.773,-0.818 -55.405,-2.311 -83.684,-2.208 -33.179,0.12 -65.888,3.04 -97.91,0.135 -3.106,-0.278 -6.221,-0.569 -9.327,-0.855 l 489.74,0 -0.068,0.113 c -61.713,0.878 -123.5,1.355 -185.138,1.957 m 758.115,130.98 57.494,0 0,4.473 c -8.556,-0.434 -17.096,-0.918 -25.592,-1.505 -10.443,-0.72 -21.145,-1.967 -31.902,-2.968 M 746.468,-13.932 c -26.202,-0.638 -51.466,-2.328 -78.092,-2.574 -9.656,-0.088 -19.56,0.246 -29.443,0.579 -15.167,0.514 -30.289,1.026 -44.4,0.015 -25.637,-1.841 -47.633,-6.76 -76.476,-5.027 -3.542,0.216 -1.942,-2.82 1.447,-3.326 l 31.676,0 c 11.795,0.737 23.059,2.059 34.528,3.306 26.696,2.902 56.566,-0.003 85.613,-0.123 24.782,-0.1 48.27,1.385 72.184,2.202 32.015,1.104 66.417,-0.499 99.684,-0.857 27.025,-0.301 54.13,-0.53 81.232,-0.808 l 0,5.303 c -30.91,0.218 -61.874,0.329 -92.684,0.574 -28.415,0.221 -57.63,1.405 -85.269,0.736 M 858.19,-89.938 c 1.417,0.091 2.757,-0.313 3.748,-0.865 l 58.164,0 c -29.461,3.053 -59.424,7.097 -88.297,9.756 -44.181,4.061 -89.085,3.994 -133.366,2.85 -38.008,-0.984 -76.191,-2.313 -115.227,-1.704 -44.304,0.68 -89.355,3.457 -133.504,3.49 -11.956,0.01 -23.944,-0.008 -35.958,-0.025 -40.348,-0.061 -80.969,-0.121 -121.445,0.925 -0.883,1.473 -1.553,2.592 -2.22,3.708 2.481,-4.157 5.11,-8.542 8.017,-13.401 0.308,0.008 0.625,0.013 0.931,0.02 62.95,1.538 126.525,1.016 189.673,1.515 32.055,0.251 63.523,1.425 96.292,0.753 31.076,-0.642 62.86,-2.333 93.728,-2.574 11.224,-0.093 22.008,0.244 32.77,0.58 16.459,0.514 32.865,1.028 50.703,0.015 32.434,-1.837 66.006,-6.821 95.991,-5.043 m -212.687,-9.954 c 32.21,-2.889 58.73,0.018 88.68,0.151 25.573,0.108 52.45,-1.392 78.72,-2.215 35.17,-1.089 68.321,0.499 102.182,0.853 3.115,0.035 6.231,0.063 9.336,0.088 l 0,4.45 -319.778,0 c 13.331,-0.74 27.042,-2.08 40.86,-3.327 m -324.854,-22.981 c 0.444,-0.742 0.78,-1.307 1.116,-1.854 -0.368,0.615 -0.737,1.232 -1.116,1.854 M 735.636,22.156 c -3.176,0.148 -1.142,-2.795 2.127,-3.043 C 792.751,15.067 860.581,2.642 924.421,1.247 l 0,8.293 C 860.565,8.682 793.664,19.469 735.636,22.156 m 37.067,6.136 c -3.282,-0.04 -2.055,-2.619 1.793,-3.552 14.016,-3.347 28.096,-3.711 40.817,-4.493 22.46,-1.387 44.257,-1.836 65.883,-2.143 14.653,-0.205 29.095,-0.19 43.225,0.128 l 0,4.315 c -14.928,-0.68 -30.371,-0.918 -45.839,-1.033 -19.92,-0.156 -40.581,0.368 -61.563,1.552 -6.685,0.367 -13.799,0.69 -21.089,1.398 42.886,0.01 85.793,1.926 128.491,5.024 l 0,7.012 -10.924,0 C 866.671,32.464 819.603,28.849 772.703,28.292 m -45.918,-3.801 c -44.958,6.38 -90.815,9.056 -136.18,6.751 -23.578,-1.197 -41.924,-7.252 -62.594,-11.394 -24.03,-4.812 -51.276,-6.791 -81.477,-4.435 -3.143,0.256 -1.537,-2.589 1.578,-2.87 23.669,-2.122 44.859,-1.621 65.306,0.612 23.099,2.516 43.073,8.439 67.025,9.641 49.381,2.455 99.131,-0.194 148.53,-2.823 4.277,-0.235 2.546,3.854 -2.188,4.518 m 119.08,12.009 -246.623,0 c 81.727,-2.82 163.057,-1.636 244.82,-0.371 0.82,0.01 1.379,0.16 1.803,0.371 M -814.864,-202.317 c 99.478,-6.643 201.86,-5.912 301.463,-8.803 46.171,-1.344 93.202,-6.677 139.389,-10.066 16.406,-1.212 32.063,0.516 47.719,2.245 16.443,1.816 32.889,3.63 50.209,2.042 3.068,-0.284 3.437,2.3 0.384,2.644 -18.579,2.109 -36.736,0.444 -54.851,-1.224 -12.465,-1.147 -24.91,-2.296 -37.458,-2.213 -21.132,0.141 -44.243,3.981 -65.196,6.314 -23.55,2.622 -47.08,4.774 -70.549,5.838 -102.967,4.663 -207.232,5.18 -310.687,6.758 -4.478,0.072 -4.84,-3.239 -0.423,-3.535 m 73.177,114.479 c -11.95,-0.74 -24.326,-1.974 -36.673,-2.965 l 282.024,0 c -23.295,2.077 -46.514,4.631 -69.436,7.232 -0.924,-0.226 -2.007,-0.364 -3.271,-0.356 -57.578,0.103 -115.755,-0.414 -172.644,-3.911 m 1115.37,40.356 c 23.041,-0.153 45.822,0.373 67.85,1.547 7.006,0.374 14.584,0.703 21.749,1.415 -54.534,0.678 -108.925,2.444 -163.168,5.434 -10.303,0.577 -20.503,1.104 -30.452,1.395 -1.339,2.232 -2.192,3.655 -3.273,5.456 2.47,-4.129 4.743,-7.925 6.878,-11.484 9.209,-1.026 18.541,-1.363 27.103,-1.842 24.744,-1.372 49.18,-1.761 73.313,-1.921 m 457.372,13.152 c -21.674,0.196 -44.422,1.623 -67.147,3.349 -6.086,0.462 -12.006,0.75 -17.844,0.943 l -32.353,0 c -9.741,-0.303 -19.394,-0.943 -28.826,-1.47 -97.719,-5.468 -197.832,-2.353 -296.509,-1.349 -3.256,0.03 -6.096,1.417 -7.268,2.819 l -116.042,0 0.028,-0.04 c 4.623,-0.183 9.307,-0.391 14.013,-0.672 67.952,-4.001 136.667,-8.878 204.281,-9.959 3.788,-0.058 6.786,-2.609 3.951,-3.53 -10.335,-3.366 -25.838,-3.72 -39.088,-4.508 -23.348,-1.394 -47.548,-1.833 -71.786,-2.149 -23.159,-0.299 -46.572,-0.176 -70.406,0.677 -9.382,0.326 -19.619,0.587 -29.822,1.548 -0.667,1.113 -1.164,1.931 -1.665,2.777 2.832,-4.749 5.478,-9.164 8.087,-13.519 -0.722,1.212 -1.435,2.416 -2.406,4.026 85.977,-2.96 170.699,5.175 255.976,8.549 3.464,0.128 6.108,-2.802 2.719,-3.027 -84.735,-5.72 -168.534,-14.972 -254.121,-13.161 0.98,-1.643 1.964,-3.293 2.97,-4.969 54.97,-1.55 109.835,-1.6 164.721,-1.488 40.731,0.096 83.141,-2.852 124.483,-3.597 42.026,-0.767 82.264,0.973 122.955,1.856 35.818,0.786 72.774,0.959 110.829,-1.68 37.649,-2.612 76.474,-8.364 113.636,-11.467 l 0,4.24 c -21.789,2.207 -43.596,4.989 -66.158,11.138 -1.669,0.456 -2.797,1.053 -3.538,1.67 -46.626,2.78 -93.263,5.341 -139.966,7.017 2.747,-1.305 4.132,-3.304 0.999,-3.858 -69.154,-12.383 -142.021,-7.205 -212.846,-5.186 -5.022,0.141 -8.679,4.666 -4.535,5.233 116.611,16.018 236.842,7.737 356.66,-0.03 1.287,0.592 3.517,0.708 6.424,-0.193 0.311,-0.1 0.64,-0.196 0.971,-0.288 11.58,-0.768 23.202,-1.531 34.809,-2.268 3.668,-0.234 5.21,-3.068 1.638,-2.88 -7.262,0.389 -14.532,0.793 -21.822,1.194 15.784,-3.758 31.568,-6.028 47.364,-7.945 l 0,11.402 c -3.659,1.671 -4.415,4.437 -0.413,4.761 l 0.413,0.038 0,5.361 c -3.474,-0.058 -6.953,-0.098 -10.415,-0.151 -4.117,-0.065 -7.609,3.241 -3.806,3.532 4.731,0.371 9.473,0.703 14.221,1.026 l 0,5.74 c -59.746,-0.605 -120.228,-0.672 -180.008,1.984 -6.881,0.304 -9.713,5.968 -2.822,5.609 58.227,-3.075 116.117,-4.5 174.138,-3.697 2.885,0.047 5.783,0.062 8.692,0.075 l 0,9.114 c -31.096,-1.187 -62.483,-2.873 -93.366,-2.597 m -53.208,-14.816 c 35.642,-4.811 70.178,-6.795 100.765,-4.43 3.176,0.244 6.146,-2.606 3.051,-2.882 -23.561,-2.1 -48.604,-1.618 -75.802,0.615 -30.702,2.516 -63.628,8.722 -93.028,9.638 -54.589,1.703 -110.016,-0.101 -165.253,-2.825 -4.51,-0.218 -9.482,3.891 -5.182,4.533 48.169,7.285 96.535,8.11 144.529,6.728 28.726,-0.82 60.263,-7.25 90.92,-11.377 M 604.452,4.837 c 63.284,-8.853 128.472,-7.717 193.665,-5.201 4.154,0.163 0.785,4.669 -3.808,5.251 C 691.181,17.984 587.85,14.332 482.721,4.852 480.716,5.441 478.629,5.549 477.42,4.648 L 476.989,4.36 c -9.011,-0.765 -18.014,-1.52 -27.08,-2.253 -2.865,-0.231 -0.025,-3.083 2.824,-2.892 5.775,0.386 11.557,0.785 17.319,1.189 -18.006,-8.223 -46.539,-9.319 -68.265,-15.119 -2.022,-0.54 1.038,-3.136 3.16,-2.657 27.392,6.101 62.246,5.893 82.116,17.372 0.78,0.457 0.906,1.051 0.632,1.666 37.183,2.704 74.136,5.509 111.933,7.021 -0.497,-1.304 1.232,-3.346 4.824,-3.85 M 761.502,4.099 C 710.174,2.047 660.476,4.448 609.414,9.046 660.567,10.922 710.59,8.203 761.502,4.099 M -75.732,-129.882 c -53.806,4.731 -105.671,5.916 -159.696,4.962 53.651,-4.257 105.855,-5.722 159.696,-4.962 m 947.383,4.962 c -51.609,0.883 -102.538,2.015 -153.799,-4.962 51.599,-0.72 102.476,-1.026 153.799,4.962 m -378.786,-0.323 c -51.127,6.718 -96.06,8.263 -147.336,0.692 0.261,0.03 0.482,0.073 0.793,0.053 48.774,-2.496 97.556,-5.193 146.543,-0.745 m -203.495,0.745 c 0.293,0.03 0.577,-0.023 0.855,-0.053 -49.412,4.674 -97.546,11.181 -146.501,-0.692 48.483,-4.24 97.35,-2.263 145.646,0.745 m 430.783,5.895 c -33.071,-0.778 -67.075,-0.753 -102.315,1.673 -37.967,2.624 -77.545,9.094 -115.447,12.488 -61.295,5.476 -122.825,-0.331 -183.551,-8.993 l -0.012,-0.005 c -0.615,-0.088 -1.242,-0.169 -1.869,-0.269 -0.547,-0.07 -1.101,-0.145 -1.658,-0.228 l -0.271,0.439 c -68.344,7.375 -137.586,15.408 -205.671,9.056 -33.517,-3.126 -65.71,-9.864 -100.536,-12.488 -32.341,-2.426 -66.325,-2.451 -100.308,-1.673 -38.585,0.885 -77.518,2.616 -115.495,1.854 -37.336,-0.755 -73.768,-3.705 -111.454,-3.613 -76.542,0.194 -153.475,1.079 -227.544,-9.281 -5.625,-0.786 -9.939,5.12 -4.471,6.05 71.928,12.262 147.761,10.516 223.007,10.163 40.222,-0.179 79.128,3.027 119.14,3.509 35.516,0.429 71.527,-0.873 107.507,-1.716 40.338,-0.935 81.501,-1.585 118.862,2.86 30.11,3.58 58.658,9.224 88.969,12.212 -25.51,0 -51.022,-0.003 -76.532,-0.003 3.359,-0.509 4.175,-3.532 0.547,-3.324 -29.428,1.751 -53.799,-3.213 -81.223,-5.052 -15.101,-1.013 -30.674,-0.494 -46.3,0.025 -10.188,0.339 -20.398,0.678 -30.512,0.592 -27.853,-0.248 -55.046,-1.941 -82.776,-2.576 -29.237,-0.675 -59.177,0.517 -88.698,0.74 -58.001,0.439 -116.873,0.065 -174.358,1.53 -41.697,1.059 -84.605,0.459 -126.141,-6.63 -0.429,2.476 -0.637,3.728 -1.066,6.201 35.654,6.191 73.682,6.982 112.371,6.164 59.888,-1.269 120.291,-1.576 180.336,-2.205 34.345,-0.354 69.335,-1.949 103.193,-0.856 25.301,0.826 50.39,2.326 76.07,2.223 30.113,-0.125 60.121,-3.045 88.866,-0.156 12.33,1.247 24.431,2.587 36.859,3.324 -199.731,0.005 -399.449,0.023 -599.17,-0.01 4.197,-24.308 6.296,-36.459 10.493,-60.76 312.068,0 624.133,0.003 936.206,0.003 l 178.003,0 c 23.807,1.111 47.553,2.22 72.513,1.818 13.945,-0.216 28.214,-0.893 42.598,-1.818 l 113.303,0 c 57.592,2.137 115.259,1.994 172.803,1.417 l 0,7.235 c -2.363,0.795 -3.808,2.4 -1.919,3.105 0.6,0.211 1.28,0.391 1.919,0.582 l 0,4.483 c -16.115,-0.843 -32.325,-1.703 -48.656,-2.481 -3.236,-0.151 -6.224,2.81 -3.068,3.033 17.405,1.259 34.628,2.611 51.724,3.918 l 0,16.015 c -30.108,0.775 -61.038,2.684 -90.983,3.279 -38.893,0.762 -75.767,-0.969 -113.285,-1.854 m -399.782,-3.801 0.278,-0.469 c 0.582,0.081 1.149,0.166 1.726,0.244 0.607,0.087 1.207,0.173 1.826,0.263 65.058,9.5 123.861,12.922 185.126,-1.427 5.295,-1.237 6.826,-5.273 2.177,-5.685 -53.796,-4.661 -108.972,-2.742 -163.943,0.981 -4.016,0.266 -5.378,3.196 -2.792,3.866 -5.978,-0.703 -11.988,-1.367 -18.002,-2.002 l -0.007,0 c -0.66,-0.073 -1.312,-0.148 -1.974,-0.218 -0.55,-0.066 -1.096,-0.123 -1.643,-0.183 l -0.196,0.318 c -9.367,0.655 -24.817,1.357 -31.854,2.085 3.367,-0.67 5.471,-3.6 1.826,-3.866 -54.519,-4.014 -108.985,-5.18 -162.787,-0.981 -5.285,0.414 -8.193,4.327 -4.608,5.685 58.904,22.366 130.875,8.629 194.847,1.389 m -592.06,1.914 c 68.223,2.394 136.893,4.092 203.004,-5.177 3.575,-0.497 4.618,-2.551 3.567,-3.856 40.985,1.513 81.389,4.322 121.621,7.017 -0.118,0.612 0.191,1.209 1.149,1.66 24.281,11.477 60.625,11.284 90.256,17.385 2.298,0.471 5.033,-2.117 2.822,-2.662 -23.791,-5.777 -53.881,-6.906 -75.164,-15.122 6.221,0.399 12.44,0.798 18.649,1.182 3.06,0.198 5.366,-2.644 2.283,-2.882 -9.781,-0.733 -19.58,-1.496 -29.376,-2.256 l -0.534,-0.288 c -1.538,-0.893 -3.746,-0.778 -5.707,-0.193 -111.85,-8.517 -222.353,-14.166 -331.675,-0.043 -4.485,0.587 -5.378,5.075 -0.895,5.235 m -325.808,0.791 c -0.412,2.365 -0.615,3.567 -1.024,5.94 27.462,-0.998 54.659,0.05 80.845,3.412 5.983,0.78 8.849,-4.88 2.891,-5.65 -26.717,-3.494 -54.601,-4.653 -82.712,-3.702 m 67.224,-37.636 c -9.681,1.296 -19.397,3.032 -29.14,5.365 -6.122,1.453 -6.989,5.808 -1.989,7.544 107.548,37.247 231.484,11.893 342.86,4.465 3.409,-0.223 3.938,-3.184 0.556,-3.038 -104.67,4.701 -219.19,24.489 -322.625,-4.49 35.416,-6.355 70.221,-5.602 105.836,-3.264 49.879,3.286 99.988,5.399 150.064,5.441 -7.466,0.713 -14.946,1.039 -21.915,1.422 -21.973,1.172 -43.93,1.691 -65.582,1.543 -22.665,-0.16 -45.387,-0.544 -67.665,-1.926 -12.154,-0.753 -26.38,-1.122 -36.916,-4.463 -4.625,-1.458 -9.363,3.101 -4.708,4.518 12.366,3.753 28.968,4.059 43.165,4.608 21.746,0.845 43.672,0.961 65.753,0.667 23.099,-0.318 46.263,-0.757 69.613,-2.142 13.225,-0.785 28.211,-1.144 41.324,-4.493 3.63,-0.933 3.324,-3.479 -0.241,-3.554 -52.836,-1.016 -106.374,-4.554 -159.634,-8.203 l -108.756,0 m 182.96,0 c 0.61,0.218 1.33,0.358 2.238,0.366 89.117,0.792 178.819,2.817 268.348,-0.366 -90.199,0 -180.39,-0.031 -270.586,0 m 137.581,12.003 c -4.749,0.657 -4.29,4.756 0.205,4.525 53.182,-2.666 106.743,-4.633 159.248,-2.814 26.199,0.903 50.186,7.107 75.796,9.623 22.703,2.24 45.383,2.727 70.23,0.627 3.277,-0.284 4.265,-3.126 0.954,-2.872 -31.809,2.388 -61.523,0.363 -89.175,-4.438 -23.774,-4.144 -46.141,-10.165 -72.445,-11.387 -48.306,-2.26 -96.962,0.113 -144.813,6.736 M 36.57,-157.335 c 13.298,0.925 26.749,1.602 40.431,1.818 24.489,0.402 49.564,-0.707 74.685,-1.818 l -115.116,0 m 262.35,6.201 c -30.683,2.799 -62.72,2.486 -94.915,2.172 -18.398,-0.18 -36.846,-0.361 -55.121,0.04 -54.07,1.184 -107.126,-0.471 -161.036,-3.67 -6.103,-0.366 -10.255,5.296 -4.161,5.604 56.327,2.825 113.415,2.632 169.916,1.945 13.847,-0.169 27.802,-0.053 41.79,0.06 34.724,0.286 69.653,0.569 103.685,-3.482 3.296,-0.387 3.015,-2.965 -0.158,-2.669 m -169.836,12.876 c -4.036,0.301 -5.185,3.608 -1.217,3.545 67.215,-1.202 134.583,-1.826 201.878,-3.349 1.43,-2.378 2.893,-4.829 4.423,-7.4 -68.527,1.106 -137.506,2.247 -205.084,7.204 m 208.995,-7.22 c -0.587,0 -1.174,-0.012 -1.749,-0.02 -0.697,-0.007 -1.41,-0.022 -2.107,-0.03 l -0.04,0.066 c -1.749,2.907 -2.632,4.382 -4.385,7.31 0.584,0.02 1.189,0.035 1.773,0.055 0.675,0.005 1.368,0.02 2.05,0.04 62.137,1.726 124.335,2.198 186.415,3.344 3.876,0.063 6.655,-3.221 2.993,-3.545 -61.255,-5.456 -123.247,-6.387 -184.95,-7.22 m 343.316,-7.114 c -55.351,3.068 -109.921,4.889 -165.435,3.67 -17.44,-0.384 -35.033,-0.027 -52.6,0.326 -32.032,0.648 -63.989,1.295 -94.784,-2.538 -2.74,-0.336 -6.114,2.298 -3.352,2.669 32.491,4.38 66.377,3.981 100.025,3.582 13.869,-0.166 27.699,-0.329 41.374,-0.16 57.235,0.699 115.083,0.755 172.241,-1.945 6.518,-0.308 9.089,-5.97 2.531,-5.604 m 188.899,7.26 c -44.919,-7.297 -91.169,-8.855 -136.77,-6.736 -27.791,1.285 -57.321,7.243 -86.04,11.387 -33.399,4.801 -65.461,6.826 -94.46,4.438 -3.005,-0.251 -5.424,2.588 -2.494,2.872 22.352,2.105 45.624,1.613 70.975,-0.627 28.636,-2.516 59.526,-8.715 87.311,-9.623 51.497,-1.706 103.808,0.038 155.881,2.814 4.21,0.224 9.558,-3.878 5.597,-4.525 m 37.654,19.607 c -108.499,-18.626 -221.867,-7.634 -331.72,0.043 -1.257,-0.585 -3.331,-0.7 -5.928,0.193 -0.291,0.1 -0.594,0.188 -0.89,0.288 -10.709,0.76 -21.413,1.523 -32.062,2.256 -3.369,0.238 -4.446,3.08 -1.154,2.882 6.665,-0.384 13.355,-0.783 20.051,-1.182 -31.082,8.216 -62.537,9.345 -93.216,15.122 -2.865,0.545 -3.209,3.133 -0.349,2.662 36.956,-6.106 73.02,-5.908 111.01,-17.385 1.49,-0.451 2.511,-1.048 3.13,-1.66 43.296,-2.79 86.614,-5.374 129.99,-7.017 -2.609,1.305 -3.936,3.289 -1.021,3.856 63.813,12.375 131.386,7.147 196.8,5.177 4.674,-0.135 9.106,-4.59 5.359,-5.235 M 52.419,36.5 l -104.851,0 c 12.914,-0.926 25.788,-1.601 38.474,-1.826 22.713,-0.392 44.555,0.727 66.377,1.826 m -574.973,-230.265 c 3.391,0.118 2.494,3.11 -0.872,3.098 -33.119,-0.228 -67.097,3.472 -101.24,7.175 -63.186,6.848 -126.944,13.699 -186.896,-4.358 -4.919,-1.475 -3.525,-5.178 2.357,-5.684 61.698,-5.487 124.258,-3.497 186.022,0.971 4.346,0.323 3.395,3.198 -0.096,3.858 33.986,-3.214 68.17,-6.174 100.725,-5.06 m -102.405,5.2 -0.206,0.005 c -55.978,-2.431 -110.414,-3.341 -166.39,-0.775 55.559,7.114 157.412,1.307 166.596,0.77 0.34,-0.007 0.744,-0.05 0.744,-0.05 0,0 -0.306,0.02 -0.744,0.05 M 738.902,-4.086 c -35.604,-0.755 -73.341,0.97 -110.184,1.858 -32.459,0.776 -64.473,0.74 -94.366,-1.68 -32.175,-2.617 -61.136,-9.305 -92.614,-12.478 -61.555,-6.206 -124.945,1.028 -186.558,8.963 -0.67,0.095 -1.344,0.183 -2.024,0.274 -0.642,0.077 -1.275,0.16 -1.927,0.243 l 0.296,-0.484 c -61.601,-8.978 -124.676,-14.66 -186.613,-8.996 -35.7,3.264 -72.217,9.861 -107.533,12.478 -32.782,2.42 -64.826,2.456 -96.357,1.68 -35.795,-0.888 -71.457,-2.613 -107.969,-1.858 -35.913,0.757 -72.144,3.697 -107.731,3.602 -73.522,-0.193 -147.293,-0.79 -218.388,9.287 -5.612,0.797 -7.484,-5.11 -1.915,-6.051 69.843,-11.783 142.949,-10.518 215.84,-10.165 38.196,0.196 77.174,-3.015 115.668,-3.502 34.175,-0.434 67.584,0.876 101.184,1.719 37.661,0.938 76.073,1.578 115.743,-2.85 31.987,-3.582 64.797,-9.239 97.034,-12.219 l 102.014,0 c 25.149,2.059 59.338,5.255 83.947,8.642 l -0.285,0.469 0.01,0 c 0.647,-0.078 1.307,-0.153 1.959,-0.234 0.667,-0.085 1.324,-0.165 1.976,-0.24 l 0.008,0 c 27.758,-3.382 55.849,-6.578 83.418,-8.637 l 102.009,0 c 28.693,2.98 54.755,8.637 82.467,12.219 34.37,4.428 73.554,3.788 112.336,2.85 34.609,-0.843 69.558,-2.153 103.226,-1.719 37.912,0.487 73.233,3.698 111.496,3.502 22.813,-0.105 46.06,-0.75 69.352,-0.966 l 0,7.353 c -27.453,-0.105 -54.94,0.472 -82.095,0.542 -35.612,0.095 -68.412,-2.845 -103.424,-3.602 m 86.546,-165.549 c -30.582,-0.469 -61.621,-0.201 -92.612,0.068 -21.759,0.188 -43.494,0.378 -65.027,0.311 -5.183,-0.018 -4.026,-2.84 -0.354,-4.606 -73.052,1.661 -146.313,2.468 -218.848,0.088 -31.247,-1.021 -63.939,-1.535 -96.142,-2.243 0.866,-1.432 1.681,-2.817 2.504,-4.167 35.933,0.387 72.543,0.344 107.37,1.122 85.994,1.904 173.242,-0.642 259.279,-2.353 67.295,-1.352 135.039,-0.816 202.803,-0.622 l 0,5.639 c -75.272,0.271 -177.256,0.715 -191.986,0.777 10.915,-0.047 68.863,-0.22 98.218,0.763 30.916,1.046 62.416,5.203 93.768,7.501 l 0,4.254 -6.612,0 c -30.896,-1.936 -60.359,-6.045 -92.361,-6.532 M 302.856,52.921 c -29.682,1.207 -59.155,1.53 -88.796,2.25 2.39,-3.973 4.924,-8.215 7.741,-12.924 l 519.416,0 c -31.191,1.959 -63.718,5.903 -93.868,6.545 -27.399,0.587 -55.036,0.273 -82.623,-0.038 -19.667,-0.223 -39.309,-0.444 -58.816,-0.341 -4.736,0.035 -7.631,2.855 -6.831,4.606 C 433.703,50.854 368.187,50.28 302.856,52.921 M -538.71,-10.488 c 6.019,-0.77 6.387,4.874 0.419,5.649 -26.779,3.494 -53.425,4.643 -79.677,3.695 1.12,-6.482 2.311,-13.366 3.736,-21.649 -0.426,2.486 -0.708,4.142 -1.2,7.012 36.259,-6.187 73.523,-6.979 110.39,-6.159 57.266,1.264 115.078,1.558 172.48,2.203 32.772,0.358 65.346,1.961 98.67,0.857 24.895,-0.817 50.151,-2.302 74.808,-2.202 28.904,0.12 55.286,3.025 85.462,0.123 12.95,-1.247 25.808,-2.569 38.479,-3.306 l 31.679,0 c 2.787,0.506 0.775,3.542 -2.534,3.326 -26.762,-1.733 -54.644,3.186 -82.46,5.027 -15.329,1.011 -29.837,0.499 -44.386,-0.015 -9.485,-0.333 -18.99,-0.667 -28.751,-0.579 -26.917,0.246 -54.206,1.936 -81.173,2.574 -28.445,0.669 -56.307,-0.515 -84.381,-0.736 -55.296,-0.444 -111.112,-0.356 -166.213,-1.515 -41.333,-0.883 -82.612,-0.732 -123.143,6.605 -0.174,0.991 -0.258,1.508 -0.431,2.506 25.764,1.009 51.891,-0.022 78.226,-3.416 m 446.678,36.64 c 52.517,-2.727 105.686,-2.669 158.351,-1.957 12.576,0.171 25.307,0.008 38.081,-0.155 31.071,-0.394 62.38,-0.79 92.253,3.6 2.526,0.363 -0.635,2.997 -3.126,2.661 -26.804,-3.65 -54.931,-3.005 -82.964,-2.36 -17.63,0.403 -35.225,0.807 -52.429,0.145 -49.833,-1.914 -100.74,0.587 -151.044,3.688 -5.913,0.361 -5.038,-5.316 0.878,-5.622 m 452.708,-215.886 c 0.426,-0.705 0.76,-1.267 1.089,-1.803 -0.356,0.592 -0.735,1.206 -1.089,1.803 m -1093.21,49.848 c 25.125,-0.155 50.404,-0.534 75.612,-1.916 13.736,-0.753 29.648,-1.119 42.643,-4.453 5.718,-1.47 9.082,3.09 3.352,4.503 -15.211,3.76 -33.697,4.054 -49.625,4.608 -24.39,0.86 -48.67,0.963 -72.96,0.662 -25.402,-0.311 -50.845,-0.755 -76.088,-2.137 -5.203,-0.283 -10.681,-0.522 -16.176,-0.85 l 0,-3.219 c 7.225,0.572 14.55,0.911 21.392,1.247 23.799,1.189 47.861,1.711 71.85,1.555 m 110.875,131.949 c -0.677,3.976 -1.306,7.681 -1.934,11.364 -40.379,-3.848 -82.084,-3.467 -124.096,-5.273 -25.936,-1.109 -51.984,-3.226 -78.087,-5.19 l 0,-5.534 c 0.882,0.73 2.296,1.269 4.356,1.239 66.541,-1.244 133.229,0.622 199.761,3.394 m -34.222,-7.415 c -55.573,-2.165 -111.154,-3.51 -166.122,-1.854 -1.744,0.047 -2.988,0.486 -3.773,1.076 l 0,-4.563 c 56.713,-3.572 114.104,-5.933 169.895,5.341 m 275.274,-49.231 c -52.885,2.563 -104.328,1.864 -156.988,-0.75 -0.323,-0.028 -0.591,0.025 -0.887,0.04 53.342,-4.844 104.892,-10.817 157.875,0.71 m -219.435,-70.341 c 0.871,-5.132 1.379,-8.055 2.143,-12.565 -1.553,9.121 -2.837,16.667 -4.174,24.536 0.212,-1.267 0.389,-2.313 0.663,-3.913 -74.738,7.689 -149.775,1.497 -224.366,-4.716 l 0,-4.789 c 75.138,4.811 150.694,10.152 225.734,1.447 m 1.709,58.335 c -0.519,2.287 1.84,4.535 7.066,3.941 79.975,-9.099 161.923,-19.743 242.431,-12.744 37.842,3.286 74.036,9.881 112.167,12.488 35.433,2.431 72.079,2.461 108.822,1.68 41.742,-0.883 84.055,-2.623 125.178,-1.856 40.441,0.745 79.416,3.693 120.171,3.597 54.293,-0.112 108.569,-0.102 162.932,1.491 -7.074,11.913 -13.356,22.476 -22.582,37.962 -275.442,-0.033 -550.879,-0.008 -826.322,0 115.116,0 230.226,-0.008 345.344,-0.008 -5.606,-0.193 -11.18,-0.481 -16.724,-0.943 -20.666,-1.726 -41.894,-3.158 -63.159,-3.349 -45.192,-0.391 -91.521,3.181 -136.504,3.648 -50.222,0.534 -101.172,-0.018 -152.212,-0.57 -47.346,-0.512 -94.769,-1.023 -141.76,-0.67 -15.154,0.118 -30.393,-0.042 -45.65,-0.2 -15.554,-0.161 -31.126,-0.324 -46.641,-0.193 l 0,-3.956 c 18.609,1.924 37.171,5.089 55.973,3.564 42.198,-3.432 85.211,-8.765 127.435,-10.074 92.742,-2.888 188.181,-2.261 280.826,-8.803 4.192,-0.291 4.616,-3.597 0.414,-3.532 -96.766,1.503 -194.172,2.077 -290.392,6.766 -21.766,1.063 -43.484,3.216 -65.01,5.835 -19.15,2.335 -39.919,6.183 -59.311,6.324 -16.446,0.113 -33.232,-2.268 -49.935,-3.582 l 0,-4.35 c 22.644,0.351 45.29,0.361 67.262,3.018 5.311,0.637 6.835,-3.696 1.906,-4.526 -21.867,-3.713 -45.66,-4.465 -69.168,-4.949 l 0,-4.438 c 61.74,2.067 124.342,3.728 185.302,0.063 4.052,-0.241 4.018,-3.517 -0.049,-3.465 -61.208,0.841 -123.555,-1.663 -185.253,-3.602 l 0,-10.074 c 59.356,0.699 118.438,2.857 176.725,8.529 3.3,0.323 4.721,-2.589 1.372,-2.88 -58.939,-5.168 -118.655,-8.452 -178.097,-9.992 l 0,-12.889 c 34.665,1.131 69.229,5.18 103.127,7.586 40.149,2.852 82.846,4.184 124.316,5.153 m 875.817,13.563 c -90.542,-1.969 -180.287,7.338 -269.825,13.161 -3.628,0.233 -4.486,3.165 -0.896,3.027 88.164,-3.642 177.026,-11.75 266.178,-8.549 1.816,-3.055 2.722,-4.583 4.543,-7.639 m -19.61,32.948 c 1.819,-3.043 2.732,-4.558 4.538,-7.613 -9.602,-0.291 -19.225,-0.818 -28.808,-1.395 -52.058,-3.073 -104.272,-4.769 -156.646,-5.434 7.987,-0.712 15.96,-1.041 23.415,-1.415 23.43,-1.174 46.84,-1.7 69.689,-1.547 23.954,0.16 47.941,0.554 71.02,1.921 7.997,0.479 16.93,0.816 24.915,1.842 1.184,-1.985 1.769,-2.973 2.95,-4.952 -9.051,-0.961 -18.995,-1.222 -27.985,-1.548 -22.813,-0.853 -46.083,-0.976 -69.606,-0.677 -24.607,0.316 -49.316,0.755 -74.324,2.149 -14.199,0.788 -30.136,1.142 -44.48,4.508 -3.941,0.921 -4.049,3.495 -0.271,3.53 64.107,0.627 128.5,5.902 192.386,9.959 4.402,0.281 8.802,0.489 13.207,0.672 m -116.057,0.04 c 0.505,-1.402 -0.674,-2.789 -3.9,-2.819 -99.21,-1.019 -199.686,-3.803 -298.102,1.349 -10.205,0.537 -20.483,1.167 -30.595,1.47 l 332.597,0 M -1.979,-49.03 c -56.345,2.621 -113.022,4.638 -168.637,2.825 -27.818,-0.914 -53.809,-7.122 -81.504,-9.638 -24.534,-2.233 -48.997,-2.722 -75.074,-0.615 -3.424,0.276 -3.848,3.126 -0.379,2.882 33.407,-2.365 65.572,-0.381 95.479,4.43 25.716,4.127 49.68,10.158 77.337,11.377 51.439,2.288 102.353,-0.933 152.549,-6.728 5.03,-0.58 5.02,-4.751 0.229,-4.533 m -383.813,4.224 c -13.415,0.136 -26.958,0.098 -40.533,0.058 -37.691,-0.108 -75.622,-0.216 -111.692,3.379 -3.236,0.324 -1.925,2.963 1.24,2.667 33.541,-3.063 68.963,-2.702 104.343,-2.341 17.628,0.181 35.245,0.359 52.615,0.116 56.629,-0.773 112.951,0.499 169.751,3.702 6.444,0.356 10.327,-5.31 3.865,-5.609 -59.591,-2.807 -119.963,-2.571 -179.589,-1.972 m 77.678,-23.776 c -6.791,-0.401 -13.596,-0.803 -20.39,-1.194 -3.353,-0.188 -5.2,2.646 -1.808,2.88 10.729,0.737 21.428,1.5 32.112,2.268 l 0.635,0.288 c 1.836,0.901 4.187,0.785 6.173,0.193 120.126,8.449 238.762,13.913 356.62,0.03 4.934,-0.587 6.578,-5.092 1.716,-5.233 -73.92,-2.18 -147.56,-4.189 -219.032,5.186 -3.798,0.491 -4.796,2.553 -3.592,3.858 -43.91,-1.628 -87.763,-4.215 -131.605,-7.017 0.017,-0.617 -0.429,-1.214 -1.555,-1.67 -28.428,-11.477 -68.174,-11.239 -102.567,-17.375 -2.68,-0.479 -4.889,2.125 -2.3,2.662 27.75,5.802 60.921,6.898 85.593,15.124 m -326.248,8.441 c 30.615,1.144 62.688,-1.841 94.988,-5.059 -3.341,0.662 -4.373,3.589 -0.32,3.863 58.518,3.913 117.111,5.265 174.819,0.973 5.551,-0.406 7.606,-4.548 3.489,-5.694 -83.215,-23.165 -182.39,1.723 -272.241,2.842 -3.109,0.04 -3.912,2.962 -0.735,3.075 m 31.99,-61.063 c -1.25,7.32 -2.558,15.028 -4.192,24.639 l -23.797,0 c -63.633,-1.249 -127.323,-1.423 -190.914,-2.065 -1.502,-0.022 -2.999,-0.05 -4.501,-0.063 l 0,-4.992 c 62.911,0.472 126.039,0.149 188.93,1.503 10.424,0.223 20.814,0.401 31.159,0.439 0.818,-4.806 1.23,-7.217 2.046,-12.026 -48.973,3.635 -98.408,3.314 -147.401,2.995 -14.347,-0.095 -28.657,-0.188 -42.906,-0.183 -10.561,0 -21.183,0.178 -31.828,0.434 l 0,-7.087 c 8.244,-0.185 16.49,-0.316 24.741,-0.286 66.044,0.211 132.558,1.312 198.663,-3.308 m 629.658,56.31 c -57.582,4.204 -113.807,5.707 -171.567,4.944 57.725,-4.731 113.634,-5.913 171.567,-4.944 M -619.435,7.36 c 0.451,-2.576 0.894,-5.155 1.345,-7.791 -0.485,2.827 -0.929,5.385 -1.345,7.791 m 0,0 c -0.583,3.409 -1.174,6.826 -1.801,10.426 0.581,-3.339 1.164,-6.713 1.801,-10.426 m -7.44,15.365 c -0.718,4.22 -1.485,8.718 -2.345,13.772 -28.922,0 -57.844,0 -86.766,-0.002 -36.595,-0.003 -73.192,-0.003 -109.79,0.002 l 0,-8.943 c 27.105,-0.108 54.202,-0.622 81.26,-1.723 38.868,-1.581 78.315,-1.616 117.641,-3.106 m 2.271,-13.363 c -0.642,3.785 -1.304,7.676 -2.009,11.798 0.12,-0.702 0.228,-1.362 0.382,-2.278 -42.364,0.868 -84.89,0.843 -127.104,1.646 -24.084,0.469 -48.259,0.549 -72.441,0.439 l 0,-5.281 c 66.985,1.149 134.053,0.474 201.172,-6.324 M -681.591,4.27 c -37.374,8.243 -82.693,2.388 -118.677,-1.112 -8.464,-0.832 -16.975,-1.477 -25.508,-2.057 l 0,-2.222 c 25.473,1.703 50.887,3.394 75.949,4.39 22.738,0.92 45.744,0.637 68.236,1.001 m 10.304,0.205 c 15.612,0.352 31.115,0.976 46.462,2.238 -67.477,6.465 -133.704,7.624 -200.951,5.526 l 0,-5.084 c 14.971,0.529 29.851,1.141 44.513,2.014 34.351,2.024 76.117,5.451 109.976,-4.694 m 43.412,-219.673 c 3.403,-0.291 5.01,2.348 1.539,2.671 -36.699,3.412 -75.268,3.319 -113.506,3.229 -16.969,-0.04 -33.873,-0.081 -50.52,0.185 -11.737,0.189 -23.559,0.337 -35.414,0.457 l 0,-3.871 c 9.405,-0.08 18.781,-0.218 28.075,-0.469 21.541,-0.569 43.681,-0.346 65.899,-0.12 35.137,0.353 70.467,0.71 103.927,-2.082 m 992.648,-8.67 8.436,0 c -0.888,1.488 -1.739,2.917 -2.574,4.312 -1.001,-1.746 -3.065,-3.153 -5.862,-4.312 m -307.562,1.106 c -17.116,1.909 -32.765,1.227 -47.618,-1.106 l 117.843,0 c -22.316,1.234 -44.422,2.162 -65.881,1.977 -1.936,-0.01 -3.364,-0.351 -4.344,-0.871 m -683.66,65.437 30.23,0 c -0.453,2.651 -0.872,5.107 -1.281,7.5 -20.301,-0.446 -41.193,0.397 -62.391,1.55 -55.135,2.978 -110.451,4.697 -165.885,5.391 l 0,-4.357 c 61.101,-1.741 122.774,-5.845 183.95,-9.375 5.152,-0.288 10.296,-0.526 15.377,-0.709 m 1407.29,67.377 c -35.492,2.905 -64.724,-0.01 -97.75,-0.13 -28.164,-0.103 -57.559,1.385 -86.323,2.203 -38.471,1.103 -75.192,-0.495 -112.582,-0.858 -60.856,-0.602 -121.859,-1.074 -182.79,-1.962 -0.53,0.873 -0.943,1.568 -1.35,2.24 0.469,-0.783 0.926,-1.543 1.402,-2.348 l 489.75,0 c -3.459,0.286 -6.911,0.577 -10.357,0.855 m -405.254,-124.681 0.053,-0.103 -0.053,0.103 m 7.26,-0.321 c 61.43,-2.125 122.96,-3.56 183.738,-1.851 7.24,0.203 2.21,5.99 -5.1,5.867 -63.153,-1.063 -126.367,0.201 -189.5,2.318 -2.471,4.109 -3.701,6.184 -6.161,10.28 3.05,-5.095 6.201,-10.368 9.763,-16.293 l 0.314,-0.022 -0.148,-0.264 -0.113,0.183 c 1.713,-2.875 3.524,-5.89 5.463,-9.136 l 8.442,0 c -4.17,1.159 -7.917,2.566 -11.015,4.32 -0.761,1.264 -1.137,1.896 -1.887,3.156 0.351,-0.166 0.79,-0.306 1.335,-0.409 17.911,-3.231 35.403,-5.534 52.504,-7.067 l 148.756,0 c 20.689,1.016 41.568,2.197 62.564,2.601 44.759,0.853 89.986,0.615 135.243,0.374 49.279,-0.261 98.592,-0.522 147.376,0.63 l 0,7.091 c -89.119,-1.567 -180.419,0.565 -268.395,-2.626 -91.172,-3.311 -180.868,-10.222 -273.179,0.848 m -14.083,-1.442 c -0.301,0.489 -0.597,1.003 -0.891,1.49 l -0.461,0.251 0.296,0.03 c -1.498,2.516 -2.926,4.916 -4.308,7.234 0.249,-0.404 0.459,-0.772 0.733,-1.229 -62.318,-1.781 -124.777,-3.02 -186.741,-2.318 -7.421,0.085 -5.652,-5.664 1.909,-5.867 60.103,-1.628 120.833,-0.334 181.528,1.851 -91.287,-12.781 -181.646,-3.981 -272.151,-0.848 -92.99,3.204 -189.365,0.853 -283.253,2.802 -3.334,0.068 -5.243,-0.87 -5.805,-2.077 -0.469,0.86 -1.824,1.633 -4.104,1.633 -10.915,0.01 -21.84,0.023 -32.737,0.043 -2.712,0.005 -3.921,-1.066 -3.773,-2.138 0.148,-1.068 1.653,-2.139 4.37,-2.137 10.927,0.02 21.852,0.05 32.779,0.058 1.819,0 2.89,0.499 3.379,1.141 0.474,-1.58 2.878,-3.151 6.952,-3.283 55.093,-1.669 110.896,-1.395 166.655,-1.122 45.593,0.226 91.156,0.449 136.271,-0.389 21.641,-0.404 43.764,-1.585 65.657,-2.601 l 148.768,0 c 15.285,1.533 30.056,3.836 44.064,7.062 0.434,0.095 0.702,0.248 0.863,0.414 m -937.036,35.135 c 5.498,-0.577 7.967,1.673 7.416,3.953 43.241,0.994 87.183,2.198 129.645,5.138 49.45,3.437 98.676,7.862 149.084,7.27 0.659,-0.537 1.698,-0.921 3.025,-0.911 47.645,0.173 96.736,-7.493 144.268,-9.051 21.81,-0.717 58.362,-0.815 80.982,-0.798 12.47,0.025 19.948,0.04 19.948,0.04 0,0 -8.047,-0.035 -19.948,-0.04 -44.374,-0.11 -152.057,-0.421 -211.977,-0.875 -80.691,-0.622 -162.405,-4.207 -242.837,-10.915 -3.537,-0.296 -1.901,-3.221 1.585,-2.898 106.071,9.686 214.322,9.074 322.269,8.459 55.813,-0.318 111.544,-0.637 166.851,0.47 85.02,1.685 171.366,4.179 256.452,2.353 35.983,-0.778 72.319,-0.735 108.719,-1.114 -2.223,3.738 -4.581,7.711 -7.162,12.036 1.452,-2.461 2.777,-4.676 4.693,-7.877 -33.048,0.708 -66.113,1.222 -98.833,2.248 -72.54,2.288 -145.718,1.613 -218.74,-0.093 1.568,1.766 -0.615,4.588 -5.858,4.606 -21.388,0.06 -42.972,-0.123 -64.583,-0.309 -30.973,-0.263 -62.005,-0.527 -92.594,-0.07 -32.918,0.487 -66.937,4.596 -100.163,6.532 l -138.684,0 c -12.594,-0.993 -25.247,-2.227 -37.509,-2.957 -59.02,-3.53 -119.343,-3.982 -179.111,-3.899 -1.315,0 -2.45,-0.145 -3.427,-0.363 -23.775,2.593 -47.7,5.14 -71.602,7.219 l -159.413,0 0,-5.923 c 1.875,0.179 3.739,0.359 5.618,0.525 83.922,6.906 168.43,-3.979 251.886,-12.756 m 908.32,13.117 c -0.891,1.493 -1.834,3.083 -2.998,5.037 1.046,-1.751 2.02,-3.406 2.998,-5.037 m -753.601,-53.849 c -49.781,0.278 -100.112,-0.208 -150.433,-0.695 -57.239,-0.554 -114.466,-1.109 -170.861,-0.539 -30.01,0.303 -60.5,1.756 -90.929,2.734 l 0,-3.379 573.787,0 c -3.189,0.246 -6.435,0.542 -9.55,0.707 -34.039,1.721 -69.124,1.503 -104.066,1.285 -16.053,-0.101 -32.074,-0.198 -47.948,-0.113 m -342.943,67.481 c -23.04,0.195 -46.149,0.499 -69.28,0.797 l 0,-3.614 75.289,0 c -0.413,1.392 -2.581,2.792 -6.009,2.817 m -19.221,-13.032 c -16.181,-2.682 -33.214,-4.135 -50.059,-5.896 l 0,-4.013 c 17.529,2.32 35.451,4.114 51.924,7.262 2.807,0.544 0.997,3.128 -1.865,2.647 m 144.888,143.28 c -2.391,0.338 -4.77,0.647 -7.171,1.043 -0.274,-0.364 -0.607,-0.697 -0.896,-1.043 l 8.067,0 M 695.789,-222.762 c -1.597,0.52 -3.429,0.861 -5.385,0.871 -21.669,0.185 -42.686,-0.743 -63.523,-1.977 l 117.836,0 c -17.625,2.333 -34.087,3.015 -48.928,1.106 m -348.138,54.815 c -0.948,1.563 -1.909,3.169 -2.91,4.844 1.122,-1.879 2.04,-3.406 2.91,-4.844 M 52.349,-210.731 c 66.533,-0.905 134.821,6.621 201.931,9.292 34.879,1.395 70.032,1.403 103.699,3.168 -0.752,1.252 -1.487,2.504 -2.23,3.746 -6.705,-0.251 -13.453,-0.459 -20.247,-0.6 -41.504,10.152 -86.134,6.718 -122.832,4.704 -60.051,-3.299 -123.219,-3.005 -182.728,-8.035 -5.059,-0.427 -1.816,-4.315 3.312,-4.185 53.698,1.338 109.118,1.33 161.123,6.209 41.956,3.934 86.774,7.953 129.892,1.109 -24.567,-0.356 -49.813,-0.088 -74.535,-1.008 -71.906,-2.672 -146.283,-10.243 -217.742,-9.862 -71.61,0.389 -146.102,3.706 -218.811,4.443 -35.175,0.351 -70.348,-0.183 -105.257,-1.069 -32.76,-0.812 -67.602,-0.504 -98.243,-5.456 -5.203,-0.845 -2.933,-5.165 2.741,-4.528 29.167,3.304 59.955,2.496 90.158,3.397 40.16,1.189 80.631,1.758 120.992,1.891 76.115,0.241 153.78,-2.19 228.777,-3.216 m 297.427,26.238 c -0.818,1.384 -1.651,2.784 -2.498,4.212 0.996,-1.696 1.7,-2.885 2.498,-4.212 M 702.921,-59.95 c -55.846,0.733 -110.036,-0.497 -165.659,-4.944 56.017,-0.924 109.904,-0.111 165.659,4.944 M 19.306,-200.769 c 4.648,0.324 1.663,4.089 -2.955,3.76 -21.83,-1.49 -44.166,-1.447 -67.26,0.073 -5.01,0.329 -4.117,-3.567 0.883,-3.896 23.824,-1.545 46.865,-1.517 69.332,0.063 m -62.436,12.272 c -77.866,-0.928 -157.346,-0.396 -235.189,-2.243 -78.732,-1.871 -159.075,-5.817 -237.603,-4.751 -4.341,0.065 -4.275,-3.219 0.056,-3.459 71.093,-3.999 143.896,-1.518 215.832,0.629 79.45,2.373 159.842,2.83 239.319,4.202 69.478,1.194 139.567,3.608 209.103,6.354 68.301,2.695 136.16,2.083 204.504,-1.969 -0.565,0.961 -1.137,1.912 -1.701,2.868 -131.71,8.366 -263.428,-0.078 -394.321,-1.631 m 171.717,112.086 c -42.786,-0.028 -86.418,-2.82 -129.327,-3.49 -38.522,-0.609 -78.275,0.708 -117.271,1.704 -43.13,1.098 -87.073,1.5 -129.952,-2.85 -25.562,-2.596 -50.857,-6.703 -76.672,-9.756 l 58.159,0 c 0.333,0.552 1.204,0.956 2.724,0.865 32.06,-1.768 59.747,3.206 89.983,5.043 16.627,1.013 33.65,0.499 50.723,-0.015 11.163,-0.336 22.349,-0.673 33.46,-0.58 30.579,0.241 60.336,1.932 90.645,2.574 31.951,0.672 64.796,-0.502 97.187,-0.753 63.756,-0.499 127.905,-0.005 191.48,-1.515 0.311,-0.007 0.629,-0.007 0.951,-0.012 -2.04,3.434 -3.951,6.64 -5.758,9.685 -40.338,-1.073 -80.814,-1.003 -121.028,-0.933 -11.793,0.02 -23.566,0.04 -35.304,0.033 m -402.1,95.524 c 2.995,0.248 1.543,3.191 -1.51,3.043 -101.879,-4.598 -198.324,-16.888 -299.811,4.5 30.198,6.344 62.114,5.599 95.843,3.261 46.827,-3.248 93.889,-5.396 140.92,-5.453 -6.45,-0.708 -13.17,-1.031 -19.397,-1.398 -19.582,-1.184 -39.625,-1.708 -59.713,-1.552 -21.029,0.148 -42.264,0.524 -63.464,1.911 -11.558,0.748 -24.892,1.137 -36.009,4.468 -4.885,1.467 -7.293,-3.093 -2.384,-4.508 13.03,-3.745 28.574,-4.064 42.002,-4.611 20.56,-0.845 40.987,-0.958 61.313,-0.67 21.256,0.307 42.517,0.756 63.315,2.143 11.778,0.782 25.432,1.151 35.434,4.493 2.752,0.933 0.888,3.512 -2.431,3.552 -50.081,0.607 -100.422,4.28 -150.498,8.205 -33.082,0 -66.166,0.003 -99.253,0 -8.307,-1.294 -16.513,-3.025 -24.591,-5.353 -5.078,-1.455 -4.233,-6.053 0.885,-7.548 102.126,-29.737 210.118,-13.316 319.349,-4.483 M 52.615,13.888 c 61.292,1.186 122.79,1.55 184.167,3.328 l -0.055,0.091 0.015,0 c 0.647,-0.015 1.307,-0.023 1.962,-0.045 0.562,-0.005 1.116,-0.01 1.676,-0.028 59.174,-1.415 118.46,-2.27 177.512,-3.346 3.7,-0.078 1.909,3.231 -1.897,3.529 -59.298,4.548 -119.812,6.046 -180.051,7.21 -0.7,0.015 -1.402,0.03 -2.099,0.035 -0.504,0.02 -1.021,0.028 -1.523,0.038 -2.832,4.723 -4.242,7.079 -7.072,11.8 2.569,-4.295 4.9,-8.188 7.095,-11.858 C 171.607,23.749 110.44,23.054 50.294,17.417 46.863,17.094 49.005,13.81 52.615,13.888 M -619.036,-23.33 c -0.598,3.49 -1.146,6.741 -1.671,9.796 -9.674,-0.534 -19.358,-1.046 -29.051,-1.517 1.124,-0.653 1.393,-1.751 -0.38,-2.16 -14.047,-3.266 -28.366,-5.522 -42.867,-7.049 l 37.272,0 c 3.958,1.535 6.957,3.494 8.282,6.095 1.012,1.997 5.098,2.567 8.366,1.503 6.323,-2.07 12.92,-3.617 19.721,-4.759 0.13,-0.78 0.225,-1.292 0.328,-1.909 M 571.196,54.828 c 20.322,0.01 53.076,-0.101 72.744,-0.816 44.336,-1.603 90.324,-9.201 134.723,-9.041 1.184,0 2.371,-0.386 3.296,-0.928 43.577,-2.872 87.183,3.838 129.573,7.285 4.252,0.341 8.562,0.665 12.889,0.969 l 0,10.184 C 869.729,58.064 814.791,56.17 760.37,55.693 706.965,55.229 610.962,54.93 571.196,54.828 M -400.109,36.129 c 81.56,-1.24 162.725,-2.557 244.256,0.371 -82.159,0 -164.315,0 -246.468,-0.003 0.662,-0.208 1.387,-0.358 2.212,-0.368 m 131.154,-11.638 c -3.931,-0.654 -0.78,-4.771 3.211,-4.518 48.13,3.058 96.939,5.145 145.174,2.823 25.57,-1.237 52.394,-7.125 78.516,-9.641 23.112,-2.233 44.886,-2.734 66.036,-0.612 2.777,0.281 1.006,3.126 -1.846,2.87 -27.389,-2.356 -57.005,-0.377 -86.78,4.435 -25.602,4.142 -51.059,10.13 -76.163,11.394 -42.793,2.16 -86.066,0.291 -128.148,-6.751 M 824.457,-106.903 c -28.492,0.635 -57.702,2.328 -85.856,2.576 -10.215,0.086 -20.021,-0.253 -29.807,-0.592 -15.006,-0.519 -29.965,-1.038 -46.273,-0.025 -29.622,1.839 -59.883,6.809 -87.251,5.052 -3.357,-0.208 -6.176,2.825 -3.414,3.327 l -76.557,0 c 33.871,-2.985 69.182,-8.632 103.569,-12.212 42.661,-4.445 83.062,-3.795 122.268,-2.86 34.985,0.843 69.425,2.145 105.458,1.716 32.098,-0.384 65.427,-2.443 97.827,-3.206 l 0,7.034 c -4.051,-0.022 -8.105,-0.04 -12.153,-0.075 -29.17,-0.223 -57.758,-1.41 -87.811,-0.735 M -664.016,67.772 c -0.27,-0.023 -0.51,-0.068 -0.813,-0.045 -48.381,2.445 -98.289,5.11 -147.294,0.747 48.663,-10.897 99.099,-7.526 148.107,-0.702 m 51.996,-7.345 c 4.704,0.579 7.683,-1.661 7.989,-3.951 39.194,-0.976 79.875,-2.306 118.293,-5.148 45.311,-3.351 91.938,-10.022 138.282,-7.285 0.276,0.542 0.953,0.951 2.188,0.928 43.626,-0.928 81.418,8.126 123.908,9.041 29.827,0.652 89.845,0.768 89.845,0.768 0,0 -139.379,0.319 -208.265,0.913 -73.626,0.632 -148.151,4.325 -221.573,10.927 -3.246,0.289 -2.947,3.201 0.265,2.89 95.369,-9.48 192.781,-8.94 289.923,-8.401 49.911,0.276 99.749,0.552 149.2,-0.529 76.547,-1.663 154.431,-4.157 230.837,-2.366 31.049,0.738 63.758,0.75 95.778,1.129 -1.36,2.29 -2.687,4.505 -3.964,6.675 -117.088,-8.519 -234.396,0 -350.644,1.638 -69.209,0.976 -140.107,0.414 -209.361,2.258 -70.065,1.852 -141.716,5.82 -211.547,4.736 -3.767,-0.052 -4.985,3.174 -1.254,3.472 62.739,4.872 126.744,1.623 189.358,-0.647 70.431,-2.536 142.071,-2.988 212.931,-4.197 63.246,-1.086 127.05,-4.054 189.982,-6.354 59.86,-2.193 118.696,-1.829 178.827,1.964 -0.958,1.606 -1.919,3.206 -2.867,4.812 -6.174,0.245 -12.322,0.441 -18.453,0.589 -25.307,-10.152 -68.359,-6.735 -103.269,-4.693 -55.236,3.226 -113.423,3.105 -168.117,8.012 -4.872,0.434 -5.213,4.322 -0.625,4.197 48.627,-1.305 98.246,-1.548 146.677,-6.204 36.994,-3.547 85.076,-9.357 115.247,-1.119 -21.978,0.359 -44.031,0.219 -66.538,1.014 -66.164,2.315 -133.371,11.058 -199.45,9.851 -61.909,-1.129 -125.208,-3.64 -187.393,-4.428 -30.514,-0.386 -61.571,0.176 -92.534,1.051 -29.048,0.831 -59.366,0.51 -88.347,5.459 -4.919,0.84 -5.032,5.178 0.181,4.53 26.801,-3.308 53.121,-2.493 79.802,-3.391 35.477,-1.192 70.853,-1.671 106.146,-1.891 65.353,-0.419 131.211,1.056 196.003,3.223 61.164,2.045 123.251,-6.643 184.333,-9.294 31.668,-1.38 62.639,-1.392 94.104,-3.154 -1.969,3.319 -4.001,6.726 -6.141,10.321 -54.82,1.761 -109.808,3.073 -164.219,2.318 -6.294,-0.088 -10.19,5.669 -3.946,5.872 52.329,1.698 105.325,0.264 158.289,-1.861 -80.297,10.044 -156.503,4.169 -235.445,0.86 -78.976,-3.308 -162.045,-1.008 -242.264,-2.814 -2.825,-0.063 -5.095,0.87 -6.354,2.082 0.155,-0.876 -0.527,-1.628 -2.496,-1.628 -9.412,-0.02 -18.83,-0.038 -28.244,-0.045 -2.336,-0.003 -4.024,1.066 -4.546,2.134 -0.519,1.069 0.128,2.138 2.469,2.135 9.409,-0.015 18.819,-0.032 28.226,-0.037 1.563,0 2.812,-0.5 3.637,-1.149 -0.581,1.575 0.495,3.158 3.886,3.286 47.267,1.789 95.394,1.482 143.494,1.174 38.569,-0.246 77.121,-0.492 115.193,0.344 18.057,0.391 36.064,1.575 53.837,2.583 l -40.739,0 c -17.962,-1.239 -36.119,-2.157 -54.647,-1.989 -1.671,0.02 -3.173,0.374 -4.46,0.883 -13.032,-1.901 -27.073,-1.224 -41.65,1.106 l -223.653,0 c -2.581,-0.248 -5.192,-0.516 -7.754,-0.712 -28.577,-2.132 -57.79,-1.773 -86.934,-1.412 -14.242,0.175 -28.468,0.351 -42.595,0.235 -44.141,-0.356 -88.715,0.154 -133.21,0.663 -47.714,0.547 -95.337,1.094 -142.236,0.569 -18.861,-0.208 -37.984,-1.053 -57.152,-1.874 l 0,-8.411 c 1.61,0.023 3.205,0.033 4.817,0.073 17.313,0.384 34.756,0.047 52.176,-0.289 31.681,-0.612 63.29,-1.221 93.926,2.494 2.869,0.341 5.015,-2.278 2.09,-2.664 -32.687,-4.275 -66.616,-3.916 -100.324,-3.56 -13.718,0.143 -27.399,0.288 -40.945,0.12 -3.908,-0.05 -7.83,-0.085 -11.74,-0.13 l 0,-6.071 c 82.916,5.925 167.698,5.948 251.162,8.221 39.843,1.096 76.98,6.871 115.691,10.074 13.498,1.116 27.77,-0.582 42.004,-2.28 15.176,-1.811 30.309,-3.622 44.418,-2.019 2.478,0.283 4.269,-2.293 1.833,-2.637 -14.835,-2.097 -31.379,-0.432 -47.88,1.234 -11.377,1.147 -22.734,2.296 -33.498,2.21 -18.099,-0.138 -36.172,-3.976 -53.266,-6.311 -19.224,-2.619 -38.839,-4.789 -58.782,-5.85 -86.637,-4.588 -174.447,-5.226 -261.682,-6.623 l 0,-5.188 c 53.168,4.22 107.379,2.607 161.525,-1.164 3.895,-0.276 3.944,-3.196 1.041,-3.865 29.125,3.218 58.108,6.201 87.173,5.064 3.028,-0.122 3.324,-3.05 0.404,-3.088 -83.033,-1.056 -171.512,-23.42 -250.143,-3.788 l 0,-11.539 c 10.995,-1.483 21.987,-2.993 32.497,-5.16 2.624,-0.547 1.413,-3.131 -1.247,-2.652 -10.248,1.824 -20.753,3.098 -31.25,4.27 l 0,-3.803 c 70.5,-3.678 141.781,4.415 213.756,13.263 m 446.399,19.569 c 19.634,1.545 39.723,1.503 60.67,-0.068 4.327,-0.323 4.836,-4.084 0.526,-3.76 -20.382,1.508 -39.879,1.452 -58.961,-0.063 -4.147,-0.336 -6.345,3.56 -2.235,3.891 m 942.47,-280.828 c 4.594,0.329 0.863,4.225 -3.765,3.896 -21.258,-1.52 -43.556,-1.563 -67.185,-0.073 -4.995,0.329 -3.497,-3.436 1.538,-3.76 24.346,-1.58 47.435,-1.608 69.412,-0.063 M 187.125,88.809 c 0.206,-0.346 0.406,-0.688 0.612,-1.036 -0.236,0.389 -0.422,0.7 -0.612,1.036 m 20.008,-33.638 c -28.768,-0.72 -57.9,-1.048 -86.119,-2.25 -65.313,-2.752 -130.9,-1.992 -196.319,0.098 2.907,-1.751 3.351,-4.576 -1.325,-4.606 -19.571,-0.105 -39.284,0.121 -59.024,0.349 -27.677,0.316 -55.404,0.632 -82.871,0.04 -29.227,-0.637 -57.218,-4.596 -86.087,-6.555 l -125.707,0 c -11.938,1.001 -23.913,2.233 -35.409,2.968 -53.783,3.436 -108.751,4.026 -163.178,3.911 -1.173,0 -2.236,0.133 -3.19,0.363 -20.568,-2.601 -41.455,-5.142 -62.572,-7.242 l -131.108,0 c 346.866,0.01 693.734,0.025 1040.593,0 -2.792,4.709 -5.316,8.951 -7.684,12.924 m -23.254,38.652 0.278,-0.035 c 1.204,-2.022 1.919,-3.231 2.968,-4.979 -1.024,1.708 -2.06,3.454 -3.141,5.275 l -0.105,-0.261 M 308.701,58.214 c 75.513,-1.711 152.494,0.738 228.015,2.366 47.71,1.036 95.96,0.629 144.303,0.223 81.569,-0.685 163.411,-1.37 243.402,4.874 l 0,8.983 C 870.688,74.048 816.339,71.374 762.934,69.914 694.603,68.033 624.563,68.64 556.262,67.656 440.577,65.983 324.196,58.214 207.572,66.018 c -0.644,1.087 -0.993,1.669 -1.61,2.682 1.816,-3.028 3.67,-6.121 5.607,-9.362 32.481,-0.381 64.914,-0.386 97.132,-1.124 M 205.962,68.7 l -0.103,0.188 0.103,-0.188 m 495.274,-274.893 c -75.265,-0.434 -153.681,7.177 -229.51,9.862 -25.555,0.91 -50.764,0.652 -75.749,1.008 43.33,7.385 88.823,2.496 131.231,-1.109 54.644,-4.661 112.387,-4.846 168.531,-6.209 5.299,-0.13 4.099,3.671 -1.678,4.185 -63.71,5.664 -128.569,4.287 -192.335,8.035 -40.055,2.35 -87.841,5.448 -117.223,-4.704 -6.969,0.141 -13.948,0.344 -20.955,0.595 0.745,-1.242 1.498,-2.496 2.245,-3.758 35.775,-1.756 71.337,-1.623 107.468,-3.151 70.418,-2.967 143.017,-10.28 213.026,-9.292 73.71,1.044 150.098,3.457 224.944,3.216 4.39,-0.017 8.79,-0.057 13.19,-0.082 l 0,5.882 c -3.215,-0.01 -6.474,0 -9.678,-0.035 -70.945,-0.72 -143.653,-4.039 -213.507,-4.443 M 183.099,95.557 c -0.61,1.041 -1.235,2.079 -1.879,3.163 -2.777,1.738 -6.121,3.148 -9.784,4.307 l -34.984,0 c 14.682,-1.53 29.799,-3.82 45.483,-7.064 0.469,-0.098 0.853,-0.238 1.164,-0.406 m 8.097,-1.734 -0.419,0.261 c -0.346,0.585 -0.524,0.883 -0.883,1.473 0.128,0.168 0.337,0.308 0.703,0.406 11.775,3.226 24.17,5.534 37.026,7.064 l -34.994,0 c -2.271,-1.159 -3.914,-2.569 -4.629,-4.312 -1.026,1.719 -1.545,2.587 -2.586,4.312 1.969,-3.288 3.798,-6.326 5.537,-9.239 l 0.245,0.035 m 553.731,2.231 c 15.895,-1.588 28.849,0.228 41.799,2.047 12.322,1.728 24.636,3.456 39.472,2.252 32.501,-2.644 65.507,-6.341 98.223,-8.544 l 0,9.339 c -21.701,-0.135 -43.363,-0.183 -64.909,-0.01 -14.266,0.116 -28.613,-0.042 -42.977,-0.198 -29.436,-0.323 -58.939,-0.644 -87.956,1.375 -2.817,0.211 -5.732,0.464 -8.602,0.712 l -223.667,0 c -11.788,-2.33 -24.996,-3.007 -40.313,-1.106 -0.665,-0.509 -1.761,-0.863 -3.417,-0.883 -18.322,-0.168 -37.571,0.75 -57.017,1.989 l -40.737,0 c 18.977,-1.008 38.241,-2.187 56.93,-2.583 38.449,-0.818 77.344,-0.59 116.262,-0.364 48.326,0.283 96.681,0.567 144.246,-1.154 3.595,-0.136 6.502,-1.711 7.802,-3.286 0.062,0.649 0.69,1.149 2.243,1.149 9.402,0.005 18.799,0.022 28.186,0.037 2.338,0.003 4.264,-1.066 5.022,-2.135 0.76,-1.068 0.349,-2.137 -1.987,-2.134 -9.434,0.007 -18.877,0.025 -28.299,0.045 -1.979,0 -3.562,0.76 -4.468,1.633 0.206,-1.209 -0.918,-2.15 -3.84,-2.087 -81.366,1.776 -165.391,-0.356 -245.628,2.814 -78.325,3.101 -155.181,10.79 -234.424,-0.86 52.238,2.205 104.412,3.469 156.096,1.861 6.555,-0.203 9.505,-5.96 3.048,-5.872 -53.526,0.72 -107.563,-0.515 -161.462,-2.313 -0.251,0.414 -0.457,0.752 -0.665,1.114 3.148,-5.263 6.021,-10.065 8.87,-14.826 -0.752,1.252 -1.201,2.022 -2.019,3.386 29.365,1.762 60.394,1.526 90.354,3.154 57.09,3.09 116.569,9.836 173.24,9.294 64.925,-0.625 133.16,-3.65 199.813,-3.223 35.038,0.22 69.841,0.699 103.898,1.891 25.61,0.898 52.909,0.083 75.767,3.391 4.437,0.648 9.497,-3.69 5.589,-4.53 -23.066,-4.954 -53.779,-4.628 -81.85,-5.459 -29.907,-0.875 -60.336,-1.337 -91.262,-1.051 -64.165,0.595 -128.848,3.259 -192.679,4.428 -62.434,1.136 -125.404,-7.591 -187.682,-9.851 -21.712,-0.795 -43.797,-0.655 -65.338,-1.014 39.996,-8.238 81.473,-2.358 113.917,1.119 45.784,4.909 93.103,4.922 139.253,6.204 4.413,0.125 8.602,-3.773 4.385,-4.197 -51.235,-5.19 -106.574,-4.731 -158.537,-8.012 -31.836,-2.015 -71.449,-5.459 -108.875,4.693 -5.963,-0.148 -11.883,-0.344 -17.76,-0.584 0.955,-1.611 1.919,-3.211 2.887,-4.817 60.916,-3.572 120.527,-4.242 181.16,-1.964 60.479,2.263 121.886,5.107 182.401,6.354 68.943,1.423 139.196,1.613 207.934,4.197 48.621,1.831 97.97,3.939 147.067,2.637 l 0,6.364 c -13.215,1.109 -26.61,2.491 -40.132,4.074 -19.89,2.338 -42.525,6.173 -60.803,6.311 -10.862,0.086 -20.848,-1.063 -30.855,-2.21 -14.515,-1.666 -29.072,-3.331 -46.401,-1.234 -2.858,0.344 -4.125,2.92 -1.303,2.637 M 559.629,76.105 c -20.917,1.515 -40.471,1.571 -59.052,0.063 -3.923,-0.324 -7.92,3.432 -3.979,3.76 19.078,1.571 39.117,1.613 60.6,0.068 4.501,-0.331 6.961,-4.227 2.431,-3.891"
             style="fill:#f8f1e4;fill-opacity:1;fill-rule:nonzero;stroke:none"
             id="path9286"
             inkscape:connector-curvature="0" />
        </g>
      </g>
    </g>
  </g>
</svg>
