<?xml version="1.0" encoding="UTF-8" standalone="no"?>
<!-- Created with Inkscape (http://www.inkscape.org/) -->

<svg
   xmlns:dc="http://purl.org/dc/elements/1.1/"
   xmlns:cc="http://creativecommons.org/ns#"
   xmlns:rdf="http://www.w3.org/1999/02/22-rdf-syntax-ns#"
   xmlns:svg="http://www.w3.org/2000/svg"
   xmlns="http://www.w3.org/2000/svg"
   xmlns:sodipodi="http://sodipodi.sourceforge.net/DTD/sodipodi-0.dtd"
   xmlns:inkscape="http://www.inkscape.org/namespaces/inkscape"
   width="95.586983mm"
   height="153.50906mm"
   viewBox="0 0 338.69403 543.92975"
   id="svg10579"
   version="1.1"
   inkscape:version="0.91 r"
   sodipodi:docname="table.svg">
  <defs
     id="defs10581" />
  <sodipodi:namedview
     id="base"
     pagecolor="#ffffff"
     bordercolor="#666666"
     borderopacity="1.0"
     inkscape:pageopacity="0.0"
     inkscape:pageshadow="2"
     inkscape:zoom="0.98994949"
     inkscape:cx="214.07972"
     inkscape:cy="299.54011"
     inkscape:document-units="px"
     inkscape:current-layer="layer1"
     showgrid="false"
     fit-margin-top="0"
     fit-margin-left="0"
     fit-margin-right="0"
     fit-margin-bottom="0"
     inkscape:showpageshadow="false"
     inkscape:window-width="1366"
     inkscape:window-height="744"
     inkscape:window-x="0"
     inkscape:window-y="24"
     inkscape:window-maximized="1" />
  <metadata
     id="metadata10584">
    <rdf:RDF>
      <cc:Work
         rdf:about="">
        <dc:format>image/svg+xml</dc:format>
        <dc:type
           rdf:resource="http://purl.org/dc/dcmitype/StillImage" />
        <dc:title></dc:title>
      </cc:Work>
    </rdf:RDF>
  </metadata>
  <g
     inkscape:label="Layer 1"
     inkscape:groupmode="layer"
     id="layer1"
     transform="translate(243.14073,-166.7543)">
    <path
       d="m 63.920691,689.98403 c 0,11.43125 -61.7862504,20.7 -138.005,20.7 -76.217501,0 -138.003751,-9.26875 -138.003751,-20.7 0,-11.43375 61.78625,-20.7 138.003751,-20.7 76.2187496,0 138.005,9.26625 138.005,20.7"
       style="fill:#34393e;fill-opacity:1;fill-rule:nonzero;stroke:none"
       id="path4651"
       inkscape:connector-curvature="0" />
    <path
       d="m 95.228071,381.14743 c -0.71875,22.0475 -76.0825,39.86875 -168.97875,39.86875 -92.472501,0 -167.552501,-17.6575 -168.948751,-39.56875 -0.91125,4.89375 -0.12875,10.60875 -0.12875,13.565 0,21.5725 71.12625,39.1675 161.126251,40.13875 l 0,185.67 0,3.2825 c -11.25,1.88625 -32.341251,8.97 -43.458751,35.3575 -10.0125,23.765 -20.2175,23.765 -33.17875,23.765 -5.17625,0 -15.795,-6.0525 -19.3175,-14.0975 -2.20625,-5.03875 -1.1425,-9.645 3.33375,-14.49375 5.6775,-6.15 11.565,-7.74625 15.7475,-4.2675 1.83625,1.53 3.80625,4.8225 1.705,7.6225 -2.4825,3.31 -1.81,8.0025 1.49875,10.485 3.31,2.485 8.0025,1.81125 10.48375,-1.49625 6.5025,-8.66875 4.74,-20.75625 -4.0975,-28.1175 -8.7675,-7.305 -23.4025,-8.395 -36.335,5.615 -8.51375,9.2225 -10.65875,20.1125 -6.04,30.66 6.0425,13.79875 21.96875,23.0675 33.05375,23.0675 13.98625,0 33.075,0 46.94875,-32.9275 7.6275,-18.1075 20.906251,-24.02 29.656251,-25.9475 l 0,26.42375 c 0,4.135 3.36375,7.48875 7.5,7.48875 4.13625,0 7.5,-3.35375 7.5,-7.48875 l 0,-26.39875 c 8.75,1.92125 22.4475,7.79625 30.08375,25.9225 13.86875,32.9275 33.1387496,32.9275 47.19,32.9275 11.11,0 27.085,-9.28375 33.13625,-23.105 4.6125,-10.5375 2.4775,-21.4125 -6.02375,-30.6225 -12.9775,-14.06 -27.7062504,-12.92375 -36.5462504,-5.55875 -8.8425,7.365 -10.625,19.4275 -4.15,28.06125 2.48249998,3.30625 7.18,3.98125 10.485,1.49625 3.3087504,-2.4825 3.9800004,-7.175 1.4975,-10.485 -2.0675,-2.755 -0.0825,-6.0325 1.7550004,-7.56375 4.27375,-3.56375 10.24125,-1.985 15.96,4.20875 4.4625,4.835 5.5175,9.42875 3.31625,14.45625 -3.5325,8.06625 -14.20625,14.135 -19.40375,14.135 -13.0462504,0 -23.40375,0 -33.41375,-23.7625 -11.13875,-26.44125 -32.63625,-33.50125 -43.88625,-35.37125 l 0,-3.27125 0,-185.665 c 90,-0.8925 161.91125,-18.52 161.91125,-40.14375 0,-3.53 0.76125,-8.70875 0.0188,-13.865"
       style="fill:#8fab9d;fill-opacity:1;fill-rule:nonzero;stroke:none"
       id="path4683"
       inkscape:connector-curvature="0" />
    <path
       d="m -73.750559,421.01623 c 92.89625,0 168.26,-17.82125 168.97875,-39.86875 0.005,-0.105 0.0337,-0.21 0.0337,-0.315 0,-2.1075 -0.6875,-4.175 -2.0025,-6.1925 -2.0125,-3.09625 -5.54625,-6.07375 -10.3575,-8.89375 -25.0937,-14.71625 -85.7562004,-25.09875 -156.65245,-25.09875 -93.343751,0 -169.013751,17.9925 -169.013751,40.185 0,0.20625 0.0525,0.40875 0.065,0.615 1.39625,21.91125 76.47625,39.56875 168.948751,39.56875"
       style="fill:#ffffe4;fill-opacity:1;fill-rule:nonzero;stroke:none"
       id="path4687"
       inkscape:connector-curvature="0" />
    <path
       d="m -147.66994,376.19323 c 0,0 -4.03125,1.8975 -15.28125,2.11625 l 0,0.0225 c 0,0 -0.855,-0.008 -1.1925,-0.0113 -0.37625,0.004 -0.0575,0.0113 -1.3075,0.0113 l 0,-0.0263 c -10,-0.2425 -14.76,-2.1125 -14.76,-2.1125 -3.19375,-2.33 -5.78875,-4.89625 -8.0525,-7.61375 -9.03375,1.6775 -14.73375,4.2025 -14.73375,7.02625 0,5.05 18.41625,9.14625 41.1,9.14625 22.68375,0 41.08625,-4.09625 41.08625,-9.14625 0,-3.1625 -7.2225,-5.95 -18.18,-7.5925 -2.38,2.92875 -5.265,5.6875 -8.67875,8.18"
       style="fill:#78463f;fill-opacity:1;fill-rule:nonzero;stroke:none"
       id="path4691"
       inkscape:connector-curvature="0" />
    <path
       d="m -132.92418,338.61813 c 0,-5 -13.41125,-9.05125 -29.95375,-9.05125 -16.5425,0 -29.95375,4.05125 -29.95375,9.05125 0,4.99625 13.41125,9.0475 29.95375,9.0475 16.5425,0 29.95375,-4.05125 29.95375,-9.0475"
       style="fill:#78463f;fill-opacity:1;fill-rule:nonzero;stroke:none"
       id="path4695"
       inkscape:connector-curvature="0" />
    <path
       d="m -192.83206,338.61813 c 0,-5 13.41125,-9.05125 29.955,-9.05125 16.54125,0 29.9525,4.05125 29.9525,9.05125 0,4.99625 -13.41125,9.0475 -29.9525,9.0475 -16.54375,0 -29.955,-4.05125 -29.955,-9.0475 m 71.81375,3.4025 c 1.15,0.465 1.92375,1.88 2.2975,4.20125 1.00125,6.20625 -4.42375,12.0875 -10.035,14.47125 -1.84625,0.78375 -4.13875,1.29625 -5.92875,0.92375 2.8175,-5.23625 4.285,-10.79375 4.5325,-16.2725 3.77375,-2.80625 7.26875,-4.08125 9.13375,-3.32375 m -12.36,24.02 c 1.93125,0 4.0725,-0.46375 6.295,-1.40875 7.28625,-3.095 13.95,-10.64625 12.5875,-19.09125 -0.62875,-3.90125 -2.2825,-6.41875 -4.915,-7.48625 -3.51375,-1.4225 -7.74875,0.305 -10.91,2.2275 -1.29875,-11.4525 -22.63125,-13.43 -32.63125,-13.63625 l 0,-0.0213 c 0,0 -0.53875,0.003 -0.85375,0.006 -0.315,-0.004 -0.59625,-0.006 -0.8725,-0.006 l 0.002,0.0213 c -9.5375,0.20875 -31.43875,2.2125 -32.44,13.88625 -0.81125,9.46 1.8725,19.53 8.95875,28.0475 2.26375,2.71875 4.75,5.28375 7.94375,7.61375 0,0 4.76125,1.87 14.76125,2.1125 l 0,0.0263 c 1.25,0 0.93125,-0.007 1.30875,-0.0113 0.3375,0.004 1.19125,0.0113 1.19125,0.0113 l 0,-0.0225 c 11.25,-0.21875 15.2825,-2.11625 15.2825,-2.11625 3.41375,-2.4925 6.305,-5.25125 8.685,-8.18 0.705,-0.8675 1.365,-1.75375 1.98125,-2.6475 1.08625,0.42875 2.3025,0.675 3.625,0.675"
       style="fill:#d0715a;fill-opacity:1;fill-rule:nonzero;stroke:none"
       id="path4699"
       inkscape:connector-curvature="0" />
    <path
       d="m -5.58991,280.40155 c 1.31375,0.50375 2.0700003,1.0675 2.0700003,1.6675 0,1.31 -3.5300003,2.46125 -8.8675003,3.13 -0.61625,0.23 -1.2425,0.43875 -1.88625,0.62 -2.34375,-10e-4 -4.685,0.0925 -7.05375,0.205 -5.4375,0.255 -9.7275,0.11125 -15.35625,-1.015 -0.09,-0.0812 -0.17375,-0.19625 -0.2625,-0.285 -3.58,-0.67625 -5.8,-1.61625 -5.8,-2.655 0,-0.685 0.97875,-1.325 2.66,-1.87875 -0.30625,-0.6475 -0.55875,-1.31 -0.7725,-1.9875 -3.51875,1.0575 -5.99125,2.665 -5.45375,5.11375 1.605,7.30875 7.22125,9.9825 13.64,14.2625 6.41875,4.28 6.0175,17.685 2.27375,36.925 -2.79,14.335 -12.62125,35.5 -5.95375,45.36375 -3.92,0.68625 -6.39375,1.6675 -6.39375,2.7625 0,2.0675 8.78125,3.745 19.61375,3.745 10.83125,0 19.6125003,-1.6775 19.6125003,-3.745 0,-1.03375 -2.1975003,-1.9725 -5.7500003,-2.64875 6.8137503,-9.81875 -3.085,-31.09 -5.885,-45.4775 -3.74375,-19.24 -4.145,-32.645 2.27375,-36.925 6.41875,-4.28 12.0350003,-6.95375 13.6400003,-14.2625 0.5075,-2.31375 -1.6675,-3.87625 -4.8750003,-4.93375 -0.25375,0.2325 -0.46875,0.4975 -0.74375,0.71125 -0.1675,0.44875 -0.4225,0.88375 -0.73,1.3075"
       style="fill:#5f6e66;fill-opacity:1;fill-rule:nonzero;stroke:none"
       id="path4745"
       inkscape:connector-curvature="0" />
    <path
       d="m -11.49254,263.00035 c 0.58375,-1.83875 1.19875,-3.6675 1.83875,-5.485 0.37,0.12 0.77375,0.12375 1.115,-0.0375 -0.96,1.825 -1.96625,3.6625 -2.95375,5.5225 m -1.05875,-12.0325 c -0.29,0.29 -0.6375,0.5275 -1.02875,0.71 0.0238,0.28625 0.0337,0.57375 0.05,0.88 0.07,1.29125 -0.8775,2.3625 -2.03,2.90125 0.1625,1.0475 -0.33625,2.17375 -1.22125,2.78625 -0.4775,0.44 -1.115,0.735 -1.925,0.735 -2.19,0 -2.87125,-2.07125 -2.25875,-3.6775 0.0275,-0.0863 0.0288,-0.16875 0.0663,-0.2525 0.20125,-0.45375 0.43375,-0.82 0.69875,-1.1475 -0.29125,-0.56375 -0.45,-1.20625 -0.4125,-1.87875 0.06,-1.11125 0.42125,-1.945 1.205,-2.73875 -0.52875,0.535 -0.03,-0.1275 0.055,-0.29875 0.22,-0.43875 0.5475,-0.73125 0.91875,-0.93 0.18375,-1.195 0.86875,-2.34625 2.02,-2.93625 0.72375,-1.4225 2.265,-2.2475 3.955,-2.2475 2.2225,0 3.9225,2.28375 3.7625,4.375 -0.165,2.1525 -1.8525,3.51375 -3.855,3.72 m 14.3550003,5.96625 c -0.0125,0.0337 -0.025,0.065 -0.0375,0.0987 -0.7125,1.86125 -1.3625,3.78875 -2.00125,5.735 -2.43625,3.16 -4.9525003,6.26125 -7.5975003,9.29125 3.31625,-4.98625 6.4675003,-10.06375 9.6362503,-15.125 M -17.34749,268.6653 c 0.1725,-1.08625 0.38625,-2.15625 0.62,-3.2175 0.24875,-0.0275 0.485,-0.11375 0.70875,-0.2475 -0.47,1.92 -0.8925,3.85375 -1.25,5.80875 -0.0163,-0.77875 -0.0425,-1.5625 -0.0788,-2.34375 m -1.77,-47.70625 c -0.0975,-0.8175 -0.20375,-1.6325 -0.31875,-2.4425 0.36625,0.76125 0.48,1.60875 0.31875,2.4425 m 0.2725,2.54 c -0.0475,-0.47 -0.095,-0.94 -0.14625,-1.41 0.16375,0.46125 0.22125,0.9425 0.14625,1.41 m 13.38625,6.46875 c -1.825,2.355 -3.86125,5.21625 -5.89625,8.44375 0.835,-2.67625 1.70875,-5.34875 2.675,-8.0175 4.6375,-12.7975 10.4050003,-25.18125 16.5700003,-37.33875 -0.41,0.2575 -0.865,0.45125 -1.3625,0.545 -1.5675,0.2925 -3.0675,-0.4 -3.9625,-1.5725 -5.21375,9.8775 -9.7162503,20.1025 -13.6587503,30.585 -0.0213,0.79875 -0.0588,1.59625 -0.15375,2.38875 -0.15375,0.765 -0.6925,1.335 -1.335,1.68 -0.2525,0.70125 -0.52,1.4 -0.76875,2.10375 -1.49,4.21875 -2.9575,8.62125 -4.3075,13.11 -0.0588,-1.075 -0.1175,-2.1525 -0.17375,-3.235 0.6875,-4.10375 1.6275,-8.11125 2.7575,-12.05 -0.34375,-0.2925 -0.59875,-0.725 -0.655,-1.3625 -0.1925,-2.185 0.1875,-4.2975 0.93375,-6.31375 -2.3325,-0.94625 -1.845,-4.98375 0.94375,-5.47 -0.0638,-0.17375 -0.12875,-0.3475 -0.1925,-0.51875 -0.41125,-1.105 -0.32375,-2.1475 0.32375,-3.05 -1.26,-2.145 -0.015,-5.8475 3.345,-5.8475 1.4325,0 2.35375,0.675 2.8325,1.6075 0.6,-1.455 1.2075,-2.90875 1.82,-4.3625 0.41,-0.97375 -0.23625,-1.76 -1.0575,-2.01625 3.1725003,-5.1475 6.7637503,-10.03375 10.7575003,-14.61 -0.0213,-0.085 -0.0525,-0.1625 -0.07,-0.25125 -0.3175,-1.69875 0.29875,-3.485 1.59375,-4.6275 0.59625,-0.525 1.26,-0.83 1.95125,-1.005 0.005,-0.05 -0.004,-0.1 0.005,-0.1525 0.0325,-0.17625 0.0613,-0.36 0.09,-0.54375 -0.63,-0.77875 -1.75625,-1.115 -2.765,-0.225 -10.1487503,8.94375 -17.2887503,19.7825 -22.5125003,31.85125 0.7575,-6.4525 1.75125,-12.8775 3.2125,-19.26625 -0.3375,0.06 -0.68125,0.0975 -1.02625,0.1025 -0.0962,1.54125 -1.19625,3.1 -3.1825,3.1 -0.12375,0 -0.215,-0.0413 -0.33,-0.0538 -1.07,4.57375 -1.96,9.195 -2.6875,13.84625 -0.81,-2.8075 -1.80125,-5.5575 -3.04625,-8.22 -0.86375,-1.84625 -1.83625,-3.65875 -2.95375,-5.415 -0.5525,-0.8675 -1.95875,-0.2475 -1.47375,0.71875 1.0175,2.02625 1.885,4.06625 2.6325,6.1175 1.825,5.01 2.9275,9.72875 3.705,14.86875 -0.0175,0.1525 -0.0362,0.09 -0.0537,0.09 l 0.1175,0 c 0.825,6.25 1.28875,11.60625 1.89375,17.30875 -0.3625,0.2275 -0.79625,0.55875 -1.32,0.55875 -2.09,0 -2.57,-2.0675 -1.73875,-3.48875 -0.004,-0.004 -0.0175,0.0312 -0.02,0.0288 -0.42875,-0.4675 -0.75875,-1.03125 -0.875,-1.665 -0.18125,-0.99625 -0.24125,-1.9225 -0.24625,-2.9325 -0.004,-0.625 0.4275,-1.115 0.975,-1.35625 -0.17375,-0.0375 -0.345,-0.03 -0.51625,-0.0913 -1.2175,-0.425 -2.13625,-1.4775 -2.375,-2.7475 -0.18625,-0.9925 0.115,-2.33125 0.89125,-3.09375 0.0162,-0.0275 0.0337,-0.0538 0.0487,-0.0813 0.30625,-0.50375 0.7325,-0.88875 1.2175,-1.17 -1.26375,-5.095 -2.9,-10.09 -5.06125,-14.91125 -1.63875,-3.65625 -3.49125,-7.9325 -5.7525,-12.01625 -0.83625,1.04375 -2.25625,1.52 -3.5425,1.2725 2.82,5.36625 4.90375,11.33125 6.80625,15.90375 4.405,10.59375 5.43875,22.17125 6.11125,33.675 -0.48625,2.29 -0.37875,4.58625 -0.6525,6.885 -0.0575,0.485 -0.11,0.9675 -0.16875,1.4525 -0.985,-8.75125 -3.11125,-17.42 -5.83875,-25.91 -0.2675,0.76125 -0.69875,1.45 -1.315,2.0175 0.4,0.79125 0.38375,1.77125 0.0675,2.65625 2.0175,0.53125 1.59375,3.96 -0.825,3.96 -0.155,0 -0.27,-0.05 -0.4025,-0.075 2.0675,7.25875 3.70125,14.60375 4.59875,22.065 0.53375,0.46125 0.96125,1.08 1.18625,1.79 0.22875,0.7175 0.37125,1.48875 0.47875,2.27625 0.575,0.0463 1.13125,0.295 1.6,0.6475 0.57625,0.0875 1.0775,0.56625 1.09,1.315 0.005,0.23375 0.0225,0.465 0.0437,0.6975 0,0.0163 0.002,0.0312 0.002,0.0475 0.0712,0.7775 0.21125,1.5425 0.305,2.29875 0.74,0.37125 1.20875,0.9425 1.6875,1.665 0.1075,0.1625 0.19625,0.32375 0.28375,0.485 0.0112,0.0225 0.0263,0.0413 0.0362,0.065 0.32125,0.61875 0.48875,1.2475 0.455,2.03125 -0.0825,1.98375 -1.83375,3.05125 -3.62125,3.115 -0.33,0.01 -0.6375,-0.065 -0.93625,-0.17 -0.35625,-0.1 -0.67125,-0.2475 -0.9325,-0.44875 -0.215,-0.13125 -0.425,-0.2675 -0.63125,-0.40375 -0.6575,-0.43375 -1.09875,-1.055 -1.35625,-1.74 -0.2425,-0.2275 -0.4575,-0.4825 -0.58375,-0.7875 -0.0788,-0.18875 -0.1075,-0.3675 -0.16625,-0.55375 -0.0825,-0.0312 -0.17625,-0.0525 -0.2525,-0.09 -0.20625,0.0537 -0.41,0.115 -0.6325,0.15 -2.14375,0.3425 -4.0025,-1.265 -4.29,-3.1775 -0.7,-0.25125 -1.275,-0.69375 -1.7225,-1.23875 0.73125,1.93625 1.39375,3.88875 2.0175,5.8525 -0.7825,-1.6025 -1.635,-3.02875 -2.765,-4.21625 -0.39362,-1.39966 -0.83878,-2.79756 -1.33299,-4.18876 -2.48452,-6.99407 -6.20842,-13.81869 -10.85326,-19.84499 -1.60875,-0.51 -2.50875,-1.82 -2.74625,-3.3275 -3.2,-3.66125 -6.75375,-6.94 -10.58,-9.68 -0.53625,0.74 -1.22875,1.365 -2.06875,1.8225 2.67375,2.075 5.10375,4.415 7.3075,7.0125 0.006,0.025 -0.002,0.0462 0.005,0.0725 1.38125,5.1925 3.25,10.16625 5.395,15.03 0.065,0.0213 0.14125,0.025 0.20375,0.0463 0.76,-0.37125 1.63375,-0.6025 2.64375,-0.6025 6.25,0 6.54125,8.175 2.01875,10.67 0.4275,0.82875 0.855,1.65875 1.29,2.485 1.85,3.5175 3.77875,7.78375 6.2275,11.1725 0.3275,1.13375 0.65875,2.26125 0.95375,3.39125 0.0612,0.2325 0.165,0.45875 0.23875,0.6875 0.21375,0.6775 0.4675,1.34 0.7725,1.9875 0.83125,1.7675 1.94125,3.36375 3.14,4.53375 0.0888,0.0888 0.1725,0.20375 0.2625,0.285 5.62875,1.12625 9.92,1.27 15.35625,1.015 2.37,-0.1125 4.71125,-0.2075 7.05375,-0.205 0.64375,-0.18125 1.27125,-0.39 1.88625,-0.62 2.38125,-0.88875 4.5525,-2.18625 6.48,-4.3625 0.125,-0.14 0.2125,-0.29125 0.3175,-0.435 0.3075,-0.42375 0.5625,-0.85875 0.73,-1.3075 0.275,-0.21375 0.49,-0.47875 0.745,-0.71125 2.3712503,-2.1625 3.9125003,-5.08375 5.2237503,-8.08875 -0.195,0.0325 -0.39625,0.0525 -0.60875,0.0525 -4.22125,0 -3.9375,-6.19875 -0.0988,-6.80875 -0.0487,-2.91875 2.94,-5.9975 5.945,-4.7325 0.18125,0.0775 0.3225,0.19 0.485,0.28375 0.86375,-0.855 2.05501,-1.425 3.5737597,-1.425 0.0337,0 0.06,0.007 0.0937,0.007 3.6125,-5.6475 6.7925,-11.55125 9.7075,-17.19875 0.70625,-1.37375 -0.0837,-2.7125 -1.1625,-3.19125 -0.6475,0.23125 -1.32625,0.37125 -2.015,0.34625 -0.1425,0.13625 -0.29125,0.2525 -0.4125,0.45 -2.05625,3.3325 -4.135,6.5875 -6.2475,9.7825 -0.4687497,2.48 -2.6775097,3.98 -5.1700097,3.98 -0.18125,0 -0.35125,-0.0412 -0.52625,-0.0662 -0.004,0.007 -0.009,0.0162 -0.0125,0.0225 -0.2375,2.33375 -2.41,3.8425 -4.565,3.72375 -0.095,1.12625 -0.90875,2.24625 -2.36,2.24625 -0.46,0 -0.81375,-0.13625 -1.1125,-0.32375 -2.9775003,5.02 -5.8087503,10.1275 -8.4712503,15.3 -0.045,0.0337 -0.0888,0.075 -0.13375,0.11 2.16625,-6.68875 4.655,-13.21625 6.74875,-20.06 0.17375,-0.56375 -0.6175,-0.81875 -0.8525,-0.29125 -0.45,1.01125 -0.945,2.02625 -1.45875,3.04625 2.20375,-7.685 5.1725003,-14.6775 8.9787503,-21.3775 -0.69625,0.3775 -1.51875,0.605 -2.47375,0.605 -3.1387503,0 -4.5425003,-2.38125 -4.4187503,-4.8075"
       style="fill:#10332f;fill-opacity:1;fill-rule:nonzero;stroke:none"
       id="path4785"
       inkscape:connector-curvature="0"
       sodipodi:nodetypes="cccccccccsccccccccsccccccccccccccccccccccccccccccccccccscccccccccccccsccccccccccsccccccccccccccccccccsccccccccccccccccccccccccccsccccccccsccccccccccccccccscccsccccccscccscccccccsc" />
    <path
       d="m -45.21316,235.00605 c 0.27375,0.41625 0.41625,0.915 0.455,1.43125 1.37125,3.4125 2.53625,6.91125 3.59,10.44875 -1.51875,-2.6575 -3.0925,-5.225 -4.645,-7.68 -0.5325,0.50375 -1.24125,0.8525 -2.15875,0.8525 -0.64875,0 -1.16,-0.1775 -1.575,-0.44875 2.66,5.3375 5.4375,10.61625 8.06125,15.9775 0.60125,1.22875 1.145,2.4675 1.66375,3.7125 -0.08,-1.02375 0.1825,-2.06375 0.87625,-2.8875 -1.345,-2.32125 0.006,-6.305 3.63,-6.305 0.60875,0 1.1275,0.11875 1.575,0.315 -1.8325,-4.91875 -3.80375,-9.72625 -5.645,-14.28875 -0.27625,-0.68 -0.82375,-1.0275 -1.435,-1.15625 -1.51375,-3.46625 -3.195,-6.86625 -5.0525,-10.1725 -0.9775,-1.7375 -2.0775,-3.33625 -3.235,-4.8725 -0.24375,0.21125 -0.505,0.40375 -0.79375,0.56875 -0.49625,0.96125 -1.42875,1.63625 -2.4525,1.79625 0.985,1.36875 1.9325,2.7875 2.8175,4.295 0.7375,1.255 1.3925,2.54625 2.04375,3.84 1.7425,0.8275 2.48625,2.70125 2.28,4.57375"
       style="fill:#10332f;fill-opacity:1;fill-rule:nonzero;stroke:none"
       id="path4793"
       inkscape:connector-curvature="0" />
    <path
       d="m 15.0176,237.13485 c 0.18,0.0838 0.3525,0.1775 0.54375,0.24 0.47125,0.1575 0.96625,0.23375 1.4675,0.25375 0.68875,0.025 1.3675,-0.115 2.015,-0.3475 0.66125,-0.2375 1.28875,-0.56375 1.79,-1.07 0.83375,-0.84 1.3425,-1.78375 1.7,-2.8075 0.63625,-0.0238 1.2725,-0.105 1.9,-0.30125 2.07375,-0.64625 3.9525,-1.91 5.0375,-3.8425 1.36875,-2.43625 1.25125,-4.91875 0.335,-7.485 -1.4675,-4.1025 -6.81375,-4.85125 -10.115,-2.67125 -2.16375,1.42625 -3.83125,3.81875 -4.0725,6.22125 -0.75375,0.45375 -1.3925,1.11 -1.8525,1.95625 -1.0775,0.90875 -1.76,2.33375 -2.005,3.7925 -0.20125,1.20125 0.045,2.415 0.59125,3.475 0.58,1.12125 1.50875,2.04875 2.665,2.58625"
       style="fill:#eba134;fill-opacity:1;fill-rule:nonzero;stroke:none"
       id="path4809"
       inkscape:connector-curvature="0" />
    <path
       d="m 7.4514603,178.78285 c -0.69125,0.175 -1.355,0.48 -1.95125,1.005 -1.295,1.1425 -1.91125,2.92875 -1.59375,4.6275 0.0175,0.0888 0.0487,0.16625 0.0687,0.25125 0.1025,0.41125 0.245,0.79375 0.42625,1.14375 -1.4625,0.5225 -2.53875,1.945 -2.65875,3.50375 -0.0775,1.01875 0.25125,1.96125 0.8225,2.71375 0.895,1.1725 2.395,1.865 3.96125,1.5725 0.49875,-0.0937 0.95375,-0.2875 1.36375,-0.545 1.25376,-0.78125 2.01626,-2.21875 1.91126,-3.73125 -0.0112,-0.15 -0.009,-0.29875 -0.0362,-0.44875 -0.0425,-0.2225 -0.11125,-0.42875 -0.185,-0.63125 0.3025,-0.05 0.6024997,-0.1325 0.8974997,-0.2275 0.36875,-0.12125 0.73125,-0.27625 1.075,-0.49125 1.965,-1.33125 2.58375,-3.50625 2.0075,-5.41 -0.0325,-0.10375 -0.0525,-0.2125 -0.0925,-0.3175 0.17625,-0.1375 0.34375,-0.305 0.51,-0.47625 0.0112,-0.0112 0.0237,-0.0212 0.035,-0.0312 -0.009,0.006 -0.0175,0.0125 -0.0275,0.0163 -0.13,0.0875 -0.26125,0.17625 -0.39125,0.26125 0.16875,-0.1125 0.23875,-0.18375 0.35375,-0.26125 0.01,-0.006 -0.006,-0.015 -0.006,-0.0213 l 0,-0.001 c 0,0.007 0.0162,0.0137 0.008,0.0212 -0.0275,0.0175 -0.0288,0.0325 -0.0713,0.06 0.0363,-0.0212 0.0763,-0.0462 0.10625,-0.0737 0.0288,-0.025 0.0637,-0.0475 0.0962,-0.0688 0.0138,-0.015 0.0325,-0.025 0.0463,-0.0412 -0.006,0.007 -0.009,0.015 -0.015,0.0213 0.74125,-0.47875 1.30875,-1.1225 1.6425,-1.8825 1.7475,-0.775 3.045,-2.3225 3.2075,-4.46125 0.21375,-2.79375 -2.05625,-5.84625 -5.026249,-5.84625 -2.97125,0 -5.6075001,1.90125 -5.8450101,5.0275 -0.0525,0.68875 0.0825,1.3825 0.30626,2.05375 -0.20626,0.31125 -0.40001,0.64125 -0.58001,1.00875 -0.15,0.305 -0.215,0.64375 -0.27,0.98375 -0.0288,0.18375 -0.0575,0.3675 -0.0913,0.54375 -0.007,0.0525 0,0.1025 -0.004,0.1525"
       style="fill:#eba134;fill-opacity:1;fill-rule:nonzero;stroke:none"
       id="path4825"
       inkscape:connector-curvature="0" />
    <path
       d="m -15.54503,190.54865 c 0.345,-0.004 0.68875,-0.0425 1.02625,-0.1025 0.96125,-0.1775 1.87625,-0.58875 2.62875,-1.25125 0.815,-0.7175 1.41875,-1.53 1.775,-2.5625 0.22875,-0.67 0.28625,-1.35375 0.26375,-2.04125 0.0813,-0.99875 -0.0713,-1.9675 -0.52125,-2.86 0.60875,-1.03 1.0125,-2.17875 1.10375,-3.3825 0.305,-4.0075 -2.9525,-8.39 -7.215,-8.39 -2.165,0 -4.09375,0.46125 -5.76375,1.9325 -1.52125,1.34125 -2.4725,3.2625 -2.62625,5.2825 -0.21125,2.7625 1.29375,5.67125 3.6325,7.23 -0.04,0.49125 -0.0337,0.975 0.0962,1.41875 0.0213,0.0688 0.0412,0.1375 0.0612,0.20625 0.22875,0.77375 0.56375,1.46375 0.97,2.0875 -2.0225,1.45625 -1.80375,5.18875 1.05625,5.47875 0.115,0.0125 0.20625,0.0538 0.33,0.0538 1.98625,0 3.08625,-1.55875 3.1825,-3.1"
       style="fill:#eba134;fill-opacity:1;fill-rule:nonzero;stroke:none"
       id="path4829"
       inkscape:connector-curvature="0" />
    <path
       d="m -35.69579,189.94435 c 0.0613,-0.0775 0.1375,-0.14 0.19125,-0.22375 1.54875,-2.34 1.02125,-4.86625 -1.18125,-6.5375 -1.0025,-0.76125 -2.26375,-0.94875 -3.45875,-0.73875 0.0425,-1.93375 -0.90875,-3.7825 -2.9475,-4.3775 -0.23,-0.3975 -0.50375,-0.7675 -0.8525,-1.075 -0.3975,-1.63 -1.76125,-3.36375 -3.42875,-3.7475 -0.64375,-0.14875 -1.2875,-0.23875 -1.92125,-0.26125 -0.51625,-2.00625 -1.79375,-3.87625 -3.76625,-4.6225 -0.30875,-0.165 -0.6175,-0.31125 -0.92375,-0.41625 -2.68875,-0.925 -6.33125,0.0125 -7.78875,2.62875 -1.56875,2.815 -1.6075,6.1625 0.7475,8.60875 1.88625,1.96375 4.775,2.7975 7.2925,2.0075 0.11,0.16375 0.215,0.32875 0.3275,0.49 0.59875,0.85875 1.6625,1.2325 2.56125,1.64625 0.36625,0.16875 0.7825,0.2625 1.22,0.3 0.16875,2.1275 1.57875,4.02875 4.37,4.02875 1.00125,0 1.84625,-0.2675 2.56375,-0.6825 0.0387,0.0875 0.0688,0.18 0.115,0.26125 0.1175,1.0925 0.76375,2.015 1.4375,2.8675 0.4925,0.625 1.17375,0.97625 1.89875,1.11625 1.2875,0.24625 2.7075,-0.23 3.54375,-1.2725"
       style="fill:#eba134;fill-opacity:1;fill-rule:nonzero;stroke:none"
       id="path4833"
       inkscape:connector-curvature="0" />
    <path
       d="m -39.55391,205.39605 c 0.075,-0.355 0.1175,-0.715 0.0962,-1.07 0.9125,-1.18875 1.21375,-2.72625 1.12125,-4.3625 -0.1175,-2.1275 -2.0175,-4.38125 -3.99625,-5.08625 -0.125,-0.02 -2.7175,-0.78875 -1.02875,-0.11875 -0.28375,-0.1125 -0.57625,-0.2025 -0.865,-0.29625 -0.28875,-0.0937 -0.585,-0.13625 -0.88,-0.16875 0.20375,-1.075 0.12,-2.16375 -0.4375,-3.30375 -0.8675,-1.78125 -2.6525,-2.99 -4.625,-3.14125 -4.19875,-0.31875 -7.40625,4.2525 -5.47125,8.06375 0.0487,0.0962 0.0975,0.19125 0.14625,0.28625 0.875,1.72375 2.55125,2.9025 4.4925,3.05125 0.3975,0.0288 0.82625,0.001 1.2575,-0.0675 0.004,0.0125 0,0.025 0.004,0.0375 0.0437,0.135 0.08,0.27625 0.12125,0.41125 -0.115,0.98375 -0.0537,1.975 0.4825,2.87125 0.70375,1.175 1.33625,2.1525 2.50625,2.94 0.2,0.13375 0.42625,0.20875 0.64,0.31375 0.19875,1.245 1.06,2.275 2.5925,2.4425 0.13875,0.0138 0.24625,0.0663 0.395,0.0663 1.95875,0 3.1275,-1.36375 3.44875,-2.86875"
       style="fill:#eba134;fill-opacity:1;fill-rule:nonzero;stroke:none"
       id="path4837"
       inkscape:connector-curvature="0" />
    <path
       d="m -65.07366,226.41585 c 2.70125,-3.7175 1.52125,-10.075 -4.29625,-10.075 -1.1375,0 -2.12125,0.2625 -2.975,0.6875 -0.63125,-0.525 -1.34875,-0.92 -2.095,-1.0975 -1.8575,-0.44 -3.175,-0.24 -4.90375,0.4 1.5575,-0.5775 -0.0725,-0.0525 -0.56875,-0.0175 -0.45125,0.0312 -0.88375,0.1925 -1.2875,0.42375 -0.0987,-0.135 -0.18125,-0.28125 -0.29375,-0.40875 -1.33125,-1.50875 -3.0525,-1.8475 -4.96125,-1.7075 -4.44,0.32375 -7.09375,5.515 -4.00875,9.01875 0.9475,1.07625 2.22,1.55 3.50375,1.525 0.05,0.006 0.0813,0.01 0.13375,0.0188 0.23625,0.006 0.46875,-0.0337 0.7025,-0.0462 0.0525,0.002 0.1225,0.004 0.245,0.004 1.46125,0.025 2.83625,-0.45625 3.87375,-1.32625 1.0175,1.21875 2.40125,2.3 3.91125,2.73125 1.06375,0.3025 2.09625,0.3175 3.05875,0.12375 0.9075,1.395 2.44625,2.375 4.70875,2.375 1.235,0 2.28375,-0.315 3.18375,-0.80625 0.84,-0.4575 1.5325,-1.0825 2.06875,-1.8225"
       style="fill:#eba134;fill-opacity:1;fill-rule:nonzero;stroke:none"
       id="path4849"
       inkscape:connector-curvature="0" />
    <path
       d="m -51.58816,249.79725 c -1.00875,0 -1.8825,0.23 -2.64375,0.60125 -0.0625,-0.02 -0.13875,-0.025 -0.20375,-0.0462 -0.0987,-0.0288 -0.18875,-0.0675 -0.31125,-0.0675 -0.1625,0 -0.28,0.0637 -0.415,0.10375 -0.11,-0.0362 -0.215,-0.0813 -0.33125,-0.10875 0.37,-2.19375 -0.59625,-4.525 -3.09125,-4.99375 -0.77375,-0.69375 -1.745,-1.14875 -2.78625,-1.1475 -0.75125,0 -1.49875,0.04 -2.24875,0.10875 -2.1675,0.205 -3.84125,2.4175 -3.9975,4.46375 -0.205,2.68875 1.8675,5.045 4.5325,5.27125 0.3275,0.0275 0.64625,0.0337 0.96,0.0213 0.21375,0.0975 0.455,0.1675 0.7,0.23 -0.44875,2.49375 0.8175,5.20375 4.06375,5.20375 0.31125,0 0.6,-0.0387 0.8825,-0.0863 0.83125,1.1 2.15125,1.85 4.03125,1.85 1.1175,0 2.06625,-0.285 2.8775,-0.735 4.52375,-2.495 4.2325,-10.66875 -2.01875,-10.66875"
       style="fill:#eba134;fill-opacity:1;fill-rule:nonzero;stroke:none"
       id="path4853"
       inkscape:connector-curvature="0" />
    <path
       d="m -51.74804,239.42315 c 0.4525,0.14375 0.93875,0.24625 1.50375,0.24625 0.24125,0 0.45875,-0.0387 0.6825,-0.0662 0.005,0.002 0.0113,0.004 0.015,0.006 0.415,0.27125 0.92625,0.44875 1.57375,0.44875 0.91875,0 1.6275,-0.34875 2.16,-0.8525 0.76125,-0.71625 1.12875,-1.77 1.05375,-2.76875 -0.0387,-0.51625 -0.18,-1.015 -0.45375,-1.43125 0.20625,-1.87125 -0.5375,-3.74625 -2.28125,-4.57375 -0.11875,-0.0563 -0.23,-0.12375 -0.3575,-0.16875 -0.33,-1.56125 -1.28,-2.775 -2.5975,-3.86125 -3.08375,-2.54125 -8.14625,1.8225 -5.9775,5.225 0.61125,0.96 1.06,2.01 1.92625,2.74 -0.0913,0.57875 -0.0812,1.16375 0.007,1.7275 0.23625,1.50875 1.1375,2.81875 2.745,3.32875"
       style="fill:#eba134;fill-opacity:1;fill-rule:nonzero;stroke:none"
       id="path4857"
       inkscape:connector-curvature="0" />
    <path
       d="m 7.7012103,212.88935 c -6.00875,0 -8.4525,6.255 -6.7025,10.37625 -0.0125,0.015 -0.02,0.0312 -0.0312,0.045 -0.0888,0.105 -0.175,0.21 -0.2625,0.31375 0.375,-0.45125 0.1875,-0.24 -0.56125,0.63375 -0.12375,0.20625 -0.23125,0.415 -0.34125,0.625 -0.0337,-0.002 -0.0625,-0.0113 -0.0962,-0.0113 -3.24875,0 -5.0337503,2.5725 -5.1650003,5.09625 -0.12375,2.42625 1.28,4.8075 4.4187503,4.8075 0.955,0 1.7775,-0.2275 2.47375,-0.605 1.21625,-0.6625 2.03375,-1.7975 2.425,-3.055 0.46375,-0.0863 0.91875,-0.22 1.33375,-0.45625 1.4125,-0.80625 2.13625,-2.02375 2.53125,-3.56 0.0362,-0.1425 0.0787,-0.28125 0.11625,-0.42375 4.6600097,-0.7025 6.7350097,-5.4475 5.8637597,-9.17625 -0.2025,-0.86625 -0.55875,-1.6675 -1.08375,-2.36 -1.0175,-1.33875 -2.6312497,-2.25 -4.9187597,-2.25"
       style="fill:#eba134;fill-opacity:1;fill-rule:nonzero;stroke:none"
       id="path4861"
       inkscape:connector-curvature="0" />
    <path
       d="m -11.06429,218.21105 c 0.006,-0.3625 0.0712,-0.68125 0.10375,-1.02125 0.18,-0.48375 0.25,-0.99125 0.2,-1.49 0.0462,-0.21125 0.12125,-0.41125 0.17875,-0.61875 0.74375,-0.25875 1.4025,-0.775 1.6825,-1.525 l 0.35375,-0.94625 c 0.195,-0.52125 0.1675,-1.14375 0.0175,-1.725 0.0263,-0.0375 0.0525,-0.0763 0.0775,-0.115 0.005,-0.001 0.0113,-0.001 0.0163,-0.004 0.29125,-0.13 0.5825,-0.2575 0.87375,-0.385 1.3025,-0.5725 1.58375,-2.3625 0.6775,-3.39125 -0.095,-0.1075 -0.2025,-0.185 -0.30875,-0.26875 -0.06,-0.37875 -0.18125,-0.735 -0.35125,-1.065 -0.48,-0.9325 -1.4,-1.6075 -2.83375,-1.6075 -3.36,0 -4.605,3.7025 -3.34375,5.84625 -0.64875,0.9025 -0.73625,1.945 -0.32375,3.05125 0.0625,0.17125 0.1275,0.34375 0.19125,0.5175 -2.7875,0.4875 -3.27625,4.52375 -0.9425,5.47 -0.74625,2.01625 -1.12625,4.12875 -0.93375,6.315 0.0563,0.6375 0.31125,1.06875 0.65375,1.3625 0.65625,0.55375 1.65875,0.52 2.49375,0.07 0.64125,-0.345 1.18,-0.915 1.335,-1.67875 0.0937,-0.7925 0.13125,-1.59125 0.1525,-2.38875 0.04,-1.465 0.005,-2.93875 0.03,-4.4025"
       style="fill:#eba134;fill-opacity:1;fill-rule:nonzero;stroke:none"
       id="path4865"
       inkscape:connector-curvature="0" />
    <path
       d="m -34.22891,227.89725 c 0.31625,-0.885 0.3325,-1.86625 -0.0675,-2.6575 0.6175,-0.56625 1.0475,-1.255 1.315,-2.01625 0.27375,-0.7775 0.37625,-1.63125 0.32625,-2.51125 -0.0625,-1.045 -0.9675,-1.895 -1.94375,-2.2575 -0.25125,-0.0913 -0.505,-0.16 -0.7525,-0.18375 0.0738,-0.315 0.095,-0.65125 -0.002,-1.02 -0.0838,-0.31125 -0.055,-0.86 -0.105,-0.045 0.03,-0.30125 0.0188,-0.6025 -0.0312,-0.905 -0.0512,-0.1525 -0.0837,-0.25125 -0.11875,-0.35875 -0.1625,-0.5925 -0.46625,-1.03125 -0.81875,-1.3875 0.0675,-0.3725 0.0638,-0.75625 -0.045,-1.1375 -0.59375,-2.0975 -2.38875,-3.43625 -4.5875,-3.43125 -0.5525,0.002 -1.06875,0.13375 -1.5525,0.325 -0.885,0.35 -1.6175,0.9875 -1.9625,1.98875 -0.565,1.6425 0.305,3.9475 2.135,4.3775 0.115,0.0337 0.17875,0.0475 0.21625,0.0537 0.26125,0.15875 0.5225,0.31625 0.80875,0.42875 0.01,0.002 0.0187,0.005 0.0275,0.006 0.14,1.2125 1.01125,2.05 2.1225,2.54125 0.1775,0.0775 0.34375,0.16875 0.53125,0.2275 0.0663,0.14625 0.1325,0.29 0.195,0.43625 -0.0325,0.0737 -0.07,0.145 -0.1,0.18625 -0.0875,0.12125 -0.12875,0.28 -0.19375,0.42 -0.20125,0.4425 -0.33375,0.94 -0.4,1.39 -0.10875,0.75625 -0.0388,1.54125 0.31625,2.20125 -1.9525,1.68 -1.57625,5.57125 1.6375,5.57125 0.15625,0 0.28875,-0.0375 0.4325,-0.0563 0.0288,0.8025 0.485,1.51875 1.39,1.6975 0.1325,0.0263 0.2475,0.0763 0.4025,0.0763 2.41875,0 2.8425,-3.42875 0.825,-3.96"
       style="fill:#eba134;fill-opacity:1;fill-rule:nonzero;stroke:none"
       id="path4873"
       inkscape:connector-curvature="0" />
    <path
       d="m -8.69679,247.24855 c 0.16,-2.09125 -1.53875,-4.375 -3.7625,-4.375 -1.69,0 -3.23125,0.825 -3.95375,2.2475 -1.15125,0.59 -1.83625,1.74 -2.02125,2.935 -0.37125,0.2 -0.69875,0.4925 -0.91875,0.93125 -0.085,0.17 -0.5825,0.83375 -0.055,0.2975 -0.7825,0.795 -1.14375,1.62875 -1.205,2.74 -0.0363,0.6725 0.12125,1.31375 0.4125,1.87875 -0.265,0.3275 -0.4975,0.6925 -0.6975,1.14625 -0.0375,0.0838 -0.04,0.1675 -0.0675,0.2525 -0.6125,1.6075 0.07,3.67875 2.25875,3.67875 0.81,0 1.44875,-0.295 1.925,-0.73625 0.88625,-0.61125 1.38375,-1.73875 1.2225,-2.785 1.1525,-0.53875 2.1,-1.61125 2.03,-2.9025 -0.0175,-0.305 -0.0275,-0.59375 -0.0512,-0.88 0.3925,-0.18125 0.73875,-0.41875 1.03,-0.71 2.00125,-0.205 3.69,-1.5675 3.85375,-3.71875"
       style="fill:#eba134;fill-opacity:1;fill-rule:nonzero;stroke:none"
       id="path4877"
       inkscape:connector-curvature="0" />
    <path
       d="m -26.09991,218.04185 c -0.0163,0.0263 -0.0325,0.0537 -0.0488,0.0813 -0.77625,0.7625 -1.0775,2.1025 -0.89125,3.095 0.2375,1.27 1.1575,2.3225 2.37375,2.74875 0.1725,0.0612 0.34375,0.0575 0.51625,0.0937 -0.54625,0.24125 -0.9775,0.73625 -0.97375,1.36125 0.005,1.01125 0.0637,1.94875 0.24625,2.94625 0.11625,0.6325 0.44625,1.22 0.87375,1.6875 0.004,0.002 0.0175,0.0137 0.0213,0.0175 -0.83125,1.42 -0.3525,3.57875 1.73875,3.57875 0.52375,0 0.9575,-0.51375 1.32,-0.74125 -0.605,-5.7025 -1.07,-11.05875 -1.89375,-17.30875 l -0.1175,0 c -0.685,0 -1.36125,0.5625 -1.9475,0.90375 -0.485,0.2825 -0.91125,1.0325 -1.2175,1.53625"
       style="fill:#eba134;fill-opacity:1;fill-rule:nonzero;stroke:none"
       id="path4881"
       inkscape:connector-curvature="0" />
    <path
       d="m 15.84172,193.67665 c -0.26375,0.33625 -0.44625,0.685 -0.57125,1.04 -0.5775,-0.2675 -1.27625,-0.31875 -2.06,0.0462 -1.1225,0.525 -1.89375,1.28375 -2.44125,2.16125 -2.0012497,1.9025 -4.0000097,3.8025 -6.0637597,5.65125 -1.36625,1.2225 -1.51875,3.3675 -0.29875,4.75375 1.55125,1.75875 3.96251,1.28875 5.32876,-0.36 0.3512497,-0.42375 0.6774997,-0.865 1.0099997,-1.30125 1.5375,2.02 5.38125,0.9775 4.7675,-2.01 -0.28,-1.36625 -0.40375,-2.58875 0.001,-3.7425 -0.0112,0.16375 -0.04,0.32 -0.0387,0.48625 0.015,1.88375 1.68875,3.06375 3.455,2.345 2.92,-1.185 4.42625,-4.1875 6.035,-6.70625 1.83625,-2.8825 -1.13625,-5.74 -3.70625,-5.11 -2.09,-0.12 -4.09,1.05125 -5.4175,2.74625"
       style="fill:#eba134;fill-opacity:1;fill-rule:nonzero;stroke:none"
       id="path4893"
       inkscape:connector-curvature="0" />
    <path
       d="m 3.0418403,207.18925 c -2.44625,0 -2.74375,3.80125 -0.28625,3.80125 2.44625,0 2.74375,-3.80125 0.28625,-3.80125"
       style="fill:#eba134;fill-opacity:1;fill-rule:nonzero;stroke:none"
       id="path4897"
       inkscape:connector-curvature="0" />
    <path
       d="m 0.0955903,255.52055 c 2.15375,0.11875 4.32625,-1.39 4.565,-3.72375 0.004,-0.006 0.007,-0.015 0.0125,-0.0238 0.175,0.025 0.34375,0.0675 0.525,0.0675 2.49375,0 4.70251,-1.5 5.1700097,-3.98 0.009,-0.0437 0.0175,-0.0862 0.0238,-0.13125 0.0225,-0.14125 0.0637,-0.2725 0.075,-0.41875 0.175,-2.29375 -1.5174997,-4.75875 -3.8450097,-5.18125 -0.225,-0.0425 -0.45,-0.0888 -0.68625,-0.0888 -2.52875,0 -4.7675,1.5425 -5.18875,4.085 -0.2075,0.1075 -0.4125,0.21375 -0.6225,0.31375 -0.47375,0.2275 -0.92,0.55875 -1.35125,0.84875 -0.0475,0.0188 -0.1225,0.0563 -0.23875,0.115 -2.34875,1.19875 -2.9937503,4.15 -1.67625,6.19625 -1.3775003,0.855 -1.5237503,3.03875 -0.23625,3.84375 0.3,0.1875 0.6525,0.32375 1.11375,0.32375 1.45125,0 2.265,-1.12 2.36,-2.24625"
       style="fill:#eba134;fill-opacity:1;fill-rule:nonzero;stroke:none"
       id="path4901"
       inkscape:connector-curvature="0" />
    <path
       d="m -38.94591,256.41225 c -0.69375,0.82375 -0.95625,1.86375 -0.87625,2.8875 0.0713,0.915 0.4225,1.8075 1.0075,2.52 0.44875,0.54625 1.0225,0.98875 1.72375,1.23875 0.2875,1.9125 2.145,3.52125 4.29,3.17875 0.2225,-0.035 0.425,-0.0962 0.6325,-0.15 0.0763,0.0375 0.16875,0.0575 0.2525,0.09 0.0588,0.185 0.0875,0.365 0.16625,0.5525 0.12625,0.30625 0.34125,0.56125 0.58375,0.78875 0.2575,0.685 0.6975,1.305 1.35625,1.74 0.20625,0.13625 0.415,0.27125 0.63125,0.40375 0.26125,0.2 0.57625,0.3475 0.9325,0.44875 0.29875,0.10375 0.60625,0.18 0.93625,0.16875 1.7875,-0.0625 3.53875,-1.13 3.62125,-3.115 0.0337,-0.78375 -0.13375,-1.4125 -0.455,-2.03125 -0.01,-0.0225 -0.0263,-0.0412 -0.0375,-0.065 -0.0863,-0.16 -0.175,-0.32125 -0.2825,-0.48375 -0.47875,-0.72375 -0.9475,-1.29375 -1.6875,-1.665 -0.0937,-0.75625 -0.23375,-1.5225 -0.305,-2.29875 0,-0.0163 -0.004,-0.0312 -0.004,-0.0488 -0.0213,-0.23125 -0.0387,-0.46375 -0.0425,-0.6975 -0.0125,-0.74875 -0.51375,-1.22625 -1.09125,-1.31375 -0.46875,-0.35375 -1.025,-0.6025 -1.59875,-0.64875 -0.1075,-0.7875 -0.25125,-1.55875 -0.47875,-2.275 -0.225,-0.71 -0.6525,-1.32875 -1.18625,-1.79125 -0.28625,-0.2475 -0.5925,-0.465 -0.935,-0.59875 -0.13125,-1.21 -0.77125,-2.3075 -1.94875,-2.825 -0.4475,-0.19625 -0.96625,-0.315 -1.575,-0.315 -3.62375,0 -4.975,3.98375 -3.63,6.305"
       style="fill:#eba134;fill-opacity:1;fill-rule:nonzero;stroke:none"
       id="path4905"
       inkscape:connector-curvature="0" />
    <path
       d="m 6.8309603,259.08865 c -0.1625,-0.0937 -0.30375,-0.20625 -0.485,-0.28375 -3.005,-1.26375 -5.99375,1.81375 -5.94375,4.7325 -3.84,0.61 -4.12375,6.81 0.0975,6.81 0.21375,0 0.41375,-0.0212 0.60875,-0.0525 1.565,-0.24375 2.54125,-1.41 2.86375,-2.71625 1.01,0.0787 2.08625,-0.2175 2.86875,-0.865 0.70375,0.5475 1.63626,0.88875 2.81626,0.88875 6.3637497,0 7.1574997,-9.8275 0.8412497,-9.93 -0.0325,0 -0.06,-0.009 -0.0937,-0.009 -1.5187497,0 -2.7100097,0.57 -3.5737597,1.425"
       style="fill:#eba134;fill-opacity:1;fill-rule:nonzero;stroke:none"
       id="path4909"
       inkscape:connector-curvature="0" />
    <path
       d="m -38.13004,171.76195 c 0.0625,0.10625 0.28,0.4725 0.45625,0.76875 -0.1925,0.23375 -0.36625,0.49125 -0.47,0.7925 -0.47375,1.37875 0.28125,2.925 1.65875,3.39875 0.13125,0.0463 0.2525,0.0638 0.375,0.0888 -0.0825,1.4 0.16375,2.63 0.725,4.005 0.4875,1.18625 1.81875,1.97875 3.0575,2.0725 1.73625,0.13375 3.15125,-0.9375 3.7875,-2.4925 0.0138,-0.0337 0.0188,-0.0663 0.0325,-0.1 0.15625,-0.25875 0.28625,-0.54125 0.37,-0.85875 0.10875,-0.40625 0.145,-0.8375 0.13875,-1.26875 0.0738,-0.825 0.0263,-1.65874 -0.105,-2.57249 -0.25625,-1.77125 -1.9075,-3.13 -3.64375,-3.2625 -0.11,-0.009 -0.21125,0.007 -0.3175,0.007 0.001,-0.007 0.007,-0.0125 0.009,-0.0188 0.7025,-2.1075 -0.28125,-3.6875 -1.815,-5.0225 -1.04375,-0.9075 -2.86875,-0.58375 -3.8225,0.25875 -1.335,1.17625 -1.34,3.09375 -0.2775,4.43625 0.1375,0.175 0.21875,0.41375 -0.15875,-0.2325"
       style="fill:#eba134;fill-opacity:1;fill-rule:nonzero;stroke:none"
       id="path4913"
       inkscape:connector-curvature="0" />
    <path
       d="m -29.60179,184.02955 c -0.4425,-0.51875 -1.07125,-0.55625 -1.56875,-0.31125 -0.20125,-0.14875 -0.44125,-0.26 -0.77,-0.26 -1.84625,0 -2.07,2.8675 -0.21625,2.8675 0.17875,0 0.32875,-0.0462 0.4775,-0.0962 0.1225,0.59125 0.1975,1.1975 0.27125,1.78625 0.13875,1.12 0.395,1.975 1.03375,2.91125 0.88,1.28625 3.10375,0.11625 2.72375,-1.32875 -0.16125,-0.6125 -0.32,-1.25125 -0.49,-1.89125 0.37375,-0.29875 0.60875,-0.73125 0.71125,-1.25375 0.015,-0.0738 0.0288,-0.14375 0.0437,-0.215 0.20625,-1.05125 -0.86875,-2.19 -1.8925,-2.2025 -0.1075,0 -0.215,-0.005 -0.32375,-0.006"
       style="fill:#eba134;fill-opacity:1;fill-rule:nonzero;stroke:none"
       id="path4917"
       inkscape:connector-curvature="0" />
    <path
       d="m -27.74541,193.80605 c 1.1175,1.7575 2.09,3.56875 2.955,5.41625 0.56625,-1.24625 0.565,-2.37 -0.0487,-3.6675 -0.02,-0.0437 -0.0575,-0.0838 -0.0813,-0.125 0.39625,-1.6775 -0.42,-3.58625 -2.62,-3.58625 -1.85375,0 -2.9075,1.36625 -3.1125,2.8 -1.07875,1.51125 -0.7475,3.9575 1.23125,4.43875 0.02,0.0412 0.0263,0.0937 0.0487,0.135 0.5175,0.94875 1.71375,1.53625 2.78625,1.425 -0.7475,-2.05125 -1.61375,-4.09125 -2.63125,-6.1175 -0.485,-0.965 0.92,-1.58625 1.4725,-0.71875"
       style="fill:#eba134;fill-opacity:1;fill-rule:nonzero;stroke:none"
       id="path4921"
       inkscape:connector-curvature="0" />
    <path
       d="m 34.46835,193.54295 c -1.9675,-0.94 -4.2725,0.205 -5.84625,1.34125 -0.90875,0.65625 -1.48375,2.13375 -1.39875,3.34375 -0.075,0.1025 -0.14375,0.20375 -0.20625,0.315 -2.13125,0.12375 -4.01625,2.3275 -5.205,4.02875 -0.09,0.12875 -0.18625,0.2625 -0.26875,0.38625 -0.43875,0.65375 -0.8225,1.34125 -1.18375,2.04125 -0.0625,0.12375 -0.12,0.24875 -0.18125,0.37125 -0.79625,1.605 -1.46625,3.2825 -2.19125,4.915 -0.91875,0.78125 -1.11875,2.225 -0.515,3.14 0.32,0.48875 0.8575,0.83625 1.66,0.83625 1.53875,0 2.34125,-1.25625 2.34875,-2.44875 0.465,-0.98875 0.91,-1.9875 1.36375,-2.98 0.58375,0.31625 1.28125,0.4575 1.99625,0.38125 2.245,-0.24125 3.89125,-2.41625 4.49,-4.43 0.20375,-0.6875 0.27625,-1.45375 0.2475,-2.19875 0.40125,-0.0625 0.75125,-0.2 1.05375,-0.395 0.885,0.13375 1.82125,0.015 2.655,-0.31125 1.64125,-0.64125 2.8575,-1.85875 3.565,-3.4475 0.92375,-2.07 -0.63125,-4.04875 -2.38375,-4.88875"
       style="fill:#eba134;fill-opacity:1;fill-rule:nonzero;stroke:none"
       id="path4925"
       inkscape:connector-curvature="0" />
    <path
       d="m -49.90191,220.50105 c 0.28875,-0.165 0.55,-0.3575 0.79375,-0.56875 0.8125,-0.7 1.35375,-1.65 1.465,-2.89125 0.007,-0.10875 0.02,-0.2175 0.0375,-0.32375 0.25875,-1.85375 -1.0975,-3.39375 -2.6775,-4.06875 -0.1125,-0.05 -0.22625,-0.0962 -0.34125,-0.1375 -1.5325,-0.5775 -3.175,-0.12625 -4.3575,0.89875 -0.28875,0.2475 -0.5575,0.5225 -0.78125,0.835 -0.595,0.8325 -0.91625,1.73625 -1.0225,2.6375 -0.22,1.8575 0.55125,3.70875 2.275,4.91375 0.69,0.485 1.445,0.6125 2.15625,0.50125 1.02375,-0.16 1.95625,-0.835 2.4525,-1.79625"
       style="fill:#eba134;fill-opacity:1;fill-rule:nonzero;stroke:none"
       id="path4929"
       inkscape:connector-curvature="0" />
  </g>
</svg>
